<svg version="1" xmlns="http://www.w3.org/2000/svg" width="432" height="432"><ellipse fill="none" stroke="#000" stroke-width="2" stroke-miterlimit="10" cx="181.3" cy="119.4" rx="14" ry="21.7"/><path fill="none" stroke="#000" stroke-width="2" stroke-miterlimit="10" d="M170.5 105.6s8.9 3.7 21.1 0m-15.3 34l.8 7.3m8.2-6.7v5.9m15.4-.1l-39.8 1.1 6.3 68.5s17.2 3.8 33.4 0V146z"/><path fill="none" stroke="#000" stroke-width="2" stroke-miterlimit="10" d="M161 147.1l-19 32.5 8.5 36.1v7l5.7 7.2 4.8-2.5-4-8.5 4 .3v-4.3l-4.8-2.6-2.7-30.6 9.3-15m37.9-20.7s17.4 43.8 22.1 55.5m-22.1-28.8s11.6 23.7 15.5 31.7M168.9 216v100.7h7.1l8.5-99.4m1.7 0l13.3 98.4h8.2l-7-100m-31.8 101l-16.5 12.7 14.8 6 8.8-18.7"/><path fill="none" stroke="#000" stroke-width="2" stroke-miterlimit="10" d="M199.5 315.7l10.7 19.7 15.6-5-18.1-14.7m49-166.3l.5 7.8m8.8-7.8l-.8 7.8m-14.1 0H271l5.1 21.4-2.8 25.2s-16.2 2.8-23.8.7l-2.2-25.9 3.8-21.4zm0 0l-28.2 44.4-5.3 1.1-4 7s3.4 2.3 6 4m7.7-5.8c.2-1.7.4-3.5.4-3.5l19.5-25.9"/><path fill="none" stroke="#000" stroke-width="2" stroke-miterlimit="10" d="M230.4 210.4l-6.4-4.3-6.5 3.6 4.6 9.7zm40.5-53.2l7.9 2 8.2 52.5 1.8 4-1.8 10.2-4.2-1.2V216l-3 2.4-1.7-2.8 4.2-5.1s-.2-.7-.2-.9l-6.3-27.1m-26.4 21.9L236.2 295s28.5 9 54.2 0l-17.2-91.3M142 179.6l11.5 2.1"/><path fill="none" stroke="#000" stroke-width="2" stroke-miterlimit="10" d="M252.4 298.3l2.6 14.6h4.2l1.9-13.9"/><path fill="none" stroke="#000" stroke-width="2" stroke-miterlimit="10" d="M255 312.9l-15.8 11 15.8 6.3 4.2-17.3m16.6-14.6l-2.6 14.6h-4.3l-1.8-13.9m6.1 13.9l15.7 11-15.7 6.3-4.3-17.3m2.1-193.3c2.5 3.2 4.1 7.7 4.1 12.7 0 9.9-6.3 17.9-14 17.9s-14-8-14-17.9c0-4.7 1.5-9.1 3.8-12.3"/><path fill="none" stroke="#000" stroke-width="2" stroke-miterlimit="10" d="M240.5 173.8l-5.3-1.1 1-22.1c-.7-44.1 23.9-42.6 23.9-42.6s17.8-1.9 21.1 16.5 4.8 49.3 4.8 49.3l-4.6 1.4M249 119.5s8.5 5.5 24.2 0"/></svg>