<svg version="1" xmlns="http://www.w3.org/2000/svg" width="432" height="432"><g fill="#27AAE1"><path d="M179.1 96.9s-14.7 20.2 0 42.9c0 0-13-3.2-12.1-20 1-16.9 8.2-22.9 12.1-22.9zM167 146.1l5.3 65.6s18.3 3.3 22.7 3.2c0 0-15.9 2.8-28-.3l-6.3-68.5h6.3z"/><path d="M171 215v100.7l-18 14.9 15.6 6.8 7.1-21.7 8.4-98.6zm21.5 1.1l11.2 98.6 20 15.3-16.2 7.4-10.8-22.7-10.9-98.4zm-30.9-59.9c-1.2.7-12.7 23.7-12.7 23.7l6.3 31.8-1.4-32.1 8.7-13.9-.9-9.5z"/></g><g fill="none" stroke="#000" stroke-width="2" stroke-miterlimit="10"><ellipse cx="181" cy="118.4" rx="14" ry="21.7"/><path d="M171.8 98.9s10 3.2 18.7-1.2m-21.9 4.4s14.3 5.1 24.2-2.1m-25.8 5.6s16.9 6.1 28-.9m-19 33.9l.8 7.3m8.2-6.7v5.9m15.5-.1l-39.8 1.1 6.3 68.5s17.2 3.8 33.4 0V145zm-39.8 1.1l-19 32.5 8.5 36.1v7l5.8 7.2 4.7-2.5-4-8.5 4 .3v-4.3l-4.7-2.6-2.8-30.6 9.3-15m38-20.7s17.4 43.8 22.1 55.5m-22.1-28.8s11.6 23.7 15.5 31.7"/><path d="M168.6 215v100.7h7.1l8.5-99.4m1.8 0l13.2 98.4h8.3l-7-100m-31.9 101l-16.5 12.7 14.9 6 8.7-18.7m23.5-1l10.8 19.7 15.5-5-18-14.7m63.6-194.9c1.6 3.1 2.6 7 2.6 11.2 0 10.3-5.7 18.6-12.8 18.6-7.1 0-12.8-8.3-12.8-18.6 0-.6 0-1.3.1-1.9m8.3 19.3l.5 7.8m8.7-7.8l-.7 7.8"/><path d="M256.7 153.9l-20.7-5.5s5.5-16.1 5.4-24.3 6-18.1 16.7-18.4c10.8-.3 20.1 2.7 21.1 19.4s7.5 26.3 7.5 26.3-17 3.6-21.6 3.6m-19.3-25.3s17.6-5.2 27.8-12.4m-22.8 38.9h19.9l5.1 21.4-2.8 25.2s-16.2 2.8-23.8.7l-2.2-25.9 3.8-21.4zm0 0l-28.2 44.4-5.3 1.1-4 7s3.4 2.3 6 4m7.7-5.8c.2-1.7.4-3.5.4-3.5l19.5-25.9"/><path d="M230.1 209.4l-6.4-4.3-6.5 3.6 4.6 9.7zm40.6-53.2l7.9 2 8.2 52.5 1.8 4-1.8 10.2-4.2-1.2V215l-3 2.4-1.7-2.8 4.2-5.1s-.2-.7-.2-.9l-6.3-27.1m-26.5 21.9L236 294s28.5 9 54.2 0L273 202.7m-131.3-24.1l11.5 2.1"/><path d="M252.1 297.3l2.6 14.6h4.3l1.8-13.9"/><path d="M254.7 311.9l-15.7 11 15.7 6.3 4.3-17.3m16.5-14.6l-2.6 14.6h-4.2l-1.9-13.9m6.1 13.9l15.8 11-15.8 6.3-4.2-17.3"/></g></svg>