<svg version="1" xmlns="http://www.w3.org/2000/svg" width="504" height="504"><g fill="none" stroke="#000" stroke-width="2" stroke-miterlimit="10"><ellipse cx="223" cy="60.9" rx="14" ry="22.3"/><path d="M227.5 82v6.4h-8.6v-6.2m22.3 6.2h-37.4l3.8 74.3H237zm-37.4 0L189.5 123l3.2 45.9h5.7l1.8-42 4.8-14"/><path d="M198.2 168.8l4.2 7.2-3.2 1.8-3.2-3.5-.8 15-6.6-6.2 4-14.3m7.6-41.9l-10.7-3.9m51.7-34.6l14.3 34.6-3.3 45.9h-5.7l-1.7-42-4.9-14"/><path d="M246.6 168.8l-4.1 7.2 3.2 1.8 3.2-3.5.9 15 6.4-6.2-4-14.3m-7.4-41.9l10.7-3.9M237 162.7l-2.5 123.9h-6l-6.3-123.9-6.7 123.9h-7l-.9-123.9m26.9 123.9l18.2 7.8-11.5 5.7-12.7-13.5m-13 0l-9.8 13.5-11.8-5.8 14.6-7.7"/><ellipse cx="278.9" cy="354" rx="18.3" ry="27.1"/><path d="M252.8 389.1s24.9-16 49.5 0l7.2 71.2s-42.3 15.8-63.2 0l6.5-71.2z"/><path d="M249 462.1l7.3 15.5s16.2 5.1 40.2 0l7.4-15.5m-51.2-71.8l-22.6 67-20.4 4.9s2.1 5.8 2.7 5.2c.6-.6 18.8-1.9 18.8-1.9l6.1 3.2 4-3-3.2-6.7 11.3-33.2m53-35.9l23.2 67.3 20.4 4.9s-2.1 5.8-2.7 5.2-18.8-1.9-18.8-1.9l-6.1 3.2-4-3 3.2-6.7-11.4-32.2"/><ellipse transform="rotate(-10.819 179.596 326.11)" cx="179.6" cy="326.1" rx="16" ry="23.8"/><path d="M167.8 339.5l-3.6 5.9m12.3 63l16 5.8 8-4-15.2-56.3-27.2-10.7s-14 18.5-23.2 75.8c0 0 24.5 9.7 40.7 5.7l3.2-52.2m-.6 10.4c0 .7 5.3 20.5 12.9 30.8"/><path d="M200.5 410.2l19.7 6.5v15.2s-20 15.8-32.3 16-42.5-3.7-45.8-9.7-5.7-18.7-5.7-18.7m39.4 3.3s13.7-5.5 32.4-6.5"/><ellipse transform="rotate(-88.297 358.623 147.36) scale(1.00004)" cx="358.6" cy="147.4" rx="24.3" ry="16.4"/><path d="M366.4 174.4l-1.3-5m-7 8.7l-.1-6.5m1 66.8c7.9-.9 16.2-1.9 16.2-1.9 3.7-40.1-2-63.1-2.9-63.4-.9-.3-20 7.2-20 7.2 1.3 37.6-7.2 59.7-7.2 59.7s2.5-.3 6-.7"/><path d="M333.6 251.2c.4-1.7.8-3.2.8-3.2l15.5-1.5 10-60m7.7 13.7L355.2 253"/><path d="M320.2 267.8l-1.2 42.6h-5.5l-8.4-69.6 40-.8"/><path d="M319 310.4l-13.8 15.9-15.8-6.4s21.7-9.1 24.1-9.5m-18.4 7.1L286 308l27-1.8m83-153.1L381.6 253H374l7.6-99.9z"/><path d="M385 264.5l-68.8 3.3-1.2-16.7 70 1.9zm-52.6 3.3v58.5h-4.5l-4.9-58.8"/><path d="M371 265.2l3 60.2h7.6v-60.8m-9.1 27.6h-40.1m40.4 6.1l-40.4 1.2"/></g></svg>