<svg version="1" xmlns="http://www.w3.org/2000/svg" width="504" height="504"><g fill="none" stroke="#000" stroke-width="2" stroke-miterlimit="10"><ellipse cx="197.1" cy="65.9" rx="14" ry="22.3"/><path d="M201.6 87v6.4H193v-6.2m22.4 6.2h-37.5l3.8 74.3h29.4zm-37.5 0L163.6 128l3.2 45.9h5.7l1.8-42 4.8-14"/><path d="M172.4 173.8l4.1 7.2-3.1 1.8-3.3-3.5-.8 15-6.6-6.2 4-14.3m7.6-41.9l-10.7-3.9m51.7-34.6l14.3 34.6-3.2 45.9h-5.8l-1.7-42-4.9-14"/><path d="M220.7 173.8l-4.1 7.2 3.2 1.8 3.2-3.5.9 15 6.5-6.2-4-14.3m-7.5-41.9l10.7-3.9m-18.5 39.7l-2.5 123.9h-6l-6.2-123.9-6.8 123.9h-7l-.9-123.9m26.9 123.9l18.2 7.8-11.5 5.7-12.7-13.5m-13 0l-9.8 13.5-11.8-5.8 14.6-7.7"/><ellipse cx="198.1" cy="343.1" rx="18.3" ry="27.1"/><path d="M172 378.2s24.9-16 49.5 0l7.2 71.2s-42.3 15.8-63.2 0l6.5-71.2z"/><path d="M168.2 451.2l7.3 15.5s16.2 5.1 40.2 0l7.4-15.5m-51.2-71.8l-22.6 67-20.4 4.9s2.1 5.8 2.7 5.2c.6-.6 18.8-1.9 18.8-1.9l6.1 3.2 4-3-3.2-6.7 11.3-33.2m53-35.9l23.2 67.3 20.4 4.9s-2.1 5.8-2.7 5.2-18.8-1.9-18.8-1.9l-6.1 3.2-4-3 3.2-6.7-11.4-32.2"/><ellipse transform="rotate(-79.181 293.99 315.147)" cx="294" cy="315.1" rx="23.8" ry="16"/><path d="M305.8 328.5l3.6 5.9m-12.4 63l-16 5.8-8-4 15.2-56.3 27.2-10.7s14 18.5 23.2 75.8c0 0-24.5 9.7-40.7 5.7l-3.2-52.2m.6 10.4c0 .7-5.3 20.5-12.9 30.8"/><path d="M273 399.2l-19.7 6.5v15.2s20 15.8 32.3 16 42.5-3.7 45.8-9.7 5.7-18.7 5.7-18.7m-39.4 3.2s-13.7-5.5-32.4-6.5"/><ellipse transform="rotate(-10.819 98.893 315.21)" cx="98.9" cy="315.2" rx="16" ry="23.8"/><path d="M87 328.6l-3.6 5.9m12.3 63l16 5.8 8-4-15.2-56.3-27.2-10.7s-14 18.5-23.2 75.8c0 0 24.5 9.7 40.7 5.7l3.2-52.2m-.5 10.4c0 .7 5.3 20.5 12.9 30.8"/><path d="M119.7 399.3l19.7 6.5V421s-20 15.8-32.3 16-42.5-3.7-45.8-9.7-5.7-18.7-5.7-18.7m39.4 3.3s13.7-5.5 32.4-6.5"/></g></svg>