<svg version="1" xmlns="http://www.w3.org/2000/svg" width="288" height="288"><path fill="#FFF" d="M133.3 196.4l16.5 2.5s13.5 1 17.5 0 20-7 20-7 17.5.5 22 0 21.4-8 21.4-8l11.1-9.5 19-2.5 6.5-14s8.5-21 8.5-23.5v-11s-5.5-19-6-21 .5-13-1.5-18.5-13.5-14.5-13.5-14.5l-18-11.5s-22.5-2.5-25.5-4-11.5-10-11.5-10-17-12-22.5-12h-44s-14.5-1-23 0-29 3-29 3L65.8 47.4s-14.5 13.5-19.5 16-21 13.5-21 13.5-4.5 19.5-4.5 24.5-9.7 18.5-9.1 22.5 11.3 29.6 12.1 33.5 5.5 16 13.5 19 39 11.5 40.5 11.5 14.5 9.9 21 11.4c6.5 1.6 15.3.6 19 0 3.6-.5 15.5-2.9 15.5-2.9z"/><path fill="#27AAE1" d="M189.6 144.5s-9.3 1.3-10 6.9c-.7 5.6.9 15.1 10 13.8s13.3-2.4 13.3-5.3.9-5.5 0-9.1c-.9-3.6-13.3-6.3-13.3-6.3zm16.9-59s-11.8-3.1-14.4 3.1c-2.5 6.2-4.7 16 1.1 17.4s11.3 3.1 15.4 1.5 8.2-4.7 8.4-8.9c.2-4.2-1.6-10.8-10.5-13.1zM88.3 63.2s-14.2-2.4-15.1 5.5-.9 17.6 7.5 17.6 13.7 0 15-4.5 3.1-8.4 2.4-11.4-9.8-7.2-9.8-7.2zm5.6 70.2s-12-2.2-13.3 7.6 3.6 12.9 9.4 12.4 12.5-2.2 13.1-7.3c.6-5.1-.8-11.8-9.2-12.7zM139 99.7s-8.9-5.3-10.5 1.8c-1.6 7.1-6 18 3.3 16.9s13.3-.9 13.6-6.5c.3-5.7-6.4-12.2-6.4-12.2zm21.6-56.4s-8.7-1.8-10.9 1.8-7.4 13.1 0 14.9c7.4 1.8 15.1 5.3 17.1 0 2-5.2 1.6-15.8-6.2-16.7zm83.1 73.2s-11.6-3.3-13.6 1.1-7.4 10.4.7 14.7c8.2 4.4 10.9 8.5 14 4.7 3-3.8 6.5-19.3-1.1-20.5zM141.1 155s-11.2 0-12 7.4 3 14.7 8.7 14.7 13.9 1.7 13.9-6-.2-17-10.6-16.1zm-93.6-43.1s-11.7-1-11.7 10.5 2.2 17.3 9 16.7 15.3 3.6 15.5-7.7c.3-11.3-.3-20.3-12.8-19.5z"/><g fill="none" stroke="#000" stroke-width="2" stroke-miterlimit="10"><path d="M133.3 196.4l16.5 2.5s13.5 1 17.5 0 20-7 20-7 17.5.5 22 0 21.4-8 21.4-8l11.1-9.5 19-2.5 6.5-14s8.5-21 8.5-23.5v-11s-5.5-19-6-21 .5-13-1.5-18.5-13.5-14.5-13.5-14.5l-18-11.5s-22.5-2.5-25.5-4-11.5-10-11.5-10-17-12-22.5-12h-44s-14.5-1-23 0-29 3-29 3L65.8 47.4s-14.5 13.5-19.5 16-21 13.5-21 13.5-4.5 19.5-4.5 24.5-9.7 18.5-9.1 22.5 11.3 29.6 12.1 33.5 5.5 16 13.5 19 39 11.5 40.5 11.5 14.5 9.9 21 11.4c6.5 1.6 15.3.6 19 0 3.6-.5 15.5-2.9 15.5-2.9z"/><path d="M189.6 144.5s-9.3 1.3-10 6.9c-.7 5.6.9 15.1 10 13.8s13.3-2.4 13.3-5.3.9-5.5 0-9.1c-.9-3.6-13.3-6.3-13.3-6.3zm16.9-59s-11.8-3.1-14.4 3.1c-2.5 6.2-4.7 16 1.1 17.4s11.3 3.1 15.4 1.5 8.2-4.7 8.4-8.9c.2-4.2-1.6-10.8-10.5-13.1zM88.3 63.2s-14.2-2.4-15.1 5.5-.9 17.6 7.5 17.6 13.7 0 15-4.5 3.1-8.4 2.4-11.4-9.8-7.2-9.8-7.2zm5.6 70.2s-12-2.2-13.3 7.6 3.6 12.9 9.4 12.4 12.5-2.2 13.1-7.3c.6-5.1-.8-11.8-9.2-12.7zM139 99.7s-8.9-5.3-10.5 1.8c-1.6 7.1-6 18 3.3 16.9s13.3-.9 13.6-6.5c.3-5.7-6.4-12.2-6.4-12.2zm21.6-56.4s-8.7-1.8-10.9 1.8-7.4 13.1 0 14.9c7.4 1.8 15.1 5.3 17.1 0 2-5.2 1.6-15.8-6.2-16.7zm83.1 73.2s-11.6-3.3-13.6 1.1-7.4 10.4.7 14.7c8.2 4.4 10.9 8.5 14 4.7 3-3.8 6.5-19.3-1.1-20.5zM141.1 155s-11.2 0-12 7.4 3 14.7 8.7 14.7 13.9 1.7 13.9-6-.2-17-10.6-16.1zm-93.6-43.1s-11.7-1-11.7 10.5 2.2 17.3 9 16.7 15.3 3.6 15.5-7.7c.3-11.3-.3-20.3-12.8-19.5zm77 87.6c.6 8.3 1.3 16.8 1.3 16.8l-4 23.7-9.5 18.5h53l-11-16.5-8.5-19.7s-2-20.8-2-20.3c0 .1-.2-1.2-.6-3.3"/></g><path fill="none" d="M18.4 53.1c39.8-16 81.6-27 124.1-32.6C106.2 35.8 67 43 30.7 58.4c-7.9 3.4-16.2 7.6-20.1 15.2 48.1-6.4 95.4-18.4 140.7-35.7 17-6.5 34.2-13.9 52.4-14.4-3.6 9.9-14.4 15.1-24.3 18.5-29.5 10-60.7 13.7-91.3 19.5S26.6 75.7 1.2 93.8c25.3-1.2 50.4-5.1 75.3-9.3 24.9-4.2 49.8-8.6 74-15.5 33-9.3 65.5-23.3 99.8-23.8-31.5 18-66.4 30-102.3 35.3-28.5 4.2-57.4 4.2-85.8 9s-57 15-76.8 35.9c81.9-10.8 161.7-33.4 241.1-56 14.9-4.2 30.2-8.5 45.6-7.3-61.8 33.5-134.1 40.5-202.3 58-26.9 6.9-54.5 16.1-74.1 35.8 40.6-2.3 81.4-8.5 119.5-22.7 18.4-6.8 36-15.4 54.1-22.9 43.8-18.2 89.8-30.2 135.7-42.1-10 8.8-21.7 15.5-33.7 21.3-83.5 40.5-183 38.2-265.7 80.3-4.3 2.2-9.2 5.6-8.8 10.4 9.4.5 18.9.4 28.2-.4 65.5-5.7 122.5-46.2 185.8-63.8 21.8-6 44.4-9.4 65.5-17.4 10.1-3.9 20.1-8.8 30.9-9.5-30.6 30-74.6 40.5-115.6 53-46 14-90.8 31.8-133.9 53.3 11 1.2 22.1-.6 33-2.4 32.6-5.4 65.5-10.9 96.2-23.2 31.5-12.6 60.8-32.4 94.4-37.2-24.9 24.3-55.7 41.8-87.9 54.8s-65.9 21.9-99.5 30.7c67.5-6.7 133.6-26.6 193.5-58.4-9.3 14.7-24.8 24.1-39.8 32.9-10.1 5.9-20.1 11.9-30.2 17.8"/></svg>