<svg version="1" xmlns="http://www.w3.org/2000/svg" width="288" height="288"><path d="M79.2 69.2s-9.6 29.2 5.6 40.9c0 0-12.8-3.3-13.8-20.5s8.2-20.4 8.2-20.4zm-8.3 53s-14.9 26.9 0 63.3l1.7-.6-2.5-13.6-1.5-.4s-3-15.8-2-20.7c1-4.8 3.2-14.1 3.2-14.1l2.8-3.3 1.8 43.9 5.2 62.5-14.5 7.5 11.6 5.8 9.1-10.8-3.4-1.7-3.4-63.5-2.4-49L79 125l-4.1 1.8-4-4.6zM94 176.8l2.2 62.5 16.6 10.6-14.8 2.6-5.5-11.5 1-1.7-2.8-46.8-1-15.7zm59.6-86.5l-28.2 47.3-.9 12.5 31.9-50.4 2.9-2.9-.5-5.9z" fill="#27AAE1"/><g fill="none" stroke="#000" stroke-width="2" stroke-miterlimit="10"><ellipse transform="rotate(-5.987 84.73 89.686)" cx="84.8" cy="89.7" rx="13.8" ry="20.6"/><path d="M140.1 84.3h4.3c6.6 0 12-5.4 12-12V55.6c0-6.6-5.4-12-12-12h-4.3c-6.6 0-12 5.4-12 12v16.7c0 6.6 5.4 12 12 12z"/><path d="M156.4 65.8s-3.3 1-7.2 0c-3.8-1-5.8-2.8-10.7-1-4.8 1.8-10.5.3-10.5.3m.1-5.5s-5.8 4.2 0 7"/><path d="M133.4 90c-4.9-.4-16.6-6.8-16.6-6.8 1.8-3.7 5.4-39.7 8.7-44.2 3.3-4.5 16.8-.6 16.8-.6s17.2-3.5 19.1 6.5 4.8 32.6 7.4 36.2c0 0-2.1 8-11.6 9.9M73.7 73.8s9.8-.2 15.3-3.5m-17.8 6S81 78.6 94 72.1m-24 7.3s14 1.7 26.5-3.7m-15.1 33.5l1.3 6.1 7.8-.9v-5.3"/><path d="M146.2 84.3l-.6 5.5-8.2.2v-6m-57.6 31.6c6.3-.8 15-1.6 20-1l2 61.5s-19 1.5-27.3 0c0 0-1.6-37.3-2.2-52.8"/><path d="M68.8 118.7s-16.1 25.2-3.8 53.2l3.8-.8s-6.8-26.4 3.9-39.2m-10.8 4.3l5.8 6.4M65 171.9l-.9 7.4 3.6 7.3 4.9-1.6-2.9-13.6zm34.9-52.3s13.1 8.8 25.4 8m-25 3.5s13.2 6 25 2.5m-15.2.4l7.6-7"/><path d="M127.7 90.3s21.3-1.5 31 .7c0 0 11.5 86.9 10.7 117.2 0 0-22.3 11.2-54.3 0 .1-.1 14.9-84.8 12.6-117.9zm0 0L95 104.8m32.7-.6l-23.2 18m-25.4-14.5l-5.9.3-5.6 9.3 7.2 9 6.6-3.6-2-10.5m-2.6 13l-3.7-6.9m3.7-1.9l2.4 7.2"/><path d="M158.8 90.9h53.1V118l-51.8-16.4m52.3-10.3h20.2l-1.2 3.5-5.5.6-2.4 7-11.6-1.5"/><path d="M150.8 90s-21.2 34.6-25.2 44.9l-1.9 16.5L159.4 95l-.5-4.1c-.1 0-5.4-.9-8.1-.9zm-76.3 86.1l5.2 63.2h4.5l2.7-62.5m2.8 0l4.1 62.5h3.5l3-62.5m48.2 36.1l2.6 25.4h5.5l2.2-26.8m-31.1 0l3.3 26.8h6.1l1.4-25.2m-58.8 27l-14.5 4.2 10.8 5 8.2-9.2zm12.8 0l6.3-.8 14.2 8.6-12.7 2zm44.6-1.8l-21.9 2.5 8.5 10.3 13.4-10.2zm14 0l-1.6 4.5 21.8 8.3 5.2-11.3-19.9-1.5"/></g></svg>