<svg version="1" xmlns="http://www.w3.org/2000/svg" width="288" height="288"><path d="M143.2 45.4s28.4 54.2 4.1 82.2c0 0 9-2.3 12.1-5.7s17.3-21 10.1-46.8-22.2-29.7-26.3-29.7zm16.2 90v9l14.2-8.2z" fill="#27AAE1"/><g fill="none" stroke="#000" stroke-width="2" stroke-miterlimit="10"><ellipse transform="matrix(.9951 -.09903 .09903 .9951 -7.86 14.607)" cx="143.2" cy="86.5" rx="28" ry="41.3"/><path d="M159.4 48.2s-27.3 8.3-45.6 8.7m49.6-3.4s-23 12-49.6 10.7m53-7.4s-24.3 20.3-56.9 15m28.4 54.6v8.2m15.6-8.9l1.1 8.9m-41.2 1.6s31.2-3.7 59.8 0"/><path d="M211 158.6c.4-20.2.7-37.3.7-37.3L154 153.1l4 8.5h-22.5l4.2-7.2-64.5-31.8s.3 15.7.6 34.7"/><path d="M77.9 124l5.1-3.9 62 32.3-1.8 5.2h7l-2.8-6.2 59.6-34.5v7.1m-71.5 37.6v77.8s16 5.2 24 0l-1.5-77.8m-81.7 25c.4 20.9.7 38.8.7 38.8l58.5 12"/><path d="M159.4 237.4l50.3-13.8s.3-16.5.7-36.3M73 154.6l18.7 16-1.7 19.3-22.5-4.5zm18.3 20.6l-11.7-6.3m10.7 11.8l-11.8-4.8m0 6.1l11.8 2.8"/><path d="M215.1 154.6l-18.8 16 1.8 19.3 22.5-4.5zm-18.3 20.6l11.7-6.3m-10.7 11.8l11.8-4.8m0 6.1l-11.8 2.8m-13.3-23.2l2.2 45.9m-9.7-31.6l15-2.6M105.5 65.6L91.1 46.1m11 29L57.8 43.3m39.3 39.3l-21.1-9m105.2-8l14.3-19.5m-11 29l44.4-31.8m-39.4 39.3l21.2-9"/></g></svg>