<svg version="1" xmlns="http://www.w3.org/2000/svg" width="792" height="432"><ellipse fill="none" stroke="#000" stroke-width="2" stroke-miterlimit="10" cx="425.8" cy="120.6" rx="14.8" ry="21.7"/><path fill="none" stroke="#000" stroke-width="2" stroke-miterlimit="10" d="M419.4 140.2v7.7h11.4l-.4-6.7m-21.3 6.7h30.5l11.5 150.5s-33.8 8.2-54.2 0l12.2-150.5z"/><path fill="none" stroke="#000" stroke-width="2" stroke-miterlimit="10" d="M417.1 162.9l-7.2 66.8s15.2 3.8 26.2 0l-5.3-65.5"/><path fill="none" stroke="#000" stroke-width="2" stroke-miterlimit="10" d="M416.3 230.8l2.2 15.8s8.6 1 8.8 0c.2-1 .5-15.2.5-15.2m2.7-.1l3.1 5.6-3.1 2-2.8-2.4m11.9-88.6s-.8 10.5-7.8 26.9M412 209.2c-2.7 3.7-5.6 7.4-8.8 11.2m39.4-33s-3.4 6.2-8.6 14.5m-20.6 28.6c-4.1 4.6-8.1 8.3-11.8 10.4m12.3 61c-.5 1 2.4 21.3 2.4 21.3h5.1l2.6-21.1m3.2-.3c1.1 5.6 3.5 17.4 3.5 17.4h4.6s2.1-11.5 2.7-17.6m-21.7 21.6l12.2 16.3 12-9-19.1-7.3m9.3-4l15.2 8.2 7.5-7.2-17.3-1"/><ellipse fill="none" stroke="#000" stroke-width="2" stroke-miterlimit="10" cx="486.5" cy="120.6" rx="14.8" ry="21.7"/><path fill="none" stroke="#000" stroke-width="2" stroke-miterlimit="10" d="M480.2 140.2v7.7h11.3l-.4-6.7m-21.2 6.7h30.5l11.5 150.5s-33.8 8.2-54.3 0l12.3-150.5z"/><path fill="none" stroke="#000" stroke-width="2" stroke-miterlimit="10" d="M477.9 162.9l-7.2 66.8s15.2 3.8 26.2 0l-5.3-65.5"/><path fill="none" stroke="#000" stroke-width="2" stroke-miterlimit="10" d="M477 230.8l2.2 15.8s8.6 1 8.8 0c.2-1 .5-15.2.5-15.2m2.7-.1l3.2 5.6-3.2 2-2.7-2.4m11.9-88.6s-.8 10.5-7.8 26.9m-19.8 34.4c-2.7 3.7-5.6 7.4-8.8 11.2m39.4-33s-3.4 6.2-8.6 14.5m-20.7 28.6c-4.1 4.6-8.1 8.3-11.8 10.4m12.3 61c-.5 1 2.4 21.3 2.4 21.3h5.1l2.6-21.1m3.2-.3c1.1 5.6 3.5 17.4 3.5 17.4h4.6s2.1-11.5 2.7-17.6M477 323.2l12.2 16.3 12-9-19.1-7.3"/><path fill="none" stroke="#000" stroke-width="2" stroke-miterlimit="10" d="M491.4 319.2l15.2 8.2 7.5-7.2-17.2-1"/><ellipse fill="none" stroke="#000" stroke-width="2" stroke-miterlimit="10" cx="549.5" cy="120.6" rx="14.8" ry="21.7"/><path fill="none" stroke="#000" stroke-width="2" stroke-miterlimit="10" d="M543.2 140.2v7.7h11.3l-.4-6.7m-21.2 6.7h30.5l11.5 150.5s-33.8 8.2-54.2 0l12.2-150.5z"/><path fill="none" stroke="#000" stroke-width="2" stroke-miterlimit="10" d="M540.9 162.9l-7.2 66.8s15.2 3.8 26.2 0l-5.3-65.5"/><path fill="none" stroke="#000" stroke-width="2" stroke-miterlimit="10" d="M540 230.8l2.2 15.8s8.6 1 8.8 0 .5-15.2.5-15.2m2.7-.1l3.2 5.6-3.2 2-2.7-2.4m11.9-88.6s-.8 10.5-7.8 26.9m-19.8 34.4c-2.7 3.7-5.6 7.4-8.8 11.2m39.4-33s-3.4 6.2-8.6 14.5m-20.7 28.6c-4.1 4.6-8.1 8.3-11.8 10.4m12.3 61c-.5 1 2.4 21.3 2.4 21.3h5.1l2.6-21.1m3.2-.3c1.1 5.6 3.5 17.4 3.5 17.4h4.6s2.1-11.5 2.7-17.6M540 323.2l12.2 16.3 12-9-19.1-7.3"/><path fill="none" stroke="#000" stroke-width="2" stroke-miterlimit="10" d="M554.4 319.2l15.2 8.2 7.5-7.2-17.2-1"/><ellipse fill="none" stroke="#000" stroke-width="2" stroke-miterlimit="10" cx="610" cy="120.6" rx="14.8" ry="21.7"/><path fill="none" stroke="#000" stroke-width="2" stroke-miterlimit="10" d="M603.7 140.2v7.7H615l-.4-6.7m-21.2 6.7h30.5l11.5 150.5s-33.8 8.2-54.2 0l12.2-150.5z"/><path fill="none" stroke="#000" stroke-width="2" stroke-miterlimit="10" d="M601.4 162.9l-7.2 66.8s15.2 3.8 26.2 0l-5.3-65.5"/><path fill="none" stroke="#000" stroke-width="2" stroke-miterlimit="10" d="M600.5 230.8l2.2 15.8s8.6 1 8.8 0 .5-15.2.5-15.2m2.7-.1l3.2 5.6-3.2 2-2.7-2.4m11.9-88.6s-.8 10.5-7.8 26.9m-19.9 34.4c-2.7 3.7-5.6 7.4-8.8 11.2m39.5-33s-3.4 6.2-8.6 14.5m-20.7 28.6c-4.1 4.6-8.1 8.3-11.8 10.4m12.3 61c-.5 1 2.4 21.3 2.4 21.3h5.1l2.6-21.1m3.2-.3c1.1 5.6 3.5 17.4 3.5 17.4h4.6s2.1-11.5 2.7-17.6m-21.7 21.6l12.2 16.3 12-9-19.1-7.3"/><path fill="none" stroke="#000" stroke-width="2" stroke-miterlimit="10" d="M614.9 319.2l15.2 8.2 7.5-7.2-17.2-1"/><ellipse fill="none" stroke="#000" stroke-width="2" stroke-miterlimit="10" cx="673" cy="120.6" rx="14.8" ry="21.7"/><path fill="none" stroke="#000" stroke-width="2" stroke-miterlimit="10" d="M666.7 140.2v7.7H678l-.4-6.7m-21.2 6.7h30.5l11.5 150.5s-33.8 8.2-54.2 0l12.2-150.5z"/><path fill="none" stroke="#000" stroke-width="2" stroke-miterlimit="10" d="M664.4 162.9l-7.2 66.8s15.2 3.8 26.2 0l-5.3-65.5"/><path fill="none" stroke="#000" stroke-width="2" stroke-miterlimit="10" d="M663.5 230.8l2.2 15.8s8.6 1 8.8 0 .5-15.2.5-15.2m2.7-.1l3.2 5.6-3.2 2-2.7-2.4m11.9-88.6s-.8 10.5-7.8 26.9m-19.9 34.4c-2.7 3.7-5.6 7.4-8.8 11.2m39.5-33s-3.4 6.2-8.6 14.5m-20.7 28.6c-4.1 4.6-8.1 8.3-11.8 10.4m12.3 61c-.5 1 2.4 21.3 2.4 21.3h5.1l2.6-21.1m3.2-.3c1.1 5.6 3.5 17.4 3.5 17.4h4.6s2.1-11.5 2.7-17.6m-21.7 21.6l12.2 16.3 12-9-19.1-7.3"/><path fill="none" stroke="#000" stroke-width="2" stroke-miterlimit="10" d="M677.9 319.2l15.2 8.2 7.5-7.2-17.2-1"/><ellipse fill="none" stroke="#000" stroke-width="2" stroke-miterlimit="10" cx="736" cy="120.6" rx="14.8" ry="21.7"/><path fill="none" stroke="#000" stroke-width="2" stroke-miterlimit="10" d="M729.7 140.2v7.7H741l-.4-6.7m-21.2 6.7h30.5l11.5 150.5s-33.8 8.2-54.2 0l12.2-150.5z"/><path fill="none" stroke="#000" stroke-width="2" stroke-miterlimit="10" d="M727.4 162.9l-7.2 66.8s15.2 3.8 26.2 0l-5.3-65.5"/><path fill="none" stroke="#000" stroke-width="2" stroke-miterlimit="10" d="M726.5 230.8l2.2 15.8s8.6 1 8.8 0 .5-15.2.5-15.2m2.7-.1l3.2 5.6-3.2 2-2.7-2.4m11.9-88.6s-.8 10.5-7.8 26.9m-19.9 34.4c-2.7 3.7-5.6 7.4-8.8 11.2m39.5-33s-3.4 6.2-8.6 14.5m-20.7 28.6c-4.1 4.6-8.1 8.3-11.8 10.4m12.3 61c-.5 1 2.4 21.3 2.4 21.3h5.1l2.6-21.1m3.2-.3c1.1 5.6 3.5 17.4 3.5 17.4h4.6s2.1-11.5 2.7-17.6m-21.7 21.6l12.2 16.3 12-9-19.1-7.3"/><path fill="none" stroke="#000" stroke-width="2" stroke-miterlimit="10" d="M740.9 319.2l15.2 8.2 7.5-7.2-17.2-1"/><path fill="#FFF" stroke="#000" stroke-miterlimit="10" d="M721.8 126.6s12.8.3 15.2-.8 5.5-1.9 8.1-.6 4.8 1.5 4.8 1.5"/><path fill="none" stroke="#000" stroke-width="2" stroke-miterlimit="10" d="M718.4 159.3s-11.4-4-11.3-4.5c.1-.5-4.3-63.6 29.7-61.2 0 0 11.5.2 11.7 15.5"/><path fill="#FFF" stroke="#000" stroke-miterlimit="10" d="M659.1 125.6s13.6 1.7 16.9 0 8.3-.2 10.9 1.1"/><path fill="none" stroke="#000" stroke-width="2" stroke-miterlimit="10" d="M666.7 145.9l-16.6-5.7s-2.5-45 22.9-45.9 18.7 48 18.7 48l-13.8 3.7"/><path fill="#FFF" stroke="#000" stroke-miterlimit="10" d="M596.2 129s11.7-1.2 15.9-2.3c4.2-1.1 11 1.2 11 1.2"/><path fill="none" stroke="#000" stroke-width="2" stroke-miterlimit="10" d="M617.6 102s-1.6-13.9-18.8-10.2c-17.2 3.7-24.8 38.5-14.7 60.7l8.8-.5m-57.2-23.7s6.6-.3 12.1-1.9 15.6 1.9 15.6 1.9m-25.9-20.5s8.6 3 21.3-4.2m-18.9.5s6.4 1.8 14.6-3.9m-82.8 16s6.1.4 13-7.8c0 0 5 3.7 14.1 0m-25 1.1s9.2-3.9 11-7.2c0 0 6 2.6 11.1 1.4"/></svg>