<svg version="1" xmlns="http://www.w3.org/2000/svg" width="792" height="432"><g stroke="#000" stroke-miterlimit="10"><ellipse fill="none" stroke-width="2" cx="739.8" cy="121.7" rx="14.8" ry="21.7"/><path fill="none" stroke-width="2" d="M722.2 160.4s-11.4-4-11.3-4.5c.1-.5-4.3-63.6 29.7-61.2 0 0 11.5.2 11.7 15.5"/><path fill="none" stroke-width="2" d="M733.5 141.3v7.7h11.3l-.4-6.7m-21.2 6.7h30.5l11.5 150.5s-33.8 8.2-54.2 0L723.2 149z"/><path fill="none" stroke-width="2" d="M731.2 164l-7.2 66.8s15.2 3.8 26.2 0l-5.3-65.5"/><path fill="none" stroke-width="2" d="M730.3 231.9l2.2 15.8s8.6 1 8.8 0 .5-15.2.5-15.2m2.7-.1l3.2 5.6-3.2 2-2.7-2.4m11.9-88.6s-.8 10.5-7.8 26.9m-19.8 34.4c-2.7 3.7-5.6 7.4-8.8 11.2m39.4-33s-3.4 6.2-8.6 14.5m-20.7 28.6c-4.1 4.6-8.1 8.3-11.8 10.4m12.3 61c-.5 1 2.4 21.3 2.4 21.3h5.1l2.6-21.1m3.2-.3c1.1 5.6 3.5 17.4 3.5 17.4h4.6s2.1-11.5 2.7-17.6m-21.7 21.6l12.2 16.3 12-9-19.1-7.3m9.3-4l15.2 8.2 7.5-7.2-17.2-1"/><path fill="#FFF" d="M725.6 127.7s12.8.3 15.2-.8 5.5-1.9 8.1-.6 4.8 1.5 4.8 1.5"/></g><g stroke="#000" stroke-miterlimit="10"><ellipse fill="none" stroke-width="2" cx="676.8" cy="121.7" rx="14.8" ry="21.7"/><path fill="none" stroke-width="2" d="M670.5 141.3v7.7h11.3l-.4-6.7m-21.2 6.7h30.5l11.5 150.5s-33.8 8.2-54.2 0L660.2 149z"/><path fill="none" stroke-width="2" d="M668.2 164l-7.2 66.8s15.2 3.8 26.2 0l-5.3-65.5"/><path fill="none" stroke-width="2" d="M667.3 231.9l2.2 15.8s8.6 1 8.8 0 .5-15.2.5-15.2m2.7-.1l3.2 5.6-3.2 2-2.7-2.4m11.9-88.6s-.8 10.5-7.8 26.9m-19.8 34.4c-2.7 3.7-5.6 7.4-8.8 11.2m39.4-33s-3.4 6.2-8.6 14.5m-20.7 28.6c-4.1 4.6-8.1 8.3-11.8 10.4m12.3 61c-.5 1 2.4 21.3 2.4 21.3h5.1l2.6-21.1m3.2-.3c1.1 5.6 3.5 17.4 3.5 17.4h4.6s2.1-11.5 2.7-17.6m-21.7 21.6l12.2 16.3 12-9-19.1-7.3m9.3-4l15.2 8.2 7.5-7.2-17.2-1"/><path fill="#FFF" d="M662.9 126.7s13.6 1.7 16.9 0 8.3-.2 10.9 1.1"/><path fill="none" stroke-width="2" d="M670.5 147l-16.6-5.7s-2.5-45 22.9-45.9 18.7 48 18.7 48l-13.8 3.7"/></g><g stroke="#000" stroke-miterlimit="10"><ellipse fill="none" stroke-width="2" cx="613.8" cy="121.7" rx="14.8" ry="21.7"/><path fill="none" stroke-width="2" d="M607.5 141.3v7.7h11.3l-.4-6.7m-21.2 6.7h30.5l11.5 150.5s-33.8 8.2-54.2 0L597.2 149z"/><path fill="none" stroke-width="2" d="M605.2 164l-7.2 66.8s15.2 3.8 26.2 0l-5.3-65.5"/><path fill="none" stroke-width="2" d="M604.3 231.9l2.2 15.8s8.6 1 8.8 0 .5-15.2.5-15.2m2.7-.1l3.2 5.6-3.2 2-2.7-2.4m11.9-88.6s-.8 10.5-7.8 26.9m-19.8 34.4c-2.7 3.7-5.6 7.4-8.8 11.2m39.4-33s-3.4 6.2-8.6 14.5m-20.7 28.6c-4.1 4.6-8.1 8.3-11.8 10.4m12.3 61c-.5 1 2.4 21.3 2.4 21.3h5.1l2.6-21.1m3.2-.3c1.1 5.6 3.5 17.4 3.5 17.4h4.6s2.1-11.5 2.7-17.6m-21.7 21.6l12.2 16.3 12-9-19.1-7.3m9.3-4l15.2 8.2 7.5-7.2-17.2-1"/><path fill="#FFF" d="M600.1 130.1s11.7-1.2 15.9-2.3c4.2-1.1 11 1.2 11 1.2"/><path fill="none" stroke-width="2" d="M621.4 103.1s-1.6-13.9-18.8-10.2c-17.2 3.7-24.8 38.5-14.7 60.7l8.8-.5"/></g><g fill="none" stroke="#000" stroke-width="2" stroke-miterlimit="10"><ellipse cx="553.3" cy="121.7" rx="14.8" ry="21.7"/><path d="M547 141.3v7.7h11.3l-.4-6.7m-21.2 6.7h30.5l11.5 150.5s-33.8 8.2-54.2 0L536.7 149z"/><path d="M544.7 164l-7.2 66.8s15.2 3.8 26.2 0l-5.3-65.5"/><path d="M543.8 231.9l2.2 15.8s8.6 1 8.8 0 .5-15.2.5-15.2m2.7-.1l3.2 5.6-3.2 2-2.7-2.4m11.9-88.6s-.8 10.5-7.8 26.9m-19.8 34.4c-2.7 3.7-5.6 7.4-8.8 11.2m39.4-33s-3.4 6.2-8.6 14.5m-20.7 28.6c-4.1 4.6-8.1 8.3-11.8 10.4m12.3 61c-.5 1 2.4 21.3 2.4 21.3h5.1l2.6-21.1m3.2-.3c1.1 5.6 3.5 17.4 3.5 17.4h4.6s2.1-11.5 2.7-17.6m-21.7 21.6l12.2 16.3 12-9-19.1-7.3m9.3-4l15.2 8.2 7.5-7.2-17.2-1m-24.2-190.9s6.6-.3 12.1-1.9 15.6 1.9 15.6 1.9m-25.9-20.5s8.6 3 21.3-4.2m-18.9.5s6.4 1.8 14.6-3.9"/></g><g fill="none" stroke="#000" stroke-width="2" stroke-miterlimit="10"><ellipse cx="490.3" cy="121.7" rx="14.8" ry="21.7"/><path d="M484 141.3v7.7h11.3l-.4-6.7m-21.2 6.7h30.5l11.5 150.5s-33.8 8.2-54.3 0L473.7 149z"/><path d="M481.7 164l-7.2 66.8s15.2 3.8 26.2 0l-5.3-65.5"/><path d="M480.8 231.9l2.2 15.8s8.6 1 8.8 0 .5-15.2.5-15.2m2.7-.1l3.2 5.6-3.2 2-2.7-2.4m11.9-88.6s-.8 10.5-7.8 26.9m-19.8 34.4c-2.7 3.7-5.6 7.4-8.8 11.2m39.4-33s-3.4 6.2-8.6 14.5m-20.7 28.6c-4.1 4.6-8.1 8.3-11.8 10.4m12.3 61c-.5 1 2.4 21.3 2.4 21.3h5.1l2.6-21.1m3.2-.3c1.1 5.6 3.5 17.4 3.5 17.4h4.6s2.1-11.5 2.7-17.6m-21.7 21.6l12.2 16.3 12-9-19.1-7.3m9.3-4l15.2 8.2 7.5-7.2-17.2-1m-25.2-203s6.1.4 13-7.8c0 0 5 3.7 14.1 0m-25 1.1s9.2-3.9 11-7.2c0 0 6 2.6 11.1 1.4"/></g><g fill="none" stroke="#000" stroke-width="2" stroke-miterlimit="10"><ellipse cx="429.6" cy="121.7" rx="14.8" ry="21.7"/><path d="M423.2 141.3v7.7h11.4l-.4-6.7m-21.3 6.7h30.5l11.5 150.5s-33.8 8.2-54.2 0L412.9 149z"/><path d="M420.9 164l-7.2 66.8s15.2 3.8 26.2 0l-5.3-65.5"/><path d="M420.1 231.9l2.2 15.8s8.6 1 8.8 0 .5-15.2.5-15.2m2.7-.1l3.1 5.6-3.1 2-2.8-2.4m11.9-88.6s-.8 10.5-7.8 26.9m-19.8 34.4c-2.7 3.7-5.6 7.4-8.8 11.2m39.4-33s-3.4 6.2-8.6 14.5m-20.6 28.6c-4.1 4.6-8.1 8.3-11.8 10.4m12.3 61c-.5 1 2.4 21.3 2.4 21.3h5.1l2.6-21.1m3.2-.3c1.1 5.6 3.5 17.4 3.5 17.4h4.6s2.1-11.5 2.7-17.6m-21.7 21.6l12.2 16.3 12-9-19.1-7.3m9.3-4l15.2 8.2 7.5-7.2-17.3-1"/></g><g stroke="#000" stroke-miterlimit="10"><ellipse fill="none" stroke-width="2" cx="363.7" cy="121.7" rx="14.8" ry="21.7"/><path fill="none" stroke-width="2" d="M357.3 141.3v7.7h11.4l-.4-6.7M347 149h30.5L389 299.5s-33.8 8.2-54.2 0L347 149z"/><path fill="none" stroke-width="2" d="M355 164l-7.2 66.8s15.2 3.8 26.2 0l-5.3-65.5"/><path fill="none" stroke-width="2" d="M354.2 231.9l2.2 15.8s8.6 1 8.8 0 .5-15.2.5-15.2m2.7-.1l3.1 5.6-3.1 2-2.8-2.4m11.9-88.6s-.8 10.5-7.8 26.9m-19.8 34.4c-2.7 3.7-5.6 7.4-8.8 11.2m39.4-33s-3.4 6.2-8.6 14.5m-20.6 28.6c-4.1 4.6-8.1 8.3-11.8 10.4m12.3 61c-.5 1 2.4 21.3 2.4 21.3h5.1l2.6-21.1m3.2-.3c1.1 5.6 3.5 17.4 3.5 17.4h4.6s2.1-11.5 2.7-17.6m-21.7 21.6l12.2 16.3 12-9-19.1-7.3m9.3-4l15.2 8.2 7.5-7.2-17.3-1"/><path fill="#FFF" d="M349.4 127.7s12.8.3 15.2-.8 5.5-1.9 8.1-.6 4.8 1.5 4.8 1.5"/><path fill="none" stroke-width="2" d="M346.1 160.4s-11.4-4-11.3-4.5-4.3-63.6 29.7-61.2c0 0 11.5.2 11.7 15.5"/></g><g stroke="#000" stroke-miterlimit="10"><ellipse fill="none" stroke-width="2" cx="300.7" cy="121.7" rx="14.8" ry="21.7"/><path fill="none" stroke-width="2" d="M294.3 141.3v7.7h11.4l-.4-6.7M284 149h30.5L326 299.5s-33.7 8.2-54.2 0L284 149z"/><path fill="none" stroke-width="2" d="M292 164l-7.2 66.8s15.2 3.8 26.2 0l-5.3-65.5"/><path fill="none" stroke-width="2" d="M291.2 231.9l2.2 15.8s8.6 1 8.7 0 .5-15.2.5-15.2m2.8-.1l3.1 5.6-3.1 2-2.8-2.4m11.9-88.6s-.8 10.5-7.8 26.9m-19.8 34.4c-2.7 3.7-5.6 7.4-8.8 11.2m39.4-33s-3.4 6.2-8.6 14.5m-20.6 28.6c-4.1 4.6-8.1 8.3-11.8 10.4m12.3 61c-.5 1 2.4 21.3 2.4 21.3h5.1l2.6-21.1m3.2-.3c1.1 5.6 3.5 17.4 3.5 17.4h4.6s2.1-11.5 2.7-17.6m-21.7 21.6l12.2 16.3 12-9-19.1-7.3m9.3-4l15.2 8.2 7.5-7.2-17.3-1"/><path fill="#FFF" d="M286.7 126.7s13.6 1.7 16.9 0c3.2-1.7 8.3-.2 10.9 1.1"/><path fill="none" stroke-width="2" d="M294.3 147l-16.6-5.7s-2.5-45 22.9-45.9 18.7 48 18.7 48l-13.8 3.7"/></g><g stroke="#000" stroke-miterlimit="10"><ellipse fill="none" stroke-width="2" cx="237.7" cy="121.7" rx="14.8" ry="21.7"/><path fill="none" stroke-width="2" d="M231.3 141.3v7.7h11.4l-.4-6.7M221 149h30.5L263 299.5s-33.8 8.2-54.2 0L221 149z"/><path fill="none" stroke-width="2" d="M229 164l-7.2 66.8s15.2 3.8 26.2 0l-5.3-65.5"/><path fill="none" stroke-width="2" d="M228.2 231.9l2.2 15.8s8.6 1 8.8 0 .5-15.2.5-15.2m2.7-.1l3.1 5.6-3.1 2-2.8-2.4m11.9-88.6s-.8 10.5-7.8 26.9m-19.8 34.4c-2.7 3.7-5.6 7.4-8.8 11.2m39.4-33s-3.4 6.2-8.6 14.5m-20.6 28.6c-4.1 4.6-8.1 8.3-11.8 10.4m12.3 61c-.5 1 2.4 21.3 2.4 21.3h5.1l2.6-21.1m3.2-.3c1.1 5.6 3.5 17.4 3.5 17.4h4.6s2.1-11.5 2.7-17.6m-21.7 21.6l12.2 16.3 12-9-19.1-7.3m9.3-4l15.2 8.2 7.5-7.2-17.3-1"/><path fill="#FFF" d="M224 130.1s11.7-1.2 15.9-2.3 11 1.2 11 1.2"/><path fill="none" stroke-width="2" d="M245.3 103.1s-1.6-13.9-18.8-10.2c-17.2 3.7-24.8 38.5-14.7 60.7l8.8-.5"/></g><g fill="none" stroke="#000" stroke-width="2" stroke-miterlimit="10"><ellipse cx="177.2" cy="121.7" rx="14.8" ry="21.7"/><path d="M170.8 141.3v7.7h11.4l-.4-6.7m-21.3 6.7H191l11.5 150.5s-33.8 8.2-54.2 0L160.5 149z"/><path d="M168.5 164l-7.2 66.8s15.2 3.8 26.2 0l-5.3-65.5"/><path d="M167.7 231.9l2.2 15.8s8.6 1 8.8 0 .5-15.2.5-15.2m2.7-.1l3.1 5.6-3.1 2-2.8-2.4M191 149s-.8 10.5-7.8 26.9m-19.8 34.4c-2.7 3.7-5.6 7.4-8.8 11.2m39.4-33s-3.4 6.2-8.6 14.5m-20.6 28.6c-4.1 4.6-8.1 8.3-11.8 10.4m12.3 61c-.5 1 2.4 21.3 2.4 21.3h5.1l2.6-21.1m3.2-.3c1.1 5.6 3.5 17.4 3.5 17.4h4.6s2.1-11.5 2.7-17.6m-21.7 21.6l12.2 16.3 12-9-19.1-7.3m9.3-4l15.2 8.2 7.5-7.2-17.3-1m-24.2-190.9s6.6-.3 12.1-1.9 15.6 1.9 15.6 1.9m-25.8-20.5s8.6 3 21.3-4.2m-18.9.5s6.4 1.8 14.6-3.9"/></g><g fill="none" stroke="#000" stroke-width="2" stroke-miterlimit="10"><ellipse cx="114.2" cy="121.7" rx="14.8" ry="21.7"/><path d="M107.8 141.3v7.7h11.4l-.4-6.7M97.5 149H128l11.5 150.5s-33.8 8.2-54.2 0L97.5 149z"/><path d="M105.5 164l-7.2 66.8s15.2 3.8 26.2 0l-5.3-65.5"/><path d="M104.7 231.9l2.2 15.8s8.6 1 8.8 0 .5-15.2.5-15.2m2.7-.1l3.1 5.6-3.1 2-2.8-2.4M128 149s-.8 10.5-7.8 26.9m-19.8 34.4c-2.7 3.7-5.6 7.4-8.8 11.2m39.4-33s-3.4 6.2-8.6 14.5m-20.6 28.6c-4.1 4.6-8.1 8.3-11.8 10.4m12.3 61c-.5 1 2.4 21.3 2.4 21.3h5.1l2.6-21.1m3.2-.3c1.1 5.6 3.5 17.4 3.5 17.4h4.6s2.1-11.5 2.7-17.6m-21.7 21.6l12.2 16.3 12-9-19.1-7.3m9.3-4l15.2 8.2 7.5-7.2-17.3-1m-25.1-203s6.1.4 13-7.8c0 0 5 3.7 14.1 0m-25.1 1.1s9.2-3.9 11-7.2c0 0 6 2.6 11.1 1.4"/></g><g fill="none" stroke="#000" stroke-width="2" stroke-miterlimit="10"><ellipse cx="53.4" cy="121.7" rx="14.8" ry="21.7"/><path d="M47.1 141.3v7.7h11.3l-.3-6.7M36.8 149h30.5l11.5 150.5s-33.7 8.2-54.2 0L36.8 149z"/><path d="M44.8 164l-7.2 66.8s15.2 3.8 26.2 0l-5.3-65.5"/><path d="M43.9 231.9l2.2 15.8s8.6 1 8.8 0 .5-15.2.5-15.2m2.7-.1l3.2 5.6-3.2 2-2.7-2.4M67.3 149s-.8 10.5-7.8 26.9m-19.8 34.4c-2.7 3.7-5.6 7.4-8.8 11.2m39.4-33s-3.4 6.2-8.6 14.5M41 231.6c-4.1 4.6-8.1 8.3-11.8 10.4m12.3 61c-.5 1 2.4 21.3 2.4 21.3H49l2.6-21.1m3.3-.3c1.1 5.6 3.5 17.4 3.5 17.4H63s2.1-11.5 2.7-17.6m-21.8 21.6l12.2 16.3 12-9-19-7.3m9.2-4l15.2 8.2 7.5-7.2-17.2-1"/></g></svg>