<svg version="1" xmlns="http://www.w3.org/2000/svg" width="648" height="417.6"><path d="M114.7 283.1h23.7s2.3-28 2.3-29.7-7.7-13-9-14.7-16-11.3-16-11.3H90.3s-13.3.7-14 2-17.7 33-19.3 47.7-3 26.3-3 26.3-1.7 35.7-1.3 38c.3 2.3 6.3 24.3 7.7 26 1.3 1.7 23.7 14 23.7 14s28.7 5.3 34.3 3.7c5.7-1.7 23.3-6 22.3-11.3s4.7-42 4.7-43.3-11-6.7-12.7-7-16.3-1.7-16.3-1.7-2.7 19.3-5 21-9.3 6.7-17.3 4.7-15.3-9.7-15.3-9.7l2-25 2.7-19.7s3.7-13.3 7.3-17c3.7-3.7 11.3-5.7 11.3-5.7s7.7 0 9 1.7l3.6 11zm32.6-45.3s3.7 148.6 5 147.7c1.3-1 28 2.3 28 0s-1.3-14.7-1.3-14.7l-1.3-37s11.3-3.7 11.3-2.3c0 1.3 4 34.7 4 36s2.3 18 2.3 18 34.7-1 34.7-2.7-3.7-59.3-3.7-59.3-.7-50.3-1.3-53c-.7-2.7-.7-36.7-3.3-36.7h-23.3l-1.7 64.7s-15.3 3.7-15.7 2.7-2-10.7-2-14-3-49-3-49l-18.7 1-10-1.4zm167.5-10.4h-27.1s-2.7 22.7-2.3 24.3c.3 1.7 4 39 4 39l-.3 41.3h-14s-3.3-6.7-3.7-10c-.3-3.3-4.7-67.3-5-68.3s-2.3-22-2.3-22l-32.4 2 3 85.7 5.7 30.3 5 23s28 11.3 29.7 11 28-7 29.7-7 13.7-7.3 13.7-7.3-.3-91.3 0-92.7c.3-1.3-3.7-49.3-3.7-49.3M409.2 341c-.7-3-4.3-16.7-4.3-16.7l-7.3-12.7-11-22.3s18-17.3 18-31.3-1.7-20.3-1.7-20.3l-13-15.5-17.3-2.5H349s-10 3-17.2 5.1c-2.5.7-8.4 2.6-8.4 2.6l5.3 78.2v54.5l2 14 31.7-2s-2.3-24-2.3-28.7-2.3-24.3-2.3-27.7v-9.3l14.7 29.3s7.3 21.7 8 23 9 12.3 9 12.3l27.7-13s-7.3-14-8-17zM378 262.7c0 2-3 10-3 10s-15.7 12.4-17 12.7c-1.3.4-2.3-35.3-2.3-35.3l11.1-2.4L378 255v7.7zm95.8 9.7l23.5-2.6s-.8-28.1-1-29.7c-.2-1.7-9.1-12.1-10.6-13.6s-17.2-9.5-17.2-9.5l-25.2 2.8s-13.2 2.1-13.7 3.5-13.9 34.8-13.9 49.5c0 14.8-.1 26.5-.1 26.5s2.3 35.6 2.9 37.9 9 23.5 10.5 25 25.1 11.3 25.1 11.3 29.1 2.1 34.5-.2c5.4-2.3 22.5-8.5 20.9-13.7s0-42.3-.2-43.6c-.1-1.3-11.7-5.4-13.4-5.6-1.7-.1-16.4.2-16.4.2s-.5 19.5-2.6 21.4-8.5 7.7-16.7 6.6-16.3-7.9-16.3-7.9l-.8-25.1.5-19.8s2.2-13.7 5.4-17.7 10.6-6.9 10.6-6.9 7.6-.8 9.1.7l5.1 10.5zm109.1-58.1s14 148 12.5 147.2c-1.4-.8-27.5 5.6-27.8 3.3-.3-2.3-.4-14.7-.4-14.7l-3.1-36.9s-11.7-2.3-11.5-1 .1 34.9.3 36.2c.2 1.3-.2 18.1-.2 18.1s-34.5 3.1-34.7 1.5-3.4-59.3-3.4-59.3-5.3-50.1-5-52.8-3.7-36.5-1-36.8c2.6-.3 23.2-2.8 23.2-2.8l9.3 64s15.7 1.8 15.9.8.7-10.8.3-14.1c-.4-3.3-2.8-49-2.8-49l18.7-1.2 9.7-2.5z" fill="#FFF"/><g fill="none" stroke="#000" stroke-width="2" stroke-miterlimit="10"><path d="M114.7 283.1h23.7s2.3-28 2.3-29.7-7.7-13-9-14.7-16-11.3-16-11.3H90.3s-13.3.7-14 2-17.7 33-19.3 47.7-3 26.3-3 26.3-1.7 35.7-1.3 38c.3 2.3 6.3 24.3 7.7 26 1.3 1.7 23.7 14 23.7 14s28.7 5.3 34.3 3.7c5.7-1.7 23.3-6 22.3-11.3s4.7-42 4.7-43.3-11-6.7-12.7-7-16.3-1.7-16.3-1.7-2.7 19.3-5 21-9.3 6.7-17.3 4.7-15.3-9.7-15.3-9.7l2-25 2.7-19.7s3.7-13.3 7.3-17c3.7-3.7 11.3-5.7 11.3-5.7s7.7 0 9 1.7l3.6 11zm32.6-45.3s3.7 148.6 5 147.7c1.3-1 28 2.3 28 0s-1.3-14.7-1.3-14.7l-1.3-37s11.3-3.7 11.3-2.3c0 1.3 4 34.7 4 36s2.3 18 2.3 18 34.7-1 34.7-2.7-3.7-59.3-3.7-59.3-.7-50.3-1.3-53c-.7-2.7-.7-36.7-3.3-36.7h-23.3l-1.7 64.7s-15.3 3.7-15.7 2.7-2-10.7-2-14-3-49-3-49l-18.7 1-10-1.4zm167.5-10.4h-27.1s-2.7 22.7-2.3 24.3c.3 1.7 4 39 4 39l-.3 41.3h-14s-3.3-6.7-3.7-10c-.3-3.3-4.7-67.3-5-68.3s-2.3-22-2.3-22l-32.4 2 3 85.7 5.7 30.3 5 23s28 11.3 29.7 11 28-7 29.7-7 13.7-7.3 13.7-7.3-.3-91.3 0-92.7c.3-1.3-3.7-49.3-3.7-49.3m17-2.6c-2.5.7-8.4 2.6-8.4 2.6l5.3 78.2v54.5l2 14 31.7-2s-2.3-24-2.3-28.7-2.3-24.3-2.3-27.7v-9.3l14.7 29.3s7.3 21.7 8 23 9 12.3 9 12.3l27.7-13s-7.3-14-8-17-4.3-16.7-4.3-16.7l-7.3-12.7-11-22.3s18-17.3 18-31.3-1.7-20.3-1.7-20.3l-13-15.5-17.3-2.5H349s-10 3-17.2 5.1"/><path d="M355.7 250.1s1 35.7 2.3 35.3c1.3-.3 17-12.7 17-12.7s3-8 3-10V255l-11.2-7.3-11.1 2.4zm118.1 22.3l23.5-2.6s-.8-28.1-1-29.7c-.2-1.7-9.1-12.1-10.6-13.6s-17.2-9.5-17.2-9.5l-25.2 2.8s-13.2 2.1-13.7 3.5-13.9 34.8-13.9 49.5c0 14.8-.1 26.5-.1 26.5s2.3 35.6 2.9 37.9 9 23.5 10.5 25 25.1 11.3 25.1 11.3 29.1 2.1 34.5-.2c5.4-2.3 22.5-8.5 20.9-13.7s0-42.3-.2-43.6c-.1-1.3-11.7-5.4-13.4-5.6-1.7-.1-16.4.2-16.4.2s-.5 19.5-2.6 21.4-8.5 7.7-16.7 6.6-16.3-7.9-16.3-7.9l-.8-25.1.5-19.8s2.2-13.7 5.4-17.7 10.6-6.9 10.6-6.9 7.6-.8 9.1.7l5.1 10.5zm109.1-58.1s14 148 12.5 147.2c-1.4-.8-27.5 5.6-27.8 3.3-.3-2.3-.4-14.7-.4-14.7l-3.1-36.9s-11.7-2.3-11.5-1 .1 34.9.3 36.2c.2 1.3-.2 18.1-.2 18.1s-34.5 3.1-34.7 1.5-3.4-59.3-3.4-59.3-5.3-50.1-5-52.8-3.7-36.5-1-36.8c2.6-.3 23.2-2.8 23.2-2.8l9.3 64s15.7 1.8 15.9.8.7-10.8.3-14.1c-.4-3.3-2.8-49-2.8-49l18.7-1.2 9.7-2.5zm-528 80.9L63 293l3.5 3.9s5.8-2.2 6.8-2 10.1-1.9 10.1-1.9m23.4 52.6l2.5 9.9 4.8 10.2s8.8-.2 10 0 12.9 12.8 12.9 12.8"/><path d="M125.5 322.7l2.7 19.1-6.4 23.9m27.3-60.1l9.4 3.2h15.7L191 318l12 11.8 23.6-2.3m43.1-28l-7.5-9.5h-10.7l-4.5-7.5-13.7-2.9m45.5 52.5l10 17.9-3.8 7.3 5.7 22.7m-3.6-14.3c.1.3 30.1 0 30.1 0m10.8-70l12.2 12.1 2.8 11.7 2.8 6 12.8 1"/><path d="M352.4 326l-10.5 15.3 5.2 11.2-3.8 19.8m26.9-152.5l2.1 14s12.5 9.5 13.5 10 17.9 0 17.9 0m93.2 9.2l-22.7-7.9-8.2 3.9h-16.5l-33.7 20"/><path d="M431.3 259.8s3.7 13.2 3.2 14.2-10.8 13.5-10.8 14.5 3 18.5 3 18.5l16.8 5.3m19.3 26.4V354l22.2-10 1.2 10s.2 9.2 1.5 9.2 15.1 3.7 15.1 3.7m12.3-48.6h18.4l8-13.3 13-4.2 16.3 3.7 18.2-11m-71-59.4l-2.9 5.2m2.9 3.8c.1-.6 3-4.8 3.4-4.9m51 43.2s7.5-.6 3.2 5.1m-45.5 65s-4.6 5.4 0 6.6m45.4-13.1l-1.6 6.5M428 338.2l2.5 6.1m1-9.1c.2.5 3 5.4 3.5 6.8m21.3-107.2s-4.8-4.5-5.2.8m-118.3 20.3s6.2-1.9 6.5-4.6m-6.1 8.5c1.2.5 7.3-2 8.6-3.9m42.6 74.3h4.1l.9 3.2s-2.2 1-2.5 1.8m-133.7 10.4l3-3.7m5 0l-6.4 7.3m42.1-73.2s7-4 5.3 1.2m6.2 61.5l1.1 5.6m-5.3-6.1l1.6 6.8m-97.3-42l4.7-4.7m-3.4 8.2l5-4.7M163 266.6s-.8 4.9 0 6.2m3-3.8v5.6m-4.2 71s-5.4 8.6.9 7.3m44.5 14.1l3.7 1.5M69.1 353.8v5.7m2.7-8.7v10m7.7-102.9s.7-2.9 3.8-2m-8.3-.1s1.9-6.2 8.3-5.5m36.2 9.6l4 3.1"/></g></svg>