<svg version="1" xmlns="http://www.w3.org/2000/svg" width="288" height="288"><ellipse transform="matrix(.9987 -.05184 .05184 .9987 -1.748 7.434)" fill="none" stroke="#000" stroke-width="2" stroke-miterlimit="10" cx="142.4" cy="37.4" rx="15.3" ry="23.2"/><path fill="none" stroke="#000" stroke-width="2" stroke-miterlimit="10" d="M138 59.3v7.4h11.3l-1.1-7.4m-26 8.6l41.8-1.3-2.7 93.5s-25.8 4.8-32 0l-7.1-92.2z"/><path fill="none" stroke="#000" stroke-width="2" stroke-miterlimit="10" d="M164 66.7l17 40.4-5.7 41.7h-5l2.2-41.1-9.2-17m-41.1-22.8c-1 .1-16.3 35.4-16.3 35.4l2.5 45.4h5.6l2.3-43.3 7.7-13.7"/><path fill="none" stroke="#000" stroke-width="2" stroke-miterlimit="10" d="M170.3 148.8c-.4.6-3.9 5.6-3.9 5.6l2.5 2.1 2.5-2-.8 14.2 6.3-5.8-1.6-14.1m-66.9 0c-.3.6-2.5 18.2-2.5 18.2s7.9 4.3 7.9 4.1v-15.4l2.9 2 2.6-3.1-5.3-5.9m2.4-43.2l-10.5-2.2m66.6 4.4l8.5-.6m-51.6 53.1l6 100.9h5.4l3.3-98.8m2.6-.2l9.7 99h5.2l-.2-100.9m-26 100.9l-18.9 7.4s14.6 6.6 15 6.3 9.3-13.7 9.3-13.7m15.6 0l8.9 13.6 12.9-6.8-16.6-6.8M130.3 21.4l-5-7.8 9.5 3.2m12.5-1c.2.1 7.4-6.4 7.4-6.4l-1.6 12.1m8.3 160.5s20.6 49.4 56.6 6.5"/><path fill="none" stroke="#000" stroke-width="2" stroke-miterlimit="10" d="M211.2 184.6c.8.5 12.9 7.5 12.9 7.5l-.8-14.7-12.1 7.2z"/></svg>