<svg version="1" xmlns="http://www.w3.org/2000/svg" width="432" height="432"><g fill="#27AAE1"><path d="M215.4 71.7s-17.2 27.4.8 49c0 0-14.9-1.1-15.4-23.1-.4-22 14.6-25.9 14.6-25.9zm-14.7 272.5c1 .2 2 .5 3 .9l.2-.5 4.6-136.5h20.4l-22.2-4.1-4-77.7h-7.6l4.2 81.8 1.4 136.1z"/><path d="M222.6 345.1c1.1-.5 2.2-1 3.3-1.4l-3.6-135.5h-6.9l6.9 136.5.3.4zm-27-209.5l-10.4 31.1.8 48.3h3.1l2-46.1 5.4-15.5z"/></g><path fill="none" d="M203.9 73.1c5.2 0 10.5 0 15.7.1-7.6.2-15.2 1.9-22.2 5.1 6.6.1 13.3.6 19.9 1.4-7.8 2.7-15.5 5.4-23.3 8.1 5.5.1 11.1.3 16.6.4-5.6 2.3-11.2 4.7-16.9 7 5.6-.1 11.3-.3 16.9-.4-7.3 2-14.3 4.8-21 8.2 9.2.3 18.4.6 27.7.9-7.5 3.5-15.5 6-23.7 7.5 6.4.3 12.7.5 19.1.8-7.1 1.9-14.3 3.7-21.4 5.6 9.5-1.2 19.1-1.4 28.6-.4-11.7 2.2-23.1 6-33.8 11.3 9 .7 18 1.5 26.9 2.2-11 1.8-21.7 5-31.9 9.5l31.8 1.5c-10.6 1.9-21.2 3.8-31.9 5.7-2.2.4-4.7 1-5.6 3 13.2.6 26.4.7 39.5.4-12.9 2.2-25.6 5.3-38 9.2 15.7.1 31.5.1 47.2.2-16.8-.3-33.6 3.3-48.7 10.4 15.8.1 31.7.2 47.5.4-18.8 2.1-37.4 6.1-55.4 12.1 15.9-.1 31.8-.2 47.7-.2-18.1 2.9-35.9 7.7-53 14.4 19-.5 37.9-1 56.9-1.6-15 5.4-30.4 9.7-46 12.9 18.3-1.4 36.8-1.7 55.1-.8-15.3 3.1-30.7 6.1-46 9.2-7.2 1.4-14.7 3-20.5 7.6 26.4-1.6 52.9-3.3 79.3-4.9-19.4 7.6-39.4 13.9-59.6 18.8l45.6.3c-16.6 3.2-33.3 6.4-49.9 9.5 18.2.6 36.3 1.2 54.5 1.8-14.5 1.4-28.9 3.9-43.1 7.3 17.7.1 35.5.2 53.1 2.6-18.3 1.7-36.4 4.2-54.5 7.5 13.7 2 27.5 3 41.3 2.9-18.4 2.5-36.8 5-55.1 7.5 21.2-.1 42.3-.3 63.5-.4-15.2 6.5-30.4 12.9-45.6 19.4l44.2-.6c-12.2 3.1-24.4 6.1-36.6 9.2 10.9.3 21.8.6 32.8.8-14.8 2.7-29.8 4.7-44.8 6 19.3-.2 38.7.6 57.9 2.4-14.6 2.6-29.3 5.1-44 7.2 10.3.2 20.6.3 30.9.5-13.6 1.2-27 5.3-39 11.8l56.5.3c-17.1-.6-34.3.1-51.3 2.2 12.3-.5 24.6-.9 36.9-1.4-14.1.3-28.3 2.3-41.9 5.9-3.6 1-8 3.2-7.6 6.9 23.5 1 47 .2 70.4-2.4-20.6 6.9-43 4.2-64.6 5.5-4.4.3-9.8 1.5-11 5.7 22.6 4.3 46.2 3.6 68.5-1.9 1.3-1.6 2.7-3.2 4-4.8-6.9-1.6-14-2.1-21.1-1.7"/><g fill="none" stroke="#000" stroke-width="2" stroke-miterlimit="10"><ellipse cx="216.2" cy="96.2" rx="15.4" ry="24.5"/><path d="M226.4 73.8s-12.2 2.3-18.8 0m20.6 3.2c-1.1.6-12.9 3.4-23.1.5m24.4 3.1s-12.7 5.4-25.5.7m17.2 38.1v7h-9.4v-6.8m24.6 6.8h-41.3l4.2 81.8h32.3z"/><path d="M195.1 126.4l-15.7 38.1 3.5 50.6h6.3l1.9-46.2 5.4-15.5"/><path d="M189.1 215l4.5 7.8-3.5 2-3.5-3.7-1 16.4-7.2-6.8 4.4-15.7m8.3-46.1l-11.7-4.4m56.8-38.1l15.8 38.1-3.5 50.6h-6.4l-1.9-46.2-5.3-15.5"/><path d="M242.3 215l-4.5 7.8 3.4 2 3.6-3.7.9 16.4 7.2-6.8-4.4-15.7m-8.3-46.1l11.8-4.4m-20.4 43.7l-2.7 136.5h-6.6l-6.9-136.5-7.5 136.5h-7.6l-1-136.5"/></g></svg>