<svg version="1" xmlns="http://www.w3.org/2000/svg" width="288" height="288"><path fill="none" stroke="#000" stroke-width="2" stroke-miterlimit="10" d="M115.5 28.1l.5 36.6c0 2.8 2.4 5 5.2 4.8l24.2-1.6c2.7-.2 4.8-2.6 4.5-5.4l-3.7-35.3c-.3-2.5-2.4-4.4-4.9-4.4l-21.1.3c-2.5.1-4.7 2.3-4.7 5z"/><path fill="none" stroke="#000" stroke-width="2" stroke-miterlimit="10" d="M115.8 43.7s-6.9-3.1-6.8 2.9 6.9 6.3 6.9 6.3M148 40.7s6.8-3.3 6.9 2.7-6.7 6.5-6.7 6.5m-21.8 18.5v9.4l18.5-1.2-3.1-9m-29.3 78.7c-6.8-26.1-16.8-64.8-16.8-64.8l77.8-7.3-8.4 69.9-1.5 12.2c-1 8.1-1.6 13.3-1.6 13.3h-43.5s-1.1-4.2-2.8-10.8m2.8 10.9l-1.8 93.5h8.4l15.2-81.3 16.9 81.3h10l-5.2-93.5"/><path fill="none" stroke="#000" stroke-width="2" stroke-miterlimit="10" d="M95.6 81.5l-34.3 37.4 49.6 40h10.8v-11.7l-13.6-.8"/><path fill="none" stroke="#000" stroke-width="2" stroke-miterlimit="10" d="M102.6 108.5l-10 13.5 15.5 20.2s2.8.4 3.3 0m5.3 121L98 272.9l17.1 10.5 10-20.2m32.1 0l7.2 20.2 19.4-6.9-16.6-13.3m6.3-188.9s19.8-13.6 34.8-4.9V32.7l-13.3.6 1.1-11.5H213l13.7 61.8-57 21.4m28.6-71.9c-.3 0 .7-5.8.7-5.8m2.7 5.7l.6-5.6m3.2 5.4v-5.4"/></svg>