<svg version="1" xmlns="http://www.w3.org/2000/svg" width="288" height="288"><path fill="none" stroke="#000" stroke-width="2" stroke-miterlimit="10" d="M132.8 17.4l.5 37.6c0 2.9 2.5 5.1 5.3 4.9l24.8-1.7c2.8-.2 4.9-2.7 4.6-5.5l-3.8-36.2c-.3-2.6-2.5-4.5-5-4.5l-21.6.3c-2.7.1-4.9 2.3-4.8 5.1z"/><path fill="none" stroke="#000" stroke-width="2" stroke-miterlimit="10" d="M133 33.3s-7-3.2-7 3 7.1 6.4 7.1 6.4m33-12.4s7-3.4 7 2.8-6.9 6.6-6.9 6.6m-22.3 19v9.6l18.9-1.1-3.1-9.3m-30.1 80.8c-7-26.8-17.2-66.5-17.2-66.5l79.8-7.5s-5.1 42.7-8.6 71.8m-1.5 12.5c-1 8.3-1.6 13.7-1.6 13.7h-44.6s-1.1-4.3-2.9-11.1m2.8 11.1l-1.8 95.8h8.5l15.7-83.4 17.3 83.4h10.3l-5.4-95.8"/><path fill="none" stroke="#000" stroke-width="2" stroke-miterlimit="10" d="M112.3 72.2l-35.2 38.3 50.9 41h11.1v-11.9l-13.9-.9"/><path fill="none" stroke="#000" stroke-width="2" stroke-miterlimit="10" d="M119.5 99.8l-10.3 13.9 15.9 20.7s2.8.4 3.3 0m63.7-69l37.4 30-39.8 51.8-10.8 2.6-2.8-11.6 13.3-4.1"/><path fill="none" stroke="#000" stroke-width="2" stroke-miterlimit="10" d="M188.6 95l12.4 9.7-12.6 25.3s-3.6 1.1-4.2.8M134 258.5l-19.2 10.1 17.5 10.7 10.2-20.8m33 0l7.4 20.8 19.9-7.1-17-13.7"/></svg>