<svg version="1" xmlns="http://www.w3.org/2000/svg" width="288" height="288"><circle fill="none" stroke="#000" stroke-miterlimit="10" cx="143.4" cy="55.2" r="13.2"/><path fill="none" stroke="#000" stroke-miterlimit="10" d="M136.3 66.3v52.8h18.6l-4.3-52.8m-9.1 52.8v111.3m8-111.3l2.4 111.3m-14.4 0h17.4l1.8 21.3h45.5l-2 17H95.5l2-19.1 38.8 1.5zM55.4 29.2s-8-13.8-13.3-8.9 5.3 21.2 5.3 21.2h192s10.7-16.3 5.3-21.2-13.3 8.9-13.3 8.9h-176zM7.9 149.5h78.7s-6.3 35-42 35-36.7-35-36.7-35zm78.7 0l-35-108h-4.3l-39.4 108m187.4 0H274s-6.3 35-42 35-36.7-35-36.7-35zm78.7 0l-35-108h-4.4l-39.3 108"/></svg>