<svg version="1" xmlns="http://www.w3.org/2000/svg" width="1271.9" height="1189.4"><circle fill="none" stroke="#000" stroke-width="5" stroke-miterlimit="10" cx="658" cy="317.9" r="52.7"/><path fill="none" stroke="#000" stroke-width="5" stroke-miterlimit="10" d="M629.7 362.3v210.9H704l-17.2-210.9m-36.3 210.9v444.6m31.9-444.6l9.6 444.6m-57.5 0H704l7.2 85.1h181.7l-8 67.9H466.7l8-76.3 155 6zM306.4 212.9s-31.8-55.2-53-35.7 20.9 84.8 20.9 84.8l767 2.5s43-65 21.4-84.6-53.2 35.4-53.2 35.4l-703.1-2.4zM120.3 695.8h314.4s-25.2 139.8-167.8 139.8-146.6-139.8-146.6-139.8z"/><path fill="none" stroke="#000" stroke-width="5" stroke-miterlimit="10" d="M434.7 695.8L294.9 264.4h-17.2L120.3 695.8m744.9.8h314.4s-25.2 139.8-167.8 139.8-146.6-139.8-146.6-139.8zm314.4 0l-139.8-431.4h-17.6l-157 431.4"/><g fill="#27AAE1"><path d="M283.5 375.5s-20.2 32.1.9 57.5c0 0-17.5-1.3-18.1-27.1-.4-25.8 17.2-30.4 17.2-30.4zm-17.3 319.6c1.2.3 2.4.6 3.5 1.1l.2-.6 5.4-160.1h23.9l-26-4.8-4.7-91.1h-8.9l4.9 95.9 1.7 159.6z"/><path d="M291.9 696.1c1.3-.6 2.6-1.2 3.9-1.6l-4.2-158.9h-8.1l8.1 160.1.3.4zm-31.6-245.6l-12.2 36.4.9 56.7h3.7l2.3-54.1 6.3-18.2z"/></g><g fill="none" stroke="#000" stroke-miterlimit="10"><ellipse stroke-width="5" cx="284.4" cy="404.3" rx="18.1" ry="28.7"/><path stroke-width="3" d="M296.4 378s-14.3 2.7-22 0m24.1 3.7c-1.3.7-15.1 4-27.1.6M300 386s-14.9 6.3-29.9.8"/><path stroke-width="5" d="M290.3 431.5v8.2h-11v-8m28.8 8h-48.4l4.9 95.9h37.9zm-48.4 0l-18.4 44.7 4.1 59.3h7.4l2.2-54.2 6.3-18.2"/><path stroke-width="5" d="M252.7 543.6l5.2 9.1-4.1 2.4-4.1-4.4-1.2 19.3-8.4-8 5.2-18.4m9.7-54.1l-13.7-5.1m66.6-44.7l18.5 44.7-4.1 59.3h-7.5l-2.2-54.2-6.2-18.2"/><path stroke-width="5" d="M315 543.6l-5.2 9.1 3.9 2.4 4.3-4.4 1 19.3 8.5-8-5.2-18.4m-9.7-54.1l13.8-5.1m-23.9 51.2l-3.2 160.1h-7.7l-8.1-160.1-8.8 160.1h-8.9l-1.2-160.1"/></g></svg>