<svg version="1" xmlns="http://www.w3.org/2000/svg" width="1271.9" height="1189.4"><circle fill="none" stroke="#000" stroke-width="5" stroke-miterlimit="10" cx="658" cy="317.9" r="52.7"/><path fill="none" stroke="#000" stroke-width="5" stroke-miterlimit="10" d="M629.7 362.3v210.9H704l-17.2-210.9m-36.3 210.9v444.6m31.9-444.6l9.6 444.6m-57.5 0H704l7.2 85.1h181.7l-8 67.9H466.7l8-76.3 155 6zM306.4 212.9s-31.8-55.2-53-35.7 20.9 84.8 20.9 84.8l767 2.5s43-65 21.4-84.6-53.2 35.4-53.2 35.4l-703.1-2.4zM120.3 695.8h314.4s-25.2 139.8-167.8 139.8-146.6-139.8-146.6-139.8z"/><path fill="none" stroke="#000" stroke-width="5" stroke-miterlimit="10" d="M434.7 695.8L294.9 264.4h-17.2L120.3 695.8m744.9.8h314.4s-25.2 139.8-167.8 139.8-146.6-139.8-146.6-139.8zm314.4 0l-139.8-431.4h-17.6l-157 431.4"/><path fill="none" stroke="#000" stroke-width="5" stroke-miterlimit="10" d="M260.7 455.3l.5 37.6c0 2.9 2.5 5.1 5.3 4.9l24.8-1.7c2.8-.2 4.9-2.7 4.6-5.5l-3.8-36.2c-.3-2.6-2.5-4.5-5-4.5l-21.6.3c-2.7.1-4.9 2.3-4.8 5.1z"/><path fill="none" stroke="#000" stroke-width="5" stroke-miterlimit="10" d="M260.9 471.2s-7-3.2-7 3 7.1 6.4 7.1 6.4m33-12.4s7-3.4 7 2.8c0 6.2-6.9 6.6-6.9 6.6m-22.3 19v9.6l18.9-1.1-3.1-9.3m-30.1 80.8c-7-26.8-17.2-66.5-17.2-66.5l79.8-7.5s-5.1 42.7-8.6 71.8m-1.5 12.5c-1 8.3-1.6 13.7-1.6 13.7h-44.6s-1.1-4.3-2.9-11.1m2.8 11.1l-1.8 95.8h8.5l15.7-83.4 17.3 83.4h10.3l-5.4-95.8"/><path fill="none" stroke="#000" stroke-width="5" stroke-miterlimit="10" d="M240.2 510.1L205 548.4l50.9 41H267v-11.9l-13.9-.9"/><path fill="none" stroke="#000" stroke-width="5" stroke-miterlimit="10" d="M247.4 537.7l-10.3 13.9 15.9 20.7s2.8.4 3.3 0m63.7-69l37.4 30-39.8 51.8-10.8 2.6-2.8-11.6 13.3-4.1"/><path fill="none" stroke="#000" stroke-width="5" stroke-miterlimit="10" d="M316.5 532.9l12.4 9.7-12.6 25.3s-3.6 1.1-4.2.8"/></svg>