<svg version="1" xmlns="http://www.w3.org/2000/svg" width="1271.9" height="1189.4"><circle fill="none" stroke="#000" stroke-width="5" stroke-miterlimit="10" cx="658" cy="317.9" r="52.7"/><path fill="none" stroke="#000" stroke-width="5" stroke-miterlimit="10" d="M629.7 362.3v210.9H704l-17.2-210.9m-36.3 210.9v444.6m31.9-444.6l9.6 444.6m-57.5 0H704l7.2 85.1h181.7l-8 67.9H466.7l8-76.3 155 6zM306.4 212.9s-31.8-55.2-53-35.7 20.9 84.8 20.9 84.8l767 2.5s43-65 21.4-84.6-53.2 35.4-53.2 35.4l-703.1-2.4zM120.3 695.8h314.4s-25.2 139.8-167.8 139.8-146.6-139.8-146.6-139.8z"/><path fill="none" stroke="#000" stroke-width="5" stroke-miterlimit="10" d="M434.7 695.8L294.9 264.4h-17.2L120.3 695.8m744.9.8h314.4s-25.2 139.8-167.8 139.8-146.6-139.8-146.6-139.8zm314.4 0l-139.8-431.4h-17.6l-157 431.4"/><path fill="none" stroke="#000" stroke-width="5" stroke-miterlimit="10" d="M244.7 459.9l.5 36.6c0 2.8 2.4 5 5.2 4.8l24.2-1.6c2.7-.2 4.8-2.6 4.5-5.4l-3.7-35.3c-.3-2.5-2.4-4.4-4.9-4.4l-21.1.3c-2.5.1-4.7 2.3-4.7 5z"/><path fill="none" stroke="#000" stroke-width="5" stroke-miterlimit="10" d="M245 475.5s-6.9-3.1-6.8 2.9c.1 6 6.9 6.3 6.9 6.3m32.1-12.2s6.8-3.3 6.9 2.7c.1 6-6.7 6.5-6.7 6.5m-21.8 18.5v9.4l18.5-1.2-3.1-9m-29.3 78.7c-6.8-26.1-16.8-64.8-16.8-64.8l77.8-7.3-8.4 69.9-1.5 12.2c-1 8.1-1.6 13.3-1.6 13.3h-43.5s-1.1-4.2-2.8-10.8m2.8 10.9l-1.8 93.5h8.4l15.2-81.3 16.9 81.3h10l-5.2-93.5"/><path fill="none" stroke="#000" stroke-width="5" stroke-miterlimit="10" d="M224.8 513.3l-34.3 37.4 49.6 40h10.8V579l-13.6-.8"/><path fill="none" stroke="#000" stroke-width="5" stroke-miterlimit="10" d="M231.8 540.3l-10 13.5 15.5 20.2s2.8.4 3.3 0m62.1-67.9s19.8-13.6 34.8-4.9v-36.7l-13.3.6 1.1-11.5h16.9l13.7 61.8-57 21.4m28.6-71.9c-.3 0 .7-5.8.7-5.8m2.7 5.7l.6-5.6m3.2 5.4v-5.4"/></svg>