<svg version="1" xmlns="http://www.w3.org/2000/svg" width="288" height="288"><g fill="#27AAE1"><path d="M169.8 124.3s16.2 21.9 8 33.1c0 0 9.2-7.4 6.1-19-3.1-11.5-8.7-15.3-8.7-15.3l-5.4 1.2zm15.6 33.9s14.8 25.9 17.7 40.4l-15.5 5.8 25.8.3s-11.8-33.4-15.6-38.2c-3.7-4.8-7.9-10.3-7.9-10.3l-4.5 2z"/><path d="M197.8 183s-7.2 17.1-21.3 20.6c0 0 1.7 1.5 2.5 1.3.8-.1 14.3-7.3 14.3-7.3l9.9-11.5-5.4-3.1zm17 30.7c-1 0-34.9-.8-34.9-.6 0 .3 4.7 27.9 4.7 27.9l-21.7 6s8.1 6.7 8.7 6.5 17.2-8.3 17.2-8.3l-1.9-4.7-2.3-22.6s16.7 5.3 30.7 3.9l-.5-8.1z"/><path d="M200.6 221.7s-.2 12.1 2.7 19.5v1.1l29-4.8s-2.1 16.2-1.5 16c.7-.2 10.5-1.7 10.5-1.7l-3.7-20.4-28.3-.2.3-8.6-9-.9zm-97-112.7l.1-.6.1-5.9-2.3-.8s-.6 2.3-2.1 6c1.7.2 3 .6 4.2 1.3zm-13.4 15.1c-6.2 8.5-15.6 17.6-29.1 23.6l-3.6 15.8s11.5-2.1 19.2-8.9c7.3-6.5 21.1-24.1 22.4-25.7-3.5-1.3-5.6-3-8.9-4.8z"/></g><g fill="none" stroke="#000" stroke-width="2" stroke-miterlimit="10"><path d="M95.1 92.8l-3.9-1C84.8 90 81 83.4 82.8 77l4.1-15.3c1.7-6.4 8.3-10.2 14.7-8.4l3.9 1c6.4 1.7 10.2 8.3 8.4 14.7l-4.1 15.3c-1.7 6.4-8.3 10.2-14.7 8.5z"/><path d="M84.3 71.4s5.8 2.9 10 2.6c4.2-.3 9.5 1.5 9.8 3.2s6.7 3.4 6.7 3.4M85.7 66.2s-4.1-1.4-5.3 2.3c-1.2 3.7 2.2 6.4 2.2 6.4"/><path d="M95.3 100.1c6.2 1.1 12.9 1.2 19.6-.4 0 0-1.9-13.2 1.9-24.9s5.8-26.2-9.5-29.6c0 0-22.5-10.8-36.1 20.7 0 0-8 17.9-9.5 18.8 0 0 15.2 8.7 24.1 13.1"/><path d="M87.1 90c-.6 3.2-1.4 8-1.4 8l9.3 2.2s1.1-4.3 1.9-7.3"/><path d="M103.7 130.6c.1 28.9 1.3 72.2 7.1 90.5 0 0-42.9 5.3-64.3-10.7L72.6 98s20.7.4 31.3 4.4c0 0-.1 2.2-.1 5.9"/><path d="M80.2 103.3s37.4 9.5 65.7 10l-2.2 32.3s-43.2-9.8-65-32.3"/><path d="M145.9 115.9l9.7-3.5v3.5l-3 2 14.6 1.3-6.1 9.9-16.1-3m-41.1-22.8s17.5 5.6 44.9 7.4c0 0-.1 1.7-.2 4.2m-.6 12.2c-.3 7.3-.6 14.3-.6 14.3l-3.4-.8m-44.4-39.5s-.8 2.1-2.5 5.5M87.5 122c-6.1 8.1-14.6 16.9-25.9 23.3m37.5-16.6c-7.2 11.4-22.2 31.5-41.7 34.7m4.2 54l1.6 17.6h4.7l3.7-14.9m18.9 1.8l2.9 13.1h5l1.2-13.2"/><path d="M63.2 235c-.2 2 19.3 14.7 19.3 14.7l7.5-10.3-22.1-4.4m25.5 0l16.1 12 10.5-8.4-22.6-3.6m56.7-122.2c-.9-3.1-1.7-5.8-1.7-5.8l8 4.5 2.5-14.8 10.4 12.3 3.6-10.8 5 20.7s-7.4 6.7-18.1 5.6"/><path d="M175.2 123.1c3.4 2.8 6.4 7.7 7.8 13.6 2.5 10.3-.5 20-6.9 21.5s-13.5-5.6-16-15.9c-1.1-4.6-1.1-9.1-.3-12.7m-3-1.2s11.6 3.3 21.9-4.1m-21.2 8.8s11.4 1.5 24-5.2"/><path d="M181.5 154l2.4 4.8-7.4 3.5-2.3-3.9"/><path d="M182.5 196.2c-4-13-15.4-29.5-15.4-29.5-.3 0 22.7-10.7 22.7-10.7s13.9 15.2 24 50.3c2.1 7.4 1.3 15.4 1.3 15.4-14.3 1.4-26.7-2.6-26.7-2.6l-3.3-1.1-.9-.2c.9 7.2 2.9 23.1 2.9 23.1h-3.3s-10.3-17.9-16-27.8"/><path d="M183.9 168.2l8.6 14.8s-8.2 13.8-18.5 18.2l2.5 2.3s18.2-.5 26.5-17.5c0 0-4.1-10.2-9.2-20.3"/><path d="M174.6 201.2l-9.1 1.1.9 10.8h7.1l4.3-8.8m14.8-21.2l10.5 3m10.3 18.5s-18.2-1.1-35.4.3m-1.5-22.6s.4 13.9-4.7 18.9m-5.8 8.5c-1.1-1.9-1.7-3-1.7-3 .4-.1.9-.2 1.3-.3m30.7 14.2s-.1 15.1 5.2 21.8l30.6-4.8 1-6.1h-23.7s-1-1.1 0-9.4M183.9 241l-19.7 3.4 7.4 6.7 17.2-6.7-1.6-3.4zm49.3-9.5l-3.3 19.6h11.3l-3.6-19.6z"/></g></svg>