<svg version="1" xmlns="http://www.w3.org/2000/svg" width="288" height="288"><ellipse transform="rotate(-16.942 150.695 49.888)" fill="none" stroke="#000" stroke-width="2" stroke-miterlimit="10" cx="150.7" cy="49.9" rx="4.9" ry="2.2"/><path fill="none" stroke="#000" stroke-width="2" stroke-miterlimit="10" d="M146.4 51s-7.8 4.1-7.9 7.6 7.7 6.8 18.4 2.5 12.4-10.5 9.8-12.9-8.6-1.9-12 0"/><path fill="none" stroke="#000" stroke-width="2" stroke-miterlimit="10" d="M163.5 93.3c-3 2.4-6.5 3.6-10.1 3.2-8.9-1.1-14.8-12-13.2-24.3.5-3.8 1.6-7.3 3.2-10.2m22.6-6.8c4.8 4.3 7.4 12.3 6.3 21-.7 5.8-3 10.9-6.1 14.5"/><path fill="none" stroke="#000" stroke-width="2" stroke-miterlimit="10" d="M159.4 86.7l6.4 9.9s-1 4.5 2.8 3c5.6-2.3.3-4.3.3-4.3l-6.6-9.2-2.9.6zm-19-5.5s-14.6.9-18.5 24.5"/><path fill="none" stroke="#000" stroke-width="2" stroke-miterlimit="10" d="M134.4 91.4s-13.4 12.9-17.1 22c0 0 12 13.8 30.2 17.1l1.1-5.4s-14.9-10.4-18.8-14.2l7.9-7.9m11 22.2l6.8-.8.7 9-4.4 2.6.3-3.1-4.6-2.4"/><path fill="none" stroke="#000" stroke-width="2" stroke-miterlimit="10" d="M121 116.8c-.1 8.6.9 19.2 3.7 32.5 0 0 11.7 5.7 26.3 4.7 0 0 .1-9.5 1-21.2m.8-7.8c1.2-11.2 3.1-22.8 6.4-29.2"/><path fill="none" stroke="#000" stroke-width="2" stroke-miterlimit="10" d="M157.3 100.3l5.7 18.3s-4.9 6.2-7.3 9.3"/><path fill="none" stroke="#000" stroke-width="2" stroke-miterlimit="10" d="M153 124.6c-.1-.1-.1-.2-.1-.2l5.1-9.6m-9.3 17l-1.2 2.4 2.7 1.8 1.9-1M141 153.7s4.3 46.6-12 76.4h-6.8s12.8-42.8 2.4-80.8"/><path fill="none" stroke="#000" stroke-width="2" stroke-miterlimit="10" d="M151 154s11.5 39.3-3.5 75.1h-5s7-40.5-1-59.8M122.3 230l11.4 11.8 10.8-5.4-16.2-6.4"/><path fill="none" stroke="#000" stroke-width="2" stroke-miterlimit="10" d="M142.5 229l15.3 7 7.9-6-19-1"/></svg>