<svg version="1" xmlns="http://www.w3.org/2000/svg" width="288" height="288"><path d="M126.2 235.2L147 223l8.2-15.8h-4.8l4.8-5.1s-13 .9-12.5 0 7.8-10.5 7.8-10.5h-11.8s11.8-10.3 11.5-15.7l-1-5.6s-13.8 6.1-14.5 7.1-3.5 6.5-3.5 6.5l-25.8-18.7-4.2 5.1 2.7 5.6-8.2-3.9 4.2-9.8-9.2-5-4.8 8-2.8-9.5 6-7.5 12 8v-10.4l-8-1.4 12.2-3.9 2.7 17.6 21 10.9 28-18.2-3.8-6.3-30.5 6.3-2.6-13.8 5.6 4.9 3.5-4.9 5 4.9 2.5-7.9 4.5 6.6 3-5.1 7 2.7-8.5-14.4-3.8 7-7.5-5.8-2.2 6.8-6-6.8-4 6.2-8.2-17 5.9 2.2 25-7.5-6.8-8.8 12.5 5.8 1.8-13.1 7.5 8.9h8.2l7.5 18.8 6 3 3-17.2V94l-17.5-17.5h-13.8v5.2l6 .8s-10.5 4.2-10.5 3-.2-13.2-.2-13.2H134l-1.5 8.8-4.8-15h19.8l-5.5-8-9.5-1.2 14.8-4.8s6.2 12 7.5 12 14 4.2 14 4.2L196.5 95l-8.5 36.2s6.2 18 13.8 19.5l-9.5 2.2 12 16-10.8-.5 10.8 19.5-10-4.2-3 27.3-29.5 18.1-31.5 7.3-4.1-1.2z"/><path fill="#FFF" d="M142 114.8l14-6-3 8.4z"/></svg>