<svg version="1" xmlns="http://www.w3.org/2000/svg" width="288" height="288"><path d="M195.2 169.5l11.1.5-12.3-16.5 12.5-2.9-4.6-.9c-5.7-1.1-11.2-13.5-13-18.6l8.6-36.5-28.1-27.1-.2-.2-.2-.1c-2.9-1-12.1-4-14.1-4.2-1-.8-4.3-6.5-6.9-11.5l-.4-.8-19.9 6.4 13.5 1.7 4.2 6.1h-19.3l6.5 20.2 2-12h9.8c0 2.9.2 11.2.2 12.2 0 .4.2.7.5 1 .4.3 1.4.9 11.4-3l3.5-1.4-8.9-1.2v-3.3h12.4l16.9 16.9v11.8l-2.8 15.8-4.5-2.2-7.6-19.1h-8.4l-8.6-10.3-1.9 14-15-7 8.4 10.9-23.3 7-7.9-3 10.1 20.8 4.2-6.6 6.3 7.1 2.3-7.1 7.3 5.6 3.5-6.5 6.1 10.4-5.1-2-2.6 4.5-4.8-7-2.6 8.3-4.7-4.6-3.5 5-6.9-6.1 3.3 17.6 30.8-6.4 2.9 4.9-26.7 17.4-20-10.4-2.8-18.3-17.2 5.5 11.2 2v7.7l-11.2-7.5-6.9 8.6 3.6 12.2 5.5-9.1 7.6 4.1-4.2 9.8L106 178l-3.7-7.6 3.2-3.9 26 18.8.5-1c1.1-2.2 2.9-5.7 3.4-6.3.7-.6 6.9-3.6 13-6.3l.8 4.3c.1 4-8 12.1-11.2 14.8l-2 1.8h12.5c-2.2 2.9-6.3 8.3-6.7 9l-.3.6.3.5c.3.5.7 1.1 10.9.5l-4.6 4.9h5.5l-7.3 14.1-22.5 13.2 6.6 1.9 31.9-7.4 29.6-18.2.4-.3 2.9-26.5 11.4 4.8-11.4-20.2zm-13.4 44.3s-15.6 10.2-19 12.7-32.8 8.3-32.8 8.3l22.4-11 16.2-22.7s.1-7.1.1-15.2c-13.8-3.3-14.3-17.9-14.3-17.9s-2.2-4.7-1.9-7.1c.3-2.5 2.2-6.9 2.2-6.9l2.3-.3v.4l.3-.2.2-1 2.4.5 1.1 5.5 1.8.4-1.5 7.5c.4.9 2.1 4.3 4.9 5.9.6.3 1.2.5 1.9.7.1 0 .3.1.4.1.1 0 .2.1.4.1 0-5.7.1-10 .1-10 1.2-.9 2.8-1.6 4.5-2.3h-.2l-.6-4.1c-4.6-.1-8.2-5.9-8.1-12.9 0-2.2.4-4.3 1.1-6.1-.7-.2-1.2-.4-1.3-.4l.6-1.6s.5.2 1.4.5c.1-.1.1-.3.2-.4-.8-.3-1.3-.5-1.4-.5l.6-1.6s.7.3 1.8.6c.1-.1.2-.3.3-.4-.5-.1-.9-.2-1.1-.2l.3-1.7c.6.1 1.4.2 2.4.4 1.1-.8 2.4-1.3 3.7-1.3 1.5 0 2.9.7 4.1 1.8.7-.1 1.3-.2 1.7-.3l.7 1.5c-.3.1-.6.2-1 .3.1.2.3.4.4.6.2-.1.4-.1.6-.2l.6 1.6c-.2.1-.3.1-.5.2.1.2.2.4.3.7l.6-.3.9 1.4c-.3.2-.6.3-.9.4.5 1.6.7 3.4.7 5.3-.1 4.6-1.7 8.6-4.2 10.8l1 4.4c3.6-1 6.6-1.5 6.6-1.5 7.2 16.8 5.5 41.4 5.5 41.4s.4 10.5-8.5 14.1z"/></svg>