<svg version="1" xmlns="http://www.w3.org/2000/svg" width="288" height="288"><path fill="#231F20" d="M194.2 168.8l10.9.5-12.1-16.2 10.6-2.5-1.7-.3c-7-1.4-13-17.7-13.5-19.2l8.5-36.3L169.1 68l-.1-.1c-1.3-.4-12.8-4.2-14.1-4.2-.8-.3-4.3-6.2-7.2-11.8l-.1-.3-16.7 5.4 11 1.4 5 7.3h-19.6l5.4 17 1.7-10h10.9c0 2 .2 11.8.2 12.8 0 .2.1.3.2.5 1 .7 7.9-1.9 10.8-3.1l1.3-.5-7.1-.9V77H164l17.3 17.3v12.1l-2.9 16.7-5.4-2.7-7.4-18.7-.1-.2h-8.3l-7.9-9.4-1.8 13.4-13.4-6.2 7.4 9.6-24.4 7.3-6.7-2.5 8.9 18.4 4.1-6.3 6.1 6.9 2.2-6.9 7.4 5.7 3.7-6.8 7.6 12.9-6.4-2.6-2.9 4.9-4.6-6.7-2.5 8.1-4.9-4.8-3.5 4.9-6.1-5.3 2.9 15.2L153 145l3.5 5.8-27.5 17.8-20.6-10.7-2.7-17.8-14.1 4.5 9.2 1.6v9.4L89 147.7l-6.3 7.9 3.1 10.5 5.1-8.4 8.6 4.7-4.2 9.8 9.5 4.5-3.1-6.3 3.8-4.6 25.9 18.8.2-.4c0-.1 2.8-5.5 3.5-6.5.5-.7 8.6-4.4 13.9-6.8l.9 5.1c.3 5.2-11.3 15.3-11.4 15.4l-.8.7h12c-1.6 2.1-6.9 9.2-7.4 9.9-.1.2-.1.3 0 .5.4.6 4.4.6 11.9.1l-4.7 5h5.1l-7.9 15.2-21.5 12.6 5 1.5 31.6-7.3 29.8-18.2 3-27 10.5 4.4-10.9-20z"/><path fill="none" d="M113.5 52.1c22.5-.3 45 .3 67.4 1.7-24.6.6-49.1 2.5-73.4 5.5 25.6 1.6 51.3 3.2 76.9 4.8-24-.3-48.1.4-72 2.1-10 .7-20.1 1.6-29.7 4.8h145.1c-9.2 4.5-19.6 5.3-29.8 5.7-33.6 1.4-67.3-.5-100.7 2.6 40 5.5 80.5 8.4 120.9 8.7-14.9 1.8-29.9 1.3-44.8 1.5-26 .3-51.9 2.4-77.6 6.3 42.8 1.8 85.7 3.6 128.5 5.5-47.3 5.3-94.7 10.5-142 15.8 39-1.4 78.1-2.9 117.1-4.3-11.2 3.8-23.2 5-35 6-32.5 2.9-65 5.4-97.6 7.8 42.9 1.2 85.9 2.3 128.8 3.5-21.3 5-43.3 7.1-65.2 8.4-17.5 1.1-35.1 1.6-52.3 4.7 41.1-1.3 82.1-2.5 123.2-3.8-41.3 5-82.6 10-123.9 14.9 41 .1 82 0 123-.4-39.6 5.2-80.1.9-119.6 7.3-1.6.3-3.7 1.6-2.8 2.9 6.1.9 12.3.8 18.5.8 37.7-.3 75.4-.7 113.1-1-41.6.9-83.2 3.6-124.5 8 43.1 1.8 86.2 2.2 129.4 1.3-11.4 4.8-24.1 4.7-36.5 4.8-19.3.1-38.5.9-57.7 2.2 32.4-2.1 65-1.2 97.3 2.5-3.6 3.4-8.9 4.2-13.8 4.6-24.7 2.4-49.6 2.5-74.5 2.7 24.1 4.1 48.1 8.8 71.9 14.3-25.7-1.6-51.1-8.4-76.9-6.8C146 204.8 168 212.3 187 225c-13.1-5.7-27-9.6-41.2-11.7 9.6 7.7 19.4 15.1 29.6 22.1-15.2-7.4-30.9-13.7-47-18.9 6.5 8.3 14.6 15.4 23.8 20.6-9.6-6.4-20.3-11.1-31.5-13.8 5.1 6.5 11.4 11.9 18.6 16-7.5-5.7-16-10.2-25-13.1"/></svg>