<svg version="1" xmlns="http://www.w3.org/2000/svg" width="288" height="288"><path fill="none" stroke="#000" stroke-width="2" stroke-miterlimit="10" d="M170.8 65.1s-15.4 3.8-31.3 7.7m-10.9 2.7c-12.7 3.1-23.4 5.8-23.4 5.8m69.5-1.4s-9.9 4.9-23.2 11.5m-13.1 6.4c-10.3 5.1-21.3 10.5-30.7 15.1m-11.5 5.7c-7.4 3.7-12.2 6-12.2 6m96.6-31.7s-13.7 9.5-28.9 20m-13 9c-14.2 9.9-26.6 18.4-26.6 18.4m78.5-38.9s-3.3 4.9-8.4 12.5m-5.2 7.7c-7.7 11.3-17.3 25.7-25.7 38.1m-7.6 11.2l-11.3 16.7m71.2-82.1s-2.4 5.8-6.2 14.7m-2.8 6.6c-3.3 7.8-7.2 17-11.2 26.7m-3.4 8.1c-4.4 10.4-8.8 21-12.8 30.3m-3.5 8.5c-5.6 13.2-9.4 22.4-9.4 22.4"/></svg>