<svg version="1" xmlns="http://www.w3.org/2000/svg" width="288" height="288"><path d="M119.3 91.3s13.7 18.3 4.7 29.5c0 0 7-4.5 6.5-11.9s-4-12.8-4-12.8-3.5-4.6-7.2-4.8zm23.1 93l8.6.3 11.1-2.4 9.4-4.9-2.3-1.9s-5.7 4.1-8.7 4.3c-3 .2-7.6.4-7.6.4s3.5-6.6 1.2-17-9.4-31.1-9.4-31.1l-7.1-12.5-2.6 1.1s13.4 30.6 13.5 44-6.1 19.7-6.1 19.7zm44.8 9.8l-12.5-14.7c-16.2 17-53.3 12.8-53.3 12.8l-2 2.3 3.8 1s19.8.7 20.4 1c.5.3 6.7-1.3 13.5-2.8 6.7-1.5 14.6-8.5 14.6-8.5l3.6 7.4-2.9-7.2v.8l-3 2.6s.9 3.4 1.6 3.7c.7.2 4.1.8 4.6.9l1 3.3 10.6-2.6z" fill="#27AAE1"/><g fill="none" stroke="#000" stroke-width="2" stroke-miterlimit="10"><ellipse transform="rotate(-10.568 120.952 105.742)" cx="121" cy="105.8" rx="9.9" ry="15.2"/><path d="M111.4 94.3s11.5-.2 14.5-2.3m-15.8 4.5s11 2 17.1-2.1M109.7 99s14.1 2.2 19.3-2.5m-.5 21.8l2.1 4.1-5.1 3-1.7-4.7"/><path d="M125.9 154.3c1.9 9.7 3.6 18.5 3.6 18.5s19.2.4 24.7-6.7c0 0-3.8-29-16.2-46.9 0 0-11.9 4.5-16.9 9.8 0 0 1.3 7 3 15.3"/><path d="M128.9 128.9s-3.8 14.2-6.6 17.8c0 0-7.9-2.1-13.9-10.6l-3.2 1.8s4.4 18.6 23.8 17.1c0 0 8.2-9.8 8.7-20.2m-15.4 11.8l6.6 8.3M108.4 136l.6-7.1-1.8-1-2.5-7.6-2.6.9s-1.1 5.6-.9 8.6c.2 2.9 3.9 7.8 3.9 7.8"/><path d="M105.2 120.3h2.3l2.6 6.1h1.8v8.4s4.8 7.3 11.1 6.8m-11.8-6.6l-2.2 1.3m20.4 36.5l-10 21.7s33.2 7.7 53-9.4l-2.5-6s-21.2 10.4-37.2 2.2m21.5-15.2s3.3 12.1-6.2 18.4"/><path d="M169.9 179.1l3.5-2.2 12.9 17.8-10.1 2.5-4.6-10.7m-.7-9l-2.4-2.2s-6.9 5.5-16.6 5.4m23.2 14l-5.2-1.9-1.7-4.5"/></g></svg>