<svg version="1" xmlns="http://www.w3.org/2000/svg" width="288" height="288"><g fill="#FFF"><path d="M132.9 182.6l.9 1.4.4-.1.3-1.2-.9-2.1 1.7.9s2.7-13.9 2.8-14.9v-8.3l-8.9 19.9 4.4 2.4-.1.2-2.4-1.4-2.9 5.7 1.3.5 2.9-1.8.5-1.2zm26.6-2.4l-2.4 1.4-.1-.2-.9 2.2.3 1.2.4.1.9-1.5.5 1.2 2.9 1.8 1.2-.5z"/><path d="M148.8 209.7c4.8-.2 8.5-1.4 8.5-1.4-5.1-12.1-4.9-32-4.4-42.3l2.1 16.4 6.1-3.3-7.8-19.3c0-.4.1-.6.1-.6-.2-.1-.5-.2-.7-.2h.8c.8-.2 1.5-.5 1.5-.5-2.9-2.8-1.9-15.6-3.1-18.4s-6.8-1.7-6.8-1.7-6.3-1.2-7.1 2.9c-.7 3.5-.5 13-1.5 16.2l2.3.6h.4c-.5 0-.8.1-.8.1s-.3 8.3-.4 13.4l-.1.1-.2 5.1c-1 6.9-5.4 27.7-5.4 27.7 3 2.9 6.8 4.3 10.5 4.9l-2.5-.3 1 4.5h.6l1-4.2c1.7.3 3.4.3 4.9.3l1.1 4.6h.6l1-4.5-1.7-.1zm-12.3 8.1l5.9-3.2-1.1-1-7.9 1zm12-2.5l5.8 3.2 3.1-3.2-7.9-1z"/></g></svg>