<svg version="1" xmlns="http://www.w3.org/2000/svg" width="288" height="288"><ellipse transform="rotate(-83.933 147.604 42.847)" stroke="#000" stroke-width="4" stroke-miterlimit="10" cx="147.6" cy="42.8" rx="22.9" ry="16.3"/><path stroke="#000" stroke-width="4" stroke-miterlimit="10" d="M138.5 20.1s7.8 4.3 22.1 3.4m-25-.3s13.2 7.1 27.9 3.7m-29.9-.2s16.3 10.2 31.1 3.6m-23.6 34.1l-.8 6.2 10.2 1 1.4-7.2"/><path stroke="#000" stroke-width="4" stroke-miterlimit="10" d="M160.5 121c.3-16.5.9-37.8 1.7-47.4 0 0-26.2-7.3-37.7 1.3 0 0-.3 23.4-.5 42.3"/><path stroke="#000" stroke-width="4" stroke-miterlimit="10" d="M124.6 75l-20.3 18.7s.5 23.8 21.5 35.3l1.1-7.3s-9.6-13.1-14.8-35.1L124.6 75zm-9.4 23.8l8.5-5.5-8.5 5.5zm11.2 31.1l12 4.2 6.1-5.2-11.7-4.9 3-3-1-2-7.3 3zm37.6-2.4s20.2-27.6-1.8-51.3l-2.1 14.5-5.1 31.7 9 5.1zm-2.9-29.7l11.2 1.8"/><path stroke="#000" stroke-width="4" stroke-miterlimit="10" d="M151.3 117.4v2.6l3.7 2.4-9 1.9 3.9 6.8 14.1-3.6v-5.4z"/><path stroke="#000" stroke-width="4" stroke-miterlimit="10" d="M124 117.2c-.1 7.6-.3 24-.3 24s14.8 10.5 36.4 2c0 0 .3-13.7.4-22.2l-36.5-3.8z"/><path stroke="#000" stroke-width="4" stroke-miterlimit="10" d="M124.8 141.8l10 117.9h5.7s9.2-77.2 5.5-113.8"/><path stroke="#000" stroke-width="4" stroke-miterlimit="10" d="M160.1 140.2s.1 93.3-10.7 115.8h-4.9s1.7-108.9 1.5-110.1l14.1-5.7zm-25.7 120.2l9.1 13.9 10.5-4.6-13.5-10z"/><path stroke="#000" stroke-width="4" stroke-miterlimit="10" d="M144.5 256v4l15.7 6.1 7.7-7.5-18.5-2.6M112.1 86.6L124.6 75l.1 18.3-9.5 5.5z"/></svg>