<svg version="1" xmlns="http://www.w3.org/2000/svg" width="288" height="288"><g fill="#26A9E0"><path d="M147.2 20.1s-18.4 24.3-3.2 45.3c0 0-16-5.8-12.8-22.6 3.3-16.9 9.4-22.3 16-22.7zM124 85.6l-10.1 7.7 1.8 5.5 8.3-5.5zm1 34.3c.5 1.1 1 2 2.2 2.3.3.1.6.2.9.2.3-.2.5-.4.8-.5.7-.4 1.6-.5 2.4-.4l1.6-50-8.4 3.3-.5 43.4c.4.6.8 1.1 1 1.7zm5.8 18.3l.2-7.6c-.7.1-1.5 0-2.3-.4-1.6-.9-3.3-.9-4.9-1.4l-.2 12.5c11 5.7 24.8 4 24.8 4-7.8-1.1-17.6-7.1-17.6-7.1z"/><path d="M131.2 144l6.3 116 11 12.1s-5.8 4.6-5.4 3.4c.4-1.2-8.7-15.1-8.7-15.1l-.6-17.4-9.1-101.3 6.5 2.3z"/></g><g fill="none" stroke="#000" stroke-width="2" stroke-miterlimit="10"><ellipse transform="rotate(-83.933 147.628 42.821)" cx="147.6" cy="42.8" rx="22.9" ry="16.3"/><path d="M138.5 20.1s7.8 4.3 22.1 3.4m-25-.3s13.2 7.1 27.9 3.7m-29.9-.2s16.3 10.2 31.1 3.6m-23.6 34.1l-.8 6.2 10.2 1 1.4-7.2"/><path d="M160.5 121c.3-16.5.9-37.8 1.7-47.4 0 0-26.2-7.3-37.7 1.3 0 0-.3 23.4-.5 42.3"/><path d="M124.6 75l-20.3 18.7s.5 23.8 21.5 35.3l1.1-7.3s-9.6-13.1-14.8-35.1m3.1 12.2l8.5-5.5m2.7 36.6l12 4.2 6.1-5.2-11.7-4.9 3-3-1-2-7.3 3zm37.6-2.4s20.2-27.6-1.8-51.3m-1.1 21.6l11.2 1.8"/><path d="M151.3 117.4v2.6l3.7 2.4-9 1.9 3.9 6.8 14.1-3.6v-5.4z"/><path d="M123.9 128.4c-.1 7.6-.2 12.8-.2 12.8s14.3 8 36.4 2c0 0 .1-5.9.2-14.4"/><path d="M124.8 141.8l10 117.9h5.7s9.2-77.2 5.5-113.8"/><path d="M160.1 140.2s.1 93.3-10.7 115.8h-4.9s2.3-73.2 2.1-74.4m-12.2 78.8l9.1 13.9 10.5-4.6-13.5-10z"/><path d="M144.5 256v4l15.7 6.1 7.7-7.5-18.5-2.6"/></g></svg>