<svg version="1" xmlns="http://www.w3.org/2000/svg" width="288" height="288"><g fill="#26A9E0"><path d="M154.8 13.6s-18 4-18.6 24c-.6 14.8 6.6 19.9 10.2 21.6 1.3.6 2.1.7 2.1.7s-18.2-26.9 6.3-46.3zm-14.6 241.5c2.4-33-.8-114-.8-114 7.8 5.8 23.7-.8 23.7-.8-10.8 3.8-27.2-5.7-27.2-5.7l-2.3-3.6c-2.7-.2-5.3 2.7-8 1.7l3.3 4.1 1.2 9.3 8.5 110.1 7.4 17.2 12-5-17.8-13.3zm-12.5-145c1 .5-.3 3.7 0 5 0 0 .3 1.7.4 2 .1 0 1.5.4 1.6.5.3.2-.3 2 0 2.1.9.7-5.3.7-4.2 1.3.4.3 6.4 7.2 6.9 7.4 3.4-26.1 3.6-63.9 3.6-63.9l-7.1-.5.4 33.7-1.6 12.4z"/><path d="M128.9 74.4l-19.8 11.3 2 4.5 18.1-9.6z"/></g><g fill="none" stroke="#000" stroke-width="2" stroke-miterlimit="10"><ellipse transform="rotate(-75.149 152.866 36.754)" cx="152.9" cy="36.8" rx="23.2" ry="16.5"/><path d="M147.1 12.6s7.1 5.5 21.5 6.8m-24.7-4.1s12.1 9.1 27.3 7.9m-29.8-4.7s14.8 12.7 30.6 8.4M141.5 56l-.3 8.4 10.1 1.6 1.1-7.1"/><path d="M127.7 117.2c.8-12 1.9-35.2 1.3-53.7 0 0 21.2.7 41.3 7 0 0 7.8 11.8-3.7 53.1"/><path d="M129 63.5l-31.1 21s1.1 23.3 20.1 38l3.9-4.8S112 100 111.2 90.2l18.2-9.7m-19.9-3.8s-.5 7.1 1.5 13.6"/><path d="M121.4 117.5h8.3v2.1l-4.2 1.3 8.1 10-8 1.8-7.8-10.2m50.6 6.9s29.4-25.9 2.7-57.9m1.6 28.2l9.3 4.2m-26.4 15.2v2.6l3.8 2.5-9.1 1.9 3.9 6.9 14.2-3.6v-5.5z"/><path d="M164.3 131.2c-.9 3.1-2 6.2-3.1 9.5 0 0-9.1 10.5-35.5-6l-.1-2"/><path d="M129.4 136.9l9.2 119.3h5.8s9.2-75 5.4-112.1"/><path d="M163.1 135.3s1.1 94.3-9.8 117.1h-4.9s2.4-74.1 2.2-75.3m-12.4 79.7l9.2 14.1 10.6-4.7-13.7-10z"/><path d="M148.4 252.4v4.1l15.8 6.1 7.8-7.5-18.7-2.7"/></g></svg>