<svg version="1" xmlns="http://www.w3.org/2000/svg" width="288" height="288"><ellipse transform="rotate(-7.607 130.402 36.796)" stroke="#000" stroke-width="4" stroke-miterlimit="10" cx="130.4" cy="36.8" rx="16.5" ry="23.2"/><path stroke="#000" stroke-width="4" stroke-miterlimit="10" d="M115.9 16.7s8.7 2.4 22.5-1.9m-24.5 5.6s14.7 3.8 28.3-3.1m-29.4 7s18.5 6.1 31.5-3.9m-17.1 38.5l2.6 7 10.3-1.5-1.7-6.9"/><path stroke="#000" stroke-width="4" stroke-miterlimit="10" d="M124.5 113.7c-2.7-11.7-6.8-27-12.8-44.5 0 0 20.5-5.5 41.6-5.3 0 0 10.9 9 11.9 51.9"/><path stroke="#000" stroke-width="4" stroke-miterlimit="10" d="M111.7 69.2l-17.9 32.1s12.8 19.5 36.6 22.5l.9-6.1s-17.5-10.2-23.2-18.2l8.5-15.2m-16.2 5.2s2.7 5.5 7.7 10.1"/><path stroke="#000" stroke-width="4" stroke-miterlimit="10" d="M131.2 117.7l7.3-3.9 1 1.9-3.1 3.1 11.9 5-6.2 5.3-11.7-5.3m37.5-1.4s21.3-32.9-13-56.5l4.5 47.8 8.5 8.7zM164 92.6l10.1 1.5"/><path stroke="#000" stroke-width="4" stroke-miterlimit="10" d="M155.1 112.1v2.6l3.8 2.5-9.1 1.9 3.9 6.9 14.2-3.6v-5.5z"/><path stroke="#000" stroke-width="4" stroke-miterlimit="10" d="M165.2 123.7c0 3.2-.1 6.5-.2 10 0 0-5.7 12.7-35.7 4.6 0 0-.7-5.6-2.8-15.5l-2-9.1 40.7 2.1v7.9z"/><path stroke="#000" stroke-width="4" stroke-miterlimit="10" d="M129.3 138.3l9.2 117.8h5.8s9.3-78 5.5-115.1"/><path stroke="#000" stroke-width="4" stroke-miterlimit="10" d="M164 135.2s.1 94.3-10.8 117.1h-4.9s1.7-110.1 1.5-111.3l14.2-5.8zm-25.9 121.5l9.2 14.1 10.6-4.7-13.7-10zm10.2-4.4v4.1l15.8 6.1 7.8-7.5-18.7-2.7"/></svg>