<svg version="1" xmlns="http://www.w3.org/2000/svg" width="288" height="288"><g fill="#27AAE1"><path d="M107.9 89.7l-41.2 51.6-.9 15.8 45.6-47.5-1.8-19.1zm114.6-38s12.2 23.4-1.5 36.2c0 0 13.2-2.5 12.1-20.9-.7-12.4-10.6-15.3-10.6-15.3zM231 94l-3.1 50.6-14.1 3.7 14 1 .8 89.1 5.9 14.5 12.4-2.8-15.1-12.4 1.6-89.5 2.6-27.8s8.2 15.2 8.9 36.5l-2.3 7.2s1.3 1.9 1.8 1.3c.5-.7 3.6-7.9 3.6-7.9s-1.2-28-11.9-46.9l1.1-15.8-6.2-.8z"/><path d="M217 149.6l-1.7 87.4-17.3 8 15.8 6.2L218 237l3-87.4z"/></g><g fill="none" stroke="#000" stroke-width="2" stroke-miterlimit="10"><path d="M94.2 79.4h-8.8c-6.6 0-12-5.4-12-12V43.6c0-6.6 5.4-12 12-12h8.8c6.6 0 12 5.4 12 12v23.8c0 6.6-5.4 12-12 12z"/><path d="M73.5 58.7s8.9.7 13-.7c4.1-1.3 4.4-.7 8.5.7s11.3.2 11.3.2m-32.8-7.2s-7.9 4.1 0 9.6m32.7-9.6s7.6 6.3 0 9.6"/><path d="M75.7 88.6c-10-.6-22.1-6.4-22.1-6.4 3.1-6.9 5.8-29.2 5.8-29.2 1.5-39 29.9-30.7 29.9-30.7s28.4-8.5 24.5 29.5c0 0 3.1 26.4 11.3 31.3 0 0-16.5 6.5-23.2 5"/><path d="M85.9 79.4l-.7 7.1h9.9l-1-7.1m15.5 10.7c-16.8-6.6-41.1 0-41.1 0s-2 103.1-9.9 125.6c0 0 32.2 22.2 62.6 0L109.6 90.1z"/><path d="M68.5 90.1s-21.6 36.3-35.6 50.4l6.6 31.8s25.3-40.1 28-52.4"/><path d="M32.9 143.8L22 150l-7.6 13.9 11.8-1 9-11.4m-3.2 4.1l.9 5.8h2.3l.8-5.8m73.6-64.3s13.7 30.9 25.1 26.1c11.4-4.8 21.5-9.3 21.5-9.3v35.6s-36.1 3.2-44-28.1"/><path d="M156.2 109.9l7.2-7 2.2 2.1-1.6 4.9h17l-5 5-19.8 1.8m-50-27.7l-39.5 47.7m44.7-28.6l-46.1 49.4m11.3 66.3c.5 6.3 1.1 13.1 1.1 13.1h4.2s1-6.5 2-12.2m12.2.6c.6 5.6 1.3 11.6 1.3 11.6h5.3s.4-7 .7-13.2M77.6 237L57 247.7l20.6 2.9 4.2-13.6m15.6 0l.9 14.9 19-4.2-14.6-10.7M233.2 69.8c0 10-5.4 18.1-12.1 18.1-1.2 0-2.3-.2-3.3-.7-5.1-2.2-8.8-9.1-8.8-17.4 0-10 5.4-18.1 12.1-18.1 6.6 0 12.1 8.1 12.1 18.1zm-22-15.2s10.7 2.1 17.1 0m-19.4 2.8s12.6 2.9 21 0m-21 2.6s7 5.8 22.5.5m-13.9 33.2l.2-6.5m6.7 0v6.4m-19.5 1.2s17.8-2.7 32.2 0l-3.9 54.9-24.3-1.3-4-53.6zm0 0s-6.1 41.4-20 48.9l2.4 4.8s13.7-4.8 19.8-23.9m-10.3 1.6l5.4 7.2M184 143.7l-9.7 4.8-3.7 10.7s3.8 2.2 4.2 2.2 7.5-9.5 7.5-9.5l1.6 4.5 3.1-.6.2-7.3"/><path d="M237.1 94.8s13.8 25.5 13.6 62.8h-5.9s-1.4-23.5-9.5-38"/><path d="M244.8 157.5l-2.7 6.4 2.7 1.9 1.8-2.2 2.2 9.1 4 2.8-1.5-18m-11.4-26.8l6.7-9m-37.7 26.6l3.2 88.7h5.9l3-87.4 4.5 88.9 5.9-.3 1.8-88.6"/><path d="M212.1 237l-15.3 5.7 14 5L218 237m7.5 1.5l4.8 13.4 13-3.1-11.9-10.6"/></g></svg>