<svg version="1" xmlns="http://www.w3.org/2000/svg" width="288" height="288"><g fill="#27AAE1"><path d="M119.8 132.6c-.2-.2-.5-.4-.7-.7-.6-.3-1.1-.8-1.7-1.3-.2-.2-.4-.5-.5-.8-1.6-1.5-3.3-2.8-5-4.1-4.9 5.7-10.2 11.2-15.7 16l-2.8 18.4 27.4-26.7c-.4-.3-.7-.5-1-.8zm20.9-47.8s-5.9 10.5-15.2 23.5c3 .9 6.1 3.3 7.9 5.5.3.4.6.8.8 1.2l7.4-10.1.6-20.1h-1.5zm34-28.9s-12 23.4 3.1 41c0 0-12.3-6.6-11.3-22.4 1-15.8 8.2-18.6 8.2-18.6zM155.5 123c.3 0 .5.1.8.1.8-1.8 1.6-3.4 2.7-4.5l-.8-13s-3.5 6.7-6.2 17.4c1.1-.1 2.3-.1 3.5 0zm-3.2 26.3c-.6.2-1.4.2-2.3-.1-.4-.2-.7-.4-1-.6 0 2.6.2 5.3.5 8.1l2.7.6c.1 0 0-3.3.1-8z"/><path d="M161 122.8l-.1 6.2c1-.7 2-1.1 3.1-1.3l-2-41-3.9 1.6.8 34.1 2.1.4zm4.2 28.6l-.8-15.6c-.8 0-1.7-.1-2.6-.2-.4-.1-.7-.2-1-.4l-.2 16-1.7.1v2.7l2.4.6 5.1 79.8L149 252l17.8 2.2 3.2-19.7 2.1-78.4 19.5-.3-26.4-4.4z"/><path d="M185.4 156.1l7.1 78.4 18 15.1L191 252l-1.6-17.5-9.5-78.4z"/></g><g fill="none" stroke="#000" stroke-width="2" stroke-miterlimit="10"><path d="M129.6 76.5l-6.5-.9c-6.5-1-11.1-7.1-10.1-13.6l3.2-21.9c1-6.5 7.1-11.1 13.6-10.1l6.5.9c6.5 1 11.1 7.1 10.1 13.6l-3.2 21.9c-.9 6.5-7.1 11.1-13.6 10.1z"/><path d="M114.1 54.8s8.2 2.5 15.1 2.2c6.9-.3 10.2 2.6 14.4 3.7m-28.7-11.4s-5.6 2.4-1 7.1"/><path d="M116.4 80c-3.8.1-17.8-6.7-17.8-6.7s.9-1.5 7.9-28.8c7-27.4 27.6-18.8 27.6-18.8s13.4-1.1 15.8 12.7c2.4 13.7-1.3 40-1.3 40s-10.9 3.4-14.6 3.4"/><path d="M121.8 75.2l-1.4 5.4 11.5 1.4 1-5.2"/><path d="M140.4 145.3c-.4 31 0 64.1 3.4 73 0 0-30.5 7.1-58.7-4.5l20.4-133.2s20.4-1.8 36.6 4.2c0 0-.6 14.2-1.2 33.3"/><path d="M111.8 85.8s16 38.4 49.6 36.9v28.7s-53.7-7.3-56.1-46.2m56.1 22.4l10.4-3.9 13.6 3.9v9.7h-14.5l-9.5-1.4m-24.5-52.3s-5.4 9-13.3 20.4m-13.3 18c-4.4 5.5-9 10.8-13.5 15.3m38.9-22.8c2.5-3.8 4.5-7.5 5.8-10.9m-48.2 56.5s14.2-12.2 27.4-26.7m-17.3 85.5l1.4 17.6h6l3.6-16.3m10.5.2l1.7 15.4h6.3l1.3-16m-23.4 16.7l14.9 15.5-16.8 1.3-4.1-16.8m21.8-.7l7.6 13.8 15.4-5.7-16.7-8.1"/><ellipse cx="179.9" cy="75.7" rx="13.4" ry="21.4"/><path d="M170 55.9s11.6 6 19.1 2.3M168 60.1s13.2 7.7 23.7 2.5m-25.2 1.5s14.4 6.6 26.7 2.7m-28 1.5s17.7 7.1 29.4 1.4M159 123V88.3s3.3-2.2 9-3.5M198.3 98v57.4s-26.2 2.4-39.4-1.2v-2.9"/><path d="M201 95.2c3.7 12 9.5 36.8 8.2 61l-5.4 1.2s2.2-19.2-5.6-36"/><path d="M203.9 157.3l-2.4 8.2 2.4 2.5v10.9l8.3-5.3-2.9-17.5m-9-29.9c-.1-.3 6.6-5.7 6.6-5.7m-57.8 1c1.8-10.9 4.2-20.2 6.1-26.3 0 0 2-5.8 3.8-6.8m0 30.2c-.6 1.2-1.1 2.5-1.6 3.8m-5.1 26.9c-.2 4.9-.1 8-.1 8l-5.4-1.2c-.2-2.9-.2-5.9-.2-8.8"/><path d="M152.3 157.3l2.4 8.2-2.4 2.5v10.9l-8.3-5.3 2.9-17.5m14.5-1.4l5.1 79.8h6.9l5.2-78.4m1.3 0l9.5 78.4h5.8l3.1-79.2m-31.8 79.2l-16.9 14.1L170 252l3.4-17.5m16 0l3.9 18.8 18.9-5.4-17-13.4M141.5 97.9l10.6 5.7m-10-18.8c1-.3 25.3-1.1 25.3-1.1m25.8-.1c.7 0 9.2 1.1 9.2 1.1s-1.5 13.1-1.9 13.1c-.5 0-6.6-.7-6.6-.7l-3.6-8.8m4.3 8.9v-7.5m3.7 8.3v-8.3"/></g></svg>