<svg version="1" xmlns="http://www.w3.org/2000/svg" width="288" height="288"><ellipse fill="none" stroke="#000" stroke-width="2" stroke-miterlimit="10" cx="138.7" cy="52.5" rx="15.6" ry="21.6"/><path fill="none" stroke="#000" stroke-width="2" stroke-miterlimit="10" d="M133.8 73.2l1.1 7h8.2v-7"/><path fill="none" stroke="#000" stroke-width="2" stroke-miterlimit="10" d="M114.5 89.2c-.2-4.2-.4-6.7-.4-6.7s26.1-5.4 46.1 0c0 0-.2 2.9-.5 7.6M133.8 98l-32.1-14s1.9 12.4 3.7 24.5m28.4 16.6V97.5h7.9v28.1"/><path fill="none" stroke="#000" stroke-width="2" stroke-miterlimit="10" d="M141.4 98l32.2-14-7.1 46.7-25.1 6.2m-27.3-54.4s-1.4 2.2-3.4 5.7"/><path fill="none" stroke="#000" stroke-width="2" stroke-miterlimit="10" d="M104.1 101.1c-1.6 3.7-3 7.6-3.9 11.2 0 0 7 24.9 46.6 18.6v-5.1s-24.9 2.8-42.6-18.6m42.6 18.6l5.3-7.7 2.1 2.4-1.2 4.1 10.8-4.8-2 9.7-15 1.4"/><path fill="none" stroke="#000" stroke-width="2" stroke-miterlimit="10" d="M107.5 122.5c.7 4.9 1.2 8.2 1.2 8.2l25.1 6.2"/><path fill="none" stroke="#000" stroke-width="2" stroke-miterlimit="10" d="M141.7 131.8v5.1h-7.9v-5m26.4-49.1s20.4-16.1 12.8-45.2l5.1-1.3s9.4 28.5-5.2 51.9m4.4-56l.8 4.1m-5.2 1s-5.6-7-5.6-7.4v-5.4l1-3-.8-10.4h2.8l3.2 9.4 5.9 2.8-2 8.4-4.8-.5-1.3-7.1"/><path fill="none" stroke="#000" stroke-width="2" stroke-miterlimit="10" d="M157 133.5c-.7 11.9-1.3 21.2-1.3 21.2s-24.2 3-37.5 0c0 0-.5-9.7-1.2-22.1"/><path fill="none" stroke="#000" stroke-width="2" stroke-miterlimit="10" d="M118.2 154.7l-1.7 106h5.2l14-104.7m2.1 0l11.6 104.7h5.9l-1.1-105.8m-37.7 105.8l-20 12.1 20 1.7 5.2-13.8m27.7 0l5.9 16.2 18.8-2.4-18.8-13.8"/></svg>