<svg version="1" xmlns="http://www.w3.org/2000/svg" width="432" height="432"><path fill="none" stroke="#000" stroke-width="2" stroke-miterlimit="10" d="M49 93v28.5l318.5 3.5V90.5z"/><path fill="none" stroke="#000" stroke-width="2" stroke-miterlimit="10" d="M52.5 121.5L49 341s26.5-4 62-3 156 1.5 188-14 60-32 84.5-56.5c0 0-20-81.5-19.5-142.5"/><path fill="none" stroke="#000" stroke-width="2" stroke-miterlimit="10" d="M383.5 267.5s-24-35-73.5-43.5c0 0 4.6 83.9-53.4 109.4m116.7-56.3s-1.6 43.7 2.7 53.7L267.3 332M52.1 168.5h314.2m-314.2 32h318.2m-319.6 32H310m28.5 0h38m-326.8 32h256.5m-256.7 32h245.8m-197.8-128v169.4m45.4-169.4v169.4m50.5-169.4v169.4m41.3-169.4v166.3m98-166.3s-3.3 39 4.5 64m-52.9-64s-3.4 81.2 3.6 139.4"/></svg>