<svg version="1" xmlns="http://www.w3.org/2000/svg" width="432" height="432"><path fill="none" stroke="#000" stroke-width="2" stroke-miterlimit="10" d="M49 93v28.5l318.5 3.5V90.5z"/><path fill="none" stroke="#000" stroke-width="2" stroke-miterlimit="10" d="M52.5 121.5L49 341s26.5-4 62-3 156 1.5 188-14 60-32 84.5-56.5c0 0-20-81.5-19.5-142.5"/><path fill="none" stroke="#000" stroke-width="2" stroke-miterlimit="10" d="M383.5 267.5s-24-35-73.5-43.5c0 0 4.6 83.9-53.4 109.4m116.7-56.3s-1.6 43.7 2.7 53.7L267.3 332M52.1 168.5h314.2m-314.2 32h318.2m-319.6 32H310m28.5 0h38m-326.8 32h256.5m-256.7 32h245.8m-197.8-128v169.4m45.4-169.4v169.4m50.5-169.4v169.4m41.3-169.4v166.3m98-166.3s-3.3 39 4.5 64m-52.9-64s-3.4 81.2 3.6 139.4"/><path d="M62.5 133.9h6.9l4.7 13.4h.1l4.8-13.4h6.8v20.6h-4.5v-15.8h-.1l-5.4 15.8h-3.5L67 138.7v15.8h-4.5v-20.6zm34.2 0h3.8l9 20.6h-5.1l-1.8-4.4h-8l-1.7 4.4h-5l8.8-20.6zm1.7 6l-2.5 6.4h5l-2.5-6.4zm13.1-6h8c1 0 2 .1 3 .3.9.2 1.8.5 2.5 1s1.3 1.1 1.7 1.9c.4.8.6 1.8.6 3 0 1.5-.4 2.7-1.1 3.7-.8 1-1.9 1.7-3.3 1.9l5.2 8.7h-5.4l-4.3-8.2H116v8.2h-4.5v-20.5zm4.5 8.5h4c.5 0 .9-.1 1.2-.3.4-.1.7-.4.9-.7.2-.3.4-.7.4-1.3 0-.5-.1-.9-.3-1.3-.2-.3-.5-.5-.8-.7-.3-.2-.7-.3-1.1-.3-.4-.1-.8-.1-1.3-.1h-3v4.7zm27.8-3.2c-.4-.5-1-1-1.6-1.3-.7-.3-1.4-.4-2.3-.4-.9 0-1.6.2-2.4.5-.7.3-1.4.8-1.9 1.4-.5.6-.9 1.3-1.3 2.1-.3.8-.5 1.7-.5 2.6 0 1 .2 1.9.5 2.7s.7 1.5 1.2 2.1c.5.6 1.1 1.1 1.8 1.4.7.3 1.5.5 2.3.5.9 0 1.8-.2 2.5-.6.7-.4 1.3-.9 1.8-1.6l3.8 2.8c-.9 1.2-2 2.1-3.3 2.7-1.3.6-2.7.9-4.1.9-1.6 0-3.1-.3-4.5-.8s-2.5-1.2-3.5-2.2c-1-.9-1.8-2.1-2.3-3.4-.6-1.3-.8-2.8-.8-4.5 0-1.6.3-3.1.8-4.5.6-1.3 1.3-2.5 2.3-3.4 1-.9 2.2-1.7 3.5-2.2 1.4-.5 2.8-.8 4.5-.8.6 0 1.2.1 1.8.2.6.1 1.3.3 1.9.5.6.2 1.2.5 1.8.9.6.4 1.1.9 1.5 1.4l-3.5 3zm6.5-5.3h4.5v7.7h8.8v-7.7h4.5v20.6h-4.5v-8.9h-8.8v8.9h-4.5v-20.6z"/></svg>