<svg version="1" xmlns="http://www.w3.org/2000/svg" width="504" height="504"><g fill="#27AAE1"><path d="M196.4 43.6s-15.6 24.9.7 44.5c0 0-13.5-1-13.9-21-.5-19.9 13.2-23.5 13.2-23.5zm-11.6 49.8l3.6 70.5 20.2 3.8h-18.5l-4.2 123.9-7.1 16-13.3-6.1 17.4-9.9-1.2-123.9-3.8-74.3z"/><path d="M202.6 167.7l3.3 123.9 20 10.4-11.7 5.6-11.6-16-6.2-123.9zm-24.3-66l-9.4 28.3.7 43.8h2.8l1.9-41.9 4.8-14zm140.4 3.5c-3.1 2.5-40.4 46.6-40.4 46.6s-1.5 16.1 0 14.9 50.3-59.2 50.3-59.2l-9.9-2.3z"/></g><g fill="none" stroke="#000" stroke-width="2" stroke-miterlimit="10"><ellipse cx="197.1" cy="65.9" rx="14" ry="22.3"/><path d="M206.3 45.6s-11.1 2.1-17 0m18.7 2.9c-1 .6-11.7 3.1-21 .5m22.1 2.8s-11.5 4.9-23.2.6M201.6 87v6.4H193v-6.2m22.4 6.2h-37.5l3.8 74.3h29.4zm-37.5 0L163.6 128l3.2 45.9h5.7l1.8-42 4.8-14"/><path d="M172.4 173.8l4.1 7.2-3.1 1.8-3.3-3.5-.8 15-6.6-6.2 4-14.3m7.6-41.9l-10.7-3.9m51.7-34.6l14.3 34.6-3.2 45.9h-5.8l-1.7-42-4.9-14"/><path d="M220.7 173.8l-4.1 7.2 3.2 1.8 3.2-3.5.9 15 6.5-6.2-4-14.3m-7.5-41.9l10.7-3.9m-18.5 39.7l-2.5 123.9h-6l-6.2-123.9-6.8 123.9h-7l-.9-123.9m26.9 123.9l18.2 7.8-11.5 5.7-12.7-13.5m-13 0l-9.8 13.5-11.8-5.8 14.6-7.7M307.9 93.9h-12.4c-5.9 0-10.8-4.9-10.8-10.8V58.2c0-5.9 4.9-10.8 10.8-10.8h12.4c5.9 0 10.8 4.9 10.8 10.8v24.9c0 6-4.9 10.8-10.8 10.8z"/><path d="M284.6 69.9s6.8 3.1 10.7 1.8c3.9-1.4 8-1.9 13.8 0 5.8 1.9 9.6-2.2 9.6-2.2"/><path d="M273.7 101c3.2-10.5 2.7-41.5 4.9-53.2 2.5-13.4 23.2-9.5 23.2-9.5s18.2-3.7 22.3 5.6c4.1 9.3.8 51.3 10.3 60.5 0 0-3.3 1-5.8 1.7m-44-39.8s-7.9 3.1 0 9.3m34.7-9.3s7.9 3.1 0 9.3"/><path d="M296.7 94.4c-.7-.6-.1 7.6-.1 7.6l11.8.3v-8c.1.1-8.9 2.3-11.7.1z"/><path d="M279.7 103.2s32.3-3.5 49.4 3.1c0 0-10.5 105.6 12.8 161.4 0 0-52.1 16.5-82.1-12.6 0 0 18.3-86.3 18.3-97.2s1.6-54.7 1.6-54.7z"/><path d="M313.5 103.5l-35.4 44.1-.7 17.2 50.6-57.4zm-69.7-39l-13.6 13 27.9 45 20-4.9 1.6-14.4-13-4.8-2.9-33.9-9.5-3.5"/><path d="M246.5 52.6l-5.4-8.7 6.4-25.9h2.3v14.8s4.5 4.9 5.1 4.5 3.3-1.9 3.3-1.9l1.7 4.3-7.8 13 4.1 15.4-5.7 7.5-7.3-3.8 3.3-19.2z"/><path d="M243.1 35.3l8.6 3.9 1.1 5.1m-10.9-4.1l5.5 2.9 1 4.3m109.1 117.4l-23.2 14.4-6.7-51.5 2.1-19.1zm-14.4 9.9l5.7 9.8 10.2 4.4 3.8-2.3-12.2-17.2"/><path d="M343.1 174.7l-1.9 7.5 1.6 3.9h1.6l2.5-5.5m-60.8 89.8l3.3 15h2l3.3-13.8m24.9 1.2l-3.3 14.9h-2l-3.7-15.3m-21.3 13l-25.9 3.3 10.1 10.5 19.3-10.5zm27.1 2.3l25.9 3.3-10.1 10.5-19.3-10.5z"/><ellipse cx="253" cy="359" rx="18.3" ry="27.1"/><path d="M226.9 394.1s24.9-16 49.5 0l7.2 71.2s-42.3 15.8-63.2 0l6.5-71.2z"/><path d="M223.1 467.1l7.3 15.5s16.2 5.1 40.2 0l7.4-15.5m-51.2-71.8l-22.6 67-20.4 4.9s2.1 5.8 2.7 5.2c.6-.6 18.8-1.9 18.8-1.9l6.1 3.2 4-3-3.2-6.7 11.3-33.2m53-35.9l23.2 67.3 20.4 4.9s-2.1 5.8-2.7 5.2-18.8-1.9-18.8-1.9l-6.1 3.2-4-3 3.2-6.7-11.4-32.2"/><ellipse transform="rotate(-79.181 348.819 330.987)" cx="348.8" cy="331" rx="23.8" ry="16"/><path d="M360.7 344.4l3.6 5.9m-12.4 63l-16 5.8-8-4 15.2-56.3 27.2-10.7s14 18.5 23.2 75.8c0 0-24.5 9.7-40.7 5.7l-3.2-52.2m.6 10.4c0 .7-5.3 20.5-12.9 30.8"/><path d="M327.9 415.1l-19.7 6.5v15.2s20 15.8 32.3 16c12.3.2 42.5-3.7 45.8-9.7 3.3-6 5.7-18.7 5.7-18.7m-39.4 3.2s-13.7-5.5-32.4-6.5M467 158.9l-7.6 99.9h7.6l14.3-99.9z"/><path d="M470.3 258.8l-70-1.9 1.2 16.7 68.8-3.3zm-62.1 14.5l4.9 58.8h4.6v-58.5m49.3-3.1v60.7h-7.6l-3.1-60.2m-38.6 27h40m-40 7.3l40.3-1.2"/><ellipse transform="rotate(-88.297 443.95 153.148) scale(1.00004)" cx="444" cy="153.1" rx="24.3" ry="16.4"/><path d="M436.4 245.2c-3.5.4-6 .7-6 .7s8.5-22.1 7.2-59.7c0 0 19.1-7.5 20-7.2s6.6 23.3 2.9 63.4c0 0-8.3 1-16.2 1.9"/><path d="M445.3 192.4l-10 60-15.5 1.5s-.4 1.5-.8 3.2m21.5 1.7L453 206"/><path d="M430.4 245.8l-39.9.8 8.3 69.6h5.5l1.2-42.6"/><path d="M398.8 316.2c-2.4.4-24.1 9.5-24.1 9.5l15.8 6.4 13.8-15.9"/><path d="M398.3 312l-27 1.8 9.2 9.5m62.7-145.9l.2 6.6m7.1-8.8l1.1 5"/><ellipse transform="rotate(-10.819 153.749 331.082)" cx="153.8" cy="331.1" rx="16" ry="23.8"/><path d="M141.9 344.5l-3.6 5.9m12.3 63l16 5.8 8-4-15.2-56.3-27.2-10.7s-14 18.5-23.2 75.8c0 0 24.5 9.7 40.7 5.7l3.2-52.2m-.5 10.4c0 .7 5.3 20.5 12.9 30.8"/><path d="M174.6 415.2l19.7 6.5v15.2s-20 15.8-32.3 16c-12.3.2-42.5-3.7-45.8-9.7-3.3-6-5.7-18.7-5.7-18.7m39.4 3.3s13.7-5.5 32.4-6.5"/><ellipse transform="rotate(-1.7 59.39 146.03) scale(1.00004)" cx="59.4" cy="146" rx="16.4" ry="24.3"/><path d="M52.9 168.1l-1.2 5m8.4-2.8l-.2 6.5m7 61.2c3.5.4 6 .7 6 .7s-8.5-22.1-7.2-59.7c0 0-19.1-7.5-20-7.2-.9.3-6.6 23.3-2.9 63.4 0 0 8.3 1 16.2 1.9"/><path d="M58.1 185.2l10 60 15.5 1.5s.4 1.5.8 3.2m-21.6 1.8l-12.4-52.8"/><path d="M72.9 238.7l40 .8-8.4 69.6h-5.4l-1.3-42.6m6.7 42.6c2.4.4 24.1 9.5 24.1 9.5l-15.8 6.4L99 309.1"/><path d="M105 304.9l27 1.8-9.1 9.5M36.4 151.8l7.6 99.9h-7.6l-14.3-99.9z"/><path d="M33 251.7l70-1.9-1.2 16.7-68.8-3.3zm62.1 14.5L90.2 325h-4.5v-58.5"/><path d="M36.4 263.3v60.8H44l3-60.2m38.7 27H45.6m40.1 7.3L45.3 297"/></g></svg>