<svg version="1" xmlns="http://www.w3.org/2000/svg" width="504" height="504"><path fill="#27AAE1" d="M274.2 197.4c-3.1 2.5-40.4 46.6-40.4 46.6s-1.5 16.1 0 14.9 50.3-59.2 50.3-59.2l-9.9-2.3z"/><g fill="none" stroke="#000" stroke-width="2" stroke-miterlimit="10"><path d="M263.4 186.2H251c-5.9 0-10.8-4.9-10.8-10.8v-24.9c0-5.9 4.9-10.8 10.8-10.8h12.4c5.9 0 10.8 4.9 10.8 10.8v24.9c0 6-4.9 10.8-10.8 10.8z"/><path d="M240.1 162.2s6.8 3.1 10.7 1.8c3.9-1.4 8-1.9 13.8 0 5.8 1.9 9.6-2.2 9.6-2.2"/><path d="M229.2 193.2c3.2-10.5 2.7-41.5 4.9-53.2 2.5-13.4 23.2-9.5 23.2-9.5s18.2-3.7 22.3 5.6c4.1 9.3.8 51.3 10.3 60.5 0 0-3.3 1-5.8 1.7m-44-39.7s-7.9 3.1 0 9.3m34.7-9.3s7.9 3.1 0 9.3"/><path d="M252.2 186.7c-.7-.6-.1 7.6-.1 7.6l11.8.3v-8c.1.1-8.9 2.3-11.7.1z"/><path d="M235.2 195.4s32.3-3.5 49.4 3.1c0 0-10.5 105.6 12.8 161.4 0 0-52.1 16.5-82.1-12.6 0 0 18.3-86.3 18.3-97.2 0-10.9 1.6-54.7 1.6-54.7z"/><path d="M269 195.8l-35.4 44.1-.7 17.2 50.6-57.4zm-69.7-39l-13.6 13 27.9 45 20-4.9 1.6-14.5-13-4.7-2.9-33.9-9.5-3.6"/><path d="M202 144.9l-5.4-8.7 6.4-25.9h2.3v14.8s4.5 4.9 5.1 4.5c.6-.4 3.3-1.9 3.3-1.9l1.7 4.3-7.8 13 4.1 15.4-5.7 7.5-7.3-3.8 3.3-19.2z"/><path d="M198.6 127.6l8.6 3.8 1.1 5.2m-10.9-4.2l5.5 3 1 4.3M313 257.1l-23.2 14.4-6.7-51.6 2.1-19zm-14.4 9.9l5.7 9.8 10.2 4.3 3.8-2.2-12.2-17.3"/><path d="M298.6 267l-1.9 7.5 1.6 3.9h1.6l2.5-5.5m-60.8 89.7l3.3 15h2l3.3-13.7m24.9 1.1l-3.3 15h-2l-3.7-15.4m-21.3 13l-25.9 3.4 10.1 10.5 19.3-10.5zm27.1 2.4l25.9 3.2-10.1 10.6-19.3-10.6z"/></g><path fill="none" d="M264.2 196.2l34.1.9c-14.6 1.4-29.3 1.3-44 1.2 11.3 2.5 22.9 3.6 34.5 3.2-10.9.8-21.7 2.4-32.4 4.8 10.5.6 21 1.2 31.5 1.9-13.1-.1-26.2.4-39.3 1.6.5 1.8 2.8 2.2 4.7 2.2 7.1.2 14.2.3 21.3.5-10 0-20 .6-29.9 1.9 9.4 4 20.2 1.2 30.3 2.6-14.1.3-28.2 1.9-42 4.9 12.3 1.5 24.7 2.3 37.1 2.6-12.2 2-25.1-.6-37 3 10.9 1.8 22 2.3 33 1.7-12 .6-24 1.3-35.9 1.9 9.4.6 18.7 1.2 28.1 1.7l-32.7 6.3c9.9.9 19.8 1.7 29.7 2.6-7.3 1.2-14.6 2.5-21.9 3.7 6.3-1 12.8-1.4 19.2-1.1-8.8 2-17.8 3.5-26.8 4.4 6.4-.4 12.9-.5 19.3-.4-6.8.5-13.6 1.8-20.1 4 10.1 2.4 20.7 2.9 31 1.3"/></svg>