<svg version="1" xmlns="http://www.w3.org/2000/svg" width="432" height="432"><path fill="#27AAE1" d="M201.9 90.7l1.2 23.7 33.5-10.6z"/><g fill="none" stroke="#000" stroke-width="2" stroke-miterlimit="10"><ellipse transform="rotate(-3.272 222.81 195.316) scale(1.00003)" cx="222.8" cy="195.3" rx="32.1" ry="46.5"/><path d="M206.1 233.9V247m34.2-11.7v11.5m29.8 95.6c-2.2-25.1-10.7-92.9-10.7-92.9-34.4-7.4-73.6 0-73.6 0l-11.4 92.9m11.4-92.9s-23.4 40-28.4 92.9m102-92.9s26.4 44.6 28.6 92.9"/><ellipse transform="rotate(-79.415 96.73 147.492)" cx="96.7" cy="147.5" rx="41" ry="28.3"/><path d="M75.8 179.1l-3.4 11m22.9-2.1l-2.2 6.9m3.7 127l13.4-120.4c-30-12.4-57.3-14.9-57.3-14.9s-23.1 61.2-26.7 124.5m83.9-109.6s18.5 94.8 32.8 117.1m-39.1-60s9.5 48.2 22.7 64.7"/><ellipse transform="rotate(-10.58 343.719 148.484)" cx="343.7" cy="148.5" rx="28.3" ry="41"/><path d="M364.7 180.1l3.4 10.9m-22.9-2l2.2 6.8m-3.7 127l-13.4-120.4c30-12.4 57.3-14.9 57.3-14.9s23.1 61.2 26.7 124.5m-84-109.6s-18.5 94.8-32.8 117.1m39.2-60s-9.5 48.2-22.7 64.7M192.8 175.9h-39.4l15.4-48.4-6.8-59h115.6l-6.1 63 23.8 44.4h-44.1m-82.4-48.5l102.7 4.1m-106.6 8.4c1.4-.1 112.3 1.9 112.3 1.9m4.2 7.9s-24.5.4-51.4.8m-17.6.2c-26.8.4-51.2.8-51.2.8m-3.2 9.9h41.9m43.6 0h44M182.7 128l-8.8 47.9m23.2-47.3V166m16.4-36.5s.6 9.9 1.3 20.6m15.8-20.2s2.5 11.8 4.9 23.4m8.3-22.9l15.6 45.5m0-44.9l15.4 44.9"/><circle cx="219" cy="73.6" r="1.1"/><path d="M169.8 77.6l100.9 2.2-4.7 46.6-90.6-3zm-16.4 98.3c.4 1.3 4.6 15.1 4.6 15.1s13.8.3 32.6.7m64.2 1.4c20.9.4 36.8.8 36.8.8l4.1-18"/><path d="M188.1 86.4l3.2 31 54.4 1.5 1.4-33.2z"/></g></svg>