<svg version="1" xmlns="http://www.w3.org/2000/svg" width="432" height="432"><path fill="#27AAE1" d="M193.3 175.5l1.3 23.7 33.5-10.6z"/><g fill="none" stroke="#000" stroke-width="2" stroke-miterlimit="10"><path d="M242.6 260.7h-97.8l15.4-48.4-6.8-59H269l-6.1 63 23.8 44.4h-44.1m-82.4-48.5l102.8 4.1m-106.7 8.4c1.4-.1 112.3 1.9 112.3 1.9m4.2 7.9s-42.1.6-69 1m0 0c-26.8.4-51.2.8-51.2.8m-3.2 9.9h85.5m0 0h44m-104.8-33.4l-8.8 47.9m23.3-47.3v47.3m16.3-46.4s2.2 35.7 2.9 46.4m14.3-46s5.3 34.4 7.7 46m5.4-45.5l15.6 45.5m0-44.9l15.4 44.9"/><circle cx="210.4" cy="158.4" r="1.1"/><path d="M161.2 162.4l101 2.2-4.7 46.6-90.7-3zm-16.4 98.3c.4 1.3 4.6 15.1 4.6 15.1s13.8.3 32.6.7m.1 0c20.9.4 101 2.2 101 2.2l4.1-18"/><path d="M179.6 171.2l3.2 31 54.3 1.5 1.5-33.2z"/></g><path fill="none" d="M185.9 176.2c6-.8 12.1-1.6 18.1-2.4h.5c.7.2.4 1.3-.1 1.9-2 2.4-4.5 4.3-7.3 5.6-3.5 1.6-7.4 2.4-10.2 5.1 7.2-.2 14.7-.6 21.1-3.8 2-1 3.9-2.3 6.1-2.5 1-.1 2.3.3 2.5 1.3.1.9-.8 1.6-1.5 2-4.5 2.7-8.9 5.4-13.4 8.1-1.6.9-3.1 1.9-4.3 3.3-1.2 1.4-1.9 3.3-1.5 5 3.7.2 7.2-1.5 10.2-3.7s5.5-4.8 8.5-7c3.8-2.8 8.1-4.8 12.7-5.7-2 1.6-3.2 4-3.3 6.5-.1 1.3-.4 3.1-1.7 3"/></svg>