<svg version="1" xmlns="http://www.w3.org/2000/svg" width="432" height="432"><path fill="none" stroke="#000" stroke-width="2" stroke-miterlimit="10" d="M218 111s-9.3-6.7-10.3-6.7h-10.3l-9.7 6.7s-5.8-1-7.2 0c-1.5 1-11.1-1.7-11.1-1.7l-10 .3s-8.7 8.7-9.7 9.3-9.7-1-12.7 0-14.3 2-15.3 3.3c-1 1.3-6.7 5-6.7 5l-6.7 11.3v8.3l-5.7 13s.3-3 0 4.7 0 10.3 0 10.3-3 15-4 16 0 9.3 0 9.3-1 6.1 1.7 10.2 6.7 6.5 6.7 6.5l7 5 4.7 7.3 8 7.7 7.7 1.7s2.7-1.3 16 0c0 0 8.3 8.3 9.7 8.7 1.3.3 8.7 1.3 11.3 1.7 2.7.3 9.1 0 9.1 0s6.2-4 9.9-2.3c3.7 1.7 13.7 4.3 16.3 5.3 2.7 1 6.3 2 11.3 2s12 1.3 14.3 0c2.3-1.3 11.7-6 11.7-6s9.7-3.7 11.5-3c1.8.7 17.2 2 17.2 2s9.7-2 10.7-2 5.3-2.3 5.3-2.3l7-8 8.3-2.7 11-2s6.3-1 8.7-2.3c2.3-1.3 5-2.7 5-2.7l3.3-9.7 2.3-11V194s-5-16-5.7-17.3c-.7-1.3-.3-1.3-.7-7.3s-.3-11.3-.3-11.3-2-7.7-2.7-11.3c-.7-3.7-9-21.7-9-21.7l-15-13-11-3.7s-8.7-4.7-10-4c-1.3.7-8.7-.1-8.7-.1s-11.7.6-14.3 0c-2.7-.6-6.7-2.1-9 0s-9.3 4.1-9.3 4.1l-7 3.7s-6-.3-7-.3-6.6-.8-6.6-.8zm28 156s-4.3.7-5 2-1.7 7-1.7 7-1.7 4 0 5.3c1.7 1.3 5.3 4 5.3 4h7.7s7.7-5 7.7-6v-9.7l-4.5-2.7H246zm36 25l-7.7 1.8v4.7s-.8 4 0 5.2c.8 1.2 2.5 1 3.6 2s1.2 1.3 3 1.3 5.8-1.5 5.8-1.5l2-4.7s.8-4.2.8-5.8-1-4.2-1-4.2L282 292zm28.7 20.3s-4.3.2-4.5.7c-.2.5-2.2 6.3-2.2 6.3s-1 4 0 5.3c1 1.3-.1 3.3 3.1 3.7 3.2.3 5.4 0 6.9 0s5.8-.7 6.2-1.8c.3-1.2 2.2-5.5 1.8-7.2-.3-1.7-1-4-1.7-4.5s-1.5-2.7-3.7-2.5c-2.1.2-5.9 0-5.9 0z"/></svg>