<svg version="1" xmlns="http://www.w3.org/2000/svg" width="432" height="432"><path fill="none" stroke="#000" stroke-width="2" stroke-miterlimit="10" d="M228.3 114.7l-13-4.3h-10.7l-9.3 4.3h-4s-7.7-3-9.7-2.2-13.7 2.5-15 2.2c-1.3-.3-6.7 2.5-6.7 2.5l-7.3 3.2L139 122s-6 3.7-8.7 5.7c-2.7 2-5 5.3-6 6.7-1 1.3-2.7 13.7-2.7 13.7s-6.7 4.7-7.3 7.7c-.7 3-2.2 13.7-2.2 13.7s.1 7 0 11.3c-.1 4.3 0 14.3 0 14.3l5.6 8.3 5.3 8.7 8 13 7 6 9.1 6 8.6 3.3h11.7s19 8 20.3 8c1.3 0 3 3 10.3 3h40.7s-7.7 0 12.3-1.7 15 0 15 0l14.7-4.3s14.3-10.7 16.3-11.3 8.7-3 9.7-5.7 3-6.2 3.7-9.4c.7-3.2 4-8.6 5.3-11.2 1.3-2.7 3-4.3 3-7.7v-9.3s-.3.3 0-7.3c.3-7.7.7-8.3 0-12.3s.3-6-1.7-12.3c-2-6.3-3-8-3-8l-2-3.7-5.7-8.3-5-8.3-7-10.3s-4.7-2.7-6-2.8c-1.3-.2-9.7-1.5-11.7-2.2s-8.7-1.3-8.7-1.3l-10.7-.7s-6 .7-8.3.7-9 1.7-11 1.7-9.6-1-9.6-1zm44.7 142h-4.3s-4 2.3-4.3 3.3c-.3 1-1.7 3.1-2 4.9-.3 1.8-1.7 4.4 0 5.1 1.7.7 4.9 2 4.9 2h2.7s3.3 1.3 5.3 0 4.3-1.3 4.3-2.7v-2.7l1.3-5.7v-4.3H273zm11 27.3h-3.8l-4.3 4.2-1.3 3.3s-.8 2.3 0 3.8 1.5 2.5 3.3 2.8c1.8.3 1.5-.5 3.2 0s4.7.1 4.7.1l4-1.2 2.5-3.5v-7L291 284l-2.2-.7-4.8.7zm10.2 23.8s-6.2-.7-6.3 0c-.2.7-2 4.7-2 4.7l-1.7 6.2s-.3 1.3.8 2c1.2.7 1 .5 2.5 1.2s7.7 1.3 8.2 1c.6-.3 1.9-1 3.2-2.3s3.3 0 3.3-3.7v-6l-1.8-3.3-6.2.2z"/></svg>