<svg version="1" xmlns="http://www.w3.org/2000/svg" width="432" height="432"><path fill="none" stroke="#000" stroke-width="2" stroke-miterlimit="10" d="M116.7 180.7l3.7-9.7 7-8 7-3.7h10.3s7-8 9.3-8.7c2.3-.7 9.7-3.3 11-3.3h12.7s8.3-1.3 10 0c1.7 1.3 5.3 2 8.3 1.3 3-.7 13-3.3 13-3.3l22.3-2s10.3-1 11.3 0 15 3.3 15.3 3.7 4.3 4.3 7.3 4.7c3 .3 10 .7 12 .7h12.7l9 2.7 8.7 4.3 10 11 1.7 12.7v14s-2 6.7-4.3 8.7-9 3.2-9 3.2l-8 1.5-10 2.3-10 4.2-8.7 1.8s-12 3-14.3 3h-9c-2.7 0-5.3-1.7-10-1.7s-9.7-1-9.7-1l-8.3 1s-1.7 1-9.7 1.7c-8 .7-6 0-6 0l-13 .3-8 3-10.3-1.5-11.3 1.5s-14 .3-14.3 0c-.3-.3-4.8 2.8-6.8.1s-6.2-6.5-6.2-6.5l-9.5-6.5-4.8-8.8-2.7-2.7s-2-7.7-2.3-9.3c-.3-1.7 0-7.3 0-7.3l3.6-3.4zm104.1 55.6s-3.5 1.2-3.5 1.7-1.2 3.3-1.2 3.3v7.5l1.6.8h4s3.3-.7 4.8-1.2 2.7-1.5 2.7-1.5l.8-2.5v-5.2l-1.3-3h-7.9zm-19.5 21.2l-3.8 1.2s-2.8 2.2-3 3.2 0 4.8 0 4.8l-.1 2 3.5 2.3h6l3-2.7s2.3.7 1.8-4.1 1.2-2.2-.5-4.8l-1.7-2.5-5.2.6zm-24.1 17.8h-4l-3.8 4.7v6.8l3.9 2.5h6.9s1.2 1.2 3-1.7c1.8-2.8 1.8-3 2.2-4.7.3-1.7-.2-4.8 0-5.5.2-.7-2-2.2-2-2.2h-6.2z"/></svg>