<svg version="1" xmlns="http://www.w3.org/2000/svg" width="720.4" height="898"><g fill="none" stroke="#010101" stroke-width="1.5" stroke-miterlimit="10"><ellipse transform="rotate(-82.478 442.948 122.435)" cx="442.9" cy="122.4" rx="23.3" ry="16.7"/><path d="M435.3 144.4v6.7l7.8.9 1.4-5.9m-26 83.1H445l12.4-73.6c-16.3-5.3-40.4-4.2-40.4-4.2l1.5 77.8zm-1.6-77.7s-17.4 17.1-24.4 52.5m0 0c-.4 4.3-2.7 22.5-2.8 27.2l6.5 1.5s4.2-17.1 6.3-25.9m-.1.1c3.4-10.5 8.1-21.6 14.4-27.2m-9.6 14.6l-8.8-11.1m-8.8 48.1l-6.3 9.6s2.8 8.9 3.2 8.9h15.2l2.4-11-8.2-6.1"/><path d="M456.5 160.8s2.8 33.8 32.7 45.3l-2.6 6.5s-22.5.1-34.9-25.6"/><path d="M488.9 206.5l6.2-3.9 10.5 3.1-4.1 16.1-13.1-3.1-1.8-5.2m-68.1 15.7c9.3 61.4-9.4 124.1-9.4 124.1l10.6.9C440.6 312.3 445 229 445 229"/><path d="M445.4 226.8c15.8 48.1 25.1 128.7 25.1 128.7l-10.1 1.1s-13.1-67.4-20.6-78.1m-20.1 75.9l22.4 5.8-13.4 8.1-22.8-9.7 3.1-5.3m51.4 3.4v8.7l28.3 4.5 9.7-13.2-27.9-1.1"/></g><g fill="none" stroke="#010101" stroke-width="1.5" stroke-miterlimit="10"><ellipse transform="rotate(-82.478 442.496 537.405)" cx="442.5" cy="537.4" rx="23.3" ry="16.7"/><path d="M434.9 559.3v6.8l7.8.9 1.3-5.9m-26 83.1h26.5l12.4-73.6c-16.3-5.3-40.4-4.2-40.4-4.2l1.5 77.8zm-1.6-77.7S399 583.6 392 619m0 0c-.4 4.3-2.7 22.5-2.8 27.2l6.5 1.5s4.2-17.1 6.3-25.9m0 0c3.4-10.5 8.1-21.6 14.4-27.2m-9.7 14.7l-8.8-11.2"/><path d="M389.2 646.2l-6.3 9.6s2.8 8.9 3.2 8.9h15.2l2.4-11-8.2-6.1m60.5-71.8s2.8 33.8 32.7 45.3l-2.6 6.5s-22.5.1-34.9-25.6"/><path d="M488.5 621.4l6.2-3.9 10.5 3.1-4.2 16.2-13.1-3.1-1.7-5.3M418 644.2c9.3 61.4-9.4 124.1-9.4 124.1l10.6.9c20.9-41.9 25.3-125.2 25.3-125.2"/><path d="M445 641.8c15.8 48.1 25.1 128.7 25.1 128.7l-10.1 1.1s-13.1-67.4-20.6-78.1m-20.2 75.9l22.4 5.8-13.3 8-22.8-9.7 3.1-5.2m51.3 3.4v8.7l28.3 4.5 9.7-13.2-27.9-1.1"/></g><g fill="none" stroke="#010101" stroke-width="1.5" stroke-miterlimit="10"><ellipse transform="rotate(-82.478 340.475 77.234)" cx="340.5" cy="77.2" rx="13.8" ry="9.9"/><path d="M335.9 90.2v4l4.7.6.8-3.5M326 140.6h15.8l7.4-43.7c-9.7-3.1-24-2.5-24-2.5l.8 46.2zm-1-46.1s-10.3 10.2-14.5 31.2m0 0c-.2 2.6-1.6 13.4-1.7 16.2l3.8.9s2.5-10.2 3.8-15.4m0-.1c2-6.2 4.8-12.8 8.6-16.2m-5.8 8.8l-5.2-6.6"/><path d="M308.8 141.8l-3.8 5.7s1.7 5.3 1.9 5.3h9l1.4-6.6-4.9-3.6m36.1-42.6s1.7 20.1 19.4 26.9l-1.5 3.8s-13.4.1-20.7-15.2"/><path d="M367.8 127.1l3.6-2.3 6.3 1.8-2.5 9.6-7.8-1.8-1-3.1m-40.4 9.3c5.5 36.5-5.6 73.6-5.6 73.6l6.3.6c12.4-24.9 15-74.3 15-74.3"/><path d="M341.9 139.2c9.4 28.5 14.9 76.4 14.9 76.4l-6 .6s-7.8-40-12.2-46.4m-11.9 45.1l13.2 3.4-7.9 4.8-13.5-5.7 1.9-3.1m30.4 2v5.2l16.8 2.6 5.8-7.8-16.6-.7"/><ellipse transform="rotate(-76.579 345.66 261.725)" cx="345.7" cy="261.7" rx="14.9" ry="10.3"/><path d="M340 275.2l-.9 4.5 5.1 1 1.1-4.5m-19.4 44.9c1-9.6 4.5-41.4 4.5-41.4s13.6-.3 19.6 3.8l-9 42.4s-9.8-1.3-13.8-1.8m3.2-44.4L313.1 293l5.2 24.3 4.2-1-1.9-21.4m8.8-5.3l-15.2 9.4"/><path d="M318.3 317.3l-1.1 6.3 4 4.3 7.2-3.4-5.9-8.2m26.6-28.7l6.6 13.7 14-4.2 1 3.8-16.5 8.2-7.4-9m22.9-3v-3.2l6.4-4 2.7 3.6s2.6 4.6 2.7 4.8m0 .1c-1 .7-5.8 4.7-5.8 4.7l-5-2.1m-31.6 24.8s-3.4 45.4-28.9 69.4l-3.3-2s19-42.9 18.7-67.2"/><path d="M341 325.8s15.6 35.3 18.5 68.1l-4.2 1.3s-15.6-50.4-18.2-55.7m-30.5 53.6l-4.8 4.6s8.8 8 9.2 8 14.2-.5 14.2-.5l-15-10.1m45.1.2v6.2s8-1 14-1.6l6.8-.4-.6-6.6c-6.2.5-16 1.2-16 1.2"/></g><g fill="none" stroke="#010101" stroke-width="1.5" stroke-miterlimit="10"><ellipse transform="rotate(-82.478 340.022 492.204)" cx="340" cy="492.2" rx="13.8" ry="9.9"/><path d="M335.5 505.2v4l4.6.6.8-3.5m-15.4 49.3h15.8l7.4-43.7c-9.7-3.1-24-2.5-24-2.5l.8 46.2zm-1-46.1s-10.3 10.2-14.5 31.2m.1-.1c-.2 2.6-1.6 13.4-1.7 16.2l3.8.9s2.5-10.2 3.8-15.4m0 0c2-6.2 4.8-12.8 8.6-16.2m-5.8 8.8l-5.2-6.7"/><path d="M308.4 556.8l-3.8 5.7s1.7 5.3 1.9 5.3h9l1.4-6.6-4.9-3.6m36-42.6s1.7 20.1 19.4 26.9l-1.5 3.8s-13.4.1-20.7-15.2"/><path d="M367.3 542.1l3.7-2.3 6.2 1.8-2.4 9.6-7.8-1.8-1-3.2m-40.5 9.4c5.5 36.5-5.6 73.6-5.6 73.6l6.3.6c12.4-24.9 15-74.3 15-74.3"/><path d="M341.5 554.1c9.4 28.5 14.9 76.4 14.9 76.4l-6 .6s-7.8-40-12.2-46.4m-12 45.2l13.3 3.4-7.9 4.8-13.5-5.8 1.8-3.1m30.5 2v5.2l16.8 2.7 5.7-7.9-16.5-.6"/><ellipse transform="rotate(-76.579 345.209 676.694)" cx="345.2" cy="676.7" rx="14.9" ry="10.3"/><path d="M339.5 690.2l-.8 4.4 5 1.1 1.1-4.5m-19.3 44.9c1-9.6 4.5-41.4 4.5-41.4s13.6-.3 19.6 3.8l-9 42.4s-9.8-1.3-13.8-1.8m3.1-44.5L312.7 708l5.2 24.2 4.1-.9-1.8-21.5m8.7-5.2l-15.2 9.4"/><path d="M317.9 732.2l-1.1 6.3 3.9 4.4 7.2-3.4-5.9-8.2m26.7-28.7l6.6 13.7 13.9-4.2 1 3.8-16.4 8.2-7.5-9.1m22.9-2.9v-3.2l6.4-4 2.7 3.6s2.6 4.6 2.7 4.8m0 .1c-1 .7-5.8 4.7-5.8 4.7l-5-2.1m-31.5 24.8s-3.4 45.4-28.9 69.4l-3.3-2s19-42.9 18.7-67.2"/><path d="M340.6 740.8s15.6 35.3 18.5 68.1l-4.2 1.3s-15.6-50.4-18.2-55.7m-30.6 53.6l-4.8 4.6s8.8 8 9.2 8c.4 0 14.2-.5 14.2-.5l-15-10.1m45.1.2v6.2s8-1 14-1.6l6.8-.4-.6-6.6c-6.2.5-16 1.2-16 1.2"/></g><g fill="none" stroke="#010101" stroke-width="1.5" stroke-miterlimit="10"><ellipse transform="rotate(-82.478 270.609 40.707)" cx="270.6" cy="40.7" rx="7.9" ry="5.6"/><path d="M268 48.1v2.3l2.7.3.4-2m-8.8 28.1h9l4.2-24.8c-5.5-1.8-13.6-1.4-13.6-1.4l.4 26.2zm-.5-26.3s-5.9 5.8-8.2 17.7m0 0c-.1 1.5-.9 7.6-1 9.2l2.2.5 2.1-8.7m0 0c1.1-3.5 2.7-7.3 4.9-9.2m-3.3 5l-2.9-3.8m-3 16.2l-2.1 3.2s1 3 1.1 3h5.1l.8-3.7-2.8-2"/><path d="M275.2 53.7s1 11.4 11 15.3l-.9 2.2s-7.6 0-11.8-8.6"/><path d="M286.1 69.1l2.1-1.4 3.6 1.1-1.4 5.5-4.5-1.1-.5-1.8m-23.1 5.4c3.1 20.7-3.2 41.9-3.2 41.9l3.6.3c7-14.1 8.5-42.2 8.5-42.2"/><path d="M271.4 75.9c5.3 16.2 8.5 43.4 8.5 43.4l-3.4.4s-4.4-22.7-7-26.4m-6.7 25.7l7.5 1.9-4.5 2.8-7.7-3.3 1.1-1.8m17.3 1.2v2.9l9.5 1.5 3.3-4.4-9.4-.4"/><ellipse transform="rotate(-76.579 273.557 145.623)" cx="273.6" cy="145.6" rx="8.5" ry="5.9"/><path d="M270.3 153.3l-.5 2.5 2.9.6.6-2.5m-11 25.5c.6-5.5 2.5-23.6 2.5-23.6s7.7-.2 11.1 2.1l-5.1 24.1s-5.6-.7-7.8-1"/><path d="M264.9 155.8l-9.8 7.6 2.9 13.8 2.4-.5-1.1-12.2m5-3l-8.7 5.3"/><path d="M258 177.2l-.6 3.6 2.2 2.5 4.1-2-3.3-4.6m15.1-16.4l3.8 7.9 7.9-2.5.6 2.2-9.4 4.7-4.2-5.2m13-1.7v-1.8l3.6-2.3 1.5 2s1.5 2.6 1.5 2.7m.1.2c-.5.4-3.3 2.7-3.3 2.7l-2.9-1.2m-17.9 14.1s-1.9 25.8-16.4 39.5l-1.9-1.1s10.8-24.4 10.6-38.2"/><path d="M270.9 182.1s8.9 20.1 10.5 38.7l-2.4.7s-8.9-28.6-10.4-31.6m-17.3 30.5l-2.7 2.6s5 4.5 5.2 4.5c.2 0 8.1-.3 8.1-.3l-8.5-5.7m25.6.1v3.5s4.5-.5 8-.9l3.9-.2-.3-3.8c-3.5.3-9.1.7-9.1.7"/><ellipse transform="rotate(-82.478 268.421 249.524)" cx="268.4" cy="249.5" rx="7.9" ry="5.6"/><path d="M265.8 256.9v2.3l2.7.3.4-2m-8.7 28.1h9l4.2-24.8c-5.5-1.8-13.6-1.4-13.6-1.4l.4 26.2zm-.6-26.3s-5.9 5.8-8.2 17.7m0 .1c-.1 1.5-.9 7.6-1 9.2l2.2.5 2.1-8.7m.1-.1c1.1-3.5 2.7-7.3 4.9-9.2m-3.4 5l-2.9-3.8m-3 16.3l-2.1 3.2s1 3 1.1 3h5.1l.8-3.7-2.8-2"/><path d="M273 262.5s1 11.4 11 15.3l-.9 2.2s-7.6 0-11.8-8.6"/><path d="M283.9 277.9l2.1-1.3 3.6 1-1.4 5.5-4.4-1.1-.6-1.8m-23 5.4c3.1 20.7-3.2 41.9-3.2 41.9l3.6.3c7-14.1 8.5-42.2 8.5-42.2"/><path d="M269.3 284.8c5.3 16.2 8.5 43.4 8.5 43.4l-3.4.4s-4.4-22.7-7-26.4m-6.8 25.6l7.5 2-4.5 2.7-7.7-3.3 1.1-1.8"/><path d="M274.3 328.6v2.9l9.6 1.5 3.2-4.4-9.4-.4"/><ellipse transform="rotate(-76.579 271.37 354.44)" cx="271.4" cy="354.4" rx="8.5" ry="5.9"/><path d="M268.1 362.1l-.5 2.5 2.9.6.6-2.5m-11 25.5c.6-5.5 2.5-23.6 2.5-23.6s7.7-.2 11.1 2.1l-5.1 24.1s-5.6-.7-7.8-1"/><path d="M262.7 364.6l-9.8 7.6 2.9 13.8 2.4-.5-1.1-12.2m5-3l-8.6 5.4"/><path d="M255.8 386l-.6 3.6 2.3 2.5 4.1-1.9-3.4-4.7m15.1-16.3l3.8 7.8 7.9-2.4.6 2.1-9.4 4.7-4.2-5.2m13-1.6v-1.8l3.6-2.3 1.5 2s1.5 2.6 1.5 2.7m.1.1c-.5.4-3.3 2.7-3.3 2.7l-2.9-1.2m-17.9 14.1s-1.9 25.8-16.4 39.5l-1.9-1.1s10.8-24.4 10.6-38.2"/><path d="M268.7 390.9s8.9 20.1 10.5 38.7l-2.4.7s-8.9-28.6-10.4-31.6m-17.3 30.5l-2.7 2.6s5 4.5 5.2 4.5c.2 0 8.1-.3 8.1-.3l-8.5-5.7m25.6.1v3.5s4.5-.5 8-.9l3.9-.2-.3-3.8c-3.5.3-9.1.7-9.1.7"/></g><g fill="none" stroke="#010101" stroke-width="1.5" stroke-miterlimit="10"><ellipse transform="rotate(-82.478 270.156 455.677)" cx="270.2" cy="455.7" rx="7.9" ry="5.6"/><path d="M267.6 463.1v2.3l2.6.3.5-2m-8.8 28h9l4.2-24.8c-5.5-1.8-13.6-1.4-13.6-1.4l.4 26.2zm-.6-26.2s-5.9 5.8-8.2 17.7m0 0c-.1 1.5-.9 7.6-1 9.2l2.2.5 2.1-8.7m.1 0c1.1-3.5 2.7-7.3 4.9-9.2m-3.3 4.9l-3-3.7"/><path d="M252.2 492.4l-2.1 3.2s1 3 1.1 3h5.1l.8-3.7-2.8-2m20.4-24.3s1 11.4 11 15.3l-.9 2.2s-7.6 0-11.8-8.6m12.7 6.5l2.1-1.3 3.5 1.1-1.4 5.4-4.4-1-.6-1.8m-23 5.3c3.1 20.7-3.2 41.9-3.2 41.9l3.6.3c7-14.1 8.5-42.2 8.5-42.2"/><path d="M271 490.9c5.3 16.2 8.5 43.4 8.5 43.4l-3.4.4s-4.4-22.7-7-26.4m-6.8 25.7l7.6 1.9-4.5 2.7-7.7-3.2 1-1.8"/><path d="M276 534.7v3l9.6 1.5 3.3-4.5-9.5-.3"/><ellipse transform="rotate(-76.579 273.105 560.592)" cx="273.1" cy="560.6" rx="8.5" ry="5.9"/><path d="M269.9 568.3l-.5 2.5 2.8.6.7-2.6m-11 25.6c.6-5.5 2.5-23.6 2.5-23.6s7.7-.2 11.1 2.1l-5.1 24.1s-5.6-.7-7.8-1m1.8-25.2l-9.8 7.6 3 13.8 2.3-.6-1-12.2m4.9-3l-8.6 5.4"/><path d="M257.6 592.2l-.7 3.6 2.3 2.4 4.1-1.9-3.4-4.7m15.2-16.3l3.7 7.8 8-2.4.5 2.2-9.3 4.6-4.3-5.1"/><path d="M286.8 580.7v-1.8l3.6-2.3 1.5 2s1.5 2.6 1.5 2.7m.1.1c-.5.4-3.3 2.7-3.3 2.7l-2.9-1.2M269.4 597s-1.9 25.8-16.4 39.5l-1.9-1.1s10.8-24.4 10.6-38.2"/><path d="M270.5 597s8.9 20.1 10.5 38.7l-2.4.7s-8.9-28.6-10.4-31.6m-17.3 30.5l-2.7 2.6s5 4.5 5.2 4.5c.2 0 8.1-.3 8.1-.3l-8.5-5.7m25.6.2v3.5s4.5-.5 8-.9l3.9-.2-.3-3.8c-3.5.3-9.1.7-9.1.7"/><ellipse transform="rotate(-82.478 267.968 664.494)" cx="268" cy="664.5" rx="7.9" ry="5.6"/><path d="M265.4 671.9v2.3l2.6.3.5-2m-8.8 28h9l4.2-24.8c-5.5-1.8-13.6-1.4-13.6-1.4l.4 26.2zm-.5-26.2s-5.9 5.8-8.2 17.7m-.1 0c-.1 1.5-.9 7.6-1 9.2l2.2.5 2.1-8.7m.1 0c1.1-3.5 2.7-7.3 4.9-9.2m-3.3 5l-3-3.8"/><path d="M250 701.2l-2.1 3.2s1 3 1.1 3h5.1l.8-3.7-2.8-2m20.4-24.3s1 11.4 11 15.3l-.9 2.2s-7.6 0-11.8-8.6m12.7 6.6l2.1-1.4 3.5 1.1-1.4 5.4-4.4-1-.6-1.8m-23 5.3c3.1 20.7-3.2 41.9-3.2 41.9l3.6.3c7-14.1 8.5-42.2 8.5-42.2"/><path d="M268.8 699.7c5.3 16.2 8.5 43.4 8.5 43.4l-3.4.4s-4.4-22.7-7-26.4m-6.8 25.7l7.6 1.9-4.5 2.8-7.7-3.3 1-1.8m17.3 1.2v2.9l9.6 1.5 3.3-4.4-9.4-.4"/><ellipse transform="rotate(-76.579 270.919 769.409)" cx="270.9" cy="769.4" rx="8.5" ry="5.9"/><path d="M267.7 777.1l-.5 2.5 2.9.6.6-2.5m-11 25.5c.6-5.5 2.5-23.6 2.5-23.6s7.7-.2 11.1 2.1l-5.1 24.1s-5.6-.7-7.8-1m1.8-25.2l-9.8 7.6 3 13.8 2.3-.6-1-12.1m4.9-3l-8.6 5.3"/><path d="M255.4 801l-.7 3.6 2.3 2.4 4.1-1.9-3.4-4.7m15.2-16.3l3.8 7.8 7.9-2.4.6 2.2-9.4 4.7-4.2-5.2m13-1.7v-1.8l3.6-2.3 1.5 2s1.5 2.6 1.5 2.7m.1.2c-.5.4-3.3 2.7-3.3 2.7l-2.9-1.2m-17.9 14.1s-1.9 25.8-16.4 39.5l-1.9-1.1s10.8-24.4 10.6-38.2"/><path d="M268.3 805.9s8.9 20.1 10.5 38.7l-2.4.7s-8.9-28.6-10.4-31.6m-17.3 30.4l-2.7 2.6s5 4.5 5.2 4.5c.2 0 8.1-.3 8.1-.3l-8.5-5.7m25.6.2v3.5s4.5-.5 8-.9l3.9-.2-.3-3.8c-3.5.3-9.1.7-9.1.7"/></g></svg>