<svg version="1" xmlns="http://www.w3.org/2000/svg" width="1496" height="868"><path fill="#66BAD8" d="M361.6 787.5c-2-8.3-2.8-17.1-3.5-25.7-1.5-18.6-3-38 3.8-55.4 4.5-11.4 12.3-21.2 20.3-30.6 10-11.7 20.7-23.2 26.8-37.3 6.4-15 7.2-31.8 13-47 4.2-11 11-20.8 15.1-31.9 4.5-12.2 5.5-25.4 6.5-38.4.4-5 .8-10.1-.6-15-4.7-17.1-26.4-22.1-38.6-34.9-11.7-12.3-13.7-30.8-21.3-46-11.5-23.1-35-37.1-56.2-51.8-19.1-13.2-27.7-30.4-36.4-51.6-3.6-8.7-7-18.9-2.8-27.3 7.6-15.1 23.4-19.8 38-24.8 19.5-6.7 41.5-8.8 62-12.5 22.7-4.1 50.2-14 73.4-13.4 0 0 206 6 243 6s175 45 184 42 39-1 51-41 176-165 189-188 12-53 58-48 64-27 71 12-32 74-56 133-14 97 6 127 120 46 163 59 120 34 126 49 38 57-5 71-163 5-212 15 57 47 113 47 92 6 94 19 52 86-52 88-220 14-262 8-97-31-117 20-31 95-35 125-130 64-149 63-39.1-8-79.6-22C751 815 672 806 572 808c-39 .8-78 3.8-116.7 8.8-27.2 3.5-68.4 17.5-86.5-11.4-3.5-5.6-5.7-11.6-7.2-17.9z"/></svg>