<svg version="1" xmlns="http://www.w3.org/2000/svg" width="576" height="576"><path d="M282.6 67.3s-14.1 29.7 1.4 41c0 0-16.1-4.8-13-24.1 3-19.4 11.6-16.9 11.6-16.9zm-5.1 111.4s-3.3-63.9-5-63.8c-1.7.2-9 1.2-9 1.2l.4 6.5s-16.3 18.9-15.2 18.9c1.1 0 17.2 18.5 17.2 18.5l-5.6 7.4 5 4.6 4.3-1.9 1.5 13.2 1 97-12.6 13.7 13.9 3 6.3-17.1-2.2-101.2zm-12.2-28.6c-1.8-2.2-3-2.9-4.2-5.5-.3-.7-1.6-1-1.8-1.7-3.2-.7-4-6-.2-7.1.2-.1.3-.1.4-.1 1.4-3.4 7.4-3.1 7.1 1.2-.1 1.7-.6 3.5 0 5.2.7 1.7 0 4.4.6 6.2 1.8 4.1 1.1 5.4-1.9 1.8zm19.5 28.6s2.9 98.8 3.4 99.5c.5.7 6.8 13.8 6.8 13.8l18-4.6-19.3-8.9-4-99.8h-4.9zm-233 331.8s52.2-49 100.8-58.8c0 0-28.2 54.8 9.8 53s43.2-11.8 58.2-31.8 41.5-26 41.5-26-.6 66.2 34.3 59.2S337 497 360 478.8s52.5-35.2 60.8-36.8c0 0-23.8 62.5 2 63.5s34.8 2.5 52.8-20.5 30.8-28.8 30.8-28.8.5 47.8 20.8 54.2H51.8z" fill="#27AAE1"/><g fill="none" stroke="#000" stroke-width="2" stroke-miterlimit="10"><path d="M271 87.6c0 11.4 6.2 20.6 13.8 20.6 1.3 0 2.6-.3 3.8-.8 5.8-2.5 10-10.4 10-19.8 0-11.4-6.2-20.6-13.8-20.6-7.6 0-13.8 9.3-13.8 20.6zm25-17.3s-12.2 2.4-19.5 0m22.1 3.2s-14.4 3.3-23.9 0m23.9 2.9s-7.9 6.6-25.7.5m15.9 38l-.2-7.4m-7.6 0v7.3m22.2-.7s-23.2-1-39.8 2l7.5 62.5 27.7-1.5 4.6-63z"/><path d="M263.5 116.1s-20.6 21.2-23.9 25.9l29.4 20.1m-20.3-30.5l19 19.8m-12.4-12.2l10-7.6m-1.8 26.8l-5.3 7.1 7.1 6.5 4.3-3.5m33.6-54.4l18.4 25.1-21.9 23.7m14.2-33.1l-13.3 19.8m1.2-16.5l6.4 5.1m-8.5 28.8l7.6 3.1 3.8-7.2-7.9-3.3m-4.6 17.6l-3.6 101h-6.8l-3.4-99.5-5.1 101.2-6.7-.3-2-100.9"/><path d="M279.7 279.9l-5.5 15.3-14.7-3.5 13.5-12.1m22-1.4l17.4 6.5-15.9 5.7-8.3-12.2"/><path d="M273.4 275.4c-6.7 1.3-15.2 2.8-16.8 1.8-2.2-1.4-14.2-3.3-18.2-3.1-4 .2-23.5 1.4-25.5 3.1-2 1.6-21 26.6-22.5 29.6s-5 31-6 37.5-12 23.2-13.5 23.1c-1.5-.1-27.5 26.4-29.5 30.4s-15 45.5-15 45.5-.8 4-2.1 10.2m164.4-181.2c-3 .7-6.1 1.3-8.4 1.7m178.8 213s-7.8-56.5-14.5-82.5-32.9-48.5-34.9-53.5-3.8-17.1-5.3-20.6-9-31.5-10.5-35-10.5-16.2-16-15.1c-5.5 1.1-14.2-1.9-23.1-2.6s-32.9-8.5-36.9-7.9-16.5-.6-18.4 0c-.5.2-1.6.4-3.1.8"/><path d="M222.6 297.5s20.5 6.2 23.2 6.8 19.5 2 19.5 2 15.2-5.8 18.2-4.4 10.5 2.9 15 2.9 22.7-2.2 23.5-2.9 14.2-7.9 14.2-7.9M43 508.8s50.5-59.5 116.5-61.5c0 0-29.5 57 15 53.5s35.8-61.8 98.9-64.3c0 0-8.4 66.8 37.3 61.3s54.7-63.5 134.2-66.5c0 0-42.5 63-12.5 68.5s43-55.5 88.5-63c0 0-21.5 63 12.5 63.5"/></g></svg>