<svg version="1" xmlns="http://www.w3.org/2000/svg" width="288" height="288"><g fill="#27AAE1"><path d="M67.4 105.2c.4.8 1 1.5 1.6 2 2.2.8 4.3 2 5.8 3.5l.1.1V95.5l-.8-4.3s-2.9 5.6-7.6 12.9c.4.2.7.6.9 1.1zm-8 17.4c-1.2-1.2-2.4-2.7-3.3-4.2-6.3 7.4-13.8 14.1-21.6 16.8 0 0-1.8 18-1.7 17.7 0-.2 20-10.2 32.9-25.3-2.6-1.1-4.5-3.2-6.3-5zm158.1-52.5s16.8 15.5 9.7 38.2c0 0 7.7-6.5 6.5-14.5-1-8-1.4-20.7-16.2-23.7zm16.4 40.7l15.3 51.6-14.6 9.1 13-3.9s-13.9 46.4 5.1 67.7L231.5 246l8.4 7.1 22.6-12-7.9-8.5s-9-20.1-6.9-33.7c2.1-13.7 8.8-35.6 8.8-35.6l1.3-.9-18.7-54.1-5.2 2.5z"/><path d="M229.4 171.9s-17.3 33.2-23.2 64.5l-24.2 6.3 5.5 9.5 23.6-7.2-1.9-8.6 17.5-40.6 6.2-12.2 2.8-12.8-6.3 1.1z"/></g><g fill="none" stroke="#000" stroke-width="2" stroke-miterlimit="10"><path d="M67.9 80L64 79c-6.4-1.7-10.2-8.3-8.4-14.7L59.7 49c1.7-6.4 8.3-10.2 14.7-8.4l3.9 1c6.4 1.7 10.2 8.3 8.4 14.7l-4.1 15.3C80.9 78 74.3 81.8 67.9 80z"/><path d="M57.1 58.7s5.8 2.9 10 2.6c4.2-.3 9.5 1.5 9.8 3.2.3 1.7 6.7 3.4 6.7 3.4M58.5 53.4s-4.1-1.4-5.3 2.3c-1.2 3.7 2.2 6.4 2.2 6.4"/><path d="M68.1 87.4c6.2 1.1 12.9 1.2 19.6-.4 0 0-1.9-13.2 1.9-24.9s5.8-26.2-9.5-29.6c0 0-22.5-10.8-36.1 20.7 0 0-8 17.9-9.5 18.8 0 0 9.2 7.4 18.1 11.7m5.9-8l-2.7 8.6M67.9 80l-.8 7.6"/><path d="M76 137.2c1.1 36.9 3.2 84.1 7.5 93 0 0-36.9 8-58.4 0L39.6 82.4s22.5.3 35.5 9.3c0 0-.2 11.5-.1 19m31.4 26l10.2-5.3.8 4.3-2.5 3.5 15.5 1.7-5 9.6-18.4-2.6"/><path d="M52.9 91.7s36.5 36.2 53.5 32.3l2 39.2s-46.5-33-58.5-54.1m20.3-20.2S67.4 96 64.1 102m-9.5 13c-5.1 6-11.7 12.1-19.8 16.7m-2 19.5s18.6-6.5 32.4-24.2M41.4 233.7c0 .5 2.8 17.3 2.8 17.3h6l3-18.3m7.7-.2c.5 4.4 1.1 10.2 1.1 10.2h5.3s.9-5.3 1.7-9.9m-25.4 18.8l17 12.4 13.6-9.3-24-3.7m11.1-8.1l12.7 6.2 8.8-5.8-16.5-.6"/><path d="M95.7 122.7c4.6-25 26.1-44 51.8-44 29.1 0 52.8 24.3 52.8 54.2 0 7.1-1.3 14-3.8 20.2m-6 11.2c-9.6 13.8-25.2 22.7-43 22.7-16 0-30.3-7.3-40-18.9 0 0-4.4-4.9-7.8-11.4"/><path d="M109.9 95.6l2.8-.8s1.5.6 2.2.8 3.6.1 4.1-.4 1.6-1.4 2.2-1.4 2-.2 2.8 0 2.6-.3 3.6-.1c1 .2 4.9.5 5.9-.1s4-2 4-2h2.2s3.1 1.6 3.8 2 1.9 2.4 1.6 3-1 3.2-1 3.2l-.1 4.1 1.2.8 4-1.4 3.9-2.2 3.1-1.9 4.4-.4.9.9v2.1l-2.2 2.9.6 2 2.9 2.9.9 2 1.6 2.6v1.9h-9.6s-.6 2.6-.8 3.1-.2 3.4-.2 3.4-.8 2-1.8 2.2-2.9 0-2.9 0l-3.2.9s-1.4 1.6-1.4 2.2.5 1.4 1 2.5 1.9 2.9 1.2 3.4-1.6 1.8-2.9 1.5-3.1-.1-4.6-1.4-4-2.8-4-2.8-1.5-1.1-3.6-1-2-.2-2.9.5c-.9.8-.9 2-.9 2l.8 3.5s1.4 3.1 1.8 3.8 2.9 4.6 4.5 4.9 3.5-1.1 3.9 0 4.4 4.5 4.8 4.5 2.8-.5 2.8-1.1-.6-1.6-.1-3.1.8-3.2 1.6-3.8.1-.6 1.9-1.1 3.8-1.1 3.8-1.1 1.6-.2 2.8-.2 2.6.2 2.6.6.4 1.1.4 2.2 1.2 3.6 1.5 4 2.6 2.5 3.1 2.5 3.8 1.1 3.8 1.1l3.6 1 1.2 2.1v3.9l-.9 2-1.4 3.5-1.5 3.4s.1 2.5-.1 3.6 1.4.4-.5 2.5-3.1 3.4-3.5 4.1-2.6 3.5-2.6 3.5l-2.5 1.2-4 .8-2.6-.6-2.5-2.6s-2.1-2.1-1.9-4 .4-2.2.5-3 .2-1.9.1-4-.4-3.6-.4-3.6l-.5-1.8-2.9-1.4-.8-.4-3-2.1-.1-1.9-.6-2-.9-2.1-3.4-2.5-4-1.6-4.3-.4s-1 .3-1.2.3m-25.3-42.9s2.5 3.4 3 3.7-1.2 2.5-1.2 2.5-3.6 1.8-4 1.9-1.5 7.6-1.5 8.2c0 .6 1.4 3 1.7 3.5m5.6 0c1-.1 3.6-.4 3.6-.4v2.1l2.1 4.4s.8 1.9.9 2.2c0 .1.2.2.4.2m86.9-11.2s-4.8 1.4-5.2 1.8-2.1 3.6-2.1 3.6l-3.4 4.6s-2.1 2.1-2.1 2.9v8.8l1.6 3.4s1.5 1.1 1.9 2 .6 3.1.6 3.1-.1 1.3-.1 2.1m-17.1-66.8s1 6.5 1 7-.2 3.9.8 5 3.1 1.8 3.6 1.8 1.1.1 2.1 0 1.5.2 2.2.1 2.8-.4 3.4-.4h2.2"/><ellipse transform="rotate(-11.97 220.173 90.426)" cx="220.2" cy="90.4" rx="13.3" ry="20.6"/><path d="M227.7 70.8s-11.2 6.2-20.2 4.5m21.9-2.1s-9.2 8.1-23.2 5.3m25.5-2.3s-12 10.1-24.2 5.9m22.8 24.4l2.3 4.4-9.5 3.9-1.1-4"/><path d="M219.7 145.4c-2-13.6-4.1-27.6-4.1-27.6l23.5-9.5 18.7 54.1s-15 10.9-34.5 8c0 0-.9-5.8-2-13.6m-4.9-34s-3 28.9-19 30"/><path d="M234.7 120.8c-.5 1-11 33.3-35.8 35.5v6.1s26.8 2.4 43.5-26.3"/><path d="M198.9 156.3c-1-.6-5.1-5.8-5.1-5.8l-2.3 2.3v3.5l-11.4 1.2 9.4 7.1 9.4-2.2m59 0s-23 44.1 0 72.8h-5.1s-27.1-13.7-18.1-63.7"/><path d="M223.4 170.4s-19.1 37.5-21.1 66.1l6.8.1s14.1-35.8 24.1-53.5m24.7 52.1l4.7 5.8-22.5 8.3-8.5-7 21.2-7.1"/><path d="M209.3 236.9l1.7 8.2-23.8 3.1-4.9-7.8 20-3.9"/></g></svg>