<svg version="1" xmlns="http://www.w3.org/2000/svg" width="288" height="288"><path fill="none" stroke="#000" stroke-width="2" stroke-miterlimit="10" d="M133.3 196.4l16.5 2.5s13.5 1 17.5 0 20-7 20-7 17.5.5 22 0 21.4-8 21.4-8l11.1-9.5 19-2.5 6.5-14s8.5-21 8.5-23.5v-11s-5.5-19-6-21 .5-13-1.5-18.5-13.5-14.5-13.5-14.5l-18-11.5s-22.5-2.5-25.5-4-11.5-10-11.5-10-17-12-22.5-12h-44s-14.5-1-23 0-29 3-29 3L65.8 47.4s-14.5 13.5-19.5 16-21 13.5-21 13.5-4.5 19.5-4.5 24.5-9.7 18.5-9.1 22.5 11.3 29.6 12.1 33.5c.8 3.9 5.5 16 13.5 19s39 11.5 40.5 11.5 14.5 9.9 21 11.4c6.5 1.6 15.3.6 19 0 3.6-.5 15.5-2.9 15.5-2.9z"/><path fill="none" stroke="#000" stroke-width="2" stroke-miterlimit="10" d="M121.3 197.9c.6 8.3 1.3 16.8 1.3 16.8l-4 23.7-9.5 18.5h53l-11-16.5-8.5-19.7s-2-20.8-2-20.3c0 .1-.2-1.2-.6-3.3m49.6-52.6s-9.3 1.3-10 6.9c-.7 5.6.9 15.1 10 13.8s13.3-2.4 13.3-5.3.9-5.5 0-9.1c-.9-3.6-13.3-6.3-13.3-6.3zm16.9-59s-11.8-3.1-14.4 3.1c-2.5 6.2-4.7 16 1.1 17.4s11.3 3.1 15.4 1.5 8.2-4.7 8.4-8.9c.2-4.2-1.6-10.8-10.5-13.1zM88.3 63.2s-14.2-2.4-15.1 5.5-.9 17.6 7.5 17.6 13.7 0 15-4.5c1.3-4.5 3.1-8.4 2.4-11.4s-9.8-7.2-9.8-7.2zm5.6 70.2s-12-2.2-13.3 7.6c-1.3 9.8 3.6 12.9 9.4 12.4 5.8-.5 12.5-2.2 13.1-7.3.6-5.1-.8-11.8-9.2-12.7zM139 99.7s-8.9-5.3-10.5 1.8c-1.6 7.1-6 18 3.3 16.9 9.3-1.1 13.3-.9 13.6-6.5.3-5.7-6.4-12.2-6.4-12.2zm21.6-56.4s-8.7-1.8-10.9 1.8c-2.2 3.6-7.4 13.1 0 14.9 7.4 1.8 15.1 5.3 17.1 0 2-5.2 1.6-15.8-6.2-16.7zm83.1 73.2s-11.6-3.3-13.6 1.1-7.4 10.4.7 14.7c8.2 4.4 10.9 8.5 14 4.7 3-3.8 6.5-19.3-1.1-20.5zM141.1 155s-11.2 0-12 7.4c-.8 7.4 3 14.7 8.7 14.7 5.7 0 13.9 1.7 13.9-6s-.2-17-10.6-16.1zm-93.6-43.1s-11.7-1-11.7 10.5 2.2 17.3 9 16.7 15.3 3.6 15.5-7.7c.3-11.3-.3-20.3-12.8-19.5z"/></svg>