<svg version="1" xmlns="http://www.w3.org/2000/svg" width="432" height="432"><ellipse fill="none" stroke="#000" stroke-width="2" stroke-miterlimit="10" cx="205.3" cy="68.1" rx="19" ry="31.1"/><path fill="none" stroke="#000" stroke-width="2" stroke-miterlimit="10" d="M200.2 98v9.2h11.1v-9.7"/><path fill="none" stroke="#000" stroke-width="2" stroke-miterlimit="10" d="M225.1 130.2c-.8 32.1-2.2 86.5-2.2 86.5h-36.7l-3.8-109.5h43.2s-.2 6.1-.4 15.4l-.1 7.6z"/><path fill="none" stroke="#000" stroke-width="2" stroke-miterlimit="10" d="M182.2 107.3l-21.3 45.4 2.2 56.1 7 1 3.8-52.5 9.6-21.1m-9.6 21.1l-13-4.6"/><path fill="none" stroke="#000" stroke-width="2" stroke-miterlimit="10" d="M170.1 209.8l5.2 7.9-2.6 4-5.3-4.9.7 14.7-8.7 5.7-5.1-9 8.8-19.4m62.6-101.6l21.3 45.5-2.2 56.1-7 1-3.8-52.5-9-22.5m9 22.5l13-4.6m-2.2 56.1l4.9 4.9.9 7.8-12.1 1.8-2.5-3m1.8-10.5l-5.6 5.7s.5.9 1.1 2m2.8-3.6l3.7 6.6m-25.7 8.4l58-8 5.9 38.8-59 7.1zm20.2-2.7s-2.4-5.4 4.1-8.2m11.8-.8c4.4 1.8 4.8 6.1 4.8 6.1m-4.9-9.5s6.1-.1 8.7 8.6m-22.1-6.9s-6.8 1.8-5.9 10.5m-44.5-9.2l6 159.5h8.9l2.9-159.5"/><path fill="none" stroke="#000" stroke-width="2" stroke-miterlimit="10" d="M207 216.8l8.7 159.6h9.4s-.8-63-1.4-109.8m-.6-39.1c-.1-6.7-.1-10.7-.1-10.7m-30.7 159.5l-25 8.6 17.3 8.5 16.6-17.1"/><path fill="none" stroke="#000" stroke-width="2" stroke-miterlimit="10" d="M215.6 376.3l13 18.6 16.6-6.8-19.6-11.8m-29.6-269l-1.2 6.9 7.6-5.6m10.8-1.3l2.8 6.9-6-4.6"/><path fill="none" stroke="#000" stroke-width="2" stroke-miterlimit="10" d="M208.1 118h-4.6c-1.3 0-2.4-1.1-2.4-2.4V111c0-1.3 1.1-2.4 2.4-2.4h4.6c1.3 0 2.4 1.1 2.4 2.4v4.6c-.1 1.3-1.1 2.4-2.4 2.4zm-4.7 0l-4.3 31.1 6.1 21 5.2-21-3.2-31.1"/></svg>