<svg version="1" xmlns="http://www.w3.org/2000/svg" width="288" height="288"><ellipse transform="rotate(-8.5 101.405 40.773)" fill="none" stroke="#000" stroke-width="2" stroke-miterlimit="10" cx="101.4" cy="40.8" rx="16" ry="23.6"/><ellipse transform="rotate(-86.992 179.15 40.784) scale(.99998)" fill="none" stroke="#000" stroke-width="2" stroke-miterlimit="10" cx="179.1" cy="40.8" rx="23.3" ry="14.3"/><path fill="none" stroke="#000" stroke-width="2" stroke-miterlimit="10" d="M100.5 63.4c.7 3.3 1.8 8 1.8 8l7-.3V63m63.8-.6v7.4h7.5l1-6.3M89.2 73.9c1.8 0 35.4-4.5 35.4-4.5l2.1 76.1-27.9 1.8-9.6-73.4z"/><path fill="none" stroke="#000" stroke-width="2" stroke-miterlimit="10" d="M89.2 73.9s-19.6 23.5-22.3 37.4l29.9 21.3m-22.5-16s9.2-17.1 17.1-23m-8.9 11.1l12.8 15.9m1.2 15.3l-14.1-.9 2.8 9.2 11.8-4.1m27.6-70.7l21.1 25.7 13.1-21.2 15.7.9.6 6.8-14.1-.5-13.8 28.1-22.3-22.1m20.8 8l1.5 14.1"/><path fill="none" stroke="#000" stroke-width="2" stroke-miterlimit="10" d="M158.5 74.7c-.2-3.3-.3-5.2-.3-5.2s26.5-.4 37.7 4.5l-7.1 65.8-26.7-2-2.9-53m-1-15.9s-.5 3.3-1.2 8.1"/><path fill="none" stroke="#000" stroke-width="2" stroke-miterlimit="10" d="M154.5 94.4c-1.5 9.8-2.7 18.2-2.7 18.2l3.8 27 4.7-1.6.2-29.7m35.4-34.4l9.8 40.1-1.8 27.9-6.7-1.8-1.3-24.3-3.5-9.8m3.5 9.8l9.6-2.5M155.3 139l-1.1 13.5 4.3 8.4h3.7m35.1-20.4l-2.5 11.3L200 165l6.7-5.5-2.7-17.2zm-98.6 6.8l6.3 98.4h4.3l3.1-98.4 9.5 98.4h4.8V145.5"/><path fill="none" stroke="#000" stroke-width="2" stroke-miterlimit="10" d="M162 137.6v102.7h8l6.1-93"/><path fill="none" stroke="#000" stroke-width="2" stroke-miterlimit="10" d="M188.8 139.6l6.2 103.3-6.2 1.3L175 139m-70.6 107.6l-22.3 12.8 22.3 9.4 6.1-21.4zm16.8 0l3 24.1 17.8-11-14-13.1zm40.8-5.4l-14.7 13.5 16.9 6 6.6-19.5zm25 3.6l9.5-2 14 14.9-18 7.7z"/></svg>