<svg version="1" xmlns="http://www.w3.org/2000/svg" width="288" height="288"><ellipse transform="rotate(-1.057 110.148 39.695) scale(.99997)" fill="none" stroke="#000" stroke-width="2" stroke-miterlimit="10" cx="110.1" cy="39.7" rx="14.3" ry="23.3"/><ellipse transform="matrix(.9976 -.06973 .06973 .9976 -2.565 11.934)" fill="none" stroke="#000" stroke-width="2" stroke-miterlimit="10" cx="169.7" cy="42.7" rx="13.8" ry="21.4"/><path fill="none" stroke="#000" stroke-width="2" stroke-miterlimit="10" d="M105.9 61.7v9l7.7.1 1.5-9.1m51.1 1.3l1.5 6.3 7.4-.4-.3-5.9m-83 31.8c.4-12.3.7-22.6.6-24.1 0 0 19.8-.4 33.7 2.5 0 0-.3 10.7-.8 23.6m-32.9-26S87 82.5 82.7 91.9m-1.4 3c-2.3 5.1-4.1 8.9-4.1 8.9s12 13.2 40.3 2.6"/><path fill="none" stroke="#000" stroke-width="2" stroke-miterlimit="10" d="M125.5 73s10.4 20.5 11.5 37.7l-42.6-9.4-9.6 1.5-4.9-11.1 14.5 3 35 1.8"/><path fill="none" stroke="#000" stroke-width="2" stroke-miterlimit="10" d="M125.5 90.6l-6.8-2.2-6.9 7.1m13.1 13.4c-.5 16.9-1.1 33.4-1.1 33.4l-33.7-1.1s.6-15.4 1.1-31.9m66.7-38.4l27-3.1s8 49.2 3.3 74.5l-30.3 1.2s6.9-52.2 0-72.6z"/><path fill="none" stroke="#000" stroke-width="2" stroke-miterlimit="10" d="M157.9 71.9s-21.7 26.2-7.1 76.1l5.3-2.7s-5.2-36.9 4.8-47m-14.7 7.4l9.7 4.9M185 67.8s18.7 15.9 25.3 27.7l-20.5 30.1m-2.3-38.9l17.2 17m-9.1-8.2l-6.4 10.8"/><path fill="none" stroke="#000" stroke-width="2" stroke-miterlimit="10" d="M150.1 148l.8 13.9 6 9.1h3.6l-2.2-23-2.2-3.2zm39.7-15.1s7.6 2.9 7.9 2.7c.2-.2 12.6-7.1 12.6-7.1l-6.5-6.9-14 4.3m-1.6 16.4s7.4 53.9 9.4 106.6h-5.2l-18.6-105.4m-82-2.3s1.4 50.1 2.8 99.6h5.9l7-98.5m16.3 0v98.5h-6.3l-8.6-98.5"/><path fill="none" stroke="#000" stroke-width="2" stroke-miterlimit="10" d="M157.9 143.5l8.9 95.7h7l.8-91.2M95 241.6l-14.3 10.5 15.7 8.7 5.6-18.6zm22.5 0h7.3l20.9 10.5-13.2 10zm49.9-1.5c-.4 0-20.5 8-20.5 8l13.5 8.1 14.2-16.1h-7.2zm24.7 8.8l7.4.5 18.4 9.7-16.4 6.6z"/></svg>