<svg version="1" xmlns="http://www.w3.org/2000/svg" width="511.2" height="432"><g fill="#27AAE1"><path d="M269.4 21s16.6 23.5-1.3 43.2c0 0 13.6-1.8 14.4-19.1.7-17.3-11.2-24.1-13.1-24.1zm9.5 49.5l-5.2 68.3-15.8 4.1s8 3.3 17.3.3l-2.2 65.1 4-1 5.3-65.8 2.5-71h-5.9z"/><path d="M284.4 83l10.9 19.5-.9 41.5h-3.8l-.2-39.8-7.9-12.7z"/></g><g fill="none" stroke="#000" stroke-width="2" stroke-miterlimit="10"><ellipse cx="268.1" cy="42.6" rx="14.4" ry="21.6"/><path d="M258 24.1s15.6 1 19.1-.6m-20.8 3.6s14.8 3.1 24 0m-25.6 3.4s18.4 4.4 27 0M263 62.8v7h9.5l-.7-6.3m-19.9 7h33l-2.5 71s-15.8 5.7-28.7 0l-1.8-71z"/><path d="M251.9 70.5l-20.5-7.7-7.5-24.8 2.8-6.5-.5-8-8.7-1-2-13.1-3.9 2.2v18.9l5 8.9 7.6 31.1 27.7 14.4m-20.5-22.1l-7.2 7.7m60.7 0l15.5 32-3.6 41.5h-6.2v-39.5l-6.3-12.2m6.3 51.7l-4.3 8 3.5 2.2 2.6-2.7v17.3l10-5.5-5.6-19.3m-43.1-2.5l4.3 66.8m24.4-66.8l-5.3 66.8m-9.6-64.3l.9 62.7"/><ellipse transform="rotate(-83.736 230.355 100.458)" cx="230.3" cy="100.5" rx="10" ry="7.7"/><path d="M225.9 109l-.6 3.5m6.1-1.8l-.7 3.1m-19.1 23.7l7.8-25.8 14.2 3s0 19.8 1.5 24.2m-43.6-48.3l-.8 4 6.5 1.2.5-3.8"/><ellipse transform="rotate(-80.938 197.641 78.63)" cx="197.6" cy="78.6" rx="13.4" ry="10.1"/><path d="M175.1 130.5l11.3-36.7 14 2.5s0 32.7 1.8 37.5"/><ellipse transform="rotate(-14.211 322.906 80.091)" cx="322.9" cy="80.1" rx="9.2" ry="12.4"/><path d="M323.3 92.3l1.4 3.9m4.6-6l1.4 4.1m-9.1 33.7c0-.7-2.7-29.2-2.7-29.2l17.5-6.5 11 26.7"/><ellipse transform="rotate(-3.784 349.389 57.486) scale(.99998)" cx="349.4" cy="57.5" rx="8.9" ry="12.3"/><path d="M350.2 69.7l1.5 3.2m3.8-6.2l1.7 3m-3.8 37.6l-6-32.1 14.2-7.5 14.7 24.6"/><ellipse transform="rotate(-84.441 202.49 166.062)" cx="202.5" cy="166.1" rx="20.5" ry="14.9"/><path d="M195.1 184.5l-.8 4.6 7.7 1.3.5-3.9"/><path d="M175.1 220l8.3-32.8 29.5 5 2.2 60.3"/><ellipse transform="rotate(-84.804 141.006 105.91) scale(1.00001)" cx="141" cy="105.9" rx="23.9" ry="16.7"/><path d="M134 128.3s-.7 6.3-.5 6.3 9.7.9 9.7.9l.4-6.4"/><path d="M110.6 215c1-2.8 5.8-61.8 14.5-81.2l25.3 2.4s4.8 65.2 12.8 80.8"/><ellipse cx="335.6" cy="181.9" rx="17" ry="21.8"/><path d="M335.6 204.2l2.1 5.1 8.8-3.7-2.2-4.9"/><path d="M325.6 263l2.7-49.7 30-12.7s16 36 16 59"/><ellipse transform="rotate(-3.021 378.595 125.185) scale(.99999)" cx="378.6" cy="125.2" rx="14.7" ry="20.3"/><path d="M379.7 145.5l3.4 5.8m5.7-11c.5.3 3.5 5.1 3.5 5.1m-6.4 86.4l-11.7-75.4 25.3-14.9s22.7 26.2 31.7 75.5"/><ellipse transform="rotate(-16.784 444.604 153.878)" cx="444.6" cy="153.9" rx="12.7" ry="18.6"/><path d="M448 172.1l2.5 4.2 6.4-3.4-2.6-4.1"/><path d="M491.4 220.2c-6.2-25.2-27-51.4-27-51.4l-24.2 13.1 12.2 54.1"/><ellipse transform="rotate(-79.537 92.554 147.79)" cx="92.6" cy="147.8" rx="20" ry="13.7"/><path d="M83.5 164.5l-2.1 5.5 7.6 2 1.8-4.3"/><path d="M52.9 218.3c1.3-1.3 19.3-50.7 19.3-50.7l23 6v23.7"/><ellipse transform="rotate(-78.861 77.925 243.993)" cx="77.9" cy="244" rx="25.7" ry="18.3"/><path d="M65.5 265l-3.4 7.4 10.6 2.8s1-5.9 1.3-5.8m-53.4 88.3c.3-1 18.3-68.3 30-88.3l30.3 8s.4 78.3 9 95m74.2-91.1c-5.1-4.8-8.1-13.4-7.1-22.7 1.4-13.7 10.6-24 20.6-23s16.9 13 15.5 26.7c-1.1 11-7.2 19.7-14.7 22.3"/><path d="M195.1 374v-80c-21.5-20-54.2-11-54.2-11l-12.7 80.7m144.1-95.5c-6.6-2.8-11.8-10.1-12.8-19.3-1.4-12.3 5.3-23.2 15-24.3s18.7 8 20.1 20.4c.9 8.1-1.7 15.6-6.3 20.1"/><path d="M255.9 274.7s24.4-11.7 46.6-10.3l2.8 10.3m-72 60.9c-6.6-5.1-10.6-15.4-9.8-27 1.1-16 11-28.3 22.1-27.6 11.1.8 19.2 14.3 18.1 30.3-.8 12-6.6 22-14.2 25.9"/><path d="M198.9 412c.3-1.3 20.7-75.3 20.7-75.3s31.7-5 42.3 6.7l3 81.7m64.2-102.9l2.5 4.1-11.4 6-3.1-5.6"/><ellipse transform="rotate(-86.847 318.602 299.412)" cx="318.6" cy="299.4" rx="27.3" ry="20"/><path d="M374.3 414.3s-10.7-63.7-32.3-93.5l-32 16.8-4.7 87.3"/><ellipse transform="rotate(-86.847 409.547 255.703)" cx="409.5" cy="255.7" rx="33.1" ry="24.3"/><path d="M425.6 288.2l-3.2-4.9m-12.8 5.5l2.8 6.3m64.8 100.1s-12.9-77.3-39.3-113.5l-38.8 20.4-5.7 106"/></g></svg>