<svg version="1" xmlns="http://www.w3.org/2000/svg" width="432" height="432"><g fill="#27AAE1"><path d="M218.8 29.3s29.3 38.3-.9 67.3c0 0 20.4-3.8 20.4-33.7s-19.5-33.6-19.5-33.6zm11 75v46l4.9 2.5 5.5-5.5v-43zm0 103.2l7 174s12.5 19.7 13.2 20 15.7-6 15.7-6l-25.4-14.3-1.8-171.4-3.3-4.2-5.4 1.9zm-22.8 2.3l.5 171.7L181 395l18 9.3 13.3-22.8 5.7-162h-6.7v-9.6z"/><path d="M239.8 115.2l21.9 21.8-12.4 24.7-2.2-2.5 3.7-4.2-3-2.6 6.8-15.1-14.8-12.1z"/></g><g fill="none" stroke="#000" stroke-width="2" stroke-miterlimit="10"><circle cx="218" cy="179.3" r="15.8"/><path d="M247.1 159.2l4.2-4.2-9.4-9.4-7.2 7.2c-3-1.9-6.4-3.3-10-4.1v-10.3h-13.4v10.3c-3.6.8-7 2.2-10 4.1l-7.2-7.2-9.4 9.4 2.6 2.6m-1.4 14.7h-8.5v13.4h9.9c.8 3.7 2.2 7.2 4.2 10.4l-6.9 6.9 9.4 9.4 6.8-6.8c3.1 2.1 6.7 3.6 10.4 4.4v9.6h13.4V210c3.8-.8 7.3-2.3 10.4-4.4l6.8 6.8 9.4-9.4-6.9-6.9c2-3.1 3.4-6.6 4.2-10.4h9.9v-13.4h-10c-.1-.3-.1-.5-.2-.8"/><ellipse cx="217.1" cy="63" rx="21.3" ry="33.7"/><path d="M204.2 32.4s10.2 3.2 25.8 0m-28.8 3.8s18.9 4.4 31.5 0m-33.9 4.4s18.8 6 36.9 0m-23.4 55.2c-.1.6 0 8.4 0 8.4m11.4-9.2v9.2m-30.1 42.5c-.7-22.7-1.4-42.4-1.4-42.4h48s-.4 20.6-.8 43.9m-1 60.3c-.1 3.2-.1 5-.1 5s-6.6.2-13.4.4m-13.6.4c-8.4.2-15.5.5-15.5.5s0-1.4-.1-3.9m-3.5-106.7l-31.7 33.3 20 29.8"/><path d="M192.9 123.5l-15.5 14.2 8.8 15.7m-8.8-15.7h-16.2m79-33.4l31.7 33.2-20 29.8"/><path d="M239.6 123.5l15.4 14.2-6.3 14.7m-3.4 5.2c.7.5 8.5 11.2 7.9 11.3s-13 8.2-13 8.2l-5-6.6 10.1-12.9zm9.7-19.9h16.2m-75.4 77.1l8.4 166.7h8.1l5.7-162 14.3 162h7.9l-1.9-168m-34.1 168l-24.5 10.3 19.5 9.7 13.1-20m20 0l13.2 20 18.7-7.3-24-12.7m-52.4-224.8l-8.3 11.8 14.7 8.6 3.6-9.7z"/></g><path fill="none" d="M223.5 30c4.1 0 8.1.1 12.2.1-6.3 1.9-12.5 4.3-18.4 7.2 7.9.1 15.8.1 23.6.2-5.3 1.5-10.6 3.5-15.6 5.9 5.9.1 11.8.1 17.8.2-7 1.6-13.9 3.7-20.6 6.2l20.7.3c-4.7 2.2-9.6 3.8-14.7 4.9l17.8.3c-7.4 2.8-15 5-22.8 6.6 6.4.2 12.8.5 19.2.7-4.7 1.9-9.6 3-14.7 3.4 4.4 0 8.8.1 13.2.1-5.3 2.7-10.5 5.5-15.8 8.2 5.1.1 10.2.1 15.3.2-3.6 2.3-7.3 4.3-11.3 5.9 4.1.1 8.1.1 12.2.2-5.8 4.8-12.2 8.8-19.1 11.8 6-.9 12-1.8 18-2.6-7 3.2-14 6.3-21 9.5 9.3 1.6 18.8 2.4 28.2 2.2-8.3 2.1-16.6 4.3-25 6.4 10-.2 19.9-.3 29.9-.5l-24.3 7.8c12.4 0 24.9-.1 37.3-.1-11.2 1.5-22.3 3.9-33.2 7.1l32.3.3c-14.9.8-29.7 2.7-44.3 5.7 14.9-.6 29.8.6 44.4 3.5-12.7-.1-25.5 1.4-37.8 4.6 16.4.9 32.7 1.7 49.1 2.6-12.4.1-24.8 2.1-36.6 5.7l23.4 2.7c-15 .3-30 2.1-44.7 5.3 16.8 2.5 33.8 3.2 50.7 2.1-10.7-.8-21.4.2-31.8 3 5.4 4.8 13.2 6.8 20.2 5.2-6 8.5-12 17.1-19.8 24.1s-17.5 12.2-27.9 12.6c-.4 3.8-2.6 7.4-5.9 9.4 16.7-.7 33.5-.6 50.3 0-13.9 2.4-27.9 4.1-42 5.2 15.6.4 31.2.9 46.9 1.3-21.7.2-43.3 1.6-64.9 4 18.4 2.7 37.1 2.9 55.6.8-17.6 6.3-36.1 9.9-54.8 10.6 19.6.8 39.1 2.2 58.6 4.1-18.4 5.6-37.4 8.9-56.5 10 19.3.5 38.7 1 58 1.6-19.2 5.2-39 8.4-58.8 9.5 22.5 1.8 45 3.7 67.6 5.5-21.9 2.2-43.9 4.3-65.8 6.5 18.5.4 37.1.7 55.6 1.1-15.6-.3-31.3 1.6-46.4 5.7 20.4.3 40.8.7 61.1 1-20.9.6-42.3 1.3-61.8 8.6 15.4.5 30.8 1.1 46.2 1.6-18.7-1.4-37.6 1.4-55 8.2 20.4 1.8 40.9 2.5 61.3 1.9-15.2 1.4-30.2 3.7-45.1 7.1 13.7 1.5 27.6 1.9 41.4 1.1-21.4 2.6-42.4 8.2-62.2 16.6 14.1-1 28.2-1.9 42.4-2.9-8.1-.7-16.5 1.7-23.1 6.6 12.1 2.6 24.9 1.3 36.2-3.7 3.6-1.6 7.5-4.5 6.9-8.4-16-1.1-32.2 1.1-47.4 6.3 11.7 1.6 23.4 2.6 35.2 2.8-22.8 2.9-45.7 5.9-68.5 8.8 20.9 1.3 41.8 2 62.7 2.1l-41 .9c18.3.3 36.7.5 55 .8-20 2.6-40.1 5.1-60.1 7.7 15.5 1.3 31.1 1.5 46.7.4-17.3 1.1-34.6 3.8-51.4 7.9 18.6 1.5 37.2 3 55.8 4.6-10.7 1.1-21.4 2.1-32.1 3.2 14.9.2 29.8 1.9 44.3 5.3-23.2 1.7-46.3 5.6-68.7 11.6 16.1.8 45.5.8 61.6 1.6-15.4.5-44 5.3-57.9 12.1 1.2 3.7 5.8 4.7 9.6 5 20.2 1.8 40.6 2.4 60.9 1.6-23.1-2.8-46.5-3.7-69.8-2.8 28.7 4.6 57.8 6.4 86.8 5.4-13.2.2-26.5 1.5-39.5 3.8 14.6 2 29.9-.8 42.9-7.9-4.2-4-10.4-4.5-16.2-4.8-22.4-1.1-44.9-1.6-67.4-1.3 22 1 44.1 1.2 66.2.5-28.9-2.2-57.9-4.4-86.8-6.7 22.6 1.7 45.3 2.5 68 2.3-8.6-.1-17.1 1.3-25.2 4 .7-2.1 1.5-4.2 2.2-6.4"/></svg>