<svg version="1" xmlns="http://www.w3.org/2000/svg" width="432" height="432"><g fill="#27AAE1"><path d="M229.2 22s10.1 48.3-21.2 60.6c0 0 15.8 7.3 27.1-17.1 11.4-24.3-.9-41.2-5.9-43.5zm-1.6 68.5l1.7 12.3s4.2 14.7 3.9 13.5.2-26.1.2-26.1l-5.8.3zm-11.3 121.2l8 174.8s-26.7 15.5-26 16.2c.7.8 17.8 11 17.8 11l16.4-27.2 3.2-157.9-9.2 5.9-4-5 2.7-13.4-3.7.9-2.4-3.5 1.1-1.6-3.9-.2z"/><path d="M207.3 211l7.7 167.5-26.5 6.5 11.1 8.8 20.8-10.6-7.4-171.7z"/></g><g fill="none" stroke="#000" stroke-width="2" stroke-miterlimit="10"><path d="M227.1 21.8c-7.3-2-15.4 2.9-21.2 11.7l13.4.7-1.5 7.6-16.9 1.7c-.5 1.3-.9 2.7-1.3 4-4.6 17.1.2 33.2 10.8 36.1 10.6 2.9 22.9-8.7 27.5-25.7 4.6-17.1-.2-33.2-10.8-36.1zm-10.2.2s11.9 5.4 20 6.6m-24.3-4.9s10.3 6.8 26.2 9m-29.3-6s11.8 8 29.3 10.1M235.6 194c.2 11 .4 18.3.4 18.3h-1.7m-14.1-.4c-7-.3-14.2-.8-17.2-1.6L198.3 93l35-2.8s.3 12.2.6 28.8m-24.2-35.8v8.9m13.2-10.9l1.1 9.7m12 121.4s-.1 4.8-.3 12.8"/><path d="M235.7 228.6c-.9 43.3-3.2 157.9-3.2 157.9h-11.8l-7.8-175"/><path d="M203 210.3l9 168.2h8.4m.4 8L194.5 398l19.8 12.5 18.2-24m-20.5-8l-24.8 3.3 13.6 9.7m27.9-292.7l13.4 53.4-8.6 55.8-9-1.7 3.1-51.8-11.3-49.7"/><path d="M225.1 206.1l-6 8.2 2.4 2.9 3.7-1.1-2.8 13.4 3.9 5.3 9.7-6.8-2.5-20m-33.9 183.5l20.8-8.3m7.2-228.7l14.5-2.3m-42.5-59.3l-27-30.6 24.8-18.5 20.5-2 1.4-7.7-21.9-1-45.3 29.8 47 50.3m-22.1-23l8.7-13"/></g><path fill="none" d="M226 23.6c3.4-.9 7.3-.3 10.2 1.8-3.5 1.7-7.1 3.5-10.6 5.2 3.6.3 7.1.6 10.7.8-4.6 1.3-9.3 2.5-13.9 3.8 7.2-.4 14.5.2 21.6 1.7-9.6.8-19.2 3.1-28.1 6.8l29 .3c-8.8.9-17.6 2.3-26.3 4.1 7.7.1 15.3.1 23 .2-10.6 4-21.4 7.3-32.5 9.9 9 .2 18.1.4 27.1.5-8 4-16.5 6.8-25.3 8.2 9.2-1.5 18.5-2 27.8-1.6-11.6 5.5-24 9.2-36.7 11 9.6-.4 19.2-.2 28.8.5-7.1 4.6-15.1 7.8-23.5 9.3 10.9-2.4 22.1-3.4 33.3-3.2-8.1 2.7-16.3 5.5-24.4 8.2 5.5-.5 11-.2 16.4.8-3.3 1.8-6.3 4.1-9 6.7l10.5.3c-3.1 2.7-6.2 5.3-9.3 8 2.2.3 4.5.5 6.7.8-2.9.5-5.5 2.6-6.7 5.3 5.3 2 6.8 8.8 6.7 14.5-.3 14.2-6 28.2-15.7 38.5 5.1 1.5 10.1 3.4 14.9 5.8-6.2 5.5-13.4 9.9-21.2 12.8 6.6.2 13.3.4 19.9.6-8.2 4.4-16.3 8.8-24.5 13.1 8.9 0 17.9 0 26.8.1-8.6 5.7-17.8 10.7-27.2 15 11.9-1.6 23.8-3.3 35.7-4.9-12.8 4.5-25.2 9.7-37.4 15.7 11.1.7 22.2 0 33.1-2-11.8 4.6-23.1 10.6-33.6 17.8 12 1.3 24.2 1.4 36.2.2-6.7 2.9-13.5 5.8-20.2 8.7 9.5-1.2 19.1-2.3 28.6-3.5-15.9 3-31.4 7.8-46.3 14.2 15.9-1.2 31.9-2.4 47.8-3.6-12.3 5.2-25.1 9.2-38.2 12 4.6.9 9.4.9 14.1.1-9.1 2.1-18 5.3-26.5 9.3 14.5-1.7 29-3.4 43.6-5-6.8 3.3-13.7 6.5-20.5 9.8 7 .3 14-.2 20.8-1.5-10.9 3.2-21.1 9.1-29.4 16.9 10-.8 19.9-3 29.4-6.4-12.6 5.3-24.5 12.1-35.5 20.2 8.7-2.9 17.5-5.8 26.2-8.7l-27.9 14.1 36-1.5c-8.8 3.8-17.7 7.6-26.5 11.4 5.2 1.4 10.8 1.5 16.1.2-11.4 3.7-22.1 9.3-31.6 16.6 13.9-1 27.9-2.1 41.8-3.1-7 3.2-13.6 7.1-19.6 11.7 6.2.9 12.6 0 18.2-2.7-14.2 4.4-27.8 11-40 19.5 11.5 2.9 23.7 2.7 35.1-.7-10.2 1.4-20.2 3.9-29.8 7.3 5 1.3 10.2 1.7 15.3 1.2-10.9 1.5-21.6 4.8-31.5 9.7 12.6-.4 25.2-2.3 37.4-5.8-9.1 1.6-17.8 5.1-25.4 10.2 14.3-.5 28.5-2.1 42.6-4.6-8.4 2.3-16.5 5.9-23.9 10.5 5.7-.1 11.3-.9 16.7-2.5-13.4 3.1-26.6 7.1-39.5 11.9 4.3-.3 8.6-1.9 12.1-4.4-5.8.1-11.5 2.4-15.6 6.4 10 2.2 20.4 3 30.6 2.3l1.5-3.6"/></svg>