<svg version="1" xmlns="http://www.w3.org/2000/svg" width="432" height="432"><path d="M239.9 37.1s17.5 43.7-12 60.7c0 0 16.7 1.1 23.5-20.6 6.8-21.7-5.5-39.3-11.5-40.1zm-9.4 89.1L213.8 221l14.9 169.2 4.6-.9 27-2.8-13.7-7.5-13.6 3-9-160.5 7.4-36.6 10.9-61.4zm-37.7 91.4l-11.5 180.1h5.7l21.4-5-10.7-4.9-11.7 2.9 17.3-170.8z" fill="#27AAE1"/><g fill="none" stroke="#000" stroke-width="2" stroke-miterlimit="10"><ellipse transform="rotate(-81.46 232.468 67.026)" cx="232.5" cy="67" rx="31" ry="20.5"/><path d="M226.5 36.8s8.1 4.9 20.5 3.4m-24-.8s14 6.6 26.8 4.1m-30.3-1.1s19 9.4 31.9 4.8m-9.1 76.3c-3.7 20.8-17.6 99.2-17.6 99.2L183 216l15.3-114.3s25-3.7 42.3 6m-5.5-10.8l.9 8.7m-15.1-11l-2.3 7.8"/><path d="M198 104l-28.5 46 15.5 51.3"/><path d="M192.8 143.2l-7.3 7.5 3.6 20.1m-3.6-20.1l-16-.7m13.5 66l-8 181.7h10.5l17.8-177.8h2.5L224 391.2l9.3-1.9-8.5-166.5"/><path d="M185.5 397.7c.8.3 24.4-4.2 24.4-4.2l-11.5-5.8-12.2 2.8m47.1-1.2c1.2.3 27-2.8 27-2.8l-13.5-7.5-13.9 3m20.8-316.4L257 67l9 34s-29 8-43 11"/><path d="M219.6 128.5c21.4-4.5 63.5-14.4 63.5-14.4s-2.6.6 0 0C277 96 266 59 266 59s-10.5-5-14.6-7.5m-3.6 54.1l5.5 15.3"/></g><path fill="none" d="M233 38.4c4.9-.3 9.8-.7 14.6-1-7.2 1.2-14.2 3.6-20.7 6.9 10.2 1.6 20.6 2 30.9 1.3-8 .5-15.9 1.9-23.5 4.2 5.7-.6 11.4-.3 17 1-5.1.8-10 2.7-14.2 5.6 7 .1 14.1.8 21 2-7.3 1-14.6 2.8-21.6 5.2l17.4.3c-6.9 2-14 3.5-21.1 4.6 9.5 0 19 0 28.5-.1-7.7 3.2-15.9 5-24.1 5.4 3.1-.6 6.4-.1 9.3 1.3-4.8 2.2-9.7 4.4-14.5 6.5h24.1c-8.3 1.6-16.7 3.2-25 4.8h7.9c-5.7 2.5-11 6-15.6 10.1h25.2c-7.2 1.3-14.4 2.7-21.6 4 3.6-.3 7.3-.2 10.9.3-5.9 5.1-11.4 10.7-16.6 16.5 9.1-.4 17.5 9.9 26.5 11.2-11.6 3.8-22.2-1.3-33 4.4 8.4.5 16.7 2 24.7 4.6-5.3 4.3-11.2 8-17.4 10.9 6.8.6 13.7 1.1 20.5 1.7-6.3 1.8-12.5 3.7-18.8 5.5 8.3.1 16.7.1 25 .2-10.5 1.9-20.9 4.3-31.1 7.2 7.6.7 15.3 1.5 22.9 2.2-11.6 2.5-22.9 6.3-33.6 11.3 15.5-.6 31-.2 46.4 1.2-14.6 1.3-29 3.7-43.2 7.2 11.2.5 22.4.9 33.6 1.4-15.5 2.5-30.9 5-46.4 7.6 12.6-.7 25.2-.3 37.7 1.1-17.6 1.4-35 4.5-52 9.2 16.7 1 33.5 2.1 50.2 3.1-18.2 2.1-36.3 5.2-54.2 9.3 15.6 1 31.4.4 46.9-1.8-16.4 1.4-32.5 5.5-47.6 12.1 14 1.1 28.1 1.3 42.2.6-13.8 1.8-27.3 5.4-40.1 10.7 14.4.4 28.8.5 43.2.2-9.6 1.2-19.1 3.2-28.3 6 14.4.5 28.7.2 43.1-.8-21.9 3.8-43.3 10.2-63.7 19-5 2.2-10.4 4.9-12.5 9.9 31.3-12.6 65.2-18.7 98.9-17.8-39.8-1.2-79.8 2.5-118.7 10.8 26.8-.2 53.8-.5 80 5.1-13.7 3.6-27.8 5.5-41.9 5.8 18.6 1.4 37.2 2 55.8 2.1-32.4-.6-64.8 1.5-96.9 6.2 27.4 3.2 55 4.1 82.5 2.9-19.6 3-38.8 8.8-56.9 17 20 .4 40 .8 59.9 1.2-20.5.8-41.1 1.6-61.6 2.4 25-.5 50-.9 75-1.4-24.4 2.2-49 3.3-73.5 3.5 21.5 1 42.9 2.6 64.3 4.8-27.6.3-55.2 3.2-82.3 8.5 26.4 4.1 53 6.5 79.6 7.3-11.8 1-23.5 3.7-34.6 7.9 26.4-4 53.2-5.4 79.9-4.3-34.4 7.2-68.8 14.3-103.2 21.5 16.1.4 32.3.3 48.4-.4-11.5 2.1-22.9 5-34 8.5l68 .3c-33.6-2.4-67.8 3-99.1 15.5l119.1-1.2c-20.9 2.4-42 3.2-63 2.3 10.8-1.3 21.6-1.8 32.5-1.5-27 .8-54 2.9-80.9 6.4l54 2.4c-9.8.1-19.7 2.5-28.4 7.1 18.2 1.8 36.5 2.3 54.7 1.5l-62.3.3c27.9-2.6 55.7-5.3 83.6-7.9-20.9-4.4-42.1-6.8-63.5-7.2 15.2-2.6 30.5-4.4 45.8-5.3-6.4-1.1-12.9-2.3-19.3-3.4.7-1.2 1.3-2.5 2-3.7"/></svg>