<svg version="1" xmlns="http://www.w3.org/2000/svg" width="432" height="432"><path fill="#27AAE1" d="M220.9 177.2l-21.8 37 13.5-1.3 18.1-28.6-1.4-6.1z"/><g fill="none" stroke="#000" stroke-width="2" stroke-miterlimit="10"><ellipse cx="211.4" cy="274.1" rx="59.6" ry="61.2"/><path d="M168.9 232l3.1-.8s1.7.7 2.5.8 4.1.1 4.7-.4c.6-.6 1.8-1.6 2.5-1.6s2.3-.3 3.1 0 3-.4 4.1-.1c1.1.3 5.5.6 6.6-.1 1.1-.7 4.5-2.2 4.5-2.2h2.5s3.5 1.8 4.2 2.2c.7.5 2.1 2.7 1.8 3.4s-1.1 3.7-1.1 3.7l-.1 4.7 1.3.8 4.5-1.6 4.4-2.5 3.5-2.1 4.9-.4 1 1v2.4l-2.5 3.3.7 2.3 3.3 3.3 1 2.3 1.8 3v2.1h-10.9s-.7 3-.8 3.5c-.1.6-.3 3.8-.3 3.8s-.8 2.3-2 2.5-3.3 0-3.3 0l-3.7 1s-1.6 1.8-1.6 2.5.6 1.6 1.1 2.8c.6 1.3 2.1 3.3 1.4 3.8-.8.6-1.8 2-3.3 1.7s-3.5-.1-5.2-1.6c-1.7-1.4-4.5-3.1-4.5-3.1s-1.7-1.3-4.1-1.1c-2.4.1-2.3-.3-3.3.6-1 .8-1 2.3-1 2.3l.8 3.9s1.6 3.5 2 4.2 3.3 5.2 5.1 5.5 4-1.3 4.4 0 4.9 5.1 5.4 5.1c.4 0 3.1-.6 3.1-1.3s-.7-1.8-.1-3.5.8-3.7 1.8-4.2.1-.7 2.1-1.3c2-.6 4.2-1.3 4.2-1.3s1.8-.3 3.1-.3 3 .3 3 .7c0 .4.4 1.3.4 2.5 0 1.3 1.4 4.1 1.7 4.5s3 2.8 3.5 2.8c.6 0 4.2 1.3 4.2 1.3l4.1 1.1 1.4 2.4v4.4l-1 2.3-1.6 4-1.7 3.8s.1 2.8-.1 4.1 1.6.4-.6 2.8c-2.1 2.4-3.5 3.8-4 4.7s-3 4-3 4l-2.8 1.4-4.5.8-3-.7-2.8-3s-2.4-2.4-2.1-4.5c.3-2.1.4-2.5.6-3.4s.3-2.1.1-4.5c-.1-2.4-.4-4.1-.4-4.1l-.6-2-3.3-1.6-.8-.4-3.4-2.4-.1-2.1-.6-2.3-1.1-2.4-3.8-2.8-4.5-1.8-4.8-.4-6.9-1.6s.4 1.7-1.7-1.1-3-4.1-3-4.1-1-5.1-1-5.9-.8-3.4-.8-3.4h-2.1s-2.4-.2-2.5-.6-1-2.5-1-2.5l-2.4-4.9v-2.4s-3.7 0-3.7.4 1.8 3 0 3.4-2.8 2.1-3.5 1.3c-.7-.8-3.1-4.4-3.1-4.4s-2-3.4-2-4.1 1.1-9.2 1.6-9.3c.4-.1 4.5-2.1 4.5-2.1s2-2.5 1.4-2.8-3.4-4.2-3.4-4.2m110.7 19.2s-5.5 1.6-5.9 2-2.4 4.1-2.4 4.1l-3.8 5.2s-2.4 2.4-2.4 3.3v9.8l1.8 3.8s1.7 1.3 2.1 2.3.7 3.5.7 3.5-.1 2.8 0 3.3c.1.4 3.4 3.5 3.4 3.5m-22.9-79.8s1.1 7.3 1.1 7.9-.3 4.4.8 5.7 3.5 2 4.1 2 1.3.1 2.4 0c1.1-.1 1.7.3 2.5.1s3.1-.5 3.8-.5c.7 0 2.5.1 2.5.1M216 168.7h-17c-6.6 0-12-5.4-12-12v-34.9c0-6.6 5.4-12 12-12h17c6.6 0 12 5.4 12 12v34.9c0 6.6-5.4 12-12 12zm12-34.8s8.5 6 0 10.1"/><path d="M187 141.9s4.8 1.4 10.4 0c5.6-1.4 8.5-4.1 15.5-1.4 7 2.7 15.2.5 15.2.5m-44.3 79.2c1.3-16.6 1.9-31.7 1.1-42.9 0 0 30.9-2.2 45 1 0 0 2.2 16.4 4.9 39.4"/><path d="M220.2 177.1c7.1-.6 24.1-9.9 24.1-9.9-2.5-5.4-7.8-57.6-12.5-64.1-4.8-6.5-24.3-.9-24.3-.9s-24.9-5.1-27.6 9.4c-2.7 14.5-7 47.2-10.7 52.4 0 0 9.1 9.2 22.4 13.1"/><path d="M201.8 168.7l.9 8 11.7-.1v-8.4m-1.8 44.7c9.9-15.6 18.1-28.6 18.1-28.6l-.8-6s-7.6-1.3-11.5-1.3c0 0-12.2 19.8-22.6 38.3m-10.4-37L122.2 233l16.6 23.5 46.2-56.8"/><path d="M126.4 239.9l-12.4 7.6.3 4.8 7.7-.3-10.6 14.7 14.2 1.6 10.5-16M187 135s-9.2 5 0 10.2"/></g><path fill="none" d="M218.7 178.3c5.3-.5 10.6-.5 15.8.1-5.6.2-11.2.4-16.7.7l17.7 2.4c-6.4-.2-12.9.1-19.3.7 6.4 0 12.8.3 19.1.9-6.9.7-13.8 1.3-20.8 2 6.4 0 12.8.1 19.2.5-8.2.2-16.3 1.2-24.4 2.9 5.1.8 10.2 1 15.3 1.3-4.3.5-8.5 1-12.8 1.4 5.9.2 11.8.3 17.7.5-6.9 1.2-14 .6-21 1.4-1.5.2-3.1.4-4.3 1.3 6.9-.1 13.8.2 20.7.9-5.4.1-10.8.5-16.2 1-1.5.2-3.2.4-4.3 1.5 8.9-.4 17.8-.3 26.6.4-9 .7-18.3-.4-26.8 2.8-.9.3-1.8.8-2.2 1.7l21.9-.3c-10.5.6-21.1 1.2-31.4 3.4l31.4.9c-8.1 1.5-16.2 3.1-24.3 4.6 8.4-.1 16.8-.2 25.2-.2-7.5 0-15.1.2-22.6.6-2.4.1-5 .3-7 1.5 6.1 1.8 12.4 2.7 18.7 2.5"/></svg>