<svg version="1" xmlns="http://www.w3.org/2000/svg" width="432" height="432"><path fill="none" stroke="#000" stroke-width="2" stroke-miterlimit="10" d="M213.1 48.6c3.4-5.3 8-8.6 13.1-8.6 10.5 0 19 13.9 19 31.1s-8.5 31.1-19 31.1-19-13.9-19-31.1c0-4.5.6-8.7 1.6-12.6m12.2 42.8v8.9m11.2-9.7l.6 9.7m14.8 23c-.8 32.1-2.2 86.5-2.2 86.5h-36.7l-3.8-109.5h43.2s-.2 6.1-.4 15.4l-.1 7.6zm.6-23l20.3 40-12.3 60.6-6.7-1.3 6.3-57.2-8.3-14.1"/><path fill="none" stroke="#000" stroke-width="2" stroke-miterlimit="10" d="M249.5 209.5l-4.1 10.2 4.1 2.2 2.7-4.4 1.7 18.7 10.1-9.6-7.8-15.8m-.4-58.5l12.7-2.1m-56.7-40l-28.6-28 27.6-25.5 24.7-1v-4.5l-28.3-3.9-43.5 34.9 41.7 43.2m-22.2-43.2l-18.7-.7m64.6 138.3v159.5m-20.4-159.6l11.6 159.6H238l7.4-159.6m-25.1 159.6l-24.1 5.5 19 8.4 13.9-13.2 19.2 13.2 13.7-8-24-5.9"/></svg>