<svg version="1" xmlns="http://www.w3.org/2000/svg" width="432" height="432"><ellipse fill="none" stroke="#000" stroke-width="2" stroke-miterlimit="10" cx="216.3" cy="72.1" rx="19" ry="31.1"/><path fill="none" stroke="#000" stroke-width="2" stroke-miterlimit="10" d="M211.2 102v9.2h11.1v-9.7"/><path fill="none" stroke="#000" stroke-width="2" stroke-miterlimit="10" d="M222.5 108.3c8.5-.1 17.4-.7 25.8-1.9 0 0 12.3-72.6-32-70.4 0 0-41.5-3.2-34 70.4 0 0 12.5 1.5 28.8 1.9m-19.8 44.6c-.8-5.5-1.3-9.1-1.3-9.1l8.3-31.6h38s5 21.9 6.7 29.2m-3 30.3c-2.2 18-4.8 38-4.8 38h-35.7s-2.5-17.1-4.9-33.9"/><path fill="none" stroke="#000" stroke-width="2" stroke-miterlimit="10" d="M247.8 165.7c-7-.3-12.6-5.8-12.6-12.6 0-6.9 5.9-12.6 13.2-12.6 7.3 0 13.2 5.6 13.2 12.6 0 2.6-.8 5.1-2.3 7.1"/><path fill="none" stroke="#000" stroke-width="2" stroke-miterlimit="10" d="M235.3 149.8s-43.3-2.3-46.1 5.5c-2.7 7.5-3.8 27.2 25.8 22.7m15.5-3.3c11.4-2.8 16.8-5.2 19.2-6.7"/><path fill="none" stroke="#000" stroke-width="2" stroke-miterlimit="10" d="M198.3 112.2l-29 27.5 18.8 26"/><path fill="none" stroke="#000" stroke-width="2" stroke-miterlimit="10" d="M192.2 135.4l-6.5 6.1 4.8 6.7m23.6 29.7l5.6-9.4 11.5 1.8-1.4 7.4c.1.1-9.8 4-15.7.2zm22.2-65.7l19.3 30.3m5 17.7l-9-2.3s-4.6 8.7-3.9 9.2c.7.5 10.8 3.3 10.8 3.3s4.8-8.8 5-9c.2-.2-2.3-5.4-2.3-5.4m-91.9-16.3l17.1 2.4m13.1 67.7l-15.7 148.8s39.8 11.5 71.7 0l-20.3-148.8"/><path fill="none" stroke="#000" stroke-width="2" stroke-miterlimit="10" d="M204.8 362c.4 11.2.7 18.4.7 18.4h8.9s.1-6.6.3-17.1m13.2-.8c.6 10.9 1 17.8 1 17.8h9.4s-.1-6.9-.2-17.8"/><path fill="none" stroke="#000" stroke-width="2" stroke-miterlimit="10" d="M205.5 380.3l-24.9 8.6 17.2 8.5 16.7-17.1m14.4 0l12.9 18.6 16.7-6.8-19.7-11.8"/></svg>