<svg version="1" xmlns="http://www.w3.org/2000/svg" width="432" height="432"><path fill="none" stroke="#000" stroke-width="2" stroke-miterlimit="10" d="M232.4 64.4c1.4 4.4 2.3 9.4 2.3 14.7 0 17.1-8.5 31.1-19 31.1s-19-13.9-19-31.1c0-4.3.5-8.4 1.5-12.2"/><path fill="none" stroke="#000" stroke-width="2" stroke-miterlimit="10" d="M210.6 109v9.2h11.1v-9.7"/><path fill="none" stroke="#000" stroke-width="2" stroke-miterlimit="10" d="M237.1 141.2c-.8 32.1-2.2 86.5-2.2 86.5h-36.7l-3.8-109.5h43.2s-.2 6.1-.4 15.4l-.1 7.6zm.7-23l21.2 45.5-2.1 56.1-7 1-3.9-52.5-8.9-22.5m8.9 22.5l13-4.6m-9.1 57.1l-5.2 7.9 2.6 4 5.2-5-.6 14.8 8.6 5.7 5.2-9-8.8-19.4"/><path fill="none" stroke="#000" stroke-width="2" stroke-miterlimit="10" d="M198.4 227.7l6 159.6h8.9l2.9-159.6m2.8 0l8.7 159.6h9.4L235 227.7m-30.6 159.6l-25 8.6 17.3 8.5 16.6-17.1m14.4 0l13 18.6 16.6-6.8-19.6-11.8m-43-269.1l-21.3 45.5 2.2 56.1 7 1 3.8-52.5 9-22.5m-9 22.5l-13-4.6m9.2 57.1l5.2 7.9-2.6 4-5.3-4.9.7 14.7-8.7 5.7-5.1-9 8.8-19.4m22-150.3S179.4 38 205.5 32s33.8 7.8 28.2 37.5m-36.3-1.9s17.9-8.2 36.2-2.6m1.8-8.6s-19.3-13.2-44-4.9m14.7-2.7s10.4-9 26.4-9.8"/></svg>