<svg version="1" xmlns="http://www.w3.org/2000/svg" width="432" height="432"><ellipse fill="none" stroke="#000" stroke-width="2" stroke-miterlimit="10" cx="229.3" cy="65.1" rx="19" ry="31.1"/><path fill="none" stroke="#000" stroke-width="2" stroke-miterlimit="10" d="M224.2 95v9.2h11.1v-9.7"/><path fill="none" stroke="#000" stroke-width="2" stroke-miterlimit="10" d="M249.2 127.2c-.8 32.1-2.2 86.5-2.2 86.5h-36.7l-3.8-109.5h43.2s-.2 6.1-.4 15.4"/><path fill="none" stroke="#000" stroke-width="2" stroke-miterlimit="10" d="M228.7 119.4h23.8v7.9h-23.8zm-22.2-15.2l-22.2 23.1-19.6-34.8-7.4 2.8 23.5 51 26.4-21m-42.5-32.8l5.5-6.4 1.8-12h-4.5l-1.6 5.2s-2.2-.5-2.2-.9-1.4-19.9-1.4-19.9l-9.6-3-7.8 6.6s4.1 27.2 4.4 27.6 8.2 5.5 8.2 5.5"/><path fill="none" stroke="#000" stroke-width="2" stroke-miterlimit="10" d="M249.8 104.2l21.2 45.5-2.2 56.1-7 1-3.8-52.5-8.9-22.5m-64.8-4.5l-3.5 19m77.2 8l13-4.6m-9.2 57.1l-5.1 7.9 2.5 4 5.3-4.9-.7 14.7 8.7 5.7 5.2-9-8.9-19.4m-58.5 8l6 159.5h8.9l2.9-159.5m2.9 0l8.7 159.5h9.4L247 213.8m-30.7 159.5l-24.9 8.6 17.2 8.5 16.6-17.1m14.5 0l12.9 18.6 16.6-6.8-19.6-11.8"/></svg>