<svg version="1" xmlns="http://www.w3.org/2000/svg" width="504" height="504"><g fill="#27AAE1"><path d="M222.2 38.6s-15.6 24.9.7 44.5c0 0-13.5-1-13.9-21-.4-19.9 13.2-23.5 13.2-23.5zm-11.5 49.8l3.5 70.5 20.3 3.8H216l-4.2 123.9-7.1 16-13.3-6.1 17.4-9.9-1.2-123.9-3.8-74.3z"/><path d="M228.5 162.7l3.3 123.9 20 10.4-11.7 5.6-11.6-16-6.3-123.9zm-24.3-66l-9.4 28.3.7 43.8h2.7l2-41.9 4.8-14z"/></g><g fill="none" stroke="#000" stroke-width="2" stroke-miterlimit="10"><ellipse cx="223" cy="60.9" rx="14" ry="22.3"/><path d="M232.2 40.6s-11.1 2.1-17 0m18.7 2.9c-1 .6-11.7 3.1-21 .5m22.1 2.8s-11.5 4.9-23.2.6M227.5 82v6.4h-8.6v-6.2m22.3 6.2h-37.4l3.8 74.3H237zm-37.4 0L189.5 123l3.2 45.9h5.7l1.8-42 4.8-14"/><path d="M198.2 168.8l4.2 7.2-3.2 1.8-3.2-3.5-.8 15-6.6-6.2 4-14.3m7.6-41.9l-10.7-3.9m51.7-34.6l14.3 34.6-3.3 45.9h-5.7l-1.7-42-4.9-14"/><path d="M246.6 168.8l-4.1 7.2 3.2 1.8 3.2-3.5.9 15 6.4-6.2-4-14.3m-7.4-41.9l10.7-3.9M237 162.7l-2.5 123.9h-6l-6.3-123.9-6.7 123.9h-7l-.9-123.9m26.9 123.9l18.2 7.8-11.5 5.7-12.7-13.5m-13 0l-9.8 13.5-11.8-5.8 14.6-7.7"/><ellipse cx="278.9" cy="354" rx="18.3" ry="27.1"/><path d="M252.8 389.1s24.9-16 49.5 0l7.2 71.2s-42.3 15.8-63.2 0l6.5-71.2z"/><path d="M249 462.1l7.3 15.5s16.2 5.1 40.2 0l7.4-15.5m-51.2-71.8l-22.6 67-20.4 4.9s2.1 5.8 2.7 5.2c.6-.6 18.8-1.9 18.8-1.9l6.1 3.2 4-3-3.2-6.7 11.3-33.2m53-35.9l23.2 67.3 20.4 4.9s-2.1 5.8-2.7 5.2-18.8-1.9-18.8-1.9l-6.1 3.2-4-3 3.2-6.7-11.4-32.2"/><ellipse transform="rotate(-10.819 179.653 326.128)" cx="179.6" cy="326.1" rx="16" ry="23.8"/><path d="M167.8 339.5l-3.6 5.9m12.3 63l16 5.8 8-4-15.2-56.3-27.2-10.7s-14 18.5-23.2 75.8c0 0 24.5 9.7 40.7 5.7l3.2-52.2m-.6 10.4c0 .7 5.3 20.5 12.9 30.8"/><path d="M200.5 410.2l19.7 6.5v15.2s-20 15.8-32.3 16-42.5-3.7-45.8-9.7-5.7-18.7-5.7-18.7m39.4 3.3s13.7-5.5 32.4-6.5"/><ellipse transform="rotate(-88.297 358.647 147.328) scale(1.00004)" cx="358.6" cy="147.3" rx="24.3" ry="16.4"/><path d="M366.4 174.4l-1.3-5m-7 8.7l-.1-6.5m1 66.8c7.9-.9 16.2-1.9 16.2-1.9 3.7-40.1-2-63.1-2.9-63.4-.9-.3-20 7.2-20 7.2 1.3 37.6-7.2 59.7-7.2 59.7s2.5-.3 6-.7"/><path d="M333.6 251.2c.4-1.7.8-3.2.8-3.2l15.5-1.5 10-60m7.7 13.7L355.2 253"/><path d="M320.2 267.8l-1.2 42.6h-5.5l-8.4-69.6 40-.8"/><path d="M319 310.4l-13.8 15.9-15.8-6.4s21.7-9.1 24.1-9.5m-18.4 7.1L286 308l27-1.8m83-153.1L381.6 253H374l7.6-99.9z"/><path d="M385 264.5l-68.8 3.3-1.2-16.7 70 1.9zm-52.6 3.3v58.5h-4.5l-4.9-58.8"/><path d="M371 265.2l3 60.2h7.6v-60.8m-9.1 27.6h-40.1m40.4 6.1l-40.4 1.2"/></g><path fill="none" d="M221.7 37.5c3.6.2 7.1.4 10.7.6-5.5 1.7-11.1 2.7-16.8 3 7.1.2 14.3.4 21.4.5-8.2 1.4-16.3 2.9-24.5 4.3h16.2c-6.3 1.7-12.6 3.3-18.9 5 5.3 0 10.7.1 16 .1-6.5 1.3-12.8 3.3-18.9 6.1 7.4-.3 14.8-.7 22.2-1-7.6 1.7-15.2 3.3-22.8 5 9.7 0 19.4.1 29 .1l-29.7 7.5c7.8-1 15.7-1 23.5.1-9.3 1.7-18.7 3.4-28 5l26.1 2.1c-6.2 1.8-12.6 3.1-19 4 7.9.5 15.9 1 23.8 1.4-12.3 1.2-24.5 3.4-36.4 6.5 10.3.7 20.7.9 31 .7-10.2 2.4-20.3 4.7-30.5 7.1 10.2-.3 20.3-.6 30.5-1-10.6 2.6-21.2 5.3-31.8 7.9 10.8-.6 21.6-1.1 32.5-1.7-11.6.8-23.2 3.2-34.1 7.2 8.8-.4 17.6-.9 26.4-1.3-10.8 2.3-21.4 5.3-31.7 9 11.8.1 23.6.1 35.3.2-11.8 0-23.7 2.2-34.8 6.3 13.8-.5 27.5-1 41.3-1.5-11.4.6-22.6 3.3-33 7.8 14.8-.8 29.5-1.6 44.3-2.4-18.6 3.2-37.1 7.1-55.4 11.8 12.6.8 25.3.9 37.9.2-14 .9-27.8 3.9-40.9 9l46.6.6c-14.8 1.8-29.5 4.8-43.8 9 18.8-1.1 37.7-1.6 56.5-1.4-20.1 2.8-40.2 5.7-60.3 8.5 15.7 1 31.4 1.1 47.1.6-19.1 1.7-38.1 3.4-57.2 5.1 20.9 3.2 42.1 2.9 63.2 2.6-11.6 1.1-23.2 3.5-34.3 7.2 15.6.8 31.3 1 47 .5-22.3 5.6-45.7 2.3-68.7 3.5-3.4.2-7.2.7-9.2 3.4 20.9 1.1 41.7 2.2 62.6 3.2-9.2 1.7-18.4 3.9-27.4 6.7 11.5 2.5 23.3 3.5 35 2.9-12 1.2-23.8 3.5-35.3 7 8.2 2.3 16.7 3.2 25.2 2.7-7.3.8-14.5 2.6-21.2 5.4 8.6 2 17.4 3.2 26.2 3.5-6.4.6-12.8 2.4-18.6 5.2 7 .9 13.9 1.8 20.9 2.8-10-.3-20 3.4-27.3 10.2 9.8 2 19.8 2.6 29.8 1.9-8.9.1-17.9 1.9-26.1 5.4 9.3.5 18.7.9 28 1.4-9.3 2.9-18.1 6.9-26.4 12 11.3.3 22.6.6 33.8.9-13.8-.1-28.1-.1-41 5 12.5 1.3 25.1 1.1 37.5-.4-11.5.9-22.8 4.1-32.9 9.5 12.4-.1 24.8-.1 37.2-.2-14.1 2.6-28.3 5.3-42.4 7.9l39.9-1.2c-20.2 1.6-40.3 4.5-60.1 8.6 18.6.5 37.2-.4 55.7-2.6-9.9 1.1-19.7 2.8-29.3 5.2-2.9.7-6.3 1.9-7.2 4.8 21.6 1.5 43.4.2 64.7-3.8-24.8 1.7-54.6 5.1-79.4 5.8 15.5-1.6 36-5.3 51.5-6.9-12.6 1.5-25.1 2.9-37.7 4.4 19.5-2.3 39.1-4.6 58.6-7-14.1 1.5-28 4.7-41.3 9.6 10.6.9 21.2 1.1 31.8.8-6.2 1.4-12.3 2.9-18.5 4.3 5.5.8 11.3-.7 15.7-4.1"/></svg>