<svg version="1" xmlns="http://www.w3.org/2000/svg" width="432" height="432"><ellipse fill="none" stroke="#000" stroke-width="2" stroke-miterlimit="10" cx="224.1" cy="68.1" rx="19" ry="31.1"/><path fill="none" stroke="#000" stroke-width="2" stroke-miterlimit="10" d="M219.1 98.3v8.9m11.2-9.7l.7 9.7M205.2 170c-1-29.8-2.2-62.8-2.2-62.8h43.2s-.2 6.1-.4 15.4l-.2 7.6c-.8 32.1-2.2 86.5-2.2 86.5h-24.1"/><path fill="none" stroke="#000" stroke-width="2" stroke-miterlimit="10" d="M203 107.2L178 160l14.7 54.3 6-2.3-5.4-51.2 10.9-21"/><path fill="none" stroke="#000" stroke-width="2" stroke-miterlimit="10" d="M192.7 214.3v9.9l8.1 1.6 10.2-5.2-4.5-5.3-7.8-3.3M178 160l15.3.8"/><path fill="none" stroke="#000" stroke-width="2" stroke-miterlimit="10" d="M195.2 177.2c9.7-3.3 17.5-6 17.5-6l11.2 44.1s-6.2 1.9-14.4 4.4m-15.7 4.8c-11.3 3.5-21.5 6.6-21.5 6.6l-14-41.3s12.4-4.2 25.3-8.6"/><path fill="none" stroke="#000" stroke-width="2" stroke-miterlimit="10" d="M212.8 171.5l4.2-4.6 10.7 44.4-3.8 4m-6.2-49.4s-11.1 3.8-23 7.9m-12 4.1c-12 4.1-22.6 7.7-22.6 7.7l-2.2 3.8m88.4-82.2l21.3 45.5-2.2 56.1-7 1-3.8-52.5-9-22.5m9 22.5l13-4.6m-9.2 57.1l-5.1 7.9 2.5 4 5.3-5-.7 14.8 8.7 5.7 5.2-9-8.9-19.4m-58.7 14.5c1.1 30.1 5.8 153 5.8 153h8.9l2.9-159.6m2.9 0l8.6 159.6h9.4l-2-159.6m-30.7 159.6l-25 8.6 17.3 8.5 16.6-17.1m14.4 0l13 18.6 16.6-6.8-19.6-11.8"/></svg>