<svg version="1" xmlns="http://www.w3.org/2000/svg" width="288" height="288"><g fill="#27AAE1"><path d="M192.8 48.8s17.1 35.9-8.8 59c0 0 19.7-4.6 22.1-30 0 .1.3-23.2-13.3-29zm12.6 72.9s10.8 17.1 11.9 25.3l-7.9 1.9-5.5-13.2 1.5-14zm22.2 29.6s-11.9 9.8-57.2 8.4l.8 3.1-5.4 4s15.8 3.3 29.3 1.7c13.5-1.6 26.1-5.2 26.1-5.2l8.8-4.8-2.4-7.2z"/><path d="M197.8 114l-3.4 37.3 8.5-1.4 3.2-34.6zm-6.2 54.6l-3.1 43.1-22.7 5.1 33.4 2.2 2.1-50.4z"/><path d="M186.6 218.1v10.3l12.6-1.8V219zm-20.8-1.3l-1.6 13.8 5.4-.8 1.6-12.7z"/></g><g fill="none" stroke="#000" stroke-width="2" stroke-miterlimit="10"><ellipse transform="rotate(-16.843 82.421 87.864)" cx="82.4" cy="87.8" rx="19.9" ry="30.6"/><ellipse transform="rotate(-81.86 185.484 77.875)" cx="185.5" cy="77.9" rx="30.2" ry="20.3"/><path d="M178.4 49.3s10 3.4 20.7 2m-23.9-.8s8.2 8 27.4 5.4m-30.1-1.3s13 10 33.6 5.9m-118 56.7c-.2.8.7 3.3.7 3.3l9.1-2.4-.9-4.4m78.2-7.7v5.7l11 .9.4-5.2"/><path d="M85.7 175.7C81 157.8 75 138.9 68.5 128.5c-1-1.7 35.6-13.2 42.3-14.6 0 0 5.8 11.9 12.6 28.5m79.5 7.5c1.7-19.2 3.2-34.6 3.2-34.6-22.8-4.2-51.8-4.5-51.8-4.5l-3.9 42.6m3.8-42.6l-41.6 8.5m30.1 15.1l9.4-.4m-37.6-12.3l13.4 10.7m-2.8 9.8c.1-.5 0-8 0-8l13.2-8.3 9.7 5.5-8.8 5.1v3.8"/><path d="M146.4 153.5l-2.6-1.9 1-11.4-25.5 2-2.1 16.3 27.4 3.8"/><path d="M155.2 153.4h-8.8l-1.8 8.9c5.6 1.4 10.9 2.6 15.9 3.5"/><path d="M148 153.5c.7 0 7.4-5.7 7.4-5.7l10.4-.7 5.4 15.7-9.1 6.6-7.8-17.2m70-8s-9.6 7.3-56.5 8.9"/><path d="M165.8 166.7c46.5 7.1 64.1-8.2 64.1-8.2-5.7-23-23.8-43.2-23.8-43.2m-2.1 20.5l5.4 13.2"/><path d="M148 215.6l51.1 3.3c-.6-9.5.6-30 2.2-50.4"/><path d="M150.3 163.8l-1.4 51.9-.9 14.9M68.5 128.5s-19.4 41.5 25.4 66c0 0 28.6-10.8 38.7-33.9m-11.5-1.5s-19.4 22-50 15"/><path d="M131.6 163.3c5.2 14.4 9.9 29.8 12.2 43.1L95.3 219s-2.1-11.4-5.5-26.5m5.5 26.5l2.6 9.1m45.8-21l4.6 19.5m-27.2-13.7c.7.4 2.5 17.7 2.5 17.7m0-18.9l5 18.9m42.6-13.5l-1.6 12.7m8.1-12.2v11.6m21.5-10.2v7.6"/><path d="M94.4 214c-1.7 0-17.2 3.3-30.1 9.5 0 0 91.3 17.6 161.4-2.8 0 0-3.5-5.9-27.3-11.1"/><path d="M72.7 214l-23.4 12.1s23.8 14.6 80.4 14.3m-13.9-4.3s42.8 1.6 70.8-2.1m21.7-27.5s14 3.3 26.4 10.6c0 0 4.9 8.6-34.9 16.9"/></g></svg>