<svg version="1" xmlns="http://www.w3.org/2000/svg" width="288" height="288"><g fill="#27AAE1"><path d="M147.8 40.4s7.9 16.7-2.4 31.5l5.6 1.9s7.6-9.7 6.4-16.7-4.4-15.5-9.6-16.7zm6.7 37.3c.5.4 12.3 15.3 17.7 31.2v5.1l-17.7-13.8-.5-15.8 1.5-.8-2.7-4.3 1.7-1.6z"/><path d="M147.8 82.8s5.3 24.9 5 57.7l-8.8 4 15.2-1.5-5.2-59.9-6.2-.3zm4.4 61.2s5.5 25.7 6.5 88.4l1.8-.5s4.3-50.2 1.7-68.6c-2.6-18.3-3-20.3-3-20.3l-7 1z"/><path d="M141 144.5s-1.5 58.3 1.8 88.9h2.1l1-44.4 1.2-42.4V144l-6.1.5zm19.5 87.3l18.5 10.4-10.2 7-11.1-15.8zm-15.7 1.6l-11.2 17.1-10.5-6.5 19.7-10.6z"/></g><g fill="none" stroke="#000" stroke-width="2" stroke-miterlimit="10"><path d="M145.8 77.2c-1.3.4-2.7.6-4.1.5-7.5-.7-12.9-9.9-11.9-20.5s7.8-18.8 15.3-18.2c7.5.7 12.9 9.9 11.9 20.5-.5 5.8-2.8 10.9-6 14.2m-18.8-31.2s11.2 3.8 21.8-1.5m-25.5 4.7c1 0 11.9 5.1 26.6-2.4m-27.6 8.2s19.2.5 29.7-5.4"/><path d="M154 78.3l4.7-5.7-2.4-2.1-3.3 3.9-11.7-3.9-.8 5.1 11.7 4.2zm1.5-1.8s15.4 15 18.3 38.7L155 100.1m-2.8-20.3s12.4 11.9 10.1 26.2M154 84.4l5.2 5.1m-21.3-13l.7 5.5 6.2.1v-4.6"/><path d="M122.8 85.3s15.2-3.7 31.2-2.1c0 0 2.1 45.1 5.2 59.8 0 0-17.2 2.6-26.5 1.3 0 0-8.2-23.4-9.9-59z"/><path d="M122.8 85.3l-13.3 24.8 20.1 22.4m-15.4-17.3s7.3-10.1 9.6-11.7m-4.2 4.6l7 11.2"/><path d="M128.8 131.6l-10.4 3 8 6.9 4.3-5.8m2 8.9s-.6 57.2 7.9 88.8h4.3l1.9-88.8 9.9 87.4 3.9-.2s6.3-59.4-1.4-88.5m-19.3 90.1c-.4.3-17.9 7.2-17.9 7.2s10.8 7.2 11.6 6.9 11.5-13.5 11.5-13.5l-5.2-.6zm16.7-.3l9.6 14.4 11.3-7.1-16.1-8z"/></g></svg>