<svg version="1" xmlns="http://www.w3.org/2000/svg" width="288" height="288"><g fill="#27AAE1"><path d="M147.6 35.6s-20.9 18.1-5.8 39.6c0 0-16.4-3.7-9.1-24.7 6.8-19.5 14.9-14.9 14.9-14.9zm-17.8 42.5l-7.7 58.7 15 6.1-22.3-3.2 6.4-47-15.5 9.5.4 37.2 3.9 7-1.9 1.6-5.6-8.6L100 99l22.1-13.8 2.2-7.4z"/><path d="M124.3 141.1s32.5 50.3 44.7 95.2l-1.5.8s-21.4-45.6-31.2-60.1l-3.5-6.2s-1.5 32.9-32.7 61.7l-3.4-.7s19.1-23.5 23.1-46-.1-37.7-.1-37.7l-4.9-8.3 9.5 1.3z"/><path d="M94.7 231.4l-2.5 13.3 16.6 6.3 14-8-22.8-10.6zm72.8 5.6l-1.3 14 24.8 4.2 6-7.8z"/></g><g fill="none" stroke="#000" stroke-width="2" stroke-miterlimit="10"><ellipse transform="rotate(-78.93 145.731 55.529)" cx="145.7" cy="55.5" rx="20.1" ry="13.8"/><path d="M135.9 37.6s15 4.2 20.6 1.2m-22.9 1.3S149.8 45 160 42m.9 3s-16.9 4.1-28-.9m5.9 30l-1.2 5 6.5 1.4 2.7-5.6"/><path d="M124.3 77.8s19 .2 30 6.7c0 0-12.5 51.2-17.2 58.3l-22.3-3.2 9.5-61.8zm0 0l-31 18.7s1.6 23.4 9.2 42.9h3.6s-1.3-28.6-.4-37.2m16.4-10l-27.4 16.2m11.4 31l3.9 7-1.9 1.6h-2l1.3 11.4-7.4-4.5 2.5-15.5z"/><path d="M153 89.7s.9 29.5 20.2 39.5l-2.5 4s-12.3-1.4-23.1-22.9"/><path d="M173.2 129.2h8.7l12.5 7.2-9.5 3-6.4-3.6 1.7 3.6h-4.5l-5-6.2zm-58.4 10.5s48.2 81.8 52.8 97.3l4.2-1.2s-11.7-56.4-34.7-93"/><path d="M118.7 146.4s4.4 48.9-24 85l5.4 1s30-26.7 32.7-61.7m34.7 66.3l1.4 11.5 21.3 4.5 6.8-8.5-24.3-8.2zm-74.1-5.2l-3.5 9.2 20.9 7.4 10.4-6-21.2-10z"/></g></svg>