<svg version="1" xmlns="http://www.w3.org/2000/svg" width="288" height="288"><path fill="#27AAE1" d="M114.9 98.8l16.8 58.1s26.4.2 24.3.6-31.8 5.2-31.8 5.2l-18.7-61.6 9.4-2.3z"/><g fill="none" stroke="#000" stroke-width="2" stroke-miterlimit="10"><path d="M143 83.8h-3.9c-6.6 0-12-5.4-12-12V54.2c0-6.6 5.4-12 12-12h4.1c6.6 0 12 5.4 12 12v17.6c0 3.4-1.5 6.5-3.8 8.7"/><path d="M127.1 63.8s7.4.8 10.7 0 3.8-2 8.6 0c4.9 2 8.7.4 8.7.4m-28-5.2s-8.3 3 0 7.5m28.1-7.5s8.4 2.9 0 6.8"/><path d="M118.1 83.6c-9.1-59.2 23.1-47.3 23.1-47.3s26.4-11.8 22.8 39.2"/><path d="M129 93.9c5.9-1.7 10.4-3.1 10.4-3.1l36.9-6.5-3-12.5-35.2 13.8s-5 .6-11.5 1.3M174.4 76l8.4-3.8.8 5.2-8.5 1.4"/><path d="M109.9 86.8l15.4-6.1 4.2 15.9-9.7 3.1zm12.1 12l-4-7.6m6.3 6.3l-3.3-8.1m5.7 7.5l-2.4-8.4"/><path d="M111.9 88.5c-7 .8-12.6 1.4-12.6 1.4l2.8 12s7.4-2.2 15.6-4.6"/><path d="M100.3 94.1l-10.7 1.3 1.3 5.6 10.1-3.7m.4 1.8c-7.3 10.6-16.6 24.1-16.6 24.1l13.6 25.1 16.5-16.4m-9.3-30.8l18.7 61.6m47.5-77l14 58.3m-12-59.3s14.7 14.4 24.9 29.5c0 0 .1 14.8-4.7 30.7m-13.3-22.3l1.2-6.6-4-4.9m-5.3 48.4c-.2-.8-12-11.8-12-11.8l-8.2 3.9 7.1 14 13.1-6.1z"/><path d="M156 157.5c-8.5 1.4-36.2 5.9-36.2 5.9l3.5 11.8s27.6-9.8 34.9-12.4"/><path d="M121 167.6l-10.6 1.9 1.6 5.5 10-4.2m32.8-19.6l3.4 5.7m-1.3-6.9l3.7 5.6m-1.3-6.6l3.8 5.1m9.3 5.3c10.6-2.5 24.1-5.6 24.1-5.6l-3.6-12.3s-16.2 7.4-26.4 12"/><path d="M194.1 145.6l8.2-4.2 1 5.2-8.4 1.7m-5.1 7.5c-2.5 5.3-5.7 10.3-9.7 14.6 0 0-10.4-5.2-15.1-7.6M118 142c-.3 5.6-.8 15.3-1.6 26.6m-.4 5c-1.4 19.5-3.5 42.2-6.1 55.8 0 0 52 12.9 79.3-4.1 0 0-11.5-21.9-16.1-58.4"/><path d="M131.7 233l4.8 13.8 2.7.2 1.4-13.2m14.3.3l2.6 12.9h2.5l5-13.4"/><path d="M135.8 246.8l-19.6 7.2 13.6 8.3 9.4-15.3m17.3-.1l9 15.4 13.4-7.1-18.8-8.3"/></g></svg>