<svg version="1" xmlns="http://www.w3.org/2000/svg" width="288" height="288"><path fill="#27AAE1" d="M152.7 88.9L124.1 124l6.5 3.5 32.1-36z"/><g fill="none" stroke="#000" stroke-width="2" stroke-miterlimit="10"><path d="M142.8 80.4h-5.2c-6.6 0-12-5.4-12-12V52.5c0-6.6 5.4-12 12-12h5.2c6.6 0 12 5.4 12 12v15.9c0 6.6-5.4 12-12 12z"/><path d="M125.6 59.8s5.8 2.7 9.1 1.5c3.3-1.2 6.8-1.7 11.8 0s8.2-1.9 8.2-1.9m-29.1-2.7s-6.8 2.6 0 7.9m29.7-7.9s6.8 2.6 0 7.9"/><path d="M163.9 90.6c2.2-.6 4.3-1.3 4.3-1.3-8.2-7.8-5.3-43.8-8.8-51.8s-19.1-4.8-19.1-4.8-17.7-3.3-19.9 8.2c-1.9 10-1.4 36.5-4.2 45.6l6.4.8"/><path d="M135.9 80.4c-.6-.5 0 6.5 0 6.5l10.1.3v-6.8s-7.8 1.9-10.1 0z"/><path d="M119.8 121.9c.4-14.4 1.1-34.1 1.1-34.1s27.7-3 42.3 2.7c0 0-.3 2.9-.6 7.9"/><path d="M120.9 87.8s-15 23.7-20 41.7c0 0 17.5 20.8 27.2 26.8L139 132l-26.4-14m26.4 14l8.4-1.5 7.9 6.2-4.1 9.7-15.6-6m11.1 1.2l4.9 2.3m-4.1-5l5.2 2.6m1.1-2.7l-4.9-3.2"/><path d="M130.6 127.5c13-14.5 32.1-36 32.1-36L149.9 88s-19.7 24.5-27.3 34.1m45.4-23l4.3-10.6 4.5 2.1-6.2 9.7z"/><path d="M171.5 108c2.2-3.2 3.7-5.5 3.7-5.5l-12-5.7s-.7 1.8-1.8 4.4"/><path d="M168.2 102.5l-11.4-1.8-2 8.8 10.8 4.8 5 6.6 3.6-6.8zm-11.4.8l7.1 1.2m-7.8.9l7.4 1.6m-7.8.6l7.5 2.4"/><path d="M157.5 110.8c-3.2 7.8-6.5 15.9-6.5 15.9s-1.3 1.8-3.2 4.4m-7.9 10.9c-3.8 5.3-7.2 9.9-7.2 9.9l15.6 7.4 7.7-28.6s5.5-8 10.5-15.5"/><path d="M139.3 154.9l-5.9 8.5 5.1 2.4 2.9-9.9m20.9-65.7s3 3.7 6.3 7.6m5.2 6.3c1.5 1.8 2.4 2.9 2.4 2.9m-10.2 9l-3.3 12 17.4 26.9 7.2-5.9-6.2-43.2-9.9 2.5m8.9 46.6l-18.9-18.6"/><path d="M161.4 122.8c-.8 30.7.5 76.5 12.8 106 0 0-44.7 14.2-70.3-10.8 0 0 10-47.2 14-71"/><path d="M126.4 231.2l2.8 12.8h1.7l2.8-11.8m21.3 1l-2.8 12.8h-1.7l-3.1-13.2M129.1 244l-22.2 2.8 8.7 9 16.5-9zm23.2 2l22.2 2.8-8.7 9-16.5-9z"/></g></svg>