<svg version="1" xmlns="http://www.w3.org/2000/svg" width="288" height="288"><g fill="#27AAE1"><path d="M109.1 75.3s24.7-1.3 18.9 29.5c-4 21.5-10.5 35.1-21.4 36.3s-19.4-19.3-18.1-29.8 4.4-29.5 20.6-36zM80.8 147s-20 13-17.9 42.9l13.9-3.8 1.9-12-5.5-.4s1.1-6.2 5.5-9.6l2.1-17.1z"/><path d="M129.9 157.6S97.1 144.8 80.8 147c0 0-6.7 41.8-4.7 65.8 0 0 32.1 6 53.3 2.5l1.1-31.4 11.9 16.2 11-26.1-5.5.2-6.2 8.6-11.8-25.2z"/></g><g fill="none" stroke="#000" stroke-width="2" stroke-miterlimit="10"><ellipse transform="rotate(-82.068 111.204 107.875)" cx="111.2" cy="107.9" rx="33.5" ry="22.5"/><ellipse transform="rotate(-17.389 188.855 111.225)" cx="188.9" cy="111.2" rx="20.5" ry="31"/><path d="M102.8 77.1s14 5.1 26.5 5.6m-29.6-4s18.7 11.5 34.1 10.5m-36.7-7.4s7.7 12.4 36.7 13.5M92.9 85s15.6 19.5 42.1 17M91.1 88.5s15.3 24.5 44 18m-46-14.7s14.8 32.5 46 19m-37.2 26l-.8 5.7 13.4 3.2.7-4.7m92.3-4.2s2 4.8 3 7.1m-9.2 3.3c-1-1.8-3.2-5.6-3.2-5.6"/><path d="M129.3 215.3l1.1-62.5c-24.2-10.7-48.7-12.7-48.7-12.7s-6.4 44.2-5.7 72.7m153.1-7.1c5.2-39.9-7-65.5-7-65.5-9.3 1.3-38.1 11.7-38.1 11.7l.3 25.3"/><path d="M81.2 140.1s-28.6 14.8-25.3 51.7l20.9-5.6m2-22s-8.8 6.6-7.7 23.6m1.5-13.9h5.2m52.1 9.3l12.4 16.8 11-26.1m-22.9-21.1l17.4 34.2m-2.2-12.8l-2.3 3.5m50.7-29.4s9.1 42-2.9 63l-24.3-41.4-9.5-5.7 3.8-6.4-5-9.1 2.5-1.7 13.7 17.1 24.5 26.7m-49-50.7s-11.4-4.5-24.7-6"/><path d="M174.3 129.4c-9.7 2.3-22 6.2-26.5 10.7l2.2 33.8s6.8-1.1 18.3-1.4m19.6-21.8c.2-3.8.4-7.6.6-11.1m-38.4 34.3h-8.9m38.9-1.4c1.4 0 2.8.1 4.3.2"/><path d="M152.3 145.7s3.7-2.9 7.8-2.9c4.1.1 4.7 0 6.9-1.4 2.2-1.5 5.5-1 7-.6 1.4.4.9.7 2.8-.3"/></g></svg>