<svg version="1" xmlns="http://www.w3.org/2000/svg" width="288" height="288"><ellipse transform="rotate(-83.362 117.974 61.199)" fill="none" stroke="#000" stroke-width="2" stroke-miterlimit="10" cx="118" cy="61.2" rx="23" ry="13.7"/><path fill="none" stroke="#000" stroke-width="2" stroke-miterlimit="10" d="M111.8 83.7v6.7h5.3l.9-6.2"/><ellipse transform="matrix(1 -.00583 .00583 1 -.358 1.043)" fill="none" stroke="#000" stroke-width="2" stroke-miterlimit="10" cx="178.6" cy="61.9" rx="12.4" ry="20.3"/><path fill="none" stroke="#000" stroke-width="2" stroke-miterlimit="10" d="M181.8 81.7v6.5l-8-.3.5-6.2m-73.7 9s15.7-1.3 24.8 1.6c0 0-.7 54.9 1 63 0 0-21.8 4.6-29 0-.1 0-.5-40.9 3.2-64.6z"/><path fill="none" stroke="#000" stroke-width="2" stroke-miterlimit="10" d="M168.4 88.2s14.2-1.2 22.5 1.5c0 0-.6 49.8.9 57.2 0 0-19.8 4.2-26.4 0 0-.1-.4-37.2 3-58.7zm-86.2-31l-1.5-11.4 6.4-8.3 6.1 1.1L91 48.9l2.2.7L87 60zm0 0c-.8 1-9.3 14.5-12.6 29 0 0 6 12.2 28.5 19.1m2.5-14.6s-18.3-3.4-28.5-12.9M87 60s-6.8 16.3-6.3 23.7m45.6 8.1s8.5 12.6 14 58.5l-4.9 1.6-10.2-40.7m10 41.6l-1.7 8.3 3.9 9.7 4.8-5-1-14.8zm71.9-100.4l-3.3-5.1-1.2-5.1 1.7-2.1-1.2-7.6 5.2-2.8 5.7 17.1-1.5 4.1z"/><path fill="none" stroke="#000" stroke-width="2" stroke-miterlimit="10" d="M190.8 103.6s22.7-10 27.9-20.8l-6.3-32.1-5.2 2s2 22.6.1 28m-16.4 8.9s18.8-9 26-16m-48.5 14.6s-12.1 12.2-12.1 54.8l3.9 1.3s5.5-24.5 6.1-33.9"/><path fill="none" stroke="#000" stroke-width="2" stroke-miterlimit="10" d="M156.2 142.9l-2.4 11.2 3.3 6.8h5.2l-1.5-15.8zm-47.1 14.5c-.1 2.3-2.3 82.8-2.3 82.8h-7.5l-2-84.9m26.3.5l4.7 84.3h-4.7l-14.5-82.8M99 241.2l-16 4.6s12.1 9.9 12.6 9.5c.5-.5 11.9-14 11.9-14H99zm24.1 0l-4.4 16.4 16.9-1.6-6.3-15.9zm53-92.5c-.1 2.1-2.1 75.1-2.1 75.1h-6.8l-1.8-77.1m23.9.6l4.2 76.6h-4.2l-13.2-75.2m-8.9 75.2l-6.9 15.2 16.3 1-2.6-16.2m15.3 0l7 14 10.6-5.9-12.6-8.1"/></svg>