<svg version="1" xmlns="http://www.w3.org/2000/svg" width="288" height="288"><g fill="#FFF"><path d="M114.9 83.9l-3.1-.2v6.7h5.3l.9-6.2-1.6-.1c7.1-.1 13.8-9.3 15.2-21.3 1.5-12.6-3.4-23.6-10.9-24.4-7.5-.9-14.8 8.6-16.3 21.3-1.5 12.3 3.2 23 10.5 24.2z"/><path d="M123.6 240.1h4.7l-4.7-84.3c1.7-.3 2.8-.5 2.8-.5-1-4.9-1.2-27.2-1.1-43.8l10.1 40.4 4.9-1.6c-5.5-45.9-14-58.5-14-58.5l-1 18.2c0-10 .1-17.7.1-17.7-9.1-2.9-24.8-1.6-24.8-1.6L88.1 87l-7.9-3.3L87 60l6.2-10.4-2.2-.7 2.2-10.3-6.1-1.1-6.4 8.3 1.5 11.4c-.8 1-9.3 14.5-12.6 29 0 0 6 12.2 28.5 19.1l.9-.7c-2 23-1.7 50.7-1.6 50.7h-.1l2 84.9h7.5s2.2-80.5 2.3-82.8l-.3-.1h.3l14.5 82.8z"/><path d="M135.2 152.8l-1.7 8.3 3.9 9.7 4.8-5-1-14.8zm83.5-70l-1.8-9.2-4.5-22.7h.1l1.5-4.1-5.7-17.1-5.2 2.8 1.2 7.6-1.7 2.1 1.2 5.1 3.3 5.1 3.2-.9-3.1 1.2s1.7 19.5.4 26.6l-16.7 10.3v.1c-2.6-.9-5.9-1.3-9.1-1.6v-6.4h-.4c5.6-2 9.7-10.2 9.6-19.9-.1-11.2-5.7-20.3-12.5-20.2-6.8 0-12.3 9.2-12.3 20.4.1 9.7 4.2 17.7 9.8 19.7h-1.7l-.5 6.2h1c-3.7 0-6.4.3-6.4.3s-12.1 12.2-12.1 54.7h-.1l-2.4 11.2 3.3 6.8h5.2l-1.5-15.8-4.1-2 3.5 1.2s4.9-21.9 6-32.3c-.9 17.7-.8 34.8-.8 34.9l1.8 76.9h6.8s2-72.1 2.1-75l13.2 75.1 7 14 10.6-5.9-12.6-8.1h-.8l-4.2-76.5 2.5-.5c-1.5-7.2-.9-53.9-.9-57l-.1 13.7s22.7-10 27.9-20.8zM99 241.2l-16 4.6s12.1 9.9 12.6 9.5c.5-.5 11.9-14 11.9-14l-8.5-.1zm24.1 0l-4.4 16.4 16.9-1.6-6.3-15.9z"/><path d="M167.2 223.9l-6.9 15.2 16.3 1-2.6-16.2z"/></g></svg>