<svg id="Layer_1" data-name="Layer 1" xmlns="http://www.w3.org/2000/svg" viewBox="0 0 369.15 605.39"><defs><clipPath id="clip-path" transform="translate(-28.5 -14.7)"><path class="cls-1" d="M-92.53-86.01h612v792h-612z"/></clipPath><clipPath id="clip-path-17" transform="translate(-28.5 -14.7)"><path class="cls-1" d="M26.24 12.62h373.8V370.3H26.24z"/></clipPath><style>.cls-1,.cls-2,.cls-8{fill:none}.cls-2,.cls-8{stroke:#23336a;stroke-miterlimit:10}.cls-2{stroke-width:.76px}.cls-3{clip-path:url(#clip-path)}.cls-20,.cls-4{fill:#fff}.cls-11,.cls-6{fill:#23336a}.cls-7{fill:#00aeef}.cls-8{stroke-width:.42px}.cls-10{fill:#91c841}.cls-11,.cls-20{font-size:5.48px;font-family:Europa-Bold;font-weight:700}.cls-12{letter-spacing:-.02em}.cls-13{letter-spacing:-.06em}.cls-16{letter-spacing:-.02em}.cls-17{letter-spacing:-.05em}</style></defs><path class="cls-2" d="M212.64 431.39v155m-77.77-77.71h155.39" transform="translate(-28.5 -14.7)"/><g class="cls-3"><path class="cls-4" d="M244.59 507.68A31.72 31.72 0 11212.87 476a31.72 31.72 0 0131.72 31.72" transform="translate(-28.5 -14.7)"/><path class="cls-2" d="M244.59 507.68A31.72 31.72 0 11212.87 476a31.72 31.72 0 0131.72 31.68z" transform="translate(-28.5 -14.7)"/><path d="M134.91 508.48a77.71 77.71 0 0177.62-77.06v-19.85a97.59 97.59 0 00-97.47 96.91z" transform="translate(-28.5 -14.7)" fill="#92c841"/><path class="cls-6" d="M290.19 508.5a77.71 77.71 0 00-77.62-77.06v-19.85A97.58 97.58 0 01310 508.5z" transform="translate(-28.5 -14.7)"/><path class="cls-7" d="M290.19 508.52a77.72 77.72 0 01-77.62 77.07v19.85A97.59 97.59 0 00310 508.52z" transform="translate(-28.5 -14.7)"/><path class="cls-6" d="M134.91 508.51a77.71 77.71 0 0077.62 77.06v19.85a97.58 97.58 0 01-97.47-96.91z" transform="translate(-28.5 -14.7)"/></g><path class="cls-7" d="M189.43 505.6h.64l.1-.7h-.64zm-1.1-1.21h.75l.18-1.23.5.07-.16 1.16h.64l.17-1.23.51.07-.17 1.16h.68v.51h-.75l-.1.7h.68v.51h-.75l-.18 1.32-.51-.07.17-1.25h-.63l-.18 1.32-.52-.07.18-1.25h-.68v-.51h.76l.09-.7h-.68z" transform="translate(-28.5 -14.7)"/><path class="cls-6" d="M168.44 492.75l-1.16-3.21-1.18 3.21-1.56-4.19h.54l1.03 2.82 1-2.82h.36l.99 2.82 1.04-2.82h.51l-1.57 4.19z"/><g class="cls-3"><path class="cls-6" d="M200.29 504.58a1.21 1.21 0 01.38.06 1 1 0 01.32.2 1 1 0 01.23.32 1.23 1.23 0 01.08.44v1.73h-.49v-1.64a.67.67 0 00-.05-.3.46.46 0 00-.13-.2.45.45 0 00-.21-.12.69.69 0 00-.25 0 .6.6 0 00-.3.07.83.83 0 00-.2.16 1.18 1.18 0 00-.17.22v1.85h-.5v-4.39h.49v2l.09-.11.16-.13a1.23 1.23 0 01.23-.11 1 1 0 01.31 0m2.96 2.37a.87.87 0 00.37-.08.84.84 0 00.28-.2.87.87 0 00.18-.31.94.94 0 00.07-.37.9.9 0 00-.07-.37.87.87 0 00-.18-.31.86.86 0 00-.28-.21.87.87 0 00-.37-.07.9.9 0 00-.37.07 1 1 0 00-.28.21.87.87 0 00-.18.31 1.1 1.1 0 00-.06.37 1.15 1.15 0 00.06.37.87.87 0 00.18.31 1 1 0 00.28.2.91.91 0 00.37.08m0-2.37a1.26 1.26 0 01.55.11 1.23 1.23 0 01.44.3 1.21 1.21 0 01.29.44 1.51 1.51 0 01.11.56 1.42 1.42 0 01-.11.55 1.25 1.25 0 01-.29.45 1.23 1.23 0 01-.44.3 1.42 1.42 0 01-.55.11 1.46 1.46 0 01-.55-.11 1.28 1.28 0 01-.43-.3 1.27 1.27 0 01-.3-.45 1.42 1.42 0 01-.1-.55 1.5 1.5 0 01.1-.56 1.23 1.23 0 01.3-.44 1.33 1.33 0 011-.41m4.94-.05a1.21 1.21 0 01.38.06 1 1 0 01.32.2 1 1 0 01.22.32 1 1 0 01.09.44v1.73h-.49v-1.64a.85.85 0 00-.05-.3.48.48 0 00-.14-.2.37.37 0 00-.2-.12.75.75 0 00-.26 0 .54.54 0 00-.29.07 1.16 1.16 0 00-.21.16 1.12 1.12 0 00-.16.22v1.85h-.49v-4.39h.49v2l.09-.11a.7.7 0 01.16-.13 1 1 0 01.23-.11 1 1 0 01.31 0m3.73.85a1.3 1.3 0 00-.19-.22 1.2 1.2 0 00-.25-.16.71.71 0 00-.34-.07.87.87 0 00-.37.07 1 1 0 00-.28.21.87.87 0 00-.18.31 1.11 1.11 0 00-.07.37 1.16 1.16 0 00.07.37.87.87 0 00.18.31 1 1 0 00.28.2.87.87 0 00.37.08.86.86 0 00.34-.07 1.2 1.2 0 00.25-.16 1.06 1.06 0 00.19-.23zm.49-.83v2.68H212v-.39a.76.76 0 01-.21.23 1.21 1.21 0 01-.28.16 1.09 1.09 0 01-.42.07 1.26 1.26 0 01-.51-.11 1.31 1.31 0 01-.41-.3 1.51 1.51 0 01-.37-1 1.5 1.5 0 01.1-.56 1.48 1.48 0 01.27-.44 1.31 1.31 0 01.41-.3 1.12 1.12 0 01.51-.11 1.09 1.09 0 01.42.07 1.21 1.21 0 01.28.16.86.86 0 01.21.22v-.38z" transform="translate(-28.5 -14.7)"/></g><path class="cls-6" d="M184.87 489.94l.82 1.82.83-1.82h.5l-1.35 2.81-1.34-2.81h.54z"/><g class="cls-3"><path class="cls-6" d="M217.83 505.76a.71.71 0 00-.06-.24.78.78 0 00-.16-.24 1 1 0 00-.26-.18.78.78 0 00-.35-.1.89.89 0 00-.38.07 1 1 0 00-.25.19.87.87 0 00-.16.23.9.9 0 00-.07.24zm-.83-1.18a1.3 1.3 0 01.52.1 1.07 1.07 0 01.41.28 1.42 1.42 0 01.28.46 1.78 1.78 0 01.1.59v.15h-2.17a.86.86 0 00.09.3.79.79 0 00.2.25.88.88 0 00.28.17.86.86 0 00.36.07 1 1 0 00.35-.06 1.17 1.17 0 00.25-.14.76.76 0 00.2-.2l.31.32a1.5 1.5 0 01-.29.27 1.43 1.43 0 01-.35.18 1.4 1.4 0 01-.47.08 1.48 1.48 0 01-.57-.11 1.23 1.23 0 01-.44-.3 1.29 1.29 0 01-.29-.45 1.42 1.42 0 01-.11-.55 1.63 1.63 0 01.1-.55 1.46 1.46 0 01.24-.44 1.19 1.19 0 01.43-.3 1.23 1.23 0 01.55-.11m3.67 1.93a.88.88 0 00.21.22.93.93 0 00.26.15.75.75 0 00.35.07h.2a1.06 1.06 0 00.19-.06.53.53 0 00.14-.11.24.24 0 00.05-.14.29.29 0 00-.15-.27 1.21 1.21 0 00-.46-.16l-.4-.11a1.31 1.31 0 01-.31-.17.91.91 0 01-.2-.24.67.67 0 01-.07-.33.62.62 0 01.07-.29.64.64 0 01.2-.24 1.15 1.15 0 01.31-.18 1.27 1.27 0 01.41-.06 1.42 1.42 0 01.42.06 1.8 1.8 0 01.31.14 1.37 1.37 0 01.26.2l-.32.33a.94.94 0 00-.19-.14 1.34 1.34 0 00-.21-.11.77.77 0 00-.27 0 .59.59 0 00-.39.1.33.33 0 00-.13.24.31.31 0 00.16.25 2.1 2.1 0 00.5.16l.36.1a.86.86 0 01.3.16.79.79 0 01.21.24.75.75 0 01.08.35.59.59 0 01-.1.34.69.69 0 01-.24.24 1.09 1.09 0 01-.35.15 1.65 1.65 0 01-.38 0 1.28 1.28 0 01-.5-.09 1.21 1.21 0 01-.36-.19 1.28 1.28 0 01-.29-.28zm2.25-1.87h.53v-.82h.49v.82h.83v.44h-.83v1.44a.46.46 0 00.09.31.38.38 0 00.29.11h.21l.1-.06.18.4a1.29 1.29 0 01-.31.13 1.07 1.07 0 01-.25 0 .92.92 0 01-.28 0 .68.68 0 01-.26-.15.73.73 0 01-.19-.26.89.89 0 01-.07-.38v-1.47h-.53zm4.4.83a1.3 1.3 0 00-.19-.22 1.2 1.2 0 00-.25-.16.71.71 0 00-.34-.07.87.87 0 00-.37.07 1 1 0 00-.28.21.87.87 0 00-.18.31 1.11 1.11 0 00-.07.37 1.16 1.16 0 00.07.37.87.87 0 00.18.31 1 1 0 00.28.2.87.87 0 00.37.08.86.86 0 00.34-.07 1.2 1.2 0 00.25-.16 1.06 1.06 0 00.19-.23zm.49-.83v2.68h-.45v-.39a.76.76 0 01-.21.23 1.21 1.21 0 01-.28.16 1.09 1.09 0 01-.42.07 1.26 1.26 0 01-.51-.11 1.31 1.31 0 01-.41-.3 1.51 1.51 0 01-.37-1 1.5 1.5 0 01.1-.56 1.48 1.48 0 01.27-.44 1.31 1.31 0 01.41-.3 1.12 1.12 0 01.51-.11 1.09 1.09 0 01.42.07 1.21 1.21 0 01.28.16.86.86 0 01.21.22v-.38zm1.95-.07h.39l-.18.44h-.31a.45.45 0 00-.27.07.77.77 0 00-.19.16 1.07 1.07 0 00-.15.22v1.85h-.49v-2.68h.46v.41a1.08 1.08 0 01.18-.24.92.92 0 01.24-.17.67.67 0 01.33-.07m.53.08h.52v-.82h.49v.82h.84v.44h-.84v1.44a.41.41 0 00.1.31.37.37 0 00.29.11h.21l.1-.06.18.4a1.48 1.48 0 01-.31.13h-.25a1 1 0 01-.29 0 .64.64 0 01-.25-.15.63.63 0 01-.19-.26.89.89 0 01-.08-.38v-1.47h-.52zm4.41 1.11a1.05 1.05 0 00-.06-.24.78.78 0 00-.16-.24 1 1 0 00-.26-.18.78.78 0 00-.35-.07.86.86 0 00-.38.07 1.34 1.34 0 00-.26.19.83.83 0 00-.15.23.9.9 0 00-.07.24zm-.83-1.18a1.3 1.3 0 01.52.1 1.07 1.07 0 01.41.28 1.24 1.24 0 01.27.46 1.55 1.55 0 01.1.59v.15H233a.86.86 0 00.09.3.92.92 0 00.19.25 1.05 1.05 0 00.29.17.84.84 0 00.35.07 1 1 0 00.36-.06 1.17 1.17 0 00.25-.14 1 1 0 00.2-.2l.31.32a1.5 1.5 0 01-.29.27 1.64 1.64 0 01-.35.18 1.42 1.42 0 01-.48.08 1.47 1.47 0 01-.56-.11 1.23 1.23 0 01-.44-.3 1.17 1.17 0 01-.29-.45 1.49 1.49 0 010-1.1 1.29 1.29 0 01.27-.45 1.33 1.33 0 011-.41m3.8.91a1.37 1.37 0 00-.19-.23 1.2 1.2 0 00-.25-.16.73.73 0 00-.35-.07.86.86 0 00-.36.07 1 1 0 00-.28.21.87.87 0 00-.18.31.9.9 0 00-.07.37 1.15 1.15 0 00.06.37 1.05 1.05 0 00.18.31 1 1 0 00.28.2.91.91 0 00.37.08.87.87 0 00.35-.07 1.21 1.21 0 00.25-.17 1.06 1.06 0 00.19-.23zm-.86-.91a1.08 1.08 0 01.65.2.67.67 0 01.21.2v-2h.49v4.39h-.45v-.39a.76.76 0 01-.21.23.83.83 0 01-.28.16 1 1 0 01-.41.07 1.23 1.23 0 01-.51-.11 1.25 1.25 0 01-.42-.3 1.35 1.35 0 01-.27-.45 1.42 1.42 0 01-.1-.55 1.5 1.5 0 01.1-.56 1.3 1.3 0 01.27-.44 1.25 1.25 0 01.42-.3 1.09 1.09 0 01.51-.11m-39.1 6.84a1.37 1.37 0 00-.2-.22.91.91 0 00-.24-.16.74.74 0 00-.3-.08.87.87 0 00-.37.07.86.86 0 00-.28.21.87.87 0 00-.18.31.9.9 0 00-.07.37.94.94 0 00.07.37.87.87 0 00.18.31.84.84 0 00.28.2.87.87 0 00.37.08.89.89 0 00.34-.07.91.91 0 00.24-.16 1.1 1.1 0 00.2-.23zm.49-.83v2.68h-.45v-.39a1.15 1.15 0 01-.21.23 1.3 1.3 0 01-.29.16 1 1 0 01-.42.07 1.25 1.25 0 01-.5-.11 1.21 1.21 0 01-.41-.3 1.28 1.28 0 01-.28-.45 1.63 1.63 0 01-.1-.55 1.74 1.74 0 01.1-.56 1.33 1.33 0 01.33-.41 1.21 1.21 0 01.41-.3 1.1 1.1 0 01.5-.11 1 1 0 01.42.07 1.3 1.3 0 01.29.16 1.45 1.45 0 01.21.22v-.38zm2.02-.07a1.21 1.21 0 01.38.06 1 1 0 01.33.2 1.07 1.07 0 01.22.32 1 1 0 01.08.44v1.73h-.48v-1.64a.85.85 0 00-.05-.3.6.6 0 00-.14-.2.45.45 0 00-.21-.12.69.69 0 00-.25 0 .54.54 0 00-.29.07.72.72 0 00-.21.16 1.18 1.18 0 00-.17.22v1.85H199v-2.68h.46v.33a1 1 0 01.19-.22 1.37 1.37 0 01.25-.15.92.92 0 01.38-.07m2.93 2.37a.91.91 0 00.37-.08 1 1 0 00.28-.2 1.33 1.33 0 00.18-.31 1.15 1.15 0 00.06-.37 1.1 1.1 0 00-.06-.37 1.33 1.33 0 00-.18-.31.83.83 0 00-.28-.21.9.9 0 00-.37-.07.87.87 0 00-.37.07.74.74 0 00-.28.21.87.87 0 00-.18.31.9.9 0 00-.07.37.94.94 0 00.07.37.87.87 0 00.18.31.84.84 0 00.28.2.87.87 0 00.37.08m0-2.37a1.33 1.33 0 011 .41 1.23 1.23 0 01.3.44 1.5 1.5 0 01.1.56 1.42 1.42 0 01-.1.55 1.27 1.27 0 01-.3.45 1.28 1.28 0 01-.43.3 1.46 1.46 0 01-.55.11 1.42 1.42 0 01-.55-.11 1.23 1.23 0 01-.44-.3 1.25 1.25 0 01-.29-.45 1.42 1.42 0 01-.11-.55 1.51 1.51 0 01.11-.56 1.21 1.21 0 01.29-.44 1.23 1.23 0 01.44-.3 1.26 1.26 0 01.55-.11m1.69.07h.52v-.82h.49v.82h.83v.44h-.83v1.44a.46.46 0 00.09.31.39.39 0 00.3.11h.2l.1-.06.18.4a1.43 1.43 0 01-.3.13h-.25a.93.93 0 01-.29 0 .68.68 0 01-.26-.15.73.73 0 01-.19-.26.89.89 0 01-.07-.38v-1.47h-.52zm3.8-.07a1.21 1.21 0 01.38.06 1 1 0 01.32.2.91.91 0 01.22.32 1 1 0 01.09.44v1.73h-.49v-1.64a.85.85 0 00-.05-.3.48.48 0 00-.14-.2.37.37 0 00-.2-.12.75.75 0 00-.26 0 .54.54 0 00-.29.07 1.16 1.16 0 00-.21.16 1.12 1.12 0 00-.16.22v1.85h-.49v-4.39h.49v2l.09-.11a.7.7 0 01.16-.13 1 1 0 01.23-.11 1 1 0 01.31 0m3.74 1.13a.53.53 0 00-.06-.24.78.78 0 00-.16-.24 1 1 0 00-.26-.18.78.78 0 00-.35-.07.89.89 0 00-.38.07 1 1 0 00-.25.19.87.87 0 00-.16.23.9.9 0 00-.07.24zm-.83-1.18a1.3 1.3 0 01.52.1 1.2 1.2 0 01.41.28 1.42 1.42 0 01.28.46 1.78 1.78 0 01.1.59v.15h-2.17a.86.86 0 00.09.3 1 1 0 00.2.25.88.88 0 00.28.17.86.86 0 00.36.07 1 1 0 00.35-.06 1 1 0 00.25-.14.76.76 0 00.2-.2l.31.32a1.5 1.5 0 01-.29.27 1.27 1.27 0 01-.35.18 1.4 1.4 0 01-.47.08 1.48 1.48 0 01-.57-.11 1.23 1.23 0 01-.44-.3 1.29 1.29 0 01-.29-.45 1.42 1.42 0 01-.1-.55 1.63 1.63 0 01.09-.55 1.68 1.68 0 01.27-.45 1.19 1.19 0 01.43-.3 1.23 1.23 0 01.55-.11m3.06 0h.39l-.18.44h-.31a.51.51 0 00-.28.07l-.19.16-.15.22v1.85h-.48v-2.68h.5v.38a1.08 1.08 0 01.18-.24 1.06 1.06 0 01.23-.17.74.74 0 01.34-.07m4.33.94a.83.83 0 00-.2-.22.91.91 0 00-.24-.16.78.78 0 00-.35-.07.9.9 0 00-.37.07.83.83 0 00-.28.21.87.87 0 00-.18.31 1.1 1.1 0 00-.06.37 1.15 1.15 0 00.06.37.87.87 0 00.18.31 1 1 0 00.28.2.86.86 0 001-.15 1.1 1.1 0 00.2-.23zm0 1.51l-.1.12a.83.83 0 01-.18.13 1 1 0 01-.25.11 1.14 1.14 0 01-.33 0 1.27 1.27 0 01-.52-.11 1.3 1.3 0 01-.68-.75 1.42 1.42 0 01-.11-.55 1.51 1.51 0 01.11-.56 1.29 1.29 0 01.27-.45 1.33 1.33 0 01.41-.29 1.13 1.13 0 01.52-.11 1 1 0 01.41.07 1 1 0 01.28.16.86.86 0 01.21.22v-.39h.45v2.7a1.62 1.62 0 01-.11.61 1.15 1.15 0 01-.3.44 1.43 1.43 0 01-.45.26 1.71 1.71 0 01-.55.09 1.54 1.54 0 01-.5-.08 1.59 1.59 0 01-.37-.18 1.54 1.54 0 01-.31-.25l.3-.37a1.15 1.15 0 00.23.21 1.06 1.06 0 00.28.15 1 1 0 00.37.06.91.91 0 00.67-.23.86.86 0 00.25-.68zm2.44-2.41h.39l-.18.44h-.31a.51.51 0 00-.28.07 1 1 0 00-.19.16l-.15.22v1.85h-.49v-2.68h.46v.38a1.08 1.08 0 01.18-.24 1.06 1.06 0 01.23-.17.74.74 0 01.34-.07m1.88 2.41a.86.86 0 00.36-.08 1 1 0 00.29-.2 1.33 1.33 0 00.18-.31 1.15 1.15 0 00.06-.37 1.1 1.1 0 00-.06-.37 1.33 1.33 0 00-.18-.31.84.84 0 00-.65-.28.87.87 0 00-.37.07.86.86 0 00-.29.21 1.33 1.33 0 00-.18.31 1.1 1.1 0 00-.06.37 1.15 1.15 0 00.06.37 1.33 1.33 0 00.18.31 1 1 0 00.29.2.87.87 0 00.37.08m0-2.37a1.22 1.22 0 01.54.11 1.23 1.23 0 01.44.3 1.21 1.21 0 01.29.44 1.51 1.51 0 01.11.56 1.42 1.42 0 01-.11.55 1.25 1.25 0 01-.29.45 1.23 1.23 0 01-.44.3 1.41 1.41 0 01-1.09 0 1.23 1.23 0 01-.44-.3 1.25 1.25 0 01-.29-.45 1.42 1.42 0 01-.12-.52 1.51 1.51 0 01.11-.56 1.21 1.21 0 01.29-.44 1.37 1.37 0 011-.41m2.95 2.79a1 1 0 01-.39-.07.94.94 0 01-.32-.19 1 1 0 01-.22-.33 1 1 0 01-.08-.44v-1.72h.49v1.64a.62.62 0 00.18.5.72.72 0 00.76.09l.21-.15a1.12 1.12 0 00.16-.22v-1.86h.49v2.68h-.46v-.41a1.12 1.12 0 01-.19.24 1.06 1.06 0 01-.26.17.82.82 0 01-.37.07m2.51-.91a1 1 0 00.19.23 1.2 1.2 0 00.25.16.91.91 0 00.35.07.87.87 0 00.37-.08 1 1 0 00.28-.2.87.87 0 00.18-.31 1.15 1.15 0 00.06-.37 1.1 1.1 0 00-.06-.37.87.87 0 00-.18-.31 1 1 0 00-.28-.21.87.87 0 00-.37-.07.75.75 0 00-.35.07 1.2 1.2 0 00-.25.16 1 1 0 00-.19.23zm0-1.84v.37a1.45 1.45 0 01.21-.22 1.47 1.47 0 01.28-.16 1.06 1.06 0 01.42-.07 1.12 1.12 0 01.51.11 1.21 1.21 0 01.41.3 1.33 1.33 0 01.28.44 1.74 1.74 0 01.1.56 1.63 1.63 0 01-.1.55 1.28 1.28 0 01-.28.45 1.21 1.21 0 01-.41.3 1.26 1.26 0 01-.51.11.9.9 0 01-.34 0 1 1 0 01-.25-.11.83.83 0 01-.18-.13l-.1-.11v1.67h-.49v-4z" transform="translate(-28.5 -14.7)"/></g><path class="cls-7" d="M160.14 469.75h.63l.1-.7h-.63zm-1.1-1.21h.75l.17-1.23.51.07-.16 1.16h.63l.17-1.23.51.07-.16 1.16h.68v.51h-.75l-.1.7h.71v.51h-.74l-.19 1.32-.51-.07.18-1.25h-.63l-.19 1.32-.51-.07.17-1.25h-.68v-.51h.76l.1-.7H159z" transform="translate(-28.5 -14.7)"/><g class="cls-3"><path class="cls-6" d="M166.38 470.45a.54.54 0 00-.06-.27.68.68 0 00-.17-.21.89.89 0 00-.25-.16l-.31-.16-.43-.21a1.48 1.48 0 01-.35-.25 1 1 0 01-.34-.78 1 1 0 01.08-.37.9.9 0 01.22-.34 1.12 1.12 0 01.37-.26 1.29 1.29 0 01.51-.1 1.27 1.27 0 01.5.1 1.49 1.49 0 01.36.2 1.37 1.37 0 01.29.3l-.36.29a2.08 2.08 0 00-.21-.21 1 1 0 00-.25-.14.72.72 0 00-.33-.07.9.9 0 00-.3.05.64.64 0 00-.21.14.56.56 0 00-.14.2.78.78 0 000 .21.54.54 0 00.06.27.76.76 0 00.19.21 1.7 1.7 0 00.28.18l.38.18.42.21a1.37 1.37 0 01.32.25.92.92 0 01.2.31 1.14 1.14 0 01.07.43.93.93 0 01-.1.45 1 1 0 01-.26.35 1.16 1.16 0 01-.41.22 1.54 1.54 0 01-1.11-.05 1.52 1.52 0 01-.39-.29 1.55 1.55 0 01-.29-.43l.41-.24a1.1 1.1 0 00.48.53.76.76 0 00.41.1 1.35 1.35 0 00.28 0 .9.9 0 00.24-.12.72.72 0 00.18-.21.57.57 0 00.06-.27m3.12-.58a.6.6 0 00-.06-.24.91.91 0 00-.16-.24.94.94 0 00-.25-.18.83.83 0 00-.36-.07.81.81 0 00-.37.08.86.86 0 00-.26.18.78.78 0 00-.16.24.71.71 0 00-.06.23zm-.83-1.18a1.27 1.27 0 01.52.1 1.22 1.22 0 01.42.29 1.42 1.42 0 01.27.45 1.55 1.55 0 01.1.59v.07a.31.31 0 010 .09h-2.17a.81.81 0 00.09.29 1 1 0 00.2.25 1 1 0 00.28.18 1 1 0 00.36.06 1 1 0 00.35-.06 1 1 0 00.25-.14 1 1 0 00.21-.2l.3.32a1.07 1.07 0 01-.29.27 1.27 1.27 0 01-.35.18 1.13 1.13 0 01-.47.08 1.52 1.52 0 01-.57-.1 1.71 1.71 0 01-.44-.3 1.4 1.4 0 01-.39-1 1.63 1.63 0 01.09-.55 1.48 1.48 0 01.28-.45 1.25 1.25 0 01.42-.3 1.42 1.42 0 01.55-.11m3.84 1.17a.6.6 0 00-.06-.24.72.72 0 00-.16-.24.94.94 0 00-.25-.18.8.8 0 00-.36-.07.84.84 0 00-.37.08 1 1 0 00-.26.18 1 1 0 00-.22.47zm-.83-1.18a1.27 1.27 0 01.52.1 1.22 1.22 0 01.42.29 1.13 1.13 0 01.27.45 1.55 1.55 0 01.1.59v.16h-2.17a.79.79 0 00.08.29 1 1 0 00.2.25 1 1 0 00.29.18 1 1 0 00.35.06 1 1 0 00.35-.06 1 1 0 00.26-.14 1.26 1.26 0 00.2-.2l.31.32a1.24 1.24 0 01-.29.27 1.64 1.64 0 01-.35.18 1.21 1.21 0 01-.48.08 1.47 1.47 0 01-.56-.1 1.55 1.55 0 01-.44-.3 1.34 1.34 0 01-.29-.45 1.51 1.51 0 01-.11-.56 1.42 1.42 0 01.1-.55 1.29 1.29 0 01.27-.45 1.25 1.25 0 01.42-.3 1.42 1.42 0 01.55-.11" transform="translate(-28.5 -14.7)"/></g><path class="cls-6" d="M145.69 455.48v1.3h-.48v-4.39h.48v2.9l1.15-1.19h.64l-1.25 1.26 1.36 1.42h-.68l-1.22-1.3z"/><g class="cls-3"><path class="cls-6" d="M178.37 469.91a1.4 1.4 0 00-.06-.24.91.91 0 00-.16-.24 1 1 0 00-.26-.18.78.78 0 00-.35-.07.86.86 0 00-.38.08 1 1 0 00-.26.18 1 1 0 00-.22.47zm-.83-1.18a1.3 1.3 0 01.52.1 1.09 1.09 0 01.41.29 1.13 1.13 0 01.27.45 1.55 1.55 0 01.1.59v.16h-2.17a.81.81 0 00.09.29.92.92 0 00.19.25 1.08 1.08 0 00.29.18 1 1 0 00.35.06 1 1 0 00.41-.1 1.17 1.17 0 00.25-.14 1 1 0 00.2-.2l.31.32a1.24 1.24 0 01-.29.27 1.64 1.64 0 01-.35.18 1.21 1.21 0 01-.48.08 1.47 1.47 0 01-.56-.1 1.55 1.55 0 01-.44-.3 1.34 1.34 0 01-.29-.45 1.51 1.51 0 01-.11-.56 1.42 1.42 0 01.1-.55 1.29 1.29 0 01.27-.45 1.19 1.19 0 01.43-.3 1.35 1.35 0 01.55-.11m3.02.04h.39l-.19.44h-.3a.61.61 0 00-.28.07.77.77 0 00-.19.16.91.91 0 00-.15.23v1.84h-.49v-2.67h.46v.41a1.08 1.08 0 01.14-.21 1.06 1.06 0 01.23-.17.74.74 0 01.34-.07m.9 1.92a1.45 1.45 0 00.21.22 1.17 1.17 0 00.25.14.8.8 0 00.36.07h.2a.6.6 0 00.19-.06.47.47 0 00.13-.11.2.2 0 00.06-.14.29.29 0 00-.15-.27 1.42 1.42 0 00-.46-.16 2.11 2.11 0 01-.4-.11 1.31 1.31 0 01-.31-.17.52.52 0 01-.2-.24.67.67 0 01-.08-.33.68.68 0 01.07-.28.82.82 0 01.2-.25 1.09 1.09 0 01.32-.17 1 1 0 01.4-.07 1.33 1.33 0 01.42.06 1.29 1.29 0 01.31.14 1.15 1.15 0 01.27.21l-.32.33a.9.9 0 00-.19-.15 1 1 0 00-.21-.1.87.87 0 00-.28-.05.58.58 0 00-.38.1.3.3 0 00-.13.24.28.28 0 00.16.25 2 2 0 00.49.16l.37.1a1.43 1.43 0 01.3.16.79.79 0 01.21.24.75.75 0 01.08.35.65.65 0 01-.1.34.75.75 0 01-.25.25 1.16 1.16 0 01-.34.14 1.28 1.28 0 01-.38.05 1.5 1.5 0 01-.5-.08 1.81 1.81 0 01-.37-.2 1.53 1.53 0 01-.29-.28zm4.2-1.88h.49v2.68h-.49zm-.09-.86a.34.34 0 01.33-.33.33.33 0 01.24.1.33.33 0 01.09.23.32.32 0 01-.09.23.33.33 0 01-.24.1.3.3 0 01-.23-.1.29.29 0 01-.1-.23m2.69.79a1 1 0 01.38.07.94.94 0 01.32.19 1 1 0 01.22.33 1 1 0 01.09.44v1.72h-.49v-1.64a.85.85 0 000-.3.48.48 0 00-.14-.2.37.37 0 00-.2-.12.75.75 0 00-.26 0 .65.65 0 00-.29.07 1.16 1.16 0 00-.21.16.94.94 0 00-.16.23v1.84H187v-2.72h.45v.38a.82.82 0 01.19-.22 1.05 1.05 0 01.26-.16.86.86 0 01.38-.07m-19.03 7.47a1.06 1.06 0 00-.19-.23.87.87 0 00-.25-.15.75.75 0 00-.35-.08.89.89 0 00-.65.28 1 1 0 00-.17.31.94.94 0 00-.07.37.9.9 0 00.07.37 1 1 0 00.17.31 1 1 0 00.28.21.94.94 0 00.37.07.73.73 0 00.35-.07 1.2 1.2 0 00.25-.16 1 1 0 00.19-.22zm0 1.51a.47.47 0 01-.1.11 1.41 1.41 0 01-.18.14 1.17 1.17 0 01-.25.11 1.15 1.15 0 01-.33 0 1.12 1.12 0 01-.51-.11 1.25 1.25 0 01-.42-.3 1.48 1.48 0 01-.27-.44 1.5 1.5 0 01-.1-.56 1.51 1.51 0 01.37-1 1.25 1.25 0 01.42-.3 1.26 1.26 0 01.51-.11 1 1 0 01.41.07 1.3 1.3 0 01.29.16 1.07 1.07 0 01.2.23v-.39h.45v2.7a1.48 1.48 0 01-.11.61 1.11 1.11 0 01-.3.43 1.13 1.13 0 01-.45.26 1.67 1.67 0 01-.55.09 1.31 1.31 0 01-.5-.08 2.14 2.14 0 01-.37-.17 1.28 1.28 0 01-.3-.26l.29-.37a1.58 1.58 0 00.23.22 1.46 1.46 0 00.28.14.87.87 0 00.37.07 1 1 0 00.68-.23.93.93 0 00.24-.69zm2.44-2.42h.39l-.18.44h-.31a.54.54 0 00-.27.07.77.77 0 00-.19.16 1.34 1.34 0 00-.16.23V478h-.48v-2.68h.45v.41a1.08 1.08 0 01.18-.24.92.92 0 01.24-.17.67.67 0 01.33-.07m1.88 2.41a.77.77 0 00.37-.08.8.8 0 00.28-.2.87.87 0 00.18-.31 1.1 1.1 0 00.06-.37 1.15 1.15 0 00-.06-.37.87.87 0 00-.18-.31 1 1 0 00-.28-.2.91.91 0 00-.37-.08.87.87 0 00-.37.08.84.84 0 00-.28.2.87.87 0 00-.18.31.94.94 0 00-.07.37.9.9 0 00.07.37.87.87 0 00.18.31.72.72 0 00.28.2.75.75 0 00.37.08m0-2.37a1.46 1.46 0 01.55.11 1.32 1.32 0 01.44.3 1.29 1.29 0 01.29.45 1.42 1.42 0 01.1.55 1.5 1.5 0 01-.1.56 1.35 1.35 0 01-.29.44 1.32 1.32 0 01-.44.3 1.29 1.29 0 01-.55.11 1.26 1.26 0 01-.57-.11 1.23 1.23 0 01-.44-.3 1.35 1.35 0 01-.29-.44 1.51 1.51 0 01-.11-.56 1.42 1.42 0 01.11-.55 1.29 1.29 0 01.29-.45 1.23 1.23 0 01.44-.3 1.42 1.42 0 01.55-.11m2.97 2.82a1.27 1.27 0 01-.39-.06 1 1 0 01-.32-.2 1 1 0 01-.22-.32 1.25 1.25 0 01-.08-.45v-1.72h.49V477a.62.62 0 00.18.5.68.68 0 00.46.16.6.6 0 00.3-.07l.21-.15a1.12 1.12 0 00.16-.22v-1.86h.49V478h-.45v-.41a1.22 1.22 0 01-.2.25 1.2 1.2 0 01-.25.16.89.89 0 01-.38.07m2.48-.87a1.06 1.06 0 00.19.23 1.2 1.2 0 00.25.16.78.78 0 00.35.07.75.75 0 00.37-.08.72.72 0 00.28-.2.87.87 0 00.18-.31 1.1 1.1 0 00.06-.37 1.15 1.15 0 00-.06-.37.87.87 0 00-.18-.31.84.84 0 00-.28-.2.87.87 0 00-.37-.08 1 1 0 00-.35.07 1.81 1.81 0 00-.25.16 1.37 1.37 0 00-.19.23zm0-1.84v.39a1.19 1.19 0 01.22-.23 1.13 1.13 0 01.27-.16 1.06 1.06 0 01.42-.07 1.26 1.26 0 01.51.11 1.12 1.12 0 01.41.3 1.28 1.28 0 01.28.45 1.42 1.42 0 01.1.55 1.5 1.5 0 01-.1.56 1.33 1.33 0 01-.28.44 1.24 1.24 0 01-.92.41 1.06 1.06 0 01-.33 0 1.56 1.56 0 01-.26-.11l-.17-.13-.11-.12v1.67h-.49v-4z" transform="translate(-28.5 -14.7)"/></g><path class="cls-7" d="M224 469.75h.63l.1-.7H224zm-1.1-1.21h.75l.17-1.23.51.07-.17 1.16h.64l.17-1.23.51.07-.16 1.16h.68v.51h-.75l-.1.7h.67v.51H225l-.19 1.32-.51-.07.17-1.25h-.62l-.19 1.32-.51-.07.17-1.25h-.68v-.51h.76l.1-.7h-.68z" transform="translate(-28.5 -14.7)"/><g class="cls-3"><path class="cls-6" d="M229.59 471a1 1 0 00.41 0 .59.59 0 00.27-.15.86.86 0 00.15-.22.75.75 0 000-.54.86.86 0 00-.15-.22.87.87 0 00-.27-.15 1 1 0 00-.37-.06h-.79V471zm-.12-1.85a.81.81 0 00.53-.15.63.63 0 00.2-.48.62.62 0 00-.2-.47.81.81 0 00-.54-.17h-.67v1.29zm-1.15-1.76h1.07a1.43 1.43 0 011 .3 1 1 0 01.33.81 1 1 0 01-.06.36.87.87 0 01-.15.25.64.64 0 01-.15.14l-.1.05.14.05a1.11 1.11 0 01.23.15 1.3 1.3 0 01.22.31 1.13 1.13 0 01.09.49 1.21 1.21 0 01-.09.48.91.91 0 01-.27.37 1.09 1.09 0 01-.41.23 1.63 1.63 0 01-.55.08h-1.27zm5.15 2.24a2.09 2.09 0 00-.2-.22 1.2 1.2 0 00-.25-.16.86.86 0 00-.34-.07.91.91 0 00-.37.08 1 1 0 00-.28.2.87.87 0 00-.18.31 1.17 1.17 0 000 .74.87.87 0 00.18.31.8.8 0 00.28.2.91.91 0 00.37.08.71.71 0 00.32-.1 1.2 1.2 0 00.25-.16 1.42 1.42 0 00.2-.22zm.48-.83v2.68h-.44v-.39a1 1 0 01-.22.24 1.21 1.21 0 01-.28.15 1.09 1.09 0 01-.42.07 1 1 0 01-.5-.11 1.12 1.12 0 01-.41-.3 1.33 1.33 0 01-.28-.44 1.62 1.62 0 010-1.12 1.33 1.33 0 01.28-.44 1.12 1.12 0 01.41-.3 1.18 1.18 0 01.5-.11 1.09 1.09 0 01.42.07 1.21 1.21 0 01.28.16 1.19 1.19 0 01.22.23v-.39zm1.24 1.84a.83.83 0 00.19.23 1 1 0 00.25.16.75.75 0 00.35.07.91.91 0 00.37-.08.8.8 0 00.28-.2.87.87 0 00.18-.31 1.17 1.17 0 000-.74.87.87 0 00-.18-.31 1 1 0 00-.28-.2.9.9 0 00-.72 0 1.36 1.36 0 00-.25.16 1 1 0 00-.19.23zm0-1.84v.39a1.12 1.12 0 01.21-.23 1.47 1.47 0 01.28-.16 1 1 0 01.41-.07 1.19 1.19 0 01.51.11 1.25 1.25 0 01.42.3 1.3 1.3 0 01.27.44 1.48 1.48 0 010 1.12 1.3 1.3 0 01-.27.44 1.25 1.25 0 01-.42.3 1.06 1.06 0 01-.51.11 1.15 1.15 0 01-.33 0l-.25-.11-.18-.13-.1-.12v1.67h-.49v-4zm2.49 0h.52v-.8h.49v.82h.84v.44h-.84v1.45a.4.4 0 00.1.3.37.37 0 00.29.11.2.2 0 00.11 0 .29.29 0 00.1 0l.1-.06.18.4a1.09 1.09 0 01-.31.13h-.25a.77.77 0 01-.29-.05.64.64 0 01-.25-.15.65.65 0 01-.19-.26.86.86 0 01-.08-.38v-1.47h-.52zm2.51 0h.48v2.68h-.48zm-.09-.86a.3.3 0 01.1-.23.31.31 0 01.46 0 .3.3 0 01.1.23.33.33 0 01-.66 0" transform="translate(-28.5 -14.7)"/></g><path class="cls-6" d="M215.23 454.1l-1.54 2.23h1.48v.45h-2.34l1.54-2.23h-1.46v-.45h2.32z"/><g class="cls-3"><path class="cls-6" d="M246.23 469.91a1.4 1.4 0 00-.06-.24.91.91 0 00-.16-.24 1 1 0 00-.26-.18.78.78 0 00-.35-.07.86.86 0 00-.38.08 1 1 0 00-.26.18 1 1 0 00-.22.47zm-.83-1.18a1.3 1.3 0 01.52.1 1.09 1.09 0 01.41.29 1.13 1.13 0 01.27.45 1.55 1.55 0 01.1.59v.16h-2.17a.81.81 0 00.09.29.92.92 0 00.19.25 1.08 1.08 0 00.29.18 1 1 0 00.35.06 1 1 0 00.36-.06 1.17 1.17 0 00.25-.14 1 1 0 00.2-.2l.31.32a1.24 1.24 0 01-.29.27 1.64 1.64 0 01-.35.18 1.21 1.21 0 01-.48.08 1.47 1.47 0 01-.56-.1 1.55 1.55 0 01-.44-.3 1.34 1.34 0 01-.29-.45 1.51 1.51 0 01-.11-.56 1.42 1.42 0 01.1-.55 1.29 1.29 0 01.27-.45 1.19 1.19 0 01.43-.3 1.35 1.35 0 01.55-.11m3.84.92a1.12 1.12 0 00-.19-.24 1.81 1.81 0 00-.25-.16.88.88 0 00-.71 0 1 1 0 00-.28.2.87.87 0 00-.18.31.94.94 0 00-.07.37 1.1 1.1 0 00.06.37 1.05 1.05 0 00.18.31.8.8 0 00.28.2.77.77 0 00.37.08.73.73 0 00.35-.07 1.2 1.2 0 00.25-.16 1.37 1.37 0 00.19-.23zm-.86-.92a1.12 1.12 0 01.38.06 1.67 1.67 0 01.27.14.81.81 0 01.21.2v-2h.49v4.39h-.45v-.39a.79.79 0 01-.21.24 1 1 0 01-.28.15 1 1 0 01-.41.07 1.09 1.09 0 01-.51-.11 1.25 1.25 0 01-.42-.3 1.3 1.3 0 01-.27-.44 1.5 1.5 0 01-.1-.56 1.42 1.42 0 01.1-.55 1.28 1.28 0 01.69-.75 1.23 1.23 0 01.51-.11m4.42 1.87a1.37 1.37 0 00.19.23 1.2 1.2 0 00.25.16.78.78 0 00.35.07.75.75 0 00.41-.1.72.72 0 00.28-.2.87.87 0 00.18-.31 1.1 1.1 0 00.06-.37 1.15 1.15 0 00-.06-.37 1.33 1.33 0 00-.18-.31.88.88 0 00-.29-.2.86.86 0 00-.36-.08 1 1 0 00-.35.07 1.81 1.81 0 00-.25.16 1.12 1.12 0 00-.19.24zm.87-1.91a1.26 1.26 0 01.51.11 1.12 1.12 0 01.41.3 1.28 1.28 0 01.28.45 1.42 1.42 0 01.1.55 1.5 1.5 0 01-.1.56 1.33 1.33 0 01-.28.44 1.24 1.24 0 01-.92.41 1.06 1.06 0 01-.42-.07 1.21 1.21 0 01-.28-.15.79.79 0 01-.21-.24v.39h-.45v-4.39h.49v2a1.34 1.34 0 01.21-.2 1.67 1.67 0 01.27-.14 1.14 1.14 0 01.39-.06m3.85 1.22a.9.9 0 00-.07-.24.87.87 0 00-.15-.24 1 1 0 00-.26-.18.8.8 0 00-.36-.07.84.84 0 00-.37.08 1 1 0 00-.26.18 1 1 0 00-.22.47zm-.84-1.18a1.27 1.27 0 01.52.1 1.22 1.22 0 01.69.74 1.55 1.55 0 01.1.59v.16h-2.17a.81.81 0 00.09.29.92.92 0 00.19.25 1 1 0 00.29.18 1 1 0 00.35.06 1 1 0 00.35-.06 1 1 0 00.26-.14 1.26 1.26 0 00.2-.2l.31.32a1.24 1.24 0 01-.29.27 1.64 1.64 0 01-.35.18 1.21 1.21 0 01-.48.08 1.47 1.47 0 01-.56-.1 1.55 1.55 0 01-.44-.3 1.34 1.34 0 01-.29-.45 1.51 1.51 0 01-.11-.56 1.42 1.42 0 01.1-.55 1.29 1.29 0 01.27-.45 1.19 1.19 0 01.43-.3 1.33 1.33 0 01.54-.11" transform="translate(-28.5 -14.7)"/></g><path class="cls-6" d="M230.16 452.39h.49v4.4h-.49z"/><g class="cls-3"><path class="cls-6" d="M260.08 468.8h.49v2.68h-.49zm-.09-.86a.34.34 0 01.1-.23.3.3 0 01.23-.1.33.33 0 01.24.1.34.34 0 01.1.23.34.34 0 01-.34.33.3.3 0 01-.23-.1.33.33 0 01-.1-.23m3.4 1.97a1.4 1.4 0 00-.06-.24.91.91 0 00-.16-.24 1 1 0 00-.26-.18.78.78 0 00-.35-.07.86.86 0 00-.38.08 1 1 0 00-.26.18 1 1 0 00-.22.47zm-.83-1.18a1.3 1.3 0 01.52.1 1.09 1.09 0 01.41.29 1.13 1.13 0 01.27.45 1.55 1.55 0 01.1.59v.16h-2.17a.81.81 0 00.09.29.92.92 0 00.19.25 1.08 1.08 0 00.29.18 1 1 0 00.35.06 1 1 0 00.39-.1 1.17 1.17 0 00.25-.14 1 1 0 00.2-.2l.31.32a1.24 1.24 0 01-.29.27 1.64 1.64 0 01-.35.18 1.21 1.21 0 01-.48.08 1.47 1.47 0 01-.56-.1 1.55 1.55 0 01-.44-.3 1.34 1.34 0 01-.29-.45 1.51 1.51 0 01-.11-.56 1.42 1.42 0 01.1-.55 1.29 1.29 0 01.27-.45 1.19 1.19 0 01.43-.3 1.35 1.35 0 01.55-.11" transform="translate(-28.5 -14.7)"/></g><path class="cls-6" d="M236.04 454.1l.83 1.82.82-1.82h.5l-1.34 2.8-1.35-2.8h.54z"/><g class="cls-3"><path class="cls-6" d="M269 469.91a.6.6 0 00-.06-.24.72.72 0 00-.16-.24.94.94 0 00-.25-.18.8.8 0 00-.36-.07.81.81 0 00-.37.08.86.86 0 00-.26.18.78.78 0 00-.16.24.71.71 0 00-.06.23zm-.83-1.18a1.27 1.27 0 01.52.1 1.22 1.22 0 01.42.29 1.26 1.26 0 01.27.45 1.55 1.55 0 01.1.59v.07a.31.31 0 010 .09h-2.16a.63.63 0 00.08.29 1 1 0 00.2.25 1 1 0 001 .18 1 1 0 00.25-.14 1 1 0 00.21-.2l.31.32a1.48 1.48 0 01-.29.27 1.51 1.51 0 01-.36.18 1.13 1.13 0 01-.47.08 1.43 1.43 0 01-.56-.1 1.77 1.77 0 01-.45-.3 1.4 1.4 0 01-.39-1 1.63 1.63 0 01.09-.55 1.48 1.48 0 01.28-.45 1.25 1.25 0 01.42-.3 1.42 1.42 0 01.55-.11m3.05-.01h.39l-.18.44h-.31a.54.54 0 00-.27.07.77.77 0 00-.19.16.91.91 0 00-.15.23v1.84H270v-2.67h.45v.41a1.08 1.08 0 01.18-.24.92.92 0 01.24-.17.67.67 0 01.33-.07m.91 1.95a1.45 1.45 0 00.21.22 1.17 1.17 0 00.25.14.78.78 0 00.35.07h.21a.48.48 0 00.18-.06.4.4 0 00.14-.11.19.19 0 00.05-.14.29.29 0 00-.15-.27 1.33 1.33 0 00-.46-.16 2.22 2.22 0 01-.39-.11 1.14 1.14 0 01-.31-.17.61.61 0 01-.21-.24.67.67 0 01-.07-.33.55.55 0 01.07-.28.69.69 0 01.2-.25 1 1 0 01.31-.17 1.07 1.07 0 01.41-.07 1.33 1.33 0 01.42.06 1.51 1.51 0 01.31.14 1.09 1.09 0 01.26.21l-.32.33a.65.65 0 00-.18-.15.9.9 0 00-.22-.1.76.76 0 00-.27-.05.59.59 0 00-.39.1.31.31 0 00-.12.24.28.28 0 00.16.25 1.85 1.85 0 00.49.16l.36.1a1.29 1.29 0 01.31.16 1 1 0 01.21.24.75.75 0 01.07.35.64.64 0 01-.09.34 1 1 0 01-.25.25 1.22 1.22 0 01-.35.14 1.2 1.2 0 01-.38.05 1.5 1.5 0 01-.5-.08 2 2 0 01-.36-.2 1.28 1.28 0 01-.29-.28zm-33.6 4.68h.49V478h-.49zm-.08-.86a.33.33 0 01.09-.23.33.33 0 01.24-.1.3.3 0 01.23.1.34.34 0 01.1.23.33.33 0 01-.1.23.3.3 0 01-.23.1.33.33 0 01-.24-.1.32.32 0 01-.09-.23m2.68.79a1 1 0 01.38.07.94.94 0 01.32.19 1 1 0 01.23.33 1.15 1.15 0 01.08.44V478h-.49v-1.6a.67.67 0 000-.3.46.46 0 00-.13-.2.45.45 0 00-.21-.12.69.69 0 00-.25 0 .73.73 0 00-.3.07.83.83 0 00-.2.16 1 1 0 00-.17.23V478h-.49v-2.68h.46v.38a.67.67 0 01.19-.22 1 1 0 01.25-.16.89.89 0 01.38-.07m5.32.95a1.1 1.1 0 00-.2-.23.87.87 0 00-.25-.15.74.74 0 00-.34-.08.87.87 0 00-.37.08 1 1 0 00-.29.2 1 1 0 00-.17.31 1.15 1.15 0 00-.06.37 1.1 1.1 0 00.06.37.81.81 0 00.46.52.87.87 0 00.37.07.71.71 0 00.34-.07 1.2 1.2 0 00.25-.16 1.42 1.42 0 00.2-.22zm0 1.51l-.11.11a.7.7 0 01-.18.14 1.17 1.17 0 01-.25.11 1.15 1.15 0 01-.33 0 1.24 1.24 0 01-.92-.41 1.33 1.33 0 01-.28-.44 1.5 1.5 0 01-.1-.56 1.42 1.42 0 01.1-.55 1.28 1.28 0 01.28-.45 1.12 1.12 0 01.41-.3 1.26 1.26 0 01.51-.11 1.09 1.09 0 01.42.07 1.47 1.47 0 01.28.16 1.51 1.51 0 01.21.23v-.39h.48v2.7a1.48 1.48 0 01-.11.61 1.11 1.11 0 01-.3.43 1.13 1.13 0 01-.45.26 1.63 1.63 0 01-.55.09 1.26 1.26 0 01-.49-.08 1.84 1.84 0 01-.37-.17 1.34 1.34 0 01-.31-.26l.29-.37a1.26 1.26 0 00.24.22 1.36 1.36 0 00.27.14.87.87 0 00.37.07 1 1 0 00.68-.23.94.94 0 00.25-.69zm2.43-2.42h.39l-.18.44h-.31a.57.57 0 00-.27.07.77.77 0 00-.19.16.91.91 0 00-.15.23V478h-.49v-2.68h.45v.41a1.08 1.08 0 01.18-.24.92.92 0 01.24-.17.67.67 0 01.33-.07m1.88 2.41a.77.77 0 00.37-.08.8.8 0 00.28-.2.87.87 0 00.18-.31 1.1 1.1 0 00.06-.37 1.15 1.15 0 00-.06-.37.87.87 0 00-.18-.31 1 1 0 00-.28-.2.91.91 0 00-.37-.08.87.87 0 00-.37.08 1 1 0 00-.28.2.87.87 0 00-.18.31 1.16 1.16 0 00-.07.37 1.11 1.11 0 00.07.37.87.87 0 00.18.31.8.8 0 00.28.2.75.75 0 00.37.08m0-2.37a1.42 1.42 0 01.55.11 1.32 1.32 0 01.44.3 1.29 1.29 0 01.29.45 1.42 1.42 0 01.1.55 1.5 1.5 0 01-.1.56 1.35 1.35 0 01-.29.44 1.32 1.32 0 01-.44.3 1.43 1.43 0 01-1.1 0 1.23 1.23 0 01-.44-.3 1.35 1.35 0 01-.29-.44 1.5 1.5 0 01-.1-.56 1.42 1.42 0 01.1-.55 1.29 1.29 0 01.29-.45 1.23 1.23 0 01.44-.3 1.42 1.42 0 01.55-.11m2.95 2.82a1.21 1.21 0 01-.38-.06 1 1 0 01-.33-.2 1.21 1.21 0 01-.22-.32 1.25 1.25 0 01-.08-.45v-1.72h.49V477a.59.59 0 00.19.5.64.64 0 00.45.16.56.56 0 00.3-.07 1 1 0 00.21-.15.82.82 0 00.16-.22v-1.86h.47V478h-.45v-.41a1.22 1.22 0 01-.2.25 1.2 1.2 0 01-.25.16.89.89 0 01-.38.07m2.53-.87a.87.87 0 00.2.23.91.91 0 00.24.16.78.78 0 00.35.07.75.75 0 00.37-.08.84.84 0 00.29-.2 1 1 0 00.17-.31 1.1 1.1 0 00.06-.37 1.15 1.15 0 00-.06-.37 1 1 0 00-.17-.31 1 1 0 00-.29-.2.87.87 0 00-.37-.08 1 1 0 00-.35.07 1.24 1.24 0 00-.24.16 1.07 1.07 0 00-.2.23zm0-1.84v.39a1.19 1.19 0 01.22-.23 1.21 1.21 0 01.28-.16 1 1 0 01.41-.07 1.26 1.26 0 01.51.11 1.12 1.12 0 01.41.3 1.28 1.28 0 01.28.45 1.42 1.42 0 01.1.55 1.5 1.5 0 01-.1.56 1.33 1.33 0 01-.28.44 1.24 1.24 0 01-.92.41 1.15 1.15 0 01-.33 0 1.17 1.17 0 01-.25-.11l-.18-.13-.11-.12v1.67h-.48v-4z" transform="translate(-28.5 -14.7)"/></g><path class="cls-6" d="M130.25 530.32h1.69v.46h-1.69v1.85h-.49v-4.06h2.29v.46h-1.8v1.29z"/><g class="cls-3"><path class="cls-6" d="M162.2 547.41a1.22 1.22 0 01-.38-.07 1 1 0 01-.32-.2.94.94 0 01-.23-.32 1.23 1.23 0 01-.08-.44v-1.73h.49v1.65a.62.62 0 00.19.5.69.69 0 00.46.15.54.54 0 00.29-.07.57.57 0 00.21-.15.92.92 0 00.17-.22v-1.86h.48v2.69H163v-.42a.82.82 0 01-.2.25 1 1 0 01-.25.16.86.86 0 01-.38.08m3.34-2.83a1 1 0 01.38.07.94.94 0 01.32.19 1 1 0 01.22.33 1 1 0 01.09.44v1.73H166v-1.65a.9.9 0 00-.05-.3.57.57 0 00-.34-.32 1.09 1.09 0 00-.26 0 .55.55 0 00-.29.08l-.21.15a1.19 1.19 0 00-.16.23v1.85h-.49v-2.69h.45v.31a1 1 0 01.19-.22 1.05 1.05 0 01.26-.16.86.86 0 01.38-.07m4.08 2.34a1.2 1.2 0 01-.29.26 1.53 1.53 0 01-.34.18 1.36 1.36 0 01-.47.08 1.42 1.42 0 01-.55-.11 1.71 1.71 0 01-.44-.3 1.51 1.51 0 01-.29-.45 1.47 1.47 0 01-.1-.56 1.45 1.45 0 01.1-.55 1.51 1.51 0 01.29-.45 1.49 1.49 0 01.44-.3 1.42 1.42 0 01.55-.11 1.3 1.3 0 01.46.08 1.69 1.69 0 01.33.16 1.61 1.61 0 01.28.24l-.33.3a1 1 0 00-.19-.16 1.34 1.34 0 00-.24-.12 1 1 0 00-.31-.05.87.87 0 00-.37.08.83.83 0 00-.28.21.75.75 0 00-.18.3 1.16 1.16 0 00-.07.37 1.22 1.22 0 00.07.38.92.92 0 00.18.3.83.83 0 00.28.21.87.87 0 00.37.07.86.86 0 00.34-.06.84.84 0 00.25-.13.86.86 0 00.19-.19zm.24-2.24h.53v-.82h.48v.82h.84v.44h-.84v1.45a.5.5 0 00.1.31.37.37 0 00.29.1h.21a.33.33 0 00.1-.06l.18.4a1 1 0 01-.31.13.77.77 0 01-.25 0 .92.92 0 01-.28 0 .93.93 0 01-.26-.15.77.77 0 01-.19-.27.86.86 0 01-.07-.38v-1.47h-.53zm2.51 0h.49v2.69h-.49zm-.09-.86a.3.3 0 01.1-.23.34.34 0 01.23-.1.33.33 0 01.23.1.3.3 0 01.1.23.34.34 0 01-.33.33.3.3 0 01-.23-.1.29.29 0 01-.1-.23m2.6 3.21a.87.87 0 00.37-.07.86.86 0 00.29-.21 1.49 1.49 0 00.18-.3 1.21 1.21 0 00.06-.38 1.15 1.15 0 00-.06-.37 1.09 1.09 0 00-.18-.3.86.86 0 00-.29-.21.87.87 0 00-.37-.08.86.86 0 00-.36.08.78.78 0 00-.29.21 1.09 1.09 0 00-.18.3 1.15 1.15 0 00-.06.37 1.21 1.21 0 00.06.38 1.49 1.49 0 00.18.3.78.78 0 00.29.21.86.86 0 00.36.07m0-2.37a1.38 1.38 0 01.55.11 1.23 1.23 0 01.44.3 1.34 1.34 0 01.29.45 1.46 1.46 0 010 1.11 1.34 1.34 0 01-.29.45 1.55 1.55 0 01-.44.3 1.41 1.41 0 01-1.09 0 1.55 1.55 0 01-.44-.3 1.34 1.34 0 01-.29-.45 1.46 1.46 0 010-1.11 1.34 1.34 0 01.29-.45 1.23 1.23 0 01.44-.3 1.37 1.37 0 01.54-.11m3.18-.05a1 1 0 01.39.07.94.94 0 01.32.19 1 1 0 01.22.33 1 1 0 01.09.44v1.73h-.49v-1.65a.9.9 0 000-.3.56.56 0 00-.14-.2.82.82 0 00-.2-.12 1.09 1.09 0 00-.26 0 .55.55 0 00-.29.08l-.21.15a2 2 0 00-.17.23v1.85h-.48v-2.69h.45v.31a.79.79 0 01.19-.22 1.05 1.05 0 01.26-.16.84.84 0 01.37-.07m1.84.1h.49v2.69h-.49zm-.09-.86a.3.3 0 01.1-.23.34.34 0 01.23-.1.33.33 0 01.23.1.3.3 0 01.1.23.34.34 0 01-.33.33.3.3 0 01-.23-.1.29.29 0 01-.1-.23m2.69.79a1 1 0 01.38.07.94.94 0 01.32.19 1 1 0 01.22.33 1 1 0 01.09.44v1.73h-.5v-1.65a.9.9 0 000-.3.57.57 0 00-.34-.32 1.09 1.09 0 00-.26 0 .55.55 0 00-.29.08l-.21.15a1.19 1.19 0 00-.16.23v1.85h-.49v-2.69h.45v.31a.79.79 0 01.19-.22 1.05 1.05 0 01.26-.16.86.86 0 01.38-.07m3.69.94a1.37 1.37 0 00-.19-.23l-.25-.15a.78.78 0 00-.35-.08.91.91 0 00-.37.08.83.83 0 00-.28.21 1 1 0 00-.18.3 1.15 1.15 0 00-.06.37 1.16 1.16 0 00.06.38 1.14 1.14 0 00.18.3.83.83 0 00.28.21.9.9 0 00.37.07.75.75 0 00.35-.07 1.18 1.18 0 00.25-.15 1.37 1.37 0 00.19-.23zm0 1.51l-.1.12a1.4 1.4 0 01-.18.13 1.17 1.17 0 01-.25.11 1.14 1.14 0 01-.33 0 1.23 1.23 0 01-.51-.11 1.6 1.6 0 01-.42-.3 1.54 1.54 0 010-2 1.4 1.4 0 01.42-.3 1.23 1.23 0 01.51-.11 1.21 1.21 0 01.41.07 1.39 1.39 0 01.28.16.9.9 0 01.21.23v-.39h.45v2.7a1.66 1.66 0 01-.11.61 1.11 1.11 0 01-.3.43 1.29 1.29 0 01-.45.27 2 2 0 01-.55.08 1.31 1.31 0 01-.5-.08 2.14 2.14 0 01-.37-.17 1.58 1.58 0 01-.31-.26l.3-.36a1.15 1.15 0 00.23.21l.28.15a1.06 1.06 0 00.37.06 1 1 0 00.68-.23.93.93 0 00.24-.69zm4.85-1.51a2.2 2.2 0 00-.2-.23l-.25-.15a.71.71 0 00-.34-.08.91.91 0 00-.37.08.83.83 0 00-.28.21.75.75 0 00-.18.3 1.15 1.15 0 00-.06.37 1.21 1.21 0 00.06.38.92.92 0 00.18.3.83.83 0 00.28.21.9.9 0 00.37.07.71.71 0 00.34-.07 1.18 1.18 0 00.25-.15 2.2 2.2 0 00.2-.23zm.48-.84v2.69h-.44V547a1.19 1.19 0 01-.22.23 1.21 1.21 0 01-.28.16 1.32 1.32 0 01-.42.07 1.18 1.18 0 01-.5-.11 1.4 1.4 0 01-.41-.3 1.48 1.48 0 01-.28-.45 1.47 1.47 0 01-.1-.56 1.45 1.45 0 01.1-.55 1.48 1.48 0 01.28-.45 1.12 1.12 0 01.41-.3 1.18 1.18 0 01.5-.11 1.32 1.32 0 01.42.07 1.74 1.74 0 01.28.16 1.19 1.19 0 01.22.23v-.39zm.91 1.88a1.45 1.45 0 00.21.22l.25.15a1 1 0 00.36.06.68.68 0 00.2 0 .6.6 0 00.19-.06.35.35 0 00.13-.11.18.18 0 00.06-.14.32.32 0 00-.15-.27 1.42 1.42 0 00-.46-.16 1.56 1.56 0 01-.4-.11 1.31 1.31 0 01-.31-.17.52.52 0 01-.2-.24.67.67 0 01-.08-.33.72.72 0 01.07-.28 1 1 0 01.2-.25 1.09 1.09 0 01.32-.17 1 1 0 01.4-.07 1.33 1.33 0 01.42.06 1.86 1.86 0 01.31.14 1.48 1.48 0 01.27.21l-.32.33a1.39 1.39 0 00-.19-.15 1 1 0 00-.21-.1.87.87 0 00-.28-.05.57.57 0 00-.38.11.29.29 0 00-.13.23.27.27 0 00.16.25 1.64 1.64 0 00.49.16l.37.1a1.43 1.43 0 01.3.16.79.79 0 01.21.24.75.75 0 01.08.35.65.65 0 01-.1.34.75.75 0 01-.25.25 1.52 1.52 0 01-.34.15 1.73 1.73 0 01-.38 0 1.28 1.28 0 01-.5-.09 1.81 1.81 0 01-.37-.19 2 2 0 01-.29-.29zm-29.78 6.92a1.42 1.42 0 01-.29.26 1.79 1.79 0 01-.34.18 1.4 1.4 0 01-.47.08 1.42 1.42 0 01-.55-.11 1.55 1.55 0 01-.44-.3 1.34 1.34 0 01-.29-.45 1.46 1.46 0 010-1.11 1.34 1.34 0 01.29-.45 1.37 1.37 0 01.44-.3 1.42 1.42 0 01.55-.11 1.34 1.34 0 01.46.08 1.69 1.69 0 01.33.16 3.48 3.48 0 01.28.24l-.33.3a1 1 0 00-.2-.16 1 1 0 00-.23-.12 1 1 0 00-.31 0 .87.87 0 00-.37.07.74.74 0 00-.28.21.83.83 0 00-.18.3.94.94 0 00-.07.37 1 1 0 00.07.38.92.92 0 00.18.3.74.74 0 00.28.21.87.87 0 00.37.07 1.16 1.16 0 00.34 0 1.2 1.2 0 00.44-.33zm1.86-2.31a1 1 0 01.38.07.94.94 0 01.54.52 1 1 0 01.09.44v1.73h-.49v-1.65a.84.84 0 00-.06-.25.52.52 0 00-.14-.21.67.67 0 00-.2-.12 1.09 1.09 0 00-.26 0 .55.55 0 00-.29.08l-.21.15a1.19 1.19 0 00-.16.23v1.85h-.49v-4.4h.49v2a.39.39 0 01.09-.11.53.53 0 01.16-.13.7.7 0 01.23-.11 1 1 0 01.31-.05m2.77 2.82a1.22 1.22 0 01-.38-.07 1 1 0 01-.33-.2 1.07 1.07 0 01-.22-.32 1.23 1.23 0 01-.08-.44v-1.73h.49v1.65a.62.62 0 00.19.5.68.68 0 00.45.15.56.56 0 00.3-.07.57.57 0 00.21-.15.69.69 0 00.16-.22v-1.86h.49v2.69h-.45v-.42a1 1 0 01-.2.25 1 1 0 01-.63.24m3.23-2.86h.39l-.18.44h-.31a.51.51 0 00-.28.08l-.19.15-.15.23v1.85h-.48v-2.69h.45v.41a1 1 0 01.18-.23.81.81 0 01.23-.17.74.74 0 01.34-.08m2.98 2.32a1.42 1.42 0 01-.29.26 1.79 1.79 0 01-.34.18 1.4 1.4 0 01-.47.08 1.42 1.42 0 01-.55-.11 1.55 1.55 0 01-.44-.3 1.34 1.34 0 01-.29-.45 1.46 1.46 0 010-1.11 1.34 1.34 0 01.29-.45 1.37 1.37 0 01.44-.3 1.42 1.42 0 01.55-.11 1.34 1.34 0 01.46.08 1.69 1.69 0 01.33.16l.28.24-.34.3a.74.74 0 00-.19-.16 1 1 0 00-.23-.12 1 1 0 00-.31 0 .87.87 0 00-.37.07.74.74 0 00-.28.21 1 1 0 00-.19.3 1.15 1.15 0 00-.06.37 1.21 1.21 0 00.06.38 1.17 1.17 0 00.19.3.74.74 0 00.28.21.87.87 0 00.37.07 1.16 1.16 0 00.34 0 1.2 1.2 0 00.44-.33zm1.86-2.31a1 1 0 01.38.07.94.94 0 01.54.52 1 1 0 01.09.44v1.73h-.49v-1.65a.84.84 0 000-.29.52.52 0 00-.14-.21.67.67 0 00-.2-.12 1.09 1.09 0 00-.26 0 .55.55 0 00-.29.08l-.21.15a1.19 1.19 0 00-.16.23v1.85h-.49v-4.4h.49v2a.39.39 0 01.09-.11.53.53 0 01.16-.13.7.7 0 01.23-.11 1 1 0 01.31-.05m4.23 3.68a8.66 8.66 0 01-.38-.62 3.66 3.66 0 01-.27-.61 3.57 3.57 0 01-.18-.66 4.72 4.72 0 010-1.5 3.26 3.26 0 01.18-.65 3.76 3.76 0 01.27-.62c.11-.2.24-.4.38-.61l.35.25-.33.55a3.87 3.87 0 00-.25.55 2.68 2.68 0 00-.15.59 4 4 0 000 1.38 2.93 2.93 0 00.15.6 3.76 3.76 0 00.25.54c.1.18.21.37.33.56z" transform="translate(-28.5 -14.7)"/></g><path class="cls-6" d="M153.11 537.6l-1.37-2.47h.54l1.1 2 1.07-2h.52l-1.37 2.47v1.6h-.49v-1.6zm2.45 2.37l-.39-.18 2.3-5.21.4.17-2.31 5.22zm3.35-4.84l2.18 3.25v-3.25h.49v4.07h-.51l-2.18-3.26v3.26h-.49v-4.07h.51z"/><g class="cls-3"><path class="cls-6" d="M190.72 554.57c.12-.19.23-.38.33-.56a4.34 4.34 0 00.25-.54 3.77 3.77 0 00.16-.6 4.79 4.79 0 000-1.38 3.39 3.39 0 00-.16-.59 3.87 3.87 0 00-.25-.55l-.33-.55.35-.25c.14.21.27.41.38.61a4.91 4.91 0 01.28.62 4.11 4.11 0 01.17.65 4.72 4.72 0 010 1.5 4.55 4.55 0 01-.17.66 4.78 4.78 0 01-.28.61c-.11.2-.24.41-.38.62z" transform="translate(-28.5 -14.7)"/></g><path class="cls-7" d="M223.45 545.6h.63l.1-.7h-.63zm-1.1-1.21h.75l.17-1.22.51.07-.16 1.15h.63l.18-1.22.5.07-.16 1.15h.68v.51h-.75l-.1.7h.68v.51h-.75l-.19 1.32-.51-.07.18-1.25h-.63l-.19 1.32-.51-.07.18-1.25h-.69v-.51h.76l.1-.7h-.68z" transform="translate(-28.5 -14.7)"/><path class="cls-6" d="M199.4 528.57h.49v4.07h-.49z"/><g class="cls-3"><path class="cls-6" d="M230.6 544.58a1 1 0 01.38.07.94.94 0 01.32.19 1.14 1.14 0 01.23.33 1.19 1.19 0 01.08.44v1.73h-.49v-1.65a.7.7 0 00-.05-.3.69.69 0 00-.13-.2.72.72 0 00-.21-.12 1 1 0 00-.25 0 .58.58 0 00-.3.08 1.15 1.15 0 00-.2.15.91.91 0 00-.17.23v1.85h-.49v-2.69h.45v.31a.83.83 0 01.2-.22 1 1 0 01.25-.16.89.89 0 01.38-.07m5.4.94a1.37 1.37 0 00-.19-.23l-.25-.15a.71.71 0 00-.34-.08.87.87 0 00-.37.08.83.83 0 00-.28.21.75.75 0 00-.18.3 1.16 1.16 0 00-.07.37 1.22 1.22 0 00.07.38.92.92 0 00.18.3.83.83 0 00.28.21.87.87 0 00.37.07.71.71 0 00.34-.07 1.18 1.18 0 00.25-.15 1.37 1.37 0 00.19-.23zm.49-.84v2.69H236V547a.9.9 0 01-.21.23 1.21 1.21 0 01-.28.16 1.32 1.32 0 01-.42.07 1.26 1.26 0 01-.51-.11 1.73 1.73 0 01-.41-.3 1.68 1.68 0 01-.27-.45 1.47 1.47 0 01-.1-.56 1.45 1.45 0 01.1-.55 1.68 1.68 0 01.27-.45 1.31 1.31 0 01.41-.3 1.26 1.26 0 01.51-.11 1.32 1.32 0 01.42.07 1.74 1.74 0 01.28.16.9.9 0 01.21.23v-.39zm3 2.24a1.16 1.16 0 01-.28.26 1.9 1.9 0 01-.35.18 1.32 1.32 0 01-.47.08 1.46 1.46 0 01-.55-.11 1.66 1.66 0 01-.43-.3 1.2 1.2 0 01-.29-.45 1.46 1.46 0 010-1.11 1.2 1.2 0 01.29-.45 1.33 1.33 0 011-.41 1.26 1.26 0 01.46.08 1.45 1.45 0 01.33.16 1.31 1.31 0 01.28.24l-.33.3a1 1 0 00-.19-.16 1.24 1.24 0 00-.23-.12 1 1 0 00-.32-.05 1 1 0 00-.37.08.83.83 0 00-.28.21 1.09 1.09 0 00-.18.3 1.15 1.15 0 00-.06.37 1.21 1.21 0 00.06.38 1.49 1.49 0 00.18.3.83.83 0 00.28.21.94.94 0 00.37.07.91.91 0 00.35-.06.78.78 0 00.24-.13 1.19 1.19 0 00.2-.19zm2.78 0a1.42 1.42 0 01-.29.26 1.79 1.79 0 01-.34.18 1.36 1.36 0 01-.47.08 1.42 1.42 0 01-.55-.11 1.55 1.55 0 01-.44-.3 1.34 1.34 0 01-.29-.45 1.46 1.46 0 010-1.11 1.34 1.34 0 01.29-.45 1.37 1.37 0 01.44-.3 1.42 1.42 0 01.55-.11 1.34 1.34 0 01.46.08 1.69 1.69 0 01.33.16 1.61 1.61 0 01.28.24l-.34.3a.74.74 0 00-.19-.16 1 1 0 00-.23-.12 1 1 0 00-.31-.05.87.87 0 00-.37.08.74.74 0 00-.28.21.75.75 0 00-.18.3.94.94 0 00-.07.37 1 1 0 00.07.38.92.92 0 00.18.3.74.74 0 00.28.21.87.87 0 00.37.07.9.9 0 00.34-.06.68.68 0 00.24-.13.9.9 0 00.2-.19zm1.67.11a.9.9 0 00.37-.07.83.83 0 00.28-.21.92.92 0 00.18-.3 1.21 1.21 0 00.06-.38 1.15 1.15 0 00-.06-.37.75.75 0 00-.18-.3.83.83 0 00-.28-.21.91.91 0 00-.37-.08.87.87 0 00-.37.08.83.83 0 00-.28.21.75.75 0 00-.18.3 1.16 1.16 0 00-.07.37 1.22 1.22 0 00.07.38.92.92 0 00.18.3.83.83 0 00.28.21.87.87 0 00.37.07m0-2.37a1.42 1.42 0 01.55.11 1.32 1.32 0 01.44.3 1.51 1.51 0 01.29.45 1.45 1.45 0 01.1.55 1.47 1.47 0 01-.1.56 1.51 1.51 0 01-.29.45 1.71 1.71 0 01-.44.3 1.43 1.43 0 01-1.1 0 1.55 1.55 0 01-.44-.3 1.51 1.51 0 01-.29-.45 1.47 1.47 0 01-.1-.56 1.45 1.45 0 01.1-.55 1.51 1.51 0 01.34-.49 1.23 1.23 0 01.44-.3 1.42 1.42 0 01.55-.11m2.9 2.82a1.22 1.22 0 01-.38-.07 1 1 0 01-.33-.2 1.07 1.07 0 01-.22-.32 1.23 1.23 0 01-.08-.44v-1.73h.49v1.65a.62.62 0 00.19.5.68.68 0 00.45.15.56.56 0 00.3-.07.57.57 0 00.21-.15.69.69 0 00.16-.22v-1.86h.49v2.69h-.45v-.42a1 1 0 01-.2.25 1.2 1.2 0 01-.25.16.89.89 0 01-.38.08m3.3-2.83a1 1 0 01.39.07.94.94 0 01.32.19 1 1 0 01.22.33 1 1 0 01.09.44v1.73h-.49v-1.65a.9.9 0 00-.05-.3.56.56 0 00-.14-.2.82.82 0 00-.2-.12 1.09 1.09 0 00-.26 0 .55.55 0 00-.29.08l-.21.15a2 2 0 00-.17.23v1.85h-.48v-2.69h.45v.31a.79.79 0 01.19-.22 1.05 1.05 0 01.26-.16.84.84 0 01.37-.07m1.53.1h.52v-.82h.49v.82h.84v.44h-.84v1.45a.5.5 0 00.09.31.4.4 0 00.3.1h.21a.53.53 0 00.1-.06l.18.4a1.09 1.09 0 01-.31.13.77.77 0 01-.25 0 1 1 0 01-.29 0 1.35 1.35 0 01-.26-.15.77.77 0 01-.19-.27.86.86 0 01-.07-.38v-1.47h-.52zm4.4.84a2.2 2.2 0 00-.2-.23l-.24-.15a.75.75 0 00-.35-.08.91.91 0 00-.37.08.83.83 0 00-.28.21.75.75 0 00-.18.3 1.15 1.15 0 00-.06.37 1.21 1.21 0 00.06.38.92.92 0 00.18.3.83.83 0 00.28.21.9.9 0 00.37.07.75.75 0 00.35-.07 1.4 1.4 0 00.24-.15 2.2 2.2 0 00.2-.23zm.49-.84v2.69h-.45V547a1.19 1.19 0 01-.22.23 1.21 1.21 0 01-.28.16 1.32 1.32 0 01-.42.07 1.18 1.18 0 01-.5-.11 1.4 1.4 0 01-.41-.3 1.48 1.48 0 01-.28-.45 1.47 1.47 0 01-.1-.56 1.45 1.45 0 01.1-.55 1.48 1.48 0 01.28-.45 1.12 1.12 0 01.41-.3 1.18 1.18 0 01.5-.11 1.32 1.32 0 01.42.07 1.74 1.74 0 01.28.16 1.19 1.19 0 01.22.23v-.39zm1.33 1.84a1.07 1.07 0 00.2.23.91.91 0 00.24.16.78.78 0 00.35.07.87.87 0 00.37-.07.74.74 0 00.28-.21.92.92 0 00.18-.3 1.21 1.21 0 00.06-.38 1.15 1.15 0 00-.06-.37.75.75 0 00-.18-.3.83.83 0 00-.28-.21.87.87 0 00-.37-.08.78.78 0 00-.35.08.91.91 0 00-.24.16.87.87 0 00-.2.23zm.87-1.91a1.26 1.26 0 01.51.11 1.12 1.12 0 01.41.3 1.48 1.48 0 01.28.45 1.45 1.45 0 01.1.55 1.47 1.47 0 01-.1.56 1.48 1.48 0 01-.28.45 1.4 1.4 0 01-.41.3 1.26 1.26 0 01-.51.11 1.32 1.32 0 01-.42-.07 1.47 1.47 0 01-.28-.16 1.51 1.51 0 01-.21-.23v.39h-.44v-4.4h.48v2a1.34 1.34 0 01.21-.2 1.67 1.67 0 01.27-.14 1.14 1.14 0 01.39-.06m1.95.11h.48v2.69h-.48zm-.09-.86a.3.3 0 01.1-.23.31.31 0 01.46 0 .3.3 0 01.1.23.33.33 0 01-.66 0" transform="translate(-28.5 -14.7)"/></g><path class="cls-6" d="M233.68 528.24h.49v4.4h-.49z"/><g class="cls-3"><path class="cls-6" d="M263.61 544.65h.48v2.69h-.48zm-.09-.86a.3.3 0 01.1-.23.31.31 0 01.46 0 .3.3 0 01.1.23.33.33 0 01-.66 0m1.17.86h.53v-.82h.48v.82h.84v.44h-.84v1.45a.5.5 0 00.1.31.37.37 0 00.29.1h.21a.33.33 0 00.1-.06l.18.4a1 1 0 01-.31.13.77.77 0 01-.25 0 .92.92 0 01-.28 0 .93.93 0 01-.26-.15.77.77 0 01-.19-.27.86.86 0 01-.07-.38v-1.47h-.53zm2.41 3.5l.11.07h.21a.3.3 0 00.25-.11 1 1 0 00.17-.3l.21-.53-1.25-2.7h.55l.94 2.12.8-2.12h.53c-.25.64-.48 1.21-.68 1.71-.08.22-.17.44-.25.65s-.17.4-.23.57-.13.31-.17.42l-.08.2a.89.89 0 01-.32.42.84.84 0 01-.42.12.75.75 0 01-.23 0l-.18-.06-.16-.1zm-27.51 3.9a1.43 1.43 0 00-.2-.23l-.25-.15a.75.75 0 00-.35-.08.9.9 0 00-.65.29 1 1 0 00-.17.3 1.15 1.15 0 00-.06.37 1.16 1.16 0 00.06.38 1.11 1.11 0 00.17.3.84.84 0 00.65.28.73.73 0 00.35-.07 1.18 1.18 0 00.25-.15 2.2 2.2 0 00.2-.23zm0 1.51l-.11.12a.93.93 0 01-.18.13 1.17 1.17 0 01-.25.11 1.14 1.14 0 01-.33.05 1.26 1.26 0 01-.51-.11 1.4 1.4 0 01-.41-.3 1.48 1.48 0 01-.28-.45 1.47 1.47 0 01-.1-.56 1.45 1.45 0 01.1-.55 1.48 1.48 0 01.28-.45 1.24 1.24 0 01.41-.3 1.26 1.26 0 01.51-.11 1.21 1.21 0 01.41.07 1.88 1.88 0 01.29.16 1.51 1.51 0 01.21.23v-.39h.44v2.7a1.48 1.48 0 01-.11.61 1.11 1.11 0 01-.3.43 1.29 1.29 0 01-.45.27 2 2 0 01-.55.08 1.35 1.35 0 01-.5-.08 2 2 0 01-.36-.17 1.16 1.16 0 01-.31-.26l.29-.36a1.21 1.21 0 00.24.21 2.18 2.18 0 00.27.15 1.06 1.06 0 00.37.06 1 1 0 00.68-.23.94.94 0 00.25-.69zm2.41-2.42h.39l-.18.44h-.31a.46.46 0 00-.27.08 1 1 0 00-.19.15 1.14 1.14 0 00-.15.23v1.85h-.49v-2.69h.45v.41a1 1 0 01.18-.23.74.74 0 01.24-.17.67.67 0 01.33-.08m1.9 2.38a.9.9 0 00.37-.07.83.83 0 00.28-.21.92.92 0 00.18-.3 1.16 1.16 0 00.06-.38 1.15 1.15 0 00-.06-.37.91.91 0 00-.46-.51.91.91 0 00-.37-.08.87.87 0 00-.37.08.91.91 0 00-.46.51 1 1 0 000 .75.92.92 0 00.18.3.83.83 0 00.28.21.87.87 0 00.37.07m0-2.37a1.42 1.42 0 01.55.11 1.71 1.71 0 01.44.3 1.51 1.51 0 01.29.45 1.45 1.45 0 01.1.55 1.47 1.47 0 01-.1.56 1.51 1.51 0 01-.29.45 1.71 1.71 0 01-.44.3 1.43 1.43 0 01-1.1 0 1.55 1.55 0 01-.44-.3 1.51 1.51 0 01-.29-.45 1.47 1.47 0 01-.1-.56 1.45 1.45 0 01.1-.55 1.51 1.51 0 01.29-.45 1.55 1.55 0 01.44-.3 1.42 1.42 0 01.55-.11m2.95 2.86a1.22 1.22 0 01-.38-.07 1 1 0 01-.33-.2 1.07 1.07 0 01-.22-.32 1.23 1.23 0 01-.08-.44v-1.73h.49v1.65a.62.62 0 00.19.5.68.68 0 00.45.15.56.56 0 00.3-.07.57.57 0 00.21-.15.69.69 0 00.16-.22v-1.86h.49v2.69h-.45v-.42a1 1 0 01-.2.25 1 1 0 01-.63.24m2.51-.95a.91.91 0 00.2.24.9.9 0 00.24.15.78.78 0 00.35.07.87.87 0 00.37-.07.86.86 0 00.29-.21 1.11 1.11 0 00.17-.3 1.16 1.16 0 00.06-.38 1.15 1.15 0 00-.06-.37 1 1 0 00-.17-.3.86.86 0 00-.29-.21.87.87 0 00-.37-.07.78.78 0 00-.35.07.91.91 0 00-.24.16 1 1 0 00-.2.22zm0-1.84v.39a1.19 1.19 0 01.22-.23 1.39 1.39 0 01.28-.16 1.21 1.21 0 01.41-.07 1.26 1.26 0 01.51.11 1.4 1.4 0 01.41.3 1.48 1.48 0 01.28.45 1.45 1.45 0 01.1.55 1.47 1.47 0 01-.1.56 1.48 1.48 0 01-.28.45 1.4 1.4 0 01-.41.3 1.26 1.26 0 01-.51.11 1.09 1.09 0 01-.33-.05 1.17 1.17 0 01-.25-.11.7.7 0 01-.18-.13l-.11-.11v1.66h-.48v-4zm2.89 1.88a1.45 1.45 0 00.21.22l.25.15a1 1 0 00.36.06.68.68 0 00.2 0 .6.6 0 00.19-.06.71.71 0 00.14-.1.27.27 0 00.05-.15.32.32 0 00-.15-.27 1.7 1.7 0 00-.46-.16 1.56 1.56 0 01-.4-.11 1 1 0 01-.31-.17.63.63 0 01-.2-.23.74.74 0 01-.08-.34.72.72 0 01.07-.28.82.82 0 01.21-.25.92.92 0 01.31-.17 1 1 0 01.4-.07 1.33 1.33 0 01.42.06 2.52 2.52 0 01.32.14 1.83 1.83 0 01.26.21l-.32.33-.19-.15-.21-.1a.82.82 0 00-.28 0 .57.57 0 00-.38.11.3.3 0 00-.13.24.26.26 0 00.16.24 1.64 1.64 0 00.49.16l.37.1a1.68 1.68 0 01.3.16.72.72 0 01.21.25.71.71 0 01.08.34.65.65 0 01-.1.34.75.75 0 01-.25.25 1.52 1.52 0 01-.34.15 1.73 1.73 0 01-.38.05 1.28 1.28 0 01-.5-.09 1.49 1.49 0 01-.36-.19 1.14 1.14 0 01-.29-.29z" transform="translate(-28.5 -14.7)"/><path class="cls-7" d="M190.47 401.52v-.86h-.93V400h1.62v1.85a2.24 2.24 0 01-1.51.51 2.09 2.09 0 01-2.14-2.11 2.06 2.06 0 012.11-2.1 2 2 0 011.51.61l-.48.46a1.36 1.36 0 00-1-.42 1.41 1.41 0 00-1.4 1.45 1.44 1.44 0 001.43 1.46 1.34 1.34 0 00.82-.2m3.2-1.95l-.25.63a.73.73 0 00-.95.31v1.8h-.69v-2.76h.66v.4a.9.9 0 01.75-.47 1.49 1.49 0 01.48.09m2.3 1.36a.76.76 0 10-.76.8.76.76 0 00.76-.8m.71 0a1.47 1.47 0 11-1.47-1.45 1.45 1.45 0 011.47 1.45m.52.41v-1.79h.7v1.6c0 .4.19.58.54.58a.69.69 0 00.55-.34v-1.84h.7v2.76h-.65v-.4a1 1 0 01-1.84-.57m3.88 0a.77.77 0 00.66.39.8.8 0 000-1.6.77.77 0 00-.66.39zm-.05-1.79v.36a1 1 0 01.83-.43 1.45 1.45 0 010 2.9 1 1 0 01-.78-.36v1.63h-.7v-4.1z" transform="translate(-28.5 -14.7)"/></g><path class="cls-7" d="M177.04 383.2h.7v4.4h-.7z"/><g class="cls-3"><path class="cls-7" d="M208.9 400.66a.64.64 0 00-.69-.55.62.62 0 00-.67.55zm.7.25v.26h-2.06a.77.77 0 00.77.56 1.13 1.13 0 00.76-.28l.35.52a1.77 1.77 0 01-1.11.4 1.45 1.45 0 01-1.48-1.45 1.39 1.39 0 112.77 0m2.45-.41a.76.76 0 00-.65-.39.8.8 0 000 1.6.76.76 0 00.65-.39zm.7-1v2.76h-.65v-.36a1 1 0 01-.83.43 1.45 1.45 0 010-2.9 1 1 0 01.83.43v-.36zm2.63 1a.77.77 0 00-.66-.39.8.8 0 000 1.6.77.77 0 00.66-.39zm.7 1.79h-.65v-.36a1 1 0 01-.83.43 1.45 1.45 0 010-2.9 1 1 0 01.78.36v-1.93h.7zm2.67-1.64a.66.66 0 00-.7-.55.63.63 0 00-.67.55zm.69.25v.26h-2.06a.78.78 0 00.77.56 1.13 1.13 0 00.76-.28l.35.52a1.77 1.77 0 01-1.11.4 1.45 1.45 0 01-1.48-1.45 1.39 1.39 0 112.77 0m2.4-1.36l-.24.63a.75.75 0 00-.33-.07.73.73 0 00-.62.38v1.8H220v-2.76h.67v.4a.88.88 0 01.75-.47 1.39 1.39 0 01.47.09m4.51.95v1.79h-.7v-1.61a.51.51 0 00-.54-.57.69.69 0 00-.55.36v1.82h-.7v-2.76h.65v.4a1 1 0 01.83-.47 1 1 0 011 1m2.61.04a.76.76 0 00-.65-.39.8.8 0 000 1.6.76.76 0 00.65-.39zm.7-1v2.76h-.64v-.36a1 1 0 01-.83.43 1.45 1.45 0 010-2.9 1 1 0 01.83.43v-.36zm4.89 1.02v1.77h-.69v-1.59c0-.38-.15-.59-.5-.59a.65.65 0 00-.54.36v1.82h-.7v-1.59c0-.38-.14-.59-.49-.59a.65.65 0 00-.54.36v1.82h-.7v-2.76h.65v.4a1 1 0 01.81-.47.88.88 0 01.86.49 1 1 0 01.88-.49 1 1 0 011 1.06m2.55.13a.7.7 0 00-1.37 0zm.7.25v.26h-2.06a.79.79 0 00.78.56 1.09 1.09 0 00.75-.28l.35.52a1.73 1.73 0 01-1.1.4 1.45 1.45 0 01-1.49-1.45 1.39 1.39 0 112.78 0" transform="translate(-28.5 -14.7)"/></g><path class="cls-7" d="M158.09 600.5h.7v3.41h1.73v.66h-2.43v-4.07z"/><g class="cls-3"><path class="cls-7" d="M191.46 617.89a.76.76 0 10-1.52 0 .76.76 0 101.52 0m.71 0a1.47 1.47 0 11-1.47-1.44 1.45 1.45 0 011.47 1.44m2.49.46l.46.47a1.51 1.51 0 01-1.14.52 1.45 1.45 0 111.13-2.38l-.49.43a.84.84 0 00-.64-.29.76.76 0 00-.78.79.77.77 0 00.78.8.81.81 0 00.68-.34m2.85-.87a.79.79 0 00-.66-.38.8.8 0 000 1.59.79.79 0 00.66-.38zm.69-1v2.76h-.64v-.36a1 1 0 01-.83.43 1.45 1.45 0 010-2.9 1 1 0 01.83.43v-.36zm.48.03h.54v-.82h.7v.82h.83v.63h-.83v1.11c0 .34.17.44.36.44a.53.53 0 00.29-.1l.26.57a1.3 1.3 0 01-.67.18.92.92 0 01-.94-1v-1.22h-.54zm2.75.01h.7v2.75h-.7zm.35-1.35a.46.46 0 11-.46.45.45.45 0 01.46-.45m3.22 2.72a.76.76 0 10-1.52 0 .76.76 0 101.52 0m.71 0a1.47 1.47 0 11-1.47-1.44 1.45 1.45 0 011.47 1.44m2.98-.4v1.78H208v-1.61a.5.5 0 00-.54-.56.69.69 0 00-.55.35v1.82h-.7v-2.76h.65v.41a1 1 0 01.83-.48 1 1 0 011 1" transform="translate(-28.5 -14.7)"/></g><path class="cls-7" d="M181.13 605.39l-.56-.25 2.33-5.22.56.25-2.33 5.22z"/><g class="cls-3"><path class="cls-7" d="M213.78 617.57c-.6-.21-1.27-.53-1.27-1.29a1.24 1.24 0 011.33-1.15 1.76 1.76 0 011.33.65l-.49.47a1.15 1.15 0 00-.84-.46.56.56 0 00-.62.49c0 .36.32.47.88.68s1.14.51 1.14 1.25-.66 1.13-1.42 1.13a1.78 1.78 0 01-1.49-.83l.52-.44a1.25 1.25 0 001 .61c.35 0 .71-.14.71-.47s-.26-.47-.75-.64m1.84-1.06h.54v-.82h.7v.82h.83v.63h-.83v1.11c0 .34.17.44.36.44a.58.58 0 00.29-.1l.25.57a1.25 1.25 0 01-.66.18.92.92 0 01-.94-1v-1.22h-.54zm4.57.97a.76.76 0 00-.65-.38.8.8 0 000 1.59.76.76 0 00.65-.38zm.7-1v2.76h-.64v-.36a1 1 0 01-.84.43 1.45 1.45 0 010-2.9 1 1 0 01.84.43v-.36zm2.59.05l-.25.63a.8.8 0 00-.33-.06.72.72 0 00-.61.37v1.8h-.7v-2.75h.66v.4a.9.9 0 01.75-.47 1.65 1.65 0 01.48.08m.14-.02h.54v-.82h.7v.82h.83v.63h-.83v1.11c0 .34.17.44.36.44a.58.58 0 00.29-.1l.25.57a1.25 1.25 0 01-.66.18.92.92 0 01-.94-1v-1.22h-.54zm6.28.97a.76.76 0 00-.65-.38.8.8 0 000 1.59.76.76 0 00.65-.38zm.7 1.79H230v-.36a.94.94 0 01-.83.43 1.45 1.45 0 010-2.9 1 1 0 01.78.37v-1.94h.7zm2.71-1.79a.76.76 0 00-.65-.38.8.8 0 000 1.59.76.76 0 00.65-.38zm.7-1v2.76h-.64v-.36a1 1 0 01-.83.43 1.45 1.45 0 010-2.9 1 1 0 01.83.43v-.36zm.48.03h.54v-.82h.7v.82h.83v.63h-.83v1.11c0 .34.17.44.36.44a.58.58 0 00.29-.1l.25.57a1.25 1.25 0 01-.66.18.92.92 0 01-.94-1v-1.22h-.54zm4.53 1.13a.65.65 0 00-.7-.56.63.63 0 00-.67.56zm.7.24v.26h-2.06a.78.78 0 00.77.56 1.1 1.1 0 00.76-.28l.35.53a1.8 1.8 0 01-1.11.39 1.45 1.45 0 01-1.48-1.45 1.39 1.39 0 112.78 0" transform="translate(-28.5 -14.7)"/></g><path class="cls-8" d="M293.01 113.58v205.39m54.74-205.28v205.28m-272.87-74.6v22.61m109.73-22.61v22.61m54.47-22.31v22.61m-219.14-22.6v22.62m-.21-22.85h219.58M347.72 63.54v22.62m-54.73-22.59v22.62m-54.72-22.65v22.61M50.4 63.55v22.62m-.21-22.85h297.72M50.29 112.66v9.99m-27.52.06v22.62m54.75-22.63v22.62m107.03 149.51v22.61M129.69 53.31v267.1"/><g clip-path="url(#clip-path-17)"><path class="cls-6" d="M158.46 49V29.91A19.17 19.17 0 00139.29 49z" transform="translate(-28.5 -14.7)"/><path class="cls-10" d="M158.41 49h-19.12a19.17 19.17 0 0019.12 19.17z" transform="translate(-28.5 -14.7)"/><path class="cls-6" d="M158.31 49.07v19.11a19.17 19.17 0 0019.17-19.11z" transform="translate(-28.5 -14.7)"/><path class="cls-7" d="M158.36 49.07h19.12a19.17 19.17 0 00-19.12-19.16z" transform="translate(-28.5 -14.7)"/><path class="cls-4" d="M165 49.16a6.67 6.67 0 11-6.67-6.66 6.66 6.66 0 016.67 6.66" transform="translate(-28.5 -14.7)"/><path class="cls-6" d="M79 109.21V90.09a19.18 19.18 0 00-19.17 19.12z" transform="translate(-28.5 -14.7)"/><path class="cls-10" d="M79 109.21H59.87A19.17 19.17 0 0079 128.38z" transform="translate(-28.5 -14.7)"/><path class="cls-6" d="M78.89 109.26v19.11a19.16 19.16 0 0019.16-19.11z" transform="translate(-28.5 -14.7)"/><path class="cls-7" d="M78.94 109.26h19.11a19.17 19.17 0 00-19.11-19.17z" transform="translate(-28.5 -14.7)"/><path class="cls-4" d="M85.54 109.35a6.67 6.67 0 11-6.67-6.67 6.67 6.67 0 016.67 6.67" transform="translate(-28.5 -14.7)"/><path class="cls-6" d="M266.82 109.21V90.09a19.17 19.17 0 00-19.16 19.12z" transform="translate(-28.5 -14.7)"/><path class="cls-10" d="M266.77 109.21h-19.11a19.17 19.17 0 0019.11 19.17z" transform="translate(-28.5 -14.7)"/><path class="cls-6" d="M266.67 109.26v19.11a19.17 19.17 0 0019.17-19.11z" transform="translate(-28.5 -14.7)"/><path class="cls-7" d="M266.73 109.26h19.11a19.17 19.17 0 00-19.11-19.17z" transform="translate(-28.5 -14.7)"/><path class="cls-4" d="M273.32 109.35a6.67 6.67 0 11-6.66-6.67 6.67 6.67 0 016.66 6.67" transform="translate(-28.5 -14.7)"/><path class="cls-6" d="M321.62 109.21V90.09a19.17 19.17 0 00-19.16 19.12z" transform="translate(-28.5 -14.7)"/><path class="cls-10" d="M321.57 109.21h-19.11a19.17 19.17 0 0019.11 19.17z" transform="translate(-28.5 -14.7)"/><path class="cls-6" d="M321.47 109.26v19.11a19.17 19.17 0 0019.17-19.11z" transform="translate(-28.5 -14.7)"/><path class="cls-7" d="M321.53 109.26h19.11a19.17 19.17 0 00-19.11-19.17z" transform="translate(-28.5 -14.7)"/><path class="cls-4" d="M328.12 109.35a6.67 6.67 0 11-6.66-6.67 6.67 6.67 0 016.66 6.67" transform="translate(-28.5 -14.7)"/><path class="cls-6" d="M376.42 109.21V90.09a19.17 19.17 0 00-19.16 19.12z" transform="translate(-28.5 -14.7)"/><path class="cls-10" d="M376.37 109.21h-19.11a19.17 19.17 0 0019.11 19.17z" transform="translate(-28.5 -14.7)"/><path class="cls-6" d="M376.27 109.26v19.11a19.17 19.17 0 0019.17-19.11z" transform="translate(-28.5 -14.7)"/><path class="cls-7" d="M376.33 109.26h19.11a19.17 19.17 0 00-19.11-19.17z" transform="translate(-28.5 -14.7)"/><path class="cls-4" d="M382.93 109.35a6.67 6.67 0 11-6.67-6.67 6.67 6.67 0 016.67 6.67" transform="translate(-28.5 -14.7)"/><path class="cls-6" d="M51.34 169.47v-19.11a19.16 19.16 0 00-19.16 19.11z" transform="translate(-28.5 -14.7)"/><path class="cls-10" d="M51.29 169.48H32.18a19.16 19.16 0 0019.11 19.16z" transform="translate(-28.5 -14.7)"/><path class="cls-6" d="M51.19 169.52v19.12a19.18 19.18 0 0019.17-19.12z" transform="translate(-28.5 -14.7)"/><path class="cls-7" d="M51.25 169.52h19.11a19.16 19.16 0 00-19.11-19.16z" transform="translate(-28.5 -14.7)"/><path class="cls-4" d="M57.85 169.62a6.67 6.67 0 11-6.67-6.62 6.67 6.67 0 016.67 6.67" transform="translate(-28.5 -14.7)"/><path class="cls-6" d="M106.24 169.47v-19.11a19.17 19.17 0 00-19.17 19.11z" transform="translate(-28.5 -14.7)"/><path class="cls-10" d="M106.19 169.48H87.07a19.17 19.17 0 0019.12 19.16z" transform="translate(-28.5 -14.7)"/><path class="cls-6" d="M106.09 169.52v19.12a19.18 19.18 0 0019.17-19.12z" transform="translate(-28.5 -14.7)"/><path class="cls-7" d="M106.14 169.52h19.12a19.17 19.17 0 00-19.12-19.16z" transform="translate(-28.5 -14.7)"/><path class="cls-4" d="M112.74 169.62a6.67 6.67 0 11-6.67-6.67 6.66 6.66 0 016.67 6.67" transform="translate(-28.5 -14.7)"/><path class="cls-6" d="M321.53 169.47v-19.11a19.17 19.17 0 00-19.17 19.11z" transform="translate(-28.5 -14.7)"/><path class="cls-10" d="M321.47 169.48h-19.11a19.16 19.16 0 0019.11 19.16z" transform="translate(-28.5 -14.7)"/><path class="cls-6" d="M321.38 169.52v19.12a19.17 19.17 0 0019.16-19.12z" transform="translate(-28.5 -14.7)"/><path class="cls-7" d="M321.43 169.52h19.11a19.16 19.16 0 00-19.11-19.16z" transform="translate(-28.5 -14.7)"/><path class="cls-4" d="M328 169.62a6.67 6.67 0 11-6.67-6.67 6.67 6.67 0 016.67 6.67" transform="translate(-28.5 -14.7)"/><path class="cls-6" d="M376.33 169.47v-19.11a19.17 19.17 0 00-19.17 19.11z" transform="translate(-28.5 -14.7)"/><path class="cls-10" d="M376.27 169.48h-19.11a19.16 19.16 0 0019.11 19.16z" transform="translate(-28.5 -14.7)"/><path class="cls-6" d="M376.18 169.52v19.12a19.17 19.17 0 0019.16-19.12z" transform="translate(-28.5 -14.7)"/><path class="cls-7" d="M376.23 169.52h19.11a19.16 19.16 0 00-19.11-19.16z" transform="translate(-28.5 -14.7)"/><path class="cls-4" d="M382.83 169.62a6.67 6.67 0 11-6.67-6.67 6.67 6.67 0 016.67 6.67" transform="translate(-28.5 -14.7)"/><path class="cls-6" d="M158.25 230v-19.11A19.17 19.17 0 00139.08 230z" transform="translate(-28.5 -14.7)"/><path class="cls-10" d="M158.2 230h-19.12a19.18 19.18 0 0019.12 19.17z" transform="translate(-28.5 -14.7)"/><path class="cls-6" d="M158.1 230.05v19.11a19.17 19.17 0 0019.17-19.11z" transform="translate(-28.5 -14.7)"/><path class="cls-7" d="M158.16 230.05h19.11a19.16 19.16 0 00-19.11-19.16z" transform="translate(-28.5 -14.7)"/><path class="cls-4" d="M164.75 230.14a6.67 6.67 0 11-6.66-6.66 6.66 6.66 0 016.66 6.66" transform="translate(-28.5 -14.7)"/><path class="cls-6" d="M158.28 290.44v-19.11a19.17 19.17 0 00-19.17 19.11z" transform="translate(-28.5 -14.7)"/><path class="cls-10" d="M158.23 290.44h-19.12a19.18 19.18 0 0019.12 19.17z" transform="translate(-28.5 -14.7)"/><path class="cls-6" d="M158.13 290.49v19.11a19.17 19.17 0 0019.17-19.11z" transform="translate(-28.5 -14.7)"/><path class="cls-7" d="M158.18 290.49h19.12a19.17 19.17 0 00-19.12-19.17z" transform="translate(-28.5 -14.7)"/><path class="cls-4" d="M164.78 290.58a6.67 6.67 0 11-6.66-6.67 6.67 6.67 0 016.66 6.67" transform="translate(-28.5 -14.7)"/><path class="cls-6" d="M213.26 290.44v-19.11a19.16 19.16 0 00-19.16 19.11z" transform="translate(-28.5 -14.7)"/><path class="cls-10" d="M213.21 290.44H194.1a19.17 19.17 0 0019.11 19.17z" transform="translate(-28.5 -14.7)"/><path class="cls-6" d="M213.11 290.49v19.11a19.17 19.17 0 0019.17-19.11z" transform="translate(-28.5 -14.7)"/><path class="cls-7" d="M213.17 290.49h19.11a19.17 19.17 0 00-19.11-19.17z" transform="translate(-28.5 -14.7)"/><path class="cls-4" d="M219.76 290.58a6.67 6.67 0 11-6.66-6.67 6.67 6.67 0 016.66 6.67" transform="translate(-28.5 -14.7)"/><path class="cls-6" d="M267.5 290.44v-19.11a19.17 19.17 0 00-19.17 19.11z" transform="translate(-28.5 -14.7)"/><path class="cls-10" d="M267.45 290.44h-19.12a19.18 19.18 0 0019.12 19.17z" transform="translate(-28.5 -14.7)"/><path class="cls-6" d="M267.35 290.49v19.11a19.17 19.17 0 0019.17-19.11z" transform="translate(-28.5 -14.7)"/><path class="cls-7" d="M267.4 290.49h19.12a19.17 19.17 0 00-19.12-19.17z" transform="translate(-28.5 -14.7)"/><path class="cls-4" d="M274 290.58a6.67 6.67 0 11-6.66-6.67 6.67 6.67 0 016.66 6.67" transform="translate(-28.5 -14.7)"/><path class="cls-6" d="M48.56 290.13V271a19.17 19.17 0 00-19.17 19.11z" transform="translate(-28.5 -14.7)"/><path class="cls-10" d="M48.51 290.13H29.39a19.17 19.17 0 0019.12 19.17z" transform="translate(-28.5 -14.7)"/><path class="cls-6" d="M48.41 290.18v19.11a19.17 19.17 0 0019.17-19.11z" transform="translate(-28.5 -14.7)"/><path class="cls-7" d="M48.46 290.18h19.12A19.17 19.17 0 0048.46 271z" transform="translate(-28.5 -14.7)"/><path class="cls-4" d="M55.06 290.27a6.67 6.67 0 11-6.67-6.66 6.67 6.67 0 016.67 6.66" transform="translate(-28.5 -14.7)"/><path class="cls-6" d="M103.46 290.13V271a19.17 19.17 0 00-19.17 19.11z" transform="translate(-28.5 -14.7)"/><path class="cls-10" d="M103.41 290.13H84.29a19.18 19.18 0 0019.12 19.17z" transform="translate(-28.5 -14.7)"/><path class="cls-6" d="M103.31 290.18v19.11a19.17 19.17 0 0019.17-19.11z" transform="translate(-28.5 -14.7)"/><path class="cls-7" d="M103.37 290.18h19.11A19.16 19.16 0 00103.37 271z" transform="translate(-28.5 -14.7)"/><path class="cls-4" d="M110 290.27a6.67 6.67 0 11-6.66-6.66 6.66 6.66 0 016.66 6.66" transform="translate(-28.5 -14.7)"/><path class="cls-6" d="M158.29 350.69v-19.12a19.18 19.18 0 00-19.17 19.12z" transform="translate(-28.5 -14.7)"/><path class="cls-10" d="M158.23 350.69h-19.11a19.17 19.17 0 0019.11 19.17z" transform="translate(-28.5 -14.7)"/><path class="cls-6" d="M158.14 350.74v19.11a19.16 19.16 0 0019.16-19.11z" transform="translate(-28.5 -14.7)"/><path class="cls-7" d="M158.19 350.74h19.11a19.17 19.17 0 00-19.11-19.17z" transform="translate(-28.5 -14.7)"/><path class="cls-4" d="M164.79 350.83a6.67 6.67 0 11-6.67-6.67 6.67 6.67 0 016.67 6.67" transform="translate(-28.5 -14.7)"/><path class="cls-6" d="M213.14 350.69v-19.12A19.17 19.17 0 00194 350.69z" transform="translate(-28.5 -14.7)"/><path class="cls-10" d="M213.09 350.69H194a19.17 19.17 0 0019.11 19.17z" transform="translate(-28.5 -14.7)"/><path class="cls-6" d="M213 350.74v19.11a19.17 19.17 0 0019.17-19.11z" transform="translate(-28.5 -14.7)"/><path class="cls-7" d="M213.05 350.74h19.11a19.17 19.17 0 00-19.11-19.17z" transform="translate(-28.5 -14.7)"/><path class="cls-4" d="M219.64 350.83a6.67 6.67 0 11-6.66-6.67 6.67 6.67 0 016.66 6.67" transform="translate(-28.5 -14.7)"/><path class="cls-6" d="M321.33 351.13V332a19.17 19.17 0 00-19.17 19.11z" transform="translate(-28.5 -14.7)"/><path class="cls-10" d="M321.27 351.13h-19.11a19.17 19.17 0 0019.11 19.17z" transform="translate(-28.5 -14.7)"/><path class="cls-6" d="M321.18 351.18v19.11a19.16 19.16 0 0019.16-19.11z" transform="translate(-28.5 -14.7)"/><path class="cls-7" d="M321.23 351.18h19.11A19.17 19.17 0 00321.23 332z" transform="translate(-28.5 -14.7)"/><path class="cls-4" d="M327.83 351.27a6.67 6.67 0 11-6.67-6.67 6.67 6.67 0 016.67 6.67" transform="translate(-28.5 -14.7)"/><path class="cls-6" d="M376.31 351.13V332a19.16 19.16 0 00-19.16 19.11z" transform="translate(-28.5 -14.7)"/><path class="cls-10" d="M376.26 351.13h-19.11a19.17 19.17 0 0019.11 19.17z" transform="translate(-28.5 -14.7)"/><path class="cls-6" d="M376.16 351.18v19.11a19.17 19.17 0 0019.17-19.11z" transform="translate(-28.5 -14.7)"/><path class="cls-7" d="M376.22 351.18h19.11A19.17 19.17 0 00376.22 332z" transform="translate(-28.5 -14.7)"/><path class="cls-4" d="M382.82 351.27a6.67 6.67 0 11-6.67-6.67 6.67 6.67 0 016.67 6.67" transform="translate(-28.5 -14.7)"/><path class="cls-8" d="M22.57 122.49h55.17"/></g><text class="cls-11" transform="translate(40.43 52.41)">Rusty N</text><text class="cls-11" transform="translate(30.52 58.24)"><tspan class="cls-12">F</tspan><tspan x="2.76" y="0">ort </tspan><tspan class="cls-13" x="11.86" y="0">W</tspan><tspan x="16.95" y="0">orth 6-13</tspan></text><text class="cls-11" transform="translate(123 4.66)">Jim T</text><text class="cls-11" transform="translate(109.94 10.49)"><tspan class="cls-12">F</tspan><tspan x="2.76" y="0">ort </tspan><tspan class="cls-13" x="11.86" y="0">W</tspan><tspan x="16.95" y="0">orth 3-13</tspan></text><path class="cls-6" d="M45.2 125.33a1.84 1.84 0 01-1.9 1.91h-1.24v-3.83h1.24a1.84 1.84 0 011.9 1.92zm-.67 0a1.23 1.23 0 00-1.22-1.3h-.59v2.59h.59a1.22 1.22 0 001.22-1.29zm3.67-.68v2.59h-.61v-.34a.91.91 0 01-.79.41 1.37 1.37 0 010-2.73.93.93 0 01.79.41v-.34zm-.66.91a.72.72 0 00-.61-.36.75.75 0 000 1.5.72.72 0 00.61-.36zm1.73-.91l.66 1.41.65-1.41h.71l-1.38 2.73-1.37-2.73zm2.79-1.27a.43.43 0 11-.43.43.43.43 0 01.43-.43zm-.32 1.27h.65v2.59h-.65zm3.9 2.59H55v-.34a.89.89 0 01-.78.41 1.37 1.37 0 010-2.73.92.92 0 01.73.34v-1.82h.66zm-.64-1.68a.73.73 0 00-.62-.36.75.75 0 000 1.5.73.73 0 00.62-.36zm3.79-1.56h-1v-.62h2.77v.62h-1.11v3.21h-.66zm-28.92 7.47c-.57-.2-1.2-.5-1.2-1.22a1.16 1.16 0 011.25-1.08 1.65 1.65 0 011.25.61l-.45.45a1.11 1.11 0 00-.8-.44.53.53 0 00-.58.46c0 .34.3.44.82.64s1.08.48 1.08 1.18-.62 1.06-1.34 1.06a1.67 1.67 0 01-1.4-.78l.49-.42a1.17 1.17 0 00.91.58c.33 0 .67-.13.67-.44s-.25-.44-.7-.6zm1.76-1h.51v-.77h.66v.77h.78v.59h-.78v1.05c0 .32.16.41.34.41a.5.5 0 00.27-.09l.24.53a1.15 1.15 0 01-.62.17.86.86 0 01-.89-.92v-1.15h-.51zm5 0v2.6H36v-.34a.89.89 0 01-.78.4 1.36 1.36 0 010-2.72.93.93 0 01.78.4v-.34zm-.66.91a.72.72 0 00-.61-.36.75.75 0 000 1.5.72.72 0 00.61-.36zm1.12-.91h.5v-.77h.66v.77H39v.59h-.79v1.05c0 .32.17.41.34.41a.56.56 0 00.28-.09l.24.53a1.21 1.21 0 01-.63.17.87.87 0 01-.89-.92v-1.15h-.5zm4.91 1.29v.24h-2a.74.74 0 00.73.52 1.06 1.06 0 00.71-.26l.33.49a1.67 1.67 0 01-1 .37 1.36 1.36 0 01-1.4-1.36 1.31 1.31 0 112.61 0zm-.65-.23a.61.61 0 00-.66-.53.59.59 0 00-.63.53zm2.83-2.3h1.3a1.23 1.23 0 110 2.46h-.65v1.38h-.65zm1.9 1.23c0-.36-.23-.6-.68-.6h-.57v1.2h.57c.43 0 .66-.24.66-.6zm2.9 0l-.23.59a.75.75 0 00-.31-.06.68.68 0 00-.58.35v1.7h-.66v-2.6h.63v.38a.84.84 0 01.71-.44 1.4 1.4 0 01.46.11zm.78-1.29a.44.44 0 11-.43.43.43.43 0 01.41-.4zm-.33 1.27h.66v2.6h-.66zm1.57 1.75a1.24 1.24 0 00.79.37c.27 0 .49-.08.49-.24s-.12-.2-.51-.28-1-.33-1-.82.41-.81 1.12-.81a1.64 1.64 0 011 .31l-.32.49A1.21 1.21 0 0052 131c-.25 0-.47.09-.47.25s.17.2.61.29.88.28.88.81-.47.8-1.13.8a1.62 1.62 0 01-1.17-.47zm5-.42a1.39 1.39 0 01-2.77 0 1.39 1.39 0 012.77 0zm-.67 0a.72.72 0 10-.72.75.72.72 0 00.8-.75zm3.5-.38v1.68h-.66v-1.52a.48.48 0 00-.52-.53.65.65 0 00-.51.33v1.72h-.66v-2.6h.62v.38a.89.89 0 01.77-.44.93.93 0 011.04.98zm3.2-2.16h.54v3.84H62v-3l-.67.54-.38-.48zm4.28 1.92c0 1-.46 2-1.44 2s-1.44-.94-1.44-2 .47-2 1.44-2 1.52.96 1.52 2zm-.66 0c0-.75-.25-1.37-.78-1.37s-.79.62-.79 1.37.26 1.37.79 1.37.86-.62.86-1.37zm1.06.25h1.46v.6h-1.38zm2.9-2.17h.54v3.84h-.65v-3l-.68.54-.38-.48zm2.72.55a.7.7 0 00-.65.47l-.57-.27a1.32 1.32 0 011.22-.81 1.14 1.14 0 011.24 1.15 1 1 0 01-.47.8.85.85 0 01.56.88 1.18 1.18 0 01-1.32 1.13 1.37 1.37 0 01-1.35-.88l.54-.32a.85.85 0 00.81.59c.41 0 .66-.22.66-.52s-.35-.54-.69-.54h-.27v-.6h.2c.4 0 .67-.15.67-.54a.54.54 0 00-.5-.54zm26.83-3.27v-.81h-.87v-.61h1.52v1.74a2.11 2.11 0 01-1.42.48 2 2 0 01-2-2 2 2 0 012-2 1.9 1.9 0 011.42.58l-.45.44a1.27 1.27 0 00-1-.4 1.33 1.33 0 00-1.36 1.4 1.35 1.35 0 001.35 1.37 1.23 1.23 0 00.81-.19zm3-1.85l-.23.6a.77.77 0 00-.32-.06.68.68 0 00-.58.35v1.69h-.65v-2.59h.62v.35a.86.86 0 01.71-.45 1.5 1.5 0 01.5.11zm2.73 0v2.59h-.61v-.34a.89.89 0 01-.78.41 1.37 1.37 0 010-2.73.92.92 0 01.78.41v-.34zm-.66.91a.72.72 0 00-.61-.36.75.75 0 000 1.5.72.72 0 00.61-.36zm3.67 0v1.68h-.66v-1.51a.47.47 0 00-.51-.53.65.65 0 00-.52.33v1.71h-.66v-2.59h.62v.34a.89.89 0 01.77-.45.93.93 0 011.06 1.01zm.45-.91h.51v-.77h.66v.77h.78v.59h-.78v1.05c0 .31.16.41.34.41a.51.51 0 00.27-.1l.24.54a1.15 1.15 0 01-.62.17.87.87 0 01-.89-.92v-1.15h-.51zm4.77-1.24l1.92 2.64v-2.64h.66v3.83h-.6l-1.91-2.63v2.63h-.66v-3.83z" transform="translate(-28.5 -14.7)"/><text class="cls-11" transform="translate(61.81 118.37)">WS H.S. 1-14</text><text class="cls-11" transform="translate(226.67 52.42)">Je<tspan x="5.78" y="0" letter-spacing="-.02em">r</tspan><tspan x="7.82" y="0">emy T</tspan></text><text class="cls-11" transform="translate(219.77 58.25)">Arllington 7-13</text><text class="cls-11" transform="translate(284.37 52.42)">Jerry E</text><text class="cls-11" transform="translate(277.37 58.25)">Pheonix 9-13</text><text class="cls-11" transform="translate(339.21 52.42)">Mi<tspan x="6.05" y="0" letter-spacing="-.02em">k</tspan><tspan x="8.88" y="0">e L</tspan></text><text class="cls-11" transform="translate(327.5 58.25)"><tspan class="cls-16">F</tspan><tspan x="2.76" y="0">ort </tspan><tspan class="cls-17" x="11.86" y="0">W</tspan><tspan x="16.95" y="0">orth 9-13</tspan></text><path class="cls-6" d="M42.78 245.05l-2 3.21h1.89v.62h-3l2-3.21h-1.82v-.62zm2.89 1.23v2.6h-.61v-.34a.89.89 0 01-.78.41 1.37 1.37 0 010-2.73.93.93 0 01.78.4v-.34zm-.66.91a.72.72 0 00-.61-.36.75.75 0 000 1.5.72.72 0 00.6-.33zm3.18.83l.43.43a1.4 1.4 0 01-2.47-.87 1.4 1.4 0 012.46-.88l-.45.41a.82.82 0 00-.61-.28.75.75 0 000 1.5.78.78 0 00.64-.33zm1.6-.71l.93-1h.85l-1.14 1.23 1.22 1.37h-.87l-1-1.13v1.13h-.66v-4.14h.66zm7-.35a1.84 1.84 0 01-1.89 1.92h-1.22v-3.83h1.24a1.83 1.83 0 011.89 1.95zm-.67 0a1.21 1.21 0 00-1.21-1.29h-.59v2.59h.59a1.22 1.22 0 001.23-1.26zm-27.3 3.91h1.26a1.17 1.17 0 011.27 1.19 1.12 1.12 0 01-.86 1.16l1 1.49h-.76l-.91-1.45h-.31v1.45h-.65zm1.86 1.19c0-.37-.26-.56-.68-.56h-.53v1.13H30c.42 0 .68-.19.68-.57zm1.69-1.22a.43.43 0 11-.43.43.43.43 0 01.43-.43zm-.37 1.27h.66v2.6H32zm3.29 1.73l.43.44a1.41 1.41 0 01-1.08.49 1.37 1.37 0 110-2.73 1.41 1.41 0 011.07.48l-.46.41a.8.8 0 00-.61-.27.75.75 0 000 1.5.78.78 0 00.69-.32zm3.28-.82v1.69H38v-1.52a.48.48 0 00-.51-.53.65.65 0 00-.52.34v1.71h-.65v-4.15h.65v1.86a.88.88 0 01.74-.38.93.93 0 01.9.96zm3.14-.91v2.6h-.61v-.34a.89.89 0 01-.78.4 1.37 1.37 0 010-2.73.92.92 0 01.78.41v-.34zm-.66.91a.72.72 0 00-.61-.36.75.75 0 000 1.5.72.72 0 00.61-.36zm3.1-.89l-.23.59a.75.75 0 00-.31-.06.68.68 0 00-.58.35v1.7h-.66v-2.6H43v.38a.83.83 0 01.7-.45 1.28 1.28 0 01.49.09zm2.74 2.58h-.61v-.34a.89.89 0 01-.78.4 1.37 1.37 0 010-2.73.92.92 0 01.73.34v-1.82h.66zm-.62-1.71a.71.71 0 00-.62-.36.75.75 0 000 1.5.71.71 0 00.62-.36zm1.6.8a1.2 1.2 0 00.78.38c.27 0 .5-.08.5-.24s-.12-.2-.52-.28-1-.33-1-.83.4-.81 1.11-.81a1.66 1.66 0 011 .32l-.33.48a1.2 1.2 0 00-.65-.22c-.24 0-.47.09-.47.24s.18.2.62.29.88.28.88.82-.47.8-1.14.8a1.62 1.62 0 01-1.17-.47zm5-.41a1.39 1.39 0 11-1.34-1.39 1.36 1.36 0 011.38 1.41zm-.67 0a.72.72 0 10-1.43 0 .72.72 0 101.43 0zm3.5-.39v1.69h-.65v-1.52a.48.48 0 00-.52-.53.63.63 0 00-.51.33v1.72h-.62v-2.6h.6v.38a.9.9 0 01.78-.45.93.93 0 01.96.98zm3.57.36h-.13a1.3 1.3 0 01-1.3-1.3 1.34 1.34 0 012.68 0 1.73 1.73 0 01-.22.8l-1.18 2-.55-.34zm.59-1.28a.68.68 0 10-.68.69.66.66 0 00.72-.67zM61 253h1.46v.62H61zm2.9-2.17h.54v3.84h-.65v-3l-.68.53-.38-.48zm2.72.55a.69.69 0 00-.65.46l-.57-.26a1.32 1.32 0 011.22-.82 1.15 1.15 0 011.2 1.24 1 1 0 01-.47.8.84.84 0 01.56.88 1.19 1.19 0 01-1.32 1.13 1.38 1.38 0 01-1.35-.89l.54-.31a.85.85 0 00.81.59c.41 0 .66-.23.66-.52s-.35-.55-.69-.55h-.27v-.6h.2c.4 0 .67-.15.67-.53a.54.54 0 00-.58-.58z" transform="translate(-28.5 -14.7)"/><text class="cls-11" transform="translate(65.71 234.18)"><tspan letter-spacing="-.04em">K</tspan><tspan x="3.23" y="0" letter-spacing="-.02em">e</tspan><tspan x="6.06" y="0">vin R</tspan></text><path class="cls-6" d="M91 250.87h1.31a1.23 1.23 0 110 2.45h-.65v1.39H91zm1.91 1.23c0-.36-.24-.6-.69-.6h-.56v1.2h.56c.43 0 .67-.24.67-.6zm1.55-1.26a.43.43 0 11-.43.43.43.43 0 01.41-.43zm-.33 1.27h.66v2.6h-.66zm3.91 0v2.6h-.61v-.34a.92.92 0 01-.79.4 1.37 1.37 0 010-2.73.93.93 0 01.79.41v-.34zm-.66.91a.73.73 0 00-.62-.36.75.75 0 000 1.5.73.73 0 00.62-.36zm3.66 0v1.69h-.66v-1.52a.48.48 0 00-.51-.53.65.65 0 00-.52.33v1.72h-.65v-2.6h.61v.38a.9.9 0 01.78-.45.93.93 0 01.91.96zm3.26.39a1.39 1.39 0 11-1.39-1.37 1.37 1.37 0 011.37 1.37zm-.67 0a.72.72 0 10-1.44 0 .72.72 0 101.44 0zm3.69-2.54h.54v3.84h-.65v-3l-.68.53-.37-.48zm1.36 2.17h1.47v.62h-1.47zm2.9-2.17h.55v3.84h-.66v-3l-.68.53-.37-.48zm3.11 0h.74v2.39h.42v.61h-.42v.84h-.66v-.84h-2zm.09 2.39v-1.49l-1 1.49zm93.56-6.26a1.84 1.84 0 01-1.9 1.92h-1.24v-3.83h1.24a1.84 1.84 0 011.9 1.91zm-.67 0a1.22 1.22 0 00-1.22-1.29h-.59v2.59h.59a1.23 1.23 0 001.22-1.3zm3.67-.68v2.6h-.61v-.34a.9.9 0 01-.78.41 1.37 1.37 0 010-2.73.93.93 0 01.78.4v-.34zm-.66.91a.72.72 0 00-.61-.36.75.75 0 000 1.5.72.72 0 00.61-.36zm1.73-.91l.66 1.42.65-1.42h.71l-1.37 2.68-1.38-2.73zm4.7 1.29v.25h-1.94a.74.74 0 00.73.52 1.06 1.06 0 00.71-.26l.33.49a1.64 1.64 0 01-1 .38 1.37 1.37 0 01-1.4-1.37 1.31 1.31 0 112.61 0zm-.65-.23a.61.61 0 00-.66-.52.59.59 0 00-.63.52zm2.83-2.29h.65v3.21h1.64v.62h-2.29zm-24.03 8.02c-.56-.2-1.2-.51-1.2-1.22a1.18 1.18 0 011.26-1.09 1.65 1.65 0 011.25.61l-.46.45a1.08 1.08 0 00-.79-.43.53.53 0 00-.59.46c0 .33.3.44.83.63s1.07.49 1.07 1.18-.61 1.07-1.33 1.07a1.67 1.67 0 01-1.4-.78l.49-.42a1.17 1.17 0 00.91.58c.33 0 .67-.14.67-.45s-.25-.44-.71-.59zm2.41-2.27a.43.43 0 110 .86.43.43 0 110-.86zm-.33 1.27h.66v2.6h-.66zm3.76.91v1.69h-.65v-1.52a.48.48 0 00-.52-.53.63.63 0 00-.51.33v1.72h-.66v-2.6h.61v.38a.9.9 0 01.78-.45.93.93 0 01.95.96zm1.76 1.75a1.37 1.37 0 010-2.73.92.92 0 01.78.41v-.34h.61v2.62a1.27 1.27 0 01-1.4 1.3 1.85 1.85 0 01-1.23-.49l.38-.54a1.3 1.3 0 00.86.39c.51 0 .74-.28.74-.67v-.31a.92.92 0 01-.74.36zm.73-1.75a.73.73 0 00-.62-.36.75.75 0 000 1.5.73.73 0 00.62-.36zm3.8-.91v2.6h-.61v-.34a.89.89 0 01-.78.4 1.37 1.37 0 010-2.73.92.92 0 01.78.41v-.34zm-.66.91a.72.72 0 00-.61-.36.75.75 0 000 1.5.72.72 0 00.61-.36zm1.93-.91v.34a.92.92 0 01.78-.41 1.37 1.37 0 010 2.73.9.9 0 01-.73-.33V256h-.66v-3.86zm.05 1.69a.71.71 0 00.62.36.75.75 0 000-1.5.71.71 0 00-.62.36zm5.08-.39a1.39 1.39 0 11-1.39-1.41 1.36 1.36 0 011.39 1.41zm-.67 0a.72.72 0 10-.72.75.71.71 0 00.72-.75zm2.93-1.28l-.23.59a.75.75 0 00-.31-.06.68.68 0 00-.58.35v1.7h-.66v-2.6h.63v.38a.84.84 0 01.71-.45 1.26 1.26 0 01.44.09zm2.7 1.27a2.37 2.37 0 010 .24h-1.95a.75.75 0 00.73.53 1.06 1.06 0 00.71-.26l.33.49a1.67 1.67 0 01-1 .37 1.36 1.36 0 01-1.4-1.36 1.31 1.31 0 112.62 0zm-.66-.23a.66.66 0 00-1.29 0zm3.68-2.3h.54v3.84h-.65v-3l-.68.53-.38-.48zm2.44 0h.54v3.84h-.66v-3l-.67.53-.38-.48zm1.36 2.17H227v.62h-1.46zm2.9-2.17h.53v3.84h-.66v-3l-.67.53-.38-.48zm2.72.55a.71.71 0 00-.66.46l-.57-.26a1.32 1.32 0 011.23-.82 1.14 1.14 0 011.23 1.16 1 1 0 01-.47.8.84.84 0 01.57.88 1.19 1.19 0 01-1.33 1.13 1.36 1.36 0 01-1.34-.89l.54-.31a.84.84 0 00.8.59c.42 0 .67-.23.67-.52s-.35-.55-.7-.55h-.27v-.6h.21c.4 0 .66-.15.66-.53a.53.53 0 00-.57-.54zm28.1-6.37h.71v2.63a1.19 1.19 0 01-1.31 1.27 1.33 1.33 0 01-1.12-.64l.48-.41a.85.85 0 00.64.42.58.58 0 00.65-.62zm3.88 1.23v2.6h-.61v-.34a.89.89 0 01-.78.41 1.37 1.37 0 010-2.73.93.93 0 01.78.4v-.34zm-.66.91a.72.72 0 00-.61-.36.75.75 0 000 1.5.72.72 0 00.61-.36zm3.18.83l.44.43a1.42 1.42 0 01-1.08.5 1.37 1.37 0 110-2.73 1.41 1.41 0 011.07.48l-.46.41a.79.79 0 00-.61-.28.75.75 0 000 1.5.75.75 0 00.64-.33zm3.46-.44a1.39 1.39 0 11-1.38-1.36 1.37 1.37 0 011.38 1.36zm-.67 0a.72.72 0 10-.71.75.71.71 0 00.71-.75zm1.24-2.84h.65v1.82a.93.93 0 01.74-.34 1.37 1.37 0 010 2.73.91.91 0 01-.79-.41v.34h-.6zm.65 3.23a.73.73 0 00.62.36.75.75 0 000-1.5.73.73 0 00-.62.36zm5.78.91h-.66v-1.51l-1.3-2.32h.72l.94 1.71.93-1.71h.68l-1.31 2.32zm-22.08 1.99l1.92 2.64v-2.64h.65v3.84h-.59l-1.92-2.64v2.64h-.65v-3.84zm5.79 1.24v2.6h-.61v-.34a.89.89 0 01-.78.4 1.37 1.37 0 010-2.73.92.92 0 01.78.41v-.34zm-.65.91a.75.75 0 00-.62-.36.75.75 0 000 1.5.75.75 0 00.62-.36zm1.92-.91v.34a1 1 0 01.79-.41 1.37 1.37 0 010 2.73.93.93 0 01-.74-.33V256h-.66v-3.86zm.05 1.69a.73.73 0 00.62.36.75.75 0 000-1.5.73.73 0 00-.62.36zm2.56-3.24h.66v4.15h-.66zm3.83 2.84v.24h-1.94a.75.75 0 00.73.53 1.06 1.06 0 00.71-.26l.33.49a1.67 1.67 0 01-1 .37 1.36 1.36 0 01-1.4-1.36 1.31 1.31 0 112.61 0zm-.65-.23a.61.61 0 00-.66-.53.59.59 0 00-.63.53zm1.34.65a1.23 1.23 0 00.79.38c.26 0 .49-.08.49-.24s-.12-.2-.52-.28-1-.33-1-.83.4-.81 1.12-.81a1.65 1.65 0 011 .32l-.33.48a1.19 1.19 0 00-.64-.22c-.25 0-.47.09-.47.24s.17.2.61.29.88.28.88.82-.47.8-1.13.8a1.65 1.65 0 01-1.18-.47zm5-2.95h.54v3.84h-.66v-3l-.67.53-.38-.48zm1.36 2.17h1.46v.62h-1.46zm2.9-2.17h.54v3.84h-.66v-3l-.67.53-.38-.48zm3.11 0h.73v2.39h.42v.61h-.42v.84h-.66v-.84h-2zm.08 2.39v-1.49l-1 1.49z" transform="translate(-28.5 -14.7)"/><text class="cls-20" transform="translate(118.71 27.62)">0</text><text class="cls-20" transform="translate(138.1 27.62)">5</text><text class="cls-20" transform="translate(118.69 43.9)">Y</text><text class="cls-20" transform="translate(138.14 43.9)">3</text><text class="cls-11" transform="translate(127.99 36.81)">5</text><text class="cls-20" transform="translate(39.06 87.59)">0</text><text class="cls-20" transform="translate(58.62 87.59)">7</text><text class="cls-20" transform="translate(39.04 103.86)">Y</text><text class="cls-20" transform="translate(58.44 103.86)">4</text><text class="cls-11" transform="translate(48.43 96.78)">2</text><text class="cls-20" transform="translate(11.57 147.64)">8</text><text class="cls-20" transform="translate(30.83 147.64)">0</text><text class="cls-20" transform="translate(11.16 163.91)">N</text><text class="cls-20" transform="translate(30.96 163.91)">2</text><text class="cls-11" transform="translate(20.71 156.82)">0</text><text class="cls-20" transform="translate(66.55 147.47)">0</text><text class="cls-20" transform="translate(85.97 147.47)">8</text><text class="cls-20" transform="translate(66.52 163.74)">Y</text><text class="cls-20" transform="translate(85.92 163.74)">4</text><text class="cls-11" transform="translate(75.83 156.66)">5</text><text class="cls-20" transform="translate(227.18 87.47)">0</text><text class="cls-20" transform="translate(246.63 87.47)">6</text><text class="cls-20" transform="translate(226.85 103.74)">N</text><text class="cls-20" transform="translate(246.51 103.74)">0</text><text class="cls-11" transform="translate(236.41 96.66)">0</text><text class="cls-20" transform="translate(282.1 87.82)">4</text><text class="cls-20" transform="translate(301.85 87.82)">1</text><text class="cls-20" transform="translate(281.73 104.09)">N</text><text class="cls-20" transform="translate(301.85 104.09)">1</text><text class="cls-11" transform="translate(291.74 97.01)">1</text><text class="cls-20" transform="translate(336.93 87.6)">2</text><text class="cls-20" transform="translate(356.27 87.6)">2</text><text class="cls-20" transform="translate(336.77 103.87)">Y</text><text class="cls-20" transform="translate(356.17 103.87)">4</text><text class="cls-11" transform="translate(346.47 96.79)">1</text><text class="cls-20" transform="translate(281.7 148.06)">5</text><text class="cls-20" transform="translate(300.97 148.06)">0</text><text class="cls-20" transform="translate(281.31 164.33)">N</text><text class="cls-20" transform="translate(300.97 164.33)">0</text><text class="cls-11" transform="translate(291.31 157.25)">1</text><text class="cls-20" transform="translate(336.67 147.74)">4</text><text class="cls-20" transform="translate(356.11 147.74)">2</text><text class="cls-20" transform="translate(336.3 164.01)">N</text><text class="cls-20" transform="translate(356.11 164.01)">2</text><text class="cls-11" transform="translate(346.31 156.93)">1</text><text class="cls-20" transform="translate(118.48 207.93)">0</text><text class="cls-20" transform="translate(137.93 207.93)">9</text><text class="cls-20" transform="translate(118.46 224.2)">Y</text><text class="cls-20" transform="translate(137.9 224.2)">8</text><text class="cls-11" transform="translate(127.77 217.11)">5</text><text class="cls-20" transform="translate(280.71 328.72)">12</text><text class="cls-20" transform="translate(301.12 328.72)">0</text><text class="cls-20" transform="translate(281.46 344.99)">N</text><text class="cls-20" transform="translate(301.12 344.99)">0</text><text class="cls-11" transform="translate(291.01 337.9)">0</text><text class="cls-20" transform="translate(336.82 329.14)">0</text><text class="cls-20" transform="translate(356.24 329.14)">8</text><text class="cls-20" transform="translate(336.8 345.41)">Y</text><text class="cls-20" transform="translate(356.24 345.41)">8</text><text class="cls-11" transform="translate(346.05 338.33)">0</text><text class="cls-20" transform="translate(173.74 328.81)">3</text><text class="cls-20" transform="translate(192.98 328.81)">0</text><text class="cls-20" transform="translate(173.32 345.08)">N</text><text class="cls-20" transform="translate(192.98 345.08)">0</text><text class="cls-11" transform="translate(182.87 338)">0</text><text class="cls-20" transform="translate(118.88 328.61)">2</text><text class="cls-20" transform="translate(138.12 328.61)">4</text><text class="cls-20" transform="translate(118.42 344.88)">N</text><text class="cls-20" transform="translate(138.12 344.88)">4</text><text class="cls-11" transform="translate(127.98 337.79)">0</text><text class="cls-20" transform="translate(9.08 268.15)">6</text><text class="cls-20" transform="translate(28.3 268.15)">0</text><text class="cls-20" transform="translate(8.63 284.42)">N</text><text class="cls-20" transform="translate(28.3 284.42)">0</text><text class="cls-11" transform="translate(18.19 277.34)">0</text><text class="cls-20" transform="translate(64.01 267.88)">2</text><text class="cls-20" transform="translate(83.35 267.88)">2</text><text class="cls-20" transform="translate(63.55 284.15)">N</text><text class="cls-20" transform="translate(83.35 284.15)">2</text><text class="cls-11" transform="translate(73.11 277.06)">0</text><text class="cls-20" transform="translate(118.77 268.46)">4</text><text class="cls-20" transform="translate(138.52 268.46)">1</text><text class="cls-20" transform="translate(118.41 284.73)">N</text><text class="cls-20" transform="translate(138.21 284.73)">2</text><text class="cls-11" transform="translate(128.4 277.64)">1</text><text class="cls-20" transform="translate(173.83 268.68)">2</text><text class="cls-20" transform="translate(193.14 268.68)">6</text><text class="cls-20" transform="translate(173.67 284.95)">Y</text><text class="cls-20" transform="translate(193.06 284.95)">4</text><text class="cls-11" transform="translate(183.36 277.87)">1</text><text class="cls-20" transform="translate(228.09 268.68)">4</text><text class="cls-20" transform="translate(247.39 268.68)">0</text><text class="cls-20" transform="translate(227.72 284.95)">N</text><text class="cls-20" transform="translate(247.39 284.95)">0</text><text class="cls-11" transform="translate(237.28 277.86)">0</text><path class="cls-4" d="M109.71 180.92h39.97v12.92h-39.97z"/><text class="cls-11" transform="translate(119.4 186.45)">Justin D</text><text class="cls-11" transform="translate(115.54 192.27)">Online 5-13</text><path class="cls-4" d="M328.53 120.07h39.97v12.92h-39.97z"/><path class="cls-6" d="M369.09 136l1.25 1.93 1.25-1.93h.6v3.83h-.65v-2.57l-1.2 1.82-1.2-1.82v2.57h-.66V136zm6.32 1.24v2.59h-.6v-.34a.91.91 0 01-.79.41 1.37 1.37 0 010-2.73.94.94 0 01.79.4v-.33zm-.65.9a.73.73 0 00-.62-.36.75.75 0 000 1.5.73.73 0 00.62-.36zm1.11-.9h.51v-.78h.62v.78h.79v.59H377v1c0 .32.17.41.34.41a.56.56 0 00.28-.09l.24.54a1.21 1.21 0 01-.63.17.87.87 0 01-.88-.92v-1.15h-.51zm2.28 0h.51v-.78h.66v.78h.78v.59h-.78v1c0 .32.16.41.34.41a.55.55 0 00.27-.09l.24.54a1.19 1.19 0 01-.62.17.87.87 0 01-.89-.92v-1.15h-.51zm4.18-1.24h1.24c.63 0 1.22.29 1.22 1.09a.78.78 0 01-.4.71.89.89 0 01.6.9 1.18 1.18 0 01-1.28 1.13h-1.38zm1.22 1.56c.37 0 .57-.13.57-.47s-.25-.47-.57-.47H383v.94zm.77 1.14c0-.36-.27-.51-.63-.51H383v1h.71c.34.04.61-.11.61-.47z" transform="translate(-28.5 -14.7)"/><text class="cls-11" transform="translate(328.28 130.98)"><tspan class="cls-16">F</tspan><tspan x="2.76" y="0">ort </tspan><tspan class="cls-17" x="11.86" y="0">W</tspan><tspan x="16.95" y="0">orth 2-14</tspan></text><path class="cls-4" d="M275.19 119.85h39.97v12.92h-39.97z"/><text class="cls-11" transform="translate(283.98 125.15)">Chris K</text><path class="cls-6" d="M305.58 143.4h1.51v.6h-1.51v1.65h-.65v-3.84h2.27v.63h-1.62zm2.24-1.87h.65v4.15h-.65zm3.87 1.55v2.6h-.61v-.34a.89.89 0 01-.78.4 1.37 1.37 0 010-2.73.92.92 0 01.78.41v-.34zm-.69.92a.72.72 0 00-.61-.36.75.75 0 000 1.5.72.72 0 00.61-.36zm2.41 1.75a1.37 1.37 0 010-2.73 1 1 0 01.79.41v-.34h.6v2.62a1.27 1.27 0 01-1.39 1.3 1.89 1.89 0 01-1.24-.49l.38-.51a1.3 1.3 0 00.86.39c.51 0 .74-.28.74-.67v-.31a1 1 0 01-.71.32zm.74-1.75a.73.73 0 00-.62-.36.75.75 0 000 1.5.75.75 0 00.62-.36zm1.52.8a1.2 1.2 0 00.78.38c.27 0 .49-.08.49-.24s-.12-.2-.51-.28-1-.33-1-.83.41-.81 1.12-.81a1.66 1.66 0 011 .32l-.33.48a1.24 1.24 0 00-.65-.22c-.24 0-.47.09-.47.25s.18.19.61.29.89.28.89.81-.48.8-1.14.8a1.62 1.62 0 01-1.17-.47zm2.23-1.71h.51v-.77h.66v.77h.78v.59h-.78v1.05c0 .32.17.41.34.41a.56.56 0 00.28-.09l.24.53a1.21 1.21 0 01-.63.17.87.87 0 01-.89-.92v-1.15h-.51zm5 0v2.6h-.61v-.34a.92.92 0 01-.79.4 1.37 1.37 0 010-2.73.93.93 0 01.79.41v-.34zm-.66.91a.72.72 0 00-.61-.36.75.75 0 000 1.5.72.72 0 00.61-.36zm2.25-.91h1.05v-.61a.91.91 0 01.94-1 1.29 1.29 0 01.61.15l-.25.56a.46.46 0 00-.29-.1c-.18 0-.35.13-.35.46v.54h.65v.58h-.65v2h-.66v-2h-1.04v2h-.66v-2h-.51v-.58h.51v-.61a.91.91 0 01.94-1 1.29 1.29 0 01.61.15l-.25.56a.43.43 0 00-.29-.1c-.18 0-.35.13-.35.46zm5.39-1.24h.55v3.84h-.66v-3l-.67.53-.38-.48zm1.37 2.17h1.46v.63h-1.46zm2.9-2.17h.54v3.84H334v-3l-.67.53-.38-.48zm3.1 0h.75v2.39h.42v.61H338v.84h-.66v-.84h-2zm.09 2.39v-1.48l-1 1.48z" transform="translate(-28.5 -14.7)"/><path class="cls-4" d="M277.93 301.71h39.97v12.92h-39.97z"/><text class="cls-11" transform="translate(282.45 306.77)">Arnold S</text><path class="cls-6" d="M305.34 325.87h1.5v.62h-1.5v1.65h-.66v-3.84H307v.63h-1.61zm2.23-1.87h.66v4.14h-.66zm3.88 1.54v2.6h-.61v-.34a.92.92 0 01-.79.4 1.36 1.36 0 010-2.72.94.94 0 01.79.4v-.34zm-.66.91a.73.73 0 00-.62-.36.75.75 0 000 1.5.73.73 0 00.62-.36zm2.41 1.75a1.36 1.36 0 010-2.72.93.93 0 01.78.4v-.34h.61v2.62a1.27 1.27 0 01-1.4 1.3A1.88 1.88 0 01312 329l.37-.5a1.31 1.31 0 00.86.38c.51 0 .74-.28.74-.67v-.31a.92.92 0 01-.77.3zm.73-1.75a.73.73 0 00-.62-.36.75.75 0 000 1.5.73.73 0 00.62-.36zm1.52.81a1.24 1.24 0 00.78.37c.27 0 .5-.08.5-.24s-.12-.2-.52-.28-1-.33-1-.82.4-.81 1.12-.81a1.68 1.68 0 011 .31l-.33.49a1.16 1.16 0 00-.64-.23c-.25 0-.47.09-.47.25s.17.2.61.29.88.28.88.81-.47.8-1.13.8a1.65 1.65 0 01-1.18-.47zm2.24-1.72h.51v-.77h.66v.77h.78v.59h-.78v1.05c0 .32.16.41.34.41a.55.55 0 00.27-.09l.24.53a1.19 1.19 0 01-.62.17.86.86 0 01-.89-.92v-1.15h-.51zm5 0v2.6h-.61v-.34a.89.89 0 01-.78.4 1.36 1.36 0 010-2.72.93.93 0 01.78.4v-.34zm-.66.91a.72.72 0 00-.61-.36.75.75 0 000 1.5.72.72 0 00.61-.36zm2.25-.91h1.05v-.61a.91.91 0 01.95-1 1.22 1.22 0 01.6.15l-.24.56a.5.5 0 00-.3-.09c-.18 0-.35.12-.35.46v.53h.66v.58H326v2h-.66v-2h-1.05v2h-.65v-2h-.52v-.58h.52v-.61a.91.91 0 01.94-1 1.29 1.29 0 01.61.15l-.25.56a.5.5 0 00-.3-.09c-.18 0-.35.12-.35.46zm5.72 2.66a1.44 1.44 0 01-1.34-.88l.55-.32a.87.87 0 00.79.59.67.67 0 00.7-.71c0-.41-.25-.71-.82-.71a1.85 1.85 0 00-1 .41v-2.28h2.41v.63h-1.76v.75a1.22 1.22 0 01.54-.12 1.24 1.24 0 011.31 1.32 1.29 1.29 0 01-1.38 1.32zm1.78-1.73h1.47v.63h-1.47zm2.9-2.17h.55v3.84h-.66v-3l-.67.54-.38-.48zm3.11 0h.74v2.39h.47v.62h-.42v.83h-.66v-.83h-2zm.09 2.39v-1.48l-1 1.48z" transform="translate(-28.5 -14.7)"/><path class="cls-4" d="M329.18 301.29h39.97v12.92h-39.97z"/><path class="cls-6" d="M367.49 320.46l.44.43a2 2 0 01-1.48.65 2 2 0 111.42-3.36l-.44.43a1.34 1.34 0 00-1-.42 1.37 1.37 0 000 2.74 1.37 1.37 0 001.06-.47zm3.29-.67v1.69h-.66V320a.48.48 0 00-.51-.53.65.65 0 00-.52.34v1.71h-.65v-4.15h.65v1.86a.88.88 0 01.74-.38.93.93 0 01.95.94zm3.14-.91v2.6h-.6v-.34a.92.92 0 01-.79.4 1.37 1.37 0 010-2.73 1 1 0 01.79.41v-.34zm-.65.91a.75.75 0 00-.62-.36.75.75 0 000 1.5.75.75 0 00.62-.36zm3.09-.89l-.23.59a.75.75 0 00-.31-.06.68.68 0 00-.58.35v1.7h-.66v-2.6h.63v.38a.84.84 0 01.71-.45 1.26 1.26 0 01.44.09zm.42-1.57h.66v4.15h-.66zm3.83 2.84v.24h-1.94a.75.75 0 00.73.53 1.06 1.06 0 00.71-.26l.33.49a1.67 1.67 0 01-1 .37 1.36 1.36 0 01-1.4-1.36 1.31 1.31 0 112.61 0zm-.65-.23a.61.61 0 00-.66-.53.59.59 0 00-.63.53zm1.34.65a1.23 1.23 0 00.79.38c.26 0 .49-.08.49-.24s-.12-.2-.52-.28-1-.33-1-.83.41-.81 1.12-.81a1.65 1.65 0 011 .32l-.33.48a1.19 1.19 0 00-.64-.22c-.25 0-.47.09-.47.24s.17.2.61.29.88.28.88.82-.47.8-1.13.8a1.62 1.62 0 01-1.17-.47zm7.27-1a1.84 1.84 0 01-1.89 1.92h-1.24v-3.84h1.24a1.84 1.84 0 011.89 1.89zm-.67 0a1.21 1.21 0 00-1.21-1.29h-.59v2.58h.59a1.22 1.22 0 001.21-1.32z" transform="translate(-28.5 -14.7)"/><text class="cls-11" transform="translate(328.18 312.6)"><tspan class="cls-16">F</tspan><tspan x="2.76" y="0">ort </tspan><tspan class="cls-17" x="11.86" y="0">W</tspan><tspan x="16.95" y="0">orth 9-14</tspan></text><path class="cls-4" d="M109.45 238.93h39.97v12.92h-39.97z"/><text class="cls-11" transform="translate(118.27 244.2)">Geo<tspan x="9.92" y="0" letter-spacing="-.02em">r</tspan><tspan x="11.95" y="0">ge P</tspan></text><path class="cls-6" d="M141.39 262.45h1.51v.62h-1.51v1.65h-.65v-3.83H143v.62h-1.62zm3.94-.31l-.23.59a.75.75 0 00-.31-.06.68.68 0 00-.58.35v1.7h-.66v-2.6h.62v.38a.86.86 0 01.71-.44 1.42 1.42 0 01.45.08zm2.74 0v2.6h-.61v-.34a.91.91 0 01-.79.41 1.37 1.37 0 010-2.73.94.94 0 01.79.4v-.34zm-.66.91a.73.73 0 00-.62-.36.75.75 0 000 1.5.73.73 0 00.62-.36zm3.66 0v1.68h-.66v-1.53a.48.48 0 00-.51-.53.65.65 0 00-.52.34v1.71h-.65v-2.6h.61v.38a.9.9 0 01.78-.44.93.93 0 01.95.94zm1.4.11l.93-1h.85l-1.14 1.23 1.21 1.37h-.86l-1-1.13v1.13h-.66v-4.14h.66zm1.95-1h.52v-.63a.9.9 0 01.93-1 1.16 1.16 0 01.58.14l-.25.55a.48.48 0 00-.26-.07c-.13 0-.34.07-.34.39v.6h.63v.6h-.63v2h-.66v-2h-.52zm2.28 1.69v-1.69h.66v1.51c0 .38.18.54.51.54a.65.65 0 00.52-.31v-1.74h.61v2.6h-.61v-.38a.93.93 0 01-1.73-.53zm4.79-1.67l-.23.59a.77.77 0 00-.32-.06.68.68 0 00-.58.35v1.7h-.65v-2.6h.62v.38a.84.84 0 01.71-.44 1.5 1.5 0 01.45.04zm.13 0h.51v-.77h.66v.77h.78v.6h-.78v1c0 .32.16.41.34.41a.55.55 0 00.27-.09l.24.54a1.19 1.19 0 01-.62.17.87.87 0 01-.89-.92v-1.15h-.51zm6.56-.19a.9.9 0 01-.43.75 1 1 0 01.54.91 1.32 1.32 0 01-2.63 0 1 1 0 01.53-.91.9.9 0 01-.42-.75 1.21 1.21 0 012.41 0zm-.56 1.65a.65.65 0 00-1.3 0 .65.65 0 001.3 0zm-.65-2.16a.51.51 0 00-.55.51.55.55 0 001.1 0 .51.51 0 00-.52-.57zm1.76 1.64h1.47v.62h-1.47zm2.9-2.17h.55v3.83h-.66v-3l-.68.54-.37-.48zm2.72.54a.7.7 0 00-.65.47l-.57-.27a1.32 1.32 0 011.22-.81 1.14 1.14 0 011.24 1.15 1 1 0 01-.47.81.83.83 0 01.56.87 1.19 1.19 0 01-1.32 1.14 1.36 1.36 0 01-1.34-.89l.53-.31a.84.84 0 00.81.58c.41 0 .67-.22.67-.52s-.35-.54-.7-.54h-.27v-.6h.21c.4 0 .66-.15.66-.54a.54.54 0 00-.58-.6z" transform="translate(-28.5 -14.7)"/><path class="cls-4" d="M165.91 301.53h39.97v12.92h-39.97z"/><text class="cls-11" transform="translate(177.68 306.77)">Tim P</text><path class="cls-6" d="M193.55 323.47h.66v2.62a1.19 1.19 0 01-1.31 1.28 1.33 1.33 0 01-1.12-.65l.48-.4a.85.85 0 00.64.42.58.58 0 00.65-.62zm4 2.53a1.39 1.39 0 11-1.38-1.36 1.35 1.35 0 011.37 1.36zm-.67 0a.72.72 0 10-.71.75.71.71 0 00.7-.75zm3.58-.38v1.68h-.66v-1.52a.48.48 0 00-.51-.53.65.65 0 00-.52.34v1.71h-.66v-4.14h.66V325a.88.88 0 01.74-.38.93.93 0 01.94 1zm3.26.38a1.39 1.39 0 01-2.77 0 1.39 1.39 0 012.77 0zm-.67 0a.72.72 0 10-.72.75.72.72 0 00.67-.75zm2.93-1.28l-.23.59a.75.75 0 00-.31-.06.68.68 0 00-.58.35v1.7h-.66v-2.6h.63v.38a.83.83 0 01.7-.44 1.42 1.42 0 01.47.08zm2-1.25h1.25a1.07 1.07 0 011.22 1.09.8.8 0 01-.4.71.9.9 0 01.6.9 1.18 1.18 0 01-1.29 1.13H208zm1.23 1.56c.36 0 .57-.14.57-.47s-.25-.47-.57-.47h-.57v.91zm.77 1.14c0-.37-.28-.51-.64-.51h-.7v1h.7c.38.02.66-.13.66-.49zm3.64-1.47v2.6H213v-.3a.91.91 0 01-.79.41 1.37 1.37 0 010-2.73.94.94 0 01.79.4v-.34zm-.65.91a.73.73 0 00-.62-.36.75.75 0 000 1.5.73.73 0 00.62-.36zm3.74 0v1.68h-.66v-1.52a.48.48 0 00-.52-.53.63.63 0 00-.51.34v1.71h-.66v-4.14h.64V325a.88.88 0 01.73-.38.93.93 0 011 1zm2.44-.9l-.23.59a.75.75 0 00-.31-.06.68.68 0 00-.58.35v1.7h-.66v-2.6h.63v.38a.86.86 0 01.71-.44 1.5 1.5 0 01.46.09zm.34 1.66v-1.67h.66v1.5c0 .39.18.55.51.55a.65.65 0 00.52-.32v-1.73h.65v2.6h-.61v-.38a.93.93 0 01-1.73-.54zm5.92-.87a1.45 1.45 0 00.44-.91.57.57 0 00-.57-.59.71.71 0 00-.68.56l-.59-.21a1.32 1.32 0 011.27-1 1.14 1.14 0 011.23 1.19 1.57 1.57 0 01-.34 1l-.88 1.14h1.23v.62H224zm1.59.12h1.47v.63H227zm2.9-2.16h.55v3.83h-.66v-3l-.68.54-.37-.48zm3.11 0h.74v2.38h.42v.62h-.42v.83h-.66v-.83h-2zm.09 2.38v-1.48l-1 1.48z" transform="translate(-28.5 -14.7)"/><path class="cls-4" d="M113.75 301.53h39.97v12.92h-39.97z"/><text class="cls-11" transform="translate(120.14 306.77)"><tspan letter-spacing="-.03em">W</tspan><tspan x="5.23" y="0">ylie C</tspan></text><text class="cls-11" transform="translate(116.68 312.6)">Berlin 2-14</text></svg>