<svg id="Layer_1" data-name="Layer 1" xmlns="http://www.w3.org/2000/svg" viewBox="0 0 425.85 384.9"><defs><clipPath id="clip-path"><path class="cls-1" d="M26.24 12.62h373.81V370.3H26.24z"/></clipPath><clipPath id="clip-path-2"><path class="cls-1" d="M0 0h425.85v635.17H0z"/></clipPath><style>.cls-1,.cls-2{fill:none}.cls-2{stroke:#23336a;stroke-miterlimit:10;stroke-width:.42px}.cls-4,.cls-8{fill:#23336a}.cls-5{fill:#91c841}.cls-6{fill:#00aeef}.cls-10,.cls-7{fill:#fff}.cls-10,.cls-8{font-size:5.48px;font-family:Europa-Bold;font-weight:700}.cls-9{clip-path:url(#clip-path-2)}</style></defs><path class="cls-2" d="M321.51 128.28v205.39m54.74-205.28v205.28m-272.87-74.6v22.61m109.73-22.61v22.61m54.47-22.31v22.61m-219.14-22.6V282m-.21-22.85h219.58m108.41-180.9v22.61m-54.73-22.59v22.62m-54.72-22.65v22.61M78.9 78.25v22.62m-.21-22.85h297.72M78.79 127.36v9.99m-27.52.06v22.62m54.75-22.63v22.62m107.03 149.51v22.61M158.19 68.01v267.1"/><g clip-path="url(#clip-path)"><path class="cls-4" d="M158.46 49V29.91A19.17 19.17 0 00139.29 49z"/><path class="cls-5" d="M158.41 49h-19.12a19.17 19.17 0 0019.12 19.17z"/><path class="cls-4" d="M158.31 49.07v19.11a19.17 19.17 0 0019.17-19.11z"/><path class="cls-6" d="M158.36 49.07h19.12a19.17 19.17 0 00-19.12-19.16z"/><path class="cls-7" d="M165 49.16a6.67 6.67 0 11-6.67-6.66 6.66 6.66 0 016.67 6.66"/><path class="cls-4" d="M79 109.21V90.09a19.18 19.18 0 00-19.17 19.12z"/><path class="cls-5" d="M79 109.21H59.87A19.17 19.17 0 0079 128.38z"/><path class="cls-4" d="M78.89 109.26v19.11a19.16 19.16 0 0019.16-19.11z"/><path class="cls-6" d="M78.94 109.26h19.11a19.17 19.17 0 00-19.11-19.17z"/><path class="cls-7" d="M85.54 109.35a6.67 6.67 0 11-6.67-6.67 6.67 6.67 0 016.67 6.67"/><path class="cls-4" d="M266.82 109.21V90.09a19.17 19.17 0 00-19.16 19.12z"/><path class="cls-5" d="M266.77 109.21h-19.11a19.17 19.17 0 0019.11 19.17z"/><path class="cls-4" d="M266.67 109.26v19.11a19.17 19.17 0 0019.17-19.11z"/><path class="cls-6" d="M266.73 109.26h19.11a19.17 19.17 0 00-19.11-19.17z"/><path class="cls-7" d="M273.32 109.35a6.67 6.67 0 11-6.66-6.67 6.67 6.67 0 016.66 6.67"/><path class="cls-4" d="M321.62 109.21V90.09a19.17 19.17 0 00-19.16 19.12z"/><path class="cls-5" d="M321.57 109.21h-19.11a19.17 19.17 0 0019.11 19.17z"/><path class="cls-4" d="M321.47 109.26v19.11a19.17 19.17 0 0019.17-19.11z"/><path class="cls-6" d="M321.53 109.26h19.11a19.17 19.17 0 00-19.11-19.17z"/><path class="cls-7" d="M328.12 109.35a6.67 6.67 0 11-6.66-6.67 6.67 6.67 0 016.66 6.67"/><path class="cls-4" d="M376.42 109.21V90.09a19.17 19.17 0 00-19.16 19.12z"/><path class="cls-5" d="M376.37 109.21h-19.11a19.17 19.17 0 0019.11 19.17z"/><path class="cls-4" d="M376.27 109.26v19.11a19.17 19.17 0 0019.17-19.11z"/><path class="cls-6" d="M376.33 109.26h19.11a19.17 19.17 0 00-19.11-19.17z"/><path class="cls-7" d="M382.93 109.35a6.67 6.67 0 11-6.67-6.67 6.67 6.67 0 016.67 6.67"/><path class="cls-4" d="M51.34 169.47v-19.11a19.16 19.16 0 00-19.16 19.11z"/><path class="cls-5" d="M51.29 169.48H32.18a19.16 19.16 0 0019.11 19.16z"/><path class="cls-4" d="M51.19 169.52v19.12a19.18 19.18 0 0019.17-19.12z"/><path class="cls-6" d="M51.25 169.52h19.11a19.16 19.16 0 00-19.11-19.16z"/><path class="cls-7" d="M57.85 169.62a6.67 6.67 0 11-6.67-6.62 6.67 6.67 0 016.67 6.67"/><path class="cls-4" d="M106.24 169.47v-19.11a19.17 19.17 0 00-19.17 19.11z"/><path class="cls-5" d="M106.19 169.48H87.07a19.17 19.17 0 0019.12 19.16z"/><path class="cls-4" d="M106.09 169.52v19.12a19.18 19.18 0 0019.17-19.12z"/><path class="cls-6" d="M106.14 169.52h19.12a19.17 19.17 0 00-19.12-19.16z"/><path class="cls-7" d="M112.74 169.62a6.67 6.67 0 11-6.67-6.67 6.66 6.66 0 016.67 6.67"/><path class="cls-4" d="M321.53 169.47v-19.11a19.17 19.17 0 00-19.17 19.11z"/><path class="cls-5" d="M321.47 169.48h-19.11a19.16 19.16 0 0019.11 19.16z"/><path class="cls-4" d="M321.38 169.52v19.12a19.17 19.17 0 0019.16-19.12z"/><path class="cls-6" d="M321.43 169.52h19.11a19.16 19.16 0 00-19.11-19.16z"/><path class="cls-7" d="M328 169.62a6.67 6.67 0 11-6.67-6.67 6.67 6.67 0 016.67 6.67"/><path class="cls-4" d="M376.33 169.47v-19.11a19.17 19.17 0 00-19.17 19.11z"/><path class="cls-5" d="M376.27 169.48h-19.11a19.16 19.16 0 0019.11 19.16z"/><path class="cls-4" d="M376.18 169.52v19.12a19.17 19.17 0 0019.16-19.12z"/><path class="cls-6" d="M376.23 169.52h19.11a19.16 19.16 0 00-19.11-19.16z"/><path class="cls-7" d="M382.83 169.62a6.67 6.67 0 11-6.67-6.67 6.67 6.67 0 016.67 6.67"/><path class="cls-4" d="M158.25 230v-19.11A19.17 19.17 0 00139.08 230z"/><path class="cls-5" d="M158.2 230h-19.12a19.18 19.18 0 0019.12 19.17z"/><path class="cls-4" d="M158.1 230.05v19.11a19.17 19.17 0 0019.17-19.11z"/><path class="cls-6" d="M158.16 230.05h19.11a19.16 19.16 0 00-19.11-19.16z"/><path class="cls-7" d="M164.75 230.14a6.67 6.67 0 11-6.66-6.66 6.66 6.66 0 016.66 6.66"/><path class="cls-4" d="M158.28 290.44v-19.11a19.17 19.17 0 00-19.17 19.11z"/><path class="cls-5" d="M158.23 290.44h-19.12a19.18 19.18 0 0019.12 19.17z"/><path class="cls-4" d="M158.13 290.49v19.11a19.17 19.17 0 0019.17-19.11z"/><path class="cls-6" d="M158.18 290.49h19.12a19.17 19.17 0 00-19.12-19.17z"/><path class="cls-7" d="M164.78 290.58a6.67 6.67 0 11-6.66-6.67 6.67 6.67 0 016.66 6.67"/><path class="cls-4" d="M213.26 290.44v-19.11a19.16 19.16 0 00-19.16 19.11z"/><path class="cls-5" d="M213.21 290.44H194.1a19.17 19.17 0 0019.11 19.17z"/><path class="cls-4" d="M213.11 290.49v19.11a19.17 19.17 0 0019.17-19.11z"/><path class="cls-6" d="M213.17 290.49h19.11a19.17 19.17 0 00-19.11-19.17z"/><path class="cls-7" d="M219.76 290.58a6.67 6.67 0 11-6.66-6.67 6.67 6.67 0 016.66 6.67"/><path class="cls-4" d="M267.5 290.44v-19.11a19.17 19.17 0 00-19.17 19.11z"/><path class="cls-5" d="M267.45 290.44h-19.12a19.18 19.18 0 0019.12 19.17z"/><path class="cls-4" d="M267.35 290.49v19.11a19.17 19.17 0 0019.17-19.11z"/><path class="cls-6" d="M267.4 290.49h19.12a19.17 19.17 0 00-19.12-19.17z"/><path class="cls-7" d="M274 290.58a6.67 6.67 0 11-6.66-6.67 6.67 6.67 0 016.66 6.67"/><path class="cls-4" d="M48.56 290.13V271a19.17 19.17 0 00-19.17 19.11z"/><path class="cls-5" d="M48.51 290.13H29.39a19.17 19.17 0 0019.12 19.17z"/><path class="cls-4" d="M48.41 290.18v19.11a19.17 19.17 0 0019.17-19.11z"/><path class="cls-6" d="M48.46 290.18h19.12A19.18 19.18 0 0048.46 271z"/><path class="cls-7" d="M55.06 290.27a6.67 6.67 0 11-6.67-6.66 6.67 6.67 0 016.67 6.66"/><path class="cls-4" d="M103.46 290.13V271a19.17 19.17 0 00-19.17 19.11z"/><path class="cls-5" d="M103.41 290.13H84.29a19.18 19.18 0 0019.12 19.17z"/><path class="cls-4" d="M103.31 290.18v19.11a19.17 19.17 0 0019.17-19.11z"/><path class="cls-6" d="M103.37 290.18h19.11A19.17 19.17 0 00103.37 271z"/><path class="cls-7" d="M110 290.27a6.67 6.67 0 11-6.66-6.66 6.66 6.66 0 016.66 6.66"/><path class="cls-4" d="M158.29 350.69v-19.12a19.18 19.18 0 00-19.17 19.12z"/><path class="cls-5" d="M158.23 350.69h-19.11a19.17 19.17 0 0019.11 19.17z"/><path class="cls-4" d="M158.14 350.74v19.11a19.16 19.16 0 0019.16-19.11z"/><path class="cls-6" d="M158.19 350.74h19.11a19.17 19.17 0 00-19.11-19.17z"/><path class="cls-7" d="M164.79 350.83a6.67 6.67 0 11-6.67-6.67 6.67 6.67 0 016.67 6.67"/><path class="cls-4" d="M213.14 350.69v-19.12A19.17 19.17 0 00194 350.69z"/><path class="cls-5" d="M213.09 350.69H194a19.17 19.17 0 0019.11 19.17z"/><path class="cls-4" d="M213 350.74v19.11a19.17 19.17 0 0019.17-19.11z"/><path class="cls-6" d="M213.05 350.74h19.11a19.17 19.17 0 00-19.11-19.17z"/><path class="cls-7" d="M219.64 350.83a6.67 6.67 0 11-6.66-6.67 6.67 6.67 0 016.66 6.67"/><path class="cls-4" d="M321.33 351.13V332a19.17 19.17 0 00-19.17 19.11z"/><path class="cls-5" d="M321.27 351.13h-19.11a19.17 19.17 0 0019.11 19.17z"/><path class="cls-4" d="M321.18 351.18v19.11a19.16 19.16 0 0019.16-19.11z"/><path class="cls-6" d="M321.23 351.18h19.11A19.17 19.17 0 00321.23 332z"/><path class="cls-7" d="M327.83 351.27a6.67 6.67 0 11-6.67-6.67 6.67 6.67 0 016.67 6.67"/><path class="cls-4" d="M376.31 351.13V332a19.16 19.16 0 00-19.16 19.11z"/><path class="cls-5" d="M376.26 351.13h-19.11a19.17 19.17 0 0019.11 19.17z"/><path class="cls-4" d="M376.16 351.18v19.11a19.17 19.17 0 0019.17-19.11z"/><path class="cls-6" d="M376.22 351.18h19.11A19.17 19.17 0 00376.22 332z"/><path class="cls-7" d="M382.82 351.27a6.67 6.67 0 11-6.67-6.67 6.67 6.67 0 016.67 6.67"/><path class="cls-2" d="M51.07 137.19h55.17"/></g><text class="cls-8" transform="translate(68.92 67.11)">Rusty N</text><text class="cls-8" transform="translate(59.02 72.94)">F</text><text class="cls-8" transform="translate(61.78 72.94)">ort</text><text class="cls-8" transform="translate(70.88 72.94)">W</text><text class="cls-8" transform="translate(75.97 72.94)">orth 6-13</text><text class="cls-8" transform="translate(151.5 19.36)">Jim T</text><text class="cls-8" transform="translate(138.44 25.19)">F</text><text class="cls-8" transform="translate(141.2 25.19)">ort</text><text class="cls-8" transform="translate(150.3 25.19)">W</text><text class="cls-8" transform="translate(155.38 25.19)">orth 3-13</text><g class="cls-9"><path class="cls-4" d="M45.19 125.33a1.83 1.83 0 01-1.89 1.91h-1.24v-3.83h1.24a1.83 1.83 0 011.89 1.92m-.66 0a1.23 1.23 0 00-1.22-1.3h-.59v2.59h.59a1.22 1.22 0 001.22-1.29m3.67-.68v2.59h-.61v-.34a.91.91 0 01-.79.41 1.37 1.37 0 010-2.73.93.93 0 01.79.41v-.34zm-.66.91a.73.73 0 00-.62-.36.75.75 0 000 1.5.73.73 0 00.62-.36zm1.73-.91l.65 1.41.66-1.41h.71l-1.38 2.73-1.37-2.73zm2.79-1.27a.43.43 0 11-.43.43.43.43 0 01.43-.43m-.32 1.27h.65v2.59h-.65zm3.9 2.59H55v-.34a.89.89 0 01-.78.41 1.37 1.37 0 010-2.73.92.92 0 01.73.34v-1.82h.66zm-.64-1.68a.73.73 0 00-.62-.36.75.75 0 000 1.5.73.73 0 00.62-.36zm3.79-1.56h-1v-.62h2.77v.62h-1.11v3.21h-.66zm-28.92 7.47c-.57-.2-1.2-.51-1.2-1.22a1.16 1.16 0 011.25-1.08 1.65 1.65 0 011.25.61l-.45.45a1.11 1.11 0 00-.8-.44.53.53 0 00-.58.46c0 .34.3.44.82.64s1.08.48 1.08 1.18-.62 1.06-1.34 1.06a1.67 1.67 0 01-1.4-.78l.49-.42a1.17 1.17 0 00.91.58c.33 0 .67-.13.67-.44s-.25-.44-.7-.6m1.76-1h.51v-.77h.66v.77h.78v.59h-.78v1.05c0 .32.16.41.34.41a.5.5 0 00.27-.09l.24.53a1.15 1.15 0 01-.62.17.86.86 0 01-.89-.92v-1.15h-.51zm5 0v2.6H36v-.34a.89.89 0 01-.78.4 1.36 1.36 0 010-2.72.93.93 0 01.78.4v-.34zm-.66.91a.72.72 0 00-.61-.36.75.75 0 000 1.5.72.72 0 00.61-.36zm1.12-.91h.5v-.77h.66v.77H39v.59h-.79v1.05c0 .32.17.41.34.41a.56.56 0 00.28-.09l.24.53a1.21 1.21 0 01-.63.17.87.87 0 01-.89-.92v-1.15h-.5zm4.91 1.29v.24h-2a.74.74 0 00.73.52 1.06 1.06 0 00.71-.26l.33.49a1.67 1.67 0 01-1 .37 1.36 1.36 0 01-1.4-1.36 1.31 1.31 0 112.61 0m-.65-.23a.61.61 0 00-.66-.53.59.59 0 00-.63.53zm2.83-2.3h1.3a1.23 1.23 0 110 2.46h-.65v1.38h-.65zm1.9 1.23c0-.36-.23-.6-.68-.6h-.57v1.2h.57c.45 0 .68-.24.68-.6m2.9 0l-.23.59a.75.75 0 00-.31-.06.68.68 0 00-.58.35v1.7h-.66v-2.6h.63v.38a.84.84 0 01.71-.44 1.4 1.4 0 01.44.08m.78-1.29a.43.43 0 01.43.43.43.43 0 11-.86 0 .43.43 0 01.43-.43m-.33 1.27h.66v2.6h-.66zm1.59 1.75a1.24 1.24 0 00.79.37c.27 0 .49-.08.49-.24s-.12-.2-.51-.28-1-.33-1-.82.41-.81 1.12-.81a1.64 1.64 0 011 .31l-.32.49A1.21 1.21 0 0052 131c-.25 0-.47.09-.47.25s.17.19.61.29.88.28.88.81-.47.8-1.13.8a1.62 1.62 0 01-1.17-.47zm5-.42a1.39 1.39 0 01-2.77 0 1.39 1.39 0 012.77 0m-.67 0a.72.72 0 10-.72.75.71.71 0 00.72-.75m3.5-.38v1.68h-.66v-1.52a.48.48 0 00-.52-.53.63.63 0 00-.51.33v1.72h-.66v-2.6h.62v.38a.89.89 0 01.77-.44.93.93 0 011 1m3.2-2.16h.54v3.84H62v-3l-.67.54-.38-.49zm4.28 1.92c0 1-.46 2-1.44 2s-1.44-.94-1.44-2 .47-2 1.44-2 1.44.94 1.44 2m-.66 0c0-.75-.25-1.37-.78-1.37s-.79.62-.79 1.37.26 1.37.79 1.37.78-.62.78-1.37m1.06.25h1.46v.58h-1.42zm2.9-2.17h.54v3.84h-.65v-3l-.68.54-.38-.49zm2.72.55a.7.7 0 00-.65.47l-.57-.27a1.3 1.3 0 011.22-.81 1.14 1.14 0 011.24 1.15 1 1 0 01-.47.8.85.85 0 01.56.88 1.18 1.18 0 01-1.32 1.13 1.37 1.37 0 01-1.35-.88l.54-.32a.85.85 0 00.81.59c.41 0 .66-.22.66-.52s-.35-.54-.69-.54h-.27v-.6h.2c.4 0 .67-.15.67-.54a.54.54 0 00-.58-.54m26.79-3.29v-.81h-.87v-.61h1.52v1.74a2.11 2.11 0 01-1.42.48 2 2 0 01-2-2 2 2 0 012-2 1.9 1.9 0 011.42.58l-.45.44a1.27 1.27 0 00-1-.4 1.33 1.33 0 00-1.36 1.4 1.35 1.35 0 001.35 1.37 1.23 1.23 0 00.77-.19m3-1.85l-.23.6a.77.77 0 00-.32-.06.68.68 0 00-.58.35v1.69h-.65v-2.59h.62v.35a.84.84 0 01.71-.45 1.5 1.5 0 01.45.08m2.73 0v2.59h-.61v-.34a.89.89 0 01-.78.41 1.37 1.37 0 010-2.73.92.92 0 01.78.41v-.34zm-.66.91a.72.72 0 00-.61-.36.75.75 0 000 1.5.72.72 0 00.61-.37zm3.67 0v1.68h-.66v-1.51a.48.48 0 00-.52-.53.65.65 0 00-.51.33v1.71h-.66v-2.59h.62v.37a.89.89 0 01.77-.45.93.93 0 011 1m.45-.91h.51v-.78h.66v.78h.78v.59h-.78v1.05c0 .31.16.41.34.41a.51.51 0 00.27-.1l.24.54a1.19 1.19 0 01-.62.17.87.87 0 01-.89-.92v-1.15h-.51zm4.77-1.24l1.92 2.64v-2.64h.66v3.83h-.6l-1.91-2.63v2.63h-.66v-3.83z"/></g><text class="cls-8" transform="translate(90.31 133.07)">WS H.S. 1-14</text><text class="cls-8" transform="translate(255.17 67.13)">Je</text><text class="cls-8" transform="translate(260.95 67.13)">r</text><text class="cls-8" transform="translate(262.98 67.13)">emy T</text><text class="cls-8" transform="translate(248.27 72.95)">Arllington 7-13</text><text class="cls-8" transform="translate(312.87 67.13)">Jerry E</text><text class="cls-8" transform="translate(305.87 72.95)">Pheonix 9-13</text><text class="cls-8" transform="translate(367.71 67.13)">Mi</text><text class="cls-8" transform="translate(373.77 67.13)">k</text><text class="cls-8" transform="translate(376.6 67.13)">e L</text><text class="cls-8" transform="translate(356 72.95)">F</text><text class="cls-8" transform="translate(358.75 72.95)">ort</text><text class="cls-8" transform="translate(367.85 72.95)">W</text><text class="cls-8" transform="translate(372.94 72.95)">orth 9-13</text><g class="cls-9"><path class="cls-4" d="M42.78 245.05l-2 3.21h1.89v.62h-3l2-3.21h-1.82v-.62zm2.89 1.23v2.6h-.61v-.34a.89.89 0 01-.78.41 1.37 1.37 0 010-2.73.93.93 0 01.78.4v-.34zm-.66.91a.72.72 0 00-.61-.36.75.75 0 000 1.5.72.72 0 00.6-.33zm3.18.82l.43.44a1.4 1.4 0 01-2.47-.87 1.4 1.4 0 012.46-.88l-.45.41a.79.79 0 00-.61-.28.75.75 0 000 1.5.77.77 0 00.64-.32m1.6-.7l.93-1h.85l-1.14 1.23 1.22 1.37h-.87l-1-1.13v1.13h-.66v-4.14h.66zm7-.35a1.84 1.84 0 01-1.89 1.92h-1.22v-3.83h1.24a1.83 1.83 0 011.89 1.95m-.67 0a1.21 1.21 0 00-1.21-1.29h-.59v2.59h.59a1.22 1.22 0 001.21-1.3m-27.32 3.87h1.26a1.17 1.17 0 011.27 1.19 1.12 1.12 0 01-.86 1.16l1 1.49h-.76l-.91-1.45h-.3v1.45h-.66zm1.86 1.19c0-.37-.26-.56-.68-.56h-.52v1.13H30c.42 0 .68-.19.68-.57m1.69-1.22a.43.43 0 11-.43.43.43.43 0 01.43-.43m-.37 1.27h.66v2.59H32zm3.29 1.73l.43.44a1.41 1.41 0 01-1.08.49 1.37 1.37 0 110-2.73 1.41 1.41 0 011.07.48l-.46.41a.8.8 0 00-.61-.27.75.75 0 000 1.5.78.78 0 00.65-.32m3.28-.82v1.69H38v-1.52a.48.48 0 00-.51-.53.65.65 0 00-.52.34v1.71h-.66v-4.15h.66v1.86a.88.88 0 01.74-.38.93.93 0 011 1m3.14-.91v2.6h-.61v-.34a.89.89 0 01-.78.4 1.37 1.37 0 010-2.73.92.92 0 01.78.41v-.34zm-.65.91a.75.75 0 00-.62-.36.75.75 0 000 1.5.75.75 0 00.62-.36zm3.09-.89l-.23.59a.75.75 0 00-.31-.06.68.68 0 00-.58.35v1.7h-.66v-2.6H43v.38a.83.83 0 01.7-.45 1.28 1.28 0 01.45.09m2.74 2.58h-.61v-.34a.89.89 0 01-.78.4 1.37 1.37 0 010-2.73.92.92 0 01.73.34v-1.82h.66zm-.62-1.73a.73.73 0 00-.62-.36.75.75 0 000 1.5.73.73 0 00.62-.36zm1.6.8a1.23 1.23 0 00.78.38c.27 0 .5-.08.5-.24s-.12-.2-.52-.28-1-.33-1-.83.4-.81 1.11-.81a1.66 1.66 0 011 .32l-.33.48a1.2 1.2 0 00-.65-.22c-.24 0-.47.09-.47.24s.18.2.62.29.88.28.88.82-.47.8-1.14.8a1.62 1.62 0 01-1.17-.47zm5-.41a1.39 1.39 0 11-1.34-1.39 1.36 1.36 0 011.38 1.37m-.67 0a.72.72 0 10-1.43 0 .72.72 0 101.43 0m3.5-.39v1.69h-.66v-1.52a.48.48 0 00-.51-.53.63.63 0 00-.51.33v1.72h-.66v-2.6h.6v.38a.9.9 0 01.78-.45.93.93 0 011 1m3.57.37h-.13a1.3 1.3 0 111.38-1.31 1.73 1.73 0 01-.22.8c-.06.11-1.19 2-1.19 2l-.54-.34zm.59-1.29a.68.68 0 10-.68.69.66.66 0 00.68-.69M61 253h1.46v.63H61zm2.9-2.17h.54v3.84h-.65v-3l-.68.53-.38-.48zm2.72.55a.69.69 0 00-.65.46l-.57-.26a1.3 1.3 0 011.22-.81 1.14 1.14 0 011.2 1.23 1 1 0 01-.47.8.84.84 0 01.56.88 1.19 1.19 0 01-1.32 1.13 1.38 1.38 0 01-1.35-.89l.54-.31a.85.85 0 00.81.59c.41 0 .66-.23.66-.52s-.35-.55-.69-.55h-.28v-.6h.21c.4 0 .67-.15.67-.53a.54.54 0 00-.58-.54"/></g><text class="cls-8" transform="translate(94.21 248.88)">K</text><text class="cls-8" transform="translate(97.44 248.88)">e</text><text class="cls-8" transform="translate(100.27 248.88)">vin R</text><g class="cls-9"><path class="cls-4" d="M91 250.87h1.31a1.23 1.23 0 110 2.45h-.65v1.38H91zm1.91 1.23c0-.36-.24-.61-.69-.61h-.56v1.21h.56c.45 0 .69-.24.69-.6m1.55-1.26a.43.43 0 110 .86.43.43 0 110-.86m-.33 1.27h.66v2.59h-.66zm3.91 0v2.59h-.61v-.34a.91.91 0 01-.79.41 1.37 1.37 0 010-2.73.93.93 0 01.79.41v-.34zm-.66.91a.73.73 0 00-.62-.36.75.75 0 000 1.5.73.73 0 00.62-.36zm3.66 0v1.68h-.66v-1.51a.47.47 0 00-.51-.53.65.65 0 00-.52.33v1.71h-.65v-2.59h.61v.38a.9.9 0 01.78-.45.93.93 0 011 1m3.26.39a1.39 1.39 0 11-1.39-1.37 1.36 1.36 0 011.39 1.37m-.67 0a.72.72 0 10-.72.75.71.71 0 00.72-.75m3.69-2.54h.54v3.83h-.65v-2.95l-.68.53-.37-.48zm1.36 2.17h1.47v.62h-1.47zm2.9-2.17h.55v3.83h-.66v-2.95l-.67.53-.38-.48zm3.11 0h.74v2.39h.42v.61h-.42v.83h-.66v-.83h-2zm.09 2.39v-1.49l-1 1.49zm93.51-6.28a1.84 1.84 0 01-1.9 1.92h-1.24v-3.83h1.24a1.84 1.84 0 011.9 1.91m-.67 0a1.22 1.22 0 00-1.22-1.29h-.59v2.59h.59a1.23 1.23 0 001.22-1.3m3.67-.68v2.6h-.61v-.34a.9.9 0 01-.78.41 1.37 1.37 0 010-2.73.93.93 0 01.78.4v-.34zm-.66.91a.72.72 0 00-.61-.36.75.75 0 000 1.5.72.72 0 00.61-.36zm1.73-.91l.66 1.42.65-1.42h.71l-1.37 2.68-1.38-2.73zm4.7 1.29v.25h-1.94a.74.74 0 00.73.52 1.06 1.06 0 00.71-.26l.33.49a1.64 1.64 0 01-1 .38 1.37 1.37 0 01-1.4-1.37 1.31 1.31 0 112.61 0m-.65-.23a.61.61 0 00-.66-.52.59.59 0 00-.63.52zm2.83-2.29h.65v3.21h1.64v.62h-2.29zm-24.07 8.01c-.56-.2-1.19-.51-1.19-1.22a1.16 1.16 0 011.25-1.08 1.66 1.66 0 011.25.6l-.46.45a1.08 1.08 0 00-.79-.43.53.53 0 00-.59.46c0 .33.31.44.83.63s1.07.49 1.07 1.18-.61 1.07-1.33 1.07a1.67 1.67 0 01-1.4-.78l.49-.42a1.17 1.17 0 00.91.58c.33 0 .67-.13.67-.45s-.25-.44-.71-.59m2.41-2.27a.43.43 0 11-.43.43.43.43 0 01.43-.43m-.33 1.27h.66v2.59h-.66zm3.76.91v1.69h-.65v-1.52a.48.48 0 00-.52-.53.63.63 0 00-.51.33v1.72h-.66v-2.6h.61v.38a.9.9 0 01.78-.45.93.93 0 01.95 1m1.75 1.75a1.37 1.37 0 010-2.73.93.93 0 01.79.41v-.34h.61v2.62a1.27 1.27 0 01-1.4 1.3 1.85 1.85 0 01-1.23-.49l.38-.56a1.3 1.3 0 00.86.39c.51 0 .74-.28.74-.67v-.31a.93.93 0 01-.74.33m.74-1.75a.73.73 0 00-.62-.36.75.75 0 000 1.5.73.73 0 00.62-.36zm3.8-.91v2.6h-.61v-.34a.89.89 0 01-.78.4 1.37 1.37 0 010-2.73.92.92 0 01.78.41v-.34zm-.66.91a.72.72 0 00-.61-.36.75.75 0 000 1.5.72.72 0 00.61-.36zm1.93-.91v.34a.92.92 0 01.78-.41 1.37 1.37 0 010 2.73.9.9 0 01-.73-.33V256h-.66v-3.86zm.05 1.69a.71.71 0 00.62.36.75.75 0 000-1.5.71.71 0 00-.62.36zm5.08-.39a1.39 1.39 0 11-1.4-1.38 1.36 1.36 0 011.39 1.37m-.67 0a.72.72 0 10-.72.75.71.71 0 00.72-.75m2.93-1.28l-.23.59a.7.7 0 00-.31-.06.68.68 0 00-.58.35v1.7h-.66v-2.6h.63v.38a.84.84 0 01.71-.45 1.26 1.26 0 01.44.09m2.7 1.27a2.37 2.37 0 010 .24h-1.95a.75.75 0 00.73.53 1 1 0 00.71-.26l.33.49a1.67 1.67 0 01-1 .37 1.36 1.36 0 01-1.4-1.36 1.31 1.31 0 112.62 0m-.66-.23a.66.66 0 00-1.29 0zm3.68-2.3h.54v3.84h-.66v-3l-.67.53-.38-.48zm2.44 0h.54v3.84h-.66v-3l-.67.53-.38-.48zm1.36 2.17H227v.63h-1.46zm2.9-2.17h.49v3.84h-.66v-3l-.67.53-.38-.48zm2.72.55a.69.69 0 00-.65.46l-.58-.26a1.32 1.32 0 011.23-.81 1.14 1.14 0 011.23 1.15 1 1 0 01-.47.8.84.84 0 01.57.88 1.19 1.19 0 01-1.33 1.13 1.36 1.36 0 01-1.34-.89l.54-.31a.84.84 0 00.8.59c.42 0 .67-.23.67-.52s-.35-.55-.7-.55h-.27v-.6h.21c.4 0 .66-.15.66-.53a.53.53 0 00-.57-.54m28.06-6.34h.71v2.63a1.19 1.19 0 01-1.31 1.27 1.33 1.33 0 01-1.12-.64l.48-.41a.85.85 0 00.64.42.58.58 0 00.65-.62zm3.88 1.23v2.6h-.61v-.34a.89.89 0 01-.78.41 1.37 1.37 0 010-2.73.93.93 0 01.78.4v-.34zm-.66.91a.72.72 0 00-.61-.36.75.75 0 000 1.5.72.72 0 00.61-.36zm3.18.82l.44.44a1.42 1.42 0 01-1.08.5 1.37 1.37 0 111.06-2.25l-.45.41a.79.79 0 00-.61-.28.75.75 0 000 1.5.75.75 0 00.64-.32m3.46-.43a1.39 1.39 0 11-1.38-1.36 1.37 1.37 0 011.38 1.36m-.67 0a.72.72 0 10-.71.75.71.71 0 00.71-.75m1.23-2.84h.66v1.82a.93.93 0 01.74-.34 1.37 1.37 0 010 2.73.91.91 0 01-.79-.41v.34h-.61zm.66 3.23a.73.73 0 00.62.36.75.75 0 000-1.5.73.73 0 00-.62.36zm5.78.91h-.66v-1.51l-1.31-2.32h.73l.93 1.71.94-1.71h.68l-1.31 2.32zm-22.08 1.99l1.91 2.64v-2.64h.66v3.83h-.59l-1.92-2.63v2.63h-.65v-3.83zm5.79 1.24v2.59h-.61v-.34a.89.89 0 01-.78.41 1.37 1.37 0 010-2.73.92.92 0 01.78.41v-.34zm-.65.91a.75.75 0 00-.62-.36.75.75 0 000 1.5.75.75 0 00.62-.36zm1.92-.91v.34a1 1 0 01.79-.41 1.37 1.37 0 010 2.73.93.93 0 01-.74-.33V256h-.66v-3.85zm.05 1.69a.73.73 0 00.62.36.75.75 0 000-1.5.73.73 0 00-.62.36zm2.56-3.24h.66v4.14h-.66zm3.83 2.84v.24h-1.94a.75.75 0 00.73.53 1 1 0 00.71-.27l.33.5a1.67 1.67 0 01-1 .37 1.36 1.36 0 01-1.4-1.36 1.31 1.31 0 112.61 0m-.65-.23a.61.61 0 00-.66-.53.59.59 0 00-.63.53zm1.34.65a1.23 1.23 0 00.79.38c.26 0 .49-.08.49-.24s-.12-.2-.52-.29-1-.32-1-.82.4-.81 1.12-.81a1.65 1.65 0 011 .32l-.33.48a1.19 1.19 0 00-.64-.22c-.25 0-.47.08-.47.24s.17.2.61.29.88.28.88.82-.47.8-1.13.8a1.65 1.65 0 01-1.18-.47zm5-2.95h.54v3.83h-.66v-2.95l-.67.53-.38-.48zm1.36 2.17h1.46v.62h-1.46zm2.9-2.17h.54v3.83h-.66v-2.95l-.67.53-.38-.48zm3.11 0h.73v2.39h.42v.61h-.42v.83h-.66v-.83h-2zm.08 2.39v-1.49l-1 1.49z"/></g><text class="cls-10" transform="translate(147.21 42.33)">0</text><text class="cls-10" transform="translate(166.6 42.33)">5</text><text class="cls-10" transform="translate(147.19 58.6)">Y</text><text class="cls-10" transform="translate(166.64 58.6)">3</text><text class="cls-8" transform="translate(156.49 51.51)">5</text><text class="cls-10" transform="translate(67.56 102.29)">0</text><text class="cls-10" transform="translate(87.12 102.29)">7</text><text class="cls-10" transform="translate(67.54 118.56)">Y</text><text class="cls-10" transform="translate(86.94 118.56)">4</text><text class="cls-8" transform="translate(76.93 111.48)">2</text><text class="cls-10" transform="translate(40.07 162.34)">8</text><text class="cls-10" transform="translate(59.33 162.34)">0</text><text class="cls-10" transform="translate(39.66 178.61)">N</text><text class="cls-10" transform="translate(59.46 178.61)">2</text><text class="cls-8" transform="translate(49.21 171.52)">0</text><text class="cls-10" transform="translate(95.05 162.17)">0</text><text class="cls-10" transform="translate(114.47 162.17)">8</text><text class="cls-10" transform="translate(95.02 178.45)">Y</text><text class="cls-10" transform="translate(114.42 178.45)">4</text><text class="cls-8" transform="translate(104.33 171.36)">5</text><text class="cls-10" transform="translate(255.68 102.17)">0</text><text class="cls-10" transform="translate(275.13 102.17)">6</text><text class="cls-10" transform="translate(255.35 118.44)">N</text><text class="cls-10" transform="translate(275.01 118.44)">0</text><text class="cls-8" transform="translate(264.91 111.36)">0</text><text class="cls-10" transform="translate(310.6 102.52)">4</text><text class="cls-10" transform="translate(330.34 102.52)">1</text><text class="cls-10" transform="translate(310.23 118.79)">N</text><text class="cls-10" transform="translate(330.34 118.79)">1</text><text class="cls-8" transform="translate(320.24 111.71)">1</text><text class="cls-10" transform="translate(365.43 102.3)">2</text><text class="cls-10" transform="translate(384.77 102.3)">2</text><text class="cls-10" transform="translate(365.27 118.57)">Y</text><text class="cls-10" transform="translate(384.67 118.57)">4</text><text class="cls-8" transform="translate(374.97 111.49)">1</text><text class="cls-10" transform="translate(310.2 162.76)">5</text><text class="cls-10" transform="translate(329.47 162.76)">0</text><text class="cls-10" transform="translate(309.81 179.03)">N</text><text class="cls-10" transform="translate(329.47 179.03)">0</text><text class="cls-8" transform="translate(319.81 171.95)">1</text><text class="cls-10" transform="translate(365.17 162.44)">4</text><text class="cls-10" transform="translate(384.61 162.44)">2</text><text class="cls-10" transform="translate(364.8 178.71)">N</text><text class="cls-10" transform="translate(384.61 178.71)">2</text><text class="cls-8" transform="translate(374.81 171.63)">1</text><text class="cls-10" transform="translate(146.98 222.63)">0</text><text class="cls-10" transform="translate(166.43 222.63)">9</text><text class="cls-10" transform="translate(146.96 238.9)">Y</text><text class="cls-10" transform="translate(166.4 238.9)">8</text><text class="cls-8" transform="translate(156.27 231.81)">5</text><text class="cls-10" transform="translate(309.21 343.42)">12</text><text class="cls-10" transform="translate(329.62 343.42)">0</text><text class="cls-10" transform="translate(309.95 359.69)">N</text><text class="cls-10" transform="translate(329.62 359.69)">0</text><text class="cls-8" transform="translate(319.51 352.6)">0</text><text class="cls-10" transform="translate(365.32 343.84)">0</text><text class="cls-10" transform="translate(384.74 343.84)">8</text><text class="cls-10" transform="translate(365.3 360.11)">Y</text><text class="cls-10" transform="translate(384.74 360.11)">8</text><text class="cls-8" transform="translate(374.55 353.03)">0</text><text class="cls-10" transform="translate(202.24 343.51)">3</text><text class="cls-10" transform="translate(221.48 343.51)">0</text><text class="cls-10" transform="translate(201.81 359.78)">N</text><text class="cls-10" transform="translate(221.48 359.78)">0</text><text class="cls-8" transform="translate(211.37 352.7)">0</text><text class="cls-10" transform="translate(147.38 343.31)">2</text><text class="cls-10" transform="translate(166.62 343.31)">4</text><text class="cls-10" transform="translate(146.92 359.58)">N</text><text class="cls-10" transform="translate(166.62 359.58)">4</text><text class="cls-8" transform="translate(156.48 352.5)">0</text><text class="cls-10" transform="translate(37.58 282.85)">6</text><text class="cls-10" transform="translate(56.8 282.85)">0</text><text class="cls-10" transform="translate(37.13 299.12)">N</text><text class="cls-10" transform="translate(56.8 299.12)">0</text><text class="cls-8" transform="translate(46.69 292.04)">0</text><text class="cls-10" transform="translate(92.51 282.58)">2</text><text class="cls-10" transform="translate(111.85 282.58)">2</text><text class="cls-10" transform="translate(92.05 298.85)">N</text><text class="cls-10" transform="translate(111.85 298.85)">2</text><text class="cls-8" transform="translate(101.61 291.76)">0</text><text class="cls-10" transform="translate(147.27 283.16)">4</text><text class="cls-10" transform="translate(167.02 283.16)">1</text><text class="cls-10" transform="translate(146.91 299.43)">N</text><text class="cls-10" transform="translate(166.71 299.43)">2</text><text class="cls-8" transform="translate(156.9 292.34)">1</text><text class="cls-10" transform="translate(202.33 283.38)">2</text><text class="cls-10" transform="translate(221.64 283.38)">6</text><text class="cls-10" transform="translate(202.17 299.65)">Y</text><text class="cls-10" transform="translate(221.56 299.65)">4</text><text class="cls-8" transform="translate(211.86 292.57)">1</text><text class="cls-10" transform="translate(256.59 283.38)">4</text><text class="cls-10" transform="translate(275.89 283.38)">0</text><text class="cls-10" transform="translate(256.22 299.65)">N</text><text class="cls-10" transform="translate(275.89 299.65)">0</text><text class="cls-8" transform="translate(265.78 292.56)">0</text><g class="cls-9"><path class="cls-7" d="M138.21 195.62h39.97v12.92h-39.97z"/></g><text class="cls-8" transform="translate(147.9 201.15)">Justin D</text><text class="cls-8" transform="translate(144.04 206.97)">Online 5-13</text><g class="cls-9"><path class="cls-7" d="M357.03 134.77H397v12.92h-39.97z"/><path class="cls-4" d="M369.09 136l1.25 1.93 1.25-1.93h.6v3.83h-.65v-2.57l-1.2 1.82-1.2-1.82v2.57h-.66V136zm6.32 1.23v2.6h-.6v-.34a.91.91 0 01-.79.41 1.37 1.37 0 010-2.73 1 1 0 01.79.4v-.34zm-.65.91a.75.75 0 00-.62-.36.75.75 0 000 1.5.75.75 0 00.62-.36zm1.11-.91h.51v-.77h.62v.77h.79v.6H377v1c0 .32.17.41.34.41a.56.56 0 00.28-.09l.24.54a1.21 1.21 0 01-.63.17.87.87 0 01-.88-.92v-1.15h-.51zm2.28 0h.51v-.77h.65v.77h.79v.6h-.79v1c0 .32.17.41.34.41a.56.56 0 00.28-.09l.24.54a1.19 1.19 0 01-.62.17.87.87 0 01-.89-.92v-1.15h-.51zm4.18-1.23h1.24c.63 0 1.22.29 1.22 1.09a.78.78 0 01-.4.71.89.89 0 01.6.9 1.18 1.18 0 01-1.28 1.13h-1.38zm1.22 1.56c.37 0 .57-.13.57-.47s-.25-.47-.57-.47H383v.94zm.77 1.14c0-.36-.27-.51-.63-.51H383v1h.71c.36 0 .63-.15.63-.51"/></g><text class="cls-8" transform="translate(356.78 145.68)">F</text><text class="cls-8" transform="translate(359.54 145.68)">ort</text><text class="cls-8" transform="translate(368.63 145.68)">W</text><text class="cls-8" transform="translate(373.72 145.68)">orth 2-14</text><g class="cls-9"><path class="cls-7" d="M303.69 134.55h39.97v12.92h-39.97z"/></g><text class="cls-8" transform="translate(312.48 139.85)">Chris K</text><g class="cls-9"><path class="cls-4" d="M305.58 143.4h1.51v.6h-1.51v1.65h-.65v-3.84h2.27v.63h-1.62zm2.24-1.87h.65v4.15h-.65zm3.87 1.55v2.6h-.61v-.34a.89.89 0 01-.78.4 1.37 1.37 0 010-2.73.92.92 0 01.78.41v-.34zm-.69.92a.72.72 0 00-.61-.36.75.75 0 000 1.5.72.72 0 00.61-.36zm2.41 1.75a1.37 1.37 0 010-2.73.92.92 0 01.78.41v-.34h.61v2.62a1.27 1.27 0 01-1.39 1.3 1.89 1.89 0 01-1.24-.49l.38-.51a1.3 1.3 0 00.86.39c.51 0 .74-.28.74-.67v-.31a1 1 0 01-.74.33m.74-1.75a.73.73 0 00-.62-.36.75.75 0 000 1.5.75.75 0 00.62-.36zm1.52.8a1.2 1.2 0 00.78.38c.27 0 .49-.08.49-.24s-.12-.2-.51-.28-1-.33-1-.83.41-.81 1.12-.81a1.66 1.66 0 011 .32l-.33.48a1.24 1.24 0 00-.65-.22c-.25 0-.47.09-.47.24s.18.2.61.3.89.27.89.81-.48.8-1.14.8a1.62 1.62 0 01-1.17-.47zm2.23-1.71h.51v-.77h.66v.77h.78v.59h-.78v1.05c0 .31.17.41.34.41a.47.47 0 00.27-.1l.25.54a1.21 1.21 0 01-.63.17.87.87 0 01-.89-.92v-1.15h-.51zm5 0v2.6h-.61v-.34a.92.92 0 01-.79.4 1.37 1.37 0 010-2.73.93.93 0 01.79.41v-.34zm-.66.91a.73.73 0 00-.62-.36.75.75 0 000 1.5.73.73 0 00.62-.36zm2.25-.91h1.05v-.61a.91.91 0 01.94-1 1.29 1.29 0 01.61.15l-.25.56a.46.46 0 00-.29-.1c-.18 0-.35.13-.35.46v.54h.65v.58h-.65v2h-.66v-2h-1.04v2h-.66v-2h-.51v-.58h.51v-.61a.91.91 0 01.94-1 1.29 1.29 0 01.61.15l-.25.56a.46.46 0 00-.29-.1c-.18 0-.35.13-.35.46zm5.39-1.24h.55v3.84h-.66v-3l-.67.53-.38-.48zm1.37 2.17h1.46v.62h-1.46zm2.9-2.17h.54v3.84H334v-3l-.67.53-.38-.48zm3.1 0h.75v2.39h.42v.61H338v.84h-.66v-.84h-2zm.09 2.39v-1.48l-1 1.48z"/><path class="cls-7" d="M306.43 316.41h39.97v12.92h-39.97z"/></g><text class="cls-8" transform="translate(310.95 321.47)">Arnold S</text><g class="cls-9"><path class="cls-4" d="M305.34 325.87h1.5v.62h-1.5v1.65h-.66v-3.84H307v.63h-1.61zm2.23-1.87h.66v4.14h-.66zm3.87 1.54v2.6h-.6v-.34a.92.92 0 01-.79.4 1.36 1.36 0 010-2.72.94.94 0 01.79.4v-.34zm-.65.91a.73.73 0 00-.62-.36.75.75 0 000 1.5.73.73 0 00.62-.36zm2.41 1.75a1.36 1.36 0 010-2.72.93.93 0 01.78.4v-.34h.61v2.62a1.27 1.27 0 01-1.4 1.3A1.88 1.88 0 01312 329l.37-.5a1.31 1.31 0 00.86.38c.51 0 .74-.28.74-.67v-.31a.92.92 0 01-.73.33m.73-1.75a.73.73 0 00-.62-.36.75.75 0 000 1.5.73.73 0 00.62-.36zm1.52.81a1.24 1.24 0 00.78.37c.27 0 .5-.08.5-.24s-.12-.2-.52-.28-1-.33-1-.82.4-.81 1.12-.81a1.68 1.68 0 011 .31l-.33.49a1.16 1.16 0 00-.64-.23c-.25 0-.47.09-.47.25s.17.2.61.29.88.28.88.81-.47.8-1.13.8a1.65 1.65 0 01-1.18-.47zm2.24-1.72h.51v-.77h.66v.77h.78v.59h-.78v1.05c0 .32.16.41.34.41a.55.55 0 00.27-.09l.24.53a1.19 1.19 0 01-.62.17.86.86 0 01-.89-.92v-1.15h-.51zm5 0v2.6h-.61v-.34a.89.89 0 01-.78.4 1.36 1.36 0 010-2.72.93.93 0 01.78.4v-.34zm-.66.91a.72.72 0 00-.61-.36.75.75 0 000 1.5.72.72 0 00.61-.36zm2.25-.91h1.05v-.61a.91.91 0 01.95-1 1.23 1.23 0 01.61.16l-.25.55a.5.5 0 00-.3-.09c-.18 0-.35.12-.35.46v.53h.66v.58H326v2h-.66v-2h-1.05v2h-.65v-2h-.52v-.58h.52v-.61a.91.91 0 01.94-1 1.23 1.23 0 01.61.16l-.25.55a.5.5 0 00-.3-.09c-.18 0-.35.12-.35.46zm5.68 2.63a1.44 1.44 0 01-1.34-.88l.55-.32a.87.87 0 00.79.59.67.67 0 00.7-.71c0-.41-.25-.71-.81-.71a1.86 1.86 0 00-1 .41v-2.28h2.41v.63h-1.76v.75a1.3 1.3 0 011.85 1.2 1.29 1.29 0 01-1.39 1.32m1.78-1.73h1.47v.63h-1.47zm2.9-2.17h.55v3.84h-.66v-3l-.67.54-.38-.48zm3.11 0h.74v2.39h.47v.62h-.42v.83h-.66v-.83h-2zm.09 2.39v-1.48l-1 1.48z"/><path class="cls-7" d="M357.68 315.99h39.97v12.92h-39.97z"/><path class="cls-4" d="M367.49 320.46l.44.43a2 2 0 01-1.48.65 2 2 0 111.42-3.36l-.44.43a1.34 1.34 0 00-1-.42 1.37 1.37 0 000 2.74 1.37 1.37 0 001-.47m3.29-.67v1.68h-.66V320a.47.47 0 00-.51-.53.65.65 0 00-.52.34v1.7h-.65v-4.14h.65v1.86a.88.88 0 01.74-.38.93.93 0 01.95 1m3.14-.91v2.59h-.61v-.34a.89.89 0 01-.78.41 1.37 1.37 0 010-2.73.92.92 0 01.78.41v-.34zm-.65.91a.75.75 0 00-.62-.36.75.75 0 000 1.5.75.75 0 00.62-.36zm3.09-.9l-.23.6a.75.75 0 00-.31-.06.68.68 0 00-.58.35v1.69h-.66v-2.59h.63v.38a.84.84 0 01.71-.45 1.4 1.4 0 01.44.08m.42-1.56h.66v4.14h-.66zm3.83 2.84v.24h-1.94a.75.75 0 00.73.53 1 1 0 00.71-.27l.33.5a1.67 1.67 0 01-1 .37 1.36 1.36 0 01-1.4-1.36 1.31 1.31 0 112.61 0m-.65-.23a.61.61 0 00-.66-.53.59.59 0 00-.63.53zm1.34.65a1.23 1.23 0 00.79.38c.26 0 .49-.08.49-.24s-.12-.2-.52-.28-1-.33-1-.83.41-.81 1.12-.81a1.65 1.65 0 011 .32l-.33.48a1.19 1.19 0 00-.64-.22c-.25 0-.47.09-.47.24s.17.2.61.29.88.28.88.82-.47.8-1.13.8a1.65 1.65 0 01-1.18-.47zm7.27-1a1.84 1.84 0 01-1.9 1.91h-1.23v-3.83h1.23a1.84 1.84 0 011.9 1.92m-.67 0a1.22 1.22 0 00-1.21-1.3h-.6v2.59h.6a1.22 1.22 0 001.21-1.29"/></g><text class="cls-8" transform="translate(356.68 327.3)">F</text><text class="cls-8" transform="translate(359.44 327.3)">ort</text><text class="cls-8" transform="translate(368.54 327.3)">W</text><text class="cls-8" transform="translate(373.63 327.3)">orth 9-14</text><g class="cls-9"><path class="cls-7" d="M137.95 253.63h39.97v12.92h-39.97z"/></g><text class="cls-8" transform="translate(146.77 258.9)">Geo</text><text class="cls-8" transform="translate(156.68 258.9)">r</text><text class="cls-8" transform="translate(158.72 258.9)">ge P</text><g class="cls-9"><path class="cls-4" d="M141.39 262.45h1.51v.62h-1.51v1.65h-.66v-3.83H143v.62h-1.62zm3.94-.31l-.23.59a.75.75 0 00-.31-.06.68.68 0 00-.58.35v1.7h-.66v-2.6h.62v.38a.86.86 0 01.71-.44 1.42 1.42 0 01.45.08m2.73 0v2.6h-.6v-.34a.91.91 0 01-.79.41 1.37 1.37 0 010-2.73.94.94 0 01.79.4v-.34zm-.65.91a.73.73 0 00-.62-.36.75.75 0 000 1.5.73.73 0 00.62-.36zm3.66 0v1.68h-.66v-1.53a.48.48 0 00-.51-.53.65.65 0 00-.52.34v1.71h-.65v-2.6h.61v.38a.9.9 0 01.78-.44.93.93 0 01.95 1m1.4.11l.93-1h.85l-1.14 1.23 1.21 1.37h-.86l-1-1.13v1.13h-.66v-4.14h.66zm1.95-1h.52v-.63a.9.9 0 01.93-1 1.16 1.16 0 01.58.14l-.25.55a.48.48 0 00-.26-.07c-.13 0-.34.07-.34.39v.6h.63v.6h-.63v2h-.66v-2h-.52zm2.28 1.69v-1.69h.66v1.51c0 .38.18.54.51.54a.65.65 0 00.52-.31v-1.74h.61v2.6h-.61v-.38a.93.93 0 01-1.73-.53m4.79-1.67l-.23.59a.77.77 0 00-.32-.06.68.68 0 00-.58.35v1.7h-.65v-2.6h.62v.38a.84.84 0 01.71-.44 1.5 1.5 0 01.45.08m.13 0h.51v-.77h.66v.77h.78v.6h-.78v1c0 .32.16.41.34.41a.55.55 0 00.27-.09l.24.54a1.19 1.19 0 01-.62.17.87.87 0 01-.89-.92v-1.15h-.51zm6.56-.19a.9.9 0 01-.43.75 1 1 0 01.54.91 1.32 1.32 0 01-2.63 0 1 1 0 01.53-.91.9.9 0 01-.42-.75 1.21 1.21 0 012.41 0m-.56 1.65a.65.65 0 00-1.3 0 .65.65 0 001.3 0m-.65-2.16a.51.51 0 00-.55.51.55.55 0 001.1 0 .51.51 0 00-.55-.51m1.76 1.64h1.47v.62h-1.47zm2.9-2.17h.54v3.83h-.65v-3l-.68.54-.37-.48zm2.72.54a.7.7 0 00-.65.47l-.57-.27a1.32 1.32 0 011.22-.81 1.14 1.14 0 011.24 1.15 1 1 0 01-.47.81.83.83 0 01.56.87 1.19 1.19 0 01-1.32 1.14 1.36 1.36 0 01-1.34-.89l.53-.31a.84.84 0 00.81.58c.41 0 .67-.22.67-.52s-.35-.54-.7-.54h-.27v-.6h.2c.4 0 .67-.15.67-.54a.54.54 0 00-.58-.54"/><path class="cls-7" d="M194.41 316.23h39.97v12.92h-39.97z"/></g><text class="cls-8" transform="translate(206.18 321.47)">Tim P</text><g class="cls-9"><path class="cls-4" d="M193.55 323.46h.66v2.63a1.19 1.19 0 01-1.31 1.28 1.33 1.33 0 01-1.12-.65l.48-.4a.85.85 0 00.64.42.58.58 0 00.65-.62zm4 2.54a1.39 1.39 0 11-1.38-1.36 1.35 1.35 0 011.38 1.36m-.67 0a.72.72 0 10-.71.75.71.71 0 00.71-.75m3.58-.38v1.68h-.66v-1.52a.48.48 0 00-.51-.53.65.65 0 00-.52.34v1.71h-.66v-4.14h.66V325a.89.89 0 01.74-.37.93.93 0 01.95 1m3.26.38a1.39 1.39 0 01-2.78 0 1.39 1.39 0 012.78 0m-.67 0a.72.72 0 10-.72.75.72.72 0 00.67-.76m2.93-1.28l-.23.59a.75.75 0 00-.31-.06.68.68 0 00-.58.35v1.7h-.66v-2.6h.63v.38a.83.83 0 01.7-.44 1.42 1.42 0 01.45.08m2-1.26h1.25a1.07 1.07 0 011.22 1.1.8.8 0 01-.4.71.89.89 0 01.6.89 1.18 1.18 0 01-1.29 1.14H208zm1.23 1.57c.36 0 .57-.14.57-.47s-.25-.47-.57-.47h-.57v.91zm.77 1.13c0-.36-.28-.5-.64-.5h-.7v1h.7c.36 0 .64-.14.64-.51m3.64-1.46v2.6H213V327a.91.91 0 01-.79.41 1.37 1.37 0 010-2.73.94.94 0 01.79.4v-.34zm-.65.91a.73.73 0 00-.62-.36.75.75 0 000 1.5.73.73 0 00.62-.36zm3.74 0v1.68H216v-1.52a.48.48 0 00-.52-.53.65.65 0 00-.51.34v1.71h-.66v-4.14h.69V325a.88.88 0 01.73-.37.93.93 0 011 1m2.44-.9l-.23.59a.75.75 0 00-.31-.06.68.68 0 00-.58.35v1.7h-.66v-2.6h.61v.38a.86.86 0 01.71-.44 1.5 1.5 0 01.45.08m.34 1.66v-1.69h.66v1.5c0 .39.18.55.51.55a.65.65 0 00.52-.32v-1.73h.65v2.6h-.61v-.38a.93.93 0 01-1.73-.54m5.92-.87a1.45 1.45 0 00.44-.91.57.57 0 00-.57-.59.71.71 0 00-.68.56l-.59-.21a1.32 1.32 0 011.27-1 1.14 1.14 0 011.23 1.19 1.57 1.57 0 01-.34 1l-.88 1.13h1.23v.63H224zm1.59.12h1.47v.63H227zm2.9-2.17h.55v3.84h-.66v-3l-.67.54-.38-.48zm3.11 0h.74v2.39h.42v.62h-.42v.83h-.66v-.83h-2zm.09 2.39v-1.48l-1 1.48z"/><path class="cls-7" d="M142.25 316.23h39.97v12.92h-39.97z"/></g><text class="cls-8" transform="translate(148.64 321.47)">W</text><text class="cls-8" transform="translate(153.87 321.47)">ylie C</text><text class="cls-8" transform="translate(145.18 327.3)">Berlin 2-14</text></svg>