<svg id="Layer_1" data-name="Layer 1" xmlns="http://www.w3.org/2000/svg" viewBox="0 0 228.27 239.54"><defs><clipPath id="clip-path"><path d="M-97.44-387.2h425.85v635.17H-97.44z" fill="none"/></clipPath><style>.cls-2{fill:none;stroke:#23336a;stroke-miterlimit:10;stroke-width:.76px}.cls-3{clip-path:url(#clip-path)}.cls-6{fill:#23336a}.cls-7{fill:#00aeef}</style></defs><path class="cls-2" d="M115.2 44.19v155m-77.77-77.68h155.4"/><g class="cls-3"><path d="M147.15 120.48a31.72 31.72 0 11-31.72-31.72 31.72 31.72 0 0131.72 31.72" fill="#fff"/><path class="cls-2" d="M147.15 120.48a31.72 31.72 0 11-31.72-31.72 31.72 31.72 0 0131.72 31.72z"/><path d="M37.47 121.29a77.72 77.72 0 0177.63-77.07V24.37a97.6 97.6 0 00-97.48 96.92z" fill="#92c841"/><path class="cls-6" d="M192.76 121.3a77.72 77.72 0 00-77.63-77.06V24.39a97.6 97.6 0 0197.48 96.91z"/><path class="cls-7" d="M192.75 121.33a77.71 77.71 0 01-77.62 77.06v19.85a97.58 97.58 0 0097.47-96.91z"/><path class="cls-6" d="M37.47 121.31a77.71 77.71 0 0077.62 77.06v19.85a97.59 97.59 0 01-97.47-96.91z"/></g><path class="cls-7" d="M92 118.4h.64l.1-.7h-.64zm-1.09-1.21h.75l.17-1.23.51.07-.17 1.16h.64L93 116l.51.07-.16 1.16H94v.51h-.75l-.1.7h.67v.51h-.74l-.19 1.32-.51-.07.17-1.25h-.62l-.19 1.32-.51-.07.17-1.25h-.68v-.51h.76l.1-.7h-.68z"/><path class="cls-6" d="M99.5 120.25l-1.16-3.2-1.18 3.2-1.56-4.19h.54l1.03 2.82 1-2.82h.36l.99 2.82 1.04-2.82h.52l-1.58 4.19z"/><g class="cls-3"><path class="cls-6" d="M102.85 117.38a1 1 0 01.71.26 1.12 1.12 0 01.22.33 1 1 0 01.08.44v1.72h-.48v-1.64a.85.85 0 000-.3.6.6 0 00-.14-.2.45.45 0 00-.21-.12.69.69 0 00-.25 0 .65.65 0 00-.29.07.72.72 0 00-.21.16 1.18 1.18 0 00-.17.22v1.85h-.49v-4.39h.49v2l.1-.11a1 1 0 01.15-.13l.23-.11a1 1 0 01.31 0m2.91 2.32a.77.77 0 00.37-.08.8.8 0 00.28-.2 1.33 1.33 0 00.18-.31 1.17 1.17 0 000-.74 1.33 1.33 0 00-.18-.31 1 1 0 00-.28-.2.91.91 0 00-.37-.08.87.87 0 00-.37.08.84.84 0 00-.28.2.87.87 0 00-.18.31 1 1 0 000 .74.87.87 0 00.18.31.72.72 0 00.28.2.75.75 0 00.37.08m0-2.37a1.33 1.33 0 011 .41 1.23 1.23 0 01.3.44 1.62 1.62 0 010 1.12 1.23 1.23 0 01-.3.44 1.33 1.33 0 01-1 .41 1.26 1.26 0 01-.55-.11 1.23 1.23 0 01-.44-.3 1.21 1.21 0 01-.29-.44 1.48 1.48 0 010-1.12 1.21 1.21 0 01.29-.44 1.23 1.23 0 01.44-.3 1.26 1.26 0 01.55-.11m4.95 0a1.21 1.21 0 01.38.06 1.16 1.16 0 01.32.2 1 1 0 01.23.33 1.15 1.15 0 01.08.44v1.72h-.49v-1.64a.67.67 0 000-.3.58.58 0 00-.13-.2.45.45 0 00-.21-.12.69.69 0 00-.25 0 .7.7 0 00-.3.07.83.83 0 00-.2.16.87.87 0 00-.17.22v1.85h-.49v-4.39h.47v2l.09-.11.16-.13a1 1 0 01.23-.11 1 1 0 01.31 0m3.71.85a2.09 2.09 0 00-.2-.22 1.2 1.2 0 00-.25-.16.86.86 0 00-.34-.07.91.91 0 00-.37.08 1 1 0 00-.28.2.87.87 0 00-.18.31 1.17 1.17 0 000 .74.87.87 0 00.18.31 1 1 0 00.28.2.91.91 0 00.37.08.71.71 0 00.34-.07 1.2 1.2 0 00.25-.16 1.42 1.42 0 00.2-.22zm.48-.83v2.68h-.44v-.39a1 1 0 01-.22.24 1.21 1.21 0 01-.28.15 1.09 1.09 0 01-.42.07 1 1 0 01-.5-.11 1.12 1.12 0 01-.41-.3 1.28 1.28 0 01-.28-.45 1.42 1.42 0 01-.1-.55 1.5 1.5 0 01.1-.56 1.33 1.33 0 01.28-.44 1.12 1.12 0 01.41-.3 1 1 0 01.5-.11 1.09 1.09 0 01.42.07 1.21 1.21 0 01.28.16 1.19 1.19 0 01.22.23v-.39z"/></g><path class="cls-6" d="M115.93 117.45l.82 1.82.83-1.82h.5l-1.35 2.8-1.34-2.8h.54z"/><g class="cls-3"><path class="cls-6" d="M120.39 118.56a.53.53 0 00-.06-.24.78.78 0 00-.16-.24 1 1 0 00-.26-.18.75.75 0 00-.35-.07.89.89 0 00-.38.08.94.94 0 00-.25.18.78.78 0 00-.16.24.71.71 0 00-.06.23zm-.83-1.18a1.27 1.27 0 01.52.1 1.22 1.22 0 01.42.29 1.42 1.42 0 01.27.45 1.78 1.78 0 01.1.59v.07a.31.31 0 010 .09h-2.17a.81.81 0 00.09.29 1 1 0 00.2.25 1.12 1.12 0 00.28.18 1 1 0 00.36.06 1 1 0 00.35-.06 1 1 0 00.25-.14.76.76 0 00.2-.2l.31.32a1.26 1.26 0 01-.29.27 1.27 1.27 0 01-.35.18 1.19 1.19 0 01-.47.08 1.48 1.48 0 01-.57-.1 1.71 1.71 0 01-.44-.3 1.4 1.4 0 01-.39-1 1.63 1.63 0 01.09-.55 1.68 1.68 0 01.27-.45 1.28 1.28 0 01.43-.3 1.23 1.23 0 01.55-.11m3.65 1.93a.91.91 0 00.21.23 1.17 1.17 0 00.25.14.78.78 0 00.35.07h.21a.55.55 0 00.18-.06.4.4 0 00.14-.11.24.24 0 000-.14.29.29 0 00-.15-.27 1.42 1.42 0 00-.41-.18 2.22 2.22 0 01-.39-.11 1.38 1.38 0 01-.32-.17.91.91 0 01-.2-.24.67.67 0 01-.07-.33.55.55 0 01.07-.28.6.6 0 01.2-.25 1.33 1.33 0 01.31-.18 1.31 1.31 0 01.41-.06 1.33 1.33 0 01.42.06 1.8 1.8 0 01.31.14 1.37 1.37 0 01.26.2l-.32.34a.65.65 0 00-.18-.15.9.9 0 00-.22-.1.76.76 0 00-.27-.05.59.59 0 00-.39.1.31.31 0 00-.12.24.28.28 0 00.16.25 1.85 1.85 0 00.49.16l.36.1a1 1 0 01.31.16 1.21 1.21 0 01.21.24.91.91 0 01.07.35.64.64 0 01-.09.34 1 1 0 01-.25.25 1.22 1.22 0 01-.35.14 1.2 1.2 0 01-.38 0 1.5 1.5 0 01-.5-.08 2 2 0 01-.36-.2 1.28 1.28 0 01-.29-.28zm2.25-1.87h.53v-.82h.49v.82h.84v.44h-.84v1.45a.45.45 0 00.09.3.41.41 0 00.3.11h.21l.1-.06.18.4a1.09 1.09 0 01-.31.13h-.25a.71.71 0 01-.29 0 .68.68 0 01-.26-.15.73.73 0 01-.19-.26.89.89 0 01-.07-.38v-1.47h-.52zm4.4.83a2.09 2.09 0 00-.2-.22 1.2 1.2 0 00-.25-.16.86.86 0 00-.34-.07.91.91 0 00-.37.08 1 1 0 00-.28.2.87.87 0 00-.18.31 1.17 1.17 0 000 .74.87.87 0 00.18.31 1 1 0 00.28.2.91.91 0 00.37.08.71.71 0 00.34-.07 1.2 1.2 0 00.25-.16 1.42 1.42 0 00.2-.22zm.48-.83v2.68h-.44v-.39a1 1 0 01-.22.24 1.21 1.21 0 01-.28.15 1.09 1.09 0 01-.42.07 1 1 0 01-.5-.11 1.12 1.12 0 01-.41-.3 1.28 1.28 0 01-.28-.45 1.42 1.42 0 01-.1-.55 1.5 1.5 0 01.1-.56 1.33 1.33 0 01.28-.44 1.12 1.12 0 01.41-.3 1 1 0 01.5-.11 1.09 1.09 0 01.42.07 1.21 1.21 0 01.28.16 1.19 1.19 0 01.22.23v-.39zm1.95-.07h.39l-.18.44h-.31a.57.57 0 00-.27.07.77.77 0 00-.19.16 1.07 1.07 0 00-.15.22v1.85h-.49v-2.68h.45v.41a1.08 1.08 0 01.18-.24.92.92 0 01.24-.17.67.67 0 01.33-.07m.54.08h.53v-.82h.49v.82h.83v.44h-.83v1.45a.45.45 0 00.09.3.37.37 0 00.29.11h.21l.1-.06.18.4a1 1 0 01-.31.13 1.07 1.07 0 01-.25 0 .69.69 0 01-.28 0 .68.68 0 01-.26-.15.73.73 0 01-.19-.26.89.89 0 01-.07-.38v-1.47h-.53zm4.41 1.11a.53.53 0 00-.06-.24.78.78 0 00-.16-.24 1 1 0 00-.26-.18.78.78 0 00-.35-.07.89.89 0 00-.38.08.94.94 0 00-.25.18.78.78 0 00-.16.24.75.75 0 00-.07.23zm-.83-1.18a1.3 1.3 0 01.52.1 1.09 1.09 0 01.41.29 1.28 1.28 0 01.28.45 1.78 1.78 0 01.1.59v.16h-2.17a.81.81 0 00.09.29 1 1 0 00.2.25 1.12 1.12 0 00.28.18 1 1 0 00.36.06 1 1 0 00.35-.06 1 1 0 00.25-.14.76.76 0 00.2-.2l.31.32a1.5 1.5 0 01-.29.27 1.43 1.43 0 01-.35.18 1.19 1.19 0 01-.47.08 1.48 1.48 0 01-.57-.1 1.55 1.55 0 01-.44-.3 1.47 1.47 0 01-.4-1 1.63 1.63 0 01.1-.55 1.46 1.46 0 01.27-.45 1.19 1.19 0 01.43-.3 1.23 1.23 0 01.55-.11m3.84.91a1.59 1.59 0 00-.2-.24l-.24-.16a1 1 0 00-.36-.07.86.86 0 00-.36.08 1 1 0 00-.28.2.87.87 0 00-.18.31 1.17 1.17 0 000 .74.87.87 0 00.18.31.72.72 0 00.28.2.73.73 0 00.36.08.8.8 0 00.36-.07l.24-.16a1.59 1.59 0 00.2-.24zm-.87-.92a1.08 1.08 0 01.38.06 1.46 1.46 0 01.28.14 1 1 0 01.21.2v-2h.48v4.39h-.44v-.39a1.21 1.21 0 01-.21.24 1.46 1.46 0 01-.28.15 1.09 1.09 0 01-.42.07 1.24 1.24 0 01-.92-.41 1.33 1.33 0 01-.28-.44 1.62 1.62 0 010-1.12 1.33 1.33 0 01.28-.44 1.24 1.24 0 01.92-.41m-39.1 6.84a1.3 1.3 0 00-.19-.22 1.2 1.2 0 00-.25-.16.86.86 0 00-.34-.07.87.87 0 00-.37.08 1 1 0 00-.28.2.87.87 0 00-.18.31 1 1 0 000 .74.87.87 0 00.18.31 1 1 0 00.28.2.87.87 0 00.37.08.71.71 0 00.34-.07 1.2 1.2 0 00.25-.16 1 1 0 00.19-.22zm.49-.83v2.68h-.45v-.39a.79.79 0 01-.21.24 1.21 1.21 0 01-.28.15 1.09 1.09 0 01-.42.07 1.12 1.12 0 01-.51-.11 1.31 1.31 0 01-.41-.3 1.51 1.51 0 01-.37-1 1.5 1.5 0 01.1-.56 1.48 1.48 0 01.27-.44 1.31 1.31 0 01.41-.3 1.12 1.12 0 01.51-.11 1.09 1.09 0 01.42.07 1.21 1.21 0 01.28.16.9.9 0 01.21.23v-.39zm2.03-.07a1.26 1.26 0 01.38.06 1 1 0 01.32.2 1 1 0 01.22.32 1.06 1.06 0 01.09.45v1.72h-.49v-1.64a.85.85 0 000-.3.48.48 0 00-.14-.2.41.41 0 00-.2-.12.75.75 0 00-.26 0 .65.65 0 00-.29.07 1.16 1.16 0 00-.21.16 1.12 1.12 0 00-.16.22v1.85h-.49v-2.68h.41v.37a1 1 0 01.19-.22 1.5 1.5 0 01.26-.15.86.86 0 01.38-.07m2.94 2.33a.91.91 0 00.37-.08 1 1 0 00.28-.2.87.87 0 00.18-.31 1.15 1.15 0 00.06-.37 1.1 1.1 0 00-.06-.37.87.87 0 00-.18-.31.8.8 0 00-.28-.2.91.91 0 00-.37-.08.87.87 0 00-.37.08.72.72 0 00-.28.2.87.87 0 00-.18.31.9.9 0 00-.07.37.94.94 0 00.07.37.87.87 0 00.18.31.84.84 0 00.28.2.87.87 0 00.37.08m0-2.37a1.26 1.26 0 01.55.11 1.32 1.32 0 01.44.3 1.35 1.35 0 01.29.44 1.5 1.5 0 01.1.56 1.42 1.42 0 01-.1.55 1.29 1.29 0 01-.29.45 1.32 1.32 0 01-.44.3 1.43 1.43 0 01-1.1 0 1.23 1.23 0 01-.44-.3 1.29 1.29 0 01-.29-.45 1.42 1.42 0 01-.11-.55 1.51 1.51 0 01.11-.56 1.35 1.35 0 01.29-.44 1.23 1.23 0 01.44-.3 1.26 1.26 0 01.55-.11m1.71.07h.52v-.82h.49v.82h.84v.44h-.84v1.45a.45.45 0 00.09.3.41.41 0 00.3.11h.21l.1-.06.18.4a1.09 1.09 0 01-.31.13h-.25a.74.74 0 01-.29-.05.76.76 0 01-.26-.15.73.73 0 01-.19-.26.89.89 0 01-.07-.38v-1.47h-.52zm3.8-.07a1.21 1.21 0 01.38.06 1 1 0 01.32.2 1 1 0 01.23.32 1.25 1.25 0 01.08.45v1.72h-.49v-1.64a.67.67 0 000-.3.58.58 0 00-.13-.2.45.45 0 00-.21-.12.69.69 0 00-.25 0 .7.7 0 00-.3.07.83.83 0 00-.2.16.87.87 0 00-.17.22v1.85H110v-4.39h.49v2l.09-.11a.7.7 0 01.16-.13 1 1 0 01.23-.11 1 1 0 01.31 0m3.72 1.13a.53.53 0 00-.06-.24.63.63 0 00-.16-.24.94.94 0 00-.25-.18.8.8 0 00-.36-.07.81.81 0 00-.37.08.86.86 0 00-.26.18.87.87 0 00-.16.23.84.84 0 00-.06.24zm-.83-1.18a1.27 1.27 0 01.52.1 1.22 1.22 0 01.42.29 1.26 1.26 0 01.27.45 1.55 1.55 0 01.1.59v.07a.22.22 0 010 .08h-2.16a.67.67 0 00.08.3 1 1 0 00.2.25 1.19 1.19 0 00.29.18 1.05 1.05 0 00.7 0 1 1 0 00.25-.14 1 1 0 00.21-.2l.31.32a1.86 1.86 0 01-.29.27 1.51 1.51 0 01-.36.18 1.13 1.13 0 01-.47.08 1.43 1.43 0 01-.56-.1 1.57 1.57 0 01-.45-.31 1.29 1.29 0 01-.29-.45 1.42 1.42 0 01-.1-.55 1.63 1.63 0 01.09-.55 1.48 1.48 0 01.28-.45 1.25 1.25 0 01.42-.3 1.26 1.26 0 01.55-.11m3.08 0h.39l-.18.44h-.31a.54.54 0 00-.27.07.77.77 0 00-.19.16 1.07 1.07 0 00-.15.22v1.85h-.49v-2.68h.45v.41a1.08 1.08 0 01.18-.24.92.92 0 01.24-.17.67.67 0 01.33-.07m4.38.91a1.3 1.3 0 00-.19-.22 1.2 1.2 0 00-.25-.16.78.78 0 00-.35-.07.91.91 0 00-.37.08.8.8 0 00-.28.2 1.05 1.05 0 00-.18.31 1.17 1.17 0 000 .74 1.05 1.05 0 00.18.31 1 1 0 00.28.2.91.91 0 00.37.08.75.75 0 00.35-.07 1.2 1.2 0 00.25-.16 1 1 0 00.19-.22zm0 1.52a.47.47 0 01-.1.11 1.41 1.41 0 01-.18.14l-.25.11a1.15 1.15 0 01-.33 0 1.09 1.09 0 01-.51-.11 1.28 1.28 0 01-.69-.75 1.42 1.42 0 01-.1-.55 1.5 1.5 0 01.1-.56 1.3 1.3 0 01.27-.44 1.25 1.25 0 01.42-.3 1.09 1.09 0 01.51-.11 1 1 0 01.41.07 1 1 0 01.28.16.9.9 0 01.21.23v-.39h.45v2.69a1.58 1.58 0 01-.11.61 1.15 1.15 0 01-.3.44 1.26 1.26 0 01-.45.26 1.67 1.67 0 01-.55.09 1.54 1.54 0 01-.5-.08 1.59 1.59 0 01-.37-.18 1.25 1.25 0 01-.3-.25l.29-.37a1.61 1.61 0 00.23.22 1.46 1.46 0 00.28.14 1.06 1.06 0 00.37.07.94.94 0 00.68-.24.89.89 0 00.24-.68zm2.44-2.42h.39l-.18.44H124a.61.61 0 00-.28.07.93.93 0 00-.18.16 1.77 1.77 0 00-.16.22v1.85h-.48v-2.68h.45v.41a1.08 1.08 0 01.18-.24.92.92 0 01.24-.17.67.67 0 01.33-.07m1.9 2.38a.91.91 0 00.37-.08 1 1 0 00.28-.2.87.87 0 00.18-.31 1.15 1.15 0 00.06-.37 1.1 1.1 0 00-.06-.37.87.87 0 00-.18-.31.8.8 0 00-.28-.2.91.91 0 00-.37-.08.87.87 0 00-.37.08.72.72 0 00-.28.2.87.87 0 00-.18.31.9.9 0 00-.07.37.94.94 0 00.07.37.87.87 0 00.18.31.84.84 0 00.28.2.87.87 0 00.37.08m0-2.37a1.29 1.29 0 01.55.11 1.32 1.32 0 01.44.3 1.35 1.35 0 01.29.44 1.5 1.5 0 01.1.56 1.42 1.42 0 01-.1.55 1.29 1.29 0 01-.29.45 1.32 1.32 0 01-.44.3 1.46 1.46 0 01-.55.11 1.42 1.42 0 01-.55-.11 1.23 1.23 0 01-.44-.3 1.29 1.29 0 01-.29-.45 1.42 1.42 0 01-.11-.55 1.51 1.51 0 01.11-.56 1.35 1.35 0 01.29-.44 1.23 1.23 0 01.44-.3 1.26 1.26 0 01.55-.11m2.91 2.82a1.27 1.27 0 01-.39-.06 1 1 0 01-.32-.2 1 1 0 01-.22-.32 1.25 1.25 0 01-.08-.45v-1.72h.49v1.64a.62.62 0 00.18.5.68.68 0 00.46.16.6.6 0 00.3-.07l.21-.15a1.12 1.12 0 00.16-.22v-1.86h.49v2.68h-.45v-.41a1.57 1.57 0 01-.2.25 1.2 1.2 0 01-.25.16.89.89 0 01-.38.07m2.51-.91a1.06 1.06 0 00.19.23 1.2 1.2 0 00.25.16.78.78 0 00.35.07.87.87 0 00.37-.08.84.84 0 00.28-.2.87.87 0 00.18-.31 1.17 1.17 0 000-.74.87.87 0 00-.18-.31.84.84 0 00-.28-.2.87.87 0 00-.37-.08 1 1 0 00-.35.07 1.81 1.81 0 00-.25.16 1.37 1.37 0 00-.19.23zm0-1.84v.39a1.19 1.19 0 01.22-.23 1.13 1.13 0 01.27-.16 1.06 1.06 0 01.42-.07 1.24 1.24 0 01.92.41 1.33 1.33 0 01.28.44 1.5 1.5 0 01.1.56 1.42 1.42 0 01-.1.55 1.28 1.28 0 01-.28.45 1.24 1.24 0 01-.92.41 1.06 1.06 0 01-.33 0 1.56 1.56 0 01-.26-.11.85.85 0 01-.17-.14.56.56 0 01-.11-.11v1.67h-.49v-4z"/></g><path class="cls-7" d="M62.7 82.55h.63l.1-.7h-.63zm-1.1-1.21h.75l.17-1.22.51.07-.16 1.15h.63l.18-1.22.5.07-.18 1.15h.68v.51H64l-.1.7h.68v.51h-.75l-.18 1.32-.52-.07.18-1.25h-.63l-.19 1.32-.51-.07.18-1.25h-.68v-.51h.75l.1-.7h-.73z"/><g class="cls-3"><path class="cls-6" d="M68.94 83.25a.6.6 0 00-.06-.27.65.65 0 00-.16-.21 1.53 1.53 0 00-.25-.16l-.32-.16-.42-.21a1.36 1.36 0 01-.36-.25 1 1 0 01-.24-.33 1 1 0 01-.09-.44 1 1 0 01.07-.37 1.08 1.08 0 01.22-.35 1.29 1.29 0 01.37-.26 1.49 1.49 0 011 0 2 2 0 01.36.2 1.64 1.64 0 01.29.3L69 81a1.34 1.34 0 00-.2-.21.87.87 0 00-.25-.15.77.77 0 00-.34-.07.94.94 0 00-.3 0 .77.77 0 00-.21.14.63.63 0 00-.13.2.54.54 0 000 .22.6.6 0 00.07.27.67.67 0 00.18.2 2.27 2.27 0 00.28.18l.38.18a4.1 4.1 0 01.42.21 1.69 1.69 0 01.32.25.83.83 0 01.2.32 1.09 1.09 0 01.07.42 1 1 0 01-.36.8 1.44 1.44 0 01-.4.23 1.64 1.64 0 01-.5.08 1.4 1.4 0 01-1-.43 1.37 1.37 0 01-.29-.42l.41-.25a1.73 1.73 0 00.2.32 1.28 1.28 0 00.28.21.76.76 0 00.41.1.86.86 0 00.28 0 1 1 0 00.25-.12.65.65 0 00.17-.2.61.61 0 00.06-.28m3.1-.49a.6.6 0 00-.06-.24.84.84 0 00-.16-.24.94.94 0 00-.25-.18 1 1 0 00-.36-.07.84.84 0 00-.37.08 1 1 0 00-.26.18 1 1 0 00-.22.47zm-.83-1.18a1.27 1.27 0 01.52.1 1.37 1.37 0 01.42.29 1.13 1.13 0 01.27.45 1.59 1.59 0 01.1.59v.16h-2.17a.79.79 0 00.08.29.82.82 0 00.2.25.79.79 0 00.29.18 1 1 0 00.35.06 1 1 0 00.35-.06.8.8 0 00.26-.14 1.19 1.19 0 00.2-.19l.31.32a1.2 1.2 0 01-.29.26 1.64 1.64 0 01-.35.18 1.21 1.21 0 01-.48.08 1.47 1.47 0 01-.56-.1 1.23 1.23 0 01-.44-.3 1.34 1.34 0 01-.33-.45 1.51 1.51 0 01-.11-.56 1.42 1.42 0 01.1-.55 1.29 1.29 0 01.27-.45 1.25 1.25 0 01.42-.3 1.42 1.42 0 01.55-.11m3.9 1.18a1.4 1.4 0 00-.06-.24 1.11 1.11 0 00-.16-.24 1 1 0 00-.26-.18 1 1 0 00-.35-.05.86.86 0 00-.38.08.8.8 0 00-.25.18.78.78 0 00-.16.24.75.75 0 00-.07.23zm-.83-1.18a1.3 1.3 0 01.52.1 1.22 1.22 0 01.41.29 1.28 1.28 0 01.28.45 1.83 1.83 0 01.09.59v.16h-2.17a.81.81 0 00.09.29.69.69 0 00.2.25.75.75 0 00.28.18 1 1 0 00.35.06 1 1 0 00.36-.06.86.86 0 00.29-.14.9.9 0 00.2-.19l.31.32a1.2 1.2 0 01-.29.26 1.43 1.43 0 01-.35.18 1.21 1.21 0 01-.48.08 1.47 1.47 0 01-.56-.1 1.23 1.23 0 01-.44-.3 1.47 1.47 0 01-.4-1 1.63 1.63 0 01.1-.55 1.29 1.29 0 01.27-.45 1.19 1.19 0 01.43-.3 1.35 1.35 0 01.55-.11"/></g><path class="cls-6" d="M76.76 82.98v1.31h-.49v-4.4h.49v2.9l1.15-1.19h.64l-1.26 1.27 1.36 1.42h-.68l-1.21-1.31z"/><g class="cls-3"><path class="cls-6" d="M80.93 82.71a.6.6 0 00-.06-.24 1.11 1.11 0 00-.16-.24 1 1 0 00-.26-.18 1 1 0 00-.35-.05.89.89 0 00-.38.08.94.94 0 00-.25.18.78.78 0 00-.16.24.75.75 0 00-.07.23zm-.83-1.18a1.3 1.3 0 01.52.1 1.22 1.22 0 01.41.29 1.28 1.28 0 01.28.45 1.82 1.82 0 01.1.59v.12h-2.18a.84.84 0 00.29.54.75.75 0 00.28.18 1 1 0 00.36.06 1 1 0 00.35-.06.74.74 0 00.25-.14.73.73 0 00.2-.19l.31.32a1.2 1.2 0 01-.29.26 1.27 1.27 0 01-.35.18 1.19 1.19 0 01-.47.08 1.48 1.48 0 01-.57-.1 1.23 1.23 0 01-.44-.3 1.4 1.4 0 01-.39-1 1.63 1.63 0 01.09-.55 1.68 1.68 0 01.27-.45 1.19 1.19 0 01.43-.3 1.38 1.38 0 01.55-.11m3.07.03h.39l-.18.44h-.31a.51.51 0 00-.28.08 1 1 0 00-.19.15 2.3 2.3 0 00-.15.23v1.84H82V81.6h.46v.4a1.08 1.08 0 01.18-.24 1.53 1.53 0 01.23-.17.74.74 0 01.34-.07m.79 1.96a1.45 1.45 0 00.21.22l.26.15a.88.88 0 00.35.06.65.65 0 00.2 0 .6.6 0 00.19-.06.38.38 0 00.14-.11.22.22 0 00.05-.14.32.32 0 00-.15-.27 1.42 1.42 0 00-.46-.16 1.68 1.68 0 01-.4-.11 1 1 0 01-.31-.17.59.59 0 01-.2-.24.67.67 0 01-.07-.33.58.58 0 01.07-.28.67.67 0 01.2-.25.92.92 0 01.31-.17 1 1 0 01.4-.07 1.44 1.44 0 01.43.06l.31.14a1.83 1.83 0 01.26.21l-.32.33a1.39 1.39 0 00-.19-.15 1 1 0 00-.21-.1.82.82 0 00-.28 0 .57.57 0 00-.38.11.29.29 0 00-.13.23.28.28 0 00.16.25 1.62 1.62 0 00.5.16l.36.1a1.06 1.06 0 01.3.16.79.79 0 01.21.24.75.75 0 01.08.35.57.57 0 01-.1.34.82.82 0 01-.24.25 1.84 1.84 0 01-.35.15 1.65 1.65 0 01-.38 0 1.28 1.28 0 01-.5-.09 1.49 1.49 0 01-.36-.19 1.14 1.14 0 01-.29-.29zm4.23-1.88h.49v2.69h-.49zm-.09-.86a.34.34 0 01.1-.23.33.33 0 01.47 0 .34.34 0 01.1.23.34.34 0 01-.34.33.32.32 0 01-.23-.1.33.33 0 01-.1-.23m2.69.79a1 1 0 01.38.07.94.94 0 01.32.19 1 1 0 01.23.33 1.15 1.15 0 01.08.44v1.72h-.49v-1.64a.7.7 0 000-.3.58.58 0 00-.13-.2A.72.72 0 0091 82a1 1 0 00-.25 0 .61.61 0 00-.3.08.8.8 0 00-.2.15 1 1 0 00-.17.23v1.84h-.49v-2.7H90v.4a.83.83 0 01.2-.22 1 1 0 01.25-.16.89.89 0 01.38-.07M71.82 89a1.43 1.43 0 00-.2-.23l-.25-.15a.74.74 0 00-.34-.08.87.87 0 00-.37.08.86.86 0 00-.29.21 1 1 0 00-.17.3 1.15 1.15 0 00-.06.37 1.16 1.16 0 00.06.38 1.11 1.11 0 00.17.3.86.86 0 00.29.21.87.87 0 00.37.07.71.71 0 00.34-.07 1.18 1.18 0 00.25-.15 2.2 2.2 0 00.2-.23zm0 1.51l-.11.12a.7.7 0 01-.18.13 1.17 1.17 0 01-.25.11 1.14 1.14 0 01-.33 0 1.26 1.26 0 01-.51-.11 1.4 1.4 0 01-.41-.3 1.48 1.48 0 01-.28-.45 1.47 1.47 0 01-.1-.56 1.45 1.45 0 01.1-.55 1.48 1.48 0 01.25-.4 1.24 1.24 0 01.41-.3 1.26 1.26 0 01.51-.11 1.09 1.09 0 01.42.07 2.32 2.32 0 01.28.16 1.51 1.51 0 01.21.23v-.39h.44v2.7a1.48 1.48 0 01-.11.61 1.11 1.11 0 01-.3.43 1.29 1.29 0 01-.45.27 1.92 1.92 0 01-.55.08 1.26 1.26 0 01-.49-.08A1.84 1.84 0 0170 92a1.34 1.34 0 01-.31-.26l.29-.36a1.21 1.21 0 00.24.21 2.18 2.18 0 00.27.15 1.06 1.06 0 00.37.06 1 1 0 00.68-.23.94.94 0 00.25-.69zm2.43-2.42h.39l-.18.44h-.31a.48.48 0 00-.27.08 1 1 0 00-.19.15 1.14 1.14 0 00-.15.23v1.85h-.49v-2.68h.45v.41a1.08 1.08 0 01.18-.24.91.91 0 01.24-.16.67.67 0 01.33-.08m1.88 2.37a.87.87 0 00.37-.07.83.83 0 00.28-.21.92.92 0 00.18-.3 1.22 1.22 0 00.04-.38 1.16 1.16 0 00-.07-.37.91.91 0 00-.46-.51.9.9 0 00-.74 0 .91.91 0 00-.46.51 1.15 1.15 0 00-.06.37 1.21 1.21 0 00.06.38.92.92 0 00.18.3.83.83 0 00.28.21.87.87 0 00.37.07m0-2.37a1.42 1.42 0 01.55.11 1.49 1.49 0 01.44.3 1.51 1.51 0 01.29.45 1.45 1.45 0 01.1.55 1.47 1.47 0 01-.1.56 1.51 1.51 0 01-.29.45 1.71 1.71 0 01-.44.3 1.43 1.43 0 01-1.1 0 1.71 1.71 0 01-.44-.3 1.51 1.51 0 01-.29-.45 1.47 1.47 0 01-.1-.56 1.45 1.45 0 01.1-.55 1.51 1.51 0 01.29-.45 1.49 1.49 0 01.44-.3 1.42 1.42 0 01.55-.11m2.98 2.83a1.22 1.22 0 01-.38-.07 1 1 0 01-.33-.2 1.07 1.07 0 01-.22-.32 1.23 1.23 0 01-.08-.44v-1.73h.49v1.65a.62.62 0 00.19.5.69.69 0 00.46.15.54.54 0 00.29-.07.57.57 0 00.21-.15.69.69 0 00.16-.22v-1.86h.49v2.69h-.45v-.42a1 1 0 01-.2.25 1 1 0 01-.25.16.89.89 0 01-.38.08m2.51-.92a.91.91 0 00.2.24.9.9 0 00.24.15.78.78 0 00.35.07.87.87 0 00.37-.07.86.86 0 00.29-.21 1.11 1.11 0 00.17-.3 1.21 1.21 0 00.06-.38 1.15 1.15 0 00-.06-.37.87.87 0 00-.83-.59.78.78 0 00-.35.08.91.91 0 00-.24.16 1 1 0 00-.2.22zm0-1.84v.39a1.19 1.19 0 01.22-.23 1.06 1.06 0 01.69-.23 1.26 1.26 0 01.51.11 1.12 1.12 0 01.41.3 1.37 1.37 0 01.28.45 1.45 1.45 0 01.1.55 1.47 1.47 0 01-.1.56 1.48 1.48 0 01-.28.45 1.4 1.4 0 01-.41.3 1.26 1.26 0 01-.51.11 1.14 1.14 0 01-.33 0 1.17 1.17 0 01-.25-.11.93.93 0 01-.18-.13l-.11-.12v1.67h-.48v-4z"/></g><path class="cls-7" d="M126.51 82.55h.63l.1-.7h-.63zm-1.1-1.21h.75l.17-1.22.51.07-.16 1.15h.63l.17-1.22.51.07-.16 1.15h.68v.51h-.75l-.1.7h.67v.51h-.74l-.19 1.32-.51-.07.18-1.25h-.63l-.19 1.32-.51-.07.17-1.25h-.68v-.51h.77l.1-.7h-.68z"/><g class="cls-3"><path class="cls-6" d="M132.15 83.82a1.46 1.46 0 00.38 0 .76.76 0 00.26-.16.48.48 0 00.15-.22.76.76 0 00.05-.27.86.86 0 00-.05-.27.62.62 0 00-.15-.22.93.93 0 00-.26-.15 1.13 1.13 0 00-.38 0h-.78v1.39zM132 82a.81.81 0 00.54-.17.62.62 0 00.2-.47.59.59 0 00-.2-.47.77.77 0 00-.54-.18h-.66V82zm-1.15-1.75H132a1.43 1.43 0 011 .3 1 1 0 01.34.81.87.87 0 01-.07.35 1.17 1.17 0 01-.14.25.94.94 0 01-.16.14l-.09.05h.13a.74.74 0 01.23.16 1.06 1.06 0 01.22.3 1.15 1.15 0 01.1.49 1.13 1.13 0 01-.1.49 1 1 0 01-.26.36 1.22 1.22 0 01-.42.23 1.63 1.63 0 01-.55.09h-1.27zm5.15 2.19a1.43 1.43 0 00-.2-.23 1.67 1.67 0 00-.24-.15.74.74 0 00-.34-.08.87.87 0 00-.37.08.78.78 0 00-.29.21 1.09 1.09 0 00-.18.3 1.15 1.15 0 00-.06.37 1.21 1.21 0 00.06.38 1.49 1.49 0 00.18.3.78.78 0 00.29.21.87.87 0 00.37.07.74.74 0 00.34-.07 1.1 1.1 0 00.24-.15 1.43 1.43 0 00.2-.23zm.49-.84v2.69h-.45v-.39a1.19 1.19 0 01-.22.23 1 1 0 01-.28.16 1.32 1.32 0 01-.42.07 1.22 1.22 0 01-.5-.11 1.4 1.4 0 01-.41-.3 1.48 1.48 0 01-.28-.45 1.47 1.47 0 01-.1-.56 1.45 1.45 0 01.1-.55 1.48 1.48 0 01.28-.45 1.12 1.12 0 01.41-.3 1.22 1.22 0 01.5-.11 1.32 1.32 0 01.42.07 1 1 0 01.28.16 1.19 1.19 0 01.22.23v-.39zm1.26 1.84a.88.88 0 00.19.24 1.18 1.18 0 00.25.15.75.75 0 00.35.07.87.87 0 00.37-.07.83.83 0 00.28-.21.92.92 0 00.18-.3 1.21 1.21 0 00.06-.38 1.15 1.15 0 00-.06-.37.75.75 0 00-.18-.3.83.83 0 00-.28-.21.87.87 0 00-.37-.08.75.75 0 00-.35.08 1.2 1.2 0 00-.25.16 1 1 0 00-.19.22zm0-1.84v.4a1.51 1.51 0 01.21-.23 1.47 1.47 0 01.28-.16 1.26 1.26 0 01.93 0 1.21 1.21 0 01.41.3 1.48 1.48 0 01.28.45 1.59 1.59 0 010 1.11 1.48 1.48 0 01-.28.45 1.55 1.55 0 01-.41.3 1.26 1.26 0 01-.51.11 1.16 1.16 0 01-.34 0l-.32-.13a.84.84 0 01-.17-.13.57.57 0 01-.11-.12v1.67h-.49v-4zm2.49 0h.53v-.82h.49v.82h.83v.4h-.83v1.45a.45.45 0 00.09.3.34.34 0 00.29.11h.21a.33.33 0 00.1-.06l.18.4a1 1 0 01-.31.13.73.73 0 01-.25 0 .92.92 0 01-.28 0 1.1 1.1 0 01-.26-.15.77.77 0 01-.19-.27.86.86 0 01-.07-.38V82h-.53zm2.51 0h.49v2.69h-.49zm-.09-.86a.3.3 0 01.1-.23.34.34 0 01.23-.1.37.37 0 01.24.1.34.34 0 01.1.23.34.34 0 01-.34.33.3.3 0 01-.23-.1.29.29 0 01-.1-.23"/></g><path class="cls-6" d="M146.29 81.6l-1.54 2.23h1.48v.46h-2.34l1.55-2.24h-1.46v-.45h2.31z"/><g class="cls-3"><path class="cls-6" d="M148.79 82.71a.6.6 0 00-.06-.24 1.11 1.11 0 00-.16-.24 1 1 0 00-.26-.18A1 1 0 00148 82a.89.89 0 00-.38.08.94.94 0 00-.25.18.78.78 0 00-.16.24.75.75 0 00-.07.23zm-.79-1.18a1.3 1.3 0 01.52.1 1.22 1.22 0 01.41.29 1.28 1.28 0 01.28.45 1.82 1.82 0 01.1.59v.12h-2.17a.81.81 0 00.09.29.69.69 0 00.2.25.75.75 0 00.28.18 1 1 0 00.36.06 1 1 0 00.35-.06.74.74 0 00.25-.14.73.73 0 00.2-.19l.31.32a1.2 1.2 0 01-.29.26 1.43 1.43 0 01-.35.18 1.19 1.19 0 01-.47.08 1.48 1.48 0 01-.57-.1 1.23 1.23 0 01-.5-.21 1.47 1.47 0 01-.4-1 1.63 1.63 0 01.1-.55 1.46 1.46 0 01.27-.45 1.19 1.19 0 01.43-.3 1.38 1.38 0 01.55-.11m3.86.86a1.14 1.14 0 00-.2-.23.89.89 0 00-.25-.16.72.72 0 00-.36-.06.86.86 0 00-.36.08 1 1 0 00-.28.2.87.87 0 00-.18.31 1.15 1.15 0 00-.06.37 1.1 1.1 0 00.06.37 1 1 0 00.17.31.84.84 0 00.65.28.73.73 0 00.35-.07 1.2 1.2 0 00.25-.16 2.2 2.2 0 00.2-.23zm-.87-.92a1.08 1.08 0 01.38.06 2.43 2.43 0 01.28.14 1.34 1.34 0 01.21.2v-2h.48v4.39h-.44v-.42a1.51 1.51 0 01-.21.23 1.06 1.06 0 01-.28.15 1.09 1.09 0 01-.42.07 1.24 1.24 0 01-.92-.41 1.33 1.33 0 01-.28-.44 1.5 1.5 0 01-.1-.56 1.42 1.42 0 01.1-.55 1.48 1.48 0 01.28-.45 1.12 1.12 0 01.41-.3 1.26 1.26 0 01.51-.11m4.42 1.91a1.07 1.07 0 00.2.23.91.91 0 00.24.16.78.78 0 00.35.07.87.87 0 00.37-.07.74.74 0 00.28-.21.87.87 0 00.18-.31 1.1 1.1 0 00.06-.37 1.15 1.15 0 00-.06-.37.87.87 0 00-.18-.31 1 1 0 00-.28-.2.87.87 0 00-.37-.08.78.78 0 00-.35.08.72.72 0 00-.24.16.74.74 0 00-.2.23zm.87-1.91a1.26 1.26 0 01.51.11 1.12 1.12 0 01.41.3 1.48 1.48 0 01.28.45 1.42 1.42 0 01.1.55 1.5 1.5 0 01-.1.56 1.33 1.33 0 01-.28.44 1.24 1.24 0 01-.92.41 1.09 1.09 0 01-.42-.07 1.06 1.06 0 01-.28-.15 1.51 1.51 0 01-.21-.23v.38h-.44v-4.39h.48v2a1.34 1.34 0 01.21-.2 1.67 1.67 0 01.27-.14 1.14 1.14 0 01.39-.06m3.85 1.22a.84.84 0 00-.06-.24 1.11 1.11 0 00-.16-.24 1 1 0 00-.26-.18 1 1 0 00-.35-.07.89.89 0 00-.38.08.8.8 0 00-.25.18.78.78 0 00-.16.24.75.75 0 00-.07.23zm-.83-1.18a1.3 1.3 0 01.52.1 1.22 1.22 0 01.41.29 1.28 1.28 0 01.28.45 1.82 1.82 0 01.1.59v.12h-2.17a.81.81 0 00.09.29.69.69 0 00.2.25.75.75 0 00.28.18 1 1 0 00.36.06 1 1 0 00.35-.06.86.86 0 00.25-.14.73.73 0 00.2-.19l.31.32a1.2 1.2 0 01-.29.26 1.43 1.43 0 01-.35.18 1.19 1.19 0 01-.47.08 1.48 1.48 0 01-.57-.1 1.23 1.23 0 01-.44-.3 1.47 1.47 0 01-.4-1 1.63 1.63 0 01.1-.55 1.29 1.29 0 01.27-.45 1.19 1.19 0 01.43-.3 1.38 1.38 0 01.55-.11"/></g><path class="cls-6" d="M161.22 79.89h.49v4.4h-.49z"/><g class="cls-3"><path class="cls-6" d="M162.64 81.6h.49v2.69h-.49zm-.08-.86a.33.33 0 01.09-.23.37.37 0 01.24-.1.34.34 0 01.33.33.33.33 0 01-.1.23.3.3 0 01-.23.1.33.33 0 01-.24-.1.32.32 0 01-.09-.23m3.44 1.97a.6.6 0 00-.06-.24 1.11 1.11 0 00-.16-.24 1 1 0 00-.26-.18 1 1 0 00-.35-.07.89.89 0 00-.38.08.94.94 0 00-.25.18.78.78 0 00-.16.24.75.75 0 00-.07.23zm-.83-1.18a1.3 1.3 0 01.52.1 1.22 1.22 0 01.41.29 1.28 1.28 0 01.28.45 1.82 1.82 0 01.1.59v.12h-2.17a.84.84 0 00.29.54.75.75 0 00.28.18 1 1 0 00.36.06 1 1 0 00.35-.06.74.74 0 00.25-.14.73.73 0 00.2-.19l.31.32a1.2 1.2 0 01-.29.26 1.27 1.27 0 01-.35.18 1.19 1.19 0 01-.47.08 1.48 1.48 0 01-.57-.1 1.23 1.23 0 01-.44-.3 1.4 1.4 0 01-.39-1 1.63 1.63 0 01.09-.55 1.46 1.46 0 01.27-.45 1.19 1.19 0 01.43-.3 1.38 1.38 0 01.55-.11"/></g><path class="cls-6" d="M167.1 81.6l.83 1.82.82-1.82h.5l-1.34 2.8-1.34-2.8h.53z"/><g class="cls-3"><path class="cls-6" d="M171.56 82.71a.6.6 0 00-.06-.24.84.84 0 00-.16-.24.94.94 0 00-.25-.18 1 1 0 00-.36-.07.84.84 0 00-.37.08 1 1 0 00-.26.18 1 1 0 00-.22.47zm-.83-1.18a1.26 1.26 0 01.94.39 1.13 1.13 0 01.27.45 1.59 1.59 0 01.1.59v.16h-2.17a.65.65 0 00.09.29.67.67 0 00.19.25.79.79 0 00.29.18 1 1 0 00.35.06 1 1 0 00.35-.06.8.8 0 00.26-.14 1.19 1.19 0 00.2-.19l.31.32a1.2 1.2 0 01-.29.26 1.64 1.64 0 01-.35.18 1.21 1.21 0 01-.48.08 1.47 1.47 0 01-.56-.1 1.23 1.23 0 01-.44-.3 1.34 1.34 0 01-.29-.45 1.51 1.51 0 01-.11-.56 1.42 1.42 0 01.1-.55 1.29 1.29 0 01.27-.45 1.25 1.25 0 01.42-.3 1.42 1.42 0 01.55-.11m3.07 0h.43L174 82h-.31a.48.48 0 00-.27.08.74.74 0 00-.19.15.91.91 0 00-.15.23v1.84h-.49v-2.7h.45v.4a1.5 1.5 0 01.18-.24 1.66 1.66 0 01.24-.17.72.72 0 01.33-.07m.88 1.96a1.45 1.45 0 00.21.22l.25.15a1 1 0 00.35.06.75.75 0 00.21 0 .6.6 0 00.19-.06.35.35 0 00.13-.11.18.18 0 00.06-.14.32.32 0 00-.15-.27 1.49 1.49 0 00-.47-.16 1.6 1.6 0 01-.39-.11.92.92 0 01-.31-.17.52.52 0 01-.2-.24.67.67 0 01-.08-.33.72.72 0 01.07-.28.79.79 0 01.2-.25 1 1 0 01.31-.17 1.07 1.07 0 01.41-.07 1.33 1.33 0 01.42.06 2.33 2.33 0 01.31.14 1.4 1.4 0 01.26.21l-.31.33a1.39 1.39 0 00-.19-.15 1 1 0 00-.21-.1.87.87 0 00-.28 0 .62.62 0 00-.39.11.31.31 0 00-.12.23.27.27 0 00.16.25 1.64 1.64 0 00.49.16l.37.1a1.43 1.43 0 01.3.16.79.79 0 01.21.24.75.75 0 01.07.35.64.64 0 01-.09.34.85.85 0 01-.25.25 1.52 1.52 0 01-.34.15 1.74 1.74 0 01-.39 0 1.31 1.31 0 01-.5-.09 2 2 0 01-.36-.19 1.33 1.33 0 01-.29-.29zm-33.6 4.68h.49v2.69h-.49zm-.07-.86a.3.3 0 01.1-.23.32.32 0 01.23-.09.33.33 0 01.23.09.3.3 0 01.1.23.29.29 0 01-.1.23.3.3 0 01-.23.1.34.34 0 01-.33-.33m2.67.79a1 1 0 01.38.07.86.86 0 01.33.2 1 1 0 01.22.32 1 1 0 01.09.44v1.73h-.49V89.2a.9.9 0 000-.3.56.56 0 00-.35-.32.93.93 0 00-.25 0 .55.55 0 00-.29.08 1.27 1.27 0 00-.21.15 2 2 0 00-.17.23v1.85h-.49v-2.73h.46v.38a.79.79 0 01.19-.22 1.05 1.05 0 01.26-.16.84.84 0 01.37-.07M149 89a1.43 1.43 0 00-.2-.23l-.25-.15a.71.71 0 00-.34-.08.87.87 0 00-.37.08.74.74 0 00-.28.21.83.83 0 00-.18.3 1.15 1.15 0 00-.06.37 1.16 1.16 0 00.06.38.92.92 0 00.18.3.74.74 0 00.28.21.87.87 0 00.37.07.78.78 0 00.35-.07 1.4 1.4 0 00.24-.15 2.2 2.2 0 00.2-.24zm0 1.51l-.11.12a.84.84 0 01-.17.13 1.56 1.56 0 01-.26.11 1 1 0 01-.33 0 1.26 1.26 0 01-.51-.11 1.4 1.4 0 01-.41-.3 1.48 1.48 0 01-.28-.45 1.47 1.47 0 01-.1-.56A1.45 1.45 0 01147 89a1.48 1.48 0 01.28-.45 1.24 1.24 0 01.41-.3 1.26 1.26 0 01.51-.11 1.09 1.09 0 01.42.07 1.74 1.74 0 01.28.16 1.51 1.51 0 01.21.23v-.39h.45v2.7a1.66 1.66 0 01-.11.61 1.25 1.25 0 01-.31.43 1.13 1.13 0 01-.45.27 1.92 1.92 0 01-.55.08 1.26 1.26 0 01-.49-.08 1.84 1.84 0 01-.37-.17 1.58 1.58 0 01-.31-.26l.3-.36a.93.93 0 00.23.21l.27.15a1.1 1.1 0 00.37.06 1 1 0 00.68-.23.9.9 0 00.25-.69zm2.47-2.42h.4l-.19.44h-.3a.51.51 0 00-.28.08 1.57 1.57 0 00-.19.15 1.14 1.14 0 00-.15.23v1.85h-.49v-2.68h.45v.41a1.55 1.55 0 01.19-.24 1 1 0 01.23-.16.73.73 0 01.33-.08m1.88 2.37a.87.87 0 00.37-.07.74.74 0 00.28-.21.92.92 0 00.18-.3 1 1 0 00.07-.38.94.94 0 00-.07-.37.83.83 0 00-.18-.3.74.74 0 00-.28-.21.87.87 0 00-.37-.08.91.91 0 00-.37.08.91.91 0 00-.46.51 1.15 1.15 0 00-.06.37 1.21 1.21 0 00.06.38.92.92 0 00.18.3.83.83 0 00.28.21.9.9 0 00.37.07m0-2.37a1.42 1.42 0 01.55.11 1.37 1.37 0 01.44.3 1.51 1.51 0 01.29.45 1.46 1.46 0 010 1.11 1.51 1.51 0 01-.29.45 1.55 1.55 0 01-.44.3 1.43 1.43 0 01-1.1 0 1.71 1.71 0 01-.44-.3 1.51 1.51 0 01-.29-.45 1.47 1.47 0 01-.1-.56 1.45 1.45 0 01.1-.55 1.51 1.51 0 01.29-.45 1.49 1.49 0 01.44-.3 1.42 1.42 0 01.55-.11m2.96 2.83a1.23 1.23 0 01-.39-.07 1 1 0 01-.32-.2.8.8 0 01-.22-.32 1 1 0 01-.09-.44v-1.73h.49v1.65a.62.62 0 00.19.5.71.71 0 00.46.15.54.54 0 00.29-.07.57.57 0 00.21-.15.92.92 0 00.17-.22v-1.86h.48v2.69h-.45v-.42a.82.82 0 01-.2.25 1 1 0 01-.25.16.84.84 0 01-.37.08m2.51-.92a.88.88 0 00.19.24 1.1 1.1 0 00.24.15.8.8 0 00.36.07.9.9 0 00.37-.07.83.83 0 00.28-.21.9.9 0 00.17-.3 1 1 0 00.07-.38.94.94 0 00-.07-.37.74.74 0 00-.17-.3.83.83 0 00-.28-.21.91.91 0 00-.37-.08.8.8 0 00-.36.08 1.11 1.11 0 00-.24.16 1 1 0 00-.19.22zm0-1.84v.39a1.12 1.12 0 01.21-.23 1.06 1.06 0 01.69-.23 1.26 1.26 0 01.51.11 1.25 1.25 0 01.42.3 1.35 1.35 0 01.27.45 1.45 1.45 0 01.1.55 1.51 1.51 0 01-.37 1 1.6 1.6 0 01-.42.3 1.26 1.26 0 01-.51.11 1.14 1.14 0 01-.33 0 1.17 1.17 0 01-.25-.11 1.4 1.4 0 01-.18-.13.48.48 0 01-.1-.12v1.67h-.49v-4z"/></g><path class="cls-6" d="M61.31 157.82H63v.46h-1.69v1.86h-.49v-4.07h2.3v.46h-1.81v1.29z"/><g class="cls-3"><path class="cls-6" d="M64.77 160.21a1 1 0 01-.39-.07.94.94 0 01-.54-.52 1 1 0 01-.08-.44v-1.73h.48v1.65a.64.64 0 00.19.5.71.71 0 00.46.15.73.73 0 00.3-.06 1.16 1.16 0 00.21-.16.89.89 0 00.16-.22v-1.86h.49v2.69h-.46v-.41a1.12 1.12 0 01-.19.24.82.82 0 01-.26.16.84.84 0 01-.37.08m3.3-2.83a1 1 0 01.38.07.83.83 0 01.32.2 1.09 1.09 0 01.23.35 1.19 1.19 0 01.08.44v1.73h-.49v-1.65a.65.65 0 000-.29.62.62 0 00-.13-.21.72.72 0 00-.21-.12 1 1 0 00-.25 0 .58.58 0 00-.3.07 1.15 1.15 0 00-.2.15.91.91 0 00-.17.23v1.85h-.49v-2.69h.45v.38a.83.83 0 01.2-.22.76.76 0 01.25-.15.89.89 0 01.38-.08m4 2.25a1.37 1.37 0 01-.28.26 1.43 1.43 0 01-.35.18 1.32 1.32 0 01-.47.08 1.42 1.42 0 01-.55-.11 1.71 1.71 0 01-.44-.3 1.51 1.51 0 01-.29-.45 1.47 1.47 0 01-.1-.56 1.45 1.45 0 01.1-.55 1.51 1.51 0 01.29-.45 1.71 1.71 0 01.44-.3 1.42 1.42 0 01.55-.11 1.26 1.26 0 01.46.08 1.28 1.28 0 01.33.17 1.31 1.31 0 01.28.24l-.33.29a1 1 0 00-.19-.16l-.23-.12a1 1 0 00-.32 0 .9.9 0 00-.37.07.83.83 0 00-.28.21.92.92 0 00-.18.3 1.15 1.15 0 00-.06.37 1.16 1.16 0 00.06.38.92.92 0 00.18.3.83.83 0 00.28.21.9.9 0 00.37.07 1.23 1.23 0 00.35-.05 1.38 1.38 0 00.24-.14 1.19 1.19 0 00.2-.19zm.24-2.24h.53v-.82h.49v.82h.83v.44h-.83v1.45a.48.48 0 00.09.31.39.39 0 00.3.1h.2a.21.21 0 00.1-.06l.18.41a2.27 2.27 0 01-.3.13h-.25a.93.93 0 01-.29-.05.68.68 0 01-.26-.15.83.83 0 01-.19-.26.94.94 0 01-.07-.39v-1.47h-.53zm2.51 0h.49v2.69h-.49zm-.09-.86a.34.34 0 01.33-.32.33.33 0 01.24.1.32.32 0 01.1.22.37.37 0 01-.1.24.36.36 0 01-.24.09.35.35 0 01-.23-.09.37.37 0 01-.1-.24m2.61 3.16a.9.9 0 00.37-.07.83.83 0 00.28-.21.92.92 0 00.18-.3 1.16 1.16 0 00.06-.38 1.15 1.15 0 00-.06-.37.91.91 0 00-.46-.51.9.9 0 00-.37-.07.87.87 0 00-.37.07.74.74 0 00-.28.21.83.83 0 00-.18.3.94.94 0 00-.07.37 1 1 0 00.07.38.92.92 0 00.18.3.74.74 0 00.28.21.87.87 0 00.37.07m0-2.37a1.46 1.46 0 01.55.11 1.71 1.71 0 01.44.3 1.51 1.51 0 01.29.45 1.45 1.45 0 01.1.55 1.47 1.47 0 01-.1.56 1.51 1.51 0 01-.29.45 1.71 1.71 0 01-.44.3 1.46 1.46 0 01-.55.11 1.42 1.42 0 01-.55-.11 1.55 1.55 0 01-.44-.3 1.51 1.51 0 01-.29-.45 1.46 1.46 0 010-1.11 1.51 1.51 0 01.29-.45 1.55 1.55 0 01.44-.3 1.42 1.42 0 01.55-.11m3.22 0a1 1 0 01.38.07.83.83 0 01.32.2.91.91 0 01.22.32 1 1 0 01.09.44v1.73h-.49v-1.65a.84.84 0 000-.29.52.52 0 00-.14-.21.56.56 0 00-.2-.12 1.07 1.07 0 00-.25 0 .58.58 0 00-.3.07 1.15 1.15 0 00-.2.15.91.91 0 00-.17.23v1.85h-.49v-2.69h.45v.38a1 1 0 01.19-.22.93.93 0 01.26-.15.86.86 0 01.38-.08m1.79.04h.49v2.69h-.49zm-.09-.86a.34.34 0 01.33-.32.33.33 0 01.24.1.32.32 0 01.1.22.37.37 0 01-.1.24.36.36 0 01-.24.09.35.35 0 01-.23-.09.37.37 0 01-.1-.24m2.69.79a1 1 0 01.38.07.83.83 0 01.32.2 1.09 1.09 0 01.25.35 1.19 1.19 0 01.08.44v1.73h-.49v-1.65a.65.65 0 000-.29.62.62 0 00-.13-.21.72.72 0 00-.21-.12 1 1 0 00-.25 0 .58.58 0 00-.3.07 1.15 1.15 0 00-.2.15.91.91 0 00-.17.23v1.85h-.49v-2.69h.45v.38a.83.83 0 01.2-.22.76.76 0 01.25-.15.89.89 0 01.38-.08m3.67.85a1.43 1.43 0 00-.2-.23l-.25-.15a.74.74 0 00-.34-.07.87.87 0 00-.37.07.86.86 0 00-.29.21 1 1 0 00-.17.3 1.16 1.16 0 00-.06.38 1.15 1.15 0 00.06.37 1 1 0 00.17.3.86.86 0 00.29.21.87.87 0 00.37.07.86.86 0 00.34-.06 1.2 1.2 0 00.25-.16 1.5 1.5 0 00.2-.23zm0 1.51l-.11.12a.7.7 0 01-.18.13 1.17 1.17 0 01-.25.11 1.14 1.14 0 01-.33.05 1.26 1.26 0 01-.51-.11 1.4 1.4 0 01-.41-.3 1.48 1.48 0 01-.28-.45 1.45 1.45 0 01-.1-.55 1.47 1.47 0 01.1-.56 1.48 1.48 0 01.28-.45 1.4 1.4 0 01.41-.3 1.26 1.26 0 01.51-.11 1.32 1.32 0 01.42.07 2.32 2.32 0 01.28.16 2.19 2.19 0 01.21.23v-.39h.44v2.7a1.45 1.45 0 01-.11.61 1.23 1.23 0 01-.3.44 1.43 1.43 0 01-.45.26 1.63 1.63 0 01-.55.09 1.48 1.48 0 01-.49-.08 1.82 1.82 0 01-.37-.18 1.13 1.13 0 01-.31-.26l.29-.36a1.21 1.21 0 00.24.21 1 1 0 00.27.15 1.06 1.06 0 00.37.06 1 1 0 00.68-.23.92.92 0 00.25-.69zm4.84-1.51a1.43 1.43 0 00-.2-.23 1.67 1.67 0 00-.24-.15.75.75 0 00-.35-.07.86.86 0 00-.36.07.78.78 0 00-.29.21 1.49 1.49 0 00-.18.3 1.16 1.16 0 00-.06.38 1.15 1.15 0 00.06.37 1.26 1.26 0 00.18.3.78.78 0 00.29.21.86.86 0 00.36.07.75.75 0 00.35-.07.82.82 0 00.24-.15 1.1 1.1 0 00.2-.23zm.49-.84v2.69h-.45v-.39a1.19 1.19 0 01-.22.23 1 1 0 01-.28.16 1.32 1.32 0 01-.42.07 1.22 1.22 0 01-.5-.11 1.4 1.4 0 01-.41-.3 1.48 1.48 0 01-.28-.45 1.45 1.45 0 01-.1-.55 1.47 1.47 0 01.1-.56 1.48 1.48 0 01.28-.45 1.4 1.4 0 01.41-.3 1.22 1.22 0 01.5-.11 1.08 1.08 0 01.42.08.83.83 0 01.28.16.92.92 0 01.22.22v-.39zm.88 1.88a1.45 1.45 0 00.21.22l.26.15a.91.91 0 00.35.07h.2l.19-.07a.5.5 0 00.14-.1.25.25 0 000-.15.32.32 0 00-.15-.27 1.7 1.7 0 00-.46-.16 1.68 1.68 0 01-.4-.11 1.29 1.29 0 01-.31-.16.91.91 0 01-.2-.24.72.72 0 01-.07-.33.59.59 0 01.07-.29.76.76 0 01.2-.25.92.92 0 01.31-.17 1 1 0 01.41-.07 1.16 1.16 0 01.42.07 1.8 1.8 0 01.31.14 1.37 1.37 0 01.26.2l-.32.33a.94.94 0 00-.19-.14.82.82 0 00-.21-.11.76.76 0 00-.27-.05.59.59 0 00-.39.11.33.33 0 00-.13.24.28.28 0 00.16.24 1.72 1.72 0 00.5.16l.36.11a1 1 0 01.31.16.68.68 0 01.2.24.71.71 0 01.08.34.57.57 0 01-.1.34.82.82 0 01-.24.25 1.09 1.09 0 01-.35.15 1.65 1.65 0 01-.38.05 1.28 1.28 0 01-.5-.09 1.49 1.49 0 01-.36-.19 1.33 1.33 0 01-.29-.29zm-29.76 6.92a1.59 1.59 0 01-.63.44 1.36 1.36 0 01-.47.08 1.42 1.42 0 01-.55-.11 1.55 1.55 0 01-.44-.3 1.51 1.51 0 01-.29-.45 1.45 1.45 0 01-.1-.55 1.47 1.47 0 01.1-.56 1.35 1.35 0 01.29-.44 1.4 1.4 0 01.44-.31 1.42 1.42 0 01.55-.11 1.3 1.3 0 01.46.08 1.28 1.28 0 01.33.17 1.61 1.61 0 01.28.24l-.33.29-.19-.16a1.33 1.33 0 00-.24-.11.75.75 0 00-.31 0 .87.87 0 00-.37.07.83.83 0 00-.28.21.92.92 0 00-.18.3 1 1 0 00-.07.38.94.94 0 00.07.37.91.91 0 00.46.51 1.09 1.09 0 00.71 0 1.17 1.17 0 00.25-.14.86.86 0 00.19-.19zm1.86-2.31a1 1 0 01.38.07.83.83 0 01.32.2.91.91 0 01.22.32 1 1 0 01.09.44v1.73h-.49v-1.65a.84.84 0 00-.05-.29.52.52 0 00-.14-.21.56.56 0 00-.2-.12 1.07 1.07 0 00-.25 0 .58.58 0 00-.3.07 1.15 1.15 0 00-.2.15.91.91 0 00-.17.23v1.85h-.49v-4.4h.49v2l.09-.11a.7.7 0 01.16-.13 1 1 0 01.23-.11 1 1 0 01.31-.05m2.77 2.84a1 1 0 01-.39-.07.83.83 0 01-.32-.2.74.74 0 01-.22-.32 1 1 0 01-.09-.44V164h.49v1.65a.61.61 0 00.19.5.71.71 0 00.46.16.65.65 0 00.29-.07.72.72 0 00.21-.16.76.76 0 00.17-.22V164h.48v2.69h-.45v-.41a.91.91 0 01-.2.24 1 1 0 01-.25.17.84.84 0 01-.37.07m3.22-2.82h.39l-.18.44H73a.45.45 0 00-.27.07 1 1 0 00-.19.15 1.14 1.14 0 00-.15.23v1.85h-.49V164h.45v.42a1.08 1.08 0 01.18-.24.92.92 0 01.24-.17.67.67 0 01.33-.08m2.97 2.32a1.59 1.59 0 01-.63.44 1.36 1.36 0 01-.47.08 1.42 1.42 0 01-.55-.11 1.55 1.55 0 01-.44-.3 1.51 1.51 0 01-.29-.45 1.45 1.45 0 01-.1-.55 1.47 1.47 0 01.1-.56 1.35 1.35 0 01.29-.44 1.4 1.4 0 01.44-.31 1.42 1.42 0 01.55-.11 1.3 1.3 0 01.46.08 1.28 1.28 0 01.33.17 1.61 1.61 0 01.28.24l-.33.29-.19-.16a1.33 1.33 0 00-.24-.11.75.75 0 00-.31 0 .87.87 0 00-.37.07.83.83 0 00-.28.21.92.92 0 00-.18.3 1 1 0 00-.07.38.94.94 0 00.07.37.91.91 0 00.46.51 1.09 1.09 0 00.71 0 1.17 1.17 0 00.25-.14.86.86 0 00.19-.19zm1.86-2.31a1 1 0 01.38.07.83.83 0 01.32.2.91.91 0 01.22.32 1 1 0 01.09.44v1.73h-.49v-1.65a.84.84 0 000-.29.52.52 0 00-.14-.21.56.56 0 00-.2-.12 1.07 1.07 0 00-.25 0 .58.58 0 00-.3.07 1.15 1.15 0 00-.2.15.91.91 0 00-.17.23v1.85h-.49v-4.4h.49v2l.09-.11a.7.7 0 01.16-.13 1 1 0 01.23-.11 1 1 0 01.31-.05m4.23 3.69c-.14-.21-.26-.42-.37-.62a3.71 3.71 0 01-.28-.61 3.57 3.57 0 01-.18-.66 4.22 4.22 0 01-.06-.75 4.38 4.38 0 01.06-.75 3.69 3.69 0 01.18-.65 3.81 3.81 0 01.28-.62c.11-.2.23-.4.37-.61l.36.25c-.13.19-.24.38-.34.55a3.87 3.87 0 00-.25.55 2.83 2.83 0 00-.15.59 3.73 3.73 0 000 .69 3.84 3.84 0 000 .7 2.83 2.83 0 00.15.59 3.76 3.76 0 00.25.54c.1.18.21.37.34.56z"/></g><path class="cls-6" d="M84.17 165.1l-1.37-2.47h.54l1.1 2 1.07-2h.52l-1.37 2.47v1.6h-.49v-1.6z"/><path class="cls-6" transform="rotate(-66.11 87.57 164.773)" d="M84.73 164.56h5.7v.43h-5.7z"/><path class="cls-6" d="M89.97 162.63l2.18 3.25v-3.25h.49v4.07h-.5l-2.18-3.26v3.26h-.49v-4.07h.5z"/><g class="cls-3"><path class="cls-6" d="M93.28 167.37c.12-.19.24-.38.33-.56a2.92 2.92 0 00.25-.54 4 4 0 00.16-.59 5 5 0 000-.7 4.86 4.86 0 000-.69 3.65 3.65 0 00-.16-.59 3 3 0 00-.25-.55c-.09-.17-.21-.36-.33-.55l.35-.25c.14.21.27.41.38.61a4.91 4.91 0 01.28.62 4.77 4.77 0 01.17.65 4.38 4.38 0 01.06.75 4.22 4.22 0 01-.06.75 4.55 4.55 0 01-.17.66 4.78 4.78 0 01-.29.61c-.11.2-.24.41-.38.62z"/></g><path class="cls-7" d="M126 158.4h.63l.1-.69h-.63zm-1.1-1.21h.75l.18-1.22.5.07-.16 1.15h.63l.2-1.19.5.07-.16 1.15h.66v.52h-.75l-.1.69h.68v.52h-.75l-.18 1.32-.52-.07.18-1.25h-.63l-.18 1.32-.52-.07.18-1.25h-.68v-.52h.75l.1-.69h-.68z"/><path class="cls-6" d="M130.46 156.07h.49v4.07h-.49z"/><g class="cls-3"><path class="cls-6" d="M133.16 157.38a1 1 0 01.38.07.83.83 0 01.32.2.94.94 0 01.23.32 1.19 1.19 0 01.08.44v1.73h-.49v-1.65a.85.85 0 000-.29.64.64 0 00-.14-.21.72.72 0 00-.21-.12 1 1 0 00-.25 0 .6.6 0 00-.3.07 1.15 1.15 0 00-.2.15 1.24 1.24 0 00-.17.23v1.85h-.49v-2.69h.46v.38a.79.79 0 01.19-.22.76.76 0 01.25-.15.89.89 0 01.38-.08m5.33.88a2.2 2.2 0 00-.2-.23l-.25-.15a.71.71 0 00-.34-.07.9.9 0 00-.37.07.83.83 0 00-.28.21.92.92 0 00-.18.3 1.16 1.16 0 00-.06.38 1.15 1.15 0 00.06.37.91.91 0 00.46.51.9.9 0 00.37.07.71.71 0 00.34-.07.87.87 0 00.25-.15 1.5 1.5 0 00.2-.23zm.49-.84v2.69h-.45v-.39a1.19 1.19 0 01-.22.23 1.21 1.21 0 01-.28.16 1.32 1.32 0 01-.42.07 1.18 1.18 0 01-.5-.11 1.4 1.4 0 01-.41-.3 1.48 1.48 0 01-.28-.45 1.45 1.45 0 01-.1-.55 1.47 1.47 0 01.1-.56 1.48 1.48 0 01.28-.45 1.4 1.4 0 01.41-.3 1.18 1.18 0 01.5-.11 1.08 1.08 0 01.42.08.94.94 0 01.28.16.92.92 0 01.22.22v-.39zm3.04 2.24a1.42 1.42 0 01-.29.26 1.36 1.36 0 01-.81.26 1.42 1.42 0 01-.55-.11 1.55 1.55 0 01-.44-.3 1.34 1.34 0 01-.29-.45 1.46 1.46 0 010-1.11 1.34 1.34 0 01.29-.45 1.55 1.55 0 01.44-.3 1.42 1.42 0 01.55-.11 1.34 1.34 0 01.46.08 1.28 1.28 0 01.33.17 1.61 1.61 0 01.28.24l-.34.29a.74.74 0 00-.19-.16l-.23-.12a1 1 0 00-.31 0 .87.87 0 00-.37.07.74.74 0 00-.28.21.92.92 0 00-.18.3.94.94 0 00-.07.37 1 1 0 00.07.38.92.92 0 00.18.3.74.74 0 00.28.21.87.87 0 00.37.07 1.16 1.16 0 00.34-.05 1.2 1.2 0 00.44-.33zm2.77 0a1.59 1.59 0 01-.63.44 1.36 1.36 0 01-.47.08 1.42 1.42 0 01-.55-.11 1.55 1.55 0 01-.44-.3 1.51 1.51 0 01-.29-.45 1.47 1.47 0 01-.1-.56 1.45 1.45 0 01.1-.55 1.51 1.51 0 01.29-.45 1.55 1.55 0 01.44-.3 1.42 1.42 0 01.55-.11 1.3 1.3 0 01.46.08 1.28 1.28 0 01.33.17 1.61 1.61 0 01.28.24l-.33.29a1 1 0 00-.19-.16l-.24-.12a1 1 0 00-.31 0 .87.87 0 00-.37.07.83.83 0 00-.28.21.92.92 0 00-.18.3.94.94 0 00-.07.37 1 1 0 00.07.38.92.92 0 00.18.3.83.83 0 00.28.21.87.87 0 00.37.07 1.11 1.11 0 00.34-.05 1.17 1.17 0 00.25-.14.86.86 0 00.19-.19zm1.67.06a.87.87 0 00.37-.07.74.74 0 00.28-.21.92.92 0 00.18-.3 1 1 0 00.07-.38.94.94 0 00-.07-.37.83.83 0 00-.18-.3.74.74 0 00-.28-.21.87.87 0 00-.37-.07.9.9 0 00-.37.07.91.91 0 00-.46.51 1.15 1.15 0 00-.06.37 1.16 1.16 0 00.06.38.92.92 0 00.18.3.83.83 0 00.28.21.9.9 0 00.37.07m0-2.37a1.42 1.42 0 01.55.11 1.55 1.55 0 01.44.3 1.51 1.51 0 01.29.45 1.46 1.46 0 010 1.11 1.51 1.51 0 01-.29.45 1.55 1.55 0 01-.44.3 1.43 1.43 0 01-1.1 0 1.71 1.71 0 01-.44-.3 1.51 1.51 0 01-.29-.45 1.47 1.47 0 01-.1-.56 1.45 1.45 0 01.1-.55 1.51 1.51 0 01.29-.45 1.71 1.71 0 01.44-.3 1.42 1.42 0 01.55-.11m2.96 2.83a1 1 0 01-.39-.07.83.83 0 01-.32-.2.85.85 0 01-.23-.32 1.19 1.19 0 01-.08-.44v-1.73h.49v1.65a.61.61 0 00.19.5.69.69 0 00.46.15.65.65 0 00.29-.06.72.72 0 00.21-.16.92.92 0 00.17-.22v-1.86h.48v2.69h-.45v-.41a.91.91 0 01-.2.24.77.77 0 01-.25.16.84.84 0 01-.37.08m3.3-2.83a1 1 0 01.38.07.83.83 0 01.32.2.91.91 0 01.22.32 1 1 0 01.09.44v1.73h-.49v-1.65a.84.84 0 00-.05-.29.52.52 0 00-.14-.21.56.56 0 00-.2-.12 1.09 1.09 0 00-.26 0 .54.54 0 00-.29.07l-.21.15a1.19 1.19 0 00-.16.23v1.85h-.49v-2.69h.45v.38a1 1 0 01.19-.22.93.93 0 01.26-.15.86.86 0 01.38-.08m1.52.04h.52v-.82h.49v.82h.84v.44h-.84v1.45a.43.43 0 00.1.31.37.37 0 00.29.1h.21a.21.21 0 00.1-.06l.18.41-.31.13h-.25a1 1 0 01-.29-.05.76.76 0 01-.26-.15.81.81 0 01-.18-.26.93.93 0 01-.08-.39v-1.47h-.52zm4.4.84a1.43 1.43 0 00-.2-.23 1.25 1.25 0 00-.24-.15.74.74 0 00-.34-.07.87.87 0 00-.37.07.86.86 0 00-.29.21 1.49 1.49 0 00-.18.3 1.16 1.16 0 00-.06.38 1.15 1.15 0 00.06.37 1.26 1.26 0 00.18.3.86.86 0 00.29.21.87.87 0 00.37.07.74.74 0 00.34-.07.7.7 0 00.24-.15 1.1 1.1 0 00.2-.23zm.49-.84v2.69h-.45v-.39a1.51 1.51 0 01-.21.23 1.3 1.3 0 01-.29.16 1.24 1.24 0 01-.92 0 1.55 1.55 0 01-.41-.3 1.48 1.48 0 01-.28-.45 1.59 1.59 0 010-1.11 1.48 1.48 0 01.28-.45 1.55 1.55 0 01.41-.3 1.22 1.22 0 01.5-.11 1 1 0 01.42.08 1 1 0 01.29.16 1.1 1.1 0 01.21.22v-.39zm1.34 1.84a1 1 0 00.19.23 1.11 1.11 0 00.24.16.8.8 0 00.36.07.9.9 0 00.37-.07.83.83 0 00.28-.21 1.49 1.49 0 00.18-.3 1.11 1.11 0 000-.75.91.91 0 00-.46-.51.86.86 0 00-.36-.07.8.8 0 00-.36.07 1.11 1.11 0 00-.24.16 1 1 0 00-.19.23zm.86-1.91a1.26 1.26 0 01.51.11 1.6 1.6 0 01.42.3 1.54 1.54 0 010 2 1.6 1.6 0 01-.42.3 1.26 1.26 0 01-.51.11 1.21 1.21 0 01-.41-.07 1 1 0 01-.28-.16.9.9 0 01-.21-.23v.39H160v-4.4h.49v2a.78.78 0 01.21-.19 1 1 0 01.26-.14 1 1 0 01.39-.07m1.97.12h.49v2.69h-.49zm-.09-.86a.28.28 0 01.1-.22.3.3 0 01.23-.1.33.33 0 01.24.1.31.31 0 01.09.22.31.31 0 01-.33.33.33.33 0 01-.23-.09.33.33 0 01-.1-.24"/></g><path class="cls-6" d="M164.74 155.74h.49v4.39h-.49z"/><g class="cls-3"><path class="cls-6" d="M166.17 157.45h.49v2.69h-.49zm-.09-.86a.28.28 0 01.1-.22.3.3 0 01.23-.1.29.29 0 01.23.1.28.28 0 01.1.22.33.33 0 01-.1.24.32.32 0 01-.23.09.33.33 0 01-.23-.09.33.33 0 01-.1-.24m1.17.86h.53v-.82h.49v.82h.83v.44h-.83v1.45a.48.48 0 00.09.31.39.39 0 00.3.1h.2a.21.21 0 00.1-.06l.18.41a2.27 2.27 0 01-.3.13h-.25a.93.93 0 01-.29-.05.68.68 0 01-.3-.18.83.83 0 01-.19-.26.94.94 0 01-.07-.39v-1.47h-.53zm2.42 3.55l.1.07h.22a.28.28 0 00.25-.11 1 1 0 00.16-.3l.21-.53-1.25-2.7h.55l.94 2.12.8-2.12h.53l-.68 1.72-.25.64c-.09.21-.16.4-.23.57s-.13.31-.17.43a1.72 1.72 0 01-.08.19.79.79 0 01-.32.42.84.84 0 01-.42.12h-.23l-.18-.07-.16-.1zm-27.52 3.85a1.43 1.43 0 00-.2-.23l-.25-.15a.74.74 0 00-.34-.07.87.87 0 00-.37.07.74.74 0 00-.28.21.83.83 0 00-.18.3 1.16 1.16 0 00-.06.38 1.15 1.15 0 00.06.37.83.83 0 00.18.3.74.74 0 00.28.21.87.87 0 00.37.07 1 1 0 00.35-.06 1.43 1.43 0 00.24-.16 1.5 1.5 0 00.2-.23zm0 1.51l-.11.12a.84.84 0 01-.17.13 1.56 1.56 0 01-.26.11 1 1 0 01-.33.05 1.26 1.26 0 01-.51-.11 1.4 1.4 0 01-.41-.3 1.48 1.48 0 01-.28-.45 1.45 1.45 0 01-.1-.55 1.47 1.47 0 01.1-.56 1.48 1.48 0 01.28-.45 1.4 1.4 0 01.41-.3 1.26 1.26 0 01.51-.11 1.32 1.32 0 01.42.07 1.74 1.74 0 01.28.16 2.19 2.19 0 01.21.23v-.4h.45v2.7a1.62 1.62 0 01-.11.61 1.4 1.4 0 01-.31.44 1.24 1.24 0 01-.45.26 1.63 1.63 0 01-.55.09 1.48 1.48 0 01-.49-.08 1.82 1.82 0 01-.37-.18 1.13 1.13 0 01-.31-.26l.3-.36a.93.93 0 00.23.21 1.17 1.17 0 00.27.15 1.06 1.06 0 00.37.06 1 1 0 00.68-.23.89.89 0 00.25-.69zm2.43-2.42h.39l-.18.44h-.31a.47.47 0 00-.27.07 1 1 0 00-.19.15 1.14 1.14 0 00-.15.23v1.85h-.49V164h.45v.42a1.5 1.5 0 01.18-.24 1.13 1.13 0 01.24-.17.73.73 0 01.33-.08m1.88 2.38a.87.87 0 00.37-.07.83.83 0 00.28-.21.92.92 0 00.18-.3 1 1 0 00.07-.38.94.94 0 00-.07-.37.91.91 0 00-.46-.51.87.87 0 00-.37-.07.9.9 0 00-.37.07.91.91 0 00-.46.51 1.15 1.15 0 00-.06.37 1.16 1.16 0 00.06.38.92.92 0 00.18.3.83.83 0 00.28.21.9.9 0 00.37.07m0-2.37a1.42 1.42 0 01.55.11 1.55 1.55 0 01.44.3 1.51 1.51 0 01.29.45 1.46 1.46 0 010 1.11 1.51 1.51 0 01-.29.45 1.55 1.55 0 01-.44.3 1.43 1.43 0 01-1.1 0 1.71 1.71 0 01-.44-.3 1.51 1.51 0 01-.29-.45 1.47 1.47 0 01-.1-.56 1.45 1.45 0 01.1-.55 1.51 1.51 0 01.29-.45 1.71 1.71 0 01.44-.3 1.42 1.42 0 01.55-.11m2.95 2.83a1 1 0 01-.38-.07.83.83 0 01-.32-.2.85.85 0 01-.23-.32 1.19 1.19 0 01-.08-.44V164h.49v1.65a.61.61 0 00.19.5.69.69 0 00.46.16.65.65 0 00.29-.07.72.72 0 00.21-.16.76.76 0 00.17-.22V164h.48v2.69h-.45v-.41a.91.91 0 01-.2.24 1 1 0 01-.25.17.86.86 0 01-.38.07m2.52-.9a1 1 0 00.19.23.82.82 0 00.24.15.8.8 0 00.36.08.91.91 0 00.37-.08.83.83 0 00.28-.21 1 1 0 00.18-.3 1.15 1.15 0 00.06-.37 1.16 1.16 0 00-.06-.38 1.14 1.14 0 00-.18-.3.83.83 0 00-.28-.21.9.9 0 00-.37-.07.8.8 0 00-.36.07 1.11 1.11 0 00-.24.16 1 1 0 00-.19.23zm0-1.85v.39a.87.87 0 01.21-.22 1.21 1.21 0 01.28-.16 1 1 0 01.41-.08 1.26 1.26 0 01.51.11 1.6 1.6 0 01.42.3 1.54 1.54 0 010 2 1.4 1.4 0 01-.42.3 1.26 1.26 0 01-.51.11 1.14 1.14 0 01-.33-.05 1.17 1.17 0 01-.25-.11.83.83 0 01-.18-.13.47.47 0 01-.1-.11V168h-.49v-4zm2.88 1.88a1.1 1.1 0 00.21.22.93.93 0 00.26.15.91.91 0 00.35.07h.21l.18-.07a.5.5 0 00.14-.1.24.24 0 00.05-.14.29.29 0 00-.15-.27 1.39 1.39 0 00-.46-.17 1.68 1.68 0 01-.4-.11 1.29 1.29 0 01-.31-.16.91.91 0 01-.2-.24.72.72 0 01-.07-.33.59.59 0 01.07-.29.76.76 0 01.2-.25.92.92 0 01.31-.17 1.25 1.25 0 01.41-.07 1.16 1.16 0 01.42.07 1.8 1.8 0 01.31.14 1.37 1.37 0 01.26.2l-.32.33a.94.94 0 00-.19-.14.82.82 0 00-.21-.11.76.76 0 00-.27-.05.59.59 0 00-.39.11.33.33 0 00-.13.24.28.28 0 00.16.24 1.69 1.69 0 00.5.17 1.89 1.89 0 01.36.1 1 1 0 01.31.16.68.68 0 01.2.24.71.71 0 01.08.34.55.55 0 01-.1.34.82.82 0 01-.24.25 1.09 1.09 0 01-.35.15 1.65 1.65 0 01-.38.05 1.28 1.28 0 01-.5-.09 1.49 1.49 0 01-.36-.19 1.33 1.33 0 01-.29-.29z"/><path class="cls-7" d="M93 14.32v-.86h-.92v-.65h1.61v1.85a2.24 2.24 0 01-1.51.51 2.09 2.09 0 01-2.14-2.1A2.07 2.07 0 0192.18 11a2 2 0 011.51.61l-.48.47a1.32 1.32 0 00-1-.43 1.41 1.41 0 00-1.4 1.46 1.43 1.43 0 001.43 1.45 1.34 1.34 0 00.82-.2m3.2-2L96 13a.8.8 0 00-.33-.06.72.72 0 00-.61.37v1.8h-.7v-2.77H95v.41a.9.9 0 01.75-.48 1.49 1.49 0 01.48.09m2.34 1.36a.76.76 0 10-1.52 0 .76.76 0 101.52 0m.71 0a1.47 1.47 0 11-1.47-1.44 1.45 1.45 0 011.47 1.44m.51.41v-1.79h.7v1.6c0 .41.19.58.55.58a.66.66 0 00.54-.34v-1.84h.7v2.76h-.65v-.4a1 1 0 01-1.84-.57m3.88.01a.77.77 0 00.66.38.8.8 0 000-1.59.77.77 0 00-.66.38zm0-1.8v.36a1 1 0 01.83-.42 1.45 1.45 0 010 2.89 1 1 0 01-.78-.35v1.62H103v-4.1z"/></g><path class="cls-7" d="M108.1 10.71h.7v4.4h-.7z"/><g class="cls-3"><path class="cls-7" d="M111.47 13.47a.65.65 0 00-.7-.56.63.63 0 00-.67.56zm.69.24V14h-2.06a.78.78 0 00.77.56 1.13 1.13 0 00.76-.28l.35.53a1.8 1.8 0 01-1.11.39 1.45 1.45 0 01-1.48-1.45 1.39 1.39 0 112.77 0m2.45-.44a.76.76 0 00-.65-.38.8.8 0 000 1.59.76.76 0 00.65-.38zm.7-1v2.79h-.65v-.36a.94.94 0 01-.83.43 1.45 1.45 0 010-2.89 1 1 0 01.83.42v-.36zm2.63 1a.76.76 0 00-.65-.38.8.8 0 000 1.59.76.76 0 00.65-.38zm.7 1.79H118v-.36a.94.94 0 01-.83.43 1.45 1.45 0 010-2.89 1 1 0 01.78.36v-1.93h.7zm2.67-1.63a.64.64 0 00-.69-.56.63.63 0 00-.68.56zm.7.24v.26h-2.06a.78.78 0 00.77.56 1.1 1.1 0 00.76-.28l.35.53a1.8 1.8 0 01-1.11.39 1.45 1.45 0 01-1.48-1.45 1.39 1.39 0 112.78 0m2.39-1.36l-.25.63a.86.86 0 00-.33-.06.75.75 0 00-.62.37v1.8h-.69v-2.76h.66v.41a.9.9 0 01.75-.48 1.49 1.49 0 01.48.09m4.59.96v1.78h-.69v-1.61a.51.51 0 00-.55-.56.69.69 0 00-.55.35v1.82h-.69v-2.76h.65v.41a.94.94 0 01.82-.48 1 1 0 011 1.05m2.61-.01a.78.78 0 00-.65-.38.8.8 0 000 1.59.78.78 0 00.65-.38zm.69-1v2.79h-.64v-.36a1 1 0 01-.83.43 1.45 1.45 0 010-2.89 1 1 0 01.83.42v-.36zm4.87 1.02v1.77h-.7v-1.59c0-.38-.15-.58-.5-.58a.66.66 0 00-.54.35v1.82h-.7v-1.59c0-.38-.14-.58-.49-.58a.64.64 0 00-.54.35v1.82H133v-2.76h.65v.41a1 1 0 01.82-.48.88.88 0 01.85.49 1 1 0 01.88-.49 1 1 0 011 1.06m2.54.14a.7.7 0 00-1.37 0zm.7.24v.26h-2.06a.79.79 0 00.78.56 1.09 1.09 0 00.75-.28l.35.53a1.75 1.75 0 01-1.1.39 1.45 1.45 0 01-1.48-1.45 1.39 1.39 0 112.77 0"/></g><path class="cls-7" d="M89.15 228h.7v3.41h1.73v.66h-2.43V228z"/><g class="cls-3"><path class="cls-7" d="M94 230.69a.76.76 0 10-.76.8.75.75 0 00.76-.8m.71 0a1.47 1.47 0 11-1.47-1.44 1.45 1.45 0 011.47 1.44m2.51.46l.46.47a1.51 1.51 0 01-1.14.52 1.45 1.45 0 110-2.89 1.48 1.48 0 011.13.51l-.49.43a.84.84 0 00-.64-.29.8.8 0 000 1.59.81.81 0 00.68-.34m2.85-.87a.76.76 0 00-.65-.38.8.8 0 000 1.59.76.76 0 00.65-.38zm.7-1v2.75h-.65v-.36a1 1 0 01-.83.43 1.45 1.45 0 010-2.89 1 1 0 01.83.43v-.36zm.47.04h.54v-.82h.7v.82h.83v.62h-.83v1.11c0 .34.17.44.36.44a.53.53 0 00.29-.1l.26.57a1.26 1.26 0 01-.67.18.92.92 0 01-.94-1v-1.23h-.54zm2.76 0h.7v2.75h-.7zm.35-1.35a.45.45 0 01.46.46.46.46 0 11-.92 0 .45.45 0 01.46-.46m3.19 2.72a.76.76 0 10-.76.8.75.75 0 00.76-.8m.71 0a1.47 1.47 0 11-1.47-1.44 1.45 1.45 0 011.47 1.44m3-.4v1.78h-.69v-1.61a.51.51 0 00-.55-.56.69.69 0 00-.55.35v1.82h-.7v-2.75h.66v.4a.94.94 0 01.82-.47 1 1 0 011 1"/></g><path class="cls-7" d="M112.19 232.89l-.55-.25 2.32-5.22.56.25-2.33 5.22z"/><g class="cls-3"><path class="cls-7" d="M116.35 230.38c-.6-.21-1.28-.54-1.28-1.3a1.24 1.24 0 011.33-1.15 1.76 1.76 0 011.33.65l-.48.48a1.18 1.18 0 00-.85-.46c-.35 0-.62.21-.62.48s.32.47.88.68 1.14.51 1.14 1.25-.65 1.13-1.42 1.13a1.78 1.78 0 01-1.49-.83l.52-.44a1.25 1.25 0 001 .61c.35 0 .71-.14.71-.47s-.26-.47-.74-.63m1.83-1.06h.54v-.82h.7v.82h.83v.62h-.83v1.11c0 .34.17.44.36.44a.53.53 0 00.29-.1l.26.57a1.3 1.3 0 01-.67.18.92.92 0 01-.94-1v-1.23h-.54zm4.58.96a.79.79 0 00-.66-.38.8.8 0 000 1.59.79.79 0 00.66-.38zm.69-1v2.75h-.64v-.36a1 1 0 01-.83.43 1.45 1.45 0 010-2.89 1 1 0 01.83.43v-.36zm2.59.05l-.24.63a.88.88 0 00-.34-.06.72.72 0 00-.61.37v1.8h-.7v-2.75h.66v.4a.9.9 0 01.75-.47 1.65 1.65 0 01.48.08m.14-.01h.54v-.82h.7v.82h.83v.62h-.83v1.11c0 .34.17.44.36.44a.53.53 0 00.29-.1l.26.57a1.3 1.3 0 01-.67.18.92.92 0 01-.94-1v-1.23h-.54zm6.28.96a.76.76 0 00-1.41.42.74.74 0 00.76.79.75.75 0 00.65-.38zm.7 1.79h-.64v-.36a1 1 0 01-.84.43 1.45 1.45 0 010-2.89 1 1 0 01.78.36v-1.93h.7zm2.72-1.79a.78.78 0 00-.65-.38.8.8 0 000 1.59.78.78 0 00.65-.38zm.69-1v2.75h-.6v-.36a1 1 0 01-.83.43 1.45 1.45 0 010-2.89 1 1 0 01.83.43v-.36zm.48.04h.54v-.82h.7v.82h.83v.62h-.83v1.11c0 .34.17.44.36.44a.53.53 0 00.29-.1l.26.57a1.3 1.3 0 01-.67.18.92.92 0 01-.94-1v-1.23h-.54zm4.53 1.12a.64.64 0 00-.69-.56.65.65 0 00-.68.56zm.7.24v.27h-2.06a.8.8 0 00.78.55 1.09 1.09 0 00.75-.28l.35.53a1.75 1.75 0 01-1.1.39 1.45 1.45 0 01-1.49-1.44 1.39 1.39 0 112.78 0"/></g></svg>