<svg version="1" xmlns="http://www.w3.org/2000/svg" width="432" height="432"><circle fill="none" stroke="#000" stroke-width="2" stroke-miterlimit="10" cx="216.2" cy="216.2" r="87"/><circle fill="none" stroke="#000" stroke-width="2" stroke-miterlimit="10" cx="216.2" cy="216.2" r="80.2"/><path d="M216.3 140.6v21.2m-42.6-6.2l12.4 17.3M150.4 184l19.5 8.3m-26.2 22.5h22m93-58.4l-12.4 17.3m35.7 11.2l-19.5 8.3m26.2 22.5h-22m-50.4 76v-21.2m-42.6 6.2l12.4-17.3m-35.7-11.1l19.5-8.3m88.8 35.9l-12.4-17.3m35.7-11.2l-19.5-8.3" fill="none" stroke="#000" stroke-width="2" stroke-miterlimit="10"/><g fill="none" stroke="#000" stroke-width="2" stroke-miterlimit="10"><path d="M207.9 220.2c-1 2-4.8 9.4-4.8 9.4s3.6.5 6.9 1m8.2-1.8c10.3-7.7 35.7-26.8 35.7-26.8s-21.1 8.2-34.7 13.4"/><path d="M212.5 177.6l-5.3 48.8 6.4 9 6.9-9.6z"/></g></svg>