<svg version="1" xmlns="http://www.w3.org/2000/svg" width="288" height="288"><g fill="none" stroke="#000" stroke-width="2" stroke-miterlimit="10"><ellipse transform="rotate(-79.432 175.84 87.868)" cx="175.8" cy="87.9" rx="21.2" ry="13.8"/><path d="M169 155.5c-2.6 13.5-5 25.8-5 25.8s-26.8.5-34.4-9.3c0 0 5.2-40.4 22.6-65.4 0 0 16.6 6.2 23.6 13.6 0 0-1.9 9.7-4.1 21.4"/><path d="M164 181.2l14 30.3s-46.3 10.7-73.8-13.1l3.5-8.3s29.6 14.6 51.9 3m-30.1-21.2s-4.6 16.9 8.6 25.7"/><path d="M107.6 190.1l-4.9-3.1-17.9 24.8 14.1 3.5 6.4-14.9m.9-12.6l3.3-3.1s9.6 7.7 23.2 7.5"/><path d="M100.4 211.8l7.2-2.7 2.4-6.3m55.2-97.5l-2.9 5.8 7.2 4.1 2.4-6.5m-7.2 11.4s5.2 19.9 9.2 24.7c0 0 11-3 19.3-14.8l4.5 2.4s-6.1 26-33.1 23.9c0 0-11.4-13.6-12.1-28.2m21.5 16.7l-9.3 11.5m28.6-26.3l-.9-9.9 2.4-1.4 3.5-10.6 3.7 1.2s1.6 7.8 1.2 11.9c-.3 4.1-5.4 10.8-5.4 10.8"/><path d="M197.8 108.1h-3.2l-3.6 8.4h-2.4v11.7s-6.7 10.2-15.4 9.5m16.2-9.1l3 1.8"/></g></svg>