<svg version="1" xmlns="http://www.w3.org/2000/svg" width="432" height="432"><path fill="#27AAE1" d="M223.4 71.3s25.5 25.1 0 49.1c0 0 13.4-1.8 15.2-20.8s-9-28-15.2-28.3zm10.1 54l-2.4 77.8-23.1 4.3 23.1.5 2.4 136.5 13.9 14.9 11.8-4.5-23.1-10.4 2.7-143.3 4.8-75z"/><path fill="#27AAE1" d="M215.1 207.9l-4.2 136.5-19.5 11.8 15 6.6 8.7-18.4 7.5-136.5z"/><path d="M202.3 126.1l-10.3 5.6-8.1 15.3 18.4-9.7zm42.6-.7l7.6 22.6-8.9 10.4-1.6-3.1 1.6-29.9z"/><g fill="none" stroke="#000" stroke-miterlimit="10"><path stroke-width="2" d="M235.4 72.7s-13.6 4-20.7.8m20.7 3.2c-.8.4-15.5 3.5-23.4.9m25 2.6s-13.5 4.7-26.9 1.1m18.2 37.8v7h-9.4v-6.8m24.7 6.8h-41.3l4.1 81.8h32.4z"/><path stroke-width="2" d="M202.3 126.1l-9.4 5.1 9.4-19.9 15.4-1.1 1.1-6.9-16.5-.9-25.4 29.2-.3 13.9 26.2-8.4m-.5-34.7v8.9m41.1 14.8l15.8 38.1-3.5 50.6h-6.4l-1.9-46.2-5.4-15.5"/><path stroke-width="2" d="M249.4 214.7l-4.5 7.8 3.5 2 3.5-3.8 1 16.5 7.2-6.8-4.4-15.7m-8.3-46.1l11.8-4.4m-20.4 43.7l-2.7 136.5h-6.7l-6.8-136.5-7.5 136.5h-7.7l-1-136.5m29.7 136.5l20.1 8.5-12.8 6.3-14-14.8m-14.3 0l-10.7 14.8-13-6.4 16-8.4m.6-241.9c-.1-.4-.1-.8-.2-1.2-.3-1.9-.4-3.9-.4-5.9 0-14 7.3-25.3 16.2-25.3 9 0 16.2 11.3 16.2 25.3s-7.3 25.3-16.2 25.3c-5.1 0-9.7-3.7-12.6-9.4"/><path stroke-width="1.7" d="M217.2 103.2l8.9-.7-.7 3.5-4 .9s1.7 4.7-1.4 5.2c-3.8.6-2.7 1.2-5.2-1.9m-11.6-14.8L182.9 89m14.8 12l-29.1-1.3m22.8 7.8l-18.8 2.5"/><path stroke-width="5" d="M208.4 126.1l3.4 81.8m5.2-81.8l2.9 81.8m6.2-80.6l1 80.6m9.3-81.8l-2.3 81.8"/></g><path fill="none" d="M224.5 72.3c5.4 0 10.7 1.1 15.7 3.2-6.3 2.1-13.2 2.6-19.8 1.6 7.2 1 14.3 2 21.5 3.1-3.2 2.6-7.3 4-11.4 3.9 6.1 1.3 11.9 3.6 17.2 6.8-8.5 1.3-17.1 1.9-25.7 1.7 6.8 2.4 13.5 4.7 20.3 7.1-4.5 1.5-9.3 2.5-14 2.9 4.3 1.7 8.5 3.5 12.8 5.2-6.4 1.3-12.8 2.6-19.2 3.8 6.6 2 13.3 4 19.9 6-12 .5-24 1-36 1.4 21.6 7.4 44.4 11.3 67.2 11.7-17.1-.6-34.2.7-51.4.1-2.5-.1-5-.2-7.4-.7-2-.4-4-1-6-1.6-5.1-1.4-10.7-1.9-15.5.2-.3.1-.7.3-.6.7 0 .4.4.6.8.6 4.2 1 8.7-.1 13 .8.4.1.8.2 1 .5.4.5.1 1.4-.5 1.8-.6.4-1.3.4-2 .4-5.1 0-10.2.4-15.2 1.4-.4.1-.8.3-.8.6 5.2 2.8 12.4-1 17.2 2.4-.2.7-1 .9-1.7 1-2.6.3-5.2 0-7.8.3-3.2.4-6.4.3-9.6.6 2.4 1.2 5.3.6 7.9 1.2.1 0 .3.1.4.2.1.2 0 .5-.1.6-.4.4-1.1.5-1.8.5-2.5 0-5.1-.5-7.3.6 2.1.8 4.5.8 6.8.7-1.5.9-3.4.7-5.2.7-1.8-.1-3.7.1-4.9 1.4 2.2.4 4.5.8 6.6.2 1-.3 2-.9 3-1.3 3.6-1.6 7.3-1.1 11.2-1.1 3.6 0 7.5.7 11 .2 3.9-.5 7.5-2.3 11.4-3.1 10.6-2.2 20.4-5.1 31.2-1.7.3.1.7.2.8.6.2.6-.4 1.1-.9 1.3-8.1 3.7-17.8 2.1-26.2 5.2 9.9-.8 19.9-1.1 29.8-.7-1.2 1.7-3.2 2.8-5.3 3.3-2.1.5-4.2.5-6.4.5-4.4-.1-8.8-.2-13.3.1-3 .2-6 .6-8.7 1.7 10.6 1.8 21.4 2.8 32.2 3-.4 1.4-2 2.1-3.5 2.3-4.6.7-9.2-.9-13.7-1.9-6.4-1.3-13-1.4-19.5-1.4-.7 0-1.7.3-1.6 1 8 .8 15.9 2.1 23.7 3.9 1.7.4 3.4.8 5 1.6-2.2 1.7-5.4.4-8.1.5-2.2.1-4.3 1.1-6.4 1.7-2.2.6-4.6.9-6.8 1.3-5.6 1.1-11.1 2.5-16.5 4.1 18.4 3.6 36.9 6.7 55.5 9.1-21.3 0-43.2.1-62.8 8.3 12.6 4.2 25.7 7 38.9 8.4-13.7 1.4-27.3 2.7-41 4.1-4.7.5-9.6 1-13.4 3.7 23.7 3 47.6 4.4 71.5 4.1-18.4-1.5-36.9-2.9-55.4-4-5.9-.3-12.2-.6-17.3 2.5 28.7 2.9 57.4 5.7 86.1 8.6-27.3-.8-54.6-1.6-81.8-1.9-5.4-.1-11.4.2-15.1 4 24.9 7.1 50.8 10 76.5 12.7-18.2-1.5-36.7-.7-54.7 2.3 17.9 4.3 36.2 7.4 54.5 9.2-20.4-.4-40.8-.7-61.2-1.1.5 3.4 4.6 4.8 7.9 5.6 14.9 3.3 29.9 6.6 44.8 9.9-11.7 0-23.4.4-35 1.3-3.6.3-7.8 1-9.6 4.2 16.8 8.8 35.9 12 54.6 15.1-14.3-1.5-28.8-2-43.2-1.5 9.5 4.1 19.5 7.3 29.6 9.4-12.6-.1-25.2.6-37.7 2.3-4.6.6-10 2.1-11.2 6.5 14.6 8 31.2 11.3 47.5 14.5-14.3-1.7-28.9-.8-42.9 2.8 22.3 8.6 46.5 10.5 70.3 12.3-19.1-.6-38.2-.2-57.3 1.3 14.8 4.9 30.2 8 45.8 9.1-21.3-.1-42.6-.2-63.8.4-6.6.2-13.4.5-19.3 3.5.6 2.3 3.3 3.3 5.7 3.8 12.5 2.8 24.9 5.5 37.4 8.3-12.1-.5-24.4 2.3-35.1 8 35.5 6.3 71.8 5.8 107.9 5.3-25.1-3.3-50.6-4-75.9-2.1 18 .7 36.2-.5 53.9-3.8-33.5-4.8-67.2-8.5-101-11 10.3 2.2 20.8 3.1 31.3 2.7"/></svg>