<svg version="1" xmlns="http://www.w3.org/2000/svg" width="432" height="432"><g fill="#27AAE1"><path d="M215.4 71.7s-17.2 27.4.8 49c0 0-14.9-1.1-15.4-23.1-.4-22 14.6-25.9 14.6-25.9zm-12.7 54.7l4 77.7 22.2 4.1h-20.4l-4.6 136.5-7.8 17.6-14.7-6.7 19.3-10.9-1.4-136.5-4.2-81.8z"/><path d="M222.3 208.2l3.6 136.5 22 11.4-12.8 6.2-12.8-17.6-6.9-136.5zm-26.7-72.6l-10.4 31.1.8 48.3h3.1l2-46.1 5.4-15.5z"/></g><g fill="none" stroke="#000" stroke-miterlimit="10"><ellipse stroke-width="2" cx="216.2" cy="96.2" rx="15.4" ry="24.5"/><path stroke-width="2" d="M226.4 73.8s-12.2 2.3-18.8 0m20.6 3.2c-1.1.6-12.9 3.4-23.1.5m24.4 3.1s-12.7 5.4-25.5.7m17.2 38.1v7h-9.4v-6.8m24.6 6.8h-41.3l4.2 81.8h32.3z"/><path stroke-width="2" d="M195.1 126.4l-15.7 38.1 3.5 50.6h6.3l1.9-46.2 5.4-15.5"/><path stroke-width="2" d="M189.1 215l4.5 7.8-3.5 2-3.5-3.7-1 16.4-7.2-6.8 4.4-15.7m8.3-46.1l-11.7-4.4m56.8-38.1l15.8 42.5 25.4-36.3 5.6 2.3-35.1 56.5-13-38m48.1-18.5l10.2-14.5-4.9-8.7-5.7 15.4-2.4-4.6-3.8.9 2 8.8m-30.5 59.2l4.1-22.5m-20.4 39.3l-2.7 136.5h-6.6l-6.9-136.5-7.5 136.5h-7.6l-1-136.5m29.6 136.5l20.1 8.5-12.8 6.3-13.9-14.8m-14.4 0l-10.7 14.8-13-6.4 16.1-8.4m85.2-225.3l-5.8 49.5m9.2-42.5l4.3 44.4"/><circle stroke-width="2" cx="284.8" cy="188" r="19.2"/><path d="M284.8 171.3v4.7m-9.4-1.4l2.7 3.8m-7.8 2.5l4.3 1.8m-5.8 5h4.8m20.6-12.9l-2.8 3.8m7.9 2.5l-4.3 1.8m5.8 5h-4.9m-11.1 16.8V200m-9.4 1.3l2.7-3.8m-7.8-2.4l4.3-1.9m19.6 8l-2.8-3.8m7.9-2.5L295 193" stroke-width="2"/><path d="M282 190.9c-.2.4-1.1 2.1-1.1 2.1s.8.1 1.5.2m1.8-.4c2.3-1.7 7.9-5.9 7.9-5.9s-4.7 1.8-7.7 3"/><path d="M283 181.5l-1.2 10.7 1.4 2 1.5-2.1z"/></g></svg>