<svg id="Layer_1" xmlns="http://www.w3.org/2000/svg" width="504" height="504"><style>.st0{fill:none;stroke:#000;stroke-width:2;stroke-miterlimit:10}</style><g id="Layer_1_1_"><ellipse class="st0" cx="290.5" cy="343.1" rx="18.3" ry="27.1"/><path class="st0" d="M264.4 378.2s24.9-16 49.5 0l7.2 71.2s-42.3 15.8-63.2 0l6.5-71.2z"/><path class="st0" d="M260.5 451.2l7.3 15.5s16.2 5.1 40.2 0l7.4-15.5m-51.2-71.8l-22.6 67-20.4 4.9s2.1 5.8 2.7 5.2c.6-.6 18.8-1.9 18.8-1.9l6.1 3.2 4-3-3.2-6.7 11.3-33.2M314 379l23.2 67.3 20.4 4.9s-2.1 5.8-2.7 5.2-18.8-1.9-18.8-1.9l-6.1 3.2-4-3 3.2-6.7-11.4-32.2"/><ellipse transform="rotate(-10.819 191.201 315.21)" class="st0" cx="191.2" cy="315.2" rx="16" ry="23.8"/><path class="st0" d="M179.3 328.6l-3.5 5.9m12.2 63l16 5.8 8-4-15.2-56.3-27.2-10.7s-14 18.5-23.2 75.8c0 0 24.5 9.7 40.7 5.7l3.2-52.2m-.5 10.4c0 .7 5.3 20.5 12.9 30.8"/><path class="st0" d="M212 399.3l19.7 6.5V421s-20 15.8-32.3 16-42.5-3.7-45.8-9.7-5.7-18.7-5.7-18.7m39.4 3.3s13.7-5.5 32.4-6.5"/><g id="Layer_1_2_"><ellipse transform="rotate(-10.568 226.083 171.275)" class="st0" cx="226.1" cy="171.3" rx="13.8" ry="21.2"/><path class="st0" d="M230.2 225c-2.2-11.7-4.1-21.4-4.1-21.4 7-7.4 23.6-13.6 23.6-13.6 17.4 25 22.6 65.4 22.6 65.4-7.6 9.8-34.4 9.3-34.4 9.3s-2.4-12.3-5-25.8"/><path class="st0" d="M242.3 276.5c22.3 11.6 51.9-3 51.9-3l3.5 8.3c-27.5 23.8-73.8 13.1-73.8 13.1l14-30.3m25.9 16.4c13.2-8.8 8.6-25.7 8.6-25.7"/><path class="st0" d="M296.6 283.8l6.4 14.9 14.1-3.5-17.9-24.8-4.9 3.1m-25.1 2.1c13.6.2 23.2-7.5 23.2-7.5l3.3 3.1"/><path class="st0" d="M291.9 286.2l2.4 6.3 7.2 2.7M230 192.1l2.4 6.5 7.2-4.1-2.9-5.8m12.7 22.8c-.7 14.6-12.1 28.2-12.1 28.2-27 2.1-33.1-23.9-33.1-23.9l4.5-2.4c8.3 11.8 19.3 14.8 19.3 14.8 4-4.8 9.2-24.7 9.2-24.7m0 36.2l-9.3-11.5m-23.8-12.8s-5.1-6.7-5.4-10.8c-.4-4.1 1.2-11.9 1.2-11.9l3.7-1.2 3.5 10.6 2.4 1.4-.9 9.9"/><path class="st0" d="M228.7 221.1c-8.7.7-15.4-9.5-15.4-9.5v-11.7h-2.4l-3.6-8.4h-3.2m5.4 22.3l3-1.8"/></g></g></svg>