<svg version="1" xmlns="http://www.w3.org/2000/svg" width="504" height="504"><path d="M255.1 155.5s-19.1 25.5-6.6 41.1c0 0-9.7-6.3-9.1-16.6.6-10.3 5.6-17.8 5.6-17.8s4.8-6.2 10.1-6.7zm-31.3 129.6l-12 .4-15.5-3.4-13.1-6.8 3.2-2.6s7.9 5.7 12.1 6c4.2.2 10.6.5 10.6.5s-4.8-9.2-1.6-23.7 13.1-43.3 13.1-43.3l9.9-17.4 3.7 1.6s-18.6 42.7-18.8 61.3c-.1 18.6 8.4 27.4 8.4 27.4zm-62.4 13.7l17.4-20.5c22.6 23.7 74.8 16.4 74.8 16.4l.9 5.4-4 .7s-27.6.9-28.4 1.4c-.7.5-9.4-1.8-18.7-3.9-9.4-2.1-21.4-10.6-21.4-10.6l-4.1 9 4.1-10v1.1l4.2 3.7s-1.2 4.8-2.2 5.2c-.9.3-5.7 1.1-6.4 1.3l-1.4 4.7-14.8-3.9z" fill="#27AAE1"/><path fill="none" d="M233.8 155.9c8.8-1.4 17.8-1.3 26.5.2-11.4 1.6-22.7 3.3-34.1 4.9 13 .7 25.9 1.8 38.8 3.2-14.3 1.2-28.5 3.4-42.5 6.5 16.4 2 32.9 3.6 49.4 4.8-22.8 2.5-45.7 4.9-68.2 9.9 18.4 1.1 36.8 2.1 55.2 3.2-18.9 3.2-37.9 6.3-56.8 9.5 18.7 3.4 38.3.6 56.5 6-21.6 1.1-43.4 2.1-64.1 8.2 16.6 1.3 33.3 2.6 49.2 7.3-14.1.6-28.1 1.8-42.1 3.7-4.3.6-9 1.4-12.1 4.3 13.2 2.4 26.5 4.7 39.8 6.8-11.3 5.1-23.6 7.7-35.7 10.3 14.8 1.6 29.4 4.2 43.8 7.6-20.8 2-41.5 4.8-62.1 8.2-2.3.4-4.7.8-6.4 2.4 21.8.5 43.7 1.5 65 5.9-29.8 2.4-59.6 4.7-89.5 7.1-1.4.1-3.1.6-3.2 1.9 34 2.7 68.4-.7 102.3 3.2-6.2 3.3-13.5 3.9-20.6 4.2-24.3 1.2-48.9.2-72.7 4.9 36.4 9.2 74.5-.4 112.1-1.3-24.6 4.1-49.8.6-74.5 3.7-4.8.6-9.7 1.5-14 3.6 25.9 6 53 7.1 79.3 3.1"/><g fill="none" stroke="#000" stroke-width="2" stroke-miterlimit="10"><ellipse cx="185.8" cy="344.1" rx="18.3" ry="27.1"/><path d="M159.7 379.2s24.9-16 49.5 0l7.2 71.2s-42.3 15.8-63.2 0l6.5-71.2z"/><path d="M155.9 452.2l7.3 15.5s16.2 5.1 40.2 0l7.4-15.5m-51.2-71.8l-22.6 67-20.4 4.9s2.1 5.8 2.7 5.2c.6-.6 18.8-1.9 18.8-1.9l6.1 3.2 4-3-3.2-6.7 11.3-33.2m53-35.9l23.2 67.3 20.4 4.9s-2.1 5.8-2.7 5.2-18.8-1.9-18.8-1.9l-6.1 3.2-4-3 3.2-6.7-11.4-32.2m145.8-207.9l-7.6 99.9h7.6l14.3-99.9z"/><path d="M362.2 308.8l-70-1.9 1.2 16.7 68.8-3.3zm-62.1 14.5l4.9 58.8h4.6v-58.5m49.3-3.1v60.7h-7.6l-3.1-60.2m-38.6 27h40m-40 7.3l40.3-1.2"/><ellipse transform="rotate(-88.297 335.774 202.993) scale(1.00004)" cx="335.8" cy="203" rx="24.3" ry="16.4"/><path d="M328.3 295.2c-3.5.4-6 .7-6 .7s8.5-22.1 7.2-59.7c0 0 19.1-7.5 20-7.2s6.6 23.3 2.9 63.4c0 0-8.3 1-16.2 1.9"/><path d="M337.2 242.4l-10 60-15.5 1.5s-.4 1.5-.8 3.2m21.5 1.7l12.5-52.8"/><path d="M322.3 295.8l-39.9.8 8.3 69.6h5.5l1.2-42.6"/><path d="M290.7 366.2c-2.4.4-24.1 9.5-24.1 9.5l15.8 6.4 13.8-15.9"/><path d="M290.2 362l-27 1.8 9.2 9.5m62.7-145.9l.2 6.6m7.1-8.8l1.1 5"/><ellipse transform="rotate(-79.432 253.679 175.778)" cx="253.7" cy="175.8" rx="21.2" ry="13.8"/><path d="M246.8 243.4c-2.6 13.5-5 25.8-5 25.8s-26.8.5-34.4-9.3c0 0 5.2-40.4 22.6-65.4 0 0 16.6 6.2 23.6 13.6 0 0-1.9 9.7-4.1 21.4"/><path d="M241.8 269.1l14 30.3s-46.3 10.7-73.8-13.1l3.5-8.3s29.6 14.6 51.9 3m-30.1-21.2s-4.6 16.9 8.6 25.7"/><path d="M185.4 278l-4.9-3.1-17.9 24.8 14.1 3.5 6.4-14.9m.9-12.6l3.3-3.1s9.6 7.7 23.2 7.5"/><path d="M178.2 299.7l7.2-2.7 2.4-6.3m55.2-97.5l-2.9 5.8 7.2 4.1 2.4-6.5m-7.2 11.4s5.2 19.9 9.2 24.7c0 0 11-3 19.3-14.8l4.5 2.4s-6.1 26-33.1 23.9c0 0-11.4-13.6-12.1-28.2m21.5 16.7l-9.3 11.5m28.6-26.3l-.9-9.9 2.4-1.4 3.5-10.6 3.7 1.2s1.6 7.8 1.2 11.9c-.3 4.1-5.4 10.8-5.4 10.8"/><path d="M275.6 196h-3.2l-3.6 8.4h-2.4v11.7s-6.7 10.2-15.4 9.5m16.2-9.1l3 1.8m-3.2-58.5s-16.1-.2-20.2-3.3m21.9 6.3s-15.3 2.7-23.8-3m24.4 6.5s-19.6 3-26.8-3.5"/></g></svg>