<svg version="1" xmlns="http://www.w3.org/2000/svg" width="432" height="432"><path fill="#FFF" d="M163.7 264.8c-1.9 0-3-.3-4-.7-.5-.2-.6-.2-1.1-.2-3.3 0-6.7-1.5-9.6-2.9-1.2-.5-2.3-1-3.1-1.3-3.3-1.1-8.2-5.2-10.4-7l-6.7-2.5-7-1.3c-.5-.1-1-.3-1.5-.6l-6-4c-.5-.3-.9-.7-1.2-1.2-.5-.9-5.4-9-6.5-14.5-.8-3.9-1.3-5.5-1.8-7.2-.1-.4-.3-.8-.4-1.2-.7-2.3-1.5-5.9-1.8-8.6-.4-2.4-2-7.5-2.6-9.5-.9-2.8-.3-5.5.4-9.3.5-2.4 1-5.4 1.5-9.3 0-.4.1-.8.1-1.2-.1-.5-.2-1.1-.1-1.6.2-1.3.4-2.6.9-3.7l1.9-8c0-.2.1-.3.1-.5l2-5.2 1.9-6.1c.3-1.2 1.1-4.6 1.1-6.7 0-4.1 2.6-7.9 3-8.5l3.7-5.3c.3-.4.6-.7 1-1l11.3-7.8c.1-.1.2-.1.3-.2l5.7-3.3c4.3-2.5 8.6-3 11.5-3 .9 0 1.6 0 2.1.1l5.6-1.1 6.7-3 5.1-3.1c.5-.3 1.1-.5 1.7-.6l10-.8h.8l12.5 1.7 8.4.2 6.1-.6 11.3-3.4c.2-.1.4-.1.6-.1l8.7-1.3h29.6c.5 0 .9.1 1.4.2l9.5 3.4 15.1 3.6.9.3 4 2.1 8.7 3c.1 0 .1 0 .2.1 1.5.6 9.3 3.8 12.7 7.1 2 2 2.6 3.2 3 4.5.2.5.3 1 1.4 2.2 2.2 2.6 2.8 4.1 3.5 5.7.4.9.8 1.8 1.5 3.1l5 8.7c.2.3.3.7.4 1l3 12c.1.3.1.6.1 1 0 .1 0 6.3 1 15.3.2 2.2.4 3.7.5 4.5.5.8.9 1.7 1.3 3.3.4 1.5.7 2.7.9 3.6.2.7.3 1.5.4 1.7h.1c1.3 1.1 3.2 2.8 1.3 19.2 0 .4-.1.8-.3 1.1l-3.5 8c-.4 1.6-2 8.6-2.9 12.3-1.3 5.6-8.1 8.8-10.3 9.7l-5.3 3.6c-.5.3-1 .5-1.6.6-1.8.3-11.1 1.6-13.6 1.6-2.3 0-21.8-1.4-24.6-1.6-1 0-6.8.1-13.2 2-7.7 2.3-17.7 5.3-17.7 5.3-.2 0-.3.1-.5.1 0 0-4 .7-9.8 2-2.1.5-3.5.7-4.7.7-1 0-1.9-.2-2.7-.3-1.1-.2-2.6-.5-5.9-.6-7.7-.4-13.4-1.4-15-1.7h-9.3c-2.5 0-2.8.2-4.2 1.1-.5.3-1.1.7-1.8 1.1l-.3.1c-2.9 1.6-3.4 1.7-9.6 2.9l-3.6.7c-3.1.8-5.5 1.1-7.3 1.1z"/><path d="M255.7 113.4l9.7 3.5 15.3 3.7 4.3 2.2 9 3.1s8.4 3.3 11.3 6.2c3 2.9 1.1 2.7 4.1 6.4 3 3.6 2.4 4.3 4.7 8.3l5 8.7 3 12s0 6.4 1 15.7c1 9.4.7 3.7 2 8.4s1 5.9 2.6 7.3c1.6 1.4 0 15.7 0 15.7l-3.6 8.3s-2 8.4-3 12.7-8.3 7-8.3 7l-5.7 3.8s-10.7 1.6-13 1.6c-2.3 0-24.5-1.6-24.5-1.6h-.1c-1 0-7.3.1-14.4 2.2-7.7 2.3-17.7 5.3-17.7 5.3s-4 .7-10 2c-1.9.5-3 .6-3.8.6-1.8 0-2.6-.7-8.5-.9-8.7-.4-14.7-1.7-14.7-1.7h-9.7c-4.7 0-5 1-8 2.7-3 1.6-2.3 1.3-12.3 3.3-3.3.7-5.3.9-6.7.9-2.6 0-2.6-.9-5-.9-3.7 0-8.4-3-11.5-4-3.1-1-9.5-6.7-9.5-6.7l-7.7-2.9-7.3-1.4-6-4s-5-8.2-6-13.2-1.6-6.5-2.3-8.8-1.4-5.7-1.7-8c-.4-2.3-1.7-6.7-2.7-10s1-7.3 2-17c.2-2.4.4-3.7.4-4.4l2.3-9.6 2-5.3 2-6.3s1.3-4.7 1.3-7.8c0-3.1 2.3-6.2 2.3-6.2l3.7-5.3 11.3-7.8 5.7-3.3c3.5-2.1 7.2-2.4 9.5-2.4 1.4 0 2.2.1 2.2.1l6.7-1.3 7.3-3.3 5.3-3.2 10-.8 12.7 1.7 8.9.2 6.7-.7 11.7-3.5 8.7-1.3h29m-149.3 65.4v.7l-.4 1.7s.3-2.4.4-2.4m149.3-73.4h-29c-.4 0-.8 0-1.2.1l-8.7 1.3c-.4.1-.7.1-1.1.2l-11 3.3-5.5.6-8-.2-12.3-1.6c-.4 0-.7-.1-1.1-.1h-.6l-10 .8c-1.2.1-2.4.5-3.5 1.1l-4.9 3-6 2.7-4.6.9c-.5 0-1.1-.1-1.9-.1-3.4 0-8.5.6-13.5 3.5l-5.7 3.3c-.2.1-.4.2-.5.3l-11.3 7.8c-.8.5-1.5 1.2-2 2l-3.7 5.2c-.8 1.1-3.8 5.6-3.8 10.8 0 1.3-.6 4-1 5.5l-1.9 5.9-1.9 5.1c-.1.3-.2.6-.3 1l-1.8 7.5c-.3.6-.5 1.4-.7 2.1-.1.3-.1.7-.2 1.1-.1.7-.2 1.3-.2 1.3-.1.8-.1 1.6 0 2.4 0 .2 0 .4-.1.6-.4 3.8-1 6.6-1.4 8.9-.8 4-1.4 7.4-.3 11.2 1.4 4.5 2.2 7.5 2.5 8.9.4 2.9 1.2 6.6 2 9.1.1.4.3.8.4 1.3.5 1.7 1 3.1 1.7 6.8 1.2 6.1 6.1 14.2 7 15.8.6 1 1.4 1.8 2.4 2.5l6 4c.9.6 1.9 1 2.9 1.2l6.6 1.3 5.7 2.1c3 2.6 7.6 6.2 11.2 7.3.6.2 1.6.7 2.7 1.1 3.1 1.4 7 3.2 11.1 3.2.9.3 2.6.9 5.2.9 2.1 0 4.6-.3 8.2-1 1.4-.3 2.5-.5 3.6-.7 6.3-1.3 7.3-1.4 10.8-3.3l.2-.1c.1 0 .1-.1.2-.1.8-.5 1.5-.9 2-1.2.2-.1.5-.3.6-.4.2 0 .6-.1 1.5-.1h8.9c2.1.4 7.7 1.4 15.1 1.7h.1c3.1.1 4.3.3 5.3.5.9.2 2 .4 3.4.4 1.8 0 3.5-.3 5.6-.8 5.7-1.2 9.6-1.9 9.6-1.9.3-.1.6-.1.9-.2 0 0 10-3 17.7-5.3 5.7-1.7 10.8-1.9 11.9-1.9 5.6.4 22.4 1.6 24.8 1.6 2.5 0 10-1.1 14.2-1.7 1.2-.2 2.3-.6 3.3-1.3l5-3.3c3.4-1.4 10.7-5.2 12.4-12.3.8-3.5 2.3-9.9 2.8-12l3.3-7.7c.3-.7.5-1.5.6-2.3 0-.2.4-3.9.6-7.8.4-6.8.1-11-2.4-13.9 0-.2-.1-.3-.1-.5-.2-.9-.5-2.2-.9-3.8-.4-1.4-.8-2.5-1.4-3.6-.1-.7-.2-1.8-.4-3.5-.9-8.7-1-14.8-1-14.9 0-.7-.1-1.3-.2-1.9l-3-12c-.2-.7-.5-1.4-.8-2l-5-8.7c-.7-1.2-1-1.9-1.3-2.7-.9-2-1.8-3.8-4.1-6.7-.4-.5-.6-.7-.6-.8 0-.1 0-.1-.1-.2-.7-2-1.6-3.7-4-6-3.8-3.8-11.7-7-14-7.9-.1 0-.2-.1-.3-.1l-8.5-2.9-3.8-1.9c-.6-.3-1.2-.5-1.8-.7l-14.9-3.6-9.3-3.4c-.6.1-1.5-.1-2.4-.1z"/><path fill="#FFF" d="M193 287.3c-.4 0-.8-.1-1.2-.2-.3-.1-2.2-.7-5.3-2.6-1.4-.8-3.6-2.2-3.2-4.8-.5-2.4.2-4.8.5-5.6 0-.1.1-.1.1-.2l2.2-5.2c.2-.5.6-1 1-1.4l3.5-3.2c.7-.7 1.7-1 2.7-1h5.2c.7-.1 2.3-.3 4-.3.8 0 1.5 0 2.2.1 3.5.5 4.6 2.8 5 3.9.2.4.2.6.5.8 1.7 1.7 2.1 2.9 2.3 4.6 0 .4.1.8.4 1.7.7 2 .7 3.7-.1 5.1-1.1 1.9-3 2.5-3.9 2.7-.5.5-.9.9-1.3 1.4-.3.4-.8.8-1.3 1.4-2.5 2.6-6.4 3-7.2 3.1H193z"/><path d="M202.5 266.7c.6 0 1.1 0 1.6.1 2.2.3 1.4 1.7 3.2 3.5s.6 1.6 1.8 4.8-1.8 2-2.8 3.2-1.5 1.6-3 3.2-4.5 1.8-4.5 1.8H193s-1.6-.5-4.4-2.2c-1.3-.8-1.4-.9-1.2-.9h.2c.2 0 .4-.1 0-.6-1-1.4 0-4.2 0-4.2l2.2-5.2 3.5-3.2h5.5s1.8-.3 3.7-.3m0-8c-1.7 0-3.3.2-4.2.3h-4.9c-2 0-3.9.7-5.4 2.1l-3.5 3.2c-.8.8-1.5 1.7-2 2.8l-2.2 5.2c-.1.1-.1.3-.2.4-.4 1.1-1.3 4-.7 7.2-.1 2.4.9 5.2 3.8 7.2.2.2.6.4 1.3.8 3.4 2 5.6 2.8 6.2 3 .8.2 1.6.4 2.4.4h6.3c1.4-.1 6.4-.7 9.8-4.3.5-.6.9-1 1.2-1.3l.6-.6c1.6-.5 3.8-1.7 5.3-4.3.9-1.7 1.8-4.6.3-8.5-.1-.3-.2-.5-.2-.5v-.2c-.3-2.7-1.2-4.6-3.2-6.7-1.6-3.5-4.3-5.6-8.1-6.1-.7 0-1.7-.1-2.6-.1z"/><path fill="#FFF" d="M166.5 308.1c-.9 0-1.7-.3-2.4-.8-.5-.4-2.9-2.3-4.3-4.7-1.7-3-1-5.4-.5-7.3l.2-.6c.1-.4.1-.7.1-.8-.9-1.6-.3-3.2 1.2-4.5l5-4.2c.7-.6 1.6-.9 2.6-.9H179c.5 0 .9.1 1.3.2l2.8 1c1.4.5 2.4 1.8 2.6 3.3.1 1 .4 4.3-.2 6.6-.1.2 0 .8.1 1.3.1.9.2 2 .1 3.4-.1 1.2-.1 1.9 0 2.1.3 1.1 0 2.1-.6 3-.6.9-1.7 1.5-2.8 1.6l-8 1.2h-7.8z"/><path d="M179 288.2l2.8 1s.4 3.3-.1 5 .2 3.3 0 5.5 0 3.2 0 3.2l-8 1.2h-7.2s-2.2-1.7-3.2-3.5-.5-3 0-5 0-3.2 0-3.2l5-4.2H179m0-8h-10.7c-1.9 0-3.7.7-5.1 1.9l-5 4.2c-2.3 1.9-3.3 4.9-2.7 7.7 0 .1 0 .2-.1.2-.6 2.2-1.5 5.9.9 10.3 1.7 3 4.5 5.3 5.3 5.9 1.4 1.1 3.1 1.7 4.9 1.7h7.2c.4 0 .8 0 1.2-.1l8-1.2c2.3-.3 4.5-1.3 5.7-3.3 1.2-1.9 1.6-3.9 1-6 0-.2 0-.6.1-1.1.2-1.7 0-3.2-.1-4.2v-.4c.6-2.7.4-5.9.2-7.6-.4-3-2.4-5.6-5.3-6.6l-2.8-1c-.9-.2-1.8-.4-2.7-.4z"/><path fill="#FFF" d="M139.1 323.7h-.6l-7.2-1c-.9-.1-1.8-.6-2.4-1.3l-2-2.2c-2.8-3.1-2.1-7.4-.7-10.3l1.4-4c0-.1.1-.2.1-.3l2-4.5c.6-1.4 2.1-2.4 3.7-2.4h5.6c.6 0 2.9-.2 4.7-.2 1.1 0 2 .1 2.6.2 2.5.5 3.8 2.1 4.6 3 .1.2.3.4.5.6 2.1 2.1 1.7 5.1 1.4 7.6-.1.6-.2 1.4-.2 1.8v3c0 1.3 0 2.3-5.5 8.6-.8.9-1.9 1.4-3 1.4h-5z"/><path d="M143.8 301.6c.7 0 1.4 0 1.8.1 1.5.3 2 1.5 3 2.5s0 4.5 0 6.5v3c0 .8-4.5 6-4.5 6h-5l-7.2-1-2-2.2c-2-2.2 0-6 0-6l1.5-4.2 2-4.5h5.8s2.6-.2 4.6-.2m0-8c-1.9 0-4 .1-4.9.2h-5.5c-3.2 0-6 1.9-7.3 4.8l-2 4.5c-.1.2-.2.4-.2.6l-1.3 3.8c-1.9 4.1-2.6 10 1.5 14.5l2 2.2c1.3 1.4 3 2.3 4.8 2.5l7.2 1c.4.1.7.1 1.1.1h5c2.3 0 4.5-1 6-2.8 5.2-6 6.5-8.2 6.5-11.2v-3c0-.2.1-.8.1-1.2.4-2.8 1-7.4-2.5-10.9-.1-.1-.2-.2-.2-.3-.9-1.1-3-3.7-6.9-4.4-1-.3-2-.4-3.4-.4z"/></svg>