<svg version="1" xmlns="http://www.w3.org/2000/svg" width="432" height="432"><path fill="#FFF" d="M246.7 269.9h-.4c-27-3.1-38.6-22.4-42.8-32.6-35.2-3.1-60.5-18.7-60.5-37.6 0-21.4 32.1-38.2 73-38.2s73 16.8 73 38.2c0 18.9-25 34.4-59.9 37.5 2.5 16.6 19.1 26 19.3 26.1 1.5.8 2.1 2.5 1.6 4.1-.4 1.5-1.8 2.5-3.3 2.5z"/><path d="M216 165c38.4 0 69.5 15.5 69.5 34.7 0 17.6-26.2 32.1-60.2 34.3.7 20.9 21.4 32.4 21.4 32.4-26.7-3.1-37.3-23-40.8-32.4-33.6-2.4-59.4-16.8-59.4-34.3 0-19.2 31.1-34.7 69.5-34.7m0-7c-19.6 0-38.2 3.9-52.3 10.9-15.6 7.8-24.2 18.7-24.2 30.8 0 11 7.3 21.3 20.6 28.9 10.8 6.2 25.2 10.4 40.9 12 5.1 11.2 17.6 29.6 44.8 32.7h.8c3 0 5.7-1.9 6.7-4.9 1-3.2-.3-6.6-3.3-8.3-.1-.1-12.8-7.4-16.7-20 14.6-1.8 28-5.8 38.2-11.6 13.5-7.6 20.9-17.9 20.9-29 0-12.1-8.6-23-24.2-30.8-14-6.8-32.6-10.7-52.2-10.7z"/></svg>