<svg version="1" xmlns="http://www.w3.org/2000/svg" width="288" height="288"><path d="M126.6 85.9s-9.8 28.7 6 43.7c0 0-13.8 0-16.2-18.2l-2.7-1.2-.8-4.3.8-2.3-.8-6.3c-.1-.1 8.5-11.5 13.7-11.4zm3.9 47.8l-7.8 67-16.4-4 1.8-22.5-2.9-17.9 7.4-13.4 1.4-11.3z" fill="#27AAE1"/><g fill="none" stroke="#000" stroke-width="2" stroke-miterlimit="10"><path d="M144.9 107.4c0 .3.1.6.1.9.9 11.1-4.8 20.7-12.7 21.3-7.8.6-14.9-7.7-15.9-18.6m29.1-8.3l-1.8-10.5s-9.4-8.2-17.1-6.4-13.7 11.4-13.7 11.4l1.3 9.6s8.1 3.7 15 2.3c5.5-1.1 11-1.5 16.3-6.4z"/><path d="M113.8 104.2s-4.1 7.9 9.5 8.7c13.7.8 30.6-6.5 22.2-12.2m-6.7-9.5s1 7.9-2.8 11.2m-1 26.7v5.6l-12.2-2.7 1.6-4.8"/><path d="M143.5 167.1c.5 16.7 1.1 34.8 1.1 34.8s-28.3.9-38.3-6.3l7.7-64s20-.5 28.6 7.6c0 0 .1 3.8.3 9.5"/><path d="M113.7 134.2l-11.2 22.2 6.2 19.6m65-23.9h2.7l3.4 4.8-8.5 7.1-1.9-.8-17.7 9s-16.4-6.4-21.7-21.9"/><path d="M138.3 140.6s8.8 16.3 13.9 21.1l16-3.5.5-4m-14.3-6.6s3.5-7.5 14-9.6l1 1.4 2-1.4-1.2-2.2 2.7-1.6 2.9 5.7-1.7 2.1-1.7-1.7-2 1.6 1 2.2-9.4 4.9-2.1-2.6s-2.2-.3-5.5 1.2zm11.1-.4s1.9 4.1 4.3 9.1m4.4-3.5c-2.8-4.2-5-7.6-5-7.6m.2 11.8s4.3-4.3 5.9-4.9m-2.5 10.6c2.9 6.2 5.6 11.8 5.6 11.8l6.1-6.2s-3.3-4.9-6.8-10.3"/></g></svg>