<svg version="1" xmlns="http://www.w3.org/2000/svg" width="288" height="288"><path d="M141.8 20.3s-8.1 44.5 7.4 49c0 0-10.9-2.2-14.6-14.7v-3.1s-7.9-4.4-6.2-7.7c1.7-3.3 3.6-4.5 3.6-4.9s.3-3.7.3-3.7-3-11.6 9.5-14.9zm-25.9 16.8c-1.1 3.6-8.3 26.7-8.3 26.7l25.9 13.5 5.1-1.2-.4 67.8s-10-1.2-9.9-2.3c.1-1.1 3.9-49.2 3.9-49.2l-36-25.5 17.7-31.8M135 144s3.5 67.4 5 104.3l-7.7 17.9-18.4-9.5 24.1-8.5-9.8-105.5 6.8 1.3zm31 104.5l22.9 16.3-18.5 9.1-11.1-24 2.5-1.4-8.9-86.2-2.9-17.5 8.8-1c0-.1 6.7 75.7 7.2 104.7z" fill="#27AAE1"/><g fill="none" stroke="#000" stroke-width="2" stroke-miterlimit="10"><path d="M164.8 39.9c1.1 2.9 1.3 5 1.3 8.4 0 11.7-7.1 21.1-15.8 21.1-8.7 0-15.8-9.5-15.8-21.1 0-3 .2-5.1 1.1-7.7"/><path d="M134.6 47.4s-9-8.5 15-9 18.7 7.7 16.5 8.3"/><path d="M166.1 49.8s11.8-3.3 5.2-10.2-31.7-8.3-41.2 1c0 0-6 5.7 4.5 11"/><path d="M132 39c-.1-1.3.3-12.9 1.9-14.3 1.7-1.3 11.2-6.8 15.7-6.8s17.6 4.3 18.6 7c.9 2.7 1.7 13.5 1.7 13.5m-28.1-14.7s-1.6 5.6-4 8.4m20.2-8.7s1.1 7.2 2.8 9.1m-15 36.3v6.8h8.8v-6.8"/><path d="M167.6 124.9c.3 9.6.5 16.7.5 16.7s-24 7.2-39.8 0l5.2-65s20.9-2.4 32.5 0c0 0 .1 3.4.3 8.8"/><path d="M114.2 35.3l-17 31.8 35.1 25.3"/><path d="M117.8 38.4l-4.7 24 20.5 14.3m-35.8-9.8l14.9-4.6M123 30.1c1.9 1.1 3.4 1.9 3.4 1.9l4.8 1.2-2.2-4.8-14.1-8.5-1 5.2s2.2 1.2 4.8 2.6m-1.2-.6l1.9-4.5"/><path d="M126.8 27.1l-1.9-7.5-7.4 1.8m-2.4 4.4l-1.2 9.3 4.5 3.3 7-6.3"/><path d="M116.1 29.8l5.1-3.5 2.4 1.5-3.2 5.6m37.5 58.7c.1-.2.3-2.3.3-2.3l3.7-.3s1.6-5.2 5.2-4.4c3.6.8 4.3 2.2 4 5.5l4.1.8-1.3 4.1"/><circle transform="rotate(-83.102 166.64 90.043)" cx="166.6" cy="90" r="1.7"/><path d="M151.4 105.5c.6-7 1.1-13.3 1.1-13.3l25 3s-.1.7-.2 1.9"/><path d="M166.1 76.7s12 7.2 17.8 27.6c0 0-16.8 11-29.3 12.3v-5l24.1-15.5s.7-.4 1.6-.9"/><path d="M150.8 107.6l-5 1.7.8 9.8 8-2.5"/><path d="M154.6 111.6c-.2-1.2 0-6.2 0-6.2h-3.2l-.6 4.8m25-1c-1 8.2-2.1 17.1-2.1 17.1l-23.8-2.9s.2-2.3.5-5.7m-22 24l9.4 106.6h4s1.7-86.2 6.5-103.4m2.5 0s10.8 91.3 10.5 103.4h5.3s9.1-81.6 1.5-106.6m-30.3 106.6l-24.4 8.6 16.4 7 13.5-14.8zm21 .8l13.8 21 17-8.2-21.2-13.6z"/></g></svg>