<svg version="1" xmlns="http://www.w3.org/2000/svg" width="288" height="288"><path fill="#FFF" d="M81.1 201.5l61.4-121.6 61.7 121.6z"/><path fill="none" stroke="#000" stroke-width="2" stroke-miterlimit="10" d="M142.5 79.9l61.7 121.6H81.1l61.4-121.6"/><path fill="none" d="M111.7 79.9c28.3.7 57.2-2 84.9 3.6-13.8 11.8-33.2 14.4-51.4 14.4s-36.7-2.1-54.4 2.5c26.5.3 53.1.8 79.6 1.5 6 .2 13.7 1.6 14.8 7.5-34.9 8.6-71.9 3.8-107.4 9.7-2.3.4-5.2 1.6-4.9 4 26.1 3 52.5 2.7 78.8 2.4l53.3-.6c1.1 5.4-5.3 9-10.6 10.3-44.4 11.5-91.9.6-137.1 8.8 3.1 3.5 8.5 3.8 13.2 3.9l141.8 1.2c2.1 2.6.7 6.7-2 8.7-2.7 1.9-6.2 2.2-9.6 2.4-31.7 1.7-63.5 1.2-95.2-1.7-24.1-2.2-49.1-5.6-71.8 2.8-1.4.5-2.9 1.3-3.2 2.7-.4 2.1 2 3.6 4 4.3 10.1 3.4 20.8 4.6 31.5 5.3 20.2 1.4 40.4 1.4 60.6 1.4h78.3c2.8 3.4 1.1 8.9-2.5 11.5-3.5 2.6-8.1 3.1-12.5 3.4-48.5 3.2-96.9-6.6-145.4-5.6-3.3.1-7.4.7-8.5 3.8-1.6 4.4 4.1 7.7 8.7 8.7 58.4 12.9 118.7-8.1 178.5-8.8 4.3-.1 9.8.9 10.8 5.1-10.3 6.4-23 7.2-35.1 7-37.5-.4-76.4-8.1-111.7 4.9 2.2 4.6 8.3 5.2 13.4 5.1 29-.2 58.1-.3 87.1-.5"/></svg>