<svg version="1" xmlns="http://www.w3.org/2000/svg" width="288" height="288"><circle fill="none" stroke="#000" stroke-width="2" stroke-miterlimit="10" cx="26.6" cy="105.9" r="8.8"/><circle fill="none" stroke="#000" stroke-width="2" stroke-miterlimit="10" cx="23" cy="119.6" r="2.3"/><circle fill="none" stroke="#000" stroke-width="2" stroke-miterlimit="10" cx="34.3" cy="116.7" r="1.5"/><circle fill="none" stroke="#000" stroke-width="2" stroke-miterlimit="10" cx="28.4" cy="128.4" r="3.5"/><circle fill="none" stroke="#000" stroke-width="2" stroke-miterlimit="10" cx="35.2" cy="124.2" r="2.4"/><circle fill="none" stroke="#000" stroke-width="2" stroke-miterlimit="10" cx="29.1" cy="119.6" r="2.3"/><circle fill="none" stroke="#000" stroke-width="2" stroke-miterlimit="10" cx="40.3" cy="105.2" r="1.6"/><circle fill="none" stroke="#000" stroke-width="2" stroke-miterlimit="10" cx="44" cy="98.4" r="2.8"/><circle fill="none" stroke="#000" stroke-width="2" stroke-miterlimit="10" cx="47.5" cy="106.8" r="3.5"/><circle fill="none" stroke="#000" stroke-width="2" stroke-miterlimit="10" cx="65.1" cy="102.7" r="5.6"/><circle fill="none" stroke="#000" stroke-width="2" stroke-miterlimit="10" cx="68.4" cy="115.6" r="4.1"/><circle fill="none" stroke="#000" stroke-width="2" stroke-miterlimit="10" cx="57.4" cy="112.5" r="1.8"/><circle fill="none" stroke="#000" stroke-width="2" stroke-miterlimit="10" cx="59.8" cy="121.1" r="1.4"/><circle fill="none" stroke="#000" stroke-width="2" stroke-miterlimit="10" cx="52.7" cy="119.6" r="1.7"/><circle fill="none" stroke="#000" stroke-width="2" stroke-miterlimit="10" cx="52.9" cy="132.9" r="6.6"/><circle fill="none" stroke="#000" stroke-width="2" stroke-miterlimit="10" cx="52.1" cy="143.7" r="1.7"/><circle fill="none" stroke="#000" stroke-width="2" stroke-miterlimit="10" cx="44" cy="139.9" r="2.1"/><circle fill="none" stroke="#000" stroke-width="2" stroke-miterlimit="10" cx="46.7" cy="152.4" r="5.4"/><circle fill="none" stroke="#000" stroke-width="2" stroke-miterlimit="10" cx="39.7" cy="145.3" r="1.7"/><circle fill="none" stroke="#000" stroke-width="2" stroke-miterlimit="10" cx="36.3" cy="158.8" r="4.2"/><circle fill="none" stroke="#000" stroke-width="2" stroke-miterlimit="10" cx="42" cy="167" r="2.6"/><circle fill="none" stroke="#000" stroke-width="2" stroke-miterlimit="10" cx="34.1" cy="171" r="1.4"/><circle fill="none" stroke="#000" stroke-width="2" stroke-miterlimit="10" cx="30.1" cy="166.1" r="1.8"/><circle fill="none" stroke="#000" stroke-width="2" stroke-miterlimit="10" cx="30.4" cy="176.7" r="3.8"/><circle fill="none" stroke="#000" stroke-width="2" stroke-miterlimit="10" cx="33.4" cy="186.9" r="2.9"/><circle fill="none" stroke="#000" stroke-width="2" stroke-miterlimit="10" cx="23.5" cy="187.6" r="4.6"/><circle fill="none" stroke="#000" stroke-width="2" stroke-miterlimit="10" cx="21.4" cy="203.3" r="7"/><circle fill="none" stroke="#000" stroke-width="2" stroke-miterlimit="10" cx="32.3" cy="196.5" r="1.8"/><circle fill="none" stroke="#000" stroke-width="2" stroke-miterlimit="10" cx="39.5" cy="194.1" r="1.8"/><circle fill="none" stroke="#000" stroke-width="2" stroke-miterlimit="10" cx="35.6" cy="201.9" r="2"/><circle fill="none" stroke="#000" stroke-width="2" stroke-miterlimit="10" cx="46.9" cy="195.6" r="2.2"/><circle fill="none" stroke="#000" stroke-width="2" stroke-miterlimit="10" cx="54.8" cy="201.5" r="4.4"/><circle fill="none" stroke="#000" stroke-width="2" stroke-miterlimit="10" cx="53.5" cy="189.8" r="2.2"/><circle fill="none" stroke="#000" stroke-width="2" stroke-miterlimit="10" cx="64.1" cy="195.6" r="3.4"/><circle fill="none" stroke="#000" stroke-width="2" stroke-miterlimit="10" cx="75.9" cy="197.4" r="5.1"/><circle fill="none" stroke="#000" stroke-width="2" stroke-miterlimit="10" cx="69.3" cy="189.4" r="1.3"/><circle fill="none" stroke="#000" stroke-width="2" stroke-miterlimit="10" cx="62" cy="182.1" r="3.7"/><circle fill="none" stroke="#000" stroke-width="2" stroke-miterlimit="10" cx="70.6" cy="182.7" r="2.2"/><circle fill="none" stroke="#000" stroke-width="2" stroke-miterlimit="10" cx="66.9" cy="176.2" r="1.2"/><circle fill="none" stroke="#000" stroke-width="2" stroke-miterlimit="10" cx="58.8" cy="171.4" r="5"/><circle fill="none" stroke="#000" stroke-width="2" stroke-miterlimit="10" cx="60" cy="158.8" r="4.4"/><circle fill="none" stroke="#000" stroke-width="2" stroke-miterlimit="10" cx="112.7" cy="91.9" r="1.9"/><circle fill="none" stroke="#000" stroke-width="2" stroke-miterlimit="10" cx="105.9" cy="93.8" r="2.2"/><circle fill="none" stroke="#000" stroke-width="2" stroke-miterlimit="10" cx="109.8" cy="85.6" r="2.3"/><circle fill="none" stroke="#000" stroke-width="2" stroke-miterlimit="10" cx="117.2" cy="86.5" r="2.3"/><circle fill="none" stroke="#000" stroke-width="2" stroke-miterlimit="10" cx="116" cy="79.8" r="2.3"/><circle fill="none" stroke="#000" stroke-width="2" stroke-miterlimit="10" cx="93.6" cy="109.7" r="7.6"/><circle fill="none" stroke="#000" stroke-width="2" stroke-miterlimit="10" cx="100.1" cy="122.3" r="2.7"/><circle fill="none" stroke="#000" stroke-width="2" stroke-miterlimit="10" cx="91.3" cy="125.2" r="2.3"/><circle fill="none" stroke="#000" stroke-width="2" stroke-miterlimit="10" cx="93.2" cy="134.8" r="1.9"/><circle fill="none" stroke="#000" stroke-width="2" stroke-miterlimit="10" cx="96.9" cy="144.4" r="5.8"/><circle fill="none" stroke="#000" stroke-width="2" stroke-miterlimit="10" cx="89.5" cy="158" r="4.1"/><circle fill="none" stroke="#000" stroke-width="2" stroke-miterlimit="10" cx="99.8" cy="155.9" r="2.9"/><circle fill="none" stroke="#000" stroke-width="2" stroke-miterlimit="10" cx="97.2" cy="163.6" r="1.5"/><circle transform="rotate(-45.001 91.436 173.94)" fill="none" stroke="#000" stroke-width="2" stroke-miterlimit="10" cx="91.4" cy="173.9" r="6.1"/><circle fill="none" stroke="#000" stroke-width="2" stroke-miterlimit="10" cx="100.7" cy="169" r="2"/><circle fill="none" stroke="#000" stroke-width="2" stroke-miterlimit="10" cx="95.6" cy="190.4" r="8.2"/><circle fill="none" stroke="#000" stroke-width="2" stroke-miterlimit="10" cx="109.6" cy="186.4" r="2.6"/><circle fill="none" stroke="#000" stroke-width="2" stroke-miterlimit="10" cx="109.6" cy="194.3" r="1.8"/><circle fill="none" stroke="#000" stroke-width="2" stroke-miterlimit="10" cx="119.8" cy="192.9" r="4.4"/><circle fill="none" stroke="#000" stroke-width="2" stroke-miterlimit="10" cx="116.6" cy="183" r="3.2"/><circle fill="none" stroke="#000" stroke-width="2" stroke-miterlimit="10" cx="128.1" cy="178" r="5.4"/><circle fill="none" stroke="#000" stroke-width="2" stroke-miterlimit="10" cx="123.2" cy="165.7" r="2.1"/><circle fill="none" stroke="#000" stroke-width="2" stroke-miterlimit="10" cx="128.1" cy="159.7" r="1.9"/><circle fill="none" stroke="#000" stroke-width="2" stroke-miterlimit="10" cx="129.8" cy="167.6" r="2.2"/><circle fill="none" stroke="#000" stroke-width="2" stroke-miterlimit="10" cx="127.8" cy="149.8" r="6.1"/><circle fill="none" stroke="#000" stroke-width="2" stroke-miterlimit="10" cx="122.4" cy="106.3" r="1.9"/><circle fill="none" stroke="#000" stroke-width="2" stroke-miterlimit="10" cx="131.3" cy="108.2" r="5.1"/><circle fill="none" stroke="#000" stroke-width="2" stroke-miterlimit="10" cx="122.8" cy="114.6" r="2.1"/><circle fill="none" stroke="#000" stroke-width="2" stroke-miterlimit="10" cx="127.1" cy="126.3" r="6"/><circle fill="none" stroke="#000" stroke-width="2" stroke-miterlimit="10" cx="132.9" cy="137.8" r="2.2"/><circle fill="none" stroke="#000" stroke-width="2" stroke-miterlimit="10" cx="123.9" cy="138.8" r="3.2"/><circle fill="none" stroke="#000" stroke-width="2" stroke-miterlimit="10" cx="130.2" cy="116.7" r="1.1"/><circle fill="none" stroke="#000" stroke-width="2" stroke-miterlimit="10" cx="156.2" cy="104.3" r="7.2"/><circle fill="none" stroke="#000" stroke-width="2" stroke-miterlimit="10" cx="148.8" cy="115.3" r="2.1"/><circle fill="none" stroke="#000" stroke-width="2" stroke-miterlimit="10" cx="159.3" cy="122.1" r="4.2"/><circle fill="none" stroke="#000" stroke-width="2" stroke-miterlimit="10" cx="151" cy="125.4" r="2"/><circle fill="none" stroke="#000" stroke-width="2" stroke-miterlimit="10" cx="151.5" cy="135.7" r="4.8"/><circle fill="none" stroke="#000" stroke-width="2" stroke-miterlimit="10" cx="160.4" cy="131.6" r="1.9"/><circle fill="none" stroke="#000" stroke-width="2" stroke-miterlimit="10" cx="148.6" cy="150.2" r="5.2"/><circle fill="none" stroke="#000" stroke-width="2" stroke-miterlimit="10" cx="157.3" cy="145.9" r="2.2"/><circle fill="none" stroke="#000" stroke-width="2" stroke-miterlimit="10" cx="155.7" cy="159.7" r="1.9"/><circle fill="none" stroke="#000" stroke-width="2" stroke-miterlimit="10" cx="148" cy="163.4" r="2.7"/><circle fill="none" stroke="#000" stroke-width="2" stroke-miterlimit="10" cx="154.6" cy="169.4" r="1.6"/><circle fill="none" stroke="#000" stroke-width="2" stroke-miterlimit="10" cx="151.2" cy="178" r="5.1"/><circle fill="none" stroke="#000" stroke-width="2" stroke-miterlimit="10" cx="150.1" cy="187.5" r="1.1"/><circle fill="none" stroke="#000" stroke-width="2" stroke-miterlimit="10" cx="157.5" cy="191.8" r="2.9"/><circle fill="none" stroke="#000" stroke-width="2" stroke-miterlimit="10" cx="146.9" cy="193.5" r="1.7"/><circle fill="none" stroke="#000" stroke-width="2" stroke-miterlimit="10" cx="166.8" cy="140.9" r="5.2"/><circle fill="none" stroke="#000" stroke-width="2" stroke-miterlimit="10" cx="166.1" cy="150.5" r="1.4"/><circle fill="none" stroke="#000" stroke-width="2" stroke-miterlimit="10" cx="171.7" cy="156.7" r="2.8"/><circle fill="none" stroke="#000" stroke-width="2" stroke-miterlimit="10" cx="169.2" cy="165.5" r="3.9"/><circle fill="none" stroke="#000" stroke-width="2" stroke-miterlimit="10" cx="175.6" cy="174.6" r="1.8"/><circle fill="none" stroke="#000" stroke-width="2" stroke-miterlimit="10" cx="178" cy="183.5" r="5.5"/><circle fill="none" stroke="#000" stroke-width="2" stroke-miterlimit="10" cx="183.6" cy="171.6" r="1.6"/><circle fill="none" stroke="#000" stroke-width="2" stroke-miterlimit="10" cx="179.2" cy="166.3" r="2.8"/><circle fill="none" stroke="#000" stroke-width="2" stroke-miterlimit="10" cx="188.8" cy="163.2" r="4.4"/><circle fill="none" stroke="#000" stroke-width="2" stroke-miterlimit="10" cx="186.9" cy="151" r="4.9"/><circle fill="none" stroke="#000" stroke-width="2" stroke-miterlimit="10" cx="194.9" cy="144.8" r="1.8"/><circle fill="none" stroke="#000" stroke-width="2" stroke-miterlimit="10" cx="188.8" cy="141.8" r="1.9"/><circle fill="none" stroke="#000" stroke-width="2" stroke-miterlimit="10" cx="188.5" cy="132.9" r="4.1"/><circle fill="none" stroke="#000" stroke-width="2" stroke-miterlimit="10" cx="198.8" cy="129.9" r="3.6"/><circle fill="none" stroke="#000" stroke-width="2" stroke-miterlimit="10" cx="196.4" cy="138.2" r="1.2"/><circle fill="none" stroke="#000" stroke-width="2" stroke-miterlimit="10" cx="189.9" cy="120.6" r="4.5"/><circle fill="none" stroke="#000" stroke-width="2" stroke-miterlimit="10" cx="199.5" cy="117.5" r="2.8"/><circle fill="none" stroke="#000" stroke-width="2" stroke-miterlimit="10" cx="195.1" cy="108.4" r="2.5"/><circle fill="none" stroke="#000" stroke-width="2" stroke-miterlimit="10" cx="203.4" cy="101.6" r="5.8"/><circle fill="none" stroke="#000" stroke-width="2" stroke-miterlimit="10" cx="206.9" cy="111.4" r="1.7"/><circle fill="none" stroke="#000" stroke-width="2" stroke-miterlimit="10" cx="208.9" cy="121.8" r="4.5"/><circle fill="none" stroke="#000" stroke-width="2" stroke-miterlimit="10" cx="207.2" cy="133" r="1.4"/><circle fill="none" stroke="#000" stroke-width="2" stroke-miterlimit="10" cx="207.7" cy="143.5" r="5.8"/><circle fill="none" stroke="#000" stroke-width="2" stroke-miterlimit="10" cx="203.5" cy="154.3" r="2.4"/><circle fill="none" stroke="#000" stroke-width="2" stroke-miterlimit="10" cx="210.6" cy="160.3" r="4.1"/><circle fill="none" stroke="#000" stroke-width="2" stroke-miterlimit="10" cx="203.3" cy="167" r="2"/><circle fill="none" stroke="#000" stroke-width="2" stroke-miterlimit="10" cx="207.4" cy="173.8" r="1.5"/><circle fill="none" stroke="#000" stroke-width="2" stroke-miterlimit="10" cx="203.5" cy="182.7" r="4.8"/><circle fill="none" stroke="#000" stroke-width="2" stroke-miterlimit="10" cx="211.9" cy="182.4" r="1.6"/><circle fill="none" stroke="#000" stroke-width="2" stroke-miterlimit="10" cx="211.2" cy="193.9" r="3.5"/><circle fill="none" stroke="#000" stroke-width="2" stroke-miterlimit="10" cx="202" cy="194.3" r="2.4"/><circle fill="none" stroke="#000" stroke-width="2" stroke-miterlimit="10" cx="230.3" cy="104.6" r="6.7"/><circle fill="none" stroke="#000" stroke-width="2" stroke-miterlimit="10" cx="241.7" cy="100.6" r="1.5"/><circle fill="none" stroke="#000" stroke-width="2" stroke-miterlimit="10" cx="243.1" cy="108.8" r="2.9"/><circle fill="none" stroke="#000" stroke-width="2" stroke-miterlimit="10" cx="249.2" cy="102" r="1.7"/><circle fill="none" stroke="#000" stroke-width="2" stroke-miterlimit="10" cx="256" cy="107.5" r="3.9"/><circle fill="none" stroke="#000" stroke-width="2" stroke-miterlimit="10" cx="255.1" cy="99.3" r=".9"/><circle fill="none" stroke="#000" stroke-width="2" stroke-miterlimit="10" cx="265.4" cy="99.4" r="4.5"/><circle fill="none" stroke="#000" stroke-width="2" stroke-miterlimit="10" cx="227.5" cy="116.5" r="1.9"/><circle fill="none" stroke="#000" stroke-width="2" stroke-miterlimit="10" cx="232.2" cy="123.9" r="3.6"/><circle fill="none" stroke="#000" stroke-width="2" stroke-miterlimit="10" cx="232.9" cy="115.3" r="1.2"/><circle fill="none" stroke="#000" stroke-width="2" stroke-miterlimit="10" cx="227" cy="134.4" r="3.4"/><circle fill="none" stroke="#000" stroke-width="2" stroke-miterlimit="10" cx="235.3" cy="132.7" r="1.7"/><circle fill="none" stroke="#000" stroke-width="2" stroke-miterlimit="10" cx="227.5" cy="145.1" r="4.6"/><circle fill="none" stroke="#000" stroke-width="2" stroke-miterlimit="10" cx="236.2" cy="140.8" r="1.8"/><circle fill="none" stroke="#000" stroke-width="2" stroke-miterlimit="10" cx="239.9" cy="151.3" r="4.6"/><circle fill="none" stroke="#000" stroke-width="2" stroke-miterlimit="10" cx="248.6" cy="146.5" r="1.6"/><circle fill="none" stroke="#000" stroke-width="2" stroke-miterlimit="10" cx="253" cy="153.2" r="2.7"/><circle fill="none" stroke="#000" stroke-width="2" stroke-miterlimit="10" cx="255.6" cy="146.6" r="1.5"/><circle fill="none" stroke="#000" stroke-width="2" stroke-miterlimit="10" cx="262.1" cy="151.8" r="2.7"/><circle fill="none" stroke="#000" stroke-width="2" stroke-miterlimit="10" cx="229.5" cy="158.5" r="4.7"/><circle fill="none" stroke="#000" stroke-width="2" stroke-miterlimit="10" cx="235.8" cy="166.7" r="1.1"/><circle fill="none" stroke="#000" stroke-width="2" stroke-miterlimit="10" cx="228.2" cy="169.9" r="3.3"/><circle fill="none" stroke="#000" stroke-width="2" stroke-miterlimit="10" cx="236.1" cy="176.6" r="1.9"/><circle fill="none" stroke="#000" stroke-width="2" stroke-miterlimit="10" cx="229.4" cy="182.5" r="4.5"/><circle fill="none" stroke="#000" stroke-width="2" stroke-miterlimit="10" cx="238.4" cy="189.3" r="2.3"/><circle fill="none" stroke="#000" stroke-width="2" stroke-miterlimit="10" cx="230.8" cy="196.2" r="4.5"/><circle fill="none" stroke="#000" stroke-width="2" stroke-miterlimit="10" cx="241.2" cy="196" r="1.3"/><circle fill="none" stroke="#000" stroke-width="2" stroke-miterlimit="10" cx="247.4" cy="188.1" r="2.3"/><circle fill="none" stroke="#000" stroke-width="2" stroke-miterlimit="10" cx="251.7" cy="196.1" r="3.9"/><circle fill="none" stroke="#000" stroke-width="2" stroke-miterlimit="10" cx="262.3" cy="191.9" r="3.8"/><circle fill="none" stroke="#000" stroke-width="2" stroke-miterlimit="10" cx="254.1" cy="185.5" r="1.5"/><circle fill="none" stroke="#000" stroke-width="2" stroke-miterlimit="10" cx="269.2" cy="186.9" r="2"/><circle fill="none" stroke="#000" stroke-width="2" stroke-miterlimit="10" cx="270.4" cy="196.6" r="2.3"/><circle fill="none" stroke="#000" stroke-width="2" stroke-miterlimit="10" cx="67" cy="167.8" r="1.7"/></svg>