<svg version="1" xmlns="http://www.w3.org/2000/svg" width="288" height="288"><circle fill="none" stroke="#000" stroke-width="2" stroke-miterlimit="10" cx="49.7" cy="174.4" r="6.5"/><circle fill="none" stroke="#000" stroke-width="2" stroke-miterlimit="10" cx="60.1" cy="176.4" r="1.8"/><circle fill="none" stroke="#000" stroke-width="2" stroke-miterlimit="10" cx="59.2" cy="169.8" r=".9"/><circle fill="none" stroke="#000" stroke-width="2" stroke-miterlimit="10" cx="54.8" cy="162.7" r="2.7"/><circle fill="none" stroke="#000" stroke-width="2" stroke-miterlimit="10" cx="44.1" cy="165.1" r="1.3"/><circle fill="none" stroke="#000" stroke-width="2" stroke-miterlimit="10" cx="52.4" cy="154.3" r="1.7"/><circle fill="none" stroke="#000" stroke-width="2" stroke-miterlimit="10" cx="58.4" cy="155.9" r="1.6"/><circle fill="none" stroke="#000" stroke-width="2" stroke-miterlimit="10" cx="62.6" cy="143.2" r="2.7"/><circle fill="none" stroke="#000" stroke-width="2" stroke-miterlimit="10" cx="58.7" cy="149.6" r="1.2"/><circle fill="none" stroke="#000" stroke-width="2" stroke-miterlimit="10" cx="36.9" cy="141.8" r="3.4"/><circle fill="none" stroke="#000" stroke-width="2" stroke-miterlimit="10" cx="43.5" cy="143" r="1.2"/><circle fill="none" stroke="#000" stroke-width="2" stroke-miterlimit="10" cx="28.9" cy="151.2" r="5.7"/><circle fill="none" stroke="#000" stroke-width="2" stroke-miterlimit="10" cx="30.7" cy="160.9" r="1.4"/><circle fill="none" stroke="#000" stroke-width="2" stroke-miterlimit="10" cx="22.9" cy="162" r="3.4"/><circle fill="none" stroke="#000" stroke-width="2" stroke-miterlimit="10" cx="28.3" cy="165.4" r=".6"/><circle fill="none" stroke="#000" stroke-width="2" stroke-miterlimit="10" cx="25.7" cy="171" r="3.2"/><circle fill="none" stroke="#000" stroke-width="2" stroke-miterlimit="10" cx="15.5" cy="171.7" r="4.5"/><circle fill="none" stroke="#000" stroke-width="2" stroke-miterlimit="10" cx="17.1" cy="184.3" r="6.1"/><circle fill="none" stroke="#000" stroke-width="2" stroke-miterlimit="10" cx="9.5" cy="193.4" r="2"/><circle fill="none" stroke="#000" stroke-width="2" stroke-miterlimit="10" cx="16.2" cy="197.3" r="2.3"/><circle fill="none" stroke="#000" stroke-width="2" stroke-miterlimit="10" cx="9.9" cy="200.5" r="1.8"/><circle fill="none" stroke="#000" stroke-width="2" stroke-miterlimit="10" cx="21.3" cy="207.2" r="4.4"/><circle fill="none" stroke="#000" stroke-width="2" stroke-miterlimit="10" cx="30.2" cy="207.8" r="1.9"/><circle fill="none" stroke="#000" stroke-width="2" stroke-miterlimit="10" cx="38.3" cy="204.6" r="3.4"/><circle fill="none" stroke="#000" stroke-width="2" stroke-miterlimit="10" cx="36.8" cy="197.7" r=".8"/><circle fill="none" stroke="#000" stroke-width="2" stroke-miterlimit="10" cx="49.5" cy="195.6" r="3.5"/><circle fill="none" stroke="#000" stroke-width="2" stroke-miterlimit="10" cx="48.8" cy="205.6" r="4.7"/><circle fill="none" stroke="#000" stroke-width="2" stroke-miterlimit="10" cx="56.2" cy="201.2" r="1.6"/><circle fill="none" stroke="#000" stroke-width="2" stroke-miterlimit="10" cx="13.2" cy="154.6" r="5.3"/><circle fill="none" stroke="#000" stroke-width="2" stroke-miterlimit="10" cx="9.6" cy="164" r="2.1"/><circle fill="none" stroke="#000" stroke-width="2" stroke-miterlimit="10" cx="20.5" cy="137.9" r="7.2"/><circle fill="none" stroke="#000" stroke-width="2" stroke-miterlimit="10" cx="9" cy="143.7" r="2.7"/><circle fill="none" stroke="#000" stroke-width="2" stroke-miterlimit="10" cx="31.9" cy="132.8" r="2"/><circle fill="none" stroke="#000" stroke-width="2" stroke-miterlimit="10" cx="40.4" cy="130.7" r="3.6"/><circle fill="none" stroke="#000" stroke-width="2" stroke-miterlimit="10" cx="45.7" cy="105.4" r="2.2"/><circle fill="none" stroke="#000" stroke-width="2" stroke-miterlimit="10" cx="49.5" cy="114.7" r="4.3"/><circle fill="none" stroke="#000" stroke-width="2" stroke-miterlimit="10" cx="53.4" cy="106.6" r="1.1"/><circle fill="none" stroke="#000" stroke-width="2" stroke-miterlimit="10" cx="45.3" cy="123.1" r="2.2"/><circle fill="none" stroke="#000" stroke-width="2" stroke-miterlimit="10" cx="15.4" cy="119" r="8.4"/><circle fill="none" stroke="#000" stroke-width="2" stroke-miterlimit="10" cx="27.5" cy="125.5" r="2.4"/><circle fill="none" stroke="#000" stroke-width="2" stroke-miterlimit="10" cx="5.3" cy="131.4" r="2.9"/><circle fill="none" stroke="#000" stroke-width="2" stroke-miterlimit="10" cx="10" cy="100.9" r="5.7"/><circle fill="none" stroke="#000" stroke-width="2" stroke-miterlimit="10" cx="20.3" cy="106.1" r="2.2"/><circle fill="none" stroke="#000" stroke-width="2" stroke-miterlimit="10" cx="15.1" cy="85.2" r="6.3"/><circle fill="none" stroke="#000" stroke-width="2" stroke-miterlimit="10" cx="18.2" cy="95.9" r="1.7"/><circle fill="none" stroke="#000" stroke-width="2" stroke-miterlimit="10" cx="25.5" cy="85.2" r="2.2"/><circle fill="none" stroke="#000" stroke-width="2" stroke-miterlimit="10" cx="38.9" cy="81.6" r="6.8"/><circle fill="none" stroke="#000" stroke-width="2" stroke-miterlimit="10" cx="26.3" cy="76.9" r="2.1"/><circle fill="none" stroke="#000" stroke-width="2" stroke-miterlimit="10" cx="51.5" cy="77.9" r="3"/><circle fill="none" stroke="#000" stroke-width="2" stroke-miterlimit="10" cx="57.8" cy="87.3" r="3.3"/><circle fill="none" stroke="#000" stroke-width="2" stroke-miterlimit="10" cx="60.9" cy="77" r="1.6"/><circle fill="none" stroke="#000" stroke-width="2" stroke-miterlimit="10" cx="72.7" cy="78.3" r="7"/><circle fill="none" stroke="#000" stroke-width="2" stroke-miterlimit="10" cx="76.9" cy="135.5" r="8.5"/><circle fill="none" stroke="#000" stroke-width="2" stroke-miterlimit="10" cx="63.3" cy="134.9" r="1"/><circle fill="none" stroke="#000" stroke-width="2" stroke-miterlimit="10" cx="69.8" cy="121.2" r="2.2"/><circle fill="none" stroke="#000" stroke-width="2" stroke-miterlimit="10" cx="79.6" cy="120.1" r="4.8"/><circle fill="none" stroke="#000" stroke-width="2" stroke-miterlimit="10" cx="84.4" cy="106" r="2.8"/><circle fill="none" stroke="#000" stroke-width="2" stroke-miterlimit="10" cx="88.6" cy="114" r="1.9"/><circle fill="none" stroke="#000" stroke-width="2" stroke-miterlimit="10" cx="80.1" cy="89.5" r="2.1"/><circle fill="none" stroke="#000" stroke-width="2" stroke-miterlimit="10" cx="82.7" cy="97.7" r="3.5"/><circle fill="none" stroke="#000" stroke-width="2" stroke-miterlimit="10" cx="88.7" cy="79" r="5.4"/><circle fill="none" stroke="#000" stroke-width="2" stroke-miterlimit="10" cx="90.1" cy="90" r="3.9"/><circle fill="none" stroke="#000" stroke-width="2" stroke-miterlimit="10" cx="101" cy="88.4" r="3.1"/><circle fill="none" stroke="#000" stroke-width="2" stroke-miterlimit="10" cx="101.5" cy="76.3" r="4"/><circle transform="rotate(-45.001 74.815 149.077)" fill="none" stroke="#000" stroke-width="2" stroke-miterlimit="10" cx="74.8" cy="149.1" r="2.1"/><circle fill="none" stroke="#000" stroke-width="2" stroke-miterlimit="10" cx="83" cy="158" r="6.1"/><circle fill="none" stroke="#000" stroke-width="2" stroke-miterlimit="10" cx="84.4" cy="146.9" r="2.6"/><circle fill="none" stroke="#000" stroke-width="2" stroke-miterlimit="10" cx="91.3" cy="139.4" r="3.3"/><circle fill="none" stroke="#000" stroke-width="2" stroke-miterlimit="10" cx="89.7" cy="128.7" r="3.2"/><circle fill="none" stroke="#000" stroke-width="2" stroke-miterlimit="10" cx="88" cy="120.6" r="1"/><circle fill="none" stroke="#000" stroke-width="2" stroke-miterlimit="10" cx="78.4" cy="168.3" r="1.5"/><circle fill="none" stroke="#000" stroke-width="2" stroke-miterlimit="10" cx="85.2" cy="177.1" r="5.3"/><circle fill="none" stroke="#000" stroke-width="2" stroke-miterlimit="10" cx="69.8" cy="207.6" r="7.1"/><circle fill="none" stroke="#000" stroke-width="2" stroke-miterlimit="10" cx="70.2" cy="195.9" r="1.5"/><circle fill="none" stroke="#000" stroke-width="2" stroke-miterlimit="10" cx="80.3" cy="201.2" r="3.5"/><circle fill="none" stroke="#000" stroke-width="2" stroke-miterlimit="10" cx="96.9" cy="205.3" r="7.8"/><circle fill="none" stroke="#000" stroke-width="2" stroke-miterlimit="10" cx="91.1" cy="192.1" r="2.5"/><circle fill="none" stroke="#000" stroke-width="2" stroke-miterlimit="10" cx="107.4" cy="196.7" r="3.1"/><circle fill="none" stroke="#000" stroke-width="2" stroke-miterlimit="10" cx="117.8" cy="197.6" r="3.6"/><circle fill="none" stroke="#000" stroke-width="2" stroke-miterlimit="10" cx="113.9" cy="209.4" r="6.2"/><circle fill="none" stroke="#000" stroke-width="2" stroke-miterlimit="10" cx="116.7" cy="98.4" r="8.1"/><circle fill="none" stroke="#000" stroke-width="2" stroke-miterlimit="10" cx="113" cy="112.2" r="1.5"/><circle fill="none" stroke="#000" stroke-width="2" stroke-miterlimit="10" cx="121.2" cy="113.1" r="3.9"/><circle fill="none" stroke="#000" stroke-width="2" stroke-miterlimit="10" cx="107.8" cy="124.5" r="3.6"/><circle fill="none" stroke="#000" stroke-width="2" stroke-miterlimit="10" cx="118" cy="123.4" r="2.5"/><circle fill="none" stroke="#000" stroke-width="2" stroke-miterlimit="10" cx="116.4" cy="136.6" r="5"/><circle fill="none" stroke="#000" stroke-width="2" stroke-miterlimit="10" cx="112.9" cy="145.7" r="1.5"/><circle fill="none" stroke="#000" stroke-width="2" stroke-miterlimit="10" cx="122.1" cy="151.1" r="3.8"/><circle fill="none" stroke="#000" stroke-width="2" stroke-miterlimit="10" cx="111.2" cy="154.5" r="1.9"/><circle fill="none" stroke="#000" stroke-width="2" stroke-miterlimit="10" cx="119.8" cy="163.2" r="4.6"/><circle fill="none" stroke="#000" stroke-width="2" stroke-miterlimit="10" cx="107.9" cy="171.4" r="2.6"/><circle fill="none" stroke="#000" stroke-width="2" stroke-miterlimit="10" cx="111.1" cy="165.4" r="1.4"/><circle fill="none" stroke="#000" stroke-width="2" stroke-miterlimit="10" cx="114.7" cy="170.8" r="1"/><circle fill="none" stroke="#000" stroke-width="2" stroke-miterlimit="10" cx="133.1" cy="200.7" r="7.2"/><circle fill="none" stroke="#000" stroke-width="2" stroke-miterlimit="10" cx="136.9" cy="185.7" r="2.5"/><circle fill="none" stroke="#000" stroke-width="2" stroke-miterlimit="10" cx="143.8" cy="181.2" r="2.6"/><circle fill="none" stroke="#000" stroke-width="2" stroke-miterlimit="10" cx="145.6" cy="193.6" r="3.7"/><circle fill="none" stroke="#000" stroke-width="2" stroke-miterlimit="10" cx="144.2" cy="157.6" r="3.9"/><circle fill="none" stroke="#000" stroke-width="2" stroke-miterlimit="10" cx="145.3" cy="169.4" r="3.8"/><circle fill="none" stroke="#000" stroke-width="2" stroke-miterlimit="10" cx="151.2" cy="162.9" r="1.5"/><circle fill="none" stroke="#000" stroke-width="2" stroke-miterlimit="10" cx="139.9" cy="149.6" r=".9"/><circle fill="none" stroke="#000" stroke-width="2" stroke-miterlimit="10" cx="145.6" cy="148.6" r="2.3"/><circle fill="none" stroke="#000" stroke-width="2" stroke-miterlimit="10" cx="144.3" cy="135.2" r="3"/><circle fill="none" stroke="#000" stroke-width="2" stroke-miterlimit="10" cx="143.5" cy="142.7" r="1.5"/><circle fill="none" stroke="#000" stroke-width="2" stroke-miterlimit="10" cx="150.8" cy="133.7" r="1.2"/><circle fill="none" stroke="#000" stroke-width="2" stroke-miterlimit="10" cx="144.1" cy="123.8" r="3"/><circle fill="none" stroke="#000" stroke-width="2" stroke-miterlimit="10" cx="149.4" cy="120.6" r=".8"/><circle fill="none" stroke="#000" stroke-width="2" stroke-miterlimit="10" cx="143.9" cy="112.2" r="4.5"/><circle fill="none" stroke="#000" stroke-width="2" stroke-miterlimit="10" cx="152.3" cy="113.8" r="1.6"/><circle fill="none" stroke="#000" stroke-width="2" stroke-miterlimit="10" cx="137.3" cy="88.4" r="3.1"/><circle fill="none" stroke="#000" stroke-width="2" stroke-miterlimit="10" cx="146.3" cy="95.8" r="3.8"/><circle fill="none" stroke="#000" stroke-width="2" stroke-miterlimit="10" cx="146.7" cy="104.3" r="1.7"/><circle fill="none" stroke="#000" stroke-width="2" stroke-miterlimit="10" cx="151.4" cy="101.8" r=".6"/><circle fill="none" stroke="#000" stroke-width="2" stroke-miterlimit="10" cx="125.6" cy="86.6" r="2.3"/><circle fill="none" stroke="#000" stroke-width="2" stroke-miterlimit="10" cx="130.9" cy="76.3" r="4.3"/><circle fill="none" stroke="#000" stroke-width="2" stroke-miterlimit="10" cx="130.9" cy="84.9" r="1.2"/><circle fill="none" stroke="#000" stroke-width="2" stroke-miterlimit="10" cx="148.5" cy="79.9" r="8.5"/><circle fill="none" stroke="#000" stroke-width="2" stroke-miterlimit="10" cx="179.9" cy="111.6" r="9"/><circle fill="none" stroke="#000" stroke-width="2" stroke-miterlimit="10" cx="172.7" cy="123.8" r="1.6"/><circle fill="none" stroke="#000" stroke-width="2" stroke-miterlimit="10" cx="181.9" cy="128" r="2"/><circle fill="none" stroke="#000" stroke-width="2" stroke-miterlimit="10" cx="182.8" cy="137.8" r="2.8"/><circle fill="none" stroke="#000" stroke-width="2" stroke-miterlimit="10" cx="176.3" cy="93.7" r="4.8"/><circle fill="none" stroke="#000" stroke-width="2" stroke-miterlimit="10" cx="190.9" cy="97.1" r="5.3"/><circle fill="none" stroke="#000" stroke-width="2" stroke-miterlimit="10" cx="163.9" cy="83.2" r="3.2"/><circle fill="none" stroke="#000" stroke-width="2" stroke-miterlimit="10" cx="176.3" cy="77.8" r="5.9"/><circle fill="none" stroke="#000" stroke-width="2" stroke-miterlimit="10" cx="187" cy="85.5" r="2.3"/><circle fill="none" stroke="#000" stroke-width="2" stroke-miterlimit="10" cx="167.6" cy="148.4" r="2"/><circle fill="none" stroke="#000" stroke-width="2" stroke-miterlimit="10" cx="166.6" cy="158.8" r="2.7"/><circle fill="none" stroke="#000" stroke-width="2" stroke-miterlimit="10" cx="168" cy="169.3" r="2.5"/><circle fill="none" stroke="#000" stroke-width="2" stroke-miterlimit="10" cx="167.8" cy="177.9" r="2.7"/><circle fill="none" stroke="#000" stroke-width="2" stroke-miterlimit="10" cx="163.6" cy="199.9" r="10.1"/><circle fill="none" stroke="#000" stroke-width="2" stroke-miterlimit="10" cx="173.1" cy="186.7" r="3.5"/><circle fill="none" stroke="#000" stroke-width="2" stroke-miterlimit="10" cx="173.6" cy="172.7" r="1.7"/><circle fill="none" stroke="#000" stroke-width="2" stroke-miterlimit="10" cx="186.1" cy="194.1" r="5.8"/><circle fill="none" stroke="#000" stroke-width="2" stroke-miterlimit="10" cx="181.4" cy="205.8" r="3.4"/><circle fill="none" stroke="#000" stroke-width="2" stroke-miterlimit="10" cx="196.8" cy="180.8" r="5.2"/><circle fill="none" stroke="#000" stroke-width="2" stroke-miterlimit="10" cx="193.8" cy="169.6" r="1.4"/><circle fill="none" stroke="#000" stroke-width="2" stroke-miterlimit="10" cx="200.9" cy="167.6" r="2.2"/><circle fill="none" stroke="#000" stroke-width="2" stroke-miterlimit="10" cx="202" cy="146.2" r="2.5"/><circle fill="none" stroke="#000" stroke-width="2" stroke-miterlimit="10" cx="203.1" cy="154.8" r="1.7"/><circle fill="none" stroke="#000" stroke-width="2" stroke-miterlimit="10" cx="222.5" cy="164.5" r="5.9"/><circle fill="none" stroke="#000" stroke-width="2" stroke-miterlimit="10" cx="225" cy="152.4" r="2.5"/><circle fill="none" stroke="#000" stroke-width="2" stroke-miterlimit="10" cx="218.8" cy="145.2" r="2.2"/><circle fill="none" stroke="#000" stroke-width="2" stroke-miterlimit="10" cx="226.3" cy="143.9" r="1.3"/><circle fill="none" stroke="#000" stroke-width="2" stroke-miterlimit="10" cx="220" cy="126.4" r="3"/><circle fill="none" stroke="#000" stroke-width="2" stroke-miterlimit="10" cx="223.6" cy="136.3" r="2.6"/><circle fill="none" stroke="#000" stroke-width="2" stroke-miterlimit="10" cx="226.3" cy="118.3" r="3.7"/><circle fill="none" stroke="#000" stroke-width="2" stroke-miterlimit="10" cx="218.5" cy="107" r="1.5"/><circle fill="none" stroke="#000" stroke-width="2" stroke-miterlimit="10" cx="225.9" cy="108" r="2.9"/><circle fill="none" stroke="#000" stroke-width="2" stroke-miterlimit="10" cx="221.2" cy="97" r="4.3"/><circle fill="none" stroke="#000" stroke-width="2" stroke-miterlimit="10" cx="197.5" cy="86.8" r="2.7"/><circle fill="none" stroke="#000" stroke-width="2" stroke-miterlimit="10" cx="208.1" cy="82.9" r="2.1"/><circle fill="none" stroke="#000" stroke-width="2" stroke-miterlimit="10" cx="221.4" cy="81.6" r="5.7"/><circle fill="none" stroke="#000" stroke-width="2" stroke-miterlimit="10" cx="238.7" cy="80.1" r="6.2"/><circle fill="none" stroke="#000" stroke-width="2" stroke-miterlimit="10" cx="229.3" cy="87.3" r="1.3"/><circle fill="none" stroke="#000" stroke-width="2" stroke-miterlimit="10" cx="254.3" cy="86.9" r="3.9"/><circle fill="none" stroke="#000" stroke-width="2" stroke-miterlimit="10" cx="251.5" cy="77.9" r="2.4"/><circle fill="none" stroke="#000" stroke-width="2" stroke-miterlimit="10" cx="246.9" cy="86.4" r=".9"/><circle fill="none" stroke="#000" stroke-width="2" stroke-miterlimit="10" cx="265" cy="80.3" r="4.4"/><circle fill="none" stroke="#000" stroke-width="2" stroke-miterlimit="10" cx="273.9" cy="83.6" r="1.5"/><circle fill="none" stroke="#000" stroke-width="2" stroke-miterlimit="10" cx="271.8" cy="104.1" r="4.2"/><circle fill="none" stroke="#000" stroke-width="2" stroke-miterlimit="10" cx="279.5" cy="96.5" r="2"/><circle fill="none" stroke="#000" stroke-width="2" stroke-miterlimit="10" cx="279.5" cy="88.9" r="2"/><circle fill="none" stroke="#000" stroke-width="2" stroke-miterlimit="10" cx="250.2" cy="114.4" r="7.3"/><circle fill="none" stroke="#000" stroke-width="2" stroke-miterlimit="10" cx="262.2" cy="112.5" r="2.5"/><circle fill="none" stroke="#000" stroke-width="2" stroke-miterlimit="10" cx="262.9" cy="123.4" r="2.8"/><circle fill="none" stroke="#000" stroke-width="2" stroke-miterlimit="10" cx="273.9" cy="118.3" r="5.8"/><circle fill="none" stroke="#000" stroke-width="2" stroke-miterlimit="10" cx="247.2" cy="126.9" r="1.8"/><circle fill="none" stroke="#000" stroke-width="2" stroke-miterlimit="10" cx="255.8" cy="129.8" r="3.7"/><circle fill="none" stroke="#000" stroke-width="2" stroke-miterlimit="10" cx="248.4" cy="134.7" r="1.7"/><circle fill="none" stroke="#000" stroke-width="2" stroke-miterlimit="10" cx="267.6" cy="133.5" r="5"/><circle fill="none" stroke="#000" stroke-width="2" stroke-miterlimit="10" cx="276.8" cy="129.6" r="2.4"/><circle fill="none" stroke="#000" stroke-width="2" stroke-miterlimit="10" cx="274.1" cy="141.5" r="1.5"/><circle fill="none" stroke="#000" stroke-width="2" stroke-miterlimit="10" cx="252.8" cy="160.6" r="8.5"/><circle fill="none" stroke="#000" stroke-width="2" stroke-miterlimit="10" cx="262.2" cy="152.5" r="1.8"/><circle fill="none" stroke="#000" stroke-width="2" stroke-miterlimit="10" cx="269.4" cy="160.3" r="4.9"/><circle fill="none" stroke="#000" stroke-width="2" stroke-miterlimit="10" cx="269.7" cy="150.8" r="1.6"/><circle fill="none" stroke="#000" stroke-width="2" stroke-miterlimit="10" cx="277" cy="150.6" r="3.3"/><circle fill="none" stroke="#000" stroke-width="2" stroke-miterlimit="10" cx="269.2" cy="172" r="4.2"/><circle fill="none" stroke="#000" stroke-width="2" stroke-miterlimit="10" cx="260.4" cy="171.7" r="2.3"/><circle fill="none" stroke="#000" stroke-width="2" stroke-miterlimit="10" cx="245.4" cy="174.9" r="1.9"/><circle fill="none" stroke="#000" stroke-width="2" stroke-miterlimit="10" cx="252" cy="173.4" r="1.4"/><circle fill="none" stroke="#000" stroke-width="2" stroke-miterlimit="10" cx="225" cy="178.9" r="4"/><circle fill="none" stroke="#000" stroke-width="2" stroke-miterlimit="10" cx="224.2" cy="187.3" r="1.7"/><circle fill="none" stroke="#000" stroke-width="2" stroke-miterlimit="10" cx="227.4" cy="197.2" r="4.3"/><circle fill="none" stroke="#000" stroke-width="2" stroke-miterlimit="10" cx="213.8" cy="196.8" r="3.6"/><circle fill="none" stroke="#000" stroke-width="2" stroke-miterlimit="10" cx="200.8" cy="194.2" r="4.7"/><circle fill="none" stroke="#000" stroke-width="2" stroke-miterlimit="10" cx="243.2" cy="195.7" r="2.2"/><circle fill="none" stroke="#000" stroke-width="2" stroke-miterlimit="10" cx="236.8" cy="205.5" r="5.1"/><circle fill="none" stroke="#000" stroke-width="2" stroke-miterlimit="10" cx="252.6" cy="197.5" r="2.7"/><circle fill="none" stroke="#000" stroke-width="2" stroke-miterlimit="10" cx="248.6" cy="204.8" r="2.3"/><circle fill="none" stroke="#000" stroke-width="2" stroke-miterlimit="10" cx="266.4" cy="195.5" r="4.8"/><circle fill="none" stroke="#000" stroke-width="2" stroke-miterlimit="10" cx="258.8" cy="201.9" r="1.4"/><circle fill="none" stroke="#000" stroke-width="2" stroke-miterlimit="10" cx="276.9" cy="196.8" r="3.2"/><circle fill="none" stroke="#000" stroke-width="2" stroke-miterlimit="10" cx="280.9" cy="183.5" r="1.6"/><circle fill="none" stroke="#000" stroke-width="2" stroke-miterlimit="10" cx="277.6" cy="168.2" r="2.8"/><circle fill="none" stroke="#000" stroke-width="2" stroke-miterlimit="10" cx="278.5" cy="159" r="1.5"/><circle fill="none" stroke="#000" stroke-width="2" stroke-miterlimit="10" cx="277.2" cy="136" r="1.3"/><circle fill="none" stroke="#000" stroke-width="2" stroke-miterlimit="10" cx="281.1" cy="107.4" r="3.5"/><circle fill="none" stroke="#000" stroke-width="2" stroke-miterlimit="10" cx="277.7" cy="177.6" r="2"/><circle fill="none" stroke="#000" stroke-width="2" stroke-miterlimit="10" cx="282.8" cy="189.9" r="2.6"/></svg>