<svg version="1" xmlns="http://www.w3.org/2000/svg" width="288" height="288"><circle fill="none" stroke="#000" stroke-width="2" stroke-miterlimit="10" cx="105.7" cy="160.5" r="19.1"/><path fill="none" stroke="#000" stroke-width="2" stroke-miterlimit="10" d="M154.8 168.2V152h-12.1c-1-4.4-2.8-8.6-5.2-12.2l8.7-8.7-11.4-11.4-8.8 8.8c-3.7-2.3-7.8-4-12.2-5V111H97.6v12.5c-4.4 1-8.5 2.7-12.2 5l-8.8-8.8-11.4 11.4 8.7 8.7c-2.4 3.7-4.2 7.8-5.2 12.2H56.6v16.2h12c.9 4.5 2.7 8.8 5.1 12.6l-8.4 8.4 11.4 11.4 8.3-8.3c3.8 2.5 8.1 4.3 12.7 5.3v11.6h16.2v-11.6c4.6-1 8.9-2.8 12.7-5.3l8.3 8.3 11.4-11.4-8.4-8.4c2.4-3.8 4.1-8 5.1-12.6h11.8z"/><circle transform="rotate(-73.016 188.362 121.845)" fill="none" stroke="#000" stroke-width="2" stroke-miterlimit="10" cx="188.4" cy="121.8" r="16.5"/><path fill="none" stroke="#000" stroke-width="2" stroke-miterlimit="10" d="M227.1 140.6l4.1-13.4-10-3.1c.3-3.9-.2-7.8-1.2-11.4l9.4-5-6.6-12.4-9.5 5c-2.5-2.9-5.4-5.3-8.8-7.2l3.1-10.3-13.4-4.1-3.2 10.4c-3.9-.3-7.7.1-11.3 1.1l-5-9.5-12.4 6.6 5 9.4c-2.9 2.4-5.4 5.4-7.4 8.8l-10-3.1-4.1 13.4 9.9 3c-.4 4 0 7.9 1 11.7l-9 4.8 6.6 12.4 8.9-4.8c2.5 3 5.6 5.6 9.1 7.6l-2.9 9.6 13.4 4.1 2.9-9.6c4 .3 8-.1 11.8-1.2l4.8 8.9 12.4-6.6-4.8-9c2.9-2.5 5.5-5.6 7.4-9.1l9.8 3z"/></svg>