<svg version="1" xmlns="http://www.w3.org/2000/svg" width="194" height="425.7"><ellipse transform="rotate(-3.322 101.481 243.948) scale(.99998)" fill="none" stroke="#000" stroke-width="2" stroke-miterlimit="10" cx="101.5" cy="244" rx="14.8" ry="20"/><path fill="none" stroke="#000" stroke-width="2" stroke-miterlimit="10" d="M99.1 263.6l-.4 6.5 10.3-.4-2-6.8m-22.4 8.4l38-2.4-2.6 58.5H91.9z"/><path fill="none" stroke="#000" stroke-width="2" stroke-miterlimit="10" d="M88.8 271l-18.2-48.7-20-1.3 1.7 5.4 10.3 2.4 23.6 54.5m32.7-14.1l10.1-47.4 17.8-1.4-.3 5-10.9 2.8-13.3 47.7m-2.3 51.5l16.6 80.3 10.5-7 .9 7.7-16.1 8.4-26.2-79.1-19.9 79.5-12.1-14.9 1.9-7.4 7.1 6.5 9.2-74"/><ellipse transform="rotate(-6.956 99.508 72.532)" fill="none" stroke="#000" stroke-width="2" stroke-miterlimit="10" cx="99.5" cy="72.5" rx="11.9" ry="16.1"/><path fill="none" stroke="#000" stroke-width="2" stroke-miterlimit="10" d="M112.1 72.4c3.6-.5 6.1-.8 6.1-.8l1.1 58.5-28.1 1.8-10.8-55.5s3.3-.4 8-1"/><path fill="none" stroke="#000" stroke-width="2" stroke-miterlimit="10" d="M84.6 75.9L63.3 28.4h-20l2 5.2 10.5 1.8 27 52.9m31.8-16.2l7-48 9.1-16.9 4.5 7-8 11.5-8.9 52.9m-27.1 53.3l-21.5 83.4-21.3-3.8v9.5h25l31.3-80 23.2 80 22.8-1.7V210l-17.8 2.3-13.6-82.2"/></svg>