<svg version="1" xmlns="http://www.w3.org/2000/svg" width="194" height="425.7"><ellipse transform="rotate(-80.996 127.374 229.263)" fill="none" stroke="#000" stroke-width="2" stroke-miterlimit="10" cx="127.4" cy="229.3" rx="15.8" ry="9.8"/><path fill="none" stroke="#000" stroke-width="2" stroke-miterlimit="10" d="M128.5 244.4l-1.4 5.6-7.2-1.8 1.3-5.2m-10.6 14.1c-3 14.6-7.9 38.5-7.9 38.5l25.3 6.2 7.3-49-21-6"/><path fill="none" stroke="#000" stroke-width="2" stroke-miterlimit="10" d="M121.3 255.3l-25.2-31.9-16-5.8v4l14.4 7.4 19.5 34m-11.3 32.6s-8.3 5.1-8.3 5.9-2.6 37.5-2.6 37.5l-9.5-.1-.1 6.1 17-1.6 3.3-33.3 13.3-10 .6 22.6 24.7 29.2-9 2.4 2.1 5.3 18.9-5.1-25.4-32.5.2-20.2"/><ellipse transform="rotate(-11.601 79.513 80.984)" fill="none" stroke="#000" stroke-width="2" stroke-miterlimit="10" cx="79.5" cy="81" rx="10.3" ry="16.4"/><path fill="none" stroke="#000" stroke-width="2" stroke-miterlimit="10" d="M86.6 94.4l.2 7.1-8.8-.6.8-4.9"/><path fill="none" stroke="#000" stroke-width="2" stroke-miterlimit="10" d="M72.6 113.1c1.1 15.8 2.9 42 2.9 42l23.9.8-2.3-54.4-25.3-.1s.1 1.1.2 2.9"/><path fill="none" stroke="#000" stroke-width="2" stroke-miterlimit="10" d="M87.3 107.2l-33.9-6.4-.9-3.7-3.2-1.1-.7 4-7.7-.5 1.7 8.2 10.9-.7 32.4 8.9m2 39.6l4.5 65-15.3-4.7-1-7.4 12.4 2.4-11.4-55.4m18.8 1.4l-.3 66.2"/></svg>