<svg version="1" xmlns="http://www.w3.org/2000/svg" width="215.3" height="195"><ellipse transform="rotate(-82.34 48.737 59.902)" fill="none" stroke="#000" stroke-width="2" stroke-miterlimit="10" cx="48.7" cy="59.9" rx="16.2" ry="9.7"/><path fill="none" stroke="#000" stroke-width="2" stroke-miterlimit="10" d="M41.9 73.2L40.7 79l8 2.2.9-5.5m-15.7 1.5l23.5 7.3-11.2 45.7-19.1-4.2zM27.1 126l-17.8 1.8 10.4 33.6h-8.9l.5 4.2"/><path fill="none" stroke="#000" stroke-width="2" stroke-miterlimit="10" d="M38.9 128.6l-14.5 7.7 2.7 29.7"/><path fill="none" stroke="#000" stroke-width="2" stroke-miterlimit="10" d="M46.2 130.2V183h7.1l-2 6.8H40.7l-4.1-61.2m-2.7-51.4L19.3 43.8 3.6 40.3l1.2 5.5 9.5 4 17.3 42m25.8-7.3l18.7-7.3L77.6 47l14-1.7v4l-8 3-.5 30.7-28.2 13.3"/><ellipse transform="matrix(.03012 -.9995 .9995 .03012 106.456 241.681)" fill="none" stroke="#000" stroke-width="2" stroke-miterlimit="10" cx="177.8" cy="66" rx="16.2" ry="9.7"/><path fill="none" stroke="#000" stroke-width="2" stroke-miterlimit="10" d="M169.6 75.1c-2.6.4-4.4.6-4.4.6l3.6 47 19.6-1.1 1.2-49.2s-.9.1-2.3.3"/><path fill="none" stroke="#000" stroke-width="2" stroke-miterlimit="10" d="M188.3 121.6l17.2 4.7-15.7 31.4 8.8 1.5-1.2 4"/><path fill="none" stroke="#000" stroke-width="2" stroke-miterlimit="10" d="M176.3 122.2l13 10-7.5 28.9"/><path fill="none" stroke="#000" stroke-width="2" stroke-miterlimit="10" d="M168.8 122.7l-9.1 55-12-1.2 2.9 6.5 13.9-.7 14-59.7m-13.4-46.9l-44-34.8 1.2-5.6-3.8-1-1.2 5.1m-11.1 5.9l1.5 3.3 10.1-.4 48.7 42.7m23-16.4l7.4-29.9-8.6-38.4h-8.9l-.9 6.8 4.5 2.9 4.7 25.9-2.6 13.2"/></svg>