<svg version="1" xmlns="http://www.w3.org/2000/svg" width="194" height="425.7"><ellipse transform="rotate(-8.467 55.454 230.065)" fill="none" stroke="#000" stroke-width="2" stroke-miterlimit="10" cx="55.4" cy="230.1" rx="9.8" ry="15.8"/><path fill="none" stroke="#000" stroke-width="2" stroke-miterlimit="10" d="M54.1 245.2l1.3 5.6 7.2-1.7-1.2-5.3m10.4 14.3c2.9 14.6 7.6 38.6 7.6 38.6l-25.3 5.9-6.9-49.1s16.1-4.4 21.1-5.8"/><path fill="none" stroke="#000" stroke-width="2" stroke-miterlimit="10" d="M61.2 256.2l25.5-31.7 16-5.7v4.1l-14.5 7.2L68.4 264m11 32.7s8.2 5.2 8.2 5.9 2.2 37.5 2.2 37.5h9.5v6.1l-17-1.8-3-33.4-13.2-10.1-.8 22.6-25 29 9 2.5-2.2 5.2-18.8-5.2L54 322.8v-20.2"/><ellipse transform="rotate(-84.673 120.91 81.853) scale(1.00002)" fill="none" stroke="#000" stroke-width="2" stroke-miterlimit="10" cx="120.9" cy="81.9" rx="16.4" ry="10.2"/><path fill="none" stroke="#000" stroke-width="2" stroke-miterlimit="10" d="M114.2 95.2l-1.4 6.9 8.7.9v-5m6.9 20.8c-2.3 16.6-5.8 41-5.8 41l-23.7-3.1 2.2-54.8 29.4 1.8s-.4 2.6-1 6.8"/><path fill="none" stroke="#000" stroke-width="2" stroke-miterlimit="10" d="M118.7 110.5l34.5-.8 1.5-3.4 3.3-.6v4l7.7.8-3 7.8-10.6-2.5-33.4 3.6m-8.5 38.7l-15 63.4 14.7-5.2v-5.7l-9.3 2 20.3-52.9m-20.5-2.1l-10.5 65.3"/></svg>