<svg version="1" xmlns="http://www.w3.org/2000/svg" width="720" height="1152"><ellipse transform="rotate(-6.956 308.81 922.897)" fill="none" stroke="#000" stroke-width="2" stroke-miterlimit="10" cx="308.9" cy="923.2" rx="14.8" ry="20"/><path fill="none" stroke="#000" stroke-width="2" stroke-miterlimit="10" d="M306.8 942.7l.9 5.9m8.6-7.4l1.3 5.8m-14.7 62.8c-2.2-12.4-10.5-58.8-10.5-58.8l33-5.3 5 64.8s-.2 0-.7.1m-4.3-64.9l23.9 27.3v37.9l7.3 11.3h-13.7l-5.6-11-4-1.5.6-2.8h7.9l-2.5-28.9-12.4-13.6m-33.8-9.6l-4.3 42.4m9-16l-3.3 18.7"/><path fill="none" stroke="#000" stroke-width="2" stroke-miterlimit="10" d="M330.4 1010.5l-19-11.1-38.3 48.3 3.7 2.7 39.6-33.7 14-2zm-28.6-7l-17-8.3-40.5 24 1.5 3 40.1-12.8 12.9 5.8"/><path fill="none" stroke="#000" stroke-width="2" stroke-miterlimit="10" d="M273.1 1047.7l-22 7.8 11 11.9 14.7-17m-32.5-31.2l-21.9 2 8.5 7.8 15.2-5.6z"/><ellipse transform="rotate(-73.656 419.96 925.867)" fill="none" stroke="#000" stroke-width="2" stroke-miterlimit="10" cx="419.9" cy="925.9" rx="20" ry="14.8"/><path fill="none" stroke="#000" stroke-width="2" stroke-miterlimit="10" d="M418.9 945.4l-1.9 5.7m-7.2-8.6l-2.3 5.4m4.2 64.4c4.2-11.9 19.9-56.3 19.9-56.3L400 945.4l-15.5 63.1s.2.1.6.2m14.9-63.3l-28 23-6.2 37.4-9.1 10 13.5 2.2 7.3-10 4.3-.8-.2-2.9-7.7-1.3 7.2-28 14.4-11.4m34.9-3.9l-2.7 42.4m-6.3-17.2l.3 19"/><path fill="none" stroke="#000" stroke-width="2" stroke-miterlimit="10" d="M384.5 1008.5l20.5-7.9 30 53.9-4.1 2.1-33.6-39.7-13.5-4.3zm29.4-2.3l18.1-5.4 36.1 30.3-2 2.7-37.5-19.2-13.7 3.7m20.1 36.2l20.4 11.4-12.8 9.8-11.7-19.1"/><path fill="none" stroke="#000" stroke-width="2" stroke-miterlimit="10" d="M468.1 1031.1l21.2 5.6-9.7 6.3-14-8.1z"/><ellipse transform="rotate(-3.322 353.384 783.51) scale(.99998)" fill="none" stroke="#000" stroke-width="2" stroke-miterlimit="10" cx="353.4" cy="783.5" rx="14.8" ry="20"/><path fill="none" stroke="#000" stroke-width="2" stroke-miterlimit="10" d="M351 803.1l-.4 6.5 10.3-.4-2-6.8m-22.4 8.4l38-2.4-2.6 58.5h-28.1z"/><path fill="none" stroke="#000" stroke-width="2" stroke-miterlimit="10" d="M340.7 810.5l-18.2-48.7-20-1.3 1.7 5.4 10.3 2.4 23.6 54.5m32.7-14.1l10.1-47.4 17.8-1.4-.3 5-10.9 2.8-13.3 47.7m-2.3 51.5l16.6 80.3 10.5-7 .9 7.7-16.1 8.4-26.2-79.1-19.9 79.5-12.1-14.9 1.9-7.4 7.1 6.5 9.2-74"/><ellipse transform="rotate(-6.956 351.306 611.943)" fill="none" stroke="#000" stroke-width="2" stroke-miterlimit="10" cx="351.4" cy="612.1" rx="11.9" ry="16.1"/><path fill="none" stroke="#000" stroke-width="2" stroke-miterlimit="10" d="M364 611.9c3.6-.5 6.1-.8 6.1-.8l1.1 58.5-28.1 1.8-10.8-55.5s3.3-.4 8-1"/><path fill="none" stroke="#000" stroke-width="2" stroke-miterlimit="10" d="M336.5 615.4l-21.3-47.5h-20l2 5.2 10.5 1.8 27 52.9m31.8-16.2l7-48 9.1-16.9 4.5 7-8 11.5-8.9 52.9m-27.1 53.3l-21.5 83.4-21.3-3.8v9.5h25l31.3-80 23.2 80 22.8-1.7v-9.3l-17.8 2.3-13.6-82.2"/><ellipse transform="rotate(-8.467 183.149 555.17)" fill="none" stroke="#000" stroke-width="2" stroke-miterlimit="10" cx="183.1" cy="555.3" rx="9.8" ry="15.8"/><path fill="none" stroke="#000" stroke-width="2" stroke-miterlimit="10" d="M181.8 570.4l1.3 5.6 7.2-1.7-1.2-5.3m10.4 14.3c2.9 14.6 7.6 38.6 7.6 38.6l-25.3 5.9-6.9-49.1s16.1-4.4 21.1-5.8"/><path fill="none" stroke="#000" stroke-width="2" stroke-miterlimit="10" d="M188.9 581.4l25.5-31.7 16-5.7v4.1l-14.5 7.2-19.8 33.9m11 32.7s8.2 5.2 8.2 5.9c0 .7 2.2 37.5 2.2 37.5h9.5v6.1l-17-1.8-3-33.4-13.2-10.1-.8 22.6-25 29 9 2.5-2.2 5.2-18.8-5.2 25.7-32.2v-20.2m165-124.2l-10-31.3-53 21 69 101.3 63-101-45-30zM321 548.1l-7.3 7.2-18-1.3"/><path fill="none" stroke="#000" stroke-width="2" stroke-miterlimit="10" d="M327 556.8l-9.9 9.8h-23.7m23.9-86.6l-7.1-20.7h-21.8"/><path fill="none" stroke="#000" stroke-width="2" stroke-miterlimit="10" d="M288.4 471.6c1.7 0 16-2 16-2l5.8 13.2m79.9 51.9l17 9.3 21.6-4.7m-34-12l14.7 5.7 15.7-5.7m-42.6-55.8l4.9-16.2 44.8-2.8"/><path fill="none" stroke="#000" stroke-width="2" stroke-miterlimit="10" d="M388.7 476.2l6-10.9 36.9-3.5m-103.4-18.5l-9.3 13.5h19.3zm-3.3 13.5V477m6.5-20.2l1 17.2"/><circle fill="none" stroke="#000" stroke-width="2" stroke-miterlimit="10" cx="300.7" cy="498.4" r="3.6"/><circle fill="none" stroke="#000" stroke-width="2" stroke-miterlimit="10" cx="330.6" cy="484.8" r="3.6"/><circle fill="none" stroke="#000" stroke-width="2" stroke-miterlimit="10" cx="374.4" cy="477.9" r="3.6"/><circle fill="none" stroke="#000" stroke-width="2" stroke-miterlimit="10" cx="400.2" cy="495.5" r="3.6"/><ellipse transform="rotate(-84.673 248.593 407.093) scale(1.00002)" fill="none" stroke="#000" stroke-width="2" stroke-miterlimit="10" cx="248.6" cy="407.1" rx="16.4" ry="10.2"/><path fill="none" stroke="#000" stroke-width="2" stroke-miterlimit="10" d="M241.9 420.4l-1.4 6.9 8.7.9v-5m6.9 20.8c-2.3 16.6-5.8 41-5.8 41l-23.7-3.1 2.2-54.8 29.4 1.8s-.4 2.6-1 6.8"/><path fill="none" stroke="#000" stroke-width="2" stroke-miterlimit="10" d="M246.4 435.7l34.5-.8 1.5-3.4 3.3-.6v4l7.7.8-3 7.8-10.6-2.5-33.4 3.6m-8.5 38.7l-15 63.4 14.7-5.2v-5.7l-9.3 2 20.3-52.9m-20.5-2.1l-10.5 65.3"/><ellipse transform="rotate(-82.34 312.666 329.466)" fill="none" stroke="#000" stroke-width="2" stroke-miterlimit="10" cx="312.7" cy="329.5" rx="16.2" ry="9.7"/><path fill="none" stroke="#000" stroke-width="2" stroke-miterlimit="10" d="M305.9 342.7l-1.2 5.8 8 2.2.9-5.5m-15.7 1.5l23.5 7.3-11.2 45.7-19.1-4.2z"/><path fill="none" stroke="#000" stroke-width="2" stroke-miterlimit="10" d="M291.1 395.5l-17.8 1.8 10.4 33.6h-8.9l.5 4.2"/><path fill="none" stroke="#000" stroke-width="2" stroke-miterlimit="10" d="M302.9 398.1l-14.5 7.7 2.7 29.7"/><path fill="none" stroke="#000" stroke-width="2" stroke-miterlimit="10" d="M310.2 399.7v52.8h7.1l-2 6.8h-10.6l-4.1-61.2m-2.7-51.4l-14.6-33.4-15.7-3.5 1.2 5.5 9.5 4 17.3 42m25.8-7.3l18.7-7.3 1.5-30.2 14-1.7v4l-8 3-.5 30.7-28.2 13.3"/><ellipse transform="rotate(-80.996 529.827 560.15)" fill="none" stroke="#000" stroke-width="2" stroke-miterlimit="10" cx="529.8" cy="560.2" rx="15.8" ry="9.8"/><path fill="none" stroke="#000" stroke-width="2" stroke-miterlimit="10" d="M531 575.3l-1.4 5.6-7.2-1.8 1.3-5.2M513.1 588c-3 14.6-7.9 38.5-7.9 38.5l25.3 6.2 7.3-49-21-6"/><path fill="none" stroke="#000" stroke-width="2" stroke-miterlimit="10" d="M523.8 586.2l-25.2-31.9-16-5.8v4l14.4 7.4 19.5 34m-11.3 32.6s-8.3 5.1-8.3 5.9-2.6 37.5-2.6 37.5l-9.5-.1-.1 6.1 17-1.6L505 641l13.3-10 .6 22.6 24.7 29.2-9 2.4 2.1 5.3 18.9-5.1-25.4-32.5.2-20.2"/><ellipse transform="rotate(-11.601 481.963 411.89)" fill="none" stroke="#000" stroke-width="2" stroke-miterlimit="10" cx="482" cy="411.9" rx="10.3" ry="16.4"/><path fill="none" stroke="#000" stroke-width="2" stroke-miterlimit="10" d="M489.1 425.3l.2 7.1-8.8-.6.8-4.9"/><path fill="none" stroke="#000" stroke-width="2" stroke-miterlimit="10" d="M475.1 444c1.1 15.8 2.9 42 2.9 42l23.9.8-2.3-54.4-25.3-.1s.1 1.1.2 2.9"/><path fill="none" stroke="#000" stroke-width="2" stroke-miterlimit="10" d="M489.8 438.1l-33.9-6.4-.9-3.7-3.2-1.1-.7 4-7.7-.5 1.7 8.2 10.9-.7 32.4 8.9m2 39.6l4.5 65-15.3-4.7-1-7.4 12.4 2.4-11.4-55.4m18.8 1.4l-.3 66.2"/><ellipse transform="matrix(.03012 -.9995 .9995 .03012 93.094 766.993)" fill="none" stroke="#000" stroke-width="2" stroke-miterlimit="10" cx="441.8" cy="335.5" rx="16.2" ry="9.7"/><path fill="none" stroke="#000" stroke-width="2" stroke-miterlimit="10" d="M433.6 344.6c-2.6.4-4.4.6-4.4.6l3.6 47 19.6-1.1 1.2-49.2s-.9.1-2.3.3"/><path fill="none" stroke="#000" stroke-width="2" stroke-miterlimit="10" d="M452.3 391.1l17.2 4.7-15.7 31.4 8.8 1.5-1.2 4"/><path fill="none" stroke="#000" stroke-width="2" stroke-miterlimit="10" d="M440.3 391.7l13 10-7.5 28.9"/><path fill="none" stroke="#000" stroke-width="2" stroke-miterlimit="10" d="M432.8 392.2l-9.1 55-12-1.2 2.9 6.5 13.9-.7 14-59.7m-13.4-46.9l-44-34.8 1.2-5.6-3.8-1-1.2 5.1m-11.1 5.9l1.5 3.3 10.1-.4 48.7 42.7"/><ellipse transform="rotate(-81.628 360.103 240.632)" fill="none" stroke="#000" stroke-width="2" stroke-miterlimit="10" cx="360.1" cy="240.6" rx="16.9" ry="12.3"/><path fill="none" stroke="#000" stroke-width="2" stroke-miterlimit="10" d="M336.1 253.3c.5-1.1 3.8-7.6 11.4-10.8m24.3 2.8c5.6 3.9 8.7 8.9 9.5 10.2m-6.1 25.5c-2.6 11.2-5.1 21.7-5.1 21.7h-18.7s-3.5-11.1-7.1-22.7"/><path fill="none" stroke="#000" stroke-width="2" stroke-miterlimit="10" d="M336.7 252.1s-13.9 28.9 18 29.8v-5.6s-14.5-2-15.8-13.8m42.4-7s12.6 29.9-18 26.4l-1.4-6.3s11.5-.4 17.8-9.7m-25 10.4s2.4-1.9 7.2-.7m-7.2 6.3s2.7 2.8 8.1 0M352 302.7l-14.5 9.2s17.1 2.4 17.2 2.3 5.4-11.5 5.4-11.5l-.9-19.1m.9 19.7l7.6 12.1 13.6-6.5-11.2-6.2M339 277.4s.4 23.5 11.4 24.4m28.1-21.7s-.8 18.8-8.2 22.1"/><ellipse transform="matrix(.07938 -.9968 .9968 .07938 103.205 437.81)" fill="none" stroke="#000" stroke-width="2" stroke-miterlimit="10" cx="288.6" cy="163" rx="19.4" ry="12.9"/><path fill="none" stroke="#000" stroke-width="2" stroke-miterlimit="10" d="M282.2 180.4l-1.2 7.9 7.6 1 1-7.1m5.1 54.3c-.2 7.3-.3 12.5-.3 12.5l-30.5-2.5 9.5-58.8 22.2 3.5s-.4 18.6-.8 34.7m-27.2 20.9l1.5 63.6m10.7-62.5l-2.3 64.1 12.1 2.8 4.2-6.8-11-.7 6.8-58.3"/><path fill="none" stroke="#000" stroke-width="2" stroke-miterlimit="10" d="M285.7 209.5s14.7 27.9 19.9 31.1h7.1v3.2l-4.6 1.5 4.6 6.8-4.3 2.2-27.4-35.9m14.4-12.6l19.2 12.6m-18.9-3.9l17 8.3"/><circle fill="none" stroke="#000" stroke-width="2" stroke-miterlimit="10" cx="317.2" cy="222" r="5.2"/><ellipse fill="none" stroke="#000" stroke-width="2" stroke-miterlimit="10" cx="358" cy="162.5" rx="12.2" ry="17.9"/><path fill="none" stroke="#000" stroke-width="2" stroke-miterlimit="10" d="M353.5 179.1c.1.1 0 7.1 0 7.1h8.4v-6.8m-12.3 55.9H339l2.8-49h32.5l2.2 49h-3.7m-32 0l.1 11.5m34.3-11.5V249m-33.4-62.7l-22.9 30.8m21.7-9.8l-18.3 13.5"/><ellipse transform="matrix(.999 -.04526 .04526 .999 -7.021 19.58)" fill="none" stroke="#000" stroke-width="2" stroke-miterlimit="10" cx="428.9" cy="164.8" rx="12.9" ry="19.4"/><path fill="none" stroke="#000" stroke-width="2" stroke-miterlimit="10" d="M434.7 182.4l1 7.9-7.7.8-.8-7.2m-6.9 54.2c-.1 7.3-.2 12.5-.2 12.5l30.6-1.5-7.5-59-22.4 2.7s-.2 18.6-.4 34.7m26.6 21.8s-.7 12.3-1.5 26m-.5 9c-.3 5.9-.7 11.7-1 16.4l-.4 7.7c-.2 2.7-.2 4.3-.2 4.3L435 314m-.2-64.1l.1 64.2-12.2 2.4-4-6.9 11.1-.4-4.8-58.4"/><path fill="none" stroke="#000" stroke-width="2" stroke-miterlimit="10" d="M430.2 211.4s-15.6 27.4-21 30.4l-7.1-.2-.1 3.2 4.5 1.7-4.8 6.7 4.3 2.3 28.6-34.9m-14-13.3l-19.6 12m19-3.2l-17.2 7.6"/><circle transform="matrix(.03418 -.9994 .9994 .03418 162.09 613.262)" fill="none" stroke="#000" stroke-width="2" stroke-miterlimit="10" cx="398.3" cy="222.8" r="5.2"/><path fill="none" stroke="#000" stroke-width="2" stroke-miterlimit="10" d="M374.9 186.3l21.9 31.5m-21.4-10.5l17.8 14.1"/><path fill="none" stroke="#27AAE1" stroke-width="2" stroke-miterlimit="10" d="M360.7 73.3c-1 .3-1.8-.7-1.8-.7S270 44.2 258.8 109.3c-11.2 65.2-23.9 194.8-23.9 194.8l29.1 20-118.3 251.2 20.9 19.4-30 96.4 40.2 9 27.6-27.7 22.6 15.9 18.5-14.6-18.5-46.4 15.7 6.7 31.1-158-60.7 460.5s19.6 33.8 59.3 39.3v21.7l-81 32.8 65.1 74.7 99.8-50.6 99.8 52.6 66.3-73.7-82.5-35.2.3-21.7c39.7-4.9 61.9-37.2 61.9-37.2l-53.3-461.4 28.5 158.4 15.8-6.5-19 46.3 18.2 14.9 22.9-15.6 27.1 28.2 40.3-8.4-28.5-96.8 21.3-19.1-114.3-253 29.4-19.6s-10.7-129.9-20.8-195.2c-8.7-56-75.6-44.1-94.5-39.6l-9 1.7-5.5-.2z"/><path fill="none" stroke="#000" stroke-width="2" stroke-miterlimit="10" d="M453.5 344l7.4-29.9-8.6-38.4h-8.9l-.9 6.8 4.5 2.9 4.7 25.9-2.6 13.2"/></svg>