<svg version="1" xmlns="http://www.w3.org/2000/svg" width="215.3" height="195"><ellipse transform="rotate(-81.628 110.427 108.02)" fill="none" stroke="#000" stroke-width="2" stroke-miterlimit="10" cx="110.4" cy="108" rx="16.9" ry="12.3"/><path fill="none" stroke="#000" stroke-width="2" stroke-miterlimit="10" d="M86.5 120.7c.5-1.1 3.8-7.6 11.4-10.8m24.3 2.8c5.6 3.9 8.7 8.9 9.5 10.2m-6.1 25.5c-2.6 11.2-5.1 21.7-5.1 21.7h-18.7s-3.5-11.1-7.1-22.7"/><path fill="none" stroke="#000" stroke-width="2" stroke-miterlimit="10" d="M87.1 119.5s-13.9 28.9 18 29.8v-5.6s-14.5-2-15.8-13.8m42.4-7s12.6 29.9-18 26.4l-1.4-6.3s11.5-.4 17.8-9.7m-25 10.4s2.4-1.9 7.2-.7m-7.2 6.3s2.7 2.8 8.1 0m-10.8 20.8l-14.5 9.2s17.1 2.4 17.2 2.3 5.4-11.5 5.4-11.5l-.9-19.1m.9 19.7l7.6 12.1 13.6-6.5-11.2-6.2m-31.1-25.3s.4 23.5 11.4 24.4m28.1-21.7s-.8 18.8-8.2 22.1"/><ellipse transform="matrix(.07938 -.9968 .9968 .07938 5.493 66.885)" fill="none" stroke="#000" stroke-width="2" stroke-miterlimit="10" cx="39" cy="30.5" rx="19.4" ry="12.9"/><path fill="none" stroke="#000" stroke-width="2" stroke-miterlimit="10" d="M32.6 47.8l-1.2 7.9 7.6 1 1-7.1m5.1 54.3c-.2 7.3-.3 12.5-.3 12.5l-30.5-2.5 9.5-58.8L46 58.6s-.4 18.6-.8 34.7M18 114.2l1.5 63.6m10.7-62.5l-2.3 64.1 12.1 2.8 4.2-6.8-11-.7 6.8-58.3"/><path fill="none" stroke="#000" stroke-width="2" stroke-miterlimit="10" d="M36.1 76.9S50.8 104.8 56 108h7.1v3.2l-4.6 1.5 4.6 6.8-4.3 2.2-27.4-35.9m14.4-12.6L65 85.8m-18.9-3.9l17 8.3"/><circle fill="none" stroke="#000" stroke-width="2" stroke-miterlimit="10" cx="67.6" cy="89.4" r="5.2"/><ellipse fill="none" stroke="#000" stroke-width="2" stroke-miterlimit="10" cx="108.4" cy="29.9" rx="12.2" ry="17.9"/><path fill="none" stroke="#000" stroke-width="2" stroke-miterlimit="10" d="M103.9 46.5c.1.1 0 7.1 0 7.1h8.4v-6.8M100 102.7H89.4l2.8-49h32.5l2.2 49h-3.7m-32 0l.1 11.5m34.3-11.5v13.7M92.2 53.7L69.3 84.5M91 74.7L72.7 88.2"/><ellipse transform="matrix(.999 -.04526 .04526 .999 -1.274 8.147)" fill="none" stroke="#000" stroke-width="2" stroke-miterlimit="10" cx="179.3" cy="32.2" rx="12.9" ry="19.4"/><path fill="none" stroke="#000" stroke-width="2" stroke-miterlimit="10" d="M185.1 49.8l1 7.9-7.7.8-.8-7.2m-6.9 54.2c-.1 7.3-.2 12.5-.2 12.5l30.6-1.5-7.5-59-22.4 2.7s-.2 18.6-.4 34.7m26.6 21.8s-.7 12.3-1.5 26m-.5 9c-.3 5.9-.7 11.7-1 16.4l-.4 7.7c-.2 2.7-.2 4.3-.2 4.3l-8.4 1.3m-.2-64.1l.1 64.2-12.2 2.4-4-6.9 11.1-.4-4.8-58.4"/><path fill="none" stroke="#000" stroke-width="2" stroke-miterlimit="10" d="M180.6 78.8s-15.6 27.4-21 30.4l-7.1-.2-.1 3.2 4.5 1.7-4.8 6.7 4.3 2.3L185 88m-14-13.3l-19.6 12m19-3.2l-17.2 7.6"/><circle transform="matrix(.03418 -.9994 .9994 .03418 53.494 235.778)" fill="none" stroke="#000" stroke-width="2" stroke-miterlimit="10" cx="148.7" cy="90.2" r="5.2"/><path fill="none" stroke="#000" stroke-width="2" stroke-miterlimit="10" d="M125.3 53.7l21.9 31.5m-21.4-10.5l17.8 14.1"/></svg>