<svg version="1" xmlns="http://www.w3.org/2000/svg" width="215.3" height="195"><path fill="none" stroke="#000" stroke-width="2" stroke-miterlimit="10" d="M96.4 82.2l-10-31.3-53 21 69 101.2 63-100.9-45-30z"/><path fill="none" stroke="#000" stroke-width="2" stroke-miterlimit="10" d="M70.7 126.6l-7.3 7.3-18-1.3m31.3 2.8l-9.9 9.7H43.1M67 58.6l-7.1-20.7H38.1"/><path fill="none" stroke="#000" stroke-width="2" stroke-miterlimit="10" d="M38.1 50.2c1.7 0 16-2 16-2l5.8 13.2m79.9 51.9l17 9.3 21.6-4.7m-34-12l14.7 5.7 15.7-5.7m-42.6-55.8l4.9-16.2 44.8-2.8"/><path fill="none" stroke="#000" stroke-width="2" stroke-miterlimit="10" d="M138.4 54.8l6-10.9 36.9-3.5M77.9 21.9l-9.3 13.5h19.3zm-3.3 13.5v20.2m6.5-20.2l1 17.2"/><circle fill="none" stroke="#000" stroke-width="2" stroke-miterlimit="10" cx="50.4" cy="77" r="3.6"/><circle fill="none" stroke="#000" stroke-width="2" stroke-miterlimit="10" cx="80.3" cy="63.4" r="3.6"/><circle fill="none" stroke="#000" stroke-width="2" stroke-miterlimit="10" cx="124.1" cy="56.5" r="3.6"/><circle fill="none" stroke="#000" stroke-width="2" stroke-miterlimit="10" cx="149.9" cy="74.1" r="3.6"/></svg>