<svg version="1" xmlns="http://www.w3.org/2000/svg" width="194" height="191.7"><ellipse transform="rotate(-73.656 93.974 30.77)" fill="none" stroke="#000" stroke-width="2" stroke-miterlimit="10" cx="94" cy="30.8" rx="20" ry="14.8"/><path fill="none" stroke="#000" stroke-width="2" stroke-miterlimit="10" d="M92.9 50.2L91 55.9m-7.2-8.6l-2.3 5.4m4.2 64.4c4.2-11.9 19.9-56.3 19.9-56.3L74 50.2l-15.5 63.1s.2.1.6.2M74 50.2l-28 23-6.2 37.4-9.1 10 13.5 2.2 7.3-10 4.3-.8-.2-2.9-7.7-1.3 7.2-28 14.4-11.4m34.9-3.9l-2.7 42.4m-6.3-17.2l.3 19"/><path fill="none" stroke="#000" stroke-width="2" stroke-miterlimit="10" d="M58.5 113.3l20.5-7.9 30 53.9-4.1 2.1-33.6-39.7-13.5-4.3zm29.4-2.3l18.1-5.4 36.1 30.3-2 2.7-37.5-19.2-13.7 3.7m20.1 36.2l20.4 11.4-12.8 9.8-11.7-19.1m37.2-25.5l21.2 5.6-9.7 6.3-14-8.1z"/></svg>