<svg version="1" xmlns="http://www.w3.org/2000/svg" width="288" height="288"><ellipse fill="none" stroke="#000" stroke-width="2" stroke-miterlimit="10" cx="156.1" cy="142" rx="52.8" ry="54.2"/><path fill="none" stroke="#000" stroke-width="2" stroke-miterlimit="10" d="M118.5 104.7l2.8-.8s1.5.6 2.2.8 3.6.1 4.1-.4c.5-.5 1.6-1.4 2.2-1.4s2-.2 2.8 0 2.6-.3 3.6-.1c1 .2 4.9.5 5.9-.1s4-2 4-2h2.2s3.1 1.6 3.8 2 1.9 2.4 1.6 3-1 3.2-1 3.2l-.1 4.1 1.2.8 4-1.4 3.9-2.2 3.1-1.9 4.4-.4.9.9v2.1l-2.2 2.9.6 2 2.9 2.9.9 2 1.6 2.6v1.9h-9.6s-.6 2.6-.8 3.1-.2 3.4-.2 3.4-.8 2-1.8 2.2-2.9 0-2.9 0l-3.2.9s-1.4 1.6-1.4 2.2.5 1.4 1 2.5 1.9 2.9 1.2 3.4-1.6 1.8-2.9 1.5-3.1-.1-4.6-1.4c-1.5-1.2-4-2.8-4-2.8s-1.5-1.1-3.6-1-2-.2-2.9.5-.9 2-.9 2l.8 3.5s1.4 3.1 1.8 3.8 2.9 4.6 4.5 4.9 3.5-1.1 3.9 0 4.4 4.5 4.8 4.5 2.8-.5 2.8-1.1-.6-1.6-.1-3.1.8-3.2 1.6-3.8.1-.6 1.9-1.1 3.8-1.1 3.8-1.1 1.6-.2 2.8-.2 2.6.2 2.6.6.4 1.1.4 2.2 1.2 3.6 1.5 4 2.6 2.5 3.1 2.5 3.8 1.1 3.8 1.1l3.6 1 1.2 2.1v3.9l-.9 2-1.4 3.5-1.5 3.4s.1 2.5-.1 3.6 1.4.4-.5 2.5-3.1 3.4-3.5 4.1-2.6 3.5-2.6 3.5l-2.5 1.2-4 .8-2.6-.6-2.5-2.6s-2.1-2.1-1.9-4 .4-2.2.5-3 .2-1.9.1-4-.4-3.6-.4-3.6l-.5-1.8-2.9-1.4-.8-.4-3-2.1-.1-1.9-.6-2-.9-2.1-3.4-2.5-4-1.6-4.2-.4-6.1-1.4s.4 1.5-1.5-1-2.6-3.6-2.6-3.6-.9-4.5-.9-5.2-.8-3-.8-3h-1.9s-2.1-.2-2.2-.5-.9-2.2-.9-2.2l-2.1-4.4v-2.1s-3.2 0-3.2.4 1.6 2.6 0 3-2.5 1.9-3.1 1.1-2.8-3.9-2.8-3.9-1.8-3-1.8-3.6 1-8.1 1.4-8.2 4-1.9 4-1.9 1.8-2.2 1.2-2.5-3-3.7-3-3.7m97.2 17.2s-4.8 1.4-5.2 1.8-2.1 3.6-2.1 3.6l-3.4 4.6s-2.1 2.1-2.1 2.9v8.8l1.6 3.4s1.5 1.1 1.9 2 .6 3.1.6 3.1-.1 2.5 0 2.9 3 3.1 3 3.1M182.9 96s1 6.5 1 7-.2 3.9.8 5 3.1 1.8 3.6 1.8 1.1.1 2.1 0 1.5.2 2.2.1 2.8-.4 3.4-.4h2.2m-56.1-25.6s-2.6-7.4-5.3-15.2m-2.3-6.4c-2.1-6.1-3.9-11.1-3.9-11.1m25.8 29.3s-.1-5.3-.2-12.6m-.2-6c-.1-6.2-.2-13.2-.3-19.5m-.1-6.2c0-2.2-.1-5.5-.2-13.8m16.7 59.8s1.2-6.8 2.6-14.3m1.2-6.1c1.3-7.1 2.4-13.3 2.4-13.3m-90 102.7s-7.7 1.7-15.7 3.5m-6.7 1.5c-6.3 1.4-11.4 2.6-11.4 2.6m32-22.2s-5.2-.5-12.6-1.2m-5.9-.6c-6.2-.6-13.1-1.3-19.4-1.9m-6.2-.6c-2.2-.2-5.5-.5-13.7-1.3m61.4-9.9s-6.6-2-13.9-4.2m-6-1.8c-6.9-2.1-12.9-3.9-12.9-3.9m116.8 94s2.6 7.4 5.3 15.2m2.3 6.4c2.1 6.1 3.9 11.1 3.9 11.1m-25.7-29.3s.1 5.3.2 12.6m.1 6c.1 6.2.2 13.2.3 19.5m.2 6.2c0 2.2.1 5.5.2 13.8m-16.8-59.9s-1.2 6.8-2.6 14.3m-1.1 6.2c-1.3 7.1-2.4 13.3-2.4 13.3m81.3-89.4s7.7 1.7 15.7 3.5m6.7 1.5c6.3 1.4 11.4 2.6 11.4 2.6m-32-22.2s5.2-.5 12.6-1.2m5.9-.6c6.2-.6 13.1-1.3 19.4-1.9m-41.5-11.8s6.6-2 13.9-4.2m6-1.8c6.9-2.1 12.9-3.9 12.9-3.9"/></svg>