<svg version="1" xmlns="http://www.w3.org/2000/svg" width="288" height="288"><path fill="none" stroke="#000" stroke-width="2" stroke-miterlimit="10" d="M88.1 90.4l2.5 113.4 109.5-2.9V80.1z"/><path fill="none" stroke="#000" stroke-width="2" stroke-miterlimit="10" d="M148.3 84.9l1.4-32 24.7-44.3c-47.3-10-76.7 3-76.7 3L128 51.9l5.9 34.3M97.7 11.6s42.7 15 76.7-3m-33.9 193.8l-1.4 32-24.7 44.3c47.3 10 76.7-3 76.7-3l-30.3-40.3-5.7-33.3m36 73.6s-42.7-15-76.7 3m-24.1-85.8l109.8-5.3"/><circle fill="none" stroke="#000" stroke-width="2" stroke-miterlimit="10" cx="185.2" cy="194.9" r="2.8"/><circle fill="none" stroke="#000" stroke-width="2" stroke-miterlimit="10" cx="161.8" cy="195.5" r="2.8"/><circle fill="none" stroke="#000" stroke-width="2" stroke-miterlimit="10" cx="133.6" cy="196.4" r="2.8"/><circle fill="none" stroke="#000" stroke-width="2" stroke-miterlimit="10" cx="106.4" cy="198" r="2.8"/><path fill="none" stroke="#000" stroke-width="2" stroke-miterlimit="10" d="M199.9 94.4L88.6 104"/><circle transform="rotate(-2.15 103.186 96.242)" fill="none" stroke="#000" stroke-width="2" stroke-miterlimit="10" cx="103.2" cy="96.2" r="2.8"/><circle transform="rotate(-2.15 127.356 93.537)" fill="none" stroke="#000" stroke-width="2" stroke-miterlimit="10" cx="127.4" cy="93.5" r="2.8"/><circle transform="rotate(-2.15 155.129 91.086)" fill="none" stroke="#000" stroke-width="2" stroke-miterlimit="10" cx="155.1" cy="91.1" r="2.8"/><circle transform="rotate(-2.15 182.384 88.996)" fill="none" stroke="#000" stroke-width="2" stroke-miterlimit="10" cx="182.4" cy="89" r="2.8"/></svg>