<svg version="1" xmlns="http://www.w3.org/2000/svg" width="288" height="288"><path fill="none" stroke="#000" stroke-width="2" stroke-miterlimit="10" d="M29.8 73.7s26 15.8 54.5-2.6m54.4-2.3c10.4 5.1 30.7 11.3 51.1-4.2M87.4 71.8l13.7 143.3s38 50.3 41 50.3 57.7-4.3 57.7-5.7v-19.3l-43.3-6.7-17.7-46.7m42.8-31.4l-2.5-22.5 26.7-2.4v23.4"/><path fill="none" stroke="#000" stroke-width="2" stroke-miterlimit="10" d="M215.8 190.1v-36s-40.3 1.7-43.7 2l2.1 34m25.6 53.6h16l6.3-53.6h-60.7l3.4 44.9"/><path fill="none" stroke="#000" stroke-width="2" stroke-miterlimit="10" d="M199.8 251.3l56.7-11.6s-10-19.4-11.3-19.5-26.2-3.9-26.2-3.9m-2.3 19.6c1.2-.1 35.4-3.3 35.4-3.3m-33.5-7.4c.4 0 30.5.8 30.5.8m-7.1-6.4l-5.3-6.2-16.9-3.4M152.5 74c.4 15.8 2.1 88.9 2.1 88.9l18.9 15M77.9 67.7s23 11.5 38 8.4 27.2-6.9 40.2-20.1M62 33.5s14.9 21.9 34.9 15.8S118 22.6 118 22.6m-5.2 15.1s22 11 32.1-9.5"/></svg>