<svg version="1" xmlns="http://www.w3.org/2000/svg" width="288" height="288"><g fill="#27AAE1"><path d="M87.4 71.8l13.2 3.8 5.9 135.9 39.5 48.8 53.8-4.5v4.5l-57.7 5.1s-40.9-48.9-41-50.3S87.4 71.8 87.4 71.8zm134.7 138.7l.9 4.3 16.7 2.1 2.3 3.9-19.9-3.9v5.6l23.4 1.3h2.3l1.3 2.2-27-.4 1.1 5.2 27.9-1.2 1 3-32.3 3v6.2l36.7-4.3v2.2l-56.7 11.6V245l16.9-1.3 3.1-33.7z"/><path d="M138.8 187s24.7 41.5 25.2 42.5.8 5.5.8 5.5l-8.3-1.3-17.7-46.7z"/></g><g fill="none" stroke="#000" stroke-width="2" stroke-miterlimit="10"><path d="M29.8 73.7s26 15.8 54.5-2.6m54.4-2.3c10.4 5.1 30.7 11.3 51.1-4.2M87.4 71.8l13.7 143.3s38 50.3 41 50.3 57.7-4.3 57.7-5.7v-19.3l-43.3-6.7-17.7-46.7m26.6-28l-1.4-26.2 51.2-1.5-1.1 26.2"/><path d="M216.8 190.1l-.2-32.4s-50.5 1.7-53.9 2l2.4 30.4m34.7 53.6h16l6.3-53.6h-60.7l3.4 44.9"/><path d="M199.8 251.3l56.7-11.6s-10-19.4-11.3-19.5-26.2-3.9-26.2-3.9m-2.3 19.6c1.2-.1 35.4-3.3 35.4-3.3m-33.5-7.4c.4 0 30.5.8 30.5.8m-7.1-6.4l-5.3-6.2-16.9-3.4M152.5 74c.4 15.8 2.1 88.9 2.1 88.9l9.4 10.2M77.9 67.7s23 11.5 38 8.4 27.2-6.9 40.2-20.1M62 33.5s14.9 21.9 34.9 15.8S118 22.6 118 22.6m-5.2 15.1s22 11 32.1-9.5"/></g></svg>