<svg version="1" xmlns="http://www.w3.org/2000/svg" width="288" height="288"><g fill="#27AAE1"><path d="M132.1 114.4s17.5 10.6 14.2 25.2c0 0 8-7.3-3.9-22.3 0 0-4.6-4.8-10.3-2.9zm20.2 32.2l-15.8 35.8-71.8 31-10.4-16.1-7.4-.5 9.2 19.8 4 .8 4.6-1 80.1-31 1.6-1 12.9-40.5-7 1.2z"/><path d="M145.1 206.3l15.4-6.4 13.4-23.9-6.9-18.3v-2.2l-10.1-4.1 2.4-7.5 12.6 13.8 7.2 18.3-17 27.2-14.4 5.5z"/></g><g fill="none" stroke="#000" stroke-width="2" stroke-miterlimit="10"><ellipse transform="rotate(-14.917 140.299 87.304)" cx="140.3" cy="87.3" rx="11.6" ry="16.3"/><path d="M149.6 99.3l2.1 5.1-5.2 2.3-2.8-3.5m15.6-1.2l26.7 22-16.6 29-3.6-4.5 9.6-21-4.7-3.1m15.5-1l-11 4.5m-18.7 36.6l8.6 2.8 1.9-10.6-5.3-2.5z"/><ellipse transform="rotate(-23.263 138.099 128.274)" cx="138.1" cy="128.3" rx="10" ry="15.1"/><path d="M147.2 139.6l1.1 5.3-6.1 1.7-1-3.5m-7.6.8l-7.8 3.6 2.4 8.5s5.8 2.9 6 2.9 3.9-2.7 3.9-2.7l-4.5-12.3zm-5.9 2.7s-3.2-13-.6-21.8m4.4 20.1l.2-7.8m33.4 30.2l2.9 9.1-8.7 20.9-7.1-.1-8.2 8.1 3 2.7 15.1-4.8 17-27.2-7.8-18.8-11.7-13.6m-.3 53.7l2.3 5.2m6.3-26.7l11.2.2m-52.2 3.3l-63.2 32.2 2.4 4.5 80.2-31.2m-83.8 22.1c.5-.3 55.2-31.3 55.2-31.3"/><path d="M185.4 155.5l-2.3 23.6h38.4v3.5s-45.2 6.2-51.5 7.1m1.9-32c6.1-1.2 14.2-2.7 14.2-2.7s-3.7-7.3-8.4-16.5m-3.8-7.6c-7.1-14-14.6-28.9-14.6-28.9l-25.8 12m25.2 51.2c-.5.2-7 19.2-7 19.2H164m57.5-5.9c0-.5 1.5-3 1.5-3l17.1 8.2s-9.1 2.6-9.3 2.6-8.7-3.4-8.7-3.4"/><path d="M184.2 174.3c.5.2 30.2 1.5 30.2 1.5v3.3m.1-3.3c.5-.6 4.2-4.6 4.2-4.6l18.5 5.3-6.4 2.6m-95.7-31c1-.1 24.2-4.2 24.2-4.2l-13.1 41.2s-30.3-8.4-29.3-9.1c1-.7 13.7-18.8 13.7-18.8m-67.1 54.7l-3.4-13.1-8.1-2.1 8.4 20.7 4.3-1-.7-2.8z"/><path d="M52.1 197.3l-5.2-.5 9.2 19.8 4-.1m95.5-59.8l3.5 2.6M126.7 118c1.4.4 8.3 3.6 13.5-2.6m-15.3 5.2s7.6 4.8 17.8-2.4m-18.6 6s11.1 4.4 20.8-3.7"/></g></svg>