<svg version="1" xmlns="http://www.w3.org/2000/svg" width="288" height="288"><path fill="none" stroke="#000" stroke-width="2" stroke-miterlimit="10" d="M135.8 116.8l-13.6-42.7L50 102.7l94 138 85.8-137.5-61.3-40.9zm-35 60.5l-9.9 9.9-24.5-1.9m42.5 3.9l-13.5 13.4H63.2"/><path fill="none" stroke="#000" stroke-width="2" stroke-miterlimit="10" d="M95.8 84.6L86 56.4H56.4"/><path fill="none" stroke="#000" stroke-width="2" stroke-miterlimit="10" d="M56.4 73.2c2.3 0 21.8-2.7 21.8-2.7l7.8 18m108.9 70.6l23.1 12.6 29.5-6.3M201.2 149l20 7.7 21.3-7.7m-58-76l6.7-22 30.6-3.9M193 79.5l8.2-14.9 23.8-2.3M110.6 34.6L97.9 53h26.3zM106.1 53v27.5m8.8-27.5l1.4 23.5"/><circle fill="none" stroke="#000" stroke-width="2" stroke-miterlimit="10" cx="73.1" cy="109.7" r="4.9"/><circle fill="none" stroke="#000" stroke-width="2" stroke-miterlimit="10" cx="113.8" cy="91.2" r="4.9"/><circle fill="none" stroke="#000" stroke-width="2" stroke-miterlimit="10" cx="173.4" cy="81.8" r="4.9"/><circle fill="none" stroke="#000" stroke-width="2" stroke-miterlimit="10" cx="208.6" cy="105.7" r="4.9"/></svg>