<svg version="1" xmlns="http://www.w3.org/2000/svg" width="288" height="288"><path fill="#27AAE1" d="M179.1 163.9l-3.6-17.4-5.5.8-4.5-3.3s2.9-13.3 1.8-15.2-2.8-9.5-10-10.2c0 0 12.1 12.5 1.1 28l9 1.8v2.8h6.3l1.4 10.8-3.1 3.4s-15.7 1.4-23.7-5.7H146l.9 4.3s13 8.6 25.5 5.5l1.1 8.2h3l-1.6-12.3 4.2-1.5z"/><g fill="none" stroke="#000" stroke-miterlimit="10"><ellipse transform="rotate(-81.9 125.942 122.987)" cx="125.9" cy="123" rx="14.1" ry="10.3"/><ellipse cx="156.6" cy="132.5" rx="10.6" ry="14"/><path d="M146.1 119.2s8.6 7.1 19.4 4.5m-13.7-6.5s2.1 5.3 10.8 3.7m-18.8 1.1s8.4 8.4 22.3 4.8m-46.4 8v3.9l6.2 1.2 1.7-3.4"/><path d="M135.2 158.8c-.5-8.1-1-15.5-1-15.5-10.3-6.3-26-4.8-26-4.8l-2.5 40.6"/><path d="M112.2 141.6s13 16.5 14.3 17.7 17.2-3 17.2-3v3.2l-15.8 8.8s-10.6-3-17.6-13.3m26.2 25.3s-.5-7.7-1-16m17-7.3l-2.5-9.7h-2.6l-3.7 9v3.2h4.4l3.8 2.3m-25.4-2.5l1.5 9"/><path d="M148.8 141.6c-5 2.1-8.1 4.9-8.1 4.9s-.6 3.9-1 10.8m-.3 4.6c-.2 4.8-.2 11.4 0 17.8m35.5-14.5l1.6 12.3m-30.4 1.6v-20.3m26.1-3l-19.7 1.2-.7 4.8c11.5 6.7 27.3 2.1 27.3 2.1l-4.3-20.5c-.4-.2-1.6-.9-2-1.1m-24.1 5l-.6 11.7m-14.5-16.1s7.3-2.6 13.3-5.2m-6.7 13.3l-5.4 2.2"/><path d="M166.8 136.5l4.8 1.2 1.9 8.8-4.3.8-4.7-5.4"/></g><path fill="none" d="M152.5 117.8c3.3-.2 6.6-.2 9.9.3 1.8.2 4 1.2 3.8 2.9-.2 1.1-1.3 1.8-2.4 2.3-2.9 1.3-6 2.2-9.1 2.9 5.1.4 10.2.9 15.3 1.3.4 0 .8.1 1 .4.3.5-.3 1.1-.8 1.4-3.9 2.3-8.2 3.9-12.7 4.6 7.3 1.3 14.8 1.9 22.2 2-8.3 5.8-19.4 5.8-28.5 10.2h19.6c2.5 0 5.2.1 7.1 1.7-4.4.7-8.9 1.4-13.3 2.2 6.2 1 12.4 2.2 18.5 3.7-3.7 1.2-7.6 2-11.5 2.4 3.3-.1 6.5.5 9.5 1.7-.9 1.8-3.3 2.3-5.3 2.2s-4.2-.5-6 .4c2.5 2.2 5 4.5 7.4 6.7-3.2.5-6.4 1.8-9.1 3.6 3.1 1.1 6.4 1.6 9.7 1.6-2.3.4-4.5 1.3-6.5 2.6-.7.5-1.4 1.3-1 2 .2.4.6.5 1.1.6 1.7.5 3.4.7 5.2.6-6.2-4.1-9.7-11.9-8.6-19.2.8 4.5-.2 9.3-2.6 13.2-.5-2.2-.8-4.5-.7-6.8-.5 2.5-1.5 4.9-3 7 0-3.9-.1-7.8-.1-11.7-.7 2.8-2.3 5.3-4.5 7.2-.2-2.4-.5-4.8-.7-7.2-1.3 2.2-2.6 4.5-4 6.7 0-2.3 0-4.6-.1-6.9-1.5 2.7-3 5.5-4.4 8.2v-8.5c0-.4 0-.8-.3-1.2-.3-.3-.9-.3-1 0"/></svg>