<svg version="1" xmlns="http://www.w3.org/2000/svg" width="288" height="288"><g fill="#27AAE1"><path d="M106.3 69.9s-11.4 30 3.6 40.3c0 0-14.6-4.3-13.9-19.1s3.4-20.9 10.3-21.2zm-3.4 55.3l4.1 114.1L96 250l-7.5-4.3 17.1-5.5-8.4-103.9-10 10.2-14-18.8S88.7 139.8 89 139s9-14.8 9-14.8l1.9 2.9 3-1.9zm15.3 51.4l3 63-2.5-.4-4.1-62.5z"/><path d="M119.9 238.2l15.5 11s-7.9 3.5-8.7 2.7-8.1-10.4-8.1-10.4l1.3-3.3zm58.6-147.3l-28.3 47.5-2 16 36-55.7-.5-7.8z"/></g><g fill="none" stroke="#000" stroke-width="2" stroke-miterlimit="10"><path d="M170.4 84.2h-4.3c-6.6 0-12-5.4-12-12V55.6c0-6.6 5.4-12 12-12h4.3c6.6 0 12 5.4 12 12v16.7c0 6.5-5.4 11.9-12 11.9zm12-24.6s5.8 4.2 0 7"/><path d="M154.1 65.7s3.3 1 7.2 0c3.8-1 5.8-2.8 10.7-1 4.8 1.8 10.5.3 10.5.3m-29.9 25.2s21.3-1.5 31 .7c0 0 11.5 86.9 10.7 117.2 0 0-22.3 11.2-54.3 0 .1 0 14.9-84.7 12.6-117.9z"/><path d="M177 90c4.9-.4 16.6-6.8 16.6-6.8-1.8-3.8-5.4-39.7-8.7-44.2s-16.8-.6-16.8-.6-17.2-3.5-19.1 6.5-4.8 32.6-7.4 36.2c0 0 2.3 7.1 11.8 9"/><path d="M164.3 84.2l.6 5.6 8.1.2v-6.1m2.7 6.1s-21.2 34.6-25.2 44.9l-1.9 16.5L184.2 95l-.5-4.1s-5.3-.9-8-.9zm8 .9s20.5 26.3 32.2 45.3l-10 21.2-19.5-44.6"/><path d="M212.9 142.5l8.7 6.4 1.1 10.8-12.6-11.3m-1.6 3.5l3.1 5.5 2.6-.7-.8-5.3m-40 61.5l2.7 25.3h5.5l2.1-26.7m-31.1 0l3.3 26.7h6.2l1.3-25.1m-1.3 25.1l-22 2.5 8.5 10.4 13.5-10.2z"/><path d="M176.1 238.2l-1.7 4.5 21.8 8.4 5.2-11.4-19.8-1.5"/><ellipse transform="rotate(-5.987 109.623 89.669)" cx="109.7" cy="89.7" rx="13.8" ry="20.6"/><path d="M104.7 115.6c6.3-.8 15-1.6 20-1l2 61.5s-19 1.5-27.3 0c0 0-1.6-37.3-2.2-52.8"/><path d="M106.3 109.1l1.3 6.1 7.8-.8v-5.3m9.4 10.5s13.1 8.8 25.4 8m-25 3.5s13.2 6 25 2.5m-15.2.4l7.6-7m10-36.8l-32.7 14.6m-15.9 2.9l-5.9.3-5.6 9.2 7.2 9 6.6-3.5-2-10.5m48.3-8l-23.2 18M98.6 73.8s9.8-.2 15.3-3.5m-17.8 5.9s9.8 2.3 22.8-4.2m-24 7.4s14 1.7 26.5-3.7m-22 100.4l5.2 63.1h4.5l2.7-62.5m2.8 0l4.1 62.5h3.5l3-62.5m-20.6 63.4l-14.5 4.1 10.8 5 8.2-9.1zm12.8 0l6.3-.9 14.2 8.7-12.7 2zm-15.7-114.9l-3.7-7m3.7-1.8l2.4 7.2m-9.2-2.9c-1 1.2-7.2 15.2-7.2 15.2l-12-14.3v-11.5h-4.2v6.8h-7.2l1 10.7h7l14.5 19.3 10.5-10.8m-9.6-.2l-1 11"/></g></svg>