<svg version="1" xmlns="http://www.w3.org/2000/svg" width="194" height="191.7"><g fill="#27AAE1"><path d="M119.3 13.3s20.1 13.5 6.4 39.4l.9 5.9 5.8 2.7 4.2 55.3 1.6 3.9-11.6 2.7-38.6 36-22.3 8.3 11 11.1 13.4-18.2 39.1-33.8 14-2v-4.2l-5-64.8-7.8 1.3-1.3-5.8s10.3-8.3 6.7-22.9c-3.5-14.5-16.5-14.9-16.5-14.9z"/><path d="M138.9 64.8L158.7 86v32.7l5.3 10.5-9.2 1.1 1.6 3.8s14 0 14-1.9-8.2-11.6-8.2-11.6V83l-23.9-27.3.6 9.1zm-32 44.6l3.7-19.7-3.3-16.9-3.5 35.4zm7.7 6.6L97 112.3l-38.4 19.9H36.3s4.6 6.8 6 6.8 16.3-6.8 16.3-6.8L99 119.7l12.6 5.6 4.1-5.4-1.1-3.9z"/></g><g fill="none" stroke="#000" stroke-width="2" stroke-miterlimit="10"><ellipse transform="rotate(-6.956 121.762 33.176)" cx="121.8" cy="33.2" rx="14.8" ry="20"/><path d="M105.2 21.3s19.2 6.6 29.7 3.8m-28-7.8s13.7 6.4 25.6 3m-21.9-7.1s6 5.4 18.5 4.1m-9.5 35.4l.9 5.9m8.6-7.4l1.3 5.8m-14.7 62.8c-2.2-12.4-10.5-58.8-10.5-58.8l33-5.3 5 64.8s-.2 0-.7.1m-4.3-64.9L162.1 83v37.9l7.3 11.3h-13.7l-5.6-11-4-1.5.6-2.8h7.9L152.1 88l-12.4-13.6m-33.8-9.6l-4.3 42.4m9-16l-3.3 18.7"/><path d="M143.2 120.5l-19-11.1-38.3 48.3 3.7 2.7 39.6-33.7 14-2zm-28.6-7l-17-8.3-40.5 24 1.5 3 40.1-12.8 12.9 5.8m-25.7 32.5l-22 7.8 11 11.9 14.7-17"/><path d="M57.1 129.2l-21.9 2 8.5 7.8 15.2-5.6z"/></g></svg>