<svg version="1" xmlns="http://www.w3.org/2000/svg" width="288" height="288"><g fill="#27AAE1"><path d="M150.3 43.9S135.9 59.4 145 80c0 0-13-5.8-7.2-23.6 4.7-14.7 12.5-12.5 12.5-12.5zM124.8 94l-15.8 6-5.8 26.7h2.1l6.7-23.9 12.8-3.6z"/><path d="M132.4 84.8l-4.1 53s36.3 62.7 43 81.7l22.3 4.5s-8.8 7.6-9.3 7.4c-.5-.2-16.1-5.9-16.1-5.9l.6-4.8-34.1-57.6s-3 16.7-5.3 19.6c-2.4 3-8.2 17-13.5 21.8S101.1 218 101.1 218l14.8 12.1-11.7 2.7-11.8-13.3s13.3-15.7 15.7-20.4c2.5-4.7 9-21.9 10.5-29.6 1.5-7.7 4.8-25.8 4.8-25.8l-3.5-4.3 6.3-52.9 6.2-1.7z"/></g><g fill="none" stroke="#000" stroke-width="2" stroke-miterlimit="10"><ellipse transform="rotate(-79.618 148.993 62.132)" cx="149" cy="62.1" rx="18.4" ry="12.4"/><path d="M139.8 46.5s13.8 1.9 21 0m-22.9 3.1s14 2.8 24.8 0m-26.2 3.6s16.2 3.7 26.6 0m-7.4 35.9s-17.8-8.3-29.5-2.6l-5.7 52.9 19.4 2.6 15.8-52.9z"/><path d="M126.2 86.6l-22 8.8-3.1 31.3h4.2l5.9-23.7m-8 2.2l21.6-6"/><path d="M105.3 126.7l2.7 4.8v5.4h-3.1l-1.7-2.7-1.5 12.1-4.8-6.2 4.2-13.7M154.8 92s4.9 27 28.4 27.7v5.3s-19.7 2-32.9-16.5"/><path d="M183.2 119.7l7.6-2.5 11.3 6.1-5.8 3.1-5-1.3 1.3 2.5-3.9.8-5.5-3.4m-62.8 14.5s39.2 61 48.6 81.2h6.4s-21.6-57-35.6-78.6"/><path d="M122.1 142.2s-.7 45.9-25.2 73l4.1 3s31.9-24.5 33.7-56m34.3 58.6l25.7 1.2-10.9 8.3-15.6-4.8z"/><path d="M96.9 215.2l-5.7 5.6s8.9 10.6 9.4 10.6 16.5-3.7 16.5-3.7l-16-9.6m39.5-140.8l-1.6 7.3 7.5 1.4 1.4-6.2M29.3 215.2h68m7.9 0h61m7.6 0h71.8M15.7 245.7H271"/></g><path fill="none" d="M135.1 45.4c4.6-1.5 9.5-2 14.4-1.5-5.4 3.5-11.2 6.5-17.1 9 6.9.1 13.8.5 20.7 1.2-10.2 2.5-20.6 4.3-31.1 5.5 8.6 1.4 17.3 2.7 25.9 4.1-12.9 2.8-25.7 5.5-38.6 8.3 17.4.7 34.7 1.4 52.1 2.1-16.4 2-32.7 4.8-48.8 8.3 12.8 1.4 25.8 2 38.7 1.8-19.1 6.5-39.2 9.6-59.1 12.7 19 .8 38 1.6 57.1 2.4-11.8 2.1-23.6 4.2-35.4 6.4-4.5.8-9.2 1.7-13.2 3.9 15.1.8 30.1 1.1 45.2.9-14.8 3.6-29.7 6.5-44.8 8.2 12.4 2.7 25 4.8 37.5 6.5-12.1 2.4-24.2 4.7-36.4 7.1-2.4.5-5 1-6.6 2.9 15.8.9 31.6 1.8 47.5 2.6-13.7 1.9-27.4 3.9-41 5.8-3 .4-6.4 1.1-7.8 3.8 20.4.5 40.7 1 61.1 1.4-14.8 2.4-29.6 5.4-44.2 8.9 17.8 1.3 35.5 3.3 53.1 6.2-17.2 1.6-34.5 2.6-51.9 3 13.2 1.7 26.3 4.1 39.2 7-24.3 2.1-48.5 5.4-72.4 9.8 28.3.6 56.6 1.3 84.9 1.9-21.5 3.6-42.9 7.2-64.4 10.8l52.6-.6c-6.1 2.5-12.7 3.1-19.3 3.7-12.9 1.1-25.7 2.1-38.6 3.2 16.6.4 33.1.8 49.7 1.1-10.4 2.7-21.1 4.4-31.9 5.1 33.6 4.2 67.6 4.9 101.3 2.1-44.1 9.8-89.7 9.9-134.9 9.9 28 7.7 57.2 10.6 86.3 10.5 9.6-.1 19.7-.6 28-5.6"/></svg>