<svg version="1" xmlns="http://www.w3.org/2000/svg" width="288" height="288"><g fill="#27AAE1"><path d="M129.7 44.7s-10.9 6.5-8.7 19.8 9.2 18.3 14.8 17.8c.1-.1-17.1-13.2-6.1-37.6zm-6.5 47l10.8 54.1 14 1.7-12.4 1.3-1.8 77.8-8.3 14.2-10.2-5.8 16.4-7.6-5.3-79.9-8.4-55.8z"/><path d="M119.7 102l-12.5 18.8 4.2 28.9 2.6-.4-1.8-28.5 8.6-11.9zm28.3 45.5l9.2 79.9 16.6 11.6-12.8 5.2s-6.4-15.5-6.5-16.9-10.6-78.6-10.6-78.6l4.1-1.2z"/></g><g fill="none" stroke="#000" stroke-width="2" stroke-miterlimit="10"><ellipse transform="rotate(-5.659 133.997 63.194)" cx="134" cy="63.2" rx="13" ry="19.2"/><path d="M122 49s11.2 0 17.8-4.3m-19.1 7.8s13.5 2 22.2-4.7M119.7 56s19.8 1.5 26.5-4.8m-14 30.7l.7 7.1 7.8-.9-1.6-6.8M118 91.7s30.5-5 37.7-4.6v58.7s-16.8 4.8-28.7 1.7l-9-55.8z"/><path d="M118 91.7l-15.8 28 7 30.3 4.8-.7-1.8-28.5 8.5-12.6M109.2 150v12.3l7.8 7 3.7-4.1-5.8-10 4.8 1.8 1.8-4-7.5-3.7m-11.8-29.6l10 1.1M155.7 98l22.3 5.5 8.3-30.8-2.9-7.8m-27.7 22.2l17.5 4.6"/><path d="M169.5 101.4c.2-.8 11.2-26.9 11.2-26.9l-4.8-4.9 1.5-3.4 6.5 2.2"/><path d="M182.3 68.3s3.6-7.5-1.7-8.2-11.7-2.1-12.5 5.5c-.8 7.5 5 8.6 7 8.9s3.7-1.1 3.7-1.1m-1.6-14.2v-3M127 147.5l4.8 78.5h3.4l5.5-77.5m3.3 0l10.5 77.5h4l-2.8-80.2m-23.3 80.8l-15.2 6.3 11.3 7.9 7.1-14.2zm22.2.8c.2.7 6.7 15.3 6.7 15.3l12.6-6.7-14.3-8.6h-5z"/></g><path fill="none" d="M111.1 46.1c10.3.1 20.6.1 30.9.2-11.2 2.4-22.5 4-33.9 4.7 12.4-.3 24.9 0 37.3 1-12.6.7-25.1 1.9-37.6 3.7 9.3 1.3 18.6 1.7 28 1.3-11.7 1.8-23.5 3.5-35.2 5.3 12.3.1 24.6.3 36.9.4-10.5 2.5-21.1 5-31.5 7.7 12.4-.1 24.7-.3 37.1-.4-16.2 1.4-32.5 2.9-48.7 4.3 15.4 2.6 31 3.4 46.5 4.3-14.4 2.3-28.7 4.7-43.1 7-1.5.2-3.4 1.3-2.8 2.7 18 .8 36 1.5 54 2.3-17.6 3.6-35.1 7.2-52.7 10.7 13.1-1.7 26.4-2.5 39.6-2.4-6.7 2.7-13.7 4.2-20.8 5.7-6.9 1.4-13.7 2.9-20.6 4.3 17.5.1 35 .3 52.6.4-16.8 4.6-33.8 8.5-50.9 11.6 16.3.4 32.7.9 49 1.3-17.4 6.9-37.3 4.4-55.1 10.2 19.3.3 38.6.5 57.9.8-16.1 3.3-32.2 6.6-48.3 10 20.3-.1 40.6.4 60.9 1.4-11.7 2.7-23.8 3-35.9 3.3-7.9.2-15.8.3-23.7.5 18.9 1.3 37.8 2.9 56.6 4.9-16.3 2.1-32.6 4.1-48.9 6.2 20 2.1 39.9 4.2 59.9 6.3-17.1 2.9-34.2 5.9-51.4 8.8l43.2 3.6c-12.6 1.1-25.2 2.3-37.8 3.4 13.9 2 27.9 3.1 41.9 3.3-13.9 1.5-27.8 3-41.7 4.6 15 2.2 30.1 4.5 45.1 6.7-14.4.5-29 1.1-43.1 4.5 9.8-.1 19.5.5 29.2 1.9-14.7 1.2-29.3 2.4-44 3.6 21 1.4 42 2.8 63 4.3-18.6 2-37.2 4.6-55.6 7.8 14.8 1.1 29.6 2.3 44.4 3.4-18.6 1.4-37.1 2.8-55.7 4.2 20.9 1.5 41.8 2.6 62.8 3.2-13.9 2.5-28 2.5-42.1 2.6-6.6 0-13.2 0-19.8.1 18.6 5 38.1 5.2 57.4 5.4l-50.5.6c22 8.7 46.4 11.2 69.7 7.2l-5.7-1.5"/></svg>