<svg version="1" xmlns="http://www.w3.org/2000/svg" width="288" height="288"><g fill="#27AAE1"><path d="M165.5 49s-16.1 19.3-4.6 36.3c0 0-11.9-6.3-8.7-21.2 3.3-14.9 13.3-15.1 13.3-15.1zm-16.1 38.4L138.3 140l9.1 6.3-12.1-3.2-8.9 78.4-6.2 19.4-11.3-3.2 15.5-16.8 4.8-80.6 9.2-38.4s.4-12.2 1.8-12.6c1.2-.5 9.2-1.9 9.2-1.9z"/><path d="M140 97.2l-15 6 6.9 25.4 2.3-5.5-5-18.6 8.9-1.8zm8.3 50.4l-.6 74.3L165 235l-8.7 4.5-11.8-18-1.3-76.1z"/></g><g fill="none" stroke="#000" stroke-width="2" stroke-miterlimit="10"><ellipse transform="rotate(-79.618 164.27 67.193)" cx="164.3" cy="67.2" rx="18.4" ry="12.4"/><path d="M155.1 51.5s13.8 1.9 21 0m-22.9 3.2s14 2.8 24.8 0m-26.2 3.6s16.2 3.7 26.6 0m-7.5 35.9s-17.8-11.1-29.5-5.4l-12.5 52.6 27.2 7.2 14.8-54.4zm-51.5 12.9l18.9-5.2m17.6-19.5s-.6 2.9-1.1 5.1M162 90c.4-1.8 1.1-5.2 1.1-5.2m-34.2 56.6l-4.6 80.1h3.9l11.8-77m3.2.9l1.3 76.1h4.2l7-72.9m-14.3-59.8c-1 .2-25.3 9.3-25.3 9.3l13 31-9-2.4 1.4 8 9.1-.8m-1.5-29.5l4 19.2m37.7-28.7l7.4 20.7-17.8 18.4-.5 1.5 7.5.8-1.3 5.1-7-2.1m8-31l6.1 12.4m-3.4-6.2l-6.1 6.2m-39.4 100.8l-14.8 14.2s13.3 4 13.8 3.5 5.8-17.7 5.8-17.7H125m19.5.4l11.2 16.9 9.3-6.8-15.6-10.1z"/></g></svg>