<svg version="1" xmlns="http://www.w3.org/2000/svg" width="288" height="288"><g fill="#27AAE1"><path d="M145.9 74c1.3 2.1 1.8 4.8 1.8 7.4 2.2 1.2 4 1.5 4 1.5-12.1-15.4-3.2-37.9-3.2-37.9s-8.6 2.2-9.6 18.8c-.2 2.4 0 4.4.4 6.3 2.6.3 5 1.3 6.6 3.9zm-10.8 15.5l7 51 15.5 5.5-10.1 1.1-3.4 78.1-7.8 14.1s-11.6-5.5-11.1-5.7c.5-.2 18-8.7 18-8.7L138 146s-2-2.2-3.4-19-4.7-37.5-4.7-37.5h5.2z"/><path d="M159.5 147l8.3 79.7L183 237l-11.8 7-6.6-18.1-9.9-78.9z"/></g><g fill="none" stroke="#000" stroke-width="2" stroke-miterlimit="10"><path d="M138.9 69.5c-.4-1.7-.6-3.6-.7-5.5-.2-10.6 5.4-19.3 12.6-19.4s13.2 8.3 13.4 18.9c.2 10.6-5.4 19.3-12.6 19.4-1.3 0-2.5-.2-3.7-.7m-7.5-33.5s11.1.9 18.1-3M138.8 52s13.3 3 22.5-2.9m-23.8 6.4s19.7 3 26.8-2.8"/><path d="M154.9 89.1c.7 0 1.1-.1 1.1-.1l-1-6.9"/><path d="M151.8 89.1c6.8-.1 13.2-.1 16 .2l-2.1 55.7s-17 4.2-28.7.6l-7-56.1s6.2-.2 13.6-.3"/><path d="M138 146l4.8 78.5h3.5l5.4-77.5m2.3 0l10.5 77.5h4l-2.8-80.2m-22.3 80.8l-15.1 6.3 11.2 7.8 7.1-14.1zm21.2.8c.2.7 6.7 15.3 6.7 15.3l12.6-6.7-14.3-8.6h-5zm-29-119.4c9.8 8.8 27.9 7 27.9 7l-16.2-32.6-1-7.8-8.4-4.3s-3.6 3.5-4.5 4.1l5.4 7-5 1 .6 3.4 7.5 1.1 5.4 15m-9.3-4.5s13.5 8.1 20.1 8m-59-41.4s.9 1.9 2.5 2.4 3.6-1.4 3.6-1.4-2.1-4.9-6.1-1zm10.4 1.2s14.5 2.5 19.8 5.1m-17.7-1.3l15.5 5.1m40 35.5s8.1 19 10.4 20.6l-1.4 3.9s-7.7-4.8-9.6-10.5"/><path d="M175.9 132.9l1.6 6.9 3.7.7.6-2.4-1.6-3.1 7.6 3.5-.4-5.1-9.5-4.4"/></g></svg>