<svg version="1" xmlns="http://www.w3.org/2000/svg" width="720" height="1152"><path fill="none" stroke="#27AAE1" stroke-width="2" stroke-miterlimit="10" d="M360.7 73.3c-1 .3-1.8-.7-1.8-.7S270 44.2 258.8 109.3c-11.2 65.2-23.9 194.8-23.9 194.8l29.1 20-118.3 251.2 20.9 19.4-30 96.4 40.2 9 27.6-27.7 22.6 15.9 18.5-14.6-18.5-46.4 15.7 6.7 31.1-158-60.7 460.5s19.6 33.8 59.3 39.3v21.7l-81 32.8 65.1 74.7 99.8-50.6 99.8 52.6 66.3-73.7-82.5-35.2.3-21.7c39.7-4.9 61.9-37.2 61.9-37.2l-53.3-461.4 28.5 158.4 15.8-6.5-19 46.3 18.2 14.9 22.9-15.6 27.1 28.2 40.3-8.4-28.5-96.8 21.3-19.1-114.3-253 29.4-19.6s-10.7-129.9-20.8-195.2c-8.7-56-75.6-44.1-94.5-39.6l-9 1.7-5.5-.2z"/></svg>