<svg version="1" xmlns="http://www.w3.org/2000/svg" width="621" height="361"><path fill="#FFF" stroke="#000" stroke-width="2" stroke-miterlimit="10" d="M386.5 40l-32.3-9h-26.6l-23.1 9h-9.9s-19.2-6.3-24.1-4.6c-5 1.7-34.1 5.3-37.3 4.6-3.2-.6-16.7 5.3-16.7 5.3L198.2 52l-33.8 3.4s-14.9 7.8-21.6 12-12.4 11.1-14.9 14.1c-2.5 2.7-6.7 28.8-6.7 28.8s-16.7 9.9-18.2 16.2c-1.7 6.3-5.5 28.8-5.5 28.8s.2 14.7 0 23.8 0 30.1 0 30.1l13.9 17.4 13.2 18.3 19.9 27.3 17.4 12.6 22.6 12.6 21.4 6.9H235s47.3 16.8 50.5 16.8c3.2 0 7.5 6.3 25.6 6.3h101.2s-19.2 0 30.6-3.6 37.3 0 37.3 0l36.6-9s35.6-22.5 40.5-23.8 21.6-6.3 24.1-12 7.5-13 9.2-19.8c1.7-6.7 9.9-18.1 13.2-23.5 3.2-5.7 7.5-9 7.5-16.2V200s-.7.6 0-15.3c.7-16.2 1.7-17.4 0-25.9s.7-12.6-4.2-25.9-7.5-16.8-7.5-16.8l-5-7.8-14.2-17.4L568 73.4l-17.4-21.6s-11.7-5.7-14.9-5.9c-3.2-.4-24.1-3.2-29.1-4.6S485 38.5 485 38.5L458.4 37s-14.9 1.5-20.6 1.5c-5.7 0-22.4 3.6-27.4 3.6S386.5 40 386.5 40zM76.8 108.7H66.1s-9.9 4.8-10.7 6.9c-.7 2.1-4.2 6.5-5 10.3-.7 3.8-4.2 9.2 0 10.7s12.2 4.2 12.2 4.2h6.7s8.2 2.7 13.2 0 10.7-2.7 10.7-5.7c0-2.7 2-5.7 2-5.7l1.2-12-11.7-9h-8v.3zM50.1 153h-7.8l-8.9 7.6-2.7 6s-1.6 4.2 0 6.9 3.1 4.5 6.8 5.1c3.7.5 3.1-.9 6.6 0 3.5.9 9.7.2 9.7.2l8.2-2.2 5.1-6.3v-12.7l-2.7-4.5-4.5-1.3-9.8 1.2zm-28.8 41.3s-9-.7-9.2 0c-.3.7-2.9 4.9-2.9 4.9l-2.5 6.5s-.4 1.4 1.2 2.1c1.8.7 1.5.5 3.6 1.3s11.2 1.4 12 1.1c.9-.3 2.8-1.1 4.7-2.4s4.8 0 4.8-3.9v-6.3l-2.6-3.5-9.1.2z"/></svg>