<svg version="1" xmlns="http://www.w3.org/2000/svg" width="288" height="288"><g fill="#27AAE1"><path d="M174.3 85.6s-10.2 19.9 2.6 34.9c0 0-10.5-5.6-9.6-19.1.8-13.4 7-15.8 7-15.8zm-16.4 57.2c.3 0 .4.1.7.1.7-1.5 1.4-2.9 2.3-3.8l-.7-11.1s-3 5.7-5.3 14.8c1-.1 2-.1 3 0zm-2.7 22.4c-.5.2-1.2.2-2-.1-.3-.2-.6-.3-.9-.5 0 2.2.2 4.5.4 6.9l2.3.5c.2.1.1-2.8.2-6.8z"/><path d="M162.6 142.7l-.1 5.3c.9-.6 1.7-2.4 2.6-2.6l-1.7-33.4-3.3 1.4.7 29.1 1.8.2zm3.6 24.3l-.7-13.3c-.7 0-1.4-.1-2.2-.2l-.9-.3-.2 13.6-1.4.1v2.3l2 .5 4.3 68-14.8 15 15.2 1.9 2.7-16.8L172 171l16.6-.3-22.4-3.7z"/><path d="M183.4 171l6 66.8 15.4 12.9-16.6 2.1-1.4-15-8.1-66.8zm-66.6-36.4c-.8.5-1.5.9-1.5.8-.2-.1.2-.9.7-1.8-1.9-2.3-3.3-5-4.1-7.9-4.9 5.7-10.2 11.2-15.7 16l-2.8 18.4 24.7-24.1c-.4-.4-.9-.9-1.3-1.4zm23.9-49.8s-8.6 14.1-17.9 27.1c2.1 3.7 3.8 8.7 6 7.2.3.4-.2 2 0 2.4l12.8-16.6.6-20.1h-1.5z"/></g><g fill="none" stroke="#000" stroke-width="2" stroke-miterlimit="10"><path d="M129.6 76.5l-6.5-.9c-6.5-1-11.1-7.1-10.1-13.6l3.2-21.9c1-6.5 7.1-11.1 13.6-10.1l6.5.9c6.5 1 11.1 7.1 10.1 13.6l-3.2 21.9c-.9 6.5-7.1 11.1-13.6 10.1z"/><path d="M114.1 54.8s8.2 2.5 15.1 2.2c6.9-.3 10.2 2.6 14.4 3.7m-28.7-11.4s-5.6 2.4-1 7.1"/><path d="M116.4 80c-3.8.1-17.8-6.7-17.8-6.7s.9-1.5 7.9-28.8c7-27.4 27.6-18.8 27.6-18.8s13.4-1.1 15.8 12.7c2.4 13.7-1.3 40-1.3 40s-10.9 3.4-14.6 3.4"/><path d="M121.8 75.2l-1.4 5.4 11.5 1.4 1-5.2"/><path d="M141 157.4c-.4 31-.6 52 2.8 60.9 0 0-30.5 7.1-58.7-4.5l20.4-133.2s20.4-1.8 36.6 4.2c0 0-.2 31.6-.8 50.7"/><path d="M111.8 85.8s17.2 58.8 50.8 57.3l.4 26.3s-54.1-20.9-57.7-64.2m57.7 40.4l10.4-3.9 13.6 3.9v9.7h-14.5l-9.5-1.4m-22.3-69.1s-10 15.7-17.9 27.1m-10.9 13.8c-4.4 5.5-11.2 11.5-15.7 16m32.6-20.2c2.5-3.8 11.4-14.5 12.7-17.9m-48.2 56.5s11.2-8.3 24.4-22.8m-14.3 81.6l1.4 17.6h6l3.6-16.3m10.5.2l1.7 15.4h6.3l1.3-16m-23.4 16.7l14.9 15.5-16.8 1.3-4.1-16.8m21.8-.7l7.6 13.8 15.4-5.7-16.7-8.1m8.6-137.9l18.3 16.6m-17.7-29.7c1-.3 25.2 16.7 25.2 16.7m21.8 5.8c.7 0 9.2 1.1 9.2 1.1s-1.5 13.1-1.9 13.1c-.5 0-6.6-.7-6.6-.7l-2.6-6.4m3.3 6.5v-7.5m3.7 8.3v-8.3"/><ellipse cx="178.7" cy="102.5" rx="11.4" ry="18.2"/><path d="M170.3 85.6s9.9 5.1 16.3 2m-18 1.6s11.2 6.6 20.2 2.1m-21.5 1.3s12.3 5.6 22.8 2.3m-23.9 1.3s15.1 6.1 25.1 1.2m-30.4 45.4v-29.6s2.8-1.9 7.7-3m25.8 11.3v48.9s-22.3 2-33.6-1v-2.5"/><path d="M196.7 119.1c3.2 10.2 8.1 31.4 7 52l-4.6 1s1.9-16.4-4.8-30.7"/><path d="M199.1 172.1l-2 6.9 2 2.2v9.3l7.1-4.6-2.5-14.9m-7.6-25.4c-.1-.3 5.6-4.9 5.6-4.9m-49.3.9c1.5-9.3 3.6-17.2 5.2-22.4 0 0 1.7-4.9 3.2-5.8m.1 25.7c-.5 1-.9 2.1-1.4 3.2m-4.3 22.9c-.2 4.2-.1 6.8-.1 6.8l-4.6-1c-.2-2.5-.2-5-.2-7.5"/><path d="M155.2 172.1l2 6.9-2 2.2v9.3l-7.1-4.6 2.5-14.9m12.3-1.2l4.4 68h5.9l4.4-66.8m1.1 0l8.1 66.8h4.9l2.7-67.4m-27.1 67.4l-14.4 12.1 17.4 2.9 2.9-15m13.6 0l3.3 16.1 16.1-4.6-14.5-11.5"/></g></svg>