<svg version="1" xmlns="http://www.w3.org/2000/svg" width="288" height="288"><path fill="#27AAE1" d="M104.2 92.5L73.9 129l-1.1 13.8 41-46.1-3-3.1z"/><g fill="none" stroke="#000" stroke-width="2" stroke-miterlimit="10"><path d="M113.6 93.6c2-.6 3.9-1.2 3.9-1.2-7.4-7.1-4.8-39.7-8-47S92.2 41 92.2 41s-16.1-3-18.1 7.4c-1.7 9.1-1.3 33.1-3.8 41.3l5.8 1.6"/><path d="M75.1 91.5s25.1-2.7 38.4 2.4c0 0-8.2 82.1 10 125.4 0 0-40.5 12.8-63.8-9.8 0 0 14.2-67.1 14.2-75.6s1.2-42.4 1.2-42.4zm47.5 60l3.2 7.6 7.3 4.5 3.2-1.3-7.3-14.6"/><path d="M122.5 150.9l-2.2 5.5.7 3.2 1.2.2 2.6-4m-44.7 65.7l2.5 11.6h1.5l2.6-10.7m-4.2 10.7l-20.1 2.6 7.9 8.2 14.4-9.8zm23.6-9.8l-2.6 11.7H102l-2.9-12m14.6 21.6c-4.1-2.2-12.1-7.7-12.1-7.7l2-1.9 16 2M88.3 84.7c-.6-.4 0 5.9 0 5.9l9.2.3v-6.2s-7.1 1.7-9.2 0zM113 94.9l20.2 50.1-15.6 8.3-5.2-42.7s.5-12.2.7-15.1M78.9 65.7s5.3 2.4 8.3 1.4c3-1.1 6.2-1.5 10.7 0 4.5 1.5 7.5-1.7 7.5-1.7m-4 26.4l-27.6 34.3-.5 13.3L113 94.9z"/><path d="M93.4 84.3h-2.5c-6.6 0-12-5.4-12-12V60.2c0-6.6 5.4-12 12-12h2.5c6.6 0 12 5.4 12 12v12.2c0 6.5-5.4 11.9-12 11.9zM78.9 62.8s-6.1 2.4 0 7.2m26.9-7.1s6.1 2.4 0 7.2m-42.9 79.2l-3.2 7.5-7.3 4.6-3.2-1.3 7.3-14.6"/><path d="M63 148.7l2.2 5.5-.7 3.2-1.2.2-2.6-4m13.7-61.8l-22.8 50.8 15.6 8.3s6.8-35.4 7.1-38m74.9-16.7l7.3 25 26.6-7.1-3.7-30.1zm129.1 58.6c-.9 0-37.2-46.2-37.2-46.2l-30.5-1.8s2.4 7.5 3.3 7.4c.9-.1 24.8 4.7 24.8 4.7"/><path d="M212.8 112.7l-4.4 4.5s6.3 27 9.4 26.1c3-.9 27.8-7.3 27.8-7.3l-7-17.2s-.5-.1-1.4-.3m.9 19.5c.9-.2 16.9 34 16.9 34M193.6 63c.3.2 7 28.6 7 28.6l45-9-5.1-31.5L193.6 63zm22.9 25.4s1.1 7.7 2.6 18.1"/><path d="M224 141.3c1.7 12.2 3.1 21.6 3.1 21.6l14.1-8s-1.5-7.2-3.5-17m-6.3-30.3C229 95.7 227 86.3 227 86.3m12.7 36.2l-18.3.6m20.6 3.8l-21.5 3.8m23 0c-.4.4-18.2 5.2-18.2 5.2m-47-20.5s6.6 58.1 22.3 70.8m-39.1-66.4s-8.7 45.2 18.5 76.9m-.3-110.2c8-3.6 13.9-6.3 13.9-6.3l1.6 11.3s-6.1 1.9-14.3 4.4m-50.6 17.8l-4 .9s.2 3.9.8 3.9h4.2l-1-4.8zm-4.5 58.3l-3.2 2.9 3.2 4.9 5.8-3.3zm18.6-31.1l-3.8 2.4 1.9 4.8h4.4zm1.2-16.5l-3.8 1 .6 5.3 6.8 1.4v-6.5zm19 117.6l-6.2-5.8-7.9 1.6s-2.3-12.5-2.9-12.7c-.6-.2-8.2-2.4-8.2-2.4l-8.9 13.3-10.3.6-7.6 8.6-14.2-5.1-10.3 6m-32.9-38.9L41.3 203l-1.5 9.2L30 214l2.4 8-14.8 1.4-3.7 12.1m75.7-30.3l-3 2.7 1.5 3.8h4.7zm34.7-19l-2.3 1.5s-.7 1.8 0 2.5 3.7 1.4 3.7 1.4l-1.4-5.4z"/></g></svg>