<svg version="1" xmlns="http://www.w3.org/2000/svg" width="288" height="288"><g fill="#27AAE1"><path d="M126.3 127.5c-.8.5-3-2.3-3.1-2.4-3.4-2.9-3.4-2.9-5.6-4.6-.1-.1 0-.3-.1-.4-4.9 5.7-15.8 16.9-21.3 21.7l-2.8 18.4 32.9-32.7c.1.1.2.2 0 0s-.1-.1 0 0zm14.4-42.7s-3.1 5.8-12.4 18.8c2.1 3.7 5 7.5 7.2 6.1.3.4-.2 2 0 2.4l6.1-7.1.6-20.1h-1.5zm39.4-35.3s-12.4 24.2 3.2 42.4c0 0-12.7-6.8-11.7-23.2s8.5-19.2 8.5-19.2zm-19.9 69.3c.3 0 .5.1.8.1.8-1.9 1.7-3.5 2.8-4.7l-.8-13.4s-3.6 6.9-6.4 18c1.1-.1 2.4-.1 3.6 0zm-3.3 27.2c-.6.2-.8-3.4-1.7-3.8-.4-.2-1.4-.4-1.7-.6 0 2.7.2 9.1.5 12l2.8.6c.1.1 0-3.3.1-8.2z"/><path d="M165.9 118.6l-.1 6.4c.5-4 1.9-4.8 3-5l-1.9-38.8-4 1.7.8 35.3 2.2.4zm4.4 29.6l-.8-16.1c-.6-2 0-2-.9-2.1-.4-.1-2.3-1.3-2.6-1.5v16.6l-2.1 3.1v2.8l2.5.6 5.3 82.5-18 18.2 18.4 2.3 3.3-20.4 2.2-81.1 20.2-.3-27.5-4.6z"/><path d="M191.1 153.1l7.4 81.1 18.6 15.6-20.2 2.5-1.6-18.1-9.8-81.1z"/></g><g fill="none" stroke="#000" stroke-width="2" stroke-miterlimit="10"><path d="M129.6 76.5l-6.5-.9c-6.5-1-11.1-7.1-10.1-13.6l3.2-21.9c1-6.5 7.1-11.1 13.6-10.1l6.5.9c6.5 1 11.1 7.1 10.1 13.6l-3.2 21.9c-.9 6.5-7.1 11.1-13.6 10.1z"/><path d="M114.1 54.8s8.2 2.5 15.1 2.2c6.9-.3 10.2 2.6 14.4 3.7m-28.7-11.4s-5.6 2.4-1 7.1"/><path d="M116.4 80c-3.8.1-17.8-6.7-17.8-6.7s.9-1.5 7.9-28.8c7-27.4 27.6-18.8 27.6-18.8s13.4-1.1 15.8 12.7c2.4 13.7-1.3 40-1.3 40s-10.9 3.4-14.6 3.4"/><path d="M121.8 75.2l-1.4 5.4 11.5 1.4 1-5.2"/><path d="M139.7 135.8c-.4 31 .7 73.6 4.1 82.5 0 0-30.5 7.1-58.7-4.5l20.4-133.2s20.4-1.8 36.6 4.2c0 0 0 9.8-.6 28.9"/><path d="M111.8 85.8s19.8 34.5 53.4 33l.4 26.3s-39-6.6-60.3-39.9m60.3 16.1l10.4-3.9 13.6 3.9v9.7h-14.5l-9.5-1.4m-24.9-44.8s-4.5 7.4-12.4 18.8M117.5 120c-4.4 5.5-16.8 17.2-21.3 21.7m40.2-30.8c2.5-3.8 3.8-3.9 5.1-7.3m-48.2 56.5s19.8-18.1 33-32.6m-22.9 91.4l1.4 17.6h6l3.6-16.3m10.5.2l1.7 15.4h6.3l1.3-16m-23.4 16.7l14.9 15.5-16.8 1.3-4.1-16.8m21.8-.7l7.6 13.8 15.4-5.7-16.7-8.1m8.6-137.9l16.9-2.5m-16.3-10.6c1-.3 29.4-9.6 29.4-9.6m27.1 1.4c.7 0 10.2 3.1 10.2 3.1s-1.5 13.1-1.9 13.1c-.5 0-6.6-.7-6.6-.7l-4-7.5m4.7 7.6v-7.5m3.7 8.3v-8.3"/><ellipse cx="185.5" cy="69.9" rx="13.9" ry="22.1"/><path d="M175.2 49.5s12 6.2 19.8 2.4m-21.8 1.9s13.7 8 24.5 2.6m-26.1 1.5s14.9 6.8 27.6 2.8m-28.9 1.6s18.3 7.3 30.4 1.4m-36.9 55.1V82.9s3.4-2.3 9.3-3.6M204.5 93v59.4s-27.1 2.5-40.7-1.2v-6.4"/><path d="M207.3 90.1c3.8 12.4 9.8 38.1 8.5 63.1l-5.6 1.2s2.3-19.9-5.8-37.2"/><path d="M210.3 154.3l-2.5 8.5 2.5 2.6v11.3l8.6-5.5-3-18.1m-9.3-30.9c-.1-.3 6.8-5.9 6.8-5.9m-59.8 1c1.9-11.3 4.3-20.9 6.3-27.2 0 0 2.1-6 3.9-7m0 31.2c-.6 1.2-1.1 2.6-1.7 3.9m-5.1 24.7c-.2 5.1-.1 11.5-.1 11.5l-5.6-1.2c-.2-3-.3-10-.3-13"/><path d="M156.9 154.3l2.5 8.5-2.5 2.6v11.3l-8.6-5.5 3-18.1m15-1.5l5.3 82.6h7.1l5.4-81.1m1.4 0l9.8 81.1h6l3.2-81.9m-32.9 81.9l-17.5 14.5 21.1 3.6 3.5-18.1m16.6 0l4 19.4 19.6-5.6-17.6-13.8"/></g></svg>