<svg version="1" xmlns="http://www.w3.org/2000/svg" width="288" height="288"><circle fill="none" stroke="#000" stroke-width="2" stroke-miterlimit="10" cx="122.1" cy="149.7" r="8.4"/><path fill="none" stroke="#000" stroke-width="2" stroke-miterlimit="10" d="M143.6 153.1V146h-5.3c-.4-1.9-1.2-3.8-2.3-5.4l3.8-3.8-5-5-3.9 3.9c-1.6-1-3.4-1.8-5.4-2.2V128h-7.1v5.5c-1.9.4-3.7 1.2-5.4 2.2l-3.9-3.9-5 5 3.8 3.8c-1.1 1.6-1.8 3.4-2.3 5.4h-5.3v7.1h5.3c.4 2 1.2 3.9 2.2 5.5l-3.7 3.7 5 5 3.6-3.6c1.7 1.1 3.6 1.9 5.6 2.3v5.1h7.1V166c2-.4 3.9-1.2 5.6-2.3l3.6 3.6 5-5-3.7-3.7c1.1-1.7 1.8-3.5 2.2-5.5h5.5z"/><circle transform="rotate(-73.016 154.04 133.439)" fill="none" stroke="#000" stroke-width="2" stroke-miterlimit="10" cx="154" cy="133.4" r="6.3"/><path fill="none" stroke="#000" stroke-width="2" stroke-miterlimit="10" d="M168.9 140.6l1.6-5.1-3.8-1.2c.1-1.5-.1-3-.5-4.4l3.6-1.9-2.5-4.7-3.6 1.9c-1-1.1-2.1-2-3.4-2.8l1.2-3.9-5.1-1.6-1.2 4c-1.5-.1-2.9 0-4.3.4l-1.9-3.6-4.7 2.5 1.9 3.6c-1.1.9-2.1 2.1-2.8 3.4l-3.8-1.2-1.6 5.1 3.8 1.1c-.2 1.5 0 3 .4 4.5l-3.4 1.8 2.5 4.7 3.4-1.8c1 1.1 2.1 2.1 3.5 2.9l-1.1 3.7 5.1 1.6 1.1-3.7c1.5.1 3.1 0 4.5-.5l1.8 3.4 4.7-2.5-1.8-3.4c1.1-1 2.1-2.1 2.8-3.5l3.6 1.2z"/></svg>