<svg version="1" xmlns="http://www.w3.org/2000/svg" width="288" height="288"><path fill="none" stroke="#000" stroke-width="2" stroke-miterlimit="10" d="M165 62.5v-12h-37.5v-11l-16 14L126 71.2l1-9.7zm-47 42.2l-1.1-12 37.4-3.3-1-11L170.5 91l-12.9 18.9-1.9-9.6zm20.2 67.2c-.4-.7-.4-34.9-.3-69.8m.1-11.2c0-10.3.1-20.4.1-29.4"/><path fill="none" stroke="#000" stroke-width="2" stroke-miterlimit="10" d="M138.1 50.8c.1-13.4.1-22.3.1-22.3h9V50m0 11.5V90m0 11.2v70.6M108.3 258l15.7-57.7-39-46.1M180.3 261l-17.6-61 40.6-41.7M96 152.8l46.7 33 54-31.6"/></svg>