<svg version="1" xmlns="http://www.w3.org/2000/svg" width="792" height="1002"><path fill="none" stroke="#35ABDF" stroke-width="8" stroke-miterlimit="10" d="M441.9 747.3s19-71 6-152M433.5 624l14.1-33.4 20.8 30.3m172.5 242.9s-115-14.5-156-262.5"/><path fill="none" stroke="#35ABDF" stroke-width="8" stroke-miterlimit="10" d="M475.2 631.3l7.5-35.4 26.2 25.7M139 892.3S45.2 588.8 228.9 577l6.6-.3c21.7-.5 43 5.5 61.8 16.2 31.8 18 77.9 31.8 108.8-1.4"/><path fill="none" stroke="#35ABDF" stroke-width="8" stroke-miterlimit="10" d="M378.2 596.7l34.8-10.2-10.5 35.2M446 118.2c-1.3 2.6 2.5 47.1 2.5 47.1"/><path fill="none" stroke="#35ABDF" stroke-width="8" stroke-miterlimit="10" d="M430.3 143.2l13.6-33.5 21.3 29.9"/></svg>