<svg version="1" xmlns="http://www.w3.org/2000/svg" width="360" height="288"><path fill="#27AAE1" stroke="#000" stroke-width="2" stroke-miterlimit="10" d="M208.2 112.6s7-1 7 5.4-2.4 14.2-5 14-14.9-7.9-9.5-17.4m-48.9-5.7s-7-1-7 5.4 2.4 14.2 5 14 14.9-7.9 9.5-17.4"/><path fill="none" stroke="#000" stroke-width="2" stroke-miterlimit="10" d="M183.9 190.5v-83.1m.2 34.4s-8.9-17-12.9-10.5 7 12.6 12.9 10.5z"/><path fill="none" stroke="#000" stroke-width="2" stroke-miterlimit="10" d="M183.2 141.8s8.9-17 12.9-10.5-7 12.6-12.9 10.5zm.7 27.6s-13.9-17-20.2-10.5c-6.5 6.6 11 12.6 20.2 10.5zm.3 0s13.9-17 20.2-10.5-11 12.6-20.2 10.5zm0-61.5s-5.1-5.6-6.1-2.9 1.5 4.2 6.1 2.9z"/><path fill="none" stroke="#000" stroke-width="2" stroke-miterlimit="10" d="M183.9 107.9s5.1-5.6 6.1-2.9-1.5 4.2-6.1 2.9zm0-.5s-3.4-12.5-14.8-9.5-14.6 9.5-14.6 9.5"/><path fill="none" stroke="#000" stroke-width="2" stroke-miterlimit="10" d="M183.9 106.3s8.3-13.3 15.7-4.9c4.1 4.7 5.6 8.8 6.1 11.5m-51.5-3.9s-3.6-6.7-5.3-4.3c-1.5 2.5.6 4.6 5.3 4.3z"/><path fill="none" stroke="#000" stroke-width="2" stroke-miterlimit="10" d="M154 109s6.3-4.2 6.6-1.3c.3 2.9-2.5 3.7-6.6 1.3zm51.6 3.8s3.6-6.7 5.3-4.3c1.7 2.4-.3 4.5-5.3 4.3z"/><path fill="none" stroke="#000" stroke-width="2" stroke-miterlimit="10" d="M206.1 112.7s-6.3-4.2-6.6-1.3c-.4 2.9 2.4 3.7 6.6 1.3z"/></svg>