<svg version="1" xmlns="http://www.w3.org/2000/svg" width="360" height="288"><path fill="none" stroke="#000" stroke-width="2" stroke-miterlimit="10" d="M27.8 179.1h312.4m-71 13l5.6-1.7m-2.8 3.7h6.2m-70-2.8s6.2-1.6 6 .9-3 5-3 5m-33.4-6.8s-4.2.2-4.8 3.8 4.8 3 4.8 3m19.2 3.7v5.2m3.5-6.7v6.7m-70.3-14h5.6m-5.6 3.8l4.6 1.3m-51 3.7l3-5m-1.6 7.9l6-4.4M57 191.3s-2.5-.1-3 2.5 4 2.8 4 2.8m24.2-49.5v32m0-31.6s-6.9-10.1-10-6.2 5.6 7.5 10 6.2z"/><path fill="none" stroke="#000" stroke-width="2" stroke-miterlimit="10" d="M81.6 147.5s6.9-10.1 10-6.2-5.5 7.5-10 6.2zm69.5 31.6v-67.8m.2.1s-8.9-17-12.9-10.5 7.1 12.6 12.9 10.5z"/><path fill="none" stroke="#000" stroke-width="2" stroke-miterlimit="10" d="M150.4 111.4s8.9-17 12.9-10.5-7.1 12.6-12.9 10.5zm.6 36.6s-13.9-17-20.2-10.5c-6.4 6.6 11.1 12.6 20.2 10.5zm.4 0s13.9-17 20.2-10.5-11.1 12.6-20.2 10.5zM260 179.1V96m.2 34.4s-8.9-17-12.9-10.5 7.1 12.6 12.9 10.5z"/><path fill="none" stroke="#000" stroke-width="2" stroke-miterlimit="10" d="M259.4 130.4s8.9-17 12.9-10.5-7.1 12.6-12.9 10.5zm.6 27.6s-13.9-17-20.2-10.5c-6.4 6.6 11 12.6 20.2 10.5zm.4 0s13.9-17 20.2-10.5-11.1 12.6-20.2 10.5zm0-61.5s-5.1-5.6-6.1-2.9 1.4 4.2 6.1 2.9z"/><path fill="none" stroke="#000" stroke-width="2" stroke-miterlimit="10" d="M260 96.5s5.1-5.6 6.1-2.9-1.5 4.2-6.1 2.9zm0-.5s-3.4-12.5-14.8-9.5-14.6 9.5-14.6 9.5"/><path fill="none" stroke="#000" stroke-width="2" stroke-miterlimit="10" d="M260 94.9s8.3-13.3 15.7-4.9c4.1 4.7 5.6 8.8 6.1 11.5m-51.4-3.9s-3.6-6.7-5.3-4.3c-1.6 2.5.5 4.6 5.3 4.3z"/><path fill="none" stroke="#000" stroke-width="2" stroke-miterlimit="10" d="M230.1 97.6s6.3-4.2 6.6-1.3c.3 2.9-2.5 3.7-6.6 1.3z"/><path fill="none" stroke="#000" stroke-width="2" stroke-miterlimit="10" d="M227.9 97.5s-7-1-7 5.4 2.4 14.2 5 14 14.9-7.9 9.5-17.4m46.4 1.9s3.6-6.7 5.3-4.3c1.6 2.4-.4 4.5-5.3 4.3z"/><path fill="none" stroke="#000" stroke-width="2" stroke-miterlimit="10" d="M282.2 101.3s-6.3-4.2-6.6-1.3c-.4 2.9 2.4 3.7 6.6 1.3z"/><path fill="none" stroke="#000" stroke-width="2" stroke-miterlimit="10" d="M284.4 101.2s7-1 7 5.4-2.4 14.2-5 14-14.9-7.9-9.5-17.4"/></svg>