<svg version="1" xmlns="http://www.w3.org/2000/svg" width="432" height="360"><g fill="none" stroke-miterlimit="10"><path stroke="#000" stroke-width="3" d="M135.6 308l18.6-24.5-2-15.9 2-19 4.4-32.5 16.3-20.8h4.7l8.2 7.6 2.4 21.6 3.8-4.2 4.8-.4 3.1 5.3-2.9 32.4-5 18.5-16.8 15.6-10.6 26.7"/><path stroke="#000" stroke-width="3" stroke-linejoin="bevel" d="M182.2 197.7l3.4-2.4h6.4l4.2 21.9 3.3-5.9 5.5-.3 2.6 8-1.3 34.4-7 23.9 10.6 43.8m-27.7-33.6v9.7l-3.8 23.9m-16.8-108.8l-3 31m6.7-35.6v31.2m4.7-37.2l3.4 32.1m1.8-37.8l6.5 31.8"/><path stroke="#000" stroke-width="3" stroke-linejoin="bevel" d="M190.2 224.5l-1.6 18.8-2.2 5.7m9.8-31.8l-2.2 3.1"/><path stroke="#27AAE1" stroke-width="4" d="M256.2 229.6s-12.5 25.7-34.3 32.3m21.6-27l12.7-5.3 3.3 13.9"/><ellipse stroke="#000" stroke-width="3" cx="301.4" cy="168.7" rx="52.8" ry="54.2"/><path stroke="#000" stroke-width="3" d="M287.2 108.3L275.4 75m28 30.8V50.5m17.3 55.3l7.7-33m-85.8 108.1l-33.2 11.7m30.7-28h-55.2m55.2-17.2l-33-7.8m151.5 41.3l33.2 11.7m-30.7-28h55.2m-55.2-17.2l33-7.8"/><path stroke="#27AAE1" stroke-width="4" d="M219.8 70l-8.9-10.6 12.4-7.2m-12.4 7.2s28.3 4.4 40.9 23.3"/><path stroke="#000" stroke-width="3" d="M187.2 10.3s-45.2 7.3-42.1 44.4 38.6 47.7 66.1 34.2c-.1 0-72-20.6-24-78.6z"/><path stroke="#27AAE1" stroke-width="4" d="M91.7 85.2L78.4 89l-1.6-14.2M78.4 89s15.4-24.1 37.9-28"/><ellipse stroke="#000" stroke-width="3" cx="64.4" cy="164.6" rx="52.8" ry="54.2"/><path stroke="#000" stroke-width="3" d="M26.8 127.4l2.8-.8s1.5.6 2.2.8c.8.1 3.6.1 4.1-.4s1.6-1.4 2.2-1.4 2-.2 2.8 0 2.6-.3 3.6-.1c1 .2 4.9.5 5.9-.1s4-2 4-2h2.2s3.1 1.6 3.8 2 1.9 2.4 1.6 3c-.2.6-1 3.2-1 3.2l-.1 4.1 1.2.8 4-1.4 3.9-2.2 3.1-1.9 4.4-.4.9.9v2.1l-2.2 2.9.6 2 2.9 2.9.9 2 1.6 2.6v1.9h-9.6s-.6 2.6-.8 3.1-.2 3.4-.2 3.4-.8 2-1.8 2.2-2.9 0-2.9 0l-3.3.9s-1.4 1.6-1.4 2.2.5 1.4 1 2.5 1.9 2.9 1.2 3.4-1.6 1.8-2.9 1.5-3.1-.1-4.6-1.4-4-2.8-4-2.8-1.5-1.1-3.6-1-2-.2-2.9.5-.9 2-.9 2l.8 3.5s1.4 3.1 1.8 3.8 2.9 4.6 4.5 4.9c1.6.2 3.5-1.1 3.9 0s4.4 4.5 4.8 4.5 2.8-.5 2.8-1.1-.6-1.6-.1-3.1.7-3.2 1.6-3.8c.9-.5.1-.6 1.9-1.1s3.8-1.1 3.8-1.1 1.6-.2 2.8-.2 2.6.2 2.6.6.4 1.1.4 2.2 1.2 3.6 1.5 4 2.6 2.5 3.1 2.5 3.8 1.1 3.8 1.1l3.6 1 1.2 2.1v3.9l-.9 2-1.4 3.5-1.5 3.4s.1 2.5-.1 3.6 1.4.4-.5 2.5-3.1 3.4-3.5 4.1-2.6 3.5-2.6 3.5l-2.5 1.2-4 .8-2.6-.6-2.5-2.6s-2.1-2.1-1.9-4 .4-2.2.5-3 .2-1.9.1-4-.4-3.6-.4-3.6l-.5-1.8-2.9-1.4-.8-.4-3-2.1-.1-1.9-.6-2-.9-2.1-3.4-2.5-4-1.6-4.2-.4-6.1-1.4s.4 1.5-1.5-1-2.6-3.6-2.6-3.6-.9-4.5-.9-5.2-.8-3-.8-3h-1.9s-2.1-.2-2.3-.5-.9-2.2-.9-2.2l-2.1-4.4v-2.1s-3.2 0-3.2.4 1.6 2.6 0 3-2.5 1.9-3.1 1.1-2.8-3.9-2.8-3.9-1.7-3-1.7-3.6 1-8.1 1.4-8.2 4-1.9 4-1.9 1.8-2.2 1.2-2.5-3-3.7-3-3.7m97.3 17.1s-4.8 1.4-5.2 1.8-2.1 3.6-2.1 3.6l-3.4 4.6s-2.1 2.1-2.1 2.9v8.8l1.6 3.4s1.5 1.1 1.9 2 .6 3.1.6 3.1-.1 2.5 0 2.9 3 3.1 3 3.1m-20.2-70.7s1 6.5 1 7-.2 3.9.8 5 3.1 1.8 3.6 1.8 1.1.1 2.1 0 1.5.2 2.2.1c.8-.2 2.8-.4 3.4-.4h2.2"/><path stroke="#27AAE1" stroke-width="4" d="M122.4 240.1l9.7 9.7-11.6 8.4m11.6-8.4s-28.5-1.8-42.9-19.6"/></g></svg>