<svg version="1" xmlns="http://www.w3.org/2000/svg" width="432" height="360"><path d="M188.2 200.9s-19.1 25.5-6.6 41.1c0 0-9.7-6.3-9.1-16.6s5.6-17.8 5.6-17.8 4.8-6.3 10.1-6.7zm-31.3 129.6l-12 .4-15.5-3.4-13.1-6.8 3.2-2.6s7.9 5.7 12.1 6c4.2.2 10.6.5 10.6.5s-4.8-9.2-1.6-23.7 13.1-43.3 13.1-43.3l9.9-17.4 3.7 1.6s-18.6 42.7-18.8 61.3c-.1 18.6 8.4 27.4 8.4 27.4zm-62.4 13.7l17.4-20.5c22.6 23.7 74.8 16.4 74.8 16.4l.9 5.4-4 .7s-27.6.9-28.4 1.4c-.7.5-9.4-1.8-18.7-3.9-9.4-2.1-21.4-10.6-21.4-10.6l-4.1 9 4.1-10v1.1l4.2 3.7s-1.2 4.8-2.2 5.2c-.9.3-5.7 1.1-6.4 1.3l-1.4 4.7-14.8-3.9z" fill="#27AAE1"/><g fill="none" stroke="#000" stroke-width="3" stroke-miterlimit="10"><ellipse transform="rotate(-79.432 186.653 221.152)" cx="186.6" cy="221.1" rx="21.2" ry="13.8"/><path d="M179.9 288.8c-2.6 13.5-5 25.8-5 25.8s-26.8.5-34.4-9.3c0 0 5.2-40.4 22.6-65.4 0 0 16.6 6.2 23.6 13.6 0 0-1.9 9.7-4.1 21.4"/><path d="M174.9 314.5l14 30.3s-46.3 10.7-73.8-13.1l3.5-8.3s29.6 14.6 51.9 3m-30.1-21.2s-4.6 16.9 8.6 25.7"/><path d="M118.5 323.4l-4.9-3.2-17.9 24.9 14.1 3.4 6.4-14.8m.9-12.6l3.3-3.1s9.6 7.7 23.2 7.5m-32.3 19.6l7.2-2.7 2.4-6.3m55.2-97.5l-2.9 5.8 7.2 4 2.4-6.4m-7.2 11.4s5.2 19.9 9.2 24.7c0 0 11-3 19.3-14.8l4.5 2.4s-6.1 26-33.1 23.9c0 0-11.4-13.6-12.1-28.2m21.5 16.7l-9.3 11.5m28.6-26.3l-.9-9.9 2.4-1.4 3.5-10.6 3.7 1.2s1.6 7.8 1.2 11.9c-.3 4.1-5.4 10.8-5.4 10.8"/><path d="M208.7 241.4h-3.2l-3.6 8.4h-2.4v11.7s-6.7 10.2-15.4 9.5m16.2-9.1l3 1.8m-3.2-58.5s-16.1-.2-20.2-3.3m21.9 6.3s-15.3 2.7-23.8-3m24.4 6.5s-19.6 3-26.8-3.5m67.9 26.7l12.7-5.3 3.3 13.9m-3.3-13.9s-12.5 25.7-34.3 32.3"/><ellipse cx="301.4" cy="168.7" rx="52.8" ry="54.2"/><path d="M287.2 108.3L275.4 75m28 30.8V50.5m17.3 55.3l7.7-33m-93.3 108.1l-33.2 11.7m30.7-28h-55.2m55.2-17.2l-33-7.8M318.3 233l11.7 33.2m-28-30.7v55.2m-17.2-55.2l-7.8 33m87.6-87.6l33.2 11.7m-30.7-28h55.2m-55.2-17.2l33-7.8M219.8 70l-8.9-10.6 12.4-7.2m-12.4 7.2s28.3 4.4 40.9 23.3m-64.6-72.4s-45.2 7.3-42.1 44.4 38.6 47.7 66.1 34.2c-.1 0-72-20.6-24-78.6zM91.7 85.2L78.4 89l-1.6-14.2M78.4 89s15.4-24.1 37.9-28"/><ellipse cx="64.4" cy="164.6" rx="52.8" ry="54.2"/><path d="M26.8 127.4l2.8-.8s1.5.6 2.2.8c.8.1 3.6.1 4.1-.4s1.6-1.4 2.2-1.4 2-.2 2.8 0 2.6-.3 3.6-.1c1 .2 4.9.5 5.9-.1s4-2 4-2h2.2s3.1 1.6 3.8 2 1.9 2.4 1.6 3c-.2.6-1 3.2-1 3.2l-.1 4.1 1.2.8 4-1.4 3.9-2.2 3.1-1.9 4.4-.4.9.9v2.1l-2.2 2.9.6 2 2.9 2.9.9 2 1.6 2.6v1.9h-9.6s-.6 2.6-.8 3.1-.2 3.4-.2 3.4-.8 2-1.8 2.2-2.9 0-2.9 0l-3.3.9s-1.4 1.6-1.4 2.2.5 1.4 1 2.5 1.9 2.9 1.2 3.4-1.6 1.8-2.9 1.5-3.1-.1-4.6-1.4-4-2.8-4-2.8-1.5-1.1-3.6-1-2-.2-2.9.5-.9 2-.9 2l.8 3.5s1.4 3.1 1.8 3.8 2.9 4.6 4.5 4.9c1.6.2 3.5-1.1 3.9 0s4.4 4.5 4.8 4.5 2.8-.5 2.8-1.1-.6-1.6-.1-3.1.7-3.2 1.6-3.8c.9-.5.1-.6 1.9-1.1s3.8-1.1 3.8-1.1 1.6-.2 2.8-.2 2.6.2 2.6.6.4 1.1.4 2.2 1.2 3.6 1.5 4 2.6 2.5 3.1 2.5 3.8 1.1 3.8 1.1l3.6 1 1.2 2.1v3.9l-.9 2-1.4 3.5-1.5 3.4s.1 2.5-.1 3.6 1.4.4-.5 2.5-3.1 3.4-3.5 4.1-2.6 3.5-2.6 3.5l-2.5 1.2-4 .8-2.6-.6-2.5-2.6s-2.1-2.1-1.9-4 .4-2.2.5-3 .2-1.9.1-4-.4-3.6-.4-3.6l-.5-1.8-2.9-1.4-.8-.4-3-2.1-.1-1.9-.6-2-.9-2.1-3.4-2.5-4-1.6-4.2-.4-6.1-1.4s.4 1.5-1.5-1-2.6-3.6-2.6-3.6-.9-4.5-.9-5.2-.8-3-.8-3h-1.9s-2.1-.2-2.3-.5-.9-2.2-.9-2.2l-2.1-4.4v-2.1s-3.2 0-3.2.4 1.6 2.6 0 3-2.5 1.9-3.1 1.1-2.8-3.9-2.8-3.9-1.7-3-1.7-3.6 1-8.1 1.4-8.2 4-1.9 4-1.9 1.8-2.2 1.2-2.5-3-3.7-3-3.7m97.3 17.1s-4.8 1.4-5.2 1.8-2.1 3.6-2.1 3.6l-3.4 4.6s-2.1 2.1-2.1 2.9v8.8l1.6 3.4s1.5 1.1 1.9 2 .6 3.1.6 3.1-.1 2.5 0 2.9 3 3.1 3 3.1m-20.2-70.7s1 6.5 1 7-.2 3.9.8 5 3.1 1.8 3.6 1.8 1.1.1 2.1 0 1.5.2 2.2.1c.8-.2 2.8-.4 3.4-.4h2.2m15.9 108l9.7 9.7-11.6 8.4m11.6-8.4s-28.5-1.8-42.9-19.6"/></g><path opacity=".03" fill="none" stroke="#27AAE1" stroke-width="18" stroke-miterlimit="10" d="M170.3 199.7c9.3 1.6 18.6 3.1 27.8 4.7-14.4.2-28.7 2.4-42.4 6.5 12.8 1.9 25.8 2.7 38.8 2.2-12.7.7-25.4 1.5-38.1 2.2 11.6.8 23.3 1.7 34.9 2.5-13.1 3.2-26.5 5.6-39.9 7.3 16.2-.6 32.5-.2 48.7 1.1-18.4 4-36.8 8.1-55.2 12.1 16.4-.7 32.8-.1 49.1 1.8l-58.2 4.5c20.4 1.2 40.9 2.3 61.3 3.5-21.6 3-43.3 6-64.9 9 21.6.7 43.1 1.3 64.7 2l-61.5 4.5c-3 .2-6.4.7-8 3.2 15.7.7 31.4 1.3 47.1 2-14.4.4-28.7 2.4-42.7 5.9 15.7 1.7 31.4 4 46.9 6.9-21.3.7-42.5 3.3-63.3 7.7 20.3 2.7 40.7 4.7 61.2 6.1-16.8 1.1-33.7 2.3-50.5 3.4-5.7.4-11.6.8-16.4 3.9 17 3.5 34.3 5.8 51.6 6.7-19.5.4-39 2-58.3 4.7 29.4.6 58.8 1.2 88.1 1.8-29.1 1.3-58.2 4.2-87 8.6 30.3-.1 60.6-.2 90.9-.2L82.5 338.4l125.4-1.5c-23.3 3.7-46.9 5.5-70.5 5.5-11.4 0-23.2-.4-33.7 4.2 31.2 1.2 62.5-1.5 93-8.1"/></svg>