<svg version="1" xmlns="http://www.w3.org/2000/svg" width="288" height="288"><path fill="none" stroke="#000" stroke-width="2" stroke-miterlimit="10" d="M78 201l21-27.8-2.2-18 2.2-21.4 5-36.8 18.5-23.5h5.3L137 82l2.8 24.5 4.2-4.7 5.5-.6 3.5 6-3.2 36.8-5.8 20.9-19 17.6-12 30.3"/><path fill="none" stroke="#000" stroke-width="2" stroke-linejoin="bevel" stroke-miterlimit="10" d="M130.7 76.2l3.8-2.7h7.3l4.7 24.7 3.7-6.7 6.3-.3 3 9-1.5 39-8 27 12 49.6m-31.3-38v11l-4.2 27M107.4 92.7l-3.4 35.1m7.5-40.4v35.4m5.3-42.1l4 36.3m2-42.8l7.4 36"/><path fill="none" stroke="#000" stroke-width="2" stroke-linejoin="bevel" stroke-miterlimit="10" d="M139.8 106.5l-1.8 21.3-2.5 6.4m11-36l-2.5 3.6"/></svg>