<svg version="1" xmlns="http://www.w3.org/2000/svg" width="432" height="432"><path fill="none" stroke="#000" stroke-width="4" stroke-miterlimit="10" d="M55.5 184s24.5 18.5 65.5-9c0 0 32.5 26.1 63.5-14.4s4-64.1 4-64.1m9.5 37.6s30.6 30.2 56.3-17.8c0 0 26.3 6 30-14 3.7-20-12.1-26.7-12.1-26.7M64.3 132.3s27.3-50.7 74.7-1.7"/><path fill="none" stroke="#000" stroke-width="4" stroke-miterlimit="10" d="M123.7 117.6s9-20 23.6-18.6c14.7 1.3 22.3 14 22.3 14M201 75.6s1.3-12.3 11.7-11.9c10.3.3 18 6.8 18.3 11.9"/><path fill="none" stroke="#000" stroke-width="4" stroke-miterlimit="10" d="M221.6 65.6s3.6-16.4 19.9-14.1 16 14.1 16 14.1m-70.8 91.9L248.2 258s-7.8 15.5-6 27 42.3 75.5 64.3 89.5c0 0 8.6 4.6 14-1.2 0 0 7.5 9.9 17.7 3.4 0 0 3 4 9.5 1.4s3.8-14.6 3.8-14.6 3.8 1.2 7.5-1 17-15.2-19.2-66.8m-96.6-163.4l49.8 99.4s25-8.5 38.8 5.8S357 278 364.5 283c0 0 6.3 10.8-5.5 15.2s-24.2.8-38.2-27.5m-45.2 54.5s36.9 5.5 58.6-29.2m-13.7 77.2l-28-48.6m32.5-16.9l26.5 55.8m-13.3 13.2s-21-50.3-28.9-57.6"/></svg>