<svg version="1" xmlns="http://www.w3.org/2000/svg" width="432" height="432"><g fill="#27AAE1"><path d="M224.2 146.9l-26.5 48.5-2.1 14.5 35-54.1-.6-8.2-6.7-.7m-103.1-38.3s17.7 19.3 4 35.2c0 0 9.7-3.6 8.7-17.6-1.1-13.9-12.7-17.6-12.7-17.6zm12.7 38.1l5.5 54.5-13.9 6.8 19.6-2.9-4.9-59.2z"/><path d="M138.4 206.2l15.1 97 10.8 8 6-3.6-14.5-4.8-11.7-97.7zm-11.8 1.5l11.8 98-9.6 10.3 8 3 4.2-13.7-8.4-97.9zm13.2-52.7l16.2 15.3 9.2 34.5-1.6 1.2-11.1-33.3-11.5-9.9z"/></g><g fill="none" stroke="#000" stroke-width="2" stroke-miterlimit="10"><path d="M216.6 141.2l-4.3.1c-6.6.1-12.1-5.2-12.2-11.8l-.2-16.7c-.1-6.6 5.2-12.1 11.8-12.2l4.3-.1c6.6-.1 12.1 5.2 12.2 11.8l.2 16.7c.2 6.6-5.2 12.1-11.8 12.2zm11.7-24.9s5.9 4.1.1 7"/><path d="M200 122.9s3.3 1 7.2-.1 5.8-2.9 10.7-1.1 10.5.2 10.5.2M199 147.4s21.3-1.8 31 .2c0 0 12.7 86.7 12.3 117 0 0-22.1 11.6-54.2.8 0 0 13.6-84.9 10.9-118z"/><path d="M223.3 146.9c4.9-.5 16.5-7.1 16.5-7.1-1.8-3.7-5.9-39.7-9.3-44.1s-16.8-.4-16.8-.4-17.3-3.3-19 6.8c-1.7 10-4.4 32.6-6.9 36.3 0 0 2.4 7 11.9 8.9"/><path d="M210.5 141.2l.7 5.6 8.1.1v-6.1m2.7 6.1s-20.7 34.9-24.6 45.2l-1.7 16.5 34.9-56.8-.6-4.1c0-.1-5.2-.9-8-.8z"/><path d="M230 147.6s20.9 26 32.8 44.9l-9.7 21.3-20.1-44.3m27 29.3l8.7 6.3 1.3 10.8s-1.2-1.1-2.9-2.5m-6.5-5.7c-1.9-1.6-3.3-2.9-3.3-2.9m-1.6 3.5l3.2 5.4 2.7-.7s-.2-1.1-.4-2.3m-39.8 59.1l3.1 25.3 5.4-.1 1.8-26.8m-31.1.4l3.7 26.7h6.2l.9-25.2m-.9 25.2l-21.9 2.8 8.5 10.2 13.4-10.4zm14-.2l-1.7 4.5 22 8 5-11.4-19.9-1.2M199 148.1s-19.3 26.6-30.7 45.8l10.3 21L199 170"/><path d="M171.4 200.1l-8.5 6.5-1 10.8s.6-.5 1.4-1.3m6.7-6.2c2.3-2.2 4.3-3.9 4.3-3.9m1.7 3.4l-3 5.5-2.7-.6.7-5.3"/><ellipse transform="rotate(-8.069 121.65 126.31)" cx="121.6" cy="126.3" rx="11.1" ry="17.8"/><path d="M126.7 110s-8.6 2.9-13.4 1.9m15.1.4c-.7.6-8.9 3.8-16.5 2.7m17.8-.2s-8.5 5.2-18.2 3.1m16 24.6l.7 5-6.7 1-.7-4.9"/><path d="M139.2 145.9l-29.6 4.2 11.3 58.3 23.2-3.3zm.6 0l21.5 23.5 5.8 33.9-3.5 2.7-10.7-33.3-12.3-10.3m12.3 10.3l8.4-3.3"/><path d="M144.1 205.1l11.9 98.1-4.8.7-18.7-97.2 8.5 98.6-5.5.8-14.6-97.7m35.1 94.8l15.3 4.1-8.5 5.8-11.6-9.2"/><path d="M141 305.3l-6.2 11.7-10-3.2 10.7-7.7m28.7-88.7l-1.9-8 6.2-3.5 2 6.6zm-54.6-67.3l-8.2 29.1-.4 34.4 3.8 2.1 5.5-34.6 2.9-12.1m-2.9 12.1l-8.9-1.9M106 227l.6-8.2-6.6-2.4-1 6.7z"/><ellipse transform="rotate(-79.508 312.548 125.947)" cx="312.6" cy="125.9" rx="17.8" ry="11.1"/><path d="M306 141.8l-1 5 6.7 1.3.9-4.8"/><path d="M294.2 144.8l29.4 5.5-13.8 57.7-23-4.3zm-.6 0l-22.5 22.5-7.3 33.7 3.4 2.8 12.2-32.8 12.7-9.8m-12.7 9.8l-8.3-3.7"/><path d="M286.8 203.7l-16.1 97.5 4.8.9 22.8-96.2-12.6 98.1 5.4 1 18.7-97m-39.1 93.2l-15.4 3.5 8.3 6.1 11.9-8.7"/><path d="M285.7 304l5.6 12 10.1-2.9-10.3-8.1m-24.9-89.8l2.2-8-6-3.7-2.3 6.5zm57.4-64.9l6.9 29.3-1 34.4-3.9 2-4-34.8-2.4-12.2m2.4 12.2l8.9-1.6m-6.6 47.7l-.3-8.3 6.8-2.2.7 6.9z"/><ellipse transform="rotate(-64.811 402.05 161.002)" cx="402" cy="161" rx="17.8" ry="11.1"/><path d="M391.6 174.7l-2.1 4.6 6.1 2.9 2.1-4.4"/><path d="M379.5 174.6l27 12.7-27.9 52.4-21.2-10zm0 0l-28.1 15.9-18.9 23.7 3 5.3 23-23.4 14.8-6.1m-14.8 6.1l-7.1-5.6m6 39.2l-40.3 90.2 4.4 2.1 46.5-87.3-37.1 91.7 5 2.4 42.7-89.1"/><path d="M317.1 319.9l-15.8-.5 6.5 8 13.7-5.4m9.4 4.4l2.4 13 10.5-.2-7.9-10.4m70.6-141.5l-.7 30.2-9.7 33-4.3.9 4.9-34.7.8-12.4m-.8 12.4l9.1.8m-73.3-3.3l-12.7 4.4.7 5.7s1.5-.4 3.5-.9m7.6-1.8c.2-.1.4-.1.4-.1l-.8 5.1 3 .5 1.3-7.6"/><path d="M391.8 251.6l-4.2 5.1 1.8 1.6 2.7-.8-.1 9 6.9-5.8-2.8-10.2"/><ellipse transform="rotate(-22.916 30.141 157.607)" cx="30.1" cy="157.6" rx="11.1" ry="17.8"/><path d="M40 171.7l2 4.7-6.3 2.7-1.9-4.6"/><path d="M52.2 172.1l-27.6 11.7 25.8 53.4 21.6-9.1z"/><path d="M52.2 172.1l27.4 17 17.9 24.5-3.2 5.1-22.1-24.3-14.5-6.7m14.5 6.7l7.4-5.3m-7.6 39l36.7 91.7-4.4 1.9-43.1-89.1 33.5 93.1-5.1 2.2-39.2-90.7m58.3 82.6l15.8.1-6.8 7.7-13.4-5.9"/><path d="M94.7 325.7l-3 12.9-10.4-.6 8.3-10.1m-65-144.1l-.4 30.1 8.3 33.4 4.3 1-3.6-34.8L33 201m.2 12.5l-9 .4m73.3-.3l12.5 4.9-.9 5.7s-1.5-.5-3.5-1m-7.5-2.3c-.2-.1-.4-.1-.4-.1l.6 5.2-3 .4-1-7.6m-57.5 29.7l4 5.3-1.9 1.5-2.7-.9-.2 9.1-6.6-6.2 3.1-10"/></g></svg>