<svg version="1" xmlns="http://www.w3.org/2000/svg" width="432" height="432"><g fill="#E52125"><path d="M262.8 192.5c-11.9-18.9-32.8-44.9-32.8-44.9-1.8-.4-4-.6-6.3-.8 5.1-.8 16.1-7 16.1-7-1.8-3.7-5.9-39.7-9.3-44.1-3.4-4.4-16.8-.4-16.8-.4s-17.3-3.3-19 6.8c-1.7 10-4.4 32.6-6.9 36.3 0 0 2.4 7 11.9 8.9h.8c-.9.1-1.5.1-1.5.1.9 10.9 0 27.4-1.6 44.6v.1l-1.7 16.5.1-.1c-3.3 29.6-7.7 56.9-7.7 56.9 4.4 1.5 8.5 2.5 12.5 3.2l3.7 26.7h6.2l.9-25.2-2.8-.4c5 .4 9.5.3 13.6 0l-.7.1 3.1 25.3-1.7 4.5 22 8 5-11.4L230 295l1.8-26.8-.4.1c7-1.6 11-3.7 11-3.7.3-20.6-5.5-67.2-9.2-94.9l20 44.1 9.6-21.3z"/><path d="M257.3 204.8s1.4 1.3 3.3 2.9l-3.3-2.9zm-60.2 103.5l13.4-10.4v-2.6l-21.9 2.8zM199 170v-21.9s-19.3 26.6-30.7 45.8l3.1 6.2-8.5 6.5-.2 2.6-.4.2.2 1-.6 7s.6-.5 1.4-1.3l.4-.8.5 2.1 6.3-4.9-2-6.6h-.1l2.9-5.8 2.9 5.9c-.2.2-2.1 1.8-4.3 3.9l4.3-3.9 1.6 3.4-4.8-.4-.7 5.3 2.7.6 2.9-5.4 2.7 5.4L199 170z"/><path d="M152.9 172.7l10.7 33.3 3.5-2.7-5.8-33.9-21.5-23.5.8 16.5z"/><path d="M144.1 205.1l-4.9-59.2-11 1.6-.7-5c4-3 6.2-10 5.1-17.8-.5-3.7-1.7-7-3.3-9.7.3-.2.5-.3.5-.3l-.6.1c-.5-.8-1-1.5-1.6-2.2.4-.2.7-.3.8-.4l-1 .2c-.7-.8-1.4-1.4-2.2-2l1.5-.5-1.8.3c-1.8-1.3-3.8-1.9-5.8-1.6-2 .3-3.7 1.4-5.1 3.1l-.7.1c.2 0 .4.1.5.1-.7.9-1.3 1.9-1.8 3h-.1.1c-1.5 3.5-2.1 8-1.4 12.9 1.1 8 5.4 14.2 10.2 15.8l.7 4.8-11.9 1.7 11.3 58.3 14.6 97.7-10.7 7.7 10 3.2 6.2-11.7-8.5-98.6 18.7 97.2 11.6 9.2 8.5-5.8-15.3-4.1-11.9-98.1z"/><path d="M101 213.6l3.8 2.1 5.5-34.6 2.9-12.1-3.6-18.9-8.2 29.1zm-2 9.5l7 3.9.3-3.6c1.7.4 2.8.8 2.8.8l.9-5.7-12.5-4.9 2.5 2.9-1 6.6zM279.4 171l12.7-9.8 1.5-16.4-22.5 22.5-7.3 33.7 3.4 2.8z"/><path d="M291.1 305l18.7-97 13.8-57.7-11.9-2.2.9-4.8h-.2c4.9-1.3 9.5-7.4 11-15.3 1.8-9.7-1.6-18.4-7.7-19.5-6-1.1-12.4 5.8-14.2 15.5-1.4 7.7.5 14.9 4.4 18l-1 5 2.9.6-13.7-2.6-7.4 58.9-16.1 97.5-15.4 3.5 8.3 6.1 11.9-8.7 22.8-96.2-12.5 97.9 5.6 12 10.1-2.9-10.3-8.1zm-24.3-92.1l.3.5c1.7 1.4 2.9 2.5 2.9 2.5l-1.3-10.8-8.7-6.3 2.4 4.8-2.3 6.4.5.5-4.9-2.2 3.2 5.4 2.7-.7s-.2-.9-.4-2l5 4.2.6-2.3z"/><path d="M321.6 181.2l4 34.8 3.9-2 1-34.4-6.9-29.3-4.4 18.7zm88-36.3c-5.5-2.6-13.4 2.5-17.6 11.4-3.3 7.1-3.3 14.4-.4 18.4l-2.1 4.6.7.3-10.7-5-22.1 55.1-40.3 90.2-15.8-.5 6.5 8 13.7-5.4 46.5-87.3-37.1 91.7 2.4 13 10.5-.2-7.9-10.4 42.7-89.1 27.9-52.4-10.9-5.1 2.1-4.3c5.1-.1 11-4.8 14.4-12.1 4.2-8.9 3-18.3-2.5-20.9z"/><path d="M332.5 214.2l3 5.3 23-23.4 14.8-6.1 6.2-15.4-28.1 15.9zm64.2 2.5l-4.9 34.7 4.3-.9 9.7-33 .7-30.2-9 17z"/><path d="M320.5 224.3s1.4-.4 3.3-.8l.1 3.8 7.2-3.6-.7-6.9-.4.1 2.5-2.7-12.7 4.4.7 5.7zm11.5-2.8l-.8 5.1 3 .5 1.3-7.6-3.9 2.1c.2-.1.4-.1.4-.1zm55.6 35.2l1.8 1.6 2.7-.8-.1 9 6.9-5.8-2.8-10.2-4.3 1.1zM72 228.1l-14.3-40.4 14.5 6.7 22.1 24.3 3.2-5.1-17.9-24.5-27.4-17-15.3 6.5 5.1-2.2-2-4.7c3.1-3.9 3.4-11.2.4-18.4-3.8-9.1-11.5-14.5-17.2-12.1-5.6 2.4-7.1 11.7-3.3 20.7 3.1 7.4 8.9 12.4 13.9 12.6l1.9 4.5-11.1 4.7-.4 30.1 8.3 33.4 4.3 1-3.6-34.8-.2-12.2 17.4 36 39.2 90.7-8.3 10.1 10.4.6 3-12.9-33.5-93.1 43.1 89.1 13.4 5.9 6.8-7.7-15.8-.1L72 228.1z"/><path d="M94.3 218.8l1 7.6 3-.4-.6-5.2s.2 0 .4.1l-3.8-2.1zM36 263.5l.2-9.1 2.7.9 1.9-1.5-4-5.3-4.3-1.2-3.1 10z"/></g></svg>