<svg version="1" xmlns="http://www.w3.org/2000/svg" width="576" height="576"><path fill="none" stroke="#000" stroke-width="3" stroke-miterlimit="10" d="M284.2 56.5h.2c4.6-.1 8 0 12.5.2m7.8 1c14.3 1.1 28.2 3.6 41.7 7.3m5.4 1.6c2.9.9 5.8 1.8 8.7 2.9m6.5 2.3c9.8 3.8 19.2 8.2 28.2 13.3m5 2.8c2.7 1.6 5.5 3.3 8.1 5m4.8 3.3c59.6 41 99.3 110.4 100.4 189.7 1.2 82.3-39.6 155.2-102 197.3m-6.3 4.1c-2.7 1.7-5.3 3.3-8.1 4.8m-5.7 3.1c-7.4 3.9-15 7.4-22.9 10.5m-5.9 2.3c-4.2 1.5-8.5 2.9-12.8 4.2m-5.9 1.6c-10.6 2.8-21.4 4.8-32.5 6m-7 .6c-3.2.2-6.3.4-9.5.5m-6.3.1c-14.2.1-28.2-1.2-41.7-3.8m-6.8-1.4c-3.1-.7-6.2-1.4-9.2-2.3m-5.9-1.6c-12.2-3.6-24.1-8.3-35.4-13.9m-5.9-3c-4.1-2.2-8.1-4.5-12.1-7m-5.9-3.8C104.1 443.5 62.9 373 61.8 292.2c-1.1-81.5 38.5-153.8 99.6-196m4.8-3.2c2.7-1.8 5.5-3.5 8.3-5.2m5.2-2.9c9.1-5.1 18.5-9.5 28.3-13.2m6.1-2.3c2.9-1 5.9-2 8.9-2.9m5.6-1.6c15.5-4.2 31.7-6.8 48.4-7.6"/><path fill="none" stroke="#000" stroke-width="3" stroke-miterlimit="10" d="M94.1 169.3s10.8 14.6 13 15.6c2.2 1-5.2 10.8-5.2 10.8s-15.4 7.7-17 8.3c-1.6.6-5.4 32.7-5.4 35.4 0 2.7 7.7 15.4 7.7 15.4s9.3 13.3 12 16.4c2.7 3.2 6.4-3.3 13.3-5 6.9-1.7-.2-11.2-.2-12.8 0-1.6 13.9-1.8 13.9-1.8l.1 9.1 9.4 18.6s3.3 8 3.9 9.6c.6 1.6 9.7 2.1 9.7 2.1l8-.1s3.3 9.5 3.4 12.7 4.1 22.4 4.1 22.4 3.3 4.8 11.5 15.4c8.2 10.6 6.5 4.2 6.5 4.2l26.3 5.5 18.2 1.4 17.2 6.7 14.6 10.5 4.1 9 2.5 8.5.6 8 13 8.9 3.2 1.6 12.4 5.7 2.2 7.5s1.2 6.4 1.8 15.5.2 13.9-.3 17.1c-.5 3.2-1 4.8-2 12.9-1 8 8.3 17 8.3 17l10.9 11.1 11.3 2.5 15.2-6.4 12.5-2.6s9.5-11.9 11-15.1c1.6-3.2 6.8-8.7 14.7-17.9 7.9-9.2 1-5.9 2-10.7 1-4.8.3-15.5.3-15.5l6.2-14.5 5.7-15.1 3.6-8.6-.2-16.6-5.5-9-15.6-4.1s-14-4.6-16.1-4.6c-2.1 0-12.4-8.9-13.5-10.5-1.1-1.6-6.6-12.2-6.7-17-.1-4.8-1.7-8-1.7-9.6s-6.5-2.6-11.3-2.5c-4.8.1-11.8 1.2-11.8 1.2s-8.5 2.8-16 5-4.2 2.7-8 4.9c-3.7 2.2-4.7 9.7-6.7 16.2-2.1 6.5.7 10.7.7 13.4 0 2.7-10.1 5-11.7 5-1.6 0-18.9-14.2-20.6-19-1.7-4.8-9.6 1.2-16.6.2-7-1-17.9-18-19.6-20.6-1.6-2.7-7.7-16-7.7-16l-3.4-14.8s-.1-5.5 3.6-8.7c3.7-3.3 3.2-1.7 12.3-2.3s15.6 4.1 15.6 4.1 10.8 6.3 17.3 11.5c6.5 5.3 14 4.6 19.9 5.6s9.6-4.4 12.5-6.6c2.9-2.2-3.1-9.6-5.3-14.4-2.2-4.8-4.4-8-4.4-10.6 0-2.7 5.8-9.7 5.8-9.7l13.9-3.9s8 1 12.3-.2 7.4-9.7 7.4-9.7.4-12.3.9-14.5 3-13.4 3-13.4l8.6-.1 13.4-.2 11.2-.2 8-.1-.1-8-7.1-11.1-3.9-8.5-12.5-12.1-2.8-8.5 9.5-12.4-.1-9.1-3.8-3.7-18.7 1.9-13.3 8.2-16.5 9.9-16.9 6.1-5-3.1.3-17.7s3.1-11.3 4.1-14-4.4-11.2-7.1-12.9c-2.7-1.7-16.2-8.2-16.2-8.2l-9.6.1s-12.8 6.1-17 8.6c-4.2 2.6-20.9 1.5-25.2.6-4.3-1-12.3 1.7-15.5.7-3.2-1-9.1.1-11.8.2-2.7 0-7.4 3.9-9.6 6-2.1 2.2-14.4 2.3-17.6 1.9-3.2-.5-9.7-3.1-9.7-3.1l-11.7 3.4-.9-2.2M508.1 238s-15.7 4.7-17.3 6.3c-1.6 1.6-8.9 15.6-8.9 15.6l-14.2 20s-9 9.2-8.9 12.4.3 18.7.3 18.7l.3 18.7 7.2 14.4s6.5 4.7 8.1 8.5 2.9 13.3 2.9 13.3-.4 10.7.2 12.3 12.9 13.1 12.9 13.1m-91-302.1s4.7 28.9 4.7 31c0 2.1-.8 16.6 3.5 21.4 4.3 4.8 13.5 7.3 15.6 7.3 2.1 0 4.8.5 9.1-.1s6.4.9 9.6.1 11.7-2 14.4-2c2.7 0 9.4.1 9.4.1"/></svg>