<svg version="1" xmlns="http://www.w3.org/2000/svg" width="1697" height="1139"><path fill="none" stroke="#000" stroke-width="4" stroke-miterlimit="10" d="M1338.2 714l4-46.5-65.2-55.7.1-21.5-2.3-32.9-6.8-12.5-11.7-2.6-21.9-13.9v-12.8l14.5-95.1.5-11.8-4.5-10.5-37.6-45.5-7.1-13.9 6.5-6.7 11.6-37.9-24.3-33.1-10.7-9.1-6.9-17.6-17.9-19.3 1.4-32-37.9-79.9-1.1-14.1-5.2-5.7-10.1-17.6-22.6-17.1-109.4-12.4-40.9 9.9-31.9-14.8-77.3-10.1-57.2 7.9-64.9-10L649.6 42l-11 11.1-70-3.3L476 65.3l-44.4 33.8-31 65 9.9 60.8-7.9 15.5L405 268l-14 62.9-2.8 37.1-6.6 14.4-4.2 27-3.4 85.4-19.4 80.8-14.5 21.1 4.1 43.2-9.5 47.4-3.9 8.3 1 10.1-2.9 60.9-10.6 19.8-6 27.6-49.7 99.7-5.2 34.1-29.7 70.9 12.3 37.4 37.2 45.3 80.4-.5 18 3.1 12.7 9.9 29 5.8 52.4-7.4 110.5-27 50.2 9.4 53.2 8.2 59.3 11.9 100.2-11.8 16.1-.4 66.5-14.7 23.7 5h25l48 7 28-1 35 7 42-1 48-8 121 2 83.1-8.9 21.9-83.1-34-76-21-64 3.6-48.4-8.2-40.8-6.4-53.4 2.8-10.3z"/><path fill="#FFF" stroke="#000" stroke-width="4" stroke-miterlimit="10" d="M1334.1 378.7c-4.5.7-2.9 3.8-6.6 7.9-3.7 4-1.2 3.6-3.7 10.8-2.5 7.2 3.7 4.5 5.8 7.2 2.1 2.7 3.1 3.6 6.2 7.2s9.2 4 9.2 4h11.9s3.3-1.1 9-4.9c5.8-3.8 0-.2 2.1-3.4 2.1-3.1 0-9.4 0-9.4l-4.5-11.7-7.2-7.2H1345c0-.1-6.4-1.2-10.9-.5zm-69.9-35.9c-3.8.8-5.1 4.1-7.6 6.8s0 12.2 0 17.7v8.2c0 2.2 11.4 16.3 11.4 16.3h12.7l18.3-2.7 5.1-6c5.1-6 0-16.3 0-16.3l-3.8-11.4-5.1-12.2h-14.8c0-.1-12.4-1.2-16.2-.4zm175.9 97c-3.8.6-2.4 3.2-5.5 6.6s-1 3-3.1 9 3.1 3.8 4.8 6c1.7 2.3 2.6 3 5.1 6s7.7 3.4 7.7 3.4h10s2.7-.9 7.6-4.1c4.8-3.2 0-.2 1.7-2.8 1.7-2.6 0-7.9 0-7.9l-3.8-9.8-6-6h-9.4c0-.1-5.3-1-9.1-.4zm-48.4-27c-2.5.5-3.4 2.7-5 4.5-1.7 1.8 0 8.1 0 11.7v5.4c0 1.5 7.6 10.8 7.6 10.8h8.4l12.1-1.8 3.4-3.9c3.4-3.9 0-10.8 0-10.8l-2.5-7.5-3.4-8.1h-9.7c-.1-.1-8.4-.8-10.9-.3z"/></svg>