<svg version="1" xmlns="http://www.w3.org/2000/svg" width="432" height="432"><path d="M90.5 227.2l40.8 94.8-4.5 2.1-47.5-91.9 37.6 96.4-5.3 2.4-43.4-93.7m-27.5-24.9l.2 2h.4L59 247.2l1.8 12.1 7.2 2.4-4.6-11.6 3.7 1.5 1.7-2.5-5.4-3.9-13.2-32.5-.1-1-1-11.3-9.4-18.2 1.1 30.2z"/><path d="M109.3 242.9l2.9-6.9-8-9.5-13.4-35.8-22.4-21-.2-.4-10.6 4.8-2.1-4.8c3.2-4.2 3.3-11.9-.1-19.3-4.3-9.4-12.4-14.8-18.3-12.1-5.8 2.7-7.1 12.4-2.9 21.7 3.5 7.6 9.5 12.6 14.8 12.8l2.2 4.6-11.5 5.2 28.5 55.1 22.3-10.1-14.9-38.7 8.5 8.9 15.8 31.2-.6 6.7 3 .3 1.2-3.7 5.8 11zm22 79.1l-4.5 2.1 14.2 5.8 6.8-8.3zm-28.1 19.8l10.9.3 2.8-13.5-5.3 2.4zm128-145.9l2.6-43.9-.1 2.2 4.1 11.8 1.4 35.2-3.3 5.8 2.6 1.6 2.7-2.9.7 12.5 5.6-5.2-3.4-11.9 2.6-38.5-11.8-28.6v-.4h-11.6v-5.3h-.2c4.7-2.4 8.1-9.5 8.1-17.8 0-10.3-5.2-18.7-11.7-18.7-3 0-5.7 1.8-7.8 4.7l-.8 1.7-3.7-.2-26.1 18.7 22.8 26.6 2.7 52.6.7 103.9-12.2 6.5 9.9 4.8 8.2-11.3 5.7-103.9 5.2 103.9 10.6 11.3 9.7-4.7-15.2-6.6 2-103.9zm-24-91.2l1.2-.1c-.4 1.9-.6 3.9-.6 5.9 0 8.4 3.5 15.6 8.3 17.9v5.2h-9.3l-13.9-17.3 14.3-11.6zm60.2 95.9h-.1l-4.5 11.5 5 5.7 1.9-12.3 2.4 3.1 2.8-1.3-2.7-6.1 4.9-34.7 5.2-11.2 1-20.4-14.7 27.4z"/><path d="M323.2 167.8l-8.8-29.6v-.2l-10.2-1c0-.2.2-2.8.3-2.9 4.8-1.5 9.5-7.1 11.6-14.5 2.9-9.9.2-19.3-6-21.1-6.2-1.8-13.5 4.8-16.3 14.6-2.3 7.8-1.1 15.3 2.6 19l-.2-.2c-.1 1.4-.4 4.1-.4 4.1h.2l-12.7-1.3-3 61.9-9.6 102.8-12.7 5.1 9.3 5.8 9.2-10.4L292.4 198l-5.1 103.2 9.4 12.2 10-3.7-14.4-8 12.3-102.5L312 153l-.8 5.2 2.9 12-2.1 35-3.9 5.5 2.5 1.7 2.9-2.5-.5 12.4 6-4.6-2.2-12.1 6.4-37.8zm-14.3 151.8l12 7.7 10.4-6.6-5.1-2.4zm24.3 13.8l12.1 5.7 5.3-11.6-5.2-2zm44.9-102.3l21.5-29.7-3.4-31.3-.2.7-10.1-2 1.6-7.6c2.7-1.8 5.2-4.6 7.1-8 4.5-8.2 4-17.1-1.3-20-5.2-2.9-13.1 1.4-17.6 9.6-4.5 8.2-4 17.1 1.3 20 .3.1.5.2.8.4l-.3 4-12.5-2.4-.3 1.6-14.9 25.9s3.4 17.3 4.5 25.2l-.6 2.8c.4.2.9.5 1.4.7l-.1.6-.7-.4-28.2 96.8 5.2 1.9 33.4-92.9h1s.1.2.2.5l-.8-.4-19.8 98.1 5.3 2s18.4-63.3 25.8-88.6c.5-1.7 1-3.3 1.4-4.7l.1-2.6-.4-.2v-.2l.6.2zm-21.2-36.8l3.1-5.7-2.8 13.7-.3-8zm33.6 4.8l-5.3 9.5c1.5-5.4 3.2-11.3 4.8-16.7l.5 7.2zM146.7 317.9l14.2.8 5.9-10.8-5.6.4zm27.9.1l13.4-.9-1.1-12.7-5.5.8zm-10.9-111.1l4.2-36.4-18.3-25.6.2.7-9.8 3.2-2.4-7.4c1.4-2.9 2.3-6.5 2.3-10.5-.1-9.3-4.9-16.9-10.9-16.8-6 0-10.8 7.6-10.7 17 .1 9.3 4.9 16.9 10.9 16.8.3 0 .6 0 .9-.1l1.7 3.7-12.1 4 .5 1.5-.3 29.9s11.5 13.4 16.3 19.8l.9 2.7c.5 0 1 0 1.6-.1l.2.6h-.8l22.9 98.2 5.5-.9-16.5-97.4.3-.2.5-.3s.2.1.4.3h-1l30.8 95.2 5.6-.9s-15-64.2-20.9-89.9c-.4-1.8-.8-3.4-1.1-4.7l-1.2-2.3h-.5l-.1-.2.9.1zm-36.5-21.7v-6.5l4.3 13.3-4.3-6.8zm31.6-12.3v10.8c-1.3-5.5-2.7-11.4-4-16.9l4 6.1z"/></svg>