<svg version="1" xmlns="http://www.w3.org/2000/svg" width="432" height="432"><ellipse transform="rotate(-24.453 386.596 278.125)" fill="none" stroke="#000" stroke-width="2" stroke-miterlimit="10" cx="386.6" cy="278.1" rx="11.6" ry="18.6"/><path fill="none" stroke="#000" stroke-width="2" stroke-miterlimit="10" d="M376 263.7l-2.2-4.9 6.4-2.9 2.2 4.6"/><path fill="none" stroke="#000" stroke-width="2" stroke-miterlimit="10" d="M363.2 263.6l28.5-12.9-28.5-55.1-22.3 10.1zm28.5-12.9l-1.1-31.2-18.2-33.8-4.4 2 13.2 32.5 1.1 12.3"/><path fill="none" stroke="#000" stroke-width="2" stroke-miterlimit="10" d="M368.1 187.8l-5.5-4 1.7-2.5 3.7 1.5-4.6-11.6 7.2 2.4 1.8 12.2m8.8 34.4l9.4-.7m-27.2 44l-22.8-21.3-13.4-35.9 4.3-2 15.8 31.2 8.6 9"/><path fill="none" stroke="#000" stroke-width="2" stroke-miterlimit="10" d="M331.5 204.4l.6-6.8-3-.3-1.2 3.7-5.8-11-2.9 6.9 8 9.5m19.6 29.6l-6.5 6.9m.6-37.2l-40.8-94.8 4.5-2.1 47.5 91.9-37.6-96.4 5.3-2.4 43.4 93.7"/><path fill="none" stroke="#000" stroke-width="2" stroke-miterlimit="10" d="M300.1 110.9l-16.5.4 6.8-8.3 14.2 5.8m9.9-4.5l2.8-13.5 10.9.3-8.4 10.8m-97.3 228.4c.7-2.4 1.1-5.1 1.1-7.9 0-10.3-5.2-18.7-11.7-18.7-6.5 0-11.7 8.4-11.7 18.7 0 10.3 5.2 18.7 11.7 18.7 3 0 5.7-1.8 7.8-4.7"/><path fill="none" stroke="#000" stroke-width="2" stroke-miterlimit="10" d="M208.1 304.6v-5.3h7.2v5.2m-18.8-5.2H228l-3.2-62.3h-24.6z"/><path fill="none" stroke="#000" stroke-width="2" stroke-miterlimit="10" d="M223.6 299.3l15.5 19.3-14.3 11.6-11.6 1.2-.9 4.8 12.5.7 26.1-18.7-23.3-27.2m23.3 27.2l-11.8.4m-42.4-19.3l-12-29 2.6-38.6h4.9l1.4 35.2 4.1 11.8"/><path fill="none" stroke="#000" stroke-width="2" stroke-miterlimit="10" d="M192.1 231.8l3.4-5.9-2.6-1.6-2.7 2.9-.7-12.5-5.6 5.2 3.4 11.9m6.3 35.1l-8.9 3.4m15.5-33.3l2-103.9h5.1l5.2 103.9 5.7-103.9h5.9l.7 103.9m-22.6-103.9l-15.2-6.6 9.7-4.7 10.6 11.3m10.9 0l8.2-11.3 9.9 4.8-12.2 6.5"/><ellipse transform="rotate(-15.368 305.298 304.238)" fill="none" stroke="#000" stroke-width="2" stroke-miterlimit="10" cx="305.3" cy="304.2" rx="10.8" ry="16.9"/><path fill="none" stroke="#000" stroke-width="2" stroke-miterlimit="10" d="M295.7 292.3l-1-3.3m-16.8-56.9c5.9-1.5 16-3.8 22.2-3.5l14.9 54.7-30.5 8.6s-4.3-22.4-7.5-39.4"/><path fill="none" stroke="#000" stroke-width="2" stroke-miterlimit="10" d="M284.5 292.4L267.3 266l5.8-36.2 4.8.2-1.4 34 3.9 6.5m34.4 11.5l1.7-30.5s-12-15.3-16-21.5"/><path fill="none" stroke="#000" stroke-width="2" stroke-miterlimit="10" d="M308.9 260.5l.2-7.6-4.8-8.6m4.8 8.6l7.4-.6M299 227.8l-18.5-99.1-5.5.6 12.3 100.6-27.1-99-5.6.6 17.7 95.6"/><path fill="none" stroke="#000" stroke-width="2" stroke-miterlimit="10" d="M278 229.8l1.6-1.7-1.9-.9-5.4.1 1 2.3m3.2 34.4l-9.2 2m13-137.4l14.9-8.9-14.2-1.6-6.3 10.6m-14.7 2l7.3-12.5-13.4.4.5 12.7"/><ellipse transform="rotate(-73.817 126.42 316.507)" fill="none" stroke="#000" stroke-width="2" stroke-miterlimit="10" cx="126.4" cy="316.5" rx="18.6" ry="11.6"/><path fill="none" stroke="#000" stroke-width="2" stroke-miterlimit="10" d="M128.5 296.1l7.1.7s-.3 2.7-.4 4.1m-18.2-6l31.1 3.1 3-61.9-24.3-2.4zm31.1 3.1l14.7-27.4 1.2-38.4-4.8-.5-4.9 34.7-5.2 11.2"/><path fill="none" stroke="#000" stroke-width="2" stroke-miterlimit="10" d="M159.3 231.8l-2.8-6.2 2.8-1.3 2.4 3.1 1.9-12.3 5 5.7-4.5 11.5m-9.8 34.1l8.5 4.2m-45.7 24.3l-8.9-29.8 6.4-37.9 4.8.5-2.1 35 2.9 12"/><path fill="none" stroke="#000" stroke-width="2" stroke-miterlimit="10" d="M119.3 227.8l4-5.6-2.5-1.7-2.9 2.5.5-12.4-6 4.6 2.2 12.1m2.7 35.4l-9.1 2.4m18.6-31.4l12.3-102.5 5 .5-5.1 103.2 15.9-102.1 5.8.5-9.6 102.8"/><path fill="none" stroke="#000" stroke-width="2" stroke-miterlimit="10" d="M139.1 131.2l-14.4-8 10-3.7 9.4 12.2m10.8 1.1l9.2-10.4 9.3 5.8-12.7 5.1"/><ellipse transform="rotate(-61.02 46.34 284.91)" fill="none" stroke="#000" stroke-width="2" stroke-miterlimit="10" cx="46.3" cy="284.9" rx="16.9" ry="10.8"/><path fill="none" stroke="#000" stroke-width="2" stroke-miterlimit="10" d="M56.4 205.9c5.9 1.3 16 3.8 21.4 6.8l-11.3 55.5-31.1-6.1s6.2-21.9 11-38.6"/><path fill="none" stroke="#000" stroke-width="2" stroke-miterlimit="10" d="M35.2 262.8l-3.4-31.3 21.5-29.7 4.1 2.3-16.5 29.7.5 7.6M67 267.2l15.2-26.5s-3.8-19.1-4.6-26.4"/><path fill="none" stroke="#000" stroke-width="2" stroke-miterlimit="10" d="M71.3 245.3l3.7-6.7-.4-9.8m.4 9.8l6.9 2.8m-4.7-29.7l28.1-96.8-5.2-1.9-34.3 95.4 20.3-100.6-5.3-2s-21 72.3-27.2 93.3"/><path fill="none" stroke="#000" stroke-width="2" stroke-miterlimit="10" d="M57.6 204l2.2-.8-1.3-1.7-4.9-2.4-.1 2.6m-12.6 32.1l-9.1-2.3m73.4-116.9l17.3-1.3-12-7.7-10.4 6.6M86 107.4l12.2-7.9-12.1-5.7-5.3 11.6M53.1 269.5l1.4-3.6m-10.2 5.6c.3-.2 1.2-6.9 1.2-6.9m81.4 34.2c.1 0 .3-2.9.3-2.9"/></svg>