<svg version="1" xmlns="http://www.w3.org/2000/svg" width="432" height="432"><g fill="#27AAE1"><path d="M220.7 52.6s14.4 37.6-1.8 51.5l6.1 2.4s10.3-9.9 9.8-24.6-6.4-28-14.1-29.3zm-1.8 67.9l5.6 92.8s-16.2 5.1-15.9 5 29.5-2.6 29.5-2.6l-4.3-33.9-4-59.9-10.9-1.4z"/><path d="M208.6 218.3l1.9 140.5-22.6 16.6 11.3 7.6 16.7-23.5V218.3zm25.2-2.2l5.7 140.8 25.7 15.6-16.7 10.5-14.4-25-15.6-139.7zm-2.9-84l17.1 1.3 8.9 8.2-13.4.4-12.4-2z"/></g><g fill="none" stroke="#000" stroke-width="2" stroke-miterlimit="10"><path d="M215.6 112.1c-1.7.4-3.4.6-5.1.4-11.9-1-20.3-15.6-18.8-32.4 1.5-16.9 12.3-29.7 24.2-28.7 11.9 1 20.3 15.6 18.8 32.4-.8 9.4-4.5 17.5-9.7 22.7m-44.4 18s24-5.8 49.3-3.4c0 0 3.3 71.2 8.2 94.6 0 0-27.1 4.1-41.9 2.1 0 0-12.9-37.1-15.6-93.3z"/><path d="M202.8 109.7l-.1 10.8h15.2l-1-8.3m-36.3 12.3l-21 39.1 31.1 34.7M167 171.8s11.5-15.9 15.1-18.4m-6.6 7.2l11.1 17.6"/><path d="M190.1 197.6l-16.5 4.8 12.6 10.9 6.3-8.3m37.4-91.5l7.4-9-3.7-3.4-5.2 6.2-18.5-6.2-1.3 8.1 18.5 6.7zm-22.2 245c-.6.5-28.2 11.4-28.2 11.4s17 11.5 18.4 10.9c1.4-.6 18.2-21.3 18.2-21.3l-8.4-1zm26.4-.5l15 22.8 18-11.1-25.5-12.8z"/><path d="M196.2 217.8s10.1 140.6 11.5 140.7c1.4.2 8.3.9 8.3.9V218.3l2.5-.5L234.1 358l7.6-1.1-3.5-141.2M205 52.6s16.5 3.4 22.9 3m-25.7-1.5s12.9 7.2 27.7 4.1m-30.8-1.6s18 8.8 33.1 5.4m.8 47.7s21.5 9.6 39 28.8c0 0-17.3 6.7-41.1 1.5m-2.1-25.3l28.6 26.9m-27.5-19.7l8.2 1.2"/></g><path fill="none" d="M218.2 54.2c3.6-.9 7.4-.7 10.9.5-3.6 1.8-7.2 3.7-10.9 5.5l15.3.6c-5.5 2.2-10.9 4.4-16.4 6.5 5.9.5 11.8 1 17.6 1.5-7.1 2.1-14.1 4.2-21.2 6.3 6.2.4 12.4.9 18.6 1.3-5.7 2-11.4 4.1-17.1 6.1l23.4.6c-9.2 2.5-18.2 5.5-26.9 9.2 8 .9 16.1 1.2 24.2.8-7.2 1.2-14.3 3-21.2 5.5 6.5.1 13.1.3 19.6.4-8.9 3.7-17.6 7.9-26 12.7l36.7-.9c-13.3 3.7-26.6 7.4-40 11.1l37.5.6c-12 2.8-24 5.5-36.1 8.3 18.6-.8 37.2-1.7 55.8-2.5-19.1 3.5-38.1 6.9-57.2 10.4 16-.2 32.1-.4 48.1-.5-16.4.8-32.6 4.6-47.6 11.1 12 4 25-5.8 37.4-3.3-9.2 5-19 9.2-29 12.3 8.1-.6 16.2-1.1 24.3-1.7-12.1 4.7-24.1 9.3-36.2 14 11.9-.5 23.9-1.1 35.8-1.6-10.2 2.6-20.3 5.1-30.5 7.7h34c-10.2 3.5-20.3 6.9-30.5 10.4 8.9-.2 17.8-.3 26.6-.5-9.7 3.8-19.4 7.6-29.2 11.4l37-.3c-11.1 4.6-22.1 9.1-33.2 13.7 14.9-.1 29.8-.2 44.7-.4-15.3 2.1-30.6 4.1-45.9 6.2-4.9.7-10.2 1.5-13.9 4.8 19.2.4 38.5.4 57.7.2-19 5-37.8 11-56.2 17.9 19.2-.5 38.3-1 57.5-1.6-18.3 3.6-36.3 8.2-54 13.9 17.3-2.6 34.9-3.3 52.4-2.2-20.5 2.5-41 5-61.5 7.6 16.8-.4 33.7.3 50.4 2.1-12.3 3.5-24.7 7-37 10.5-.2-1.2-.4-2.4-.7-3.6-1.5 2.8-3 5.5-4.5 8.3l38.7 2.1c-18.2 2-36.3 3.9-54.5 5.9.3 2.4 3.4 3.1 5.8 3.2 15.8.7 31.5 1.5 47.3 2.2-16.8 11.4-39.7 5.8-59.3 11.2 20.1 0 40.2-.1 60.2-.1-4.5-.3-8.9-.7-13.4-1 5.5 1.5 10.8 3.7 15.7 6.6-16.5 7.1-34.1 11.6-51.9 13.3 20.4.8 40.8 1.7 61.2 2.5-20.4 3.2-40.6 7.3-60.6 12.3 20.1.1 40.2.1 60.4.2-19.6 3.9-39.3 7.9-58.9 11.8 19.5-.2 39.1 1 58.4 3.7-22.2 9.9-49.7 6.2-69.3 20.5 29-2.9 58.2-4.4 87.3-4.4-26.3 6-52.7 12.1-79 18.1 32.1-3 64.4-2.9 96.6-2.7-27.7 1.9-55.6 2.6-83.4 2.1 17.7-5.6 35.5-11.1 53.2-16.7-15.9 1.6-31.9 1.5-47.7-.2 19.5-1.3 39-3.4 58.3-6.3"/></svg>