<svg version="1" xmlns="http://www.w3.org/2000/svg" width="311" height="272"><path fill="#FFF" stroke="#000" stroke-width="4" stroke-miterlimit="10" d="M149.4 21.9l-7.1-1.2-12.5-5.7-9.3-2.1H89.7l-10.3 5.8-16.3 6.1-4.6 3.6-9.6 5.1s-8.9 5.4-12 10.2c-3.2 4.8-1.2 4.5-4.4 10.6-3.2 5.9-2.6 7.1-5 13.7s-5.3 14.4-5.3 14.4L19 102.2s0 10.6-1.1 25.9c-1.1 15.5-.7 6.1-2.1 13.9-1.4 7.8-1.1 9.7-2.8 12.1s0 25.9 0 25.9l3.8 13.7s2.1 13.9 3.2 21 8.8 11.6 8.8 11.6l6.1 6.3s11.4 2.6 13.8 2.6 26.1-2.6 26.1-2.6 7.2-.2 15.4 3.6c8.2 3.8 18.8 8.7 18.8 8.7s4.3 1.2 10.6 3.3c6.4 2.3 3.8 0 13.1-.5 9.3-.7 15.7-2.8 15.7-2.8h10.3c5 0 5.3 1.7 8.5 4.5 3.2 2.6 2.4 2.1 13.1 5.4 10.6 3.3 8.5 0 12.5 0s8.9-5 12.2-6.6 10.1-11.1 10.1-11.1l8.2-4.8 7.8-2.3 6.4-6.6s5.3-13.5 6.4-21.8c1.1-8.3 1.7-10.7 2.4-14.5.7-3.8 1.5-9.4 1.8-13.2.4-3.8 1.8-11.1 2.9-16.5s-1.1-12.1-2.1-28.1c-1.1-16 0-4.5 0-4.5l-2.9-18.7-2.1-8.7-2-10.4s-1.4-7.8-1.4-12.9-2.4-10.2-2.4-10.2l-3.9-8.7-12-12.9-6.1-5.4c-6.1-5.4-12.5-3.9-12.5-3.9l-7.1-2.1-7.8-5.4-5.6-5.3-10.6-1.3-13.5 2.8-9.6.2zM283.8 90c-2.2.3-1.4 1.7-3.2 3.5-1.8 1.8-.6 1.6-1.8 4.8-1.2 3.2 1.8 2 2.8 3.2s1.5 1.6 3 3.2 4.5 1.8 4.5 1.8h5.8s1.6-.5 4.4-2.2c2.8-1.7 0-.1 1-1.5s0-4.2 0-4.2l-2.2-5.2-3.5-3.2h-5.5s-3.1-.5-5.3-.2zm-23.9 16.1c-1.5.3-2 1.5-3 2.5s0 4.5 0 6.5v3c0 .8 4.5 6 4.5 6h5l7.2-1 2-2.2c2-2.2 0-6 0-6l-1.5-4.2-2-4.5h-5.8s-4.9-.4-6.4-.1z"/></svg>