<svg version="1" xmlns="http://www.w3.org/2000/svg" width="432" height="432"><path fill="none" stroke="#000" stroke-width="4" stroke-miterlimit="10" d="M256.4 209.3S237.5 168 188.5 179c0 0-45.2 11-43.8 44.8 0 0-4 .2-5 4.8s7 21.2 63.5 10.8 64.9-24.8 62.2-29.4c.1-.1-2-4.7-9-.7zm-111.6 14.5s58.6 18.2 111.7-14.5"/><path fill="none" stroke="#000" stroke-width="4" stroke-miterlimit="10" d="M265.9 209.6s17.2-15.8 37.3-7.9c0 0 9.3 30-46.2 34.5l-1.9 12.8s11.9 1.6 14.8 9.2h-30.2l1-16.7s-30.3 12.7-64.8 8.2"/><path fill="none" stroke="#000" stroke-width="4" stroke-miterlimit="10" d="M157.4 241.5l-7.2 14.8s13.8 8.4 34.6 5c0 0-2.5-11.2-12.8-13.1m-29.2-13s-23.5.7-22.4 2.8 13.4 11.1 34.6 3"/></svg>