<svg version="1" xmlns="http://www.w3.org/2000/svg" width="678.1" height="1854.2"><path fill="none" stroke="#27AAE1" stroke-width="4" stroke-miterlimit="10" d="M572 828.7L480.5 793"/><ellipse transform="rotate(-82.478 437.325 654.64)" fill="none" stroke="#010101" stroke-width="3" stroke-miterlimit="10" cx="437.3" cy="654.6" rx="23" ry="16.5"/><path fill="none" stroke="#010101" stroke-width="3" stroke-miterlimit="10" d="M429.8 676.2v6.7l7.8 1 1.3-5.8m-25.6 82h26.3l12.3-72.8c-16.1-5.2-40-4.2-40-4.2l1.4 77zm-1.7-76.7s-17.1 17-24.1 51.9m0 0c-.3 4.3-2.7 22.3-2.8 27l6.3 1.5s4.2-17 6.3-25.6m0-.2c3.3-10.3 8-21.3 14.3-27m-9.6 14.7l-8.7-11"/><path fill="none" stroke="#010101" stroke-width="3" stroke-miterlimit="10" d="M384.6 762.1l-6.3 9.5s2.8 8.8 3.2 8.8h15l2.3-11-8.2-6m60.1-70.9s2.8 33.5 32.3 44.8l-2.5 6.3s-22.3.2-34.5-25.3m36.9 19.4l6-3.9 10.4 3-4.1 16-13-3-1.7-5.2m-67.2 15.5c9.2 60.8-9.3 122.5-9.3 122.5l10.5 1c20.6-41.5 25-123.7 25-123.7"/><path fill="none" stroke="#010101" stroke-width="3" stroke-miterlimit="10" d="M439.7 757.8c15.6 47.4 24.8 127.2 24.8 127.2l-10 1s-13-66.6-20.3-77.2m-19.8 75l22 5.7-13.1 8-22.5-9.5 3.2-5.2m50.6 3.4v8.6l27.9 4.3 9.7-12.9-27.6-1.2"/><path fill="none" stroke="#27AAE1" stroke-width="4" stroke-miterlimit="10" d="M572 1031.4l-91.5 33.1"/><ellipse transform="rotate(-76.579 446.013 961.666)" fill="none" stroke="#010101" stroke-width="3" stroke-miterlimit="10" cx="446" cy="961.7" rx="24.8" ry="17.1"/><path fill="none" stroke="#010101" stroke-width="3" stroke-miterlimit="10" d="M436.6 984.2l-1.5 7.5 8.5 1.7 1.8-7.5m-32.3 74.7c1.7-16 7.5-68.9 7.5-68.9s22.6-.5 32.6 6.3l-15 70.6s-16.3-2.2-23-3m5.4-73.9l-28.8 22.1 8.7 40.5 6.9-1.7-3.1-35.6m14.6-8.8l-25.3 15.6"/><path fill="none" stroke="#010101" stroke-width="3" stroke-miterlimit="10" d="M400.5 1054.3l-1.9 10.5 6.7 7.2 12-5.7-9.9-13.7m44.3-47.7l11 22.8 23.3-7 1.7 6.3-27.5 13.7-12.3-15m38.1-5v-5.3l10.7-6.7 4.5 6s4.3 7.7 4.5 8m0 .1c-1.7 1.2-9.7 7.8-9.7 7.8l-8.3-3.5m-52.6 41.4s-5.7 75.6-48.1 115.5l-5.5-3.3s31.6-71.4 31.1-111.9"/><path fill="none" stroke="#010101" stroke-width="3" stroke-miterlimit="10" d="M438.2 1068.5s26 58.8 30.8 113.4l-7 2.2s-26-83.9-30.3-92.7m-50.7 89.1l-8 7.7s14.7 13.3 15.3 13.3 23.6-.8 23.6-.8l-25-16.8m75.2.3v10.3s13.3-1.7 23.3-2.7l11.3-.7-1-11c-10.3.8-26.6 2-26.6 2"/><path fill="none" stroke="#27AAE1" stroke-width="4" stroke-miterlimit="10" d="M402 670l-86.5-155"/><ellipse transform="rotate(-82.478 260.55 356.975)" fill="none" stroke="#010101" stroke-width="3" stroke-miterlimit="10" cx="260.5" cy="357" rx="23" ry="16.5"/><path fill="none" stroke="#010101" stroke-width="3" stroke-miterlimit="10" d="M253 378.7v6.6l7.8 1 1.4-5.8m-25.7 82.1h26.3l12.3-72.8c-16.1-5.2-40-4.2-40-4.2l1.4 77zm-1.6-76.8s-17.1 17-24.1 51.9m-.1.1c-.3 4.3-2.7 22.3-2.8 27l6.3 1.5s4.2-17 6.3-25.6m.1-.3c3.3-10.3 8-21.3 14.3-27m-9.7 14.7l-8.6-11"/><path fill="none" stroke="#010101" stroke-width="3" stroke-miterlimit="10" d="M207.9 464.6l-6.3 9.5s2.8 8.8 3.2 8.8h15l2.3-11-8.2-6M274 395s2.8 33.5 32.3 44.8l-2.5 6.3s-22.3.2-34.5-25.3"/><path fill="none" stroke="#010101" stroke-width="3" stroke-miterlimit="10" d="M306.1 440.1l6-3.8 10.5 3-4.1 16-13-3-1.7-5.2m-67.3 15.5c9.2 60.8-9.3 122.5-9.3 122.5l10.5 1c20.6-41.5 25-123.7 25-123.7"/><path fill="none" stroke="#010101" stroke-width="3" stroke-miterlimit="10" d="M263 460.2c15.6 47.4 24.8 127.2 24.8 127.2l-10 1s-13-66.6-20.3-77.2m-19.8 75.1l22 5.6-13.2 8-22.4-9.5 3.1-5.1m50.6 3.3v8.7l28 4.3 9.7-13-27.7-1.2"/><path fill="none" stroke="#27AAE1" stroke-width="4" stroke-miterlimit="10" d="M391 810.9c-5-.9-80 30.1-80 30.1"/><ellipse transform="rotate(-76.579 269.286 664.19)" fill="none" stroke="#010101" stroke-width="3" stroke-miterlimit="10" cx="269.3" cy="664.2" rx="24.8" ry="17.1"/><path fill="none" stroke="#010101" stroke-width="3" stroke-miterlimit="10" d="M259.9 686.7l-1.5 7.5 8.4 1.6 1.9-7.5m-32.3 74.8c1.7-16 7.5-68.9 7.5-68.9s22.6-.5 32.6 6.3l-15 70.6s-16.3-2.2-23-3m5.4-73.9l-28.8 22.1 8.6 40.5 7-1.7-3.1-35.6m14.6-8.9l-25.3 15.7"/><path fill="none" stroke="#010101" stroke-width="3" stroke-miterlimit="10" d="M223.7 756.8l-1.8 10.4 6.7 7.2 11.9-5.7-9.8-13.6m44.3-47.8l11 22.8 23.3-7 1.7 6.3-27.5 13.7-12.3-15m38.1-5v-5.3l10.7-6.7 4.5 6s4.3 7.7 4.5 8m-.1.2c-1.7 1.2-9.7 7.8-9.7 7.8l-8.3-3.5m-52.5 41.3s-5.7 75.6-48.1 115.5l-5.5-3.3s31.6-71.4 31.1-111.9"/><path fill="none" stroke="#010101" stroke-width="3" stroke-miterlimit="10" d="M261.5 770.9s26 58.8 30.8 113.4l-7 2.2s-26-83.9-30.3-92.7m-50.8 89.1l-8 7.7s14.7 13.3 15.3 13.3c.7 0 23.6-.8 23.6-.8l-25-16.8m75.2.3v10.3s13.3-1.7 23.3-2.7l11.3-.7-1-11c-10.3.8-26.6 2-26.6 2"/><path fill="none" stroke="#27AAE1" stroke-width="4" stroke-miterlimit="10" d="M384.7 1118.8l-78.4-36.8"/><ellipse transform="rotate(-82.478 260.542 952.075)" fill="none" stroke="#010101" stroke-width="3" stroke-miterlimit="10" cx="260.5" cy="952.1" rx="23" ry="16.5"/><path fill="none" stroke="#010101" stroke-width="3" stroke-miterlimit="10" d="M253 973.8v6.6l7.8 1 1.4-5.8m-25.7 82.1h26.3l12.3-72.8c-16.1-5.2-40-4.2-40-4.2l1.4 77zm-1.6-76.8s-17.1 17-24.1 51.9m-.1.1c-.3 4.3-2.7 22.3-2.8 27l6.3 1.5s4.2-17 6.3-25.6m.1-.3c3.3-10.3 8-21.3 14.3-27m-9.7 14.7l-8.6-11"/><path fill="none" stroke="#010101" stroke-width="3" stroke-miterlimit="10" d="M207.9 1059.7l-6.3 9.5s2.8 8.8 3.2 8.8h15l2.3-11-8.2-6m60.1-70.9s2.8 33.5 32.3 44.8l-2.5 6.3s-22.3.2-34.5-25.3"/><path fill="none" stroke="#010101" stroke-width="3" stroke-miterlimit="10" d="M306.1 1035.2l6-3.8 10.5 3-4.1 16-13-3-1.7-5.2m-67.3 15.5c9.2 60.8-9.3 122.5-9.3 122.5l10.5 1c20.6-41.5 25-123.7 25-123.7"/><path fill="none" stroke="#010101" stroke-width="3" stroke-miterlimit="10" d="M263 1055.4c15.6 47.4 24.8 127.2 24.8 127.2l-10 1s-13-66.6-20.3-77.2m-19.8 75l22 5.6-13.2 8-22.4-9.5 3.1-5.1"/><path fill="none" stroke="#010101" stroke-width="3" stroke-miterlimit="10" d="M277.8 1183.7v8.7l28 4.3 9.7-13-27.7-1.2"/><path fill="none" stroke="#27AAE1" stroke-width="4" stroke-miterlimit="10" d="M365 1201.5l-68.4 93.6"/><ellipse transform="rotate(-76.579 269.285 1259.292)" fill="none" stroke="#010101" stroke-width="3" stroke-miterlimit="10" cx="269.3" cy="1259.3" rx="24.8" ry="17.1"/><path fill="none" stroke="#010101" stroke-width="3" stroke-miterlimit="10" d="M259.9 1281.8l-1.5 7.5 8.4 1.6 1.9-7.5m-32.3 74.8c1.7-16 7.5-68.9 7.5-68.9s22.6-.5 32.6 6.3l-15 70.6s-16.3-2.2-23-3m5.4-73.9l-28.8 22.1 8.6 40.5 7-1.7-3.1-35.6m14.6-8.9l-25.3 15.7"/><path fill="none" stroke="#010101" stroke-width="3" stroke-miterlimit="10" d="M223.7 1351.9l-1.8 10.4 6.7 7.2 11.9-5.7-9.8-13.6m44.3-47.8l11 22.8 23.3-7 1.7 6.4-27.5 13.6-12.3-15m38.1-5v-5.3l10.7-6.7 4.5 6s4.3 7.7 4.5 8m-.1.2c-1.7 1.2-9.7 7.8-9.7 7.8l-8.3-3.5m-52.5 41.3s-5.7 75.6-48.1 115.5l-5.5-3.3s31.6-71.4 31.1-111.9"/><path fill="none" stroke="#010101" stroke-width="3" stroke-miterlimit="10" d="M261.5 1366s26 58.8 30.8 113.4l-7 2.2s-26-83.9-30.3-92.7m-50.8 89.2l-8 7.7s14.7 13.3 15.3 13.3c.7 0 23.6-.8 23.6-.8l-25-16.8m75.2.2v10.3s13.3-1.7 23.3-2.7l11.3-.7-1-11c-10.3.8-26.6 2-26.6 2"/><path fill="none" stroke="#27AAE1" stroke-width="4" stroke-miterlimit="10" d="M225.2 369l-91-145"/><ellipse transform="rotate(-82.478 83.925 51.93)" fill="none" stroke="#010101" stroke-width="3" stroke-miterlimit="10" cx="83.9" cy="51.9" rx="23" ry="16.5"/><path fill="none" stroke="#010101" stroke-width="3" stroke-miterlimit="10" d="M76.3 73.6v6.7l7.8 1 1.3-5.8m-25.6 82h26.3l12.3-72.8c-16.1-5.2-40-4.2-40-4.2l1.4 77zm-1.7-76.7S41 97.8 34 132.7m0 0c-.3 4.3-2.7 22.3-2.8 27l6.3 1.5s4.2-17 6.3-25.6m0-.2c3.3-10.3 8-21.3 14.3-27m-9.6 14.7l-8.7-11"/><path fill="none" stroke="#010101" stroke-width="3" stroke-miterlimit="10" d="M31.2 159.5l-6.3 9.5s2.8 8.8 3.2 8.8h15l2.3-11-8.2-6m60.1-70.9s2.8 33.5 32.3 44.8l-2.5 6.3s-22.3.2-34.5-25.3"/><path fill="none" stroke="#010101" stroke-width="3" stroke-miterlimit="10" d="M129.4 135.1l6-3.9 10.5 3-4.2 16-13-3-1.6-5.1m-67.3 15.4C69 218.3 50.5 280 50.5 280l10.5 1c20.6-41.5 25-123.7 25-123.7"/><path fill="none" stroke="#010101" stroke-width="3" stroke-miterlimit="10" d="M86.3 155.2c15.6 47.4 24.8 127.2 24.8 127.2l-10 1s-13-66.6-20.3-77.2m-19.8 75l22 5.7-13.2 8-22.5-9.5 3.2-5.2m50.6 3.4v8.6l28 4.3 9.6-12.9-27.6-1.2"/><path fill="none" stroke="#27AAE1" stroke-width="4" stroke-miterlimit="10" d="M214.2 508l-71 33"/><ellipse transform="rotate(-76.579 92.48 359.12)" fill="none" stroke="#010101" stroke-width="3" stroke-miterlimit="10" cx="92.5" cy="359.1" rx="24.8" ry="17.1"/><path fill="none" stroke="#010101" stroke-width="3" stroke-miterlimit="10" d="M83.1 381.6l-1.5 7.5 8.5 1.7 1.8-7.5M59.6 458c1.7-16 7.5-68.9 7.5-68.9s22.6-.5 32.6 6.3l-15 70.6s-16.3-2.2-23-3m5.4-73.9l-28.8 22.2 8.7 40.4 7-1.7-3.2-35.6m14.7-8.8l-25.3 15.6"/><path fill="none" stroke="#010101" stroke-width="3" stroke-miterlimit="10" d="M47 451.7l-1.8 10.5 6.6 7.2 12-5.7L54 450m44.3-47.7l11 22.8 23.3-7 1.6 6.3-27.4 13.7-12.4-15m38.2-5v-5.3l10.7-6.7 4.5 6s4.3 7.7 4.5 8m-.1.1c-1.7 1.2-9.7 7.8-9.7 7.8l-8.3-3.5m-52.6 41.4s-5.7 75.6-48.1 115.5l-5.5-3.3s31.6-71.4 31.1-111.9"/><path fill="none" stroke="#010101" stroke-width="3" stroke-miterlimit="10" d="M84.8 465.9s26 58.8 30.8 113.4l-7 2.2s-26-83.9-30.3-92.7m-50.8 89.1l-8 7.7s14.7 13.3 15.3 13.3 23.6-.8 23.6-.8l-25-16.8m75.2.3v10.3s13.3-1.7 23.3-2.7l11.3-.7-1-11c-10.3.8-26.6 2-26.6 2"/><path fill="none" stroke="#27AAE1" stroke-width="4" stroke-miterlimit="10" d="M210.8 793h-76.6"/><ellipse transform="rotate(-82.478 83.918 647.03)" fill="none" stroke="#010101" stroke-width="3" stroke-miterlimit="10" cx="83.9" cy="647" rx="23" ry="16.5"/><path fill="none" stroke="#010101" stroke-width="3" stroke-miterlimit="10" d="M76.3 668.7v6.7l7.8 1 1.3-5.8m-25.6 82h26.3l12.3-72.8c-16.1-5.2-40-4.2-40-4.2l1.4 77zm-1.7-76.7S41 692.9 34 727.8m0 0c-.3 4.3-2.7 22.3-2.8 27l6.3 1.5s4.2-17 6.3-25.6m0-.2c3.3-10.3 8-21.3 14.3-27m-9.6 14.7l-8.7-11"/><path fill="none" stroke="#010101" stroke-width="3" stroke-miterlimit="10" d="M31.2 754.6l-6.3 9.5s2.8 8.8 3.2 8.8h15l2.3-11-8.2-6M97.3 685s2.8 33.5 32.3 44.8l-2.5 6.3s-22.3.2-34.5-25.3"/><path fill="none" stroke="#010101" stroke-width="3" stroke-miterlimit="10" d="M129.4 730.2l6-3.9 10.5 3-4.2 16-13-3-1.6-5.1m-67.3 15.4c9.2 60.8-9.3 122.5-9.3 122.5l10.5 1c20.6-41.5 25-123.7 25-123.7"/><path fill="none" stroke="#010101" stroke-width="3" stroke-miterlimit="10" d="M86.3 750.3c15.6 47.4 24.8 127.2 24.8 127.2l-10 1s-13-66.6-20.3-77.2m-19.8 75l22 5.7-13.2 8-22.5-9.5 3.2-5.2m50.6 3.4v8.6l28 4.4 9.6-13-27.6-1.2"/><path fill="none" stroke="#27AAE1" stroke-width="4" stroke-miterlimit="10" d="M215.6 1100.4h-79.1"/><ellipse transform="rotate(-76.579 92.48 954.222)" fill="none" stroke="#010101" stroke-width="3" stroke-miterlimit="10" cx="92.5" cy="954.2" rx="24.8" ry="17.1"/><path fill="none" stroke="#010101" stroke-width="3" stroke-miterlimit="10" d="M83.1 976.7l-1.5 7.5 8.5 1.7 1.8-7.5m-32.3 74.7c1.7-16 7.5-68.9 7.5-68.9s22.6-.5 32.6 6.3l-15 70.6s-16.3-2.2-23-3m5.4-73.9l-28.8 22.2 8.7 40.4 7-1.6-3.2-35.7m14.7-8.8l-25.3 15.7"/><path fill="none" stroke="#010101" stroke-width="3" stroke-miterlimit="10" d="M47 1046.8l-1.8 10.5 6.6 7.2 12-5.7-9.8-13.6m44.3-47.8l11 22.8 23.3-7 1.6 6.3-27.4 13.7-12.4-15m38.2-5v-5.3l10.7-6.7 4.5 6s4.3 7.7 4.5 8m-.1.2c-1.7 1.2-9.7 7.8-9.7 7.8l-8.3-3.5M81.6 1061s-5.7 75.6-48.1 115.5l-5.5-3.3s31.6-71.4 31.1-111.9"/><path fill="none" stroke="#010101" stroke-width="3" stroke-miterlimit="10" d="M84.8 1061s26 58.8 30.8 113.4l-7 2.2s-26-83.9-30.3-92.7M27.5 1173l-8 7.7s14.7 13.3 15.3 13.3 23.6-.8 23.6-.8l-25-16.8m75.2.3v10.3s13.3-1.7 23.3-2.7l11.3-.7-1-11c-10.3.8-26.6 2-26.6 2"/><path fill="none" stroke="#27AAE1" stroke-width="4" stroke-miterlimit="10" d="M201.6 1406c-2.6-2-79.6-28-79.6-28"/><ellipse transform="rotate(-82.478 78.847 1257.174)" fill="none" stroke="#010101" stroke-width="3" stroke-miterlimit="10" cx="78.8" cy="1257.2" rx="23" ry="16.5"/><path fill="none" stroke="#010101" stroke-width="3" stroke-miterlimit="10" d="M71.2 1278.8v6.7l7.8 1 1.4-5.9m-25.7 82.1H81l12.3-72.8c-16.1-5.2-40-4.2-40-4.2l1.4 77zm-1.6-76.7S36 1303 29 1337.9m-.1 0c-.3 4.3-2.7 22.3-2.8 27l6.3 1.5s4.2-17 6.3-25.6m.1-.2c3.3-10.3 8-21.3 14.3-27m-9.7 14.7l-8.6-11"/><path fill="none" stroke="#010101" stroke-width="3" stroke-miterlimit="10" d="M26.1 1364.7l-6.3 9.5s2.8 8.8 3.2 8.8h15l2.3-11-8.2-6m60.1-70.9s2.8 33.5 32.3 44.8l-2.5 6.3s-22.3.2-34.5-25.3"/><path fill="none" stroke="#010101" stroke-width="3" stroke-miterlimit="10" d="M124.3 1340.2l6-3.8 10.5 3-4.2 16-12.9-3-1.7-5.2m-67.3 15.5c9.2 60.8-9.3 122.5-9.3 122.5l10.5 1c20.6-41.5 25-123.7 25-123.7"/><path fill="none" stroke="#010101" stroke-width="3" stroke-miterlimit="10" d="M81.2 1360.4c15.6 47.4 24.8 127.2 24.8 127.2l-10 1s-13-66.6-20.3-77.2m-19.8 75l22 5.7-13.2 8-22.5-9.5 3.2-5.2"/><path fill="none" stroke="#010101" stroke-width="3" stroke-miterlimit="10" d="M96 1488.8v8.6l28 4.3 9.6-12.9-27.6-1.2"/><path fill="none" stroke="#27AAE1" stroke-width="4" stroke-miterlimit="10" d="M196.2 1508l-74.2 83.4"/><ellipse transform="rotate(-76.579 87.406 1564.365)" fill="none" stroke="#010101" stroke-width="3" stroke-miterlimit="10" cx="87.4" cy="1564.4" rx="24.8" ry="17.1"/><path fill="none" stroke="#010101" stroke-width="3" stroke-miterlimit="10" d="M78 1586.8l-1.5 7.5 8.5 1.7 1.9-7.5m-32.3 74.7c1.7-16 7.5-68.9 7.5-68.9s22.6-.5 32.6 6.3l-15 70.6s-16.3-2.2-23-3m5.4-73.9l-28.8 22.1 8.6 40.5 7-1.7-3.2-35.6m14.7-8.8l-25.3 15.6"/><path fill="none" stroke="#010101" stroke-width="3" stroke-miterlimit="10" d="M41.9 1656.9l-1.8 10.5 6.6 7.1 12-5.6-9.8-13.7m44.3-47.7l11 22.8 23.3-7 1.7 6.3-27.5 13.6-12.3-14.9m38.1-5v-5.3l10.7-6.7 4.5 6s4.3 7.7 4.5 8m-.1.1c-1.7 1.2-9.7 7.8-9.7 7.8l-8.3-3.5m-52.6 41.4s-5.7 75.6-48.1 115.5l-5.5-3.3s31.6-71.4 31.1-111.9"/><path fill="none" stroke="#010101" stroke-width="3" stroke-miterlimit="10" d="M79.7 1671.1s26 58.8 30.8 113.4l-7 2.2s-26-83.9-30.3-92.7m-50.8 89.1l-8 7.7s14.7 13.3 15.3 13.3c.7 0 23.6-.8 23.6-.8l-25-16.8m75.2.3v10.3s13.3-1.7 23.3-2.7l11.3-.7-1-11c-10.3.8-26.6 2-26.6 2"/></svg>