<svg version="1" xmlns="http://www.w3.org/2000/svg" width="288" height="288"><path fill="none" stroke="#000" stroke-width="2" stroke-miterlimit="10" d="M34.6 104.3h37.9s1.1-13.3-4.9-12.7c0 0-.5-12.4-14-11.9S38.7 93.9 38.7 93.9s-8.5.7-4.1 10.4zm131.2 105.5h71s.8-18.8-12.1-18c0 0-6.4-13.5-20.1-14-13.7-.6-21.4 16-21.4 16s-18.5-5-17.4 16zm-105.6-6.7h44.6s1.9-12.4-6.6-12.6c0 0-3.4-14.6-15.6-14.9-12.2-.3-13.5 15.7-13.5 15.7s-11.9 0-8.9 11.8zM206 104.3h37.9S245 91 239 91.6c0 0-.5-12.4-14-11.9s-14.9 14.2-14.9 14.2-8.5.7-4.1 10.4zm-78.6-92.4l-54.8 120M124 38.8l-31.2 81.3m41.3-89.4l-9.1 53m30.7-71.8l54.9 120m-51.5-93.1l31.2 81.3M149 30.7l9.1 53m-16.9-63.5v63.5"/></svg>