<svg version="1" xmlns="http://www.w3.org/2000/svg" width="288" height="288"><ellipse fill="none" stroke="#000" stroke-width="2" stroke-miterlimit="10" cx="102.9" cy="51.9" rx="12.8" ry="19.1"/><path fill="none" stroke="#000" stroke-width="2" stroke-miterlimit="10" d="M100.1 69.6v5.7m7.8-5.7v5.1m-18.2.6h28.2l2.3 69.1s-23.8 3.2-32 1.9l1.5-71z"/><path fill="none" stroke="#000" stroke-width="2" stroke-miterlimit="10" d="M89.6 76.8l-7.2 61s-3 3-3 3.7 2.5 11.6 2.5 11.6l6.2-1.6m-5.7-13.7s5.5.8 5.7.8m29.7-63.3l11.8 33.2-2 30.2 2 4.3-3.2 10.2s-6.2-.5-6.3-1.9 2.2-6.9 2.2-6.9-2.1-2.3-2.2-2.6c-.1-.3 3.6-3.6 3.6-3.6l-1.4-28.1-3.7-11.5m11.1 9.9l-7.4 1.7"/><path fill="none" stroke="#000" stroke-width="2" stroke-miterlimit="10" d="M88.2 146.3c-.5 1.5 6 89 6 89h6.3l3.2-88.7m2.2-.3l5.8 88h7l1.5-89.9"/><path fill="none" stroke="#000" stroke-width="2" stroke-miterlimit="10" d="M94.2 235.3l-21 8.8s17.9 5.7 18.2 4.9 9.1-13.8 9.1-13.8m11.2-.9l-10.8 16.5h14.8l3-16.5"/><ellipse transform="rotate(-82.265 188.893 58.473)" fill="none" stroke="#000" stroke-width="2" stroke-miterlimit="10" cx="188.9" cy="58.5" rx="19.1" ry="12.9"/><path fill="none" stroke="#000" stroke-width="2" stroke-miterlimit="10" d="M181.5 82c-9.2-1.1-13-8.5-13-8.5 1-44 22.5-40.7 22.5-40.7s15.8-3.5 17.2 35.2v11.7l-14 2.4"/><path fill="none" stroke="#000" stroke-width="2" stroke-miterlimit="10" d="M186.3 77.4v4l5.2.6 1.4-6.2m12.8 63.5c-11.5 2.5-31.5.8-31.5.8l5.8-23.6-3.1-34.5h24.2c.3 1.6 4.6 57.3 4.6 57.3z"/><path fill="none" stroke="#000" stroke-width="2" stroke-miterlimit="10" d="M177.3 86.5l-7 55.4 4.9 1.4m-4.9-1.4l-3 6.3 1.5 8 5.3.7m27-74.9c.2 2.1 14.3 27 14.3 27l1.2 34.4-2 14.3s-6.3.2-5.8-1.2 1.5-8.3 1.5-8.3l-6 1 1.2-4.8 5.2-2.8-2-27.3-6.1-11.6m6.3 11.6l6.5-5.3"/><path fill="none" stroke="#000" stroke-width="2" stroke-miterlimit="10" d="M175.4 140.2l-6.3 79.3s29.4 3.7 45.7 0c0 0-5.6-49-8-70.4m-.5-4.6c-.4-3.3-.6-5.2-.6-5.2"/><path fill="none" stroke="#000" stroke-width="2" stroke-miterlimit="10" d="M178.9 221.1l2 19.1h4.3l1.5-19.4m11.2.3l2 19.1h4.3l1.5-19.4m-24.8 19.4l-18.2 7.6 14.2 5.4 8.3-13"/><path fill="none" stroke="#000" stroke-width="2" stroke-miterlimit="10" d="M199.9 240.2l-16.2 10.6 14.2 5.4 6.3-16"/></svg>