<svg version="1" xmlns="http://www.w3.org/2000/svg" width="288" height="288"><g fill="none" stroke-miterlimit="10"><path stroke="#000" stroke-width="2" d="M139.5 131.5c-6.7 0-12.1-5.4-12.1-12v-8.9c0-6.6 5.4-12 12-12h.1c6.6 0 12 5.4 12 12v8.9c0 6.6-5.4 12-12 12z"/><path stroke="#000" stroke-width="2" d="M127.4 114.5s4.8 2.2 7.5 1.3c2.8-1 5.6-1.4 9.8 0 4.1 1.4 6.8-1.6 6.8-1.6m-24.1-2.3s-5.6 2.2 0 6.5M152 112s5.6 2.2 0 6.5"/><path stroke="#000" stroke-width="2" d="M159.1 139.9c1.8-.5 3.6-1.1 3.6-1.1-6.7-6.5-4.4-36.2-7.3-42.8s-15.8-4-15.8-4-14.6-2.8-16.4 6.7c-1.6 8.2-1.2 30.2-3.4 37.6l5.3 1.5"/><path stroke="#000" stroke-width="2" d="M136 131.9c-.5-.4 0 5.4 0 5.4l8.4.2v-5.6c-.1 0-6.4 1.5-8.4 0z"/><path stroke="#27AAE1" stroke-width="6" stroke-linecap="round" stroke-linejoin="round" d="M124.9 176.7l30.8-34.4"/><path stroke="#000" stroke-width="2" d="M124 138s22.8-2.5 34.9 2.2c0 0-7.4 74.7 9.1 114.2 0 0-36.9 11.7-58-8.9 0 0 12.9-61.1 12.9-68.8S124 138 124 138z"/><path stroke="#000" stroke-width="2" d="M124 138l-47.3 5.9 6 21.2 40.9-16.8m-46.9-4.4l-8.3-2.2v2.7l1.8 2-12.1 4.6 1.2 7.7 20.8-1.8m77.2-17.2l47.3 5.9-6.1 21.1-40.9-16.7"/><path stroke="#000" stroke-width="2" d="M204.6 145.6l8.2-2.3v2.8L211 148l12.1 4.7-1.2 7.7-20.8-1.8m-53.2-20.3l-25.1 31.2-.4 12.1 36.1-40.5zm-19.4 118.1l2.4 10.5h1.3l2.4-9.7m17.6.8l-2.4 10.6h-1.3l-2.6-10.9m-15.1 9.2l-18.3 2.4 7.1 7.4 13.6-7.4zm19.1 1.7l18.3 2.3-7.1 7.5-13.6-7.5zM34.6 104.3h37.9s1.1-13.3-4.9-12.7c0 0-.5-12.4-14-11.9S38.7 93.9 38.7 93.9s-8.5.7-4.1 10.4zm131.2 105.5h71s.8-18.8-12.1-18c0 0-6.4-13.5-20.1-14-13.7-.6-21.4 16-21.4 16s-18.5-5-17.4 16zm-105.6-6.7h44.6s1.9-12.4-6.6-12.6c0 0-3.4-14.6-15.6-14.9-12.2-.3-13.5 15.7-13.5 15.7s-11.9 0-8.9 11.8zM206 104.3h37.9S245 91 239 91.6c0 0-.5-12.4-14-11.9s-14.9 14.2-14.9 14.2-8.5.7-4.1 10.4zm-78.6-92.4l-54.8 120M124 38.8l-31.2 81.3m41.3-89.4l-9.1 53m30.7-71.8l54.9 120m-51.5-93.1l31.2 81.3M149 30.7l9.1 53m-16.9-63.5v63.5"/></g></svg>