<svg version="1" xmlns="http://www.w3.org/2000/svg" width="288" height="288"><path fill="#27AAE1" d="M136 90.2c-.8 1.6-33.9 39.3-33.9 39.3l-1.2 13.9 43.8-46.6v-4.9l-8.7-1.7z"/><g fill="none" stroke="#000" stroke-width="2" stroke-miterlimit="10"><path d="M126.3 80.2h-5.2c-6.6 0-12-5.4-12-12V52.3c0-6.6 5.4-12 12-12h5.2c6.6 0 12 5.4 12 12v15.9c0 6.6-5.4 12-12 12z"/><path d="M109.1 59.6s8.9 2.5 12.3 1.4c3.3-1.2 6.8-1.7 11.8 0s5.1-1.8 5.1-1.8m-29.2-2.7s-6.8 2.6 0 7.9m10.3 16.2c-.6-.5 0 6.5 0 6.5l10.1.3v-6.8s-7.7 1.9-10.1 0z"/><path d="M147.4 90.4c2.2-.6 4.3-1.3 4.3-1.3-8.2-7.8-5.3-43.8-8.8-51.8s-19.1-4.8-19.1-4.8-17.7-3.3-19.9 8.2c-1.9 10-1.4 36.5-4.2 45.6l6.4 1.8"/><path d="M102.9 88.1s27.7-3 42.3 2.7c0 0-9 90.5 11 138.3 0 0-44.7 14.2-70.3-10.8 0 0 15.7-74 15.7-83.3-.1-9.4 1.3-46.9 1.3-46.9z"/><path d="M102.1 88.4l-25.1 56 17.2 9.2s7.5-39 7.8-41.9m-12.6 40.1l-3.5 8.4-8.1 5-3.5-1.4 8.1-16.2"/><path d="M89.5 151.1l2.5 6.1-.8 3.5-1.3.3-2.9-4.4m58.2-65.8l48.6-.6v39.2l-49.9-21.9m49.9-17.3h18.4l-3 4.6-6.2 1-2.1 8.2h-7.1m-61.9-15.6l-30.4 37.8-.6 14.7 43.8-49zm-23.5 143.1l2.8 12.8h1.7l2.8-11.8m21.3 1l-2.8 12.8h-1.7l-3.1-13.2m-18.3 11.2l-22.2 2.8 8.7 9 16.5-9zm23.2 2l22.2 2.9-8.7 9-16.5-9z"/></g></svg>