<svg version="1" xmlns="http://www.w3.org/2000/svg" width="288" height="288"><path d="M90.6 76.4s-3.6 42.4 17.9 46.5c0 0-19.6 3.2-25.6-20.5-4.7-18.9 7.7-26 7.7-26zm-2.3 55.1l26.1 87.5s-6.9 2-7.5 0c-.6-2-25.4-85.8-25.4-85.8l6.8-1.7zm99.3-7.4c-1.1 1.1-18.9 26.6-18.9 26.6l1.4 4.3 7.5.4 20-30.2-10-1.1zm-35.9 49.1c-.7 1.8-6.4 6.5-5.5 7.7.9 1.1 4 12.1 4 12.1l7.2-10.3-5.7-9.5z" fill="#27AAE1"/><g fill="none" stroke="#000" stroke-width="2" stroke-miterlimit="10"><path d="M180.8 117l-5.5-.8c-6.5-.9-11.1-7-10.2-13.6l2.6-18.2c.9-6.5 7-11.1 13.6-10.2l5.5.8c6.5.9 11.1 7 10.2 13.6l-2.6 18.2c-.9 6.6-7.1 11.2-13.6 10.2z"/><path d="M166.1 96.3s5.3 1 8.1 0 7.2-1.4 9.9 1.2c2.7 2.7 10.9 1.7 10.9 1.7m1.2-5.1s7.1 5.9-1.3 8.9"/><path d="M167.6 122.2c-8.8-2.1-14.6-7.5-14.6-7.5s5.5-23.2 9.7-38.3 22.6-8.6 22.6-8.6 13.3-3.3 16.5 2.8c3.1 6.1 5.3 49.9 5.3 49.9s-10.8 3.6-15.7 3.7"/><path d="M173.4 116l-.8 6.4 9.1.7 1-5.8"/><path d="M150.6 125.5l1.6-3.9s34.3.8 46.8 3.9c0 0 9.7 26.1 12.7 44.8 0 0-15.6 15.5-45.6 25.1 0 0-12.5-17.4-16.4-26.2l1.9-6.9"/><path d="M156.4 154.3l-5.9-1.8V141s-9.6-1.2-19.2 1.3l-2 16.2s9.9 7.9 20.4 2.9l10.8 2.4m-29.7-17.9l10.9.3m-11.5 4.5l10.9.8m-11.3 3.1l10 1.6m30.3-1.2l21.7 3.5v-20.1m4.9 43l-1.3 32.8M121.5 74.6l-5.1-8.2 6-24.2h2.2V56s4.2 4.5 4.7 4.2c.5-.4 3.1-1.8 3.1-1.8l1.6 4-7.3 12.2 3.8 14.4-5.4 7-6.8-3.6 3.2-17.8z"/><path d="M118.4 58.4l8 3.7 1.1 4.7m-10.2-3.9l5.1 2.8.9 4m29.3 52.2l-12.2-4.4-2.7-31.8-8.9-3.3m-9 2.7s-2.8 2.1-5 4.3m82.9 35.8s-10.5 15-21.6 30.8m-18.6 26.6c-4.3 6.2-7.2 10.3-7.2 10.3m33.6-69.6s-8.5 11.5-17.5 23.7m-16.1 21.8c-3.1 4.1-5 6.8-5 6.8"/><ellipse transform="rotate(-20.772 100.725 99.418)" cx="100.7" cy="99.4" rx="17.7" ry="24.9"/><path d="M82.2 84s14.6-5.1 18.5-9.2m4 0S92.2 86.1 80.5 89.4m27.2-12.9s-12.2 14.7-29.4 19m22.4 27.4c-.1 0 1.7 5 1.7 5m11.9-8.4l2.1 4.6m-9.6 95l-17-55.3-8.4-30.5 46.1-11.7 6.6 20.1"/><path d="M99 141.4c2.3 5.1 15.3 31.2 15.3 31.2l20.4-11.2"/><path d="M89.8 153.3s8.7 25.7 20.6 35.7c0 0 19.3-7.2 29.4-26.7m-25.5 10.3l-3.9 16.5m24.9-47.7l1.8-13.9 4.4-1.7 11.5-.6 2.6 3.9v7.7l-7 4.2m-6.4-14.3s6.4 1.8 10.7 9.2m-46.1 83.2c1-.1 47.6-11.6 47.6-11.6m-2.7-54.2c.3-.6 1.7-5.5 2.5-5.5s14.1-.8 14.4 0c.3.8 3.1 17.1 3.1 17.1l-10.1 1.9-6.1-14.3m8.7 13.8c.1 0-2.6-9.2-2.6-9.2m3.2-.9l2.5 9.4m2.3-.4l-1.8-9m-.6 9.6c-.3.9-1.2 29.6-1.2 29.6M141.7 163l16.1 56.1"/><path d="M102.6 205.4s-16.1 3.5-25.1 8.4c0 0 58.6 17.2 137.4-4.2 0 0-7.2-4.6-19.1-6.1"/><path d="M85.4 206.4s-11 4.2-17.4 10.7c0 0 40.7 29 144.8 0M196 197.8s17.2 2.5 23.7 8.5M71 226.6s19 9.2 49.4 10.1m5.3-3s48.2 10.6 94-14.6"/></g></svg>