<svg version="1" xmlns="http://www.w3.org/2000/svg" width="288" height="288"><path fill="none" stroke="#000" stroke-width="2" stroke-miterlimit="10" d="M200.6 167.7l-43.2-33.4-10.7-50.5h-5.4l-10.7 50.5-43.1 33.4 4.8 2.3 51.7-32.9 51.7 32.9z"/><path fill="none" stroke="#000" stroke-width="2" stroke-miterlimit="10" d="M107.3 160.4l10 68.7h48.5l6.6-73.9"/><path fill="none" stroke="#000" stroke-width="2" stroke-miterlimit="10" d="M133.6 181.3s-6.1-22.5 6.8-22.8 7.2 21.5 7.2 21.5l-14 1.3zm-15 22.3s-2.8-19.2 2.4-19.5 6.5 7.1 6.6 18.7l-9 .8zm44.2 0s2.8-19.2-2.4-19.5c-5.1-.2-6.5 7.1-6.6 18.7l9 .8zm-29.5 25.5s-5.4-39.7 6.6-39.7c15.4 0 7.9 39.7 7.9 39.7m-7.9-39.8l1 39.8m2.7-145.3V58.2m-5.3 6.8h10.6"/></svg>