<svg version="1" xmlns="http://www.w3.org/2000/svg" width="288" height="288"><path fill="none" stroke="#000" stroke-width="2" stroke-miterlimit="10" d="M67.3 182.3c-5-18.1-12-43.9-12-43.9-1.7-6.4 2-13 8.4-14.7l23.1-6.3c6.4-1.7 13 2 14.7 8.4l16.8 61.2c1.7 6.4-2 13-8.4 14.7L86.8 208c-3.5 1-7 .3-9.8-1.6"/><path fill="none" stroke="#000" stroke-width="2" stroke-miterlimit="10" d="M72 179.4c-4-14.5-10.1-36.7-10.1-36.7-1.7-6.4 2-13 8.4-14.7l13.1-3.6c6.4-1.7 13 2 14.7 8.4l13.4 49c1.7 6.4-3.6 7.2-10 9l-13.1 3.6c-1.3.4-2.6.7-3.7 1m-25.1-41.2l-15.7 22.4 28.5 43.7"/><path fill="none" stroke="#000" stroke-width="2" stroke-miterlimit="10" d="M62.4 184.8l23.5-12 7.4 10-18.7 27"/><path fill="none" stroke="#000" stroke-width="2" stroke-miterlimit="10" d="M84.4 177.1l-6.5 4 5.7 6.1 5-5z"/><circle transform="rotate(-15.343 96.792 198.915)" fill="none" stroke="#000" stroke-width="2" stroke-miterlimit="10" cx="96.8" cy="198.9" r="3.8"/><path fill="none" stroke="#000" stroke-width="2" stroke-miterlimit="10" d="M135.4 81.9l1.2 48.3 70.8 3.4 8.8-49z"/><path fill="none" stroke="#000" stroke-width="2" stroke-miterlimit="10" d="M142.7 89.7l.9 34.9 57.8 3.1 5.8-36.5zm24.2 42v6.9m8.9.7l1-7.2m-21.2 5.6l35 2.7v6l-34.4-2.8zm-24.9-36l-30.5-27.3m31.7 15.3l-11.3-13.1m7.6-25l12.4 25m69.5 2l9.6-20m-1 22.3l12.5-11.5m-11.5 21l25.5-10.7m-89.6 123.2l-4.5-39h76.3l-4 41.7 16 29.3h-94zm0 0l67.8 2.7m-70.4 5.5c.9-.1 74.2 1.2 74.2 1.2m2.8 5.3l-79.5 1.2m-2.1 6.6h85m-68.7-22.1l-5.8 31.6m15.3-31.3v31.3m10.9-30.7l2 30.7m9.3-30.4l6.3 30.4m2.4-30.1l10.3 30.1m0-29.6l10.2 29.6"/><path fill="none" stroke="#000" stroke-width="2" stroke-miterlimit="10" d="M156.2 170l66.7 1.4-3.2 30.8-59.8-2z"/><circle fill="none" stroke="#000" stroke-width="2" stroke-miterlimit="10" cx="188.7" cy="167.3" r=".7"/><path fill="none" stroke="#000" stroke-width="2" stroke-miterlimit="10" d="M163 180.9l3.1 10.5 2.4-7.8 4.6 9 3.2-12.7m6.6 1l3.1 10.5 3.4-8 3.6 9.3 3.2-12.8m5.6 1.4l3.1 10.5 3.3-8 3.6 9.3 3.3-12.8"/><circle fill="none" stroke="#000" stroke-width="2" stroke-miterlimit="10" cx="215.7" cy="193.2" r=".6"/></svg>