<svg version="1" xmlns="http://www.w3.org/2000/svg" width="288" height="288"><path fill="#27AAE1" d="M159.7 104.5l-23.1 36.6 11.1-1.1h1.2l18.1-28.6-.8-6z"/><g fill="none" stroke="#000" stroke-width="2" stroke-miterlimit="10"><ellipse cx="147.7" cy="201.2" rx="59.6" ry="61.2"/><path d="M105.3 159.1l3.1-.8s1.7.7 2.5.8 4.1.1 4.7-.4c.6-.6 1.8-1.6 2.5-1.6s2.3-.3 3.1 0c.8.3 3-.4 4.1-.1 1.1.3 5.5.6 6.6-.1 1.1-.7 4.5-2.2 4.5-2.2h2.5s3.5 1.8 4.2 2.2c.7.5 2.1 2.7 1.8 3.4-.3.7-1.1 3.7-1.1 3.7l-.1 4.7 1.3.8 4.5-1.6 4.4-2.5 3.5-2.1 4.9-.4 1 1v2.4l-2.5 3.3.7 2.3 3.3 3.3 1 2.3 1.8 3v2.1h-10.9s-.7 3-.8 3.5c-.1.6-.3 3.8-.3 3.8s-.8 2.3-2 2.5c-1.1.3-3.3 0-3.3 0l-3.7 1s-1.6 1.8-1.6 2.5.6 1.6 1.1 2.8c.6 1.3 2.1 3.3 1.4 3.8-.8.6-1.8 2-3.3 1.7s-3.5-.1-5.2-1.6c-1.7-1.4-4.5-3.1-4.5-3.1s-1.7-1.3-4.1-1.1c-2.4.1-2.3-.3-3.3.6-1 .8-1 2.3-1 2.3l.8 3.9s1.6 3.5 2 4.2c.4.7 3.3 5.2 5.1 5.5s4-1.3 4.4 0 4.9 5.1 5.4 5.1c.4 0 3.1-.6 3.1-1.3 0-.7-.7-1.8-.1-3.5s.8-3.7 1.8-4.2c1-.6.1-.7 2.1-1.3 2-.6 4.2-1.3 4.2-1.3s1.8-.3 3.1-.3 3 .3 3 .7.4 1.3.4 2.5 1.4 4.1 1.7 4.5c.3.4 3 2.8 3.5 2.8.6 0 4.2 1.3 4.2 1.3l4.1 1.1 1.4 2.4v4.4l-1 2.3-1.6 4-1.7 3.8s.1 2.8-.1 4.1c-.3 1.3 1.6.4-.6 2.8-2.1 2.4-3.5 3.8-4 4.7-.4.8-3 4-3 4l-2.8 1.4-4.5.8-3-.7-2.8-3s-2.4-2.4-2.1-4.5c.3-2.1.4-2.5.6-3.4.1-.8.3-2.1.1-4.5-.1-2.4-.4-4.1-.4-4.1l-.6-2-2.8-1.5-.8-.4-3.4-2.4-.1-2.1-.6-2.3-1.1-2.4-3.8-2.8-4.5-1.8-4.8-.4-6.9-1.6s.4 1.7-1.7-1.1-3-4.1-3-4.1-1-5.1-1-5.9c0-.8-.8-3.4-.8-3.4h-2.1s-2.4-.2-2.5-.6c-.1-.4-1-2.5-1-2.5l-2.4-4.9v-2.4s-3.7 0-3.7.4 1.8 3 0 3.4c-1.8.4-2.8 2.1-3.5 1.3-.7-.8-3.1-4.4-3.1-4.4s-2-3.4-2-4.1c0-.7 1.1-9.2 1.6-9.3s4.5-2.1 4.5-2.1 2-2.5 1.4-2.8c-.6-.3-3.4-4.2-3.4-4.2m80.8-19.9s1.1 7.3 1.1 7.9c0 .6-.3 4.4.8 5.7s3.5 2 4.1 2c.6 0 1.3.1 2.4 0 1.1-.1 1.7.3 2.5.1.8-.2 3.1-.5 3.8-.5.7 0 2.5.1 2.5.1m12.1 23.7s-5.5 1.6-5.9 2-2.4 4.1-2.4 4.1l-3.8 5.2s-2.4 2.4-2.4 3.3v9.8l1.8 3.8s1.7 1.3 2.1 2.3c.4 1 .7 3.5.7 3.5s-.1 2.8 0 3.3 3.4 3.5 3.4 3.5M152.3 95.7h-17c-6.6 0-12-5.4-12-12V48.8c0-6.6 5.4-12 12-12h17c6.6 0 12 5.4 12 12v34.9c0 6.6-5.4 12-12 12z"/><path d="M123.3 68.9s4.8 1.4 10.4 0c5.6-1.4 8.5-4.1 15.5-1.4 7 2.7 15.2.5 15.2.5m-41.1-5.9s-9.2 5 0 10.2m41-11.3s8.5 6 0 10.1"/><path d="M156.6 104.1c7.1-.6 24.1-9.9 24.1-9.9-2.5-5.4-7.8-57.6-12.5-64.1s-24.3-.9-24.3-.9-24.9-5.1-27.6 9.4c-2.7 14.5-7 47.2-10.7 52.4 0 0 9.1 9.2 22.4 13.1"/><path d="M138.1 95.7l.9 8 11.8.4v-8.8"/><path d="M120.1 147.3c1.3-16.6 1.9-31.7 1.1-42.9 0 0 30.9-2.2 45 1 0 0 2.2 16.4 4.9 39.4"/><path d="M121.7 105.4l-70 24.7 4 40 65.7-43.4"/><path d="M51.9 132.6H37.3l-2.2 4.3 6.7 3.7-16.7 7 11.2 8.8 17.4-8m112.5-43l70.1 24.7-4 40-63.4-43.7"/><path d="M236 132.6h14.6l2.3 4.3-6.8 3.7 16.8 7-11.3 8.8-17.3-8m-85.4-8.4c9.9-15.6 18.1-28.6 18.1-28.6l-.8-6s-7.6-1.3-11.5-1.3c0 0-12.2 19.8-22.6 38.3"/></g></svg>