<svg version="1" xmlns="http://www.w3.org/2000/svg" width="288" height="288"><path fill="#27AAE1" d="M134.7 89.8L100.3 144l-2.4 22s5.4-5.2 7.3-7.5c1.9-2.3 26.6-38.3 26.6-38.3l10.6-18-.1-12.6-7.6.2z"/><g fill="none" stroke="#000" stroke-width="2" stroke-miterlimit="10"><path d="M124 82.5h-2.7c-6.6 0-12-5.4-12-12V55c0-6.6 5.4-12 12-12h2.7c6.6 0 12 5.4 12 12v15.5c0 6.6-5.4 12-12 12z"/><path d="M109.3 64.7s7.5 1.4 13.3 0c5.8-1.4 10.2 0 13.3 1.8m-26.6-7.8s-6 3.1 0 7.2"/><path d="M102 88.3c-4.6-2.1-7.3-4.7-7.3-4.7 2.4-2.1 1.7-9.2 4.9-30.7 3.1-21.5 25.1-14.4 25.1-14.4s10.3-2.5 13.2 5.3c3.1 8.3 1.2 39.4 2.4 40.8 0 0-3.6 2.4-6.2 4.2"/><path d="M117.2 82.5l.5 5.7 10 .1v-5.8m-22.1 7.1s26.9-2 36.7 0c0 0 1.2 97.6 9.9 120.3 0 0-21.9 15.4-59.6 5.1l13-125.4z"/><path d="M105.6 89.6S91.1 75.2 77.9 149c0 0 8.9 8.4 21 8.3"/><path d="M83.4 153.7l-1.1 9.2 5.3 10.4 5.4-3.6.6-12.4m0 6.2l2.7-.6 1.6-5.6m32-68.7c-7 12.2-22.9 39.9-29.6 51.4m42.1-37.8s-27.4 49.4-44.8 64m44.9-76.4l43.9 14.6s-10.3 29.9-10.7 30.5l-32.9-24.4m43-3.6c1.2.4 2.1.8 2.1.8L204 109l4.7 3.7-16 2.1-1.5 7.3-3.4 1.3-1.9-10.5s-.7-.2-1.6-.5m-77.6 105.4c.6 1.2 4.7 23.9 4.7 23.9h4.4l3.4-22.8m8.4-.3l2.7 21.6h4.2l3.7-24.3"/><path d="M112 241.7l-17.4 4.4 11.4 9.1 9.7-12.5zm17.8-.7l4.6 13.2 15.8-7.6-15.7-6.4z"/><circle transform="rotate(-5.241 199.528 119.163) scale(.99998)" cx="199.5" cy="119.2" r="1.2"/><ellipse transform="rotate(-5.241 196.857 127.444) scale(.99998)" cx="196.9" cy="127.4" rx="1.7" ry="2"/><circle transform="rotate(-5.241 205.33 120.982) scale(.99998)" cx="205.3" cy="121" r="1.4"/><circle transform="rotate(-5.241 197.54 133.318) scale(.99998)" cx="197.5" cy="133.3" r=".8"/><ellipse transform="rotate(-5.241 204.665 128.689) scale(.99998)" cx="204.7" cy="128.7" rx="1.8" ry="2.1"/><circle transform="rotate(-5.241 203.403 138.189) scale(.99998)" cx="203.4" cy="138.2" r="2.1"/></g></svg>