<svg version="1" xmlns="http://www.w3.org/2000/svg" width="288" height="288"><path fill="none" stroke="#000" stroke-width="2" stroke-miterlimit="10" d="M139.2 72.8l2.5 31.5h9.8l2.7-31.5z"/><path fill="none" stroke="#000" stroke-width="2" stroke-miterlimit="10" d="M140.9 91.5c-16.3.1-34.7 1.8-53.5 6.8V94s22.1-8.4 53-9.1m12.6.1c14.5.7 30.3 3.2 46.3 9v4.3s-18.9-5.4-46.4-6.6m-9.5 12.6l-1.4 98.3m6.2-98.3l3.5 97.6m-36.2 2.4c1 0 65.5-4.2 65.5-4.2l-4.2 14-59.8-2-1.5-7.8zM88.2 97.4l-15.6 51m18.9-51.2l23.6 52"/><ellipse fill="none" stroke="#000" stroke-width="2" stroke-miterlimit="10" cx="93.6" cy="150.7" rx="21.9" ry="8.4"/><path fill="none" stroke="#000" stroke-width="2" stroke-miterlimit="10" d="M71.8 151.5l8.7 14.8h24l9-12.1m62.1-1.5l20.2-55.3m19.5 55.3l-15.9-54.4"/><ellipse fill="none" stroke="#000" stroke-width="2" stroke-miterlimit="10" cx="195.5" cy="154.4" rx="20.5" ry="6.9"/><path fill="none" stroke="#000" stroke-width="2" stroke-miterlimit="10" d="M175.6 156.1c.8.7 7.6 12.9 7.6 12.9l25.2 1.3 7.5-15.9"/></svg>