<svg version="1" xmlns="http://www.w3.org/2000/svg" width="288" height="288"><path fill="#27AAE1" d="M136.9 112.5s-1.9 7.9-13 10.8c0 0 3.7 1.4 5.2 2 1.5.6 30.8 0 30.8 0l14.9-6.5s-12-7.4-18.6-8.1c-6.7-.6-19.3 1.8-19.3 1.8z"/><g fill="none" stroke="#000" stroke-width="2" stroke-miterlimit="10"><path d="M94.2 126.2h108l-9.5 30.8-86.5-1.3zm24.3 29.7L107 189.5h15.7l7-33.4"/><path d="M173 156.7l7.2 31.5H196L184.5 157m-53-30.8l-26.3-10 10 10"/><path d="M109 120l-21-6 11.5 12.2m58 0l22.2-8.7-6.7 8.7m1.7 0l24.9-10-9.4 10m-81.2 6.5l81.4 3.8M178 141h-30.6m-32.7 4.2c.4 0 46.3 1.5 46.3 1.5m-37.1 3.9h26.6m-37.6 38.9l8.2-27.5m59.4 3.6l4 17.5"/><ellipse transform="rotate(-74.948 123.903 110.808)" cx="123.9" cy="110.8" rx="12" ry="13.2"/><path d="M136.9 112.5s16.5-8.7 38.4 6.7"/></g></svg>