<svg version="1" xmlns="http://www.w3.org/2000/svg" width="288" height="288"><g fill="#FFF"><path d="M162.8 172.9l-.1-.1c1.6-.3 3.1-.7 4.3-1.1l-1.5-20.2 7.7-7.6c.2-4.7-10.5-30.4-10.5-30.4-4.1-1.7-8.2-2.5-12.2-2.9h1.6c2.3-2.5 3.7-6.3 3.7-10.5 0-7.4-4.4-13.4-9.8-13.4s-9.8 6-9.8 13.4c0 4.2 1.4 8 3.7 10.5h1.1c-8.2.7-14 2.9-14 2.9l-.1 1.2c-.2.5-9.4 24.6-10.2 30 0 0 3.6 7.2 6.7 8.8l2.7-30.4-4.3 48.6s1 .1 2.6.3l-7.7 4.4c-2.2 1.1-3.9 1.8-3.9 1.8l-3.3 23.5 67.2-.2-5.2-23.1c0 .1-5-3.3-8.7-5.5zm119.7 27.3l-3.5-26-13-12.2-1.2.4-12.2-51.1c-1.1.1-7.5-.4-15.5.5l3.8-.5c1.6-3 2.4-7.1 1.8-11.5-1.1-8.3-6.4-14.4-11.9-13.7-5.5.7-9.1 8-8 16.3.6 4.5 2.4 8.4 4.8 10.8l5-.7c-5 .9-10.2 2.3-15 4.7v.1l-.1-.1-8.7 36.1 1.9-7.8-1 .8 7.8-29.1c-.8.9-5.4 19-8 29.3l-9.8 7.8-7 .7-1.5 40 19.4 4.6c-.3 1.3-.5 2.1-.5 2.1l72.4-1.5zM221 138.7l.1-.2c1.1 7.2 1.9 13.5 1.5 13.5-.2 0-1.8.1-4.1.4l2.5-13.7zM77.1 199.6l19.4-4.6-1.5-40s-2.8-.3-6.8-.7l-9.6-6.6-.2-.1c-2.5-10-7.4-29.5-8.3-30.4l8.1 30.3-8.1-30.3c-4.7-2.4-10-3.9-15-4.7l5 .7c2.4-2.4 4.2-6.3 4.8-10.8 1.1-8.3-2.5-15.6-8-16.3-5.5-.7-10.8 5.4-11.9 13.7-.6 4.4.2 8.5 1.8 11.5l3.8.5c-7.9-.9-14.3-.5-15.5-.5L30 133.1l-2.6 10.8-4.4 18.6-1.3-.5-13 12.2-3.5 26 72.3 1.5s-.2-.8-.4-2.1zm-10.6-59.5l2.6 12.2v.1c-2.2-.2-3.7-.4-3.9-.4-.4 0 .3-5.4 1.3-11.9z"/><path d="M88.2 197l-3.9.9v3.7h20l-5.8-3.7zM221 138.7l-2.4 13.6s2.5-13.1 2.4-13.6zm-31.8 59.2l-5.8 3.7h20.1v-3.7l-3.9-.9z"/></g><g fill="none" stroke="#000" stroke-width="2" stroke-miterlimit="10"><path d="M5.2 200.2l3.5-26 13-12.2 13.5 5s9.3 9.8 10.3 9.8 26-.2 26.5.8 5.5 24.1 5.5 24.1m32 .1l3.3-23.5s7.6-3.6 12.5-5.9m37.5.5c3.7 2.2 8.7 5.6 8.7 5.6l5.2 23.1m105.8-1.4l-3.5-26-13-12.2-13.5 5s-9.3 9.8-10.3 9.8-26-.2-26.5.8-5.5 24.1-5.5 24.1M55.8 188.4l-1.8 4.8m1.8 1.8l3.4-5.2m68.1-12.8l-3.5 3.2m7.2-1.6l-4.7 4.9m9 7h6m-6 3.5h7.9m15-5.6l1.6 4m.7-7.2l2.8 6.3m68.7-3.1l1.7 4.8M232 195l-3.5-5.2m44.5-4.6l-5.3-3.4m3.8 6.6l-5.8-3.2M46.9 111.3c-1.6-3-2.4-7.1-1.8-11.5 1.1-8.3 6.4-14.4 11.9-13.7s9.1 8 8 16.3c-.6 4.5-2.4 8.4-4.8 10.8"/><path d="M77.1 199.6l19.4-4.6-1.5-40s-28.8-3-29.8-3 5-34.8 5-34.8c-14.2-7.2-33-5.8-35-5.9L23 162.5m43.7-23.8c-.1.5 2.4 13.6 2.4 13.6m1.1-35.1c1.1 1.2 9.7 36.2 9.7 36.2m-2.1-7.1l10.4 8m-3.9 43.6v3.7h20l-5.8-3.7-10.3-.9m-22.9-81.5s-23.9 8.7-35.3 17.6m-2.6 10.8s27.4-16.8 41.2-17.3m172.3-15.3c1.6-3 2.4-7.1 1.8-11.5-1.1-8.3-6.4-14.4-11.9-13.7-5.5.7-9.1 8-8 16.3.6 4.5 2.4 8.4 4.8 10.8"/><path d="M210.7 199.6l-19.4-4.6 1.5-40s28.8-3 29.8-3-5-34.8-5-34.8c14.2-7.2 33-5.8 35-5.9l12.2 51.2m-47.3-45.3c-1.1 1.2-9.7 36.2-9.7 36.2m13.2-14.7c.1.5-2.4 13.6-2.4 13.6m-8.6-6l-10.4 8m22.8-38.8s23.9 8.7 35.3 17.6m2.6 10.8s-27.4-16.8-41.2-17.3m-15.6 71.3v3.7h-20.1l5.8-3.7 10.4-.9m-59.7-86.4c-2.3-2.5-3.7-6.3-3.7-10.5 0-7.4 4.4-13.4 9.8-13.4s9.8 6 9.8 13.4c0 4.2-1.4 8-3.7 10.5"/><path d="M162.7 113.5c-17-7-35.7 0-35.7 0l-5.2 58.2s33.5 4.5 45.2 0l-4.3-58.2zm.6 8.2s-23.4 35.1-40.9 43.5m31.6-54.1s-18.9 26.3-30.2 38.4"/><path d="M126.9 114.7s-9.4 24.6-10.2 30c0 0 3.6 7.2 6.7 8.8m39.3-40s10.7 25.7 10.5 30.4l-7.7 7.6"/></g></svg>