<svg version="1" xmlns="http://www.w3.org/2000/svg" width="288" height="288"><path d="M138.8 137.4l-9.7 2.5s.3 2.8.5 5.3l13.7-1.8-4.5-6zm79.3 78.4s-1.5 4.5-1.4 5.6l-26.7 3.7 9.4-10.7c.1 0 .2-.1.2-.1 0-35.7-12.8-54.3-12.8-54.3l-.3.4c1.2-1.7 2.2-3.6 2.9-5.8 2.5-7.9-.1-15.7-5.6-17.5-5.6-1.7-12.1 3.3-14.6 11.2-2.1 6.6-.6 13.1 3.1 16.1l-1 .2c0 .2.1.5.1.7-10.4 2.7-23.4-11-23.5-11.2l-1.5 1.4.1.1-.7-.4c-.9.6-2 .2-3 0-.6.3-1.4.6-2.2.6-.2.2-.3.5-.3.8 0 .5.4.8.7 1.2l.2.2-1.2-.7c3.7 7.4 15 26.8 33.1 27-1.5 18.3-8.6 30.1-8.6 30.1l2.1.9c-.3.3-.6.7-.8 1.1v-.4l-13.5 15.3s5.2 5 15 4.1v-.2h.1l-3 5.2s32.5 1.4 53.5-14.8l4.9 3.1 14-3.1-18.7-9.8z" fill="#FFF"/><path d="M142.2 143.7l1.6-1.2-4.9-6.5-11.2 2.9.1.9s.3 2.8.5 5.3l2-.2c-.1-1.6-.3-3.4-.4-4.5l8.2-2.1 4.1 5.4zm97.3 82l-22.3-11.6-.4 1.1c-.3.9-1.1 3.5-1.4 5.1l-23.2 3.2 7.5-8.5.6-.2v-.8c0-32.8-10.5-51-12.6-54.3 1-1.5 1.8-3.2 2.3-5.1 1.3-4 1.3-8.2.2-11.7-1.2-3.6-3.5-6.1-6.5-7.1-6.1-1.9-13.2 3.4-15.8 11.8-2.1 6.8-.7 13.6 3.2 17 0 .1 0 .2.1.3-10.4 2.7-23.4-11-23.5-11.2l-1.1 1c-.1-.1-.1-.2-.2-.3l-1.7 1.1c9.3 13.7 20.7 16.9 29.4 16.9 7.7 0 13.2-2.5 13.3-2.5l-.8-1.8c-.4.2-5.7 2.5-12.8 2.5-.1-1.5-.3-3-.5-4.6l.9.3c.8.3 1.7.4 2.6.4 3.4 0 7-2 9.7-5.3 2.7 4.5 11.8 22.2 11.9 51.9-3.3 1.2-18.8 6.3-32.6.2 1.7-3.1 6.7-13.6 8.1-28.7 3-.1 6.2-.6 9.5-1.9l-.7-1.9c-23.4 8.5-38-16.8-42-24.7l-1.8.9c3.4 6.9 14.7 26.5 32.9 27.5-1.6 17.2-8.3 28.5-8.4 28.6l-.6.9 1 .5c.2.1.5.2.7.3l-13.8 16 .7.7c.2.2 4.8 4.5 13.3 4.5h.6l-2.8 4.9 1.6.1h1.9c7.2 0 33.6-1 51.8-14.6l4.6 2.9 17.1-3.8zm-91-68.2c3.9 3.5 11.9 9.9 19.8 9.9 1.1 0 2.1-.1 3.2-.4.2 1.2.3 2.4.4 3.6-7.2-.5-15.8-3.6-23.4-13.1zm26.3 7c-5.1-1.6-7.3-8.9-5-16.2 2-6.4 6.8-10.8 11.3-10.8.7 0 1.4.1 2 .3 2.4.7 4.2 2.8 5.2 5.8 1 3.1.9 6.8-.2 10.4-2.3 7.4-8.3 12.1-13.3 10.5zm43.6 52.4l15.3 8-10.9 2.4-3.3-2.1.2-.2v-5.4l-2.1.3c.1-.8.4-1.9.8-3zm-64.9 13.9l12.8-14.5-.6-.5c3.3 1.3 6.6 2.1 9.9 2.5l-9.1 15.8c-6.8.4-11.3-2.1-13-3.3zm12.4 8.3l11.9-20.7c.9.1 1.9.1 2.8.1 6.3 0 11.8-1.3 15.3-2.3l-8.8 10 30.5-4.2v2.2c-17.7 14-44.4 15-51.6 15 0-.1 0-.1-.1-.1z"/></svg>