<svg version="1" xmlns="http://www.w3.org/2000/svg" width="288" height="288"><path fill="#27AAE1" d="M156.8 88.5l-33.4 40.2-1.3 15.3 45.2-50.9-3.3-3.4z"/><g fill="none" stroke="#000" stroke-width="2" stroke-miterlimit="10"><path d="M146 79.5h-5.2c-6.6 0-12-5.4-12-12V51.6c0-6.6 5.4-12 12-12h5.2c6.6 0 12 5.4 12 12v15.9c0 6.6-5.4 12-12 12z"/><path d="M128.8 58.9s5.8 2.7 9.1 1.5c3.3-1.2 6.8-1.7 11.8 0s8.2-1.9 8.2-1.9m-29.1-2.8s-6.8 2.6 0 7.9m29.8-7.8s6.8 2.6 0 7.9m-19.4 16.2c-.6-.5 0 6.5 0 6.5l10.1.3v-6.8s-7.7 1.9-10.1 0z"/><path d="M167.2 89.7c2.2-.6 4.3-1.3 4.3-1.3-8.2-7.8-5.3-43.8-8.8-51.8s-19.1-4.8-19.1-4.8-17.7-3.3-19.9 8.2c-1.9 10-1.4 36.5-4.2 45.6l6.4 1.8"/><path d="M124.6 87.4s27.7-3 42.3 2.7c0 0-9 90.5 11 138.3 0 0-44.7 14.2-70.3-10.8 0 0 15.7-74 15.7-83.3 0-9.4 1.3-46.9 1.3-46.9z"/><path d="M123.9 87.6l-25.1 56 17.2 9.2s7.5-39 7.8-41.9m-12.6 40.2l-3.5 8.3-8.1 5.1-3.5-1.5 8-16.1"/><path d="M111.3 150.4l2.5 6.1-.9 3.5-1.3.2-2.8-4.3m57.7-64.8l22.2 55.3-17.2 9.2-5.8-47.1s.6-13.4.8-16.6m10.6 61.6l3.5 8.4 8 5 3.6-1.4-8.1-16.2"/><path d="M177 152.8l-2.5 6.2.8 3.4 1.3.3 2.8-4.4m-49.3 72.5l2.9 12.8h1.6l2.9-11.8m21.3 1l-2.8 12.8h-1.7l-3.2-13.2m-18.2 11.2l-22.2 2.8 8.7 9 16.5-9zm23.2 2l22.2 2.8-8.7 9-16.5-9zm-2.5-158l-30.3 37.9-.6 14.7 43.8-49.1z"/></g></svg>