<svg version="1" xmlns="http://www.w3.org/2000/svg" width="288" height="288"><path fill="#27AAE1" d="M150.9 108.7c-1.9 1.6-25.7 29.6-25.7 29.6s-1 10.2 0 9.5c1-.7 31.9-37.6 31.9-37.6l-6.2-1.5z"/><g fill="none" stroke="#000" stroke-width="2" stroke-miterlimit="10"><path d="M140.1 101.5c-5.9 0-10.8-4.9-10.8-10.8v-7.9c0-5.9 4.9-10.8 10.8-10.8s10.8 4.9 10.8 10.8v7.9c0 6-4.8 10.8-10.8 10.8z"/><path d="M129.3 86.3s4.3 2 6.8 1.1c2.5-.9 5.1-1.2 8.8 0S151 86 151 86m-21.7-2s-5 1.9 0 5.9m22-5.9s5 1.9 0 5.9"/><path d="M122.4 106c2-6.7 1.7-26.3 3.1-33.7 1.6-8.5 14.7-6 14.7-6s11.5-2.3 14.1 3.6.5 32.6 6.5 38.4c0 0-1.6.5-3.2.9"/><path d="M137 101.9c-.5-.4 0 4.8 0 4.8l7.5.2v-5.1c0 .1-5.7 1.4-7.5.1z"/><path d="M126.2 107.4s20.5-2.2 31.3 2c0 0-6.7 67 8.1 102.4 0 0-33.1 10.5-52.1-8 0 0 11.6-54.8 11.6-61.7s1.1-34.7 1.1-34.7z"/><path d="M103.5 82.9l-8.7 8.2 17.7 28.6 12.7-3.2 1-9.1-8.2-3-1.9-21.5-6-2.3"/><path d="M105.1 75.3l-3.5-5.6 4.1-16.4h1.5v9.4s2.8 3.1 3.2 2.8 2.1-1.2 2.1-1.2l1.1 2.7-4.9 8.3 2.6 9.7-3.6 4.8-4.6-2.4 2-12.1z"/><path d="M103 64.4l5.5 2.4.7 3.2m-6.9-2.6l3.4 1.9.6 2.7m75.7 67.5L172 154l-15.4-31 .6-12.8z"/><path d="M177.6 146.5l5.3 4.1 7 .3 1.8-2.2-11.1-7.5"/><path d="M177.3 146.1l.6 4.8 1.8 2 .9-.4.3-3.8m-33.2-41.1l-22.5 28-.4 10.9 32.4-36.3zm-17.4 105.9l2.1 9.5h1.2l2.1-8.7m15.8.7l-2.1 9.5h-1.2l-2.4-9.8m-13.5 8.3l-16.4 2.1 6.4 6.7 12.2-6.7zm17.2 1.5l16.4 2.1-6.4 6.7-12.2-6.7z"/></g></svg>