<svg version="1" xmlns="http://www.w3.org/2000/svg" width="288" height="288"><path fill="none" stroke="#000" stroke-width="2" stroke-miterlimit="10" d="M77.3 114.7c-6.1-5.9-10.8-10.4-10.8-10.4m41.2 39.7s-13.6-13.1-25.1-24.2m-17.3 27.8c-12.5-4.8-23-8.9-23-8.9m64.2 24.8s-10.2-3.9-22.4-8.7m-25.4 24.8c-5.7-.5-9.5-.9-9.5-.9m31.4 2.9c-5.5-.5-11.2-1-16.3-1.5m38.7 3.6s-5.4-.5-12.7-1.2m89.4-38.5s13.6-13.1 25.1-24.2m5.3-5.1c6.1-5.9 10.8-10.4 10.8-10.4M181 163.5s10.2-3.9 22.4-8.7m18.7-7.2c12.5-4.8 23-8.9 23-8.9m-60.7 45s5.4-.5 12.7-1.2m9.7-.9c5.5-.5 11.2-1 16.3-1.5m5.6-.5c5.7-.5 9.5-.9 9.5-.9"/></svg>