<svg version="1" xmlns="http://www.w3.org/2000/svg" width="576" height="576"><path fill="none" stroke="#000" stroke-width="2.681" stroke-miterlimit="10" d="M233.8 304s14.2 16 42.8 16.2 53.2-8.1 53.2-8.1 21-14.6 22.2-25.4 2.2-15 0-19.5-13.8-20-13.8-22 1.2-10.3 1.2-10.3l44.2-2.2s-.2-4.5-4.2-6.8-36.2-18.2-36.2-18.2l-1.5-2.5s-9.5-14-21.5-14-21.8 4.2-21.8 4.2-4.5 12.2-3 17.5 5.2 13.5 5.8 14.2 5.5 15.5-4.8 17.5-21.5-1.5-24.8-2.5-28-4-39.8 1.5-29.6 23.4-29.6 23.4l-10 5.8s17.2 11.5 54 2.5"/><path fill="none" stroke="#000" stroke-width="2.681" stroke-miterlimit="10" d="M343.2 207.8s.8 6.2 0 8.2-11.5 13.4-3.8 19m-140.2 40.8s8.6 12.5 9.6 12.5 27.2 3 28 3S251 288 251 288"/><path fill="none" stroke="#000" stroke-width="2.681" stroke-miterlimit="10" d="M217.5 289.2L227 301s5.5 3.5 6.8 3 12-1 12-1m53 15.8L311 363l20.8 14 16.4-9.5-31.9-6.9-12.1-42.5m-42.9.4c-.1 1.2-10.3 40.7-10.3 40.7l25.2 18-28.2 8-2.2-25.8 9.9-42.6"/></svg>