<svg version="1" xmlns="http://www.w3.org/2000/svg" width="432" height="432"><g fill="none" stroke="#000" stroke-width="2" stroke-miterlimit="10"><ellipse cx="180.9" cy="96.9" rx="15.4" ry="24.5"/><path d="M185.8 120.1v7.1h-9.4v-6.8m24.7 6.8h-41.3l4.1 81.8h32.4zm-41.3 0l-15.8 38 3.5 50.7h6.4l1.9-46.3 5.3-15.5"/><path d="M153.8 215.8l4.5 7.8-3.5 2-3.6-3.8-.9 16.5-7.2-6.9 4.4-15.6m8.3-46.2l-11.8-4.4m52.3 43.8l-2.7 136.4h-6.7L180.1 209l-7.5 136.4h-7.7l-1-136.4m29.7 136.4l20.1 8.6-12.8 6.2-14-14.8m-14.3 0l-10.7 14.8-13-6.3 16-8.5"/><ellipse cx="247.4" cy="107.8" rx="14.1" ry="23.4"/><path d="M253 128.9c.1.9.4 5 .4 5m-9.5-3.4v3.4"/><path d="M256.4 133.4c-11.5.4-28 1.1-28 1.1l8.7 79.3h30.2V133m0 0l15.5 39.2-1.8 46.5-6-.8-1.7-44.5-6-12.7m7.7 57.5l-4.7 9.3 3.4 2.6 3.2-4.9 1 1.4-1 11.4 6.5-2.8L281 219m1.2-46.9l-8.9 1.3"/><path d="M228.4 134.5l-6 79.3 4.7.9 5.7-40.1"/><path d="M227.1 214.7l2.3 7.9-3.2 2.2-1.8-3.2-3.7 10.9-7.2-1 8.9-17.7m44.9 0l-1 128.8H260l-7.3-128h-2.1l-12.6 128h-7.2l6.3-128.8m29.2 128.8l20 10.6-16.4 4.3-9.9-14.9m-22 0l-3.4 17.3-16.3-2.4 12.5-14.9m-29.7-215.4s20.4.1 38.2.2m15.6.1c6.1 0 10.3.1 10.3.1l1.3 5.6-1.4 9.4-7.8.7-1.2-12.6m-55 8.3s13.7-1.4 27.5-2.8m34.5 6.4l-.3-7m-2.6 7l-.5-6.9"/></g></svg>