<svg version="1" xmlns="http://www.w3.org/2000/svg" width="576" height="576"><path fill="none" stroke="#000" stroke-width="2.681" stroke-miterlimit="10" d="M366.7 302.4s14.2 16 42.8 16.2 53.2-8.1 53.2-8.1 21-14.6 22.2-25.4 2.2-15 0-19.5-13.8-20-13.8-22 1.2-10.3 1.2-10.3l44.2-2.2s-.2-4.5-4.2-6.8-36.2-18.2-36.2-18.2l-1.5-2.5s-9.5-14-21.5-14-21.8 4.2-21.8 4.2-4.5 12.2-3 17.5 5.2 13.5 5.8 14.2 5.5 15.5-4.8 17.5-21.5-1.5-24.8-2.5-28-4-39.8 1.5c-11.8 5.5-29.6 23.4-29.6 23.4l-10 5.8s17.2 11.5 54 2.5"/><path fill="none" stroke="#000" stroke-width="2.681" stroke-miterlimit="10" d="M476.1 206.2s.8 6.2 0 8.2-11.5 13.4-3.8 19m-140.2 40.8s8.6 12.5 9.6 12.5 27.2 3 28 3c.8 0 14.2-3.3 14.2-3.3"/><path fill="none" stroke="#000" stroke-width="2.681" stroke-miterlimit="10" d="M350.4 287.6l9.5 11.8s5.5 3.5 6.8 3c1.3-.5 12-1 12-1m53 15.8l12.2 44.2 20.8 14 16.4-9.5-31.9-6.9-12.1-42.5m-42.9.4c-.1 1.2-10.3 40.7-10.3 40.7l25.2 18-28.2 8-2.2-25.8 9.9-42.6m-54.2 16.7l-2-6.2s-6.7-5.5-9.3-5.4c-2.7.1-8.2 3.1-8.7 3.3-.5.2-1.7 6.1-1.2 7.6s1.9 8-.1 8-10.2-2.8-15-1.8-13 6.7-13.7 9.3l-4.2 4.2 3 1.1.3 4.2s6.8 8.7 28 7.2 27-10.2 25-15.2-3.8-9.3-3.8-9.3l14.3-1.2.8-2.7-13.4-3.1z"/><path fill="none" stroke="#000" stroke-width="2.681" stroke-miterlimit="10" d="M288.6 346.8s6.2 1.8 7.3 1.7c1.2-.2 6.8-1 7.9-1.7m-21.4 4.9s8.7 2 13.4 1.7c4.7-.3 11.8-2.5 11.8-2.5m-19.9 8.5c.5.3 10-.8 10.5-1 .5-.2 7.7-2.8 7.7-2.8m-5.8 20.2l.7 7.8 6.8-3.8-7.5-4 1-12.2m21.3 12.2l2.9 6 8.1-3-11-3-5.2-13m-111.8-6.4l2.1 4 2.7 1.1 2.5 3.7s9.8 2.8 14.3 3.3 25.8-4.6 27.5-8.1c1.7-3.5 1.8-8.2 1.5-9-.3-.8-3.7-5.5-3.7-6s.3-5.2.3-5.2l14.2-.7v-2.3l-10.8-3.5-1.8-6.4-5-4.4s-5.5-.8-7.7 0-6.2 4.4-6.2 4.4-2.2 7.7 0 9.4c2.2 1.7.8 5 .8 5s-16.2.5-20.7 2.8-14.8 10.8-14.8 10.8 10.2 2.2 11 2.5 11.7-2.5 11.7-2.5"/><path fill="none" stroke="#000" stroke-width="2.681" stroke-miterlimit="10" d="M210.6 351.5h6.2l5.3-1.8m-3 29.5l7.7 6.6-7.7 2.8v-9.4l5.7-10.7m21 13.1l4.8 7 8.3-5.3-13.1-1.7-5.8-15.2m-69-24h13v-2.7l-9.3-3.3s-3.3-9.3-10.5-9.8-10.7 3.7-10.7 3.7v4.2c0 .8.7 3.9.8 4.4s2.3 4 2.3 4l-2 2s-9.7-1-15.5 0-13.2 9.9-13.2 9.9l-4 4.6 9.1 2.8 3.7 3.2s13.3 1.5 18.2 2c4.8.5 9-1.6 11.2-2s7.6-3.8 8.4-4.1c.8-.3 4.6-6.3 4.6-7.9 0-1.7-2.8-5.9-2.8-5.9l-3.3-5.1z"/><path fill="none" stroke="#000" stroke-width="2.681" stroke-miterlimit="10" d="M132.1 353.9s6.7-.3 7 0 6.3-2.5 6.3-2.5m-17.2 9.9s10.2-.6 10.9-.8c.7-.2 11.5-4.5 11.5-4.5m-7.8 23.7l.8 8.3 8.7-4-9.5-4.3v-13.1m22 13.6l2.6 6 8.6-3.8-11.2-2.2-6-13.3M45.3 361l-3.4 2.1 4.5 2.1-2.2 2s10.4 4.1 18.8 4.7 21.8-2 22.2-2 9.6-3.9 8.9-7.9-3.4-9.1-3.4-9.1-3.4-7.8.5-8.1c3.9-.3 14-1.2 14-1.2v-2.1l-13.1-5.9-1.5-4.6-3.4-3.3s-7.5-.4-9.8 0-5.1 2.1-5.2 4.9-.8 5.1 0 7.9 1 5.9 1 5.9-11.1-2-15.2.5-8.8 6.6-8.8 6.6l-7.9 5.5s7.8 2.9 9.4 3 13.2-2.2 13.9-2.4"/><path fill="none" stroke="#000" stroke-width="2.681" stroke-miterlimit="10" d="M52 357s7.2-.7 7.6-.7 4.6-1.6 4.6-1.6m-10.9 11s8.1.5 8.6.5m-4.5 16.4v8.8l6.9-2-6.9-6.8 5.5-10.8M83.4 385l4.2 6.4 7.8-4.4-12-2-4.5-13.7"/></svg>