<svg version="1" xmlns="http://www.w3.org/2000/svg" width="1920" height="1080"><path fill="none" stroke="#35ABDF" stroke-width="5" stroke-miterlimit="10" d="M1225.1 426.9c-169 21-100 179-100 179m73.9-195l28 16-28 18m-203.9 195s1-50 42-50 57 31 57 31"/><path fill="none" stroke="#35ABDF" stroke-width="5" stroke-miterlimit="10" d="M1091.3 589.8l2.8 32.2-30.8-12.8m-204.2 12.7s-2-44 54-41 54 52.6 54 52.6"/><path fill="none" stroke="#35ABDF" stroke-width="5" stroke-miterlimit="10" d="M976.6 603.2l-9.4 30.8-23.8-23.3m-213.3 29.2s-5-48 50-50 63 50 63 50"/><path fill="none" stroke="#35ABDF" stroke-width="5" stroke-miterlimit="10" d="M853 610.4l-9.4 30.8-23.7-23.3"/></svg>