<svg version="1" xmlns="http://www.w3.org/2000/svg" width="576" height="576"><g fill="#27AAE1"><path d="M267.6 107.4s-27.3 37.6 5.6 68c0 0-19.6.1-23.2-29.9-3.5-30.1 14.4-38 17.6-38.1zm-6.5 77.3l10.6 101 29.5 6.9-28.1 1.4-2 189.5-12.6 18.6-13.6-6.7 21.9-12-5.5-188.6-1.9-13.1-14.7-94.5z"/><path d="M246.7 199.9L227 232.1l30.3 50.7 2.1-1.1-1.9-10.9-20.8-36.8 12.2-19.9zm54.5 92.7l13.1 190.9 26.5 14.2-13.2 6.5-19.2-20.8L287.9 294z"/></g><g fill="none" stroke="#000" stroke-width="2.785" stroke-miterlimit="10"><ellipse transform="matrix(.9982 -.05925 .05925 .9982 -7.894 16.31)" cx="271.1" cy="141.3" rx="21.4" ry="34.2"/><path d="M283.3 109.3s-16.8 4.2-26.1 1.5m29 2.9c-1.5 1-17.6 5.8-32.1 2.6m34.1 2.3s-17.1 8.5-35.4 3.1M267 174l1 9.7m12.6-11v8.5m-35.9 6l64.3-9.5 2 114.5-49.7 1.8z"/><path d="M244.7 187.2l-30.7 43 39 54.8 6.4-3.3"/><path d="M249.5 213l-12.8 21 21.8 41.7M236.7 234l-22.7-3.8m39 54.8h-21l4.7 14.8 24.6-8.8M309 177.7l33-6.5-6-43.7-9.5-6.8-2.5-28.5h5.8l2.4 13.3h13l2.8 15.2-11 1.8-3-10.3"/><path d="M344.1 122.1l17.9 61.6-53 15.8m31.6-28l21.4 12.2m-51.6 109.8l7.3 189.9h-9.3l-20.5-189.9-10.5 189.9h-10.6l-5.5-188.6m56.1 188.7l27.9 12-17.7 8.7-19.5-20.7m-30.7-.1L263 504.3l-18.1-8.9 22.4-11.7m-22.5-372l-17.8-13m25.8 4.6l-16.1-24.6m33.6 20l2.8-27.7m13.1 30.3L297 78.7m-2.3 31.8l13-11.8"/></g></svg>