<svg version="1" xmlns="http://www.w3.org/2000/svg" width="1920" height="1080"><g fill="#27AAE1"><path d="M808.9 364.1c-.2.1-.4.3-.5.5.2-.2.4-.3.5-.5zm267.5-54.9c-.2-.6-.4-1.1-.6-1.7-1.5.3-1.9 1-1.4 2.2.6-.1 1.3-.3 2-.5zm-173.9 425c-.4.4-.9.8-1.4 1.1.9.7 1.2.2 1.7-.4-.1-.2-.2-.4-.3-.7zm-140.5 21c.2.6.4 1.1.6 1.7 1.5-.3 1.9-1 1.4-2.2-.7.1-1.3.3-2 .5zm606.3-294.3h-.3c-.1.1-.3.2-.4.3.2.2.4.2.6.3 0-.2 0-.4.1-.6zM988.2 306.1l-3.7.3c1 .3 2.1.2 3.7-.3zm13.3 106.6c-.3-.1-.5-.2-.8-.3-.5.7-1.1 1.3-1.9 1.8 1.4 1 1.5-.7 2.7-1.5zm240 309c-.7.4-1.5.7-2.5.8-3.2.3-4.3-1.5-6.1-3.3-1-.2-2-.9-2.7-2.3-5.8 8.9-20.8.3-27.7 5.6-3 .7-3.8-2.2-6-2.7-.5 1.9 2.1 4.1 3.5 6.4l42.2-4c-.3-.2-.5-.4-.7-.5zm34.5-2.7c-.1-.1-.2-.2-.2-.3-.3.1-.5.2-.8.4l1-.1zm6.2-.6l1.6-.2c-.2-.3-.4-.6-.7-.9-.3.4-.6.7-.9 1.1zm-261 24.8h.2c-.1-.2-.2-.6-.5-1.1.1.3.2.7.3 1.1zm287.6-27.3l1.3-.1c-.1-.2-.1-.3-.2-.4-.5.1-.8.3-1.1.5z"/><path d="M565.6 783.6c1.7-.4 2.7.4 3.9.8.4.8 0 1.4-.6 1.8l15.9-1.5c-1.4-1.5-2.4-3.6-2-5.7 5.3-3.8 13.1-5.3 16.5 3.5-.7.2-1.1.5-1.4.9l23.3-2.2c-1.1-1.4-1.6-3-.7-4.4 2.3 0 5.5 2 5.9 3.9l14.5-1.4c-1.9-5.1-2.6-8-9.9-9.6-1.3.5 1.5 1.2.1 2.4-3.5-.7-5.8 1.9-8.1-.3-.4-2.2 2.9-4.6 4.7-3.1.3-1.4-4.6-2-5.3-4.7 2.9-2.6 10-2.5 15.2-4.1-1.1-2.1-1-5.1.3-7.4 6.6-2.7 7.5-3.9 13.2-1.7.6 3.7 3.5 5.5 3 8.4-2.3 1.2-5.4-.6-7.7.8 2.5 1.8 6.5.6 8.8 4.4-3.2 4.5 1.6 9.2 5.2 13l1.7-.2c.6-.2 1.3-.3 1.9-.5-.8-1.9-3.1-1.5-4-3.2-1.5-4.1 2.3-5.7 4.8-6.8.1-2-2.4-5.1 1.1-7-1.4-2.4-4.7-1.9-7.3-2.3-3.5-2 1.7-6.4 1.5-5.9 1.5-4.2-1.8-9.5-3.6-14.4.4-1.5 0-3.4 3-3.9-1.8-1.8-6 1.8-7.3-2.3-.4.6-1.3 1-2.4 1.3-1-1.5-2.7-3-3.6-4.6l-4.2.4c.4 3.7-.2 7.4-2.3 10.6 2.2 1.4 4.5 2.7 5.7 5.8-.9 2.7-8 3.6-9.8 5.1 2.5-2.4-4.4-1.3-4.6-4.9-.8-1.9 1.6-2.4 1.5-4.1-4-3.1-6.7-7-8-10.9l-12.2 1.2c-2 2.2-5.4 4.4-7.2 6 1 2.3 5.2 2.9 4.2 5.6 2.2-.3 2-1.6 4.4-1.8 5.7 5.4-2.8 7.3-8.2 9.6-.9 1.3.3 3.6-3 3.9-1.7-2.8-4-4.7-7-5.5-3.1-4.3 4.5-10 1.8-15.2 1.9-1 2.6-.1 4.2-.5 1 1.7-.6 2.1 1 2.8 1.9-1.3 3.3-2.8 4.4-4.4l-13.3 1.3c-.3.6-1 1-1.9 1.1.1-.3.2-.6.2-1l-5.7.5c-.1.1-.2.1-.3.2-.6.1-1 .1-1.4 0l-5.8.5c-.2.2-.6.4-1.1.5-.6 0-1.1-.1-1.6-.2l-9.1.9.3.9c-.9.2-1.8.5-2.6.7-.2-.5-.4-.9-.5-1.3L546 737c-.3.5-.5 1.1-.7 1.7 9.1-8.3 16.1 15.2 1.5 12.5-.7-2.4-2.3-3.3-3.8-4.5-.3-1.7 1-5.9 1.4-9.5l-7.5.7c-1.3.5-2.4.5-3.3.3l-33.9 3.2c3.5 1-.2 6.8-1.8 8.8-2 0-3.5-.8-4-3.2 1.6-1.9 4.3-3.3 5.1-5.5l-8.8.8c0 .2.1.5.1.7 1 2.2 1.9-1 3 .4 1.6 1.6-.1 3.1-2.3 3.7 1 2.5-.2 4-.9 5.8.9.8 3.3.1 2.1 1.9-2 1.1-1.9-1.1-3.2-1 3.7 4.3 13-.3 16.2 4.8 6-3.5 9.8-7.3 17.3-8.3-4.1-.2-7.6-1.3-12.4-.3-6.4-10 11.6-5.3 16.8-5.7 3.8 3.1-1 5.2-3.3 7 1.8 1.8 4.3 2.5 6 4.5 2.3-2.6 5.2-5.4 9.3-4.3 1.2 1.6-1.3 1.6-1.2 2.8 0 1.7 1.5 1.2 1.7 2.6 5.2-1.2 6-.1 9.9-2.7.1 1.9 2.2.6 2.3 2.4-3 2.4-7.3 5.5-8 10.1-1.7.6-3.6-3.2-.3-3-.4-2.8-3.6-1.2-3.8-4.5-3.1 0-6.6 2-8.7-2-5.8 8.9-20.8.3-27.7 5.6-3 .7-3.8-2.2-6-2.7-.6 2.4 3.4 5.1 4.3 8-4.6-2.6-11.3-1.9-16.9-2.8-3.3-6.4-1.1-9.4 5.5-13.1-9.7 1.5-11-3.4-10.3-9l-153.3 14.5c-2.2.2-4.2-1.4-4.4-3.6l-16.5-174.4c-.4.5-1 .8-1.9 1.1-.2-.6-.4-1.1-.6-1.7 1.1-.5 1.7-.2 2.4-.2l-1.1-11.8c-.3.1-.7.2-1.1.3-1.2-1.3-2.4-2.6-3.1-4.7.7-1.1 2.8-1.6 3.4-2.7 0 .1.1.1.2.2l-1.4-14.7c-.5.2-1.2.2-1.7 0-.2-.9.5-1.4 1.6-1.7l-6.6-69.6c-.7-.2-1.3-.6-1.9-1.1-.1-.7.6-1.4 1.6-2l-4.1-43.7c-.2-2.2 1.4-4.2 3.6-4.4l168-15.9c-2-2.1-5.7-1.5-8-3 3.6-.3 3.5-2.2 4.5-3.7 2.6-.3 6.6-1.7 8 2.1-2.7 1.5-4.5 2.6-4.2 4.5l11.9-1c1.3-3 5.7-6.1 5.2-9.9 1.6.9 3-.9 7-.7 2.8 4.8-1.1 8.8-4.7 9.2-.1.2-.1.4-.2.7l53.6-5.1c-.5-.8-.8-1.7-.8-2.4 1.4.6 2.8 1.2 4 2.1l17-1.6c.2-.1.5-.1.8-.2v.1l36.8-3.5c-.3-.1-.7-.1-1.1-.1.9-.7.4-2 2-2.4.3.7.5 1.5.8 2.2-.1.1-.2.1-.4.1L727.8 382c-.1-.1-.2-.2-.2-.3 1.6-.9 3.2-.7 4-.1l73.5-7c-.4-.3-.8-.6-1-1.3.6.2 1.3.3 2.2 0-.2.4-.2.8-.2 1.2l1.5-.1c-.3-.6-.4-1.2.3-1.4 1.2-.4 2.1.3 2.5 1.2l41.1-3.9c-.3-.1-.7-.1-1.1-.1-.2-.7-.3-1.4-.3-2.1-2.1.3-3.4.5-4.1 2.6-.8.1-.6-.5-.2-.6-6.4-2.7-4-8.2 1.2-10.8 4.7-.9 6.2 1 6.6 3.5 3.2.1 4.7 2.8 5 5.7 2.4.4 2-2.8 3.1-1.4.8.5.9 1.3.7 2.1l6.1-.6c0-.1-.1-.2-.1-.3 2.7-1.2 8.8-5.9 11.3-.8l8.3-.8c2.8-.6 5.2-1 8.3-1.6.1.3.2.5.3.8l64.8-6.1c-2-1.4-.1-4 2.6-5.4 2.9 1.9-.5 4-2.2 5.4l73.3-7c.5-.7.9-1.3 1.1-2.3h-.2c-.1-.5-.1-1 .2-1.4 0-.3-.1-.6-.1-.9.2 0 .5.1.7.2 2.2-2.1 8.3-2.1 6.5 2-1.3.2-2.7.1-3.9.1.4.6.6 1.2.7 1.8l21.1-2c.9-1.8 1.7-3.6.9-6.2 3.6-.6 2.9.5 6.4-.5.2 2-.1 4.2-.9 6.1l22-2.1c-.7-.4-1.3-1-1.9-1.6-.7-1.9-.1-3.2.6-4.5-2.8-1.1-6.8-.3-8.9-2.5-.1-.4.2-.8.5-1.2.4-2.3 2.6-.6 1.2-4.2 2.4-1.1 3.1-1.2 5.5-.9 0 1.7-.8 2.5-1.8 3.1.7 0 1.3.2 1.7.6.5-1.1 2.1-2.9 3.6-2.2.4 1.5-2.1 1.6-2.7 2.6 2 4.4 5 6 5.9 10.4l7.7-.7c-.1-.1-.1-.3-.2-.4.8-.1 1.1-.4 1.1-.9 1.1.1 1.7.5 2.1 1l2.2-.2c-2.5-.4-3.8-2.6-2.8-4.9 2-.9 3.2-.4 4.8-.7 0 1.9.7 3.2-.1 5.4l81.1-7.7c-.2-.5-.4-1.1-.6-1.6 1.2-.4 1.6.3 2.8-.2.2 1-.6 1.5-1.9 1.8l22.9-2.2c-.1-.1-.3-.2-.5-.3.4-.2.8-.3 1.3-.5.5.2.8.4.9.7l74.1-7-.3-.6c.9-.5 1.3.1 2.2-.2l.3.6 38.1-3.6c.1-.5.1-.9.1-1.4 2.3-.9 3.6.4 5.5.4 0 .2 0 .3-.1.5l3.4-.3c-1.9-.6-.8-2.1-1.9-3.7 4.1-.7 3.4-2.8 6.4-3.8 1.2 1.6-.1 2.3 1.3 4-3.2.7-2.5 2.7-5.5 3.4l35.3-3.4c1.1-1.9-1.3-4.9 2.2-6 .9 1.9 2 3.2 3.4 4-.5-2.7 1.2-4.7.2-6.6-.2-1.7 2.7-.7 2.7.9 1.7-.8-.5-2.8 2-3.4-.5 1.1.5 1.4 1.4 2 .1-.3.3-.7.5-1 3.8-1.6 8.4 0 10.5 5.5-.6 1.1-1.3 1.9-2 2.5l64.2-6.1c-.2-.3-.4-.5-.5-.8 2.5-.9 4.4-.7 5.8.3l63-6c2.2-.2 4.2 1.4 4.4 3.6l.9 9.8c.2 0 .4-.1.6-.1.1.7-.1 1-.5 1.3l1.5 16.2c.8.3 1.7.5 2.5.1.7 1.1.1 1.6.2 2.4-1.1.3-1.4-.9-2.5-.6l.3 3.7c.7.6 1.1 1.3.4 2.3h-.2l2.4 25.7c.8.5 1.6 1 2.6 1.2 0 1.5-1.4.9-2.4.5l.1 1.1c1.3 0 2.5 0 3.5-.2 1.9 2.2-1.3 2.3.1 4.3-.9.4-2 .7-3.2 1l2.7 28.7c1.3.4.7-.4 2.4-.8-.6.9.2 1.5.2.6 1.5.7.4 1.5 1.9 3.2-2.1.9-2.3-1.3-4.3-.7l15.9 167.8c.3.2.7.4 1 .5-.2.9-.4 1.9-.6 3 2.8-.4 4.5-.3 7-1.6 3.1 1.4-4.6 1.5-3.2 3.7-2.2.1-2 .1-3.7.3l3.3 34.5c3.3.4 5.8 4 5.7 6.3-2-1-4-2-5.4-3.9l1.6 16.4v1c.2.4.5.8.9 1 1.4-.5-1.4-1.3 0-2.4 4-1.6 6.9 2.1 4.5 5.7-2 .5-3-.6-4.5-.8-.1-1.3-.6-1.9-1.2-2.4-.6 1.3-1.8 2.3-3.3 2.4l-109.7 10.4c.1.3.2.5.2.9-2.1-.3-3.1 2.2-6.2 1-.5-.6-.5-1-.4-1.3l-9.9.9c.4.6.3 1.9.8 2.4-2 0-1.4 1.3-3.1 1.4-.1-1.5 1.9-2.1 1.5-3.7l-10.4 1c-.7 1.7-3.3 2.7-5.7 2.3.7-.5 1.1-1.1 1.2-1.9l-108.9 10.3c.4.5.9 1 1.2 1.5-.8 2.5-2.3 5.5.9 6.5 0 .2-.5.7-1.1 1.2.5.3 1.2.4 2.1 0 0 .2.1.5.1.7h.5v1.1c.7 1 1.7 1.6 1 2.8-.4.1-.7.1-1 .2-.1 2-.3 3.9-1.1 5.7 6.2 2.8.8 6.9-3.4 10.1.2 1-.9 1.5-2 1.5-.2.1-.3.3-.5.4.8 1.8 3.4 2.6 4.1 4.1.4-1.4 0-2.7-.1-3.9 1.9-1 2.4.3 3.7.2-.3.6-.3 1.5.1 2.4-1.9.4-1.8 1.8-3.5 2.2 0 .2 0 .4-.1.6 2.2-.3 2-1.6 4.4-1.8 5.7 5.4-2.8 7.3-8.2 9.6-.9 1.3.3 3.6-3 3.9-1.7-2.8-4-4.7-7-5.5-3.1-4.3 4.5-10 1.8-15.2 1.9-1 2.6-.1 4.2-.5 1 1.7-.6 2.1 1 2.8 1.5-1 2.7-2.2 3.7-3.5h-.3c.7-.5.5-1.5 1.2-2-2.1.6-5 2.2-7.2.1.1-3.7 2.2-3.9 5.3-4.5-1.6-3.1-1.9-6.3-.1-8.4-1.5.8-3.2 1.5-4.8 1.7-3.6-1.6-8-7.5-8.5-12.3l-33.6 3.2c-.2 2.1-3.2 3.4-5.9 3 .9-.6 1.3-1.5 1.2-2.6l-48.5 4.6c1.6 1.9 3.2 4 4.3 6.2 2.9.2 5.5 7.1 2 8.6.2-1.4.2-2.7-.4-3.8.3 2.8-.5 5.5-3 8-11.4 1.3-10.6-12.9-6.4-17.9-.2-.2-.3-.4-.5-.7l-30 2.8c-1.6 1.5-5.9 4.4-9.6 5-1.4-.6-3-2-4.4-3.7l-49.6 4.7c.2.6.1 1-1.1.9-.2-.3-.4-.5-.6-.7l-22.2 2.1c1.6 2.5 2.7 5.1 1.8 8.6-3.4 2.8-7 2.5-8.7 6-10-.1-9.2-7.8-6.4-13.4l-1.2.1c.2 1.3-.4 2.7-2.5 3.7-1.7-.7-3.4-1.4-4.5-3.1l-12.3 1.2c.3.3.6.6.6 1.3-.6.5-1.4.8-2.1 1.1.9.6 1.4 1.5 1.5 2.8-1.5.8-2.9 1.3-4.2 1.6-.7 1.1-2.1 1.8-3.7 1.1v-.8c-.9 0-1.8-.2-2.7-.4.1.8 0 1.6-.4 2.6-2.2.4-4.1.7-5.6.7-1.4 2.7-6 5.6-8.3 7.5 1 2.3 5.2 2.9 4.2 5.6 2.2-.3 2-1.6 4.4-1.8.2-.5.4-1 .5-1.6 7.8-.6 5.5 9.2 2 11.7-2.9.7-4-1.2-5.5-2.6-1.7.7-3.6 1.3-5.2 2-.9 1.3.3 3.6-3 3.9-1.7-2.8-4-4.7-7-5.5-3.1-4.3 4.5-10 1.8-15.2h.1c-.5-.2-.9-.4-1.5-.4.9-.7.4-2 2-2.4-2.2-2.3-3.7-5.2-4.1-7.9l-.8.1c.8 1.6-1.3 1.9-1 3.2-.7-.2-1.6-.1-2.4-.1.7 1.1 1.7 1.7 1.2 2.7 0 .1 0 .1.1.2h-.2c-1 .3-2 .6-3 .8.3.6.7 1.2 1 1.8-.3 1-1.8 1.4-2.9 2-2.4.6-2.9-1.7-5-1.7-2.4.3-.9 2.4-3.4 2.7-3.6-.1-4.2-2.2-6.3-3.9-.3.2-.7.3-1.2.2 0 .5.4.5.9.4.2.6-.7.7-1.1.9 0-.5-.4-.5-.9-.4-.2-.9.5-1.4 1.6-1.7-.4-.2-.8-.5-1.3-.7.7-2.1.6-3-.1-4.3l-11.1 1c.3.7.3 1.8 1.2 1.4-.1 1.2-1.2 2-2.7 2.6-.2-.4-.3-.8-.4-1.1 0 .5-.1 1-.3 1.5-1.7.3-3.8 1.3-5.7 2.6 0 .2-.1.4-.2.6h-.6c-1.7 1.4-3.1 3.1-3.6 5 8.6-7.8 15.4 12.8 3.7 12.7-1.2 1.2-3 2.2-5.2 2.9-.9-.8-2.4-.9-2.5-3 1.6.4 3.3-.6 5-1.5-.8-1.4-2-2.2-3.2-3.1-.7-3.5 5.9-17.7-4.5-14.7-1-1-2.6-1.1-3.2-2.8.1-.4.2-.7.3-.9l-6.9.7c.1.5.4 1 1.1 1.8-2.1 1-2.8-.3-3.4-1.5h.1l-2.6.2c0 .6-.1 1.1-.3 1.7-3.4 2.8-7 2.5-8.7 6-5.9-.1-8-2.8-8.2-6.1l-20.7 2c.3.7-.1 1.6-1.5 1.7-1.2-.6-.6-.7-.6-1.5l-.8.1c-.8.6-1.8.9-3 .4v-.1l-2.7.3c-.1.4-.2.8-.4 1.3-4.6.9-7.8.9-9.5-.3l-5.6.5c-.2 2.3-3.5 4.8-6.2 6.9.2 1-.9 1.5-2 1.5-.2.1-.3.3-.5.4.8 1.8 3.4 2.6 4.1 4.1.4-1.4 0-2.7-.1-3.9 1.9-1 2.4.3 3.7.2-.3.6-.3 1.5.1 2.4-1.9.4-1.8 1.8-3.5 2.2 0 .2 0 .4-.1.6 2.2-.3 2-1.6 4.4-1.8 5.7 5.4-2.8 7.3-8.2 9.6-.9 1.3.3 3.6-3 3.9-1.7-2.8-4-4.7-7-5.5-3.1-4.3 4.5-10 1.8-15.2 1.9-1 2.6-.1 4.2-.5 1 1.7-.6 2.1 1 2.8 1.5-1 2.7-2.2 3.7-3.5h-.3c.7-.5.5-1.5 1.2-2-2.1.6-5 2.2-7.2.1 0-.3 0-.6.1-.9l-11.8 1.1c.2.3.3.6.5 1-.3 1-1.8 1.4-2.9 2-2.4.6-2.9-1.7-5-1.7-2.4.3-.9 2.4-3.4 2.7-2.7 0-3.7-1.2-4.9-2.5l-24 2.3c-1.4 1.3-2.6 2.8-3 4.5 3.5-3.2 6.7-1.7 8.5 1.3.8-.7 1.7-1.3 2.7-1.7.8-.9 2.8-.7 4-.4.3 0 .6.1.9.1 0 4.6 3.1 4.5 3 8.4-3.3 3.5-6.5 2-9.1-.4-.4 3.4-2.8 6.1-8.4 5.1-.7-2.4-2.3-3.3-3.8-4.5-.4-2.2 1.9-8.3 1.3-12.1l-28.2 2.7c-.6.2-1.2.3-1.9.2v-.1l-2.4.2c0 .1 0 .1.1.2-1.7.2-1.1 1.4-3.1 1.4.9 1.4 4.2 1.7 2.9 4.1-3.4-.5-3.7-2.5-5.1-5.3l-16.9 1.6c.4 1 .6 2 .6 3.3 1 2.2 1.9-1 3 .4 1.6 1.6-.1 3.1-2.3 3.7 1 2.5-.2 4-.9 5.8.9.8 3.3.1 2.1 1.9-2 1.1-1.9-1.1-3.2-1 2.2 2.6 6.5 1.9 10.3 2.2-.3-.6-.6-1.2-1.1-1.6-2.5.9-2.1 1.2-4.2.5-1.5-2.7.9-3.7 2.6-5 3.8.9 4 3.4 4.6 6.3 1.7.3 3.1 1 4 2.5 2.4-1.4 4.5-2.9 6.6-4.2.1-.4.2-.8.2-1.1.3.2.5.4.6.6 1.8-1.1 3.7-2 5.8-2.7-.3 0-.5-.1-.7 0 0-1.2 1.2-.7 2.3-.5.8-.2 1.7-.4 2.6-.5-4.1-.3-7.6-1.3-12.4-.3-.2-.3-.3-.6-.5-.9 0 1-.2 2-.3 2.9.2.3.4.6.2.8-.3.7-1.2.3-1.8-.2-1.2.1-2.1.4-2.3 1.6-7.4-2.1-4.2-9.1-4.6-12.9.7.3 1.7.2 2.8-.2.2.6.4 1.1.6 1.7 2.6 0 4 1.1 4.7 2.5 1.8-3.7 13.8-.9 17.9-1.2 3.8 3.1-1 5.2-3.3 7 1.8 1.8 4.3 2.5 6 4.5 2.3-2.6 5.2-5.4 9.3-4.3.7.9.2 1.3-.3 1.7 2.3.1 4 1.4 4.9 3.1 2-.2 3.3-.3 5.8-2 .1 1.9 2.2.6 2.3 2.4-3 2.4-7.3 5.5-8 10.1-1.7.6-3.6-3.2-.3-3-.1-.9-.6-1.4-1.1-1.7-.7.4-1.5.7-2.5.8-3.2.3-4.3-1.5-6.1-3.3-1-.2-2-.9-2.7-2.3-5.8 8.9-20.8.3-27.7 5.6-3 .7-3.8-2.2-6-2.7-.6 2.4 3.4 5.1 4.3 8-4.6-2.6-11.3-1.9-16.9-2.8-3.3-6.4-1.1-9.4 5.5-13.1-11.2 1.8-11.3-5-9.8-11.7l-28.1 2.7c-3.9 2.3-9 3.9-13 1.2l-9.6.9c.7 1.4 1.5 2.8 2.6 4-2.6 3.9 4.4 5.2 3.2 9 1.5-.1 4.6 1.9 6.9 3.1-1.6-6.6.2-12.3 6.6-14.1 2.3 1.1 4.2 2.6 6.9 3.1.1.7.2 1.4.4 2.1.4-.1.8-.2 1.2-.4 1 .1.9 2.1 2.1 1.9.7 1.8-.7 2.2-1.8 2.5 1.7 3.3 4 6 5.2 9.8-.7-.3-1.7-.2-2.8.2-.9 1.1 2.3 2.1 1.4 3.9-2.5.1-4.6.4-6.7.3 1.4.7-.1 1.6 1.1 3.3-.7-.3-3.8-2.7-1.3-3.3-1.7-.1-3.3-.4-5-1.4-4.4 2.7-8.9 2.1-12.4-.3-4.5 2.3 2.1 9.2-4.7 9.2 3.8.9 7.1 2.7 10.8 3.8.3 3.3 2 3.6 2 5.6-5.5.5-7.5.4-11.5-1.8-5.7 1.5-10.8 1.9-12.6-2.8 2-1.5 3.7-3.5 7.5-3.3-6.9-3-6.1-12 3.4-10.7-.2-2.1 2.4-3 4.3-4.2-.3-1-1.2-1-1.5-2.1-3.8.5-4.9 2.2-6.7 3.6-6.6-1.9-14.7 1.6-20.7-3 1.6-6.9 8.2-8.3 14.8-9.5-4.7-1.2-8-3.8-9.5-7l-5 .5c-.2 1.2-.8 2.2-2 2.9.3.6 1.4.2 2.2 0 .3 4.2-1.8 7.4-5.2 10 3.2 2.2 2.4 8.3 4.6 11 3.8-.8 8.9-2.2 11.3 3.1-1.8 5.9-11.8 6.9-12.2 12.5 2.8 3.4 3.4 1.1 4.8 5.4-4.2 1.4-7.5 3.3-7.5 6.6l16.1-1.5c-.5-.4-.8-1.3-1-2.2 3.6.1.4-.3 1.4-2.2 1.6.1 2.8.7 3.2 2.8-1 .3-1.8.8-2.1 1.4l12.3-1.2c-.6-.6-1.1-1.3-1.5-2 2.6-5.3 10-5.8 12.7 1l78.8-7.5c-6.7-2.7-10.4-11.5-4-13.9 6.8-2.6 10.5 4.5 16.4 5.4.4 2.6 2.1 4.4 1.1 7.1-2.4.1-3.9.1-5.4.7l15.9-1.5c.1-.7.4-1.3.4-2.1 1.2-.1 1.4 1.2.8 2l1.1-.1c.5-.4 1.3-.5 1.9-.2l14-1.3c0-.1 0-.2.1-.2.8-.2 1.4-.1 1.9.1l15.7-1.5c-.4-1-.6-2.1-.4-3.2 4.4-3.1 10.6-4.7 14.5 0 .9-.6 1.9-.9 3.1-.4.6.9.1 1.6-.8 2.1l7.8-.7c-1.4-.8-2.8-1.7-5.5-.5-4.3-4.8-12.9-2.8-16.8-8.4-.9-.7-2.4-.2-3.7-.2-.5-3.4 5.7-3.8 6.3-6.6-2.6-1.9-1.6-4-3.7-6.4-1.7 1.1-1.2 3.2-2.8 4.4-2-.4-3.5-1.4-4.7-3-4 1.6-6.1 7.7-10.9 6-2.2-3.3 2.1-3.8 2.2-6.1 1.5.2 2.8.8 4.1 1.4 1.7-.4 2.6-1 2.9-2-2.9 0-5.7-.3-9.2.6-1.2-4.4 6.6-12 12.3-8.2 0 1.3 2.1 3.5.7 4.1 7.3 3.5 12.9-8.2 18-2.4-2.4 3.2-3.8 6.8-5.8 10.2 2.4.6 4.3 2 6.7 2.5 4.5-3 3.2-8.6 9.1-11 .8.5 1.4 1.1 1.7 1.7.5-.3 1.3-.5.5-1.4 2.9 2.2 4.2.1 7.5-1.4-.7 1.4.3.7.8 2.2-4.2.4-3.8 2.7-5.8 4 .5-.9 0-2.2-.5-3.5-1 .2-1.2.8-2 1.1.5 3-2.6 7.1-2.3 10.8-1.1 0-2-.4-3-.4-2.5 4.1 0 8.3 1.8 11.2.6.1 1.3.1 2 0-.1-.2-.2-.5-.3-.8.1 0 .1-.1.2-.1-.5-.4-.9-1.1-1.1-1.9.8-.1 1.1-.4 1.1-.9 1.7-.1 2.2 1.7 3.2 2.8-.7.3-1.2.5-1.7.5.1.2.1.3.2.5.6.1 1.1.4 1.4 1.1l9.9-.9c-3-2-5.8-4.5-8.5-3.9 2.1-3 1.3-1.4.4-5 3.8-1.3 5.4.6 10.1-.3 2.3 4 7.8 2.7 9.8 7.2 2.5-.7 1.7-1.1 4-1.1.2.8.8.9 1.2 1.4l4.5-.4c-.6-.4-1.1-.9-1.5-1.5.7-.2 1.3-.4 2-.5-3.5-2-8.9-.7-9.2-5.5 1-1.3 3.4-2 4.7-3.1-.7-.4-1.2-1.1-1.5-2.1 2.4 0 6.1.1 9.1.9-.1-.5 0-1.1.8-1.1s1 1.2.7 1.6c1.7.7 3 1.8 3.5 3.4.7-.2 1.3-.4 2-.5.7-.3.2-1.2.1-1.9.7.2 1.4.4 1.3-.4 1.4.1 1.7 1 1.9 2 1.3-.1 1.9 1.1 3.3 1-.7 1.1-1.3 1.3-2.3 1.5.3.3.6.5 1.1.7 0 1.3-3.7 3.4-4.9 2.5-1 .3-1 1.1-.8 2.1l11.2-1.1c1.3-1.6 3.9-.5 2.7-3.5.9.6 1.7 1.2 2.4 1.9-.2-.6-.2-1.2-.2-1.8-.2.1-.5.1-.7.2-.4-1.6.3-2.4 1.3-2.4.5-.9 1.3-1.6 2.6-2.1 6.8-2.6 10.5 4.5 16.4 5.4v.1l20.2-1.9c1.2-1.2 2.4-2.7 3.6-4.6 4.4 0 4.6 1.4 3.3 3 .7 0 1.4.2 1.7.8l24.8-2.4c-1.7-.7-3.3-1.7-4.4-3.3-.9-.7-2.4-.2-3.7-.2-.4-2.2 2.3-3.2 4.2-4.4-.3-1 2.1-.7.9-2.1l.9.6c.1-.2.3-.5.3-.7-2.6-1.9-1.6-4-3.7-6.4-1.7 1.1-1.2 3.2-2.8 4.4-2-.4-3.5-1.4-4.7-3-4 1.6-6.1 7.7-10.9 6-2.2-3.3 2.1-3.8 2.2-6.1 1.5.2 2.8.8 4.1 1.4 1.7-.4 2.6-1 2.9-2-2.9 0-5.7-.3-9.2.6-1.2-4.4 6.6-12 12.3-8.2 0 1.3 2.1 3.5.7 4.1 7.3 3.5 12.9-8.2 18-2.4-2.4 3.2-3.8 6.8-5.8 10.2.7.2 1.4.5 2.1.7.3-.2.6-.4 1-.5-.2.5-.3.7-.2.9 1.2.5 2.4 1.1 3.8 1.4 4.5-3 3.2-8.6 9.1-11 2.2 1.3 2.4 3.1 1.9 5.2.5-.3.5-.5 1.8-1.4.6 1.5-.7 1.4.8 2.2.5-.6.6-1.3.7-2 3.3 1.8 4 7.8-.1 9.9 1.8 1.4 1.5-2.1 4.4-1.8 2.9.6 4.1 3.9-.6 4.5-2.4-3-5-.2-8.5-1.4.3-1.9 1.6-3.4 3.4-4.6-.1-2.4-1.6-2.5-2.5-3.5-.7 2.1-1.7 4.4-1.6 6.7-.9 0-1.6-.2-2.4-.3h-.7c-.6 1-.9 2.1-1 3.1 3.5-1 5.2.7 9.7-.1.4.8 1 1.3 1.6 1.7l9.4-.9c-.1-.4-.3-.8-.3-1.3 1-1.3 3.4-2 4.7-3.1-.7-.4-1.2-1.1-1.5-2.1 2.4.1 6.1.1 9.1.9-.1-.5 0-1.1.8-1.1s1 1.2.7 1.6c1.7.7 3 1.8 3.5 3.4.7-.2 1.3-.4 2-.5.7-.3.2-1.2.1-1.9.7.2 1.4.4 1.3-.4 1.4.1 1.7 1 1.9 2 .4 0 .8.1 1.1.2l14.7-1.4c1.5-.6 2.9-.6 4.2-.4l35.6-3.4c-.2-.8-.2-1.5.1-2 1.8 0 2.1-.5 3.9.8.1.4 0 .6-.1.9l19.9-1.9c1.8-1.1 4.2-2 4.6-3.7-2.6-1.9-1.6-4-3.7-6.4-1.7 1.1-1.2 3.2-2.8 4.4-2-.4-3.5-1.4-4.7-3-4 1.6-6.1 7.7-10.9 6-2.2-3.4 2.1-3.8 2.2-6.1 1.5.2 2.8.8 4.1 1.4 1.7-.4 2.6-1 2.9-2-2.9 0-5.7-.3-9.2.6-1.2-4.4 6.6-12 12.3-8.2 0 1.3 2.1 3.5.7 4.1 7.3 3.5 12.9-8.2 18-2.4-2.4 3.2-3.8 6.8-5.8 10.2 2.4.6 4.3 2 6.7 2.5 4.5-3 3.2-8.6 9.1-11 4.4 2.6.7 7.1-.1 11.5l6.5-.6 8.7-.8c-.6-.8-1-1.6-.7-2.2.8-.1 1.1-.4 1.1-.9 1.7 1.1 4.1 1 6.3 1.4.1.4.3.7.4 1.1l7.9-.7c-4.1-1-9-.8-13.3-1.4-3.3-6.4-1.1-9.4 5.5-13.1-14.5 2.3-10.3-9.9-8.4-17.4 4.8.1 8.8 2.8 8.7 8.1 1 2.2 1.9-1 3 .4 1.6 1.6-.1 3.1-2.3 3.7 1 2.5-.2 4-.9 5.8.9.8 3.3.1 2.1 1.9-2 1.1-1.9-1.1-3.2-1 2.2 2.6 6.5 1.9 10.3 2.2-.3-.6-.6-1.2-1.1-1.6-2.5.9-2.1 1.2-4.2.5-1.5-2.7.9-3.7 2.6-5 3.8.9 4 3.4 4.6 6.3 1.7.3 3.1 1 4 2.5 2.4-1.4 4.5-2.9 6.6-4.2.1-.4.2-.8.2-1.1.3.2.5.4.6.6 1.8-1.1 3.7-2 5.8-2.7-.3 0-.5-.1-.7 0 0-1.2 1.2-.7 2.3-.5.8-.2 1.7-.4 2.6-.5-4.1-.3-7.6-1.3-12.4-.3-.2-.3-.3-.6-.5-.9 0 1-.2 2-.3 2.9.2.3.4.6.2.8-.3.7-1.2.3-1.8-.2-1.2.1-2.1.4-2.3 1.6-7.4-2.1-4.2-9.1-4.6-12.9.7.3 1.7.2 2.8-.2.2.6.4 1.1.6 1.7 2.6 0 4 1.1 4.7 2.5 1.8-3.7 13.8-.9 17.9-1.2 3.8 3.1-1 5.2-3.3 7 1.8 1.8 4.3 2.5 6 4.5 2.3-2.6 5.2-5.4 9.3-4.3.7.9.2 1.3-.3 1.7 2.3.1 4 1.4 4.9 3.1 2-.2 3.3-.3 5.8-2 .1 1.9 2.2.6 2.3 2.4-1.9 1.6-4.4 3.4-6.1 5.8l3.7-.3c1.5-1.1 3.2-1 4.4-.4l13.5-1.3c.3-.4.5-.8.5-1.3 1.1.2 2.1.5 3.1.9l2.8-.3c.6-.4 1-.8 1.1-1.3-2.9 0-5.7-.3-9.2.6-1.2-4.4 6.6-12 12.3-8.2 0 1.3 2.1 3.5.7 4.1 7.3 3.5 12.9-8.2 18-2.4-1.3 1.7-2.3 3.5-3.2 5.3l9.5-.9c.8-1.1 1.9-2.1 3.7-2.8.8.5 1.4 1.1 1.7 1.7.5-.3 1.3-.5.5-1.4 2.9 2.2 4.2.1 7.5-1.4-.7 1.4.3.7.8 2.2-1 .1-1.7.3-2.3.6l11.4-1.1c-.1-.1-.2-.3-.2-.4.7-.2 1.3-.4 2-.5-.1.4-.2.7-.2.8l.6-.1c.3-.1.6-.2 1-.1l3.4-.3c-.4-2.3-2.5-1.9-3-4.1 1.8-.8 1-.7 2.9-2 .6 1.5-.7 1.4.8 2.2.5-.6.6-1.3.7-2 .7.4 1.2.9 1.6 1.5 1.1-1.6 3.1-3 5.8-4.6-14.5 2.3-10.3-9.9-8.4-17.4 4.8.1 8.8 2.8 8.7 8.1 1 2.2 1.9-1 3 .4 1.6 1.6-.1 3.1-2.3 3.7 1 2.5-.2 4-.9 5.8.9.8 3.3.1 2.1 1.9-2 1.1-1.9-1.1-3.2-1 3.7 4.3 13-.3 16.2 4.8 2.1-1.2 3.9-2.5 5.7-3.6-.7-.1-1-.9-1.9-.6-.4-1.4 2-2 3.1-1.5-.2.4-.3.9-.2 1.5 3.1-1.9 6.2-3.5 10.6-4.1-4.1-.3-7.6-1.3-12.4-.3-6.4-10 11.6-5.3 16.8-5.7 3.8 3.1-1 5.2-3.3 7 1.8 1.8 4.3 2.5 6 4.5 2.3-2.6 5.2-5.4 9.3-4.3 1.2 1.6-1.3 1.6-1.2 2.8 0 1 .5 1.3 1 1.6l9.4-.9c.4-.2.8-.4 1.2-.7 0 .3.1.4.2.6l18.3-1.7c2.5-2.7 6.7-4.5 10.1-2.2 0 .4.2.8.4 1.2l44.7-4.2h.4l30.4-2.9c-.5-.3-1-.6-1.4-1.1-1.5-1.6.7-6.1-1.8-6.3 6-1 9.9-1.9 14.2 2.3.1 1.7-.4 3.1-1.3 4l7.5-.7c.1-.2.1-.3.3-.5.6 0 1.2.2 1.7.3l38.9-3.7c6.1-.6 11.9-2.2 17.3-4.6-.3-.2-.5-.3-1-.2-.3-1.3 1.3-1.6 3-1.9.2.4.3.7.2 1 4.6-2.3 8.8-5.2 12.5-8.7 0-.5.1-1.1.3-1.8.6 0 1.2-.1 1.7-.1 3.5-3.6 6.5-7.6 8.9-11.9.1-.6.2-1.2.4-1.8 0-1.2-3.6-1.2-3.5.2-.2-1.3 2.3-2.6 2.9-4.9 2.1.1 1 .7 1.3 2.1.3-.8 1.6-2 2.2-2.9.1-.3.3-.7.4-1 0-.1-.1-.2-.2-.2.1 0 .2 0 .3-.1 1.3-3.7 2.2-7.5 2.7-11.5-1.9-1.2-5-.8-5.3-4.3 1.9-1.3 3.9-1.8 5.7-1.9 0-1.8-.1-3.7-.2-5.5l-6-63.7h-.4c-2.9-2-2.7-6.5-.4-8.7l-3.5-37.4c-.4.1-.8.2-1.3.3-2.4-3-5-.2-8.5-1.4.3-1.9 1.6-3.4 3.4-4.6-.1-3-2.6-2.3-3.1-4.7 1.8-.8 1-.7 2.9-2 .6 1.5-.7 1.4.8 2.2.5-.6.6-1.3.7-2 3.3 1.8 4 7.8-.1 9.9 1.8 1.4 1.5-2.1 4.4-1.8.1 0 .2.1.4.1l-1.6-16.4c-1.4.4-2.8.4-4.1 0 1-1.4 0-3.2 3.7-4.1l-1.3-13.5c-.6 1-1.4 2-2.5 3 2 .7 1.7 2 1.4 3.9-1.9 1-2.4-.3-3.7-.2.9-.7.4-2 2-2.4-4.8-5.2-6.8-13.4 1.7-14.5v-.3c-.2.1-.6.2-.8.3 0-.5-.4-.5-.9-.4.1-.8.7-1.6 1.5-2l-1.3-14.1c-.1 0-.2.1-.3.1 0 .1 0 .1.1.2h-.5c-.5.4-.6.9-1.7 1.1 0-.2 0-.3.1-.5-1 .5-2.1 1.2-4 .5 0-.1-.1-.1-.1-.2-.7 3.4-1.3 7-1.2 8.9-3.6 3.4-8 2.3-9.6-.5-1.9-3.4 3.4-6.6 1.2-8.9 4.1-.4 2-3.5 3.2-5.2 3.4-1.1 5 .8 7.1 1.8-.1.3-.1.6-.2.8 2.1-.6 3.9-.7 4.9.5.1-.4.1-.8-.1-1.3.3-.1.6-.1.8.1l-3.6-38.4c-.1.4-.1.7-.2 1-1.1-2.7-3.6-2.9-4.1-7.5 2-.5 3.1 0 3.8 1l-.9-9.5c-1.3-1.8-.6-1.4-1.9-3.2.5-.2 1-.3 1.5-.4l-2.9-30.8c-.8-.2-1.4-.6-1.9-1.4l.1-.1c-.4-.3-.7-.8-1-1.2.8-.4 1.4-.5 1.9-.3-.1-.3-.2-.8 0-1.3.1-.1.3-.1.4-.1l-.4-4.3c-.4-.1-.9-.2-1.3-.3-.5 1.8-2.3 3.2-6 3.4-1.1-1-1.9-2-2.4-3.1-1.2.3-2.6.5-3.9 1 .2.3.4.7.6 1.1.4-.1.8-.2 1.1-.4.9 1.1-.9 1.2-.6 2.1-.6.1-.8-.5-1.3-.7-.5.2-.9.3-1.4.5-.8-1.4-.8-2.4 1-2.8-.1-.5-.5-.4-.9-.3.6-.9 1-.3 1.5.6 0-.9.3-1.7.3-2.6 1.1 0 2-.1 2.9-.3-.5-2.2-.2-4.3.2-6.6 3.7-.5 7 1.7 8.3 4.4.4-.3.8-.6 1.3-.8l-.1-1.1c-.2-.2-.4-.4-.5-.7.2-.2.3-.4.4-.5l-.7-7.7c-4.6.8-4.2-5.1-3.9-7.4.9 1.8 2.5 2.5 3.6 4.3l-.5-5.1c-.2 0-.4 0-.5-.1-.5-1 .3-1.4-.3-2.4.2-.1.4-.1.6-.2l-2-20.9c-.3-.6-.6-1.3-1.4-1.1-.7-1.5.1-2 1.1-2.4l-.3-3.2c-.3-3.5-1-6.9-2-10.2-1 .3-1.6 0-2.5.1.2-1 1.3-1.7 2.1-1.3-1.5-4.6-3.5-8.9-6.1-12.9-.2 1.2-1.5 2.4-2.7 1.9-1-1.8 3-1.1.8-1.5-.2-.5.6-.7 1.1-1 .1.4.4.4.7.4-.9-1.4-1.9-2.8-2.9-4.1-1.6.3-2.3-1.2-3.8-1.1.2.3.3.7.5 1-.8 1.3-4.4 2.4-5.4 1.2-1.1-1.6 1.1-2 .7-3.4.7.2 1.6 0 2.4 0-.7-1.1-1.8-1.6-1.4-2.7 0-.1 0-.1-.1-.2h.2c.5-.2 1-.4 1.5-.5-.9-.9-1.9-1.8-2.9-2.6.1.6.1 1.1 0 1.6-2 .3-2.4-1.5-1.2-2.6-9.9-7.7-22.4-12.1-35.7-11.6.9 1.3-.5 1.6.3 2.9-1.9.5-3.4.2-3.7-2.1.8-1.3 1.3-.2 2.9-.8-.9 0-1.9 0-2.8.1l-25 2.4c1.4.3 2.8.8 3.7 1.7 1.6 1.5-.2 6.1 2.2 6.1-5.9 1.3-9.8 2.4-14.4-1.6-.4-3 1.2-4.9 3.4-5.8l-10.6 1c.6.7 1.1 1.4.5 2.3-1.1 0-2-.4-3-.4.4-.5.4-1.2.5-1.7l-24.1 2.3c1.5 3.2 1.3 7.1-1.1 10.6-10.8 4.7-12.4-2.9-16.5-8.9l-14 1.3c2.1-.2 4.1.3 6.1 1.7-.4 2.2-1.8 5.1.6 6.9-4.2.1-3.8 2.3-7.6 4.3 3.5 1.1 3.6.1 7.7.2.1.8-.7 1.3-.4 2.1 8.5 4.4-1.5 10.7-.3 16.8-2.6 2-3.6 2.4-7.3 3.5-8.9-4.1-4.3-9.1-5.3-15.9 1.9-.1 2-4 4-5.4-3.8-2-6.9-3.5-8.6-7.6 2.3-2.6 6.7-6.1 11.2-6.5l-35.7 3.4c.7 3.5 0 8-.4 11.6-4.7.4-9.1-1.8-9.8-7.1-1.3-2-1.7 1.2-3.1-.1-1.3-1.1-.9-2.3.3-3.2l-7.9.8c.2 1.9.1 3.8.4 5.2-.8-.2-1.7 0-2.8.5-.3-.5-.6-1.1-.8-1.6-2.6.2-4.1-.6-5-2-1.2 3.9-13.6 2.3-17.7 3.1-1.4-.9-1.8-1.7-1.7-2.6l-15.4 1.5c.3.1.5.3.8.5 1.2 3.4-3.3 18.2 6.7 14.1 1.1.9 2.8.8 3.6 2.5-.1 4.4-8.8 3.4-10.6 7.4-1.5.1-3.4-.6-2.7-2.2-4.7 2.9-7.6-1.1-6.9-4.4 3.3-1 8.4-4.9 8.8-9.2-3 3.5-6.4 2.4-8.6-.3-.6.8-1.5 1.4-2.5 1.9-.7 1-2.7 1-3.9.8h-.9c-.7-4.5-3.7-4.1-4.2-8 .3-.4.6-.8.9-1.1l-31.4 3c2.4 4-3.3 9.9-.1 14.6-1.7 1.1-2.6.4-4.1.9-1.3-1.6.3-2.1-1.4-2.7-1.4 1.2-2.4 2.5-3.2 3.9h.3c-.6.6-.3 1.5-.9 2.1 1.9-.8 4.7-2.7 7.2-.9.5 3.7-1.6 4.1-4.6 5 2 2.9 2.9 6 1.4 8.3 1.4-1 3-1.8 4.5-2.2 5.8 1.8 15.2 13.4 7.7 17.6-5.8 3.2-11.6-.7-15.2-4.3.5-2.5 1.4-5.7-1.8-6.4 0-.2.4-.7.9-1.3-.6-.2-1.2-.3-2.1.2 0-.2-.1-.4-.2-.6-.2 0-.3.1-.5.1 0-.4-.1-.7-.1-1.1-.9-1-1.9-1.4-1.4-2.6.4-.1.7-.2 1-.3-.2-2-.3-3.9.3-5.7-6.6-2.1-1.8-6.8 1.9-10.4-.3-.9.7-1.6 1.7-1.7.1-.2.3-.3.4-.4-1-1.7-3.8-2.2-4.7-3.6-.2 1.5.4 2.7.7 3.8-1.8 1.2-2.4-.1-3.7.2.2-.7 0-1.5-.5-2.4 1.8-.6 1.5-1.9 3.2-2.6v-.6c-2.1.5-1.7 1.8-4.1 2.3-4.4-3.2-2-5.6 1.5-7.6l-10.2 1c.5.4 1 .9 1.6 1.2 0 3.3-2.9 5.6-3 8.9-6.4 1.2-6.9-5.5-5.1-9.5l-4.7.4-.3.3c-.1-.1-.1-.2-.1-.3l-1.4.1v.1c-.1 0-.1-.1-.1-.1l-2.7.3c-1 1.2-2.3 2.3-4 3.6 14.1-3.8 11.7 8.7 10.9 16.3-4.7.4-9.1-1.8-9.8-7.1-1.3-2-1.7 1.2-3.1-.1-1.8-1.4-.4-3.1 1.8-3.9-1.3-2.4-.4-4 0-5.8-1.1-.7-3.3.2-2.4-1.6 1.8-1.3 2 .9 3.4.6-1-.9-2.2-1.3-3.5-1.4L1207 286c-.4.3-.7.6-1.1.9.7.1 1.1.8 2 .4.6 1.4-1.7 2.2-2.9 1.8.1-.5.2-.9 0-1.5-2.8 2.2-5.6 4.1-9.9 5.2 4.1-.2 7.8.4 12.4-1 7.8 9.2-10.8 6.5-15.9 7.5-4.2-2.6.2-5.3 2.2-7.3-2-1.6-4.7-2-6.6-3.8-1.9 2.8-4.3 5.9-8.6 5.3-1.2-1.2.2-1.6.7-2.3-.4-.1-.7-.3-.9-.5-.3-.6-.3-1 0-1.4-.2-.1-.4-.2-.6-.4l-4 .4c-2.2.5-3.4.6-5.8 2.7-.4-1.7-2-.6-2.6-1.9l-5.7.5c-.3.6-.9 1.1-1.8 1.3-.2-.4-.3-.7-.4-1.1l-1.6.2c.6 1 1.3 1.9.7 3.2-3.3-1.5-9.4-.5-12.7-2l-21.9 2.1c-.6 1.6-1.4 3.1-2.3 4.3-4.1.2-3.8 2.4-6 3.5.3 1 1 1.3 1.9 1.3 0 1.8-2.2.2-3.3.9-1.6-3.2-4-5.7-5.4-8.6l-15.6 1.5c0 .3-.2.7-.6 1.2-.6-.4-1-.8-1.2-1.1l-56.7 5.4c4.7 4.4 8.8 13.5 2.1 16.2-6.2 2.6-11.4-1.9-14.4-5.9.8-2.5 2.3-5.5-.9-6.5.1-.4 1.4-1.6 3.3-2.8l-20.9 2s0 .1-.1.1c3.9 4 10.9 3.2 14.4 7.8-.4 5.5-11.5 5.2-15.4 3.5-4.6 4.3-13.3 3.8-19.4 4.6-2.2 2.7-6.2 4.5-9.7 4.8 1.3 2.2 2.7 4.3 4.4 5.8-1.3 2.2-2 1.9-3.6 4 3.5 3.9-1.7 5.5-.1 9.8-3.4.4-3.3 2.3-3.6 4-2.7-2.1-5.2-4.6-9.5-4.2-.2-1.6 2-5-1.7-6.9.9-1.9 1.2-3.7.7-6.3 2.8-2.6 4.2-6.9 7.4-8.5-.7-1-1.1-2.5-.7-4.4-.6-.1-1.5-.2-2.4-.2 1.3.5-.1 1.5 1.4 2.5-.4.1-.9.2-1.3.4-1.5-.6-.4-1.7-.3-2.9h-.5c-1.3 1.5-3.4 2.2-6.3 1.1.1-.2.1-.3.2-.5-7.5 1-16.4 2.4-18.7-1.7-2.3.1-4.5-.2-5.5 0-.6-2.3 2.9-3.8 5.3-3.4 2-3.8 12.4-3.3 17.7-5.2l-30.5 2.9c5.6 5-4.1 10-3.8 15.9-2.9 1.7-3.9 2-7.7 2.7-8.2-5.1-2.9-9.5-2.9-16.4.6 0 1.1-.4 1.5-.9l-7 .7c.4.6.4 1.9.8 2.4-2 0-1.4 1.2-3.1 1.4-.1-1.5 2-2.1 1.5-3.8l-38.8 3.7c-.3 3-1.3 5.9-2.8 7.7.7.9 1.2 2.2 2.3 2.4-.5 2.1-2-1.4-4.2.5-2.2-2.3-4.5-5.1-6-8.1-.8 0-1.6-.6-2.2-1.4l-9.8.9c1.5 1.3 2.7 2.9 2.6 4.7 7.2-4.9 8.2 4.3 10.3 6.4.4 1.5-2.3 1.5-1.9 3-5.5 1.2-10.6-3.7-8.9-8.7-3.4 2.4-9.4-1.7-8-4.9l-14.4 1.4c.3.5-.1 1.2.2 2.2-.6-.2-1.3-.3-2.2 0-.4-.8-.5-1.4-.3-1.9l-14.7 1.4c-.8 5.5-6.7 10.9-12.7 4.3 1.2-.3 1.4-1.6 1.1-3.2l-23.6 2.2c-.1.1-.1.2-.2.3-.4 0-.8-.1-1.2-.2l-9.4.9c0 .1.1.2.1.3-7.8.2-4.5 9.6-12.2 12.5-1.8-.7-3.5-1.4-4.7-3-.7-1.4.9-1.8 2-2.4-.3-1.8-1.6-2.1-3-2.3.1-1.1.4-2.1.2-3.4l-73.7 7c-.2.8-.9 1.5-2.2 1.4-.3-.5-.3-.9-.1-1.2l-58.3 5.5c4.6 1.1 7.9 2.9 4.3 6.6-2.6.3-3.5-2.1-4.8.7-4.4.4-5.7-4.2-9.5-2.3-.1-1.6.2-2.8.2-4l-14.4 1.4c-.1.6 0 1.3.2 2.1-5.5-.3-1.3 4.4-4.4 6.1-.2-1.2-1.6-4.9-2.3-2.4-2.4.6.8-2.2-1.3-1.5 1.2-1 1.8-.7 3.6-2.2-.6-.5-1.3-.9-1.9-1.4l-25.5 2.4c-4.4 3.2-7.9 2.2-11.4 1.1l-19.5 1.8c-1.8.6-.9 2.4-3.1 2.8-1.6-.2-2.6-1.3-3.9-2.1l-48.7 4.6c-.6.8-1.2 1.8-1.4 2.8-1.8.5-3.5 1-5.3 1.4-1.5-1-2.6-2-3.5-3.2l-5.4.5c.5.2.9.5 1.6.4.1.7-1 .8-1.8 1.1-.2-.5-.3-1-.5-1.4l-43.7 4.1c.1.2.2.3.4.5-.9 1.5-3.6 1.4-5.3 1.4.3-.6.3-1 .2-1.5l-57.4 5.5c-1.5 1.8-4.4 2.7-6.5 2.1-.3-.5-.4-1-.5-1.4l-18.5 1.8c.5.8.6 1.8-.1 3-1.3-.2-2.5-.7-3.4-1.5-.5 1-2.2 1.5-2.7 2.6-1.8 0-3.1-.8-5.2-.4-.2-1.6 1.8-2.6-1.5-2.1 0-.1 0-.2.1-.3l-12.6 1.2c-15.6 1.5-29 9.4-38 20.8.3.4.6.9.8 1.5-1 .5-1.4.2-1.8-.1-7.8 10.5-11.9 23.8-10.6 37.8l9.8 103.4h.5c0 .6-.1 1-.4 1.1l21.1 222.2c2.9 30.2 29.8 52.5 60 49.6l234.8-22.3c-2.2-1.5-2.5-2.8-2-3.5zm72.4-8.5c.1.4.3.7.4 1.1-1 .4-1.3-.2-2.2 0-.1-.4-.3-.7-.4-1.1 1.1-.4 1.4.2 2.2 0zm-3.4-1.5c-.7 1-2.8.9-4 1.1-.9-3.2 2.6-1.5 4-1.1zm18.2-40.5c.1 1.5-1.9 3.2-2.6.7.9-.2 1.7-.4 2.6-.7zm379.7-25.7c-1.5-.8-.2-.7-.8-2.2 2.4-1.1 3.5 2 .8 2.2zm-210.3 5.3c.2-1.2 2.4-2.3 3.8-1.6 1.3 1.9-3.2 2-3.8 1.6zm-60.2 6.7c0-.5.5-.7.3-1.3.4-.1.9-.2 1.3-.4-.7 1.4.3.7.8 2.2-.8-.1-1.1-1.1-2.4-.5zm38.7-3.9c-.3-1.3 1.2-1.7 2.9-2 .2.6.4 1.1.6 1.7-1.5.5-2.6.5-3.5.3zm-123.8 48.6c0-.5-.4-.5-.9-.4-.4-1.1 1.6-1.2.5-2.6 2.7-.5.1 1.9 2.1 1.9.2.7-1 .8-1.7 1.1zm9.3 3.6c-.4-1.4 1.8-1.7 3.6-2.2.3 2.3-1.8.7-3.6 2.2zm66.1-36.2c-.4 2.5-2.6 4.2-5.2 5.7-2.1-2.5-7.2-.1-7.7-5.3 4.7-2.6 9.3-1.8 12.9-.4zm-29 27.7c-2.1 0-1-.6-1.5-2.1 1.5.7 1.7-1.2 3.5-.3.3 1.2-2.2 1.2-2 2.4zm3.2-3.3c-.4-1 .4-1.4-.1-2.4 1.6.6.8-.3 2.6-.7-.6.9.2 1.5.2.6 1.5.7.4 1.5 1.9 3.2-2.3.9-2.4-1.6-4.6-.7zm9.2-6.7c-.2-.6-.4-1.1-.6-1.7 1.3-.6 1.9-.1 2.8-.2-.2.9-1 1.4-2.2 1.9zm-.4-13.4c-1.2-1.3-2.4-2.6-3.1-4.7.7-1.1 2.8-1.6 3.4-2.7.3.9 2.2 1.6 3.8 2.7-.6 1.8-.5 4.1-4.1 4.7zm2.9 14.5c2-.8.9-3 3-3.9.8 1.5-1.3 4.1.9 4.7-.6 2.2-2.3-1.4-3.9-.8zm23.5 8c-.4 1.9-.5 3.8-.9 5.7-2 .2-3.3-.6-5.2-.4-1.8.3 1.7 3-1.2 2.8-4.6-5.2-6.5-9-6.7-13.9-1.3.2-2.8-.2-3.5-1.9 1.2-.3 2.4-.6 3.6-1 0-.5.1-1.1.1-1.7.8-.5 1.7-.8 2.5-1 .1-.2.1-.4.2-.6-1-.9-1.7-2.1-1.3-2.9.8-.1 1.1-.4 1.1-.9 1.7 1.1 4.1 1 6.3 1.4.2.6.4 1.1.6 1.7-.3.6-1.2 1-2.3 1.2 2.9.6 5.5 2.5 7.1 4.7 4.6-1.1 7.3-1.7 9.1 3.1-4.4 1.5-4.7 3.6-9.5 3.7zm15.5-10.5c-1.3-1.8-.6-1.4-1.9-3.2 1.6-.5 3.2-.9 4.2-.5.3 1.7-.4 2.9-2.3 3.7zm49.6.5c-.7-1.2-.7-2.2-.3-3 1.8 0 2.1-.5 3.9.8.4 1.5-1.8 1.7-3.6 2.2zm2.5-12.3c-3.4.8-6.5 1-8.3-.8-1.5-1.9 1.1-2 .1-3.7 4.8-1.8 10.4.4 8.2 4.5zm-6.2 13.9c-.1-.4-.3-.7-.4-1.1 1-.2 1.9-.4 1.8-1.1 1.5-.5 0 4-1.4 2.2zm-5.7-18.1c-.3-2 2.9-1.7 4.4-1.8-.4 1.7-2.6 1.9-4.4 1.8zm3.1 12.1c-2.3-1.1-4.6-1.4-4.4-4.3 4.1-3.5 9.7 2 4.4 4.3zm3.6 13.1c-.3-1-1-1.3-1.9-1.3 1.5-1.4 3.1-3.1 4.6-5.5 9-.1.6 6-2.7 6.8zm26.9-5.7c.1 1 .9.9 1.7.8-.3 1.1-.5 2.3-2.7 2.6-.7-1.6-1.2-3.1 1-3.4zm-6.5-2.2c1.3-.1 2.1.8 3.7.2.1 1.2-4.3 2.3-3.7-.2zm-10-4.7c.8.5 1.4 1.3 1.7 2.6-2.9 1.8-4.9-2.2-1.7-2.6zm5.2-33c.5 1.7-3.4 2.6-3.5.3 1.7-1 2 .3 3.5-.3zm-6.7-.9c.3.9.7 1.9 1 2.8-.9.2-1.8.5-2.6.7-1.1-1.9-1-3.3 1.6-3.5zm7.3 5.3c-.8 2.7-3.2 4.6-7.1 5.9-.9-.8-2.4-.9-2.5-3 3 .8 6.2-3.1 9-3.2 1-.6 2.4-1.3 3.2-1.5-.4.8-1.6 1.3-2.6 1.8zm4.6-2.4c2.7-.5.1 1.9 2.1 1.9 0 1.4-3.6-.6-2.1-1.9zm13.6-2.4c.4-.9-.1-2.2.3-3.1 2.7-.3 2.2 2.9-.3 3.1zm23 1c-.2-.6-.4-1.1-.6-1.7.6.2 1.3.3 2.2 0 .8 1.2-.5 1.4-1.6 1.7zm73.6-5.7c.2.6.4 1.1.6 1.7-1.5.6-2.6.6-3.5.3-.4-1.2 1.2-1.6 2.9-2zm-23.8 1.9c3.1 1.9-.8 4.2-2.4 5.5-2.3-1.3-.3-4 2.4-5.5zm-7.3-1.5c-.1 1.4-.5 2.6-2.5 3.1-.8-1.3.8-1.5-.3-3 1.7.6 1.1-.7 2.8-.1zm-5.5 10.9c.2-.1.3-.2.5-.3 3.1 1.9-.8 4.2-2.4 5.5-1.1-.6-1.2-1.6-.8-2.5-1.6-.2-2.8-1.1-3.2-3.2 1.7-1.9 4.5-3.4 5.2-5.7 3.2.3 2.1 3.6.7 6.2zm-.9-12.9c.2.6.4 1.1.6 1.7-1.5.4-3.1.8-4.6 1.2-.3-.7-.5-1.5-.8-2.2 2.7-.1 2.5-1 4.8-.7zm-20.9 27.1c.2 2.2-3.3 1.6-3.7-.2.7-.2 1.3-.4 2-.5-.5 2.2.2 0 1.7.7zm-5.8-18c-1.5-.8-.2-.7-.8-2.2 2.4-1.2 3.5 1.9.8 2.2zm.1 1.8c7.8-.6 5.5 9.2 2 11.7-3.3.9-4.4-1.8-6.2-3.2.4-3.3 3.6-5.3 4.2-8.5zm-8.2 27.9c-3.2 1.1-4.8-.6-6.5-1.9-1-1.7 3.2-1.1 1.9-2.9 1.3 1.6 6 1.5 4.6 4.8zm9.8 3.6c-2.4-3-5-.2-8.5-1.4.3-1.9 1.6-3.4 3.4-4.6-.1-3-2.6-2.3-3.1-4.7 1.8-.8 1-.7 2.9-2 .6 1.5-.7 1.4.8 2.2.5-.6.6-1.3.7-2 3.3 1.8 4 7.8-.1 9.9 1.8 1.4 1.5-2.1 4.4-1.8 2.9.6 4.1 3.8-.5 4.4zm3.8-6c-1.6-4.2 4.8-4.9 5.7-.3-2.5-.8-3.3.2-5.7.3zm29.5-7.5c-1.2.9-2.3-1.6-.6-1.7.8 0 1 1.4.6 1.7zm24.7 7c-.3 0-.6 0-.9.1-.4.3-1.1.3-1.8.1-5.6.4-9.1 1-15.3 2.2.1-1.9-1.4-3.5.2-5.6.2-.1.5-.2.8-.4 0-.2 0-.4-.2-.6 1-.5 1.7-.4 2.2-.2 7.8-2.5 18.5-.7 15 4.4zm11.7-3.7c-1.7.6-3.6-3.2-.3-3-.3-1.8-1.7-1.8-2.7-2.5h-.1c-.5-.4-.9-.9-.9-2-3.1 0-6.6 2-8.7-2-5.8 8.9-20.8.3-27.7 5.6-3 .7-3.8-2.2-6-2.7-.1.6 0 1.2.3 1.8.7-.3 1.7-.4 2.3-.1-.2.5-.4 1.1-.1 1.9-.4.2-.7.3-.9.3 1 1.3 2.2 2.7 2.6 4.2-3.3-1.9-7.7-2-12.1-2.3-.1.9-1 1.6-3.1 1.9-2.4-3-5-.2-8.5-1.4.3-1.9 1.6-3.4 3.4-4.6-.1-3-2.6-2.3-3.1-4.7 1.8-.8 1-.7 2.9-2 .6 1.5-.7 1.4.8 2.2.5-.6.6-1.3.7-2 .7.4 1.2.9 1.6 1.5 1.1-1.6 3.1-3 5.8-4.6-14.5 2.3-10.3-9.9-8.4-17.4 4.8.1 8.8 2.8 8.7 8.1 1 2.2 1.9-1 3 .4 1.6 1.6-.1 3.1-2.3 3.7 1 2.5-.2 4-.9 5.8.9.8 3.3.1 2.1 1.9-2 1.1-1.9-1.1-3.2-1 3.7 4.3 13-.3 16.2 4.8 2.1-1.2 3.9-2.5 5.7-3.6-.7-.1-1-.9-1.9-.6-.4-1.4 2-2 3.1-1.5-.2.4-.3.9-.2 1.5 3.1-1.9 6.2-3.5 10.6-4.1-4.1-.3-7.6-1.3-12.4-.3-6.4-10 11.6-5.3 16.8-5.7 3.8 3.1-1 5.2-3.3 7 1.8 1.8 4.3 2.5 6 4.5 2.3-2.6 5.2-5.4 9.3-4.3 1.2 1.6-1.3 1.6-1.2 2.8 0 1.7 1.5 1.2 1.7 2.6 5.2-1.2 6-.1 9.9-2.7.1 1.9 2.2.6 2.3 2.4-2.8 2.5-7.1 5.5-7.8 10.2zm6.6-12.2c-.3-2 2.9-1.7 4.4-1.8-.4 1.7-2.6 1.8-4.4 1.8zm27.1 17.2c1.3-.1 2.1.8 3.7.2.1 1.2-4.3 2.3-3.7-.2zm-22.3-36.3c.2-1.2 2.4-2.3 3.8-1.6 1.3 1.9-3.2 1.9-3.8 1.6zm.9 37.2c-.1-.4-.3-.7-.4-1.1 1-.2 1.9-.4 1.8-1.1 1.5-.5 0 4-1.4 2.2zm.7-33.4c-.2.2-.4.4-.5.6-1.2.1-.7-.7.1-1.2.2-.4.5-.6.8-.8-.7-.2-1.6-.1-1.5-1.5 1.3-.6 1.9-.1 2.8-.2.3.6.3 1.1.1 1.5 1 0 2.1.3 2.5.5.7 2.3-2.9 1.9-4.3 1.1zm3 31.8c-.7-1.2-.7-2.2-.3-3 1.8 0 2.1-.5 3.9.8.4 1.4-1.8 1.7-3.6 2.2zm4.5-34.4s0-.1-.1-.1c-.7.2-1.8.3-2.4.6-.5-1.1.8-1.9 1.9-2.1-.1-1 .4-1.7 2.2-1.9.3.9.7 1.9 1 2.8-.8.3-1.7.5-2.6.7zm7.6 2.9c-1.4-.4 2.3-2.4 4-2.9-.5 1.3-3.1 1.7-4 2.9zm6-3.4c2.7-.5.1 1.9 2.1 1.9 0 1.4-3.6-.7-2.1-1.9zm8.9 12.1c-.2-.6-.4-1.1-.6-1.7.4-.1.9-.2 1.3-.4.2.6.4 1.1.6 1.7-.4.1-.9.3-1.3.4zm5-17.7c2.7-.2 2.2 2.9-.3 3.2.4-1-.1-2.3.3-3.2zm-1.8 10.1c1.9 1 2.8-1.3 4.2-.5.4 1.8-3.9 2.4-4.2.5zm7.5-5.1c.4 1.4-2 2-3.1 1.4-.5-1.4 2-1.9 3.1-1.4zm95.7-22c.2.6.4 1.1.6 1.7-1.3.4-2.6.7-4 1.1-.6-1.8 1.5-2.3 3.4-2.8zm-12.3 1.4c4.1 2.9-2.6 3.2 0 0zm-2.7 14.9c.2.6.4 1.1.6 1.7-1.5.6-2.6.6-3.5.3-.4-1.3 1.2-1.7 2.9-2zm-9.9-9c2 0 1.4-1.3 3.1-1.4-.4 2.2-1.9 2.4.3 4.8-2.1 1-2.8-.3-3.4-1.5 2.5-.6 0-.6 0-1.9zm-21.2 9.3c-.1 1.4-.5 2.6-2.5 3.1-.8-1.3.8-1.5-.3-3 1.7.7 1.1-.7 2.8-.1zm-5.5 10.9c.2-.1.3-.2.5-.3 3.1 1.9-.8 4.2-2.4 5.5-1.1-.6-1.2-1.6-.8-2.5-1.6-.2-2.8-1.1-3.2-3.2 1.7-1.9 4.5-3.4 5.2-5.7 3.2.4 2.1 3.6.7 6.2zm-1-12.8c.2.6.4 1.1.6 1.7-1.5.4-3.1.8-4.6 1.2-.3-.7-.5-1.5-.8-2.2 2.8-.1 2.6-1.1 4.8-.7zm-24.5 26.8c.7-.2 1.3-.4 2-.5-.6 2.2.2 0 1.7.8.3 2.2-3.3 1.6-3.7-.3zm3.4 9.5c-1.6-4.2 4.8-4.9 5.7-.3-2.5-.7-3.3.3-5.7.3zm54.2-.4c-.3 0-.6 0-.9.1-.4.3-1.1.3-1.8.1-5.6.4-9.1 1-15.3 2.2.1-1.9-1.4-3.5.2-5.6 7.6-4.1 21.8-2.7 17.8 3.2zm11.7-3.8c-1.7.6-3.6-3.2-.3-3-.4-2.8-3.6-1.2-3.8-4.5-3.1 0-6.6 2-8.7-2-5.8 8.9-20.8.3-27.7 5.6-3 .7-3.8-2.2-6-2.7-.1.6 0 1.2.3 1.8.7-.3 1.7-.4 2.3-.1-.2.5-.4 1.1-.1 1.9-.4.2-.7.3-.9.3 1 1.3 2.2 2.7 2.6 4.2-4.6-2.6-11.3-1.9-16.9-2.8-3.3-6.4-1.1-9.4 5.5-13.1-14.5 2.3-10.3-9.9-8.4-17.4 4.8.1 8.8 2.8 8.7 8.1 1 2.2 1.9-1 3 .4 1.6 1.6-.1 3.1-2.3 3.7 1 2.5-.2 4-.9 5.8.9.8 3.3.1 2.1 1.9-2 1.1-1.9-1.1-3.2-1 3.7 4.3 13-.3 16.2 4.8 6-3.5 9.8-7.3 17.3-8.3-4.1-.3-7.6-1.3-12.4-.3-6.4-10 11.6-5.3 16.8-5.7 3.8 3.1-1 5.2-3.3 7 1.8 1.8 4.3 2.5 6 4.5 2.3-2.6 5.2-5.4 9.3-4.3 1.2 1.6-1.3 1.6-1.2 2.8 0 1.7 1.5 1.2 1.7 2.6 5.2-1.2 6-.1 9.9-2.7.1 1.9 2.2.6 2.3 2.4-2.9 2.4-7.2 5.5-7.9 10.1zm6.6-12.2c-.3-2 2.9-1.7 4.4-1.8-.4 1.7-2.6 1.9-4.4 1.8zm-3.4-3.4c-.7-2.4-2.3-3.3-3.8-4.5-.7-3.5 5.9-17.7-4.5-14.7-1-1-2.6-1.1-3.2-2.8.7-4.4 9.2-2.5 11.6-6.2 1.5 0 3.3 1 2.3 2.4 5.1-2.3 7.4 1.9 6.2 5.1-3.4.6-9 4-10.1 8.2 9.1-8.2 16.1 15.3 1.5 12.5zm8.2-15.7c.2-1.2 2.4-2.3 3.8-1.6 1.3 1.9-3.2 2-3.8 1.6zm1.2 3.4c.5-1.8 4-1.1 4.8-.7.7 2.7-4.4 1.8-4.8.7zm7.9-2.1c-1-1.8-.9-3.2 1.7-3.5.3.9.7 1.9 1 2.8-.9.2-1.8.4-2.7.7zm7.6 2.8c-1.4-.4 2.3-2.4 4-2.9-.5 1.4-3.1 1.8-4 2.9zm6-3.4c2.7-.5.1 1.9 2.1 1.9 0 1.4-3.6-.6-2.1-1.9zm7.7-2.7c-2.4.6-2.9-1.7-5-1.7-2.4.3-.9 2.4-3.4 2.7-4.6-.1-4.3-3.5-8.3-5.1 1.1-3.3.3-3.5-1.7-6.9 9.6-5.6 17.2.7 21.3 9-.2 1-1.8 1.4-2.9 2zm7.3-14.2c.2 1.2-.8 1.9-1.2 2.8-1.1.2-.2-2.6 1.2-2.8zm-1.4 14.4c.4-.9-.1-2.2.3-3.2 2.7-.1 2.2 3-.3 3.2zm15.7 20.7c-.8-.9-1.6-1.8-2.3-2.9-.2 1.2-.2 2.4-2.6 2.7-1.7-2.8-4-4.7-7-5.5-3.1-4.3 4.5-10 1.8-15.2 1.9-1 2.6-.1 4.2-.5 1 1.7-.6 2.1 1 2.8 2.4-1.6 4-3.6 5.2-5.7-2 .4-5.4 2.6-7.9.3.1-5.5 4.7-3.4 10.3-5.8.5.2.9.4 1.3.5 1.5-.3 3-.2 3.3 1-.7-.1-1.3-.1-1.9-.1 1 .9 1.2 1.9.8 3 .4-.6.8-1.3.7-2.2 2.2.7.3 3.6-1.4 4.1 0-.3.1-.5.1-.8-1.8 2.5-5.8 5-7.8 6.8 1 2.3 5.2 2.9 4.2 5.6 2.2-.3 2-1.6 4.4-1.8 4.3 4.1.5 6.2-3.9 7.9.5.3 1.1.6 1.7 1-.6 1.9-.5 4.2-4.2 4.8zm17.1-4.2c-.4 2.5-2.6 4.2-5.2 5.7-2.1-2.5-7.2-.1-7.7-5.3 4.7-2.7 9.2-1.9 12.9-.4zm-6.5-35.5c.2 1.8-.1 1.2 1 2.8-2.8 1.9-3.7-2.9-1-2.8zm16.2 23.3c0-.5.5-.7.3-1.3.4-.1.9-.2 1.3-.4-.7 1.4.3.7.8 2.2-.8-.1-1.1-1-2.4-.5zm16.9 1.3c-4-.6-3.6-3.4-6.1-7 1-.3 2.6-.4 2.4-1.3 1.4-.1 1.3 2 3.2 1 .2.6.4 1.1.6 1.7-1.7.2-1.1 1.4-3.1 1.4 1 1.5 4.3 1.8 3 4.2zm2.5-5.9c.3-.8.3-1.7-.3-3 2.2-.1 1.6-1.5 3.8-1.6.1 1 .9.9 1.7.8 0 2.2-2.8 3.9-5.2 3.8zm64.1-21.6c2.3-1.6 1.1 2.4 2.8 1.7-.1 1.2-1.2 2-2.7 2.6-.7-1.7-1.2-3.4-.1-4.3zm-12.6 17.3c.3.9.7 1.9 1 2.8-.9.2-1.8.5-2.6.7-1-1.8-1-3.3 1.6-3.5zm-7 .6c1.3 1.9-3.1 2-3.8 1.6.2-1.2 2.4-2.2 3.8-1.6zm-7.3-13.9c.2.6.4 1.1.6 1.7-1.3.4-2.6.7-4 1.1-.6-1.8 1.4-2.3 3.4-2.8zm-12.3 1.4c4.1 2.9-2.6 3.2 0 0zm-5.7 16.9c-.3-1.3 1.2-1.7 2.9-2 .2.6.4 1.1.6 1.7-1.4.5-2.5.5-3.5.3zm16.7 16.4c-.3-2 2.9-1.7 4.4-1.8-.3 1.7-2.5 1.8-4.4 1.8zm12 4.1c-3.4.8-6.5 1-8.3-.8-1.5-1.9 1.1-2 .1-3.7 4.8-1.8 10.4.4 8.2 4.5zm-7-12.6c-.4 3.4-2.8 6.1-8.4 5.1-.7-2.4-2.3-3.3-3.8-4.5-.7-3.5 5.9-17.7-4.5-14.7-1-1-2.6-1.1-3.2-2.8.7-4.4 9.2-2.5 11.6-6.2 1.5 0 3.3 1 2.3 2.4 5.1-2.3 7.4 1.9 6.2 5.1-3.4.6-9 4-10.1 8.2 3.5-3.2 6.7-1.7 8.5 1.3.8-.7 1.7-1.3 2.7-1.7.8-.9 2.8-.7 4-.4.3 0 .6.1.9.1 0 4.6 3.1 4.5 3 8.4-3.3 3.5-6.6 2.1-9.2-.3zm18-7.6c-.8 2.7-3.2 4.6-7.1 5.9-.9-.8-2.4-.9-2.5-3 3 .8 6.2-3.1 9-3.2 1-.6 2.4-1.3 3.2-1.5-.4.8-1.6 1.3-2.6 1.8zm-4.1-4.1c1.7-1 2 .3 3.5-.3.5 1.7-3.5 2.5-3.5.3zm8.7 1.7c2.7-.5.1 1.9 2.1 1.9 0 1.4-3.6-.6-2.1-1.9zm7.7-2.7c-2.4.6-2.9-1.7-5-1.7-2.4.3-.9 2.4-3.4 2.7-4.6-.1-4.3-3.5-8.3-5.1 1.1-3.3.3-3.5-1.7-6.9.6-.4 1.3-.7 1.9-1-.1-.2-.2-.3-.3-.4.4 0 .8 0 1.2.1 8.3-3 14.9 2.8 18.5 10.3-.3 1-1.8 1.4-2.9 2zm7.3-14.2c.2 1.2-.8 1.9-1.2 2.8-1.1.2-.2-2.6 1.2-2.8zm-1.4 14.5c.4-.9-.1-2.2.3-3.2 2.7-.2 2.2 3-.3 3.2zm23 1c-.2-.6-.4-1.1-.6-1.7.6.2 1.3.3 2.2 0 .7 1.2-.6 1.4-1.6 1.7zm36.4-27.2c.1 1.8 1.7 1.3 1.9 3.2-1.8 1.5-4.2 1.6-6.2 1 1-1.5-.2-3.3 4.3-4.2zm.2 21.6c-1.5.4-3.1.8-4.6 1.2-.3-.7-.5-1.5-.8-2.2 2.8-.1 2.6-1 4.8-.7.2.6.4 1.2.6 1.7zm-25.2 20.9c-3.3.9-4.4-1.8-6.2-3.2.5-3.2 3.7-5.3 4.2-8.5 7.9-.6 5.6 9.2 2 11.7zm-2.8-15.7c2.4-1.1 3.5 2 .8 2.2-1.5-.8-.2-.7-.8-2.2zm13.4-9.3c1.6 0 2.1 2.3-.2 2.5-1.5-.8-.3-.7-.8-2.1-.7 1-2.1 1.8-3.6 1.1v-.8c-.9 0-1.8-.2-2.7-.4.1.8 0 1.6-.4 2.6-9.4 1.9-12.9-.1-10.4-8.9 3.2-1.5 4.4-1.7 7.5-1.4.1.5.3.9.4 1.3.9.2 2 .3 3.1.4 1-.1 2 .3 3.6.1 0 .1 0 .1.1.2 3.5.3 6.5.9 6.7 4.1-1.2.5-2.3.9-3.3 1.3zm3.6-13.3c.6 2.1 2.3 4 1.1 7.1-9.4 1.9-12.9-.1-10.4-8.9 3.2-1.5 4.4-1.7 7.5-1.4.2 1.4.9 2.1 1.7 2.6 2-1.7 3.1-.5 5.5-.9.5.9-.3 1.1-.1 1.9-2.6 1-3.3-.7-5.3-.4zm4.2 5.6c-.2-1.8.5-3.3 3-3.9 2.5 1.2 0 5.2-3 3.9zm5.2 28.2c-1.1-.6-1.2-1.6-.8-2.5-1.6-.2-2.8-1.1-3.2-3.2 1.7-1.9 4.5-3.4 5.2-5.7 3.2.3 2.2 3.5.7 6.1.2-.1.3-.2.5-.3 3.1 2-.8 4.3-2.4 5.6zm5-13c-.8-1.3.8-1.5-.3-3 1.7.6 1.1-.8 2.8-.2-.1 1.5-.5 2.7-2.5 3.2zm7.4 4c-2.4-1.3-.4-4.1 2.4-5.5 3.1 1.9-.8 4.1-2.4 5.5zm13.4-12.6c-3.4 2.8-7 2.5-8.7 6-11.6-.1-8.7-10.5-4.9-15.9 3.9-.2 3.8-2.3 5.8-3.3-1.5-.7-2.9-1.7-3.7-3.6 4.2-5.4 10.3 0 6.4 3.3 2.8 4.4 6.6 7.7 5.1 13.5zm67.7 2.6c.4-.9-.1-2.2.3-3.2 2.7-.1 2.2 3-.3 3.2zm-7.2-16.6c.9 1.8-3.1.9-.9 1.5.2.5-.7.7-1.1.9 0-.5-.4-.5-.9-.4.1-1.2 1.6-2.6 2.9-2zm-5.8-12.7c-.3 1.3-2.5 2.2-2.8 0 1.3-.5 1.9 0 2.8 0zm-14.5 6.5c.2.6.4 1.1.6 1.7-1.3.4-2.6.7-4 1.1-.6-1.8 1.5-2.3 3.4-2.8zm-20.7-1.2c.2.6.4 1.1.6 1.7-1.7 1-2-.3-3.5.3.3-1 1.2-1.7 2.9-2zm-4.2 8.5c2 0 1.4-1.3 3.1-1.4-.4 2.2-1.9 2.4.3 4.8-2.1 1-2.8-.3-3.4-1.5 2.5-.6 0-.6 0-1.9zm-4.7-9.2c.1.4.3.7.4 1.1-1 .4-1.3-.2-2.2 0-.1-.4-.3-.7-.4-1.1 1-.5 1.3.2 2.2 0zm-7.8 20.1c2.6-.6.1-.5.1-1.9 2 0 1.4-1.3 3.1-1.5-.4 2.2-1.9 2.4.3 4.8-2.1 1.1-2.8-.1-3.5-1.4zm4.6-14.9c-.7-.4-1.2-1.1-1.5-2.1 1.4-1.5 2.1-.3 3.8-1.6-.2 1.4.2 3.2-2.3 3.7zm2.5 24c-.3-1.3 1.2-1.7 2.9-2 .2.6.4 1.1.6 1.7-1.5.6-2.6.6-3.5.3zm16.6 16.4c-.3-2 2.9-1.7 4.4-1.8-.3 1.7-2.5 1.9-4.4 1.8zm-1.2-3.2c-1.2 1.2-3 2.2-5.2 2.9-.9-.8-2.4-.9-2.5-3 1.6.4 3.3-.6 5-1.5-.8-1.4-2-2.2-3.2-3.1-.7-3.5 5.9-17.7-4.5-14.7-1-1-2.6-1.1-3.2-2.8.7-4.4 9.2-2.5 11.6-6.2 1.5 0 3.3 1 2.3 2.4 3.3-1.5 5.4-.3 6.2 1.6.1-.5.3-.9.7-1.2 2.3-1.6 1.1 2.4 2.8 1.7-.1 1.2-1.2 2-2.7 2.6-.2-.4-.3-.8-.4-1.1 0 .5-.1 1-.3 1.5-1.7.3-3.8 1.3-5.7 2.6 0 .2-.1.4-.2.6h-.6c-1.7 1.4-3.1 3.1-3.6 5 8.5-7.8 15.2 12.8 3.5 12.7zm6.1-15.9c.2-1.2 2.4-2.3 3.8-1.6 1.3 1.9-3.2 2-3.8 1.6zm1.6 3.8c-.2.2-.4.4-.5.6-1.2.1-.7-.7.1-1.2.2-.4.5-.6.8-.8-.7-.2-1.6-.1-1.5-1.5 1.3-.6 1.9-.1 2.8-.2.3.6.3 1.1.1 1.5 1 0 2.1.3 2.5.5.7 2.3-2.9 1.9-4.3 1.1zm7.5-2.6s0-.1-.1-.1c-.7.2-1.8.3-2.4.6-.5-1.1.8-1.9 1.9-2.1-.1-1 .4-1.7 2.2-1.9.3.9.7 1.9 1 2.8-.8.3-1.7.5-2.6.7zm2.9-19.3c1.3-.6 1.9-.1 2.8-.1.6.9-3.4 1.9-2.8.1zm4.6 22.2c-1.4-.4 2.3-2.4 4-2.9-.5 1.3-3.1 1.8-4 2.9zm6.1-3.4c2.7-.5.1 1.9 2.1 1.9 0 1.4-3.6-.6-2.1-1.9zm8.9 12.1c-.2-.6-.4-1.1-.6-1.7.4-.1.9-.2 1.3-.4.2.6.4 1.1.6 1.7-.5.2-.9.3-1.3.4zm-1.2-14.8c-2.4.6-2.9-1.7-5-1.7-2.4.3-.9 2.4-3.4 2.7-3.6-.1-4.2-2.2-6.3-3.9-.3.2-.7.3-1.2.2 0 .5.4.5.9.4.2.6-.7.7-1.1.9 0-.5-.4-.5-.9-.4-.2-.9.5-1.4 1.6-1.7-.4-.2-.8-.5-1.3-.7.9-2.8.5-3.4-.9-5.7h-.4c0-.1.1-.2.2-.3l-.6-.9c3.8-2.2 7.2-2.5 10.2-1.7-.4-.3-.9-.6-1.6-.7-1.8-.8 4.1-.4 4 1.5h-.2c1.4.7 2.7 1.6 3.8 2.8 0-.3 0-.7.1-1 2.1-.7 2.6 1.2 4.2 1.2-.1-.4-.3-.7-.4-1.1.9-1.3 4.6-2.2 5.5-.9.9 1.7-1.3 2-1 3.3-.7-.2-1.6-.1-2.4-.1.7 1.1 1.7 1.7 1.2 2.7 0 .1 0 .1.1.2h-.3c-1 .3-2 .6-2.9.8.3.6.7 1.2 1 1.8-.3 1.2-1.8 1.6-2.9 2.3zm4.3 7.2c1.9 1 2.8-1.3 4.2-.5.5 1.8-3.8 2.4-4.2.5zm23-20.8c-.5 2.5-2.1 1.5-4.9 2.9-3-2.9-3.5-4.9-1.6-8.1 4.3-1.8 4.3 3.6 6.5.4-.3 1.1-2.4 3.8 0 4.8zm32.2-22.1c.2 1.4-1.4 1.7-2.5 1.2-.2-1.4 1.4-1.8 2.5-1.2zm-17.4 49.1c-1-1.5.5-1.7-.1-3 1.9-.3 3.4 0 3.5 2.3-1 1.3-1.4-.1-3.4.7zm6.8-13.6c3.6.3 6.2 1.9 7.3 5.7-4.7 7.6-14.4-.9-7.3-5.7zm16.7-6.6c-4.8-2.2-21.2-3.3-14.1-9.6 2.6-.2 3.3 2.3 4.9-.5 4.4-.2 5.4 4.5 9.4 2.8-.2 3.1-1.2 4.7-.2 7.3zm1.1-23.8c1.2.5 3.1-.2 3.3 1.7-1.1 1.8-4.8 0-3.3-1.7zm58.8 11.3c1 2-1.5 2.2-3.5 2.6-.2-.8-.4-1.6-1.2-1.6-.5-1.6 4.3-2.6 4.7-1zm-3.9-23.9c.2-1.7 3.1-.7 3.5-.2-.1 1.4-2.6 2.6-3.7 2-1.6-1.2 2.7-1.7.2-1.8zm2.4 8.5c-1.1-.1-1.9-.5-3-.6-.2-1.9 3.2-1.8 3 .6zm.8 2.9c-.9 3.3-6.8 5.6-10.4 3.5-.9-1.8-.6-2.9.4-3.7-1.5-.6-3.5-.4-5.7 0 1.5-4.3 13-4 15.7.2zm-11.5-7.8c-3.8 1.1-6.1 0-7.2-2.7 2.4-1.3 6.2-.2 7.2 2.7zm-29.5 19.1c1.2 1.6-1.2 1.3-2.4 1.7.3-.8 1.2-1.3 2.4-1.7zm-1.5 19.7c-.2-.6-.3-1.1-.5-1.7.4-.1.9-.2 1.3-.3.2.6.3 1.1.5 1.7-.4.1-.9.2-1.3.3zm-4.7-3.8c-.7-.3-.8-1.5-1.8-1.4 1.5-1.4 4.7-3 3.8-6.9 5.5.5 1.6-4.4 4.8-5.9.1 1.2 1.3 5 2.2 2.6 2.4-.5-.9 2.2 1.2 1.6-1.2 1-1.9.6-3.7 2 1.3 1.1 2.7 2.1 3.8 3.4-2.7 3.3-6.2 2.3-10.3 4.6zm20.5 1.6c-3.1-.7-5.8-1.5-4.8-4.4 1.3-1.1 2.9.9 2.7-.6 2.6.2 3.2 3.2 2.1 5zm1.3-17.9c-.7-3-.4-3-1.6-5.7l2.7-.6c-.9 3.8 1.4 4.7-1.1 6.3zm4.9 17.1c-1.1-.3-2.4-.4-2.7-1.8.7-.1 1.3-.3 2-.4.4 1.5 1.5.8.7 2.2zm4.9-2.9c.1-1.9-4.2-1.7-2.8-4.8 2.1-1.5 1.8 0 4.2-.3 7.3-5.4 11.7-.4 17.3.5.3 1 .5 1.9.8 2.8-2 2-4-.4-5.4 1.2 1.3 1.4 3.9.9 5.5 1.8-2.9 11.3-12.7-3.3-19.6-1.2zm1-250.2c-.9.2-1.8.5-2.6.7-.3-.7-.5-1.5-.8-2.2 1.2-2.2 4.9-.6 3.4 1.5zm3.2-3.3c-1.7-.2-3.6 0-5.2-.4.6-1.6-1.1-2.4-.7-4.1 3.5-.9 6.4 1.6 5.9 4.5zm1.9 79.8c-1.9-.2-2.7-2.8.3-3.2-.3 1 .2 2.3-.3 3.2zm-1-21.2c-.1-1.6 2.3-2.1 1.5-4.1 1.4-.5 1 1.9 1.7 2.6-2.1.1-1.5 1.3-3.2 1.5zm14.1-113.4c1 4.5-4.4 6.2-5.9 9.6-1.3-.6-2.4-1.5-4.1-1.3-.8-1.9-.3-4.3-2.2-6.1 0-1 .7-.2.9.4 3.4-4.4 6.2-4.2 11.3-2.6zm-5.5-48.9c-.1-.4-.3-.7-.4-1.1 1-.5 1.3.2 2.2 0 .1.4.3.7.4 1.1-1.1.4-1.4-.2-2.2 0zm13.2 100.4l3.3-.9c1.5 2.9-2.7 3.4-3.3.9zm.2 92c.7-.2 1.3-.4 2-.5 1.5 1.4-2.4 2.4-2 .5zm.9-50.6c1.4 1.6-.6 1.6-.5 2.6-1-.1-1.7-.9-2.1-1.9.8-.2 1.7-.5 2.6-.7zm-.2 18.2c-.1 1.2-1.2 2-2.7 2.6-.7-1.7-1.2-3.4-.1-4.3 2.3-1.6 1.1 2.3 2.8 1.7zm1.6 42.9c1.3 2.3 0 3.4-.4 5-1.5-1.5-1.9.3-4.8.7-.2-.8-.5-1.6-1.3-1.5-.4-3.4 2.5-4.8 6.5-4.2zm-4 37.9c2.7.7 3.1 1.6 3.6 3.9-2.1 1.1-3 .1-4.4-.1-1.1-1.9 1.5-2.1.8-3.8zm2.1-14.7c-.1 1.9-3.5 1-5.6 2.7 0-2.8 2.7-1.5 5.6-2.7zm-3.3-8.8c1.8-1.1 1.6.9 2.1 1.9-1.2.2-1.9-.6-2.1-1.9zm-4.7-33.8c.1-1.7 2.5-.1 3.5-.3 0 1.7-2.5 0-3.5.3zm-2.8 3.3c-.7.2-1.4.3-2 .3.1 1.2-.9 2.4.1 3.8-2.3 0-1.8-2.1-1.4-3.8-1.4-.2-2.4-.8-3-1.6-1-.2-2.2-1.6-.8-1.8-.2-.8-.1-1.5 0-2.3 2.3-.7 2.7 1.7 4.9 1.1 1.8-1.1 3.7-2.3 5.3-2-.4 1.8-1.6 3.3-3.4 4.5.5.6.8 1.1.3 1.8zm-4.8 15.9c-1.3-1.8-.6-1.4-1.9-3.2 1.6-.5 3.2-.9 4.2-.5.3 1.8-.5 3-2.3 3.7zm-2.5-26.2c.2.5-.7.7-1.1.9 0-.5-.4-.5-.9-.4.1-1.2 1.6-2.6 2.9-2 .9 1.9-3 .9-.9 1.5zm-1.1 2c3 .3 5.1-.4 7.6-1-.2-.2-.3-.5-.3-.8 1.7-1 2 .3 3.5-.3.3.9-.7 1.6-1.8 1.6-1.8 2.2-5.5 2.8-9.6 3.1-.3-1.1 1.7-1.2.6-2.6zm4.6-29.1c-.7-1.7 1.4-2.2 3.4-2.7.2.6.4 1.1.6 1.7-1.3.3-2.7.6-4 1zm5.5 16.8c-1.7.1-2.2-1.7-3.2-2.8 1.9-.3 4.1 1.2 3.2 2.8zm-6.5-83.9c1.3-.4 2.6-.7 4-1.1.4.9.4 2.2 1.5 2.1-1.1 1.2-4.4 1.7-5.5-1zm4.8 57.5c1.7-1.1 1.4-3.1.2-5.6 2.7-.8 3.8 1 5.6 1.6.9 2.7-2.6 4.4-5.8 4zm3.6-27.5c-.3-.4.1-.6.5-.7-.6-.8-.8.4-2 .5-.2-1.4-1.6-.9-1.7-2.6 1.1-.3 1.9 0 2.4.6 1.6-.5 1.7-1.6 3.3-.9-1.5.7.4 3-2.5 3.1zm2.3-30.4c-.8.1-1.1.4-1.1.9-3.2-.3-4.7-3.5-2.6-5.4 1.7.7 2.9 2.3 3.7 4.5zm-13.6-3.7c.8 1.5-1.3 4.1.9 4.7-.7 2.2-2.3-1.4-3.9-.8 2-.9 1-3.1 3-3.9zm1.6 143.6c-2 .8-3.1.3-3.4-1.5.6-1 2.2-1.4 3.3-.9.4 1-.4 1.4.1 2.4zm2.5-3.1c-1.1-2.7-3.6-2.9-4.1-7.5 5.6-1.4 4.6 5.1 4.1 7.5zm2.1 3.7c-2.5-2.4-.3-3.2 1.9-4.1-.3-.3-.5-.6-.7-.9 1.2-.7 2.4-.7 3.3-.4.2-.2.4-.5.5-.8 2.3.7 2 2.6 1.6 4.5-1.5.6-2.3-.1-2.7-1.4-.1 0-.3-.1-.4-.1-1.1 1.1-1.3 2.6-3.5 3.2zm4 15.1c1.1-.3 1.9 0 2.4.6 1.6-.5 1.7-1.6 3.3-.9-1.5.7.4 3-2.5 3.1-.3-.4.1-.6.5-.7-.6-.8-.8.4-2 .5-.3-1.4-1.7-.8-1.7-2.6zm-1.2 75.3c1-1.2-1.6-2-.3-3.6 2.4-.6 3.7.1 4.2 2.1-2.3 1.1-1.7.5-3.9 1.5zm5.8-42.3c-.2-.8-.4-1.5-.6-2.3.8-.1 1.2-.4 1.2-.9.8 0 .8 1 1.7.8-1 .7-.6 2.1-2.3 2.4zm.5-13.4c-2.4-.5-2.1 2.7-3.2 1.3-1.9-1.3.4-3.8.6-5.6 2.4-.8 2.9-1.1 6.6-2 1.4 2.2.6 5 4.3 5.1.7 2.8-.3 4.7-.9 6.8-5.4 1.5-7.3-2-7.4-5.6zm7.2-19.7c0-1.9 1.6-1.1 3.2-1.3.9 2.5-1.9 1.9-3.2 1.3zm6 114.1c3.3 5.4.9 12.2-6.3 10.4 1.2-3.7-3.6-5.5-1.7-8.7 1.3-.5 1.9 0 2.8 0 1.5-.2-.3-2.1-.1-3 3.1 0 1.7-2.4 4.2-2.7 1.9.3 2.8 1.9 4.3 2.7.4 1.4-2.1 1.9-3.2 1.3zm.3-11.6c-.2-1.9-2.4-.8-2.3-3.1 2.3-1.7 5.8-2.9 6.7 1-1.1.9-3 1.4-4.4 2.1zm6.2-58.7c-2.7 1.4-3.3 2-6 1.3-1.4-2.1.8-4.7-1.6-5.7 2.3-1.5 6.6 1.2 7.6 4.4zm-5.3-64.3c1.2-.2 1.2-1.1 2.4-1.3 1.2 1.5 1.2 1.6 1.2 3.4-1.9.5-3.3.2-3.6-2.1zm7.1 9.8c-2 .8-3.1.3-3.4-1.5.6-1 2.2-1.4 3.3-.9.4 1-.4 1.4.1 2.4zm-6.3 96.5c-2.8-4.2 2.2-7.6 6.6-4.5-1.7 2.2-2.7 4.9-6.6 4.5zm12.7-43.2c-.3-2.4.9-4.1 3.6-5 2.5 1.6-.3 3.8-.6 5.6-1.1-.1-1.9-.5-3-.6zm9.3 35.4c-.1-.7-.4-1-1-1 .6-3 5 .2 1 1zm-.8-.4c.6 1.5-.4 2.1-2.2 2.3-.6-1.5 1-1.8 2.2-2.3zm-2.1 5.3c.3 1.5-2.1 1.9-3.2 1.3-.5-1.4.6-2 .5-3.1 1.5-.2 1.3 1.9 2.7 1.8zm-3.2-99.3c2.3.7 2 2.6 1.6 4.5-1.7.6-2.4-.2-2.8-1.7-1.4 1.1-1.4 2.8-3.8 3.5-4-3.9 4.1-3.5 5-6.3zm-1.5 25.5c.2 1-.7 1.6-2.2 1.8-.2-.6-.4-1.1-.6-1.7 1.1-.3 1.6.4 2.8-.1zm-3.3 4.1c2.1.2 3.9.7 5.6 1.6-1.4 1.7.6 5-3 5.7-.8-2.5-2.1-4.3-4-5.1-.7-1.2 3.2-.5 1.4-2.2zm.7 36.2c1 1.5-.5 1.7.1 3-2.6.8-3.9-.3-4.3-2.7 1.6-.4 3.2-.7 4.2-.3zm-3-63.2c-1.1-2.7-3.6-2.9-4.1-7.5 5.6-1.4 4.6 5 4.1 7.5zm2.7-42.3c2.6 1.2 0 5.2-3 3.9-.2-1.8.5-3.3 3-3.9zm-1.3-9.9c.4 1.4-2 2-3.1 1.4-.4-1.4 2-1.9 3.1-1.4zm-7.6-9.2c-.4.1-.9.1-1.3.1.1 0 .2 0 .3.1.5.9-.3 1.1-.1 1.9-1.7.9-1.7-.8-3-.4.2-.7.8-1.2 1.5-1.5-2 0-3.8-.2-4.7 0-.9-3.9 9.5-5.4 7.3-.2zm-4.9 5.5c4.3.9 6.4 7.2-.1 8-.7-.3-.9-1.4-1.9-1.3.9-3 2.8-2.8 2-6.7zm-2.9 10.1c3.2-1.5 4.5-1.7 7.6-1.4.2 1.4.9 2.1 1.7 2.6 2-1.7 3.1-.5 5.5-.9.5.9-.3 1.1 0 1.9-2.5 1-3.2-.7-5.2-.4.6 2 2.1 3.9 1.2 6.7 0 .1-.1 0-.1.2v-.2h-.2c-.4 0-2.6 1.3-2.6.9-7.9.9-10.2-1.4-7.9-9.4zm-.8 14.9c-.7 1.4.3.7.8 2.2-4.2.4-3.8 2.7-5.8 4 .5-.9 0-2.2-.5-3.5-1.2.2-1.1 1.1-2.4 1.3-1.5-1.6 2-1 .5-2.6 2.9 2.2 4.2.1 7.4-1.4zm2.7-80.8c-.9.2-1.8.5-2.6.7-.3-.7-.5-1.5-.8-2.2 1.2-2.3 4.9-.6 3.4 1.5zm-2-21.4c.1 1 .9.9 1.7.8-.3 1.1-.5 2.3-2.7 2.6-.7-1.7-1.1-3.1 1-3.4zm5.2 18.1c-1.7-.2-3.6 0-5.2-.4.6-1.6-1.1-2.4-.7-4.1 3.5-1 6.4 1.5 5.9 4.5zm4.2-12.4c.4 1-.4 1.4.1 2.4-2 .8-3.1.3-3.4-1.5.6-.9 2.2-1.4 3.3-.9zm-10.6-23.5c1.3-.7-1.7-1.8-1.9-3.2 1.9-10.6 16.5-4.4 8.6 3.8-3.8 1.3-5.8 1.6-9.6-.4-.8-2.6 1.8.2 2.9-.2zm-5.6 6.5c.8-.1 1.1-.4 1.1-.9 1 .1 1.7.9 2.1 1.9-1.5.1-2.6-.6-3.9-.8-.1-.7.6-.5.7-.2zm-.5 37.4c-2.1 1.1-3 .1-4.4-.1-1.1-1.9 1.4-2.2.8-3.9 2.7.8 3.2 1.7 3.6 4zm-1.5-18.6c-.1 1.9-3.2 1.1-5.3 2.6 1.5.1 2.5.8 3.8 1.2.7 1.9-2.2 3.6.3 4.8.6 1.2-7.1-2.9-5.7-5.8.5-.1 1-.2 1.4-.2 0-2.6 2.7-1.4 5.5-2.6zm3.8-63.6c-3.2.7-4.4 1-6.1 1.1-.3-1-1.2-1-1.5-2 2.2-2.3 3.9-2.9 7.3-3.9 1.5 2.7 1.3 2.7.3 4.8zm.1-14.5c-.4-1.9 2.1-1.7 2.4.5-.9 0-1.4-.7-2.4-.5zm4-9.5c4.3 3.7-3.9 3.8-4.5 6.5-2.3-.5-2.2-2.4-1.9-4.3-.3.5-.9.9-1.8 1.3.4.3.6.8.8 1.4-1.5.7-2.4 0-2.4-.9-.3.1-.7.1-1 0-.1.5-.3.9.1 1.5-.8-.2-1.2-1.1-2.4-.6-.1-.7.3-1.2 1-1.5-.1-.1-.2-.3-.3-.5 3 .4 4.8-1.2 6.1-1.4.1.1 0 .3 0 .5 1.6-.7 2.4.1 2.9 1.6 1.2-1.1 1-2.8 3.4-3.6zm-12.1 2.3c-2.3-.6-.6-3.5 1.1-4.1.2 1.5-1.6 2.4-1.1 4.1zm.6-7.9c-.4-1.8-2.4-1.7-1.4-3.3 1.8-1 2.3.3 4.1-.7l1.2 2.7c-1.8 1.3-1.5.6-3.9 1.3zm8.6 1.7c.3 1-.6 1.6-2.1 1.9-1.1-1.5.7-2.4 2.1-1.9zm.5-33.5c.3 1.6-2.1 2.3-1.1 4.1-1.4.6-1.1-1.8-1.9-2.5 2-.2 1.3-1.3 3-1.6zm-4.9 11.8c1.3 1.3 2.6 2.4 3.5 4.5-.7 1.1-2.7 1.7-3.2 2.9-.4-.9-2.3-1.5-4-2.4.4-2 .1-4.2 3.7-5zm1.5 11.2c-1.9.5-3.6 1.1-2.5 2.7-1.5.1-2.4-.7-4.4.2 1.6-3-1.9-2.3-3.1-5.3 3.6-2.8 8.6-1.8 10 2.4zm-9-18.9c1.2 1.4-.3 1.7.6 2.9-3.1 1.2-5.9 1.7-6.6-1.6 2.1.2 2.9-2.3 6-1.3zm-4.1 62.6c.5 1.6-2.4 1.9-2.8.2 1.3-.6 1.9-.1 2.8-.2zm-5.1-57.6c0 1.5-2.4 3.1-4.2 2.4-.4-1 .4-1.4-.2-2.4 1.7.2 2.2-.7 4.4 0zm-3.6 97c-.2.9-1 1.4-2.3 1.8-.2-.6-.4-1.1-.6-1.7 1.3-.6 1.9-.1 2.9-.1zm-5.1-122.9c3.2 2.7 3.8 4.7 2.2 8-4.1 2-4.6-3.3-6.6 0 .3-1.2 2.2-4-.3-4.8.3-2.6 2.1-1.6 4.7-3.2zm-7.2 40.1c2.1 1.7 1.4 2.8 3.8 4.5 1.5-.8 2.7-1.6 5.1-2-1.5 3.3-7.6 3.3-10.4 5.3-1.5-1.7-2.2-4.8-5.6-3.4 1.4-2.5 4.3-3.6 7.1-4.4zm-28-13.1c-.3-1.3 1.3-1.8 2.4-1.3.3 1.3-1.3 1.7-2.4 1.3zm7.9-36.1c-3.6-.1-6.4-1.5-7.7-5.2 4.1-7.9 14.4.1 7.7 5.2zm-1.3 16.4c-2.6.3-3.5-2.1-4.8.7-4.4.4-5.7-4.2-9.6-2.3-.1-3.1.7-4.7-.5-7.3 5 2 21.5 2.2 14.9 8.9zm-14.1 15c-1.2-.4-3.1.3-3.5-1.5 1-2 4.8-.3 3.5 1.5zm-17.9-9.2c-1.3-1.5 1.1-1.4 2.2-1.8-.2.8-1 1.4-2.2 1.8zm0-19.7c.2.6.4 1.1.6 1.7-.4.1-.9.2-1.3.4-.2-.6-.4-1.1-.6-1.7.4-.2.9-.3 1.3-.4zm5 3.5c.7.3.9 1.4 1.9 1.3-1.4 1.5-4.4 3.2-3.2 7-5.5-.2-1.3 4.5-4.3 6.1-.2-1.2-1.7-4.9-2.3-2.4-2.4.6.7-2.2-1.3-1.5 1.2-1 1.8-.7 3.6-2.2-1.4-1-2.8-1.9-4.1-3.2 2.2-3.4 5.7-2.6 9.7-5.1zm-46.8 17.2c-1.1-1.9 1.3-2.2 3.3-2.8.2.8.5 1.6 1.3 1.5.7 1.7-4.1 3-4.6 1.3zm2.7 15.3c1.1 0 2 .4 3.1.4.3 2-3.1 2-3.1-.4zm-1.1-2.8c.6-3.3 6.3-5.9 10.2-4 1 1.7.8 2.9-.1 3.7 1.5.5 3.5.2 5.7-.3-1.2 4.3-12.7 4.6-15.8.6zm24.6-30.2c3.2.6 5.9 1.2 5.1 4.1-1.2 1.2-3-.8-2.6.7-2.7 0-3.5-2.9-2.5-4.8zm0 17.9c1 3 .6 3 2 5.6-.9.2-1.8.5-2.6.7.7-3.8-1.8-4.5.6-6.3zm-6.1-16.8c1.1.2 2.4.3 2.8 1.7-.7.2-1.3.4-2 .5-.5-1.5-1.5-.8-.8-2.2zm-4.7 3.2c0 1.9 4.3 1.5 3.2 4.7-2 1.6-1.8.1-4.2.5-6.9 5.7-11.6 1-17.3.5-.3-.9-.7-1.9-1-2.8 1.8-2.1 4 .1 5.3-1.5-1.4-1.3-4-.7-5.6-1.5 1.9-11.5 12.8 2.6 19.6.1zm-39.3 35.3c-1.2 1.6-2.5-1.9-2.2.2-1.1.1-.1-.8-.8-1.6 1.6-.8 2.5-.1 3 1.4zm-15.6-.6c-2.5 1.3-3.7-.2-4.8-2 2.5-1.2 3.4.9 4.8 2zm-1.5-37.1c.3 1-.4 1.6-2 2.1-1.1-1.6.7-2.6 2-2.1zm-1.3 30.8c-.1-.5-.5-.4-.9-.3.9-1.4 1.4.7 2.7 2.2-.8.3-1.7.7-2.5 1-1-1.4-1.1-2.5.7-2.9zm-7.7-23.4c3.1.2 4.7-1.4 6-1.7.6 1.4-5 4.1-6 1.7zm1.2-5c.3 1.6-1.4 2.5-.8 4.2-2.4-.4-.9-3.5.8-4.2zm-2.8 16.5c-.4-1.8-.1-1.2-1.4-2.7 2.6-2 4.1 2.6 1.4 2.7zm-.7 7.4c1.8 0 1.6-.8 3.7-.2-.7-1-1.3-3.1-3.3-1.9.1-1 .1-2.1 1.7-2.6 2 2.2 1 1.9 3.2 4.6-2.6 2.6 2.2 5.7-2.6 8.1.7-2.7-1.1-3.5-3.4-5.1-1-1.4 2.2-1.4.7-2.9zm-18.8-28.6c.1.5-.4.8-.1 1.3-.4.2-.8.3-1.3.5.5-1.5-.4-.7-1.1-2.1.8 0 1.3.9 2.5.3zm-2.3 26.3c.8.8 1.5 2.1 2.7 2.2-.2 2.1-2.2-1.1-4.1 1-2.5-2-5.2-4.6-7.2-7.3-2.9.2-6.5-6.4-3.2-8.3 0 1.4.2 2.7 1 3.7-.7-2.7-.4-5.5 1.8-8.3 11.2-2.5 12.5 11.6 9 17zm-14.7-25.9c4.1.2 4.1 2.9 7.1 6.2-1 .4-2.5.7-2.2 1.5-1.3.3-1.6-1.9-3.4-.6-.3-.5-.6-1.1-.8-1.6 1.6-.4.9-1.5 2.9-1.8-1.2-1.2-4.6-1.2-3.6-3.7zm-1.6 6.2c-.2.8-.1 1.8.8 2.9-2.1.4-1.4 1.6-3.5 2-.2-1-1-.8-1.8-.6-.4-2.2 2-4.2 4.5-4.3zm-21.8 3.6c-.3-.5-.6-1.1-.8-1.6 1.4-.7 2.5-.9 3.4-.7.5 1.2-1 1.8-2.6 2.3zm-.5 15c-4.6-2.4 2-3.4 0 0zm-9.2-.3c.9 1.6-1.1 2.3-2.9 3.1-.3-.5-.6-1.1-.8-1.6 1.2-.5 2.5-1 3.7-1.5zm-2.3 9.9c-1.5 1.3-1 3.3.6 5.5-2.6 1.1-3.9-.6-5.8-.9-1.3-2.6 1.9-4.7 5.2-4.6zm-6.4-21.9c0 1.2-2 2.5-3.5 2-1.6-1.7 2.8-2.2 3.5-2zm-20.4 21.8c-2 1.8-1.4-2.2-3-1.4-.1-1.2.9-2.1 2.3-2.8 1 1.7 1.7 3.2.7 4.2zm10-18.4c-.5-.9-.9-1.8-1.4-2.7.8-.3 1.7-.7 2.5-1 1.2 1.8 1.4 3.2-1.1 3.7zm-8.1-4.5c.4-2.7 2.5-4.9 6.2-6.6 1.1.7 2.5.7 2.9 2.7-3.1-.4-5.7 3.7-8.4 4.2-.9.7-2.2 1.5-3 1.9.2-.9 1.3-1.5 2.3-2.2zm4.7 3.6c-1.6 1.1-2-.1-3.4.7-.8-1.6 3-2.9 3.4-.7zm-8.9-.7c-2.6.8-.4-1.8-2.4-1.6-.2-1.5 3.7.2 2.4 1.6zm-13 7c-2.6.5-2.6-2.7-.1-3.2-.3 1 .3 2.3.1 3.2zm.6 11.4c-.4-1.2.5-1.9.8-2.9 1-.4.6 2.5-.8 2.9zm2.5-12.6c.1-1 1.6-1.6 2.6-2.3 2.3-.9 3.2 1.4 5.2 1.2 2.4-.6.6-2.5 2.9-3.1 4.5-.4 4.8 3 9 4.2-.6 3.4.2 3.5 2.7 6.6-.6.4-1.2.8-1.7 1.1l.4.4c-.4.1-.8.1-1.2 0-7.7 4-15.1-1.1-19.9-8.1zm-58.5 30.3c-.4-1.8-1.9-1.1-2.3-3 1.6-1.6 4-2.1 6-1.7-.8 1.7.6 3.4-3.7 4.7zm4.9-.6c.6-1.2 3-2.7 3.5-.3-1.7.9-2-.4-3.5.3zm27.3-30.2c.3.5.6 1.1.8 1.6-.7-.1-1.3-.2-2.2.2-.9-1 .4-1.4 1.4-1.8zm-9.6-.8c1.6.6.3.7 1.1 2.1-2.2 1.4-3.7-1.5-1.1-2.1zm-11 10.3c1.6.6.4.7 1.1 2 .5-1.1 1.8-2 3.5-1.5.1.3.1.5.1.8.9-.1 1.8 0 2.7.1-.2-.8-.2-1.6 0-2.6 9.1-2.9 12.9-1.3 11.6 7.7-3 1.8-4.2 2.1-7.2 2.2-.2-.5-.4-.9-.6-1.2-1-.1-2-.1-3.1-.1-1 .2-2.1-.1-3.6.3 0-.1 0-.1-.1-.2-3.5.1-6.6-.2-7.3-3.4 1.1-.7 2.1-1.3 3.1-1.7-1.6.3-2.4-1.9-.2-2.4zm-4.4 10.9c.3 0 .5.1.8.2-.1-.6 0-1.2.1-1.9 9.1-2.9 12.9-1.3 11.6 7.7-3 1.8-4.2 2.1-7.2 2.2-.4-1.3-1.2-2-2-2.4-1.7 1.9-3 .9-5.3 1.4-.6-.8.1-1.2-.2-1.8 2.3-1.2 3.3.3 5.3-.1-.1-.2-.2-.5-.4-.7-.1.1-.1.3-.2.4-3.9 0-4.3-3-2.5-5zm-2 0c.5 1.8 0 3.3-2.4 4.1-2.7-.8-.8-5 2.4-4.1zm-4.2-12.7c.4.7.8 1.4 1.1 2.1-2.7.4-2.5 1.3-4.7 1.2-.3-.5-.6-1.1-.8-1.6 1.5-.6 3-1.1 4.4-1.7zm-5.2-14.7c1.2.5 1.5 1.4 1.2 2.4 1.6 0 2.9.8 3.7 2.8-1.4 2.1-4 3.8-4.3 6.2-3.2 0-2.7-3.3-1.6-6-.1.1-.3.2-.4.3-3.5-1.5 0-4.2 1.4-5.7zm-3.1 13.4c.9 1.2-.5 1.6.8 2.9-1.8-.4-1 .9-2.8.5-.1-1.4.2-2.6 2-3.4zm-7.9-3.1c2.6 1.1 1 4-1.5 5.7-3.4-1.5.1-4.1 1.5-5.7zm-11.5 13.9c3-3.1 6.6-3.2 7.8-6.9 11.5-1.1 10.2 9.4 7.2 15.2-3.9.6-3.4 2.7-5.3 3.9 1.6.5 3.1 1.3 4.2 3.1-3.3 5.8-10.2 1.1-6.9-2.6-3.3-3.9-7.6-6.8-7-12.7zm-2.4 2.3c-2.5.8 0 .5.2 1.8-2 .3-1.2 1.4-2.9 1.8.1-2.2 1.6-2.6-1-4.8 1.9-1.2 2.8 0 3.7 1.2zm-2.4 15.3c.7.3 1.3.9 1.8 1.9-1.1 1.6-2 .5-3.5 2-.1-1.5-.7-3.2 1.7-3.9zm-.8 4.1c.2.4.4.7.6 1.1-.9.5-1.4-.1-2.2.2-.2-.4-.4-.7-.6-1.1 1-.5 1.4.1 2.2-.2zm-71.8 8.9c-5.7-.2-4.1-6.7-7.8-7.7 0-3.9 3.5-6.3 3.6-10.2 1.8-.5 3.5-.9 5.3-1.4 2.9 1.7 4.6 5.5 6.7 8.6.1 5.1-2.8 9.4-7.8 10.7zm65.2-8.3c-.7 0-1.2-.2-1.8-.3-.4.5-1.1.9-2.1 1.2-.3-.5-.6-1.1-.8-1.6.3-.2.6-.4.8-.4.4-1.8-2.3-1.8-3.1-4.4 1-.7 2.1-1.2 3.2-1.3.3-1.6 1.2-2.2-1.1-4.1 1.9-1.2 2.8 0 3.6 1.1-2.5.8 0 .5.2 1.8-1.2.2-1.4.6-1.7 1 2.5.1 4.7 1.6 5.4 4.3-1.9.6-3.6 1.1-2.6 2.7zm1.4-28.3c.5 1.2-1 1.8-2.6 2.3-.3-.5-.6-1.1-.8-1.6 1.3-.8 2.4-.9 3.4-.7zm-17.3-11.4c1.1-1.3 2.7-2.5 4.8-3.4 1.1.7 2.5.7 2.9 2.7-1.7-.2-3.2.9-4.7 2.1 1 1.3 2.3 1.9 3.6 2.7 1.2 3.4-3.3 18.2 6.7 14.1 1.2.9 2.8.8 3.6 2.5-.1 4.4-8.8 3.4-10.6 7.4-1.5.1-3.4-.6-2.7-2.2-4.7 2.9-7.6-1.1-6.9-4.4 3.3-1 8.4-4.9 8.8-9.2-.8.9-1.6 1.5-2.4 1.9 0 .1.1.2.1.3-.7.3-1.2.1-1.8 0h-.4c-.2 0-.4 0-.7.1v-.3c-5.5-1.5-9.3-13.5-.3-14.3zm-8.6 40.2c-4.9.7-9.1 2.8-13.4 1.1-1.3-2-1.7-2.7-.9-4.7 4.7-1.6 8.1-1.2 11.4-.6-.5 3.4 2 1.1 2.9 4.2zm-10-7.8c-1.2-.2-1.9-1-2.3-2.4 2.6-.2 3.2-1.9 4.6-1.2-.4 3.7-4.2.1-2.3 3.6zm8-28.5c0 8.2 2.6 17.5-7.7 21.1-6.6-3.2-2.8-7.1-5.2-12.7 6.6-1.5 6-8.4 12.9-8.4zm-14.1 25.9c.6.2 1.3.3 2.2 0 .2 1-.7 1.6-2.3 1.8-.4-.8.4-1.1.1-1.8zm-5.5-11.4c.7 1.3 2.1 2 1.2 3.4-.6-.2-1.3-.3-2.2 0-.6-1.7-1.1-3.1 1-3.4zm-31.7-3.8c5.5-6.9 14.8-.8 22.3-.5.4 1.1.8 2.2 1.2 3.4-4.8 5.6-12.9.8-20.6 3.1-1.3-2.7-3.4-2.7-2.9-6zm.3 27.5c-1.2.4-1.6-.3-2.8.2-.5-1.7 2.6-2.2 2.8-.2zm-34.9 12.3c0-1.3.3-2.4 2.7-2.6.3.7.5 1.5.8 2.2-1.4.7-2.5.7-3.5.4zm-.2-2.8c-.1-6.3 5.8 0 0 0zm5.6-8.9c-.1-1.1-.6-2.5 1.2-2.8.2.8.5 1.6 1.3 1.5 0 .9-1.5.9-2.5 1.3zm9.1-9.2c.2-.5.4-1.1.1-1.9.4-.1.9-.2 1.3-.4.5.4 1 .7 1.3 1.5-1 .4-1.9.6-2.7.8zm7.5 9c-1.4-1.2 1.1-2.8-1-2.8-.1-.8 1.5-.9 2.4-1.3-.2 1.5.4 3.4-1.4 4.1zm4.3-16.4c-3.4.4-2.8 2.5-6.2 2.9-2-.8-.6-2.2-1.4-3.9 4.1-.2 3.7-2.4 6.9-3.1.9 1.6-.5 2.2.7 4.1zm-20.9-14.1c.4-1.9.5-3.8.9-5.7 2-.2 3.3.6 5.2.4 1.8-.3-1.7-3 1.2-2.8 5.9 6.7 7.4 11.1 6.6 18.5-5.6 3.3-11.5.4-14.3-3.5-4.6 1.1-7.3 1.7-9.1-3.1 4.3-1.5 4.6-3.7 9.5-3.8zm-15.8 19c8.9 1.9 14.9 15.1 2.4 19-5.9-5.8-11.1-14.5-2.4-19zm-18.6-10.7c3.2-1 6-1.3 6.5 1.9-2.1-.3-3.1 2.2-6.2 1-1.1-1.3.5-1.6-.3-2.9zm1.5 7.3c.1.4.3.7.4 1.1-1 .4-1.3-.2-2.2 0-.1-.4-.3-.7-.4-1.1 1-.4 1.3.2 2.2 0zm1.2 9.5c.4 1.1.8 2.1 1.1 3.2 1.3-1.3 3.5-2.1 6.9-2-.2 5.3.5 9.3-4 13.3 2 .7 1.7 2 1.4 3.9-1.9 1-2.4-.3-3.7-.2.9-.7.4-2 2-2.4-3.6-3.8-5.5-9.3-3-12.3-3.4 1.6-4.9-.8-5.3-1.7 0-1.3 3.3-1.1 4.6-1.8zm-5.2 11.8c.5.9-.3 1.1-.1 1.9-1.7.9-1.7-.8-3-.4.2-1.1 1.8-2.1 3.1-1.5zm-8.3-6.7c1 .1 1.7.9 2.1 1.9-.6-.2-1.3-.3-2.2 0-.5-.9.3-1.2.1-1.9zm-15.9-21.4c2.7-.8 3.8 1 5.6 1.6.8 2.7-2.6 4.4-5.8 4 1.8-1.2 1.5-3.2.2-5.6zm-.6 12.4c.2.6.4 1.1.6 1.7-1.3.4-2.6.7-4 1.1-.7-1.8 1.4-2.3 3.4-2.8zm-7.4 19.4c1.4-.5 1 1.9 1.7 2.6-2 0-1.4 1.3-3.1 1.4-.2-1.6 2.2-2.1 1.4-4zM994.3 326c.2.6.4 1.1.6 1.7-1.7 1-2-.3-3.5.3.2-.9 1.2-1.6 2.9-2zm-4.3 8.5c2 0 1.4-1.3 3.1-1.4-.4 2.2-1.9 2.4.3 4.8-2.1 1-2.8-.3-3.4-1.5 2.5-.6.1-.5 0-1.9zm-4.7-9.1c.1.4.3.7.4 1.1-1 .4-1.3-.2-2.2 0-.1-.4-.3-.7-.4-1.1 1.1-.5 1.4.2 2.2 0zM935.7 351c-1.5-.8-.2-.7-.8-2.2 2.4-1.2 3.5 1.9.8 2.2zm8-10.2c-.2-1.8.5-3.3 3-3.9 2.6 1.3 0 5.2-3 3.9zm6.7-9.7c.1 1.8 1.7 1.3 1.9 3.2-1.8 1.5-4.2 1.6-6.2 1 1-1.5-.2-3.4 4.3-4.2zm-20.2 2.3c3.2-1.5 4.4-1.7 7.5-1.4.2 1.4.9 2.1 1.7 2.6 2-1.7 3.1-.5 5.5-.9.5.9-.3 1.1-.1 1.9-2.5 1-3.2-.7-5.2-.4.6 2.1 2.3 4 1.1 7.1-9.5 1.9-13-.1-10.5-8.9zm-2.2 14.1c.7 1.1-.6 1.3-1.6 1.6-.2-.6-.4-1.1-.6-1.7.6.3 1.3.4 2.2.1zm-22.5-3.1c-1.1 0 0-.8-.6-1.7 1.7-.6 2.4.2 2.8 1.7-1.5 1.5-2.2-2.1-2.2 0zm15.1-4.4c-1-.1-1.7-.9-2.1-1.9 1.9-.8 2.8.8 2.1 1.9zm-9.8-2c0 .9.5 1.6.9 2.1 2.5 1.4 3.9 4.2 4.1 5.8 2.1-.5 1.3-2.3 4.2-2.4 1.3 4.2 2.9 8.5-2.3 9.8-1.2-3.9-4.5-7-7.2-10.6-4.5.3-5.8-3.1-5.2-5.7 2.6-.8 2.8 2.2 5.5 1zm-4.8-7.3c.9 1.8-3.1.9-.9 1.5.2.5-.7.6-1.1.9 0-.5-.4-.5-.9-.4.2-1.2 1.6-2.6 2.9-2zm-3.9 5.4c-.4.9.1 2.2-.3 3.2-1.9-.2-2.7-2.9.3-3.2zM872.8 366c-1.7.3-3 .5-4.3.7-.8.5-1.8.9-2.9 1.2-.1-.1-.1-.1-.2-.1l-.6.3c-1-.4-.9-.7-.4-1-.6-.4-1.2-.9-1.3-2.2 3.3.8 6.8-3.9 9.7-3.2-.2.7-.4 1.4-.8 2 .2 0 .4-.1.6-.1.7 1.1.1 1.6.2 2.4zm-4.6-21.4c1.9-.2 4.1 1.3 3.2 2.8-1.7.1-2.2-1.7-3.2-2.8zm3.9 13c.5 1.7-3.4 2.6-3.5.3 1.7-.9 2 .4 3.5-.3zm9.3 6.1c-.5-1.7 2.7-2.2 2.8-.1-1.3.6-1.9 0-2.8.1zm8.2-10.8c-2.7.4-4.7-.1-5.8-2.1.9-2.1 3-4.7 6.5-4.2.4 1.1.8 2.2 1.2 3.4-1.4.9-2.6.4-1.9 2.9zm.8-17.3c0-.5-.4-.5-.9-.4 1.1-1.3 1.3.8 2.3 2.4-.9.2-1.8.5-2.6.7-.7-1.3-.6-2.4 1.2-2.7zm-7.4-12.7c-.2-1.8.1-1.2-1-2.8 2.8-1.8 3.7 2.9 1 2.8zm-1.8 7.2c1.8.2 1.7-.6 3.7.2-.6-1-.8-3.2-3-2.3.3-1 .4-2 2-2.4 1.6 2.4.7 2 2.5 4.9-3 2.3 1.3 5.9-3.8 7.8 1.1-2.6-.6-3.6-2.7-5.4-.6-1.4 2.6-1.2 1.3-2.8zm-3.2 9.4c2.3-1.6 1.1 2.4 2.8 1.7-.1 1.2-1.2 2-2.7 2.6-.8-1.8-1.3-3.4-.1-4.3zm-2 7.8c5-1.1 7.4 2.2 7.4 6.6-6.3 2.3-8.6-3.9-7.4-6.6zm-1.3 6.5c-2 .8-2.9-.1-4.4-.1-1-2 2-3.7 4-2.9.8 1.3-.7 1.6.4 3zm-2.4-20.8c-3.9.7-2.2-2-4.2-3.8 2.3-.2 3.5 1.5 4.2 3.8zm-5.3 5.2c.1-1.7 2.8-.5 2.6 1.2 1.8-.6-.1-2.9 2.5-3.1-1 1.7 2.2 1.7 2.2 4.3-.6 1.1-3.3 1.4-2.5 3.1h-1c-2.6.1-2.5-.2-5 1.6-.3-3.1 2-5 1.2-7.1zm-1.7 13.8c2.7 1.5 2.1 3.7-1.7 3.5-1.5-1.4-1-2.8 1.7-3.5zm-96.4 15.5c-2.7-.3-4.9.8-6.3.5.5-2.8 3.9-2 6.9-3.1-.1 1-.5 1.7-.6 2.6zm3.8-2.8c-.9 0-1.4-.7-2.4-.6-.4-2.5 4-1.4 2.4.6zm-2.3-2.5c-1.8-2.4-.6-5.9-1.5-6.3 2.9-3 4.5 1.6 5.4 2.9-2.1.8-.5 3.2-3.9 3.4zm62.3-.2c2.3-.5 3.5.9 4.5 2.5-1.7 1.4-3.4 1.1-5.5.9-.5-1.5.5-2.3 1-3.4zm-11-30.8c-2 .3-3.4-.4-4.3-1.9 1.5-2.4 5.6 0 4.3 1.9zm-12-1c.5.9-.3 1.1-.1 1.9-.6 0-.9-.4-1.5-.2-.1-.4-.3-.7-.4-1.1.7-.3 1.4-.5 2-.6zm-16 28.2c3.3 2.5 1.4 4.3.3 6.8 2.2-.3 2.1-1.7 2.9-2.7 2.3-.3 1.7 1.9 1.9 3.2 2.5-.9 1.7-2.9 1.5-5.9 1.9-.9 2.3.4 4.2-.5-.8 1.2 1.4 2.2 1.6 4.5 2.1-.6.5-2.9 4-2.9.6.4 1.2 1 1.5 2 .4-.4 1.1-1.1 2.8-1.3-1.9-1.3 3.2-2.7 4.3-4.2 2.1.9-.5 1.8-.3 3.2 3.7 2.3 10.7-.7 13 3.9-2.5 2.8-7.7 4.6-8.9-.7-2.1 2.5-4.8 1.1-7.3 2 .5-2.2-1-2-3-2.3 1.4 1.6-6 3.4-5.7 6.4-1.1-.5-1.9-1.3-2.8.2-2.2 1.7 3.1-2.7.5-2.6.9.2 2.2-.7 3.5-1.8-1.8.2-3.1 1.2-4.3.8-1.1.4-1.2 1.4-.5 2.6-2.9-.6-6.2 2.1-5.6 4.6-1.7.9-1.7-.8-3-.4.2-2.2.5-4.4-.4-7.1 0 .1-.1.3-.1.4-4.7 2.2-5.9-1.1-8.7-2 1.9-2.5 4.4-6.3 8.6-6.2zM772 340.3c-1.3-1.5-2.3-3.3-3.8-4.5.8-1.7 1.3-3.5 1.7-5.4 3.1-.3 3-.7 5.5-.9 2.2 3.3 3.5 7.9 5.5 11.4-.9 2.1-4 4.2-5.2 5.7-2.1 2.5-2.2 5.7-4.4 6.1-2.8.5-6.4-3-6.4-5.7.1-2.3 5.4-4.7 7.1-6.7zm-3.3 21.1c.6 3.4-5.9 5-7.5 3.3-.3-1.5 1.6-2.1-.1-4.3 2.8-.2 3.3 3.4 7.6 1zm-33.5 18.2c-.4-1 .4-1.4-.1-2.4 2.7-1.3 3.5.3 5.2.4 1.2 2-4.2 2.3-5.1 2zm7.8-29.1c.7 1.4.6 2.5-1.2 2.8-1.2-.5-1.2-2.6 1.2-2.8zm2.8 15.9c-3.6.6-2.3 3.4-3.2 5.2-.9.3-1.6.4-2.3.4 0 .1-.1.2-.1.3-.1-.1-.2-.2-.3-.2-.5 0-1-.1-1.4-.2-.7.3-1.5.9-3.1 1.1-.1-.5-.3-.9-.5-1.2-.1 0-.1 0-.2.1-.1-.1-.2-.3-.3-.4-.1 0-.2-.1-.3 0v-.3c-1.9-2.8 2.2-4.6.2-8.4 3.9-2.1 9.9-1 11.5 3.6zm-15.7-33.9c3.3-.6 5.3.9 7.8 1.6-.8 3-6.4.9-9.5 1.9.3-1.2.4-2.7 1.7-3.5zm-10.6 41.6c-3-.3-1.7-2-4-3.2 2.3-.2 4.5-.2 5.2 2.3-.9.1-1.2.4-1.2.9zm.9-40.2c-2.1.7-3.2-.2-4.1-1.4 1.1 1 3.6-.4 4.1 1.4zm-9.5 16.1c8.2-4 10.7 8.2.3 9.1-4-2.2-2.2-6.9-.3-9.1zm-2.8 24.7c.7 1.1.1 1.6.1 2.4-1.2.2-1.9-.6-2.1-1.9.7-.2 1.3-.4 2-.5zm-11.3-40c4.7 3.5 5.1 11.1-2.6 13-6.6-4.3-6.7-11.7 2.6-13zm-6.8 38.1c2.1 3.6-1.2 7.3-.5 8.7-1.1.9-6.9 1.7-8.5.5-1.7-5.3 4.1-9.7 9-9.2zM678.8 339c.1.7-1.2.7-.9 1.5-.5.3-.7-.1-.9-.4-.1-.4-.3-.7-.4-1.1 1-.5 1.3.2 2.2 0zm-6.8 19.6c-1.3.6-1.9.1-2.8.2.2-1.4 2.3-2.4 2.8-.2zm-1.2-15.6c1.8.7-4 .6-4.1-1.4 1.8-.4 2.4 1.4 4.1 1.4zm-17.9 41.6c.1.4.3.7.4 1.1-1 .4-1.3-.2-2.2 0-.1-.4-.3-.7-.4-1.1 1-.5 1.4.2 2.2 0zm-6-16.8c0 1.5-2.4 3.1-4.2 2.4-.4-1 .4-1.4-.1-2.4 1.6.1 2.2-.7 4.3 0zm-8.4-26c3.1 2.7 3.8 4.7 2.1 8-4.2 2-4.6-3.4-6.6-.1.3-1.2 2.2-4-.3-4.8.4-2.5 2.1-1.5 4.8-3.1zm-7.6 40.1c2.1 1.7 1.4 2.8 3.8 4.5 1.5-.8 2.7-1.6 5.1-2-1.6 3.3-7.7 3.2-10.5 5.3-1.5-1.7-2.1-4.8-5.6-3.4 1.5-2.5 4.4-3.6 7.2-4.4zm-6.8 1.2c.3 1.9-2.2 1.5-3.8 1.6.5-2 1.6-1.1 3.8-1.6zm-14.9 2.8c2.9.5 3.6-.5 5.9.3 1.1 2.8-4.9 4.4-6.9 3.1-.3-1.4 1.9-1.7 1-3.4zm-3.8-18.6c.3 1.3-1.3 1.8-2.4 1.3-.3-1.4 1.3-1.8 2.4-1.3zm-9.9-3.5c-1.2-.4-3.1.3-3.4-1.5 1-1.9 4.7-.3 3.4 1.5zm-.3 21.6c.4-.1.9-.2 1.3-.4-.5-1-1.1-1.8-2.1-1.9 1.2-1.6 4.6.8 6.8.6.2 3.4-8.9 2.3-10.3-.3 2-.2 3.4.4 4.3 2zM580 352.7c-.2.9-1 1.4-2.2 1.8-1.4-1.5 1-1.4 2.2-1.8zm-17.8 2.9c.9 3 .6 3 2 5.6-.9.2-1.8.5-2.6.7.6-3.8-1.8-4.5.6-6.3zm-25.3 35c-2.3.8-3.7.1-4.3-1.9 2.2-1.1 1.6-.5 3.8-1.6-1 1.2 1.7 1.9.5 3.5zm4.6-11.6c-.1 1.7-3 .9-3.5.3 0-1.4 2.4-2.7 3.6-2.2 1.6 1.2-2.6 1.9-.1 1.9zm-3-8.4c1.1 0 2 .4 3 .4.4 2-3.1 2-3-.4zm18.3 6.7c-2.3 1.4-6.1.5-7.3-2.3 3.7-1.3 6-.3 7.3 2.3zm-9.1-13.5c1 1.7.8 2.9-.1 3.7 1.5.5 3.5.2 5.7-.3-1.3 4.3-12.8 4.6-15.7.6.5-3.3 6.3-5.9 10.1-4zm-8.4-11.3c.2.8.5 1.6 1.3 1.5.6 1.6-4.1 2.9-4.6 1.2-1.2-1.8 1.3-2.1 3.3-2.7zm-6.8 27.7c2-.6 3 .5 4.6.6.4 2.9 2.8 2.5 3.8 4.5-2.3 1.1-2.3-1.5-3.6-2.1-1.3.5 1.5 1.2.1 2.4-4 1.8-7.1-1.8-4.9-5.4zm-113.1 26.7c-.3-1.4 2.8-1.1 3.3-.9.1 1.8-1.9-.3-3.3.9zm10.2-16.3c-2.6.6-3.4-1.7-6.1-.8-.2-2.1 2-3.2 5.2-3.8-.4 1.5 4.4 2.5.9 4.6zm.8-3.9c.2-1.9 2.9-.7 2.6 1.1-1.5.7-1.3-1.3-2.6-1.1zm13.5 15.4c1.5-.6 2.6-.6 3.5-.3.4.9-4 2.3-3.5.3zm.3 3c2.1-1.9 2.4.5 5.5-.9-.2 1.7-4.8 3.2-5.5.9zm9.9-8.8c-4.2 1.7-5.9-.6-8.5-1.4-4.5-8 2.9-10.7 4.5-15.9 3.2.2 4.6-.4 7.6 1 5 7.8-1.8 10.5-3.6 16.3zm38.6-9.7c.1.7.5 1 1.1.9-.4 3.1-5 .1-1.1-.9zm.9.3c-.7-1.4.3-2.1 2-2.4.7 1.5-.9 1.9-2 2.4zm21.2-25.9c.3 1.9 2.5.7 2.5 3-2.1 1.8-5.6 3.1-6.8-.6 1.1-1 2.9-1.6 4.3-2.4zm-.6 16.7c3 4.1-1.7 7.7-6.3 4.8 1.6-2.2 2.4-4.9 6.3-4.8zm-15.8 2.4c.6 1.4-.4 2-.3 3.2-1.4.2-1.4-1.9-2.8-1.7-.5-1.5 2-2 3.1-1.5zm-13.1-24.7c4.3-1.1 8.1 1.6 6.8 6.8.1 1.2 3.7 1 3.5-.3.2 1.3-2.1 2.7-2.6 5-2.1 0-1-.6-1.5-2.1-.4 1.3-3.3 3.8-2.1 4.2-1.5.6-4.6.6-7.5 1.4 1.5-3.4-2.6-5-2.7-9.7 3.6-.3 2.9-4.5 6.1-5.3zm.4 23.8c1.4 3.3 6.3 1.1 7 5.5-5.6 4.3-11.9 1.4-16.3-1.1 1.9-3.8 4.3-3 9.3-4.4zm-34.1-16.6c2-.8 2.5.6 3 2.3 7.1-2.5 10.7.5 16.6-.2.3.9.7 1.9 1 2.8-4.6 2.7-8.6 3.8-14.8 5.2-1.1-.8-1.1-3.5-3.6-3.9-.1 2.2-5.5 4.1-7.7 2.7-.3-3.9 3.3-6.1 5.5-8.9zm-6.6 8c1.6 1.4-2.4 2.4-2 .5.6-.2 1.3-.4 2-.5zm-3.7 28.5c.4 1.4-2 2-3.1 1.4.2-.5.4-1.1.1-1.9 1.7-.8 1.7.9 3 .5zm-4.7-19.5c-1.2-1.9.2-2.8 2.5-3.1.4 1.5-.3 2.6-2.5 3.1zm-16.7-12.1c2.3.1 10.1-.7 12.8-2.8 16.4 7.1-21.1 18.8-12.8 2.8zm-24.4 23.1c.9-1.9 2.5 1 4-1.1-2.5 2.3.7 1.6 1 2.8.7 3-4.4 2.7-5-1.7zm5.2-18c1 .5 1.5 1.8 1.9 3.2-2.4 1.3-3.8 1.6-6.6 1.8-.3-.9-.7-1.9-1-2.8-1.9.4-.6 2.2-3.6 2.2 1-3.2 3.9-3 9.3-4.4zm-35.1 5.2c2.6 0 3.2 3 5.6 3.4-.3 1.1-2.6 1.4-3.6 2.2-1.9-1-3.6-3.9-2-5.6zm-7.5 1.4c1.1-.1.5 4.4-1.8 3-.5-1.5 2.3-1.6 1.8-3zm-46.8 27.3c.7-.2 1.3-.4 2-.5.4 1-.4 1.4.1 2.4-1.2.2-1.8-.6-2.1-1.9zm27.8-21.6c1.9 1.6.2 2-.1 3.7-1.7-.2-1.8-3.6.1-3.7zm-4.4 15.9c1.7.5 3.1 1.4 3.6 3.9-1.7 1-2.8 2.2-4.7 3.1-2.1-1.2-3.2-2-3.1-4.7 2-.4 1.6-2 4.2-2.3zm-7.4-28.7c-.8 1.5-4.2-.3-4.5-2.5 2.7-1 2.2 3 4.5 2.5zm-16 9.9c11.2-2.8 4.4 8.3 4.2 11.8-2.3 1.1-3.4.2-5.5.9-1.1-5.6-.8-9.7 1.3-12.7zm-17.6 13.9c1.5-.6-1.3-1.3-1.9-1.3.9-1.2 1-2.7 3.2-3.3.5.4 1 .7 1.3 1.5.7 1.1-.6 1.3-1.6 1.7.6 1.6 2.3 1.7 3.6 2.1 6-6.8 13.1 5.7 3.3 7.1-.1-1.2-1-1.4-1.5-2.1-5.2 3.1-10 .1-13.2-2.6 2.4-1.7 3.8-3.6 6.8-3.1zm-7.9 83.7c-.1-6.3 5.7 0 0 0zm-1.1 7.1c.6-.9 2.1-1.3 3.8-1.6 1.9 3 1.4 3.7 1.9 7.5-2.6.7-3.9.7-2 2.4-.9.2-1.8.5-2.6.7-1.6-1.7-.2-2.8-2.1-3.7.3-2.5 3.3-2.9 1-5.3zm-9.5-93.4c2.9.3 4.9 3.4 7.3 5.6-.9.2-1.8.5-2.6.7-1.6-.7-1.2-4.6-4.5-2.5-.1-1.8-1.7-1.3-1.9-3.2 1.2-.1 1.7-.4 1.7-.6-.6-.1-1.2-.1-1.9.1 1.2-.6 1.9-.4 1.9-.1zm-1 100.5c-.9-1.7.2-2.4.1-3.7 2.7-1.4 3.6.1 5.7-.3.8 3.6-1 6.2-3.7 5.9 1.8-1.4.2-2.6-2.1-1.9zm.9-46.3c4.4-2 5.7.9 6.6 4.4-4.3 2.3-6.6-2.5-6.6-4.4zm-.5-36.1c.5.4.9.8 1.7.8.1.7-.6.5-.7.2-1.9.9-1.1.7-3.3.9-1.5-2.4 4.1-2.5 2.3-1.9zm-10.1 16.3c.6 1.4-.4 2-.3 3.2-.6.4-1.8-3.3.3-3.2zM254.4 477c.5.9-.3 1.1-.1 1.9-1.7.9-1.7-.8-3-.4.3-1.2 1.8-2.1 3.1-1.5zm-8.7-44.9c-1.9.4-3.2-.2-3.6-2.1 1.9-1 2.3.4 4.2-.5-.1.9-.5 1.7-.6 2.6zm4.8 58.2c-.7-.3-.9-1.4-1.9-1.3.9-3 2.8-2.8 2-6.7 4.2.9 6.3 7.2-.1 8zm3.8 73.9c-1.4-1.7 1.7-1.4 2.9-2 1.3 1.4-2 3.1-2.9 2zm2.9-146.8c-.2-1.5-1.2-3.4.8-3.9.1 1.5 1.2 3.3-.8 3.9zm12.2 30.4c-1.6.5-3.2.9-4.2.5-.6 0-.5.4-.5.7.2.5 1 .2 1.5.2 0 2-9-1.1-6-4.5 2.2-.9 2.3 1.5 4.6.6 2.3-1.1-.9-1.6.3-3.2 1.7.8 4.3.1 5.2 2.3-1.8 1.5-2.5 1.1-.9 3.4zm1.8-7.2c-2.1-.3-3.8-1.4-3.4-3.4 2.8-.5 2.8-3 6-1.6.1 1.4-2.6 1.7-.8 3.9-1 .2-1.9.4-1.8 1.1zm.6 101.7c1.7-.4 2.3 1.7 1.7 2.6-1.3-.2-2.4-1.5-1.7-2.6zm1.9 40c1.2.4 3.1-.3 3.4 1.5-2 1-2.7-.3-3.4-1.5zm1.9-41.7c-.1-.8 1.5-.9 2.5-1.3.2.8.5 1.6 1.3 1.5-.8 2.5-1.9-1.6-3.8-.2zm5.4-35.8c-2.1.5-1.3 2.3-4.2 2.4-1.3-4.2-2.9-8.5 2.3-9.8 1.6 5.1 6.6 8.7 9.3 14.1-4.6.1-7.1-4.5-7.4-6.7zm3.4 54.4c1.2-.4 1.6.3 2.8-.2-.7 1.9-1.6 2.7-2.8.2zm5.1 20.7c1.6.7 0 1.6 1.2 3.4-.7-.4-4-3-1.2-3.4zm1.8 11.1c-2.1 0-1-.6-1.5-2.1 1.5.7 1.7-1.2 3.5-.3.3 1.2-2.2 1.2-2 2.4zm0-24.5c-2.9-.8-2.3-2.4-3.8-4.5 1.6-.2 2.8.2 4.8-.7 1 .1.9 2.1 2.1 1.9 1.1 2.8-2.5 2.1-3.1 3.3zm3.2 21.2c-.4-1 .4-1.4-.1-2.4 1.6.6.8-.3 2.6-.7-.6.9.2 1.5.2.6 1.5.7.4 1.5 1.9 3.2-2.3.9-2.4-1.6-4.6-.7zm189 183c-2.5-.8-3.3.2-5.7.3-1.6-4.2 4.8-4.9 5.7-.3zm-9.1-9.2c.7-.2 1.3-.4 2-.5-.6 2.2.2 0 1.7.8.3 2.1-3.3 1.5-3.7-.3zm-2-16.1c7.8-.6 5.5 9.2 2 11.7-3.3.9-4.4-1.8-6.2-3.2.4-3.2 3.6-5.2 4.2-8.5zm-11.2 5.5c.7 1.4-.3 2.1-2 2.4-.3-.7-.5-1.5-.8-2.2 1.3-.7 1.9-.1 2.8-.2zm-1.7 17.6c1.4 1.6 6 1.6 4.6 4.9-3.2 1.1-4.8-.6-6.5-1.9-.9-1.7 3.3-1.1 1.9-3zM448.3 747c1.9 1 2.8-1.3 4.2-.5.4 1.8-3.9 2.4-4.2.5zm6.2 35.8c.8-.1 1.1-.4 1.1-.9 1.7-.1 2.2 1.7 3.2 2.8-2.6 1.2-3.7 0-4.3-1.9zm25.4 2.3c-7.4 9-14-4.5-20-3.2 2.1-3 1.3-1.4.4-5 3.8-1.3 5.4.6 10.1-.3 2.3 4 7.8 2.7 9.8 7.2 2.5-.7 1.7-1.1 4-1.1.3 1 1.2 1 1.5 2.1-2.3.9-4.5 2.7-5.8.3zm20.9-4.4c-1.4.5-.9 1.8-.3 3.2-2.3.1-1.7 1.4-2.9 2-3.5-.6-7.3-.7-9.3-3.6.7-.2 1.3-.4 2-.5-3.5-2-8.9-.7-9.2-5.5 1-1.3 3.4-2 4.7-3.1-.7-.4-1.2-1.1-1.5-2.1 4.4.1 12.8.1 14 4.8.7-.2 1.3-.4 2-.5.7-.3.2-1.2.1-1.9.7.2 1.4.4 1.3-.4 3.1.2.9 4.2 4 5.1.1 1.3-3.6 3.4-4.9 2.5zm13.4-13.4c7.6-4.1 21.8-2.7 17.8 3.2-7.3.5-10.9 1-18 2.4.1-1.9-1.4-3.5.2-5.6zm22.7 19.1c-3.7.1-5.1 0-7.9 2.1-9.8 1.4-17.5-11.6-9.5-14.6 6.8-2.6 10.5 4.5 16.4 5.4.3 2.6 2 4.4 1 7.1zm22.8-15.4c-.7-1.2-.7-2.2-.3-3 1.8 0 2.1-.5 3.9.8.4 1.5-1.8 1.8-3.6 2.2zm1.4-32.9c.7 2.7-4.4 1.8-4.8.7.4-1.8 3.9-1.1 4.8-.7zm-3.7 32.4c1.5-.5 0 4-1.4 2.2-.1-.4-.3-.7-.4-1.1.9-.3 1.9-.5 1.8-1.1zm-7.1-15.9c-.3-2 2.9-1.7 4.4-1.8-.4 1.7-2.6 1.8-4.4 1.8zm6.7 25.1c-.3-1-1-1.3-1.9-1.3 1.5-1.4 3.1-3.1 4.6-5.5 9-.1.6 6-2.7 6.8zm20.4-7.9c1.3-.1 2.1.8 3.7.2.1 1.2-4.3 2.3-3.7-.2zm39.5-35.8c1.2.5 1.8 2.4 1.2 3.4-2.2 0-5.3-2.4-1.2-3.4zm-.7 26.6c-.3.8-.3 1.7.3 3-1.9 1-2.6.1-4.2.5-.2-1.9 1.8-2.7 3.9-3.5zm-2 14.7c.2.6.4 1.1.6 1.7-1.9.6-3.6 1-3.9-.8.6-1 2.1-1.4 3.3-.9zm-36.4-41.2c2.7-.5.1 1.9 2.1 1.9 0 1.4-3.6-.6-2.1-1.9zm-2 .6c-.5 1.3-3.1 1.8-4 2.9-1.5-.4 2.3-2.4 4-2.9zM565.6 759c-1.2-4.4 6.6-12 12.3-8.2 0 1.3 2.1 3.5.7 4.1 7.3 3.5 12.9-8.2 18-2.4-2.4 3.2-3.8 6.8-5.8 10.2 2.4.6 4.3 2 6.7 2.5 4.5-3 3.2-8.6 9.1-11 5 3-.6 8.5-.2 13.6-1.1 0-2-.4-3-.4-2.5 4.1 0 8.3 1.8 11.2 2 .4 5.1-1.1 5.2 2.3-3.2.1-4.2-3.3-8.5-1.4-4.3-4.8-12.9-2.8-16.8-8.4-.9-.7-2.4-.2-3.7-.2-.5-3.4 5.7-3.8 6.3-6.6-2.6-1.9-1.6-4-3.7-6.4-1.7 1.2-1.2 3.2-2.8 4.4-2-.4-3.5-1.4-4.7-3-4 1.6-6.1 7.7-10.9 6-2.2-3.3 2.1-3.8 2.2-6.1 1.5.2 2.8.8 4.1 1.4 1.7-.4 2.6-1 2.9-2-2.9-.2-5.6-.5-9.2.4z"/><path d="M811 624.3c-1.1 0-1.3.5-3-.2.2.4.4.9.6 1.4.9-.3 1.9-.7 2.4-1.2zm568.2-304.1l8.5-.8c-1.6-.8-2.9-2.2-3.3-4-.5.5-.8 1-.3 1.8-3.4.5-3.3.1-5.3 1.9.3.1.5.3.8.4.2.3 0 .5-.4.7zm-345.8 150l-.2-.2c.1.1.2.1.2.2zm32-14.1c.1-.5.3-1.1.1-2 2.6.6.5-1 .3-2-.3 0-.6-.2-.8-.3l.4 4.3zm-26 234.1c.6.1 1.3.1 2.1 0 0 .1 0 .1.1.2.6 0 1.1.1 1.7.2.1-.2.1-.5.2-.7l-4.1.3zm-4.9-60.8c.6 0 1.2 0 1.8.1.8-1.1 1.5-2.2 2.2-3.3-.1.1-.2.1-.4.2 0-.4-.2-.6-.5-.7 0 .2.1.3.1.5-.1 2.3-2.6 2.4-3.2 3.2zm-78.7-320.2c1.2.7 2.9.7 4.3 1.2 1.3-.4 2.4-1.1 3.4-2l-7.7.8zm48.1 384.4c.8.4 1.4 1.1 2.4 1.1-.1-.4-.3-.7-.4-1.1l.3-.3-2.3.3zM889.5 588.9l.1 1c.2-.1.3-.2.5-.3-.2-.2-.4-.4-.6-.7zm84.6 108.2c0-.3.1-.5.3-.7l-.6.1.3.6zm-295.6-62.9h-.3l.3.3v-.3zm-66.5 6.3l-.7.1c.2 0 .4 0 .7-.1zm44.3-4.2l-2.4.2c1.6.1 2.1 0 2.4-.2zm106.6 38c0 .8-.1 1.6-.4 2.3l2.1-.2c-.4-.9-1-1.6-1.7-2.1zm239.2 19.5l-.8.1c.2.2.5.4.7.7 0-.3.1-.6.1-.8zm220.8-106.1l-.1-1.1c-.4.7-.2.9.1 1.1zm213.8 29.8c-1.7.6-2.4-.2-2.8-1.7-1.2.9-1.4 2.2-2.7 3 1.9-.4 3.7-.8 5.5-1.3zm-712 122.1c-1.2.6-4.3.3-2.9 2 1.7-.4 2.6-1.1 2.9-2zm295.7-47.6c-.3 2.6-1.1 5-3.7 7.3.9.3 1.3.8 1.5 1.3.1 0 .2-.1.3-.1-.1-.1-.2-.1-.3-.2.1-4.7 3.5-3.8 8-5-.1-1.1 0-2.3.3-3.9l-6.1.6zm142.9-158.9c.5-.7.3-1.8 1.8-2.1-.9-.9-1.6-2-2.3-3l.5 5.1zm-143 168.3c-.6.5-1.4 1-2.1 1.1 0 .2-.1.4-.1.6.6 0 1.1.1 1.8-.1 1 1.7-.6 2.1 1 2.8.7-.5 1.3-.9 1.8-1.4 0-.1-.1-.3-.1-.4.1 0 .3.1.5.1 1.3-1.2 2.3-2.5 3.1-4-1.6.3-3.9 1.6-5.9 1.3zm289.9-425.9c.6.3 1.2.7 1.8 1.1 0-.4 0-.9.1-1.3l-1.9.2zm287 197.4v-.1c-.3-.1-.4 0 0 .1z"/></g><path fill-rule="evenodd" clip-rule="evenodd" fill="#27AAE1" d="M1491.7 533.2v-9c-.3-3.3-.7-6.7-1-10h-1v-6h-1v-5h-1v-5h-1v-4h-1c-.3-2-.7-4-1-6h-1v-2h-1c-.3-1.7-.7-3.3-1-5-.7-.3-1.3-.7-2-1-.3-1.3-.7-2.7-1-4-1-.7-2-1.3-3-2v-2c-1.7-1.3-3.3-2.7-5-4-1.3-1.7-2.7-3.3-4-5h-2c-1.3-1.7-2.7-3.3-4-5h-2c-.7-1-1.3-2-2-3h-2c-.3-.7-.7-1.3-1-2h-2c-.7-1-1.3-2-2-3h-2c-.3-.7-.7-1.3-1-2h-2c-.3-.7-.7-1.3-1-2-1-.3-2-.7-3-1v-1l-4-1v-1c-1-.3-2-.7-3-1-.3-.7-.7-1.3-1-2l-4-1c-.7-1-1.3-2-2-3h-2c-.3-.7-.7-1.3-1-2-2-1.7-4-3.3-6-5v-2h-1v-2h-1c-1.3-2.9-4.4-22.2-3-27h1v-4h1v-2c.6-.8 6.3-4.5 9-3v1c1 .3 2 .7 3 1 2.2 2.7.8 6.1 2 10h1c.7 8.3 1.3 16.7 2 25 15.7-1.7 31.3-3.3 47-5-1.7-13.3-3.3-26.7-5-40h-1v-3h-1v-3h-1v-3h-1v-2h-1c-.3-1.3-.7-2.7-1-4-.7-.3-1.3-.7-2-1v-2h-1c-1-1.3-2-2.7-3-4h-2c-.7-1-1.3-2-2-3h-2v-1c-1.2-1-1.9-.7-3-2-1.3.4-2.3.4-1 1-.3 1-.7 2-1 3-4.2-.5-3.3-1.4-6-3v-4c-3.5-.7-7.9-2.1-11-3-4.4-1.3-16.1.2-19 1h-6l-18 6c-.3.7-.7 1.3-1 2h-2c-.3.7-.7 1.3-1 2h-2c-1 1.3-2 2.7-3 4h-2l-2 2v2c-1 .7-2 1.3-3 2v2c-.7.3-1.3.7-2 1-.3 1.3-.7 2.7-1 4h-1c-.3 1.3-.7 2.7-1 4h-1v4h-1v4h-1v8c-1 3.5-2.4 17.1-1 22h1c.3 6 .7 12 1 18h1v6h1v4h1v3h1v3h1v3h1c.7 2 1.3 4 2 6h1v2h1c.3 1.3.7 2.7 1 4 3.7 4 7.3 8 11 12h2c.7 1 1.3 2 2 3h2c.7 1 1.3 2 2 3h2c.7 1 1.3 2 2 3h2v1c1 .3 2 .7 3 1 .3.7.7 1.3 1 2h2c.7 1 1.3 2 2 3h2v1c1 .3 2 .7 3 1 .3.7.7 1.3 1 2h2c.3.7.7 1.3 1 2 1 .3 2 .7 3 1 .7 1 1.3 2 2 3h2c.7 1 1.3 2 2 3h2c.3.7.7 1.3 1 2 2 1.7 4 3.3 6 5v2h1v2h1v3h1v4h1v5c1.8 6 3.6 23.6 0 29h-1v1h-1v1h-2v1h-4v1c-3.2-.9-3.5-2.6-6-4-.7-3.6-2-8.6-3-12v-10h-1v-12h-1c-1.1-4 1.2-9.4-1-12v-2c-5.1 1.9-13.8 1.5-19 3-3.3.9-6.9-.8-9 1-5.7 1.6-1.9 2.8-4 6h-1v1c-2 .3-4 .7-6 1-.6-2.4-2.4-4.7-4-6v-1h-3c0 10.7.6 22.4 3 31v7h1v5h1v4h1v4h1c.3 2.3.7 4.7 1 7h1v2h1c.7 2 1.3 4 2 6 .7.3 1.3.7 2 1v2c1 .7 2 1.3 3 2 2 2.3 4 4.7 6 7h2c.3.7.7 1.3 1 2l4 1c.3.7.7 1.3 1 2h3v1h2v1c2 .3 4 .7 6 1v1c8.3.3 16.7.7 25 1 .5-4.2 1.4-3.3 3-6h4v1h1v3c8.8-1.8 18.6-7.4 25-12v-1c2-1.7 4-3.3 6-5 1.4-1.9-.4-1.4 2-3v-1h-6v-1h-1v-5h-1c-.4-.7-2-3.2-1-5h1c.3-1 .7-2 1-3h5c.3 1 .7 2 1 3 .7.3 1.3.7 2 1 .3 2 .7 4 1 6h1c3.8-9.5 7.8-28.7 4-42zm-34-147c1 .3 2 .7 3 1v3h-1v1c-5.2-1.4-3.3-2.1-2-5zm-28-15c-.3-1-.7-2-1-3h3v1h1v1h-1c-1.1 1.1.1.4-2 1zm11 23v1h-1c-.8-1.3-.7-1.2-2-2 .6-2.4 1.1-2.2 2-4 1 .7 2 1.3 3 2-.6 2.3-.2 1.8-2 3zm6-13h-1c-1.1 1.1 0 .4-2 1v-1h-1c.2-2.4.4-2.5 1-4 1 .3 2 .7 3 1v3zm8-6h-1v1c-1-.3-2-.7-3-1 .6-2-.1-.9 1-2v-1h3v3zm-1-10v4h-3c-.3-1-.7-2-1-3l4-1zm-4 8c-.3 1-.7 2-1 3h-3v-4h3v1h1zm-8-17h5v1h1c-.1 5.2-.4 3.9-2 7-2.4-.2-2.5-.4-4-1-.6-2 .1-.9-1-2 .4-1.7.7-3.4 1-5zm-1 19c-1.9.9-2.9 1.3-4 3h-4c.1-2.6.4-3.4 1-5h2v-2c1-.3 2-.7 3-1v1h2v4zm-12-22c2.3.6 2.3.9 4 2v1c1-.3 2-.7 3-1v1h2c.4.2.9 1.4 2 2-.2 4.3-.6 3.4-2 6-2-.3-4-.7-6-1v-2c-2.8-.7-2.9-1.8-5-3 .4-3.3 1-3 2-5zm-22 18c-2.6-.1-3.4-.4-5-1v-4h5v5zm11 97c-3.2-.4-2.9-.9-5-2 .2-3.8.9-4.6 2-7h4c.8 1.3.7 1.2 2 2-.4 3.9-1.6 4.4-3 7zm28 125v1h-1v-2c2 .6.9-.1 2 1h-1zm5-1v-1h-1v-3h1v-1h3v5h-3zm9 5c-2.9 0-4.3-.4-6-1 .4-3.2.9-2.9 2-5h4v1c2.7.8 2.3.2 3 3-2.3.6-1.8.2-3 2zm6-13c-2.4-.2-2.5-.4-4-1 0-3.6-.2-4.6 2-6v-1c2 .3 4 .7 6 1-.8 3.1-2.6 4.4-4 7zm8-10h-1c-1.1 1.1 0 .4-2 1v-1c-1.1-1.1-.4 0-1-2 1.5-.6 1.6-.8 4-1v3zm1-87c-1.7.3-3.3.7-5 1v-1c-3.4-1-1.9-1.3-4-3 .1-2.6.4-3.4 1-5 2-.6.9.1 2-1 4.6.3 4.3 1.4 7 3-.3 2-.6 4-1 6zm-126-2c-.7-.3-1.3-.7-2-1-2-2.3-4-4.7-6-7h-2c-1.3-1.7-2.7-3.3-4-5h-2c-.7-1-1.3-2-2-3h-2c-.3-.7-.7-1.3-1-2h-2c-.7-1-1.3-2-2-3h-2c-.3-.7-.7-1.3-1-2-1-.3-2-.7-3-1v-1h-2c-.3-.7-.7-1.3-1-2-1-.3-2-.7-3-1v-1c-1.3-.3-2.7-.7-4-1-.3-.7-.7-1.3-1-2h-2c-.3-.7-.7-1.3-1-2h-2c-3.7-3.3-7.3-6.7-11-10-.3-1.7-.7-3.3-1-5h-1v-3h-1c-.7-2.2-2.1-21.9-1-25 .7-1.9 3-4.2 4-6 3.6 0 6.8.2 9 1 3.7 8.9 5.2 23.6 5 36 15.7-1.7 31.3-3.3 47-5 0-8.1-1.1-19.4-3-26-.7-5.3-1.3-10.7-2-16h-1v-3h-1c-1.1-2.7-.6-5.7-2-8-.7-.3-1.3-.7-2-1v-2c-1-.7-2-1.3-3-2v-2l-2-2h-2c-.7-1-1.3-2-2-3h-2c-.3-.7-.7-1.3-1-2-2-.7-4-1.3-6-2v-1h-2v-1h-3v-1h-3v-1h-5v-1h-11v-1c-6.3.7-12.7 1.3-19 2v1h-4v1c-2 .3-4 .7-6 1v1c-2 .7-4 1.3-6 2v1h-2c-.3.7-.7 1.3-1 2h-2c-1 1.3-2 2.7-3 4h-2v1c-1 .7-2 1.3-3 2v2c-1 .7-2 1.3-3 2v2c-.7.3-1.3.7-2 1v2h-1c-.3 1.3-.7 2.7-1 4h-1c-.3 2-.7 4-1 6h-1v6h-1v13h-1v4h1v18h1c.7 6.3 1.3 12.7 2 19h1c.3 2.3.7 4.7 1 7h1v2h1v3h1c.7 2 1.3 4 2 6h1c.3 1.3.7 2.7 1 4 .7.3 1.3.7 2 1v2c.4.6 1.3.8 2 2h1v1h1v-3h2v3h-2c.9 1.1-.1.2 1 1v1c1.3-.8 1.1-.8 2-2 2.4.2 2.5.4 4 1-1.3 1.9-1 1.7-4 2 .7 1 1.3 2 2 3h2c1 1.3 2 2.7 3 4h2c.7 1 1.3 2 2 3h2c.7 1 1.3 2 2 3h2c.3.7.7 1.3 1 2 1 .3 2 .7 3 1v1h2c.7 1 1.3 2 2 3h2c.3.7.7 1.3 1 2 1 .3 2 .7 3 1v1h2c.7 1 1.3 2 2 3h2c.7 1 1.3 2 2 3h2c.7 1 1.3 2 2 3h2c.3.7.7 1.3 1 2 1.7 1.3 3.3 2.7 5 4v2h1c.3 1.3.7 2.7 1 4h1v4h1v4h1v7h1v11h1v1h-1v9h-1v2h-1c-.3 1-.7 2-1 3-6.7 2.8-6.5 2.2-12-1-1.9-4.6-2.5-10.8-4-16v-11h-1c-.3-7-.7-14-1-21-2.9 0-13.7.9-15 2h-2v1c1.1 0 1.6.9 1 2h-1v1h-3v-3h1v-1h-4v1h1v3h-1c-1.1 1.1 0 .4-2 1-.6-1.5-.8-1.6-1-4h-4c-1 3.7-3.2 3.3-5 6-4.6-.4-4.2-1.8-3-5-3 .3-6 .7-9 1 1.3 13.3 2.7 26.7 4 40h1c.3 3 .7 6 1 9h1v4c1.6 4.5 4.7 12.2 8 15v1c1.6.7 2-1 2-1h4v1c1-.3 2-.7 3-1-.6 2.3-1.4 3.7-3 5 1.2 4.6 4.3 4.9 8 7v1h2v1c1.3.3 2.7.7 4 1v1c2 .3 4 .7 6 1v1h4v1h8c1.5.4 6 1.8 9 1v-1c4.3-.3 8.7-.7 13-1 19.2-6.4 33.5-15.9 40-35 .3-7 .7-14 1-21v-18c-1.3-9-2.7-18-4-27-3.3-10.7-7.1-20.9-13-29zm-11-88h1v2h-1v-2zm-69 81h-1v1h-3v-3h1v-1h3v3zm2-5c-.9 1.1.1.2-1 1v-2c2 .6.9-.1 2 1h-1zm4 14v1h-3v-4h3c.9 1.1-.1.2 1 1-.6 2 .2.8-1 2zm3-10c-1-.3-2-.7-3-1-.7-2-1.3-4-2-6 1.1-1.1.4 0 1-2 4.4.5 3.6 2 6 4-.3 3.2-.9 2.9-2 5zm9-2h-2v-2h2v2zm4 9v-3h3v3h-3zm4 12v1h-1v-3h2c-.6 2 .2.8-1 2zm10 9h-2v-2h2v2zm1-46h-2v-3h1v-1h1v4zm-39 90h-2c-.9-1.1.1-.2-1-1 .2-2.4.4-2.5 1-4 2.4.6 2.2 1.1 4 2-.6 1-1.3 2-2 3zm5-13h-3v-1h-1c.3-1 .7-2 1-3h3c.9 1.1-.1.2 1 1-.3 1-.6 2-1 3zm5 58v1h-3v-3h1c1.1-1.1 0-.4 2-1 .9 1.1-.1.2 1 1-.6 2 .2.8-1 2zm5-52h1v-1c2.4.2 2.5.4 4 1-.6 2.4-.3 1.9-2 3v1c-1-.3-2-.7-3-1v-3zm6 58c-8.7-.4-3.9-4-8-8 .2-3.8.9-4.6 2-7h4c1 1.8 2.2 3 4 4v4h1c-.2 4.5-1.4 4.2-3 7zm15-4h-1v1c-1.9.6-1.4-.6-2-1h-1c.7-1.3 1.3-2.7 2-4 .7.3 1.3.7 2 1v3zm10 16h-3c-.3-1.3-.7-2.7-1-4 1.3-.8 1.2-.7 2-2h3c.6 2-.1.9 1 2-.6 2.4-1 2.2-2 4zm8-105c-2.8-.1-4.5.3-5-2 1.4-.5 1.4-.7 2-2h3c.9 1.1-.1.2 1 1-.3 1-.6 2-1 3zm14 62h-1v1c-4.9-1.2-3.7-2.9-2-6h3v5zm-90 35h-1c-.7-11.3-1.3-22.7-2-34h-1v-1c-12.3 1.3-24.7 2.7-37 4-1.3-18-2.7-36-4-54 10.3-1 20.7-2 31-3-.3-7.3-.7-14.7-1-22h-1c-1.1-4 1.3-9.4-1-12 0-4.6.2-9.9-1-13-10.3 1-20.7 2-31 3-1.3-15.7-2.7-31.3-4-47l33-3c-.3-8-.7-16-1-24h-1c-1-3.7 1.1-8.6-1-11v-11s-2.5-2.1-3-3c-6.7.7-13.3 1.3-20 2v2h-4c-.7-.3-.4-2.3-2-2v1h-10v1h-9c-.3.7-.7 1.3-1 2-2.7-.3-5.3-.7-8-1v1c-9 .7-18 1.3-27 2-.9 1.1.1.2-1 1 .3 1.8 1 2 1 2v10h1v13h1v12h1c1.1 4-1.2 9.4 1 12v11c.7 1.2 2.9.4 4 1 .4.3.8 1.4 2 2v6c-1 .3-2 .7-3 1v-1h-2v3h1v12h1v11h1v12h1v6h1c.7 2.5-1 3.7-1 5 .7.3 1.3.7 2 1-.3 2.7-.7 5.3-1 8v3h1v12h1c1 15.7 2 31.3 3 47h1v12h1v11h1v12c1.6 5.4 2.1 15.1 2 22 4.3-.3 8.7-.7 13-1v-1h9v-1h9v-1h10v-1h9v-1h9v-1h10v-1h9v-1c3.3-.9 6.9.8 9-1h1v-2h-1v-12zm-36-222h1v-1c1 .3 2 .7 3 1v4h-4v-4zm-54 138h-4v-4h4v4zm0-70h-1v-3h1v3zm5 8h-1c.3-.7.7-1.3 1-2 2 .6.9-.1 2 1h1v1h-1v1c-1.8.6-1.4-.5-2-1zm5 13h-3v-2h3v2zm-1-80c.6-2.4 1.1-2.2 2-4 1 .3 2 .7 3 1-.2 2.4-.4 2.5-1 4h-3v-1h-1zm8 233h-4v-5c1.3-.3 2.7-.7 4-1 .9 1.1-.1.2 1 1-.3 1.6-.6 3.3-1 5zm2-145c-1 .3-2 .7-3 1 .6-2-.1-.9 1-2 .9-1.1-.1-.2 1-1 .9 1.1-.1.2 1 1v1zm1-46h-1v1h-1c-.3-1-.7-2-1-3 1-.3 2-.7 3-1v3zm9 108h-1c-.5 2.4-1.2 3.1-2 5-3.2-.4-2.9-.9-5-2 .1-5.2.4-3.9 2-7h4c.3 1 .7 2 1 3h1v1zm-1-153v-4h4v4h-1c-1.1 1.1 0 .4-2 1-.8-1.2.2-.2-1-1zm7 94h-5v-3h1v-1h4v4zm1-97h3c.9 1.1-.1.2 1 1-.2 2.4-.4 2.5-1 4-2.4-.2-2.5-.4-4-1 .3-2.4.5-2.5 1-4zm-109 151c.1 20.1 3.1 36.7 3 58-1.2 1-3.2 3.6-4 5h-4v1h-1v-1c-4.2-.5-3.3-1.4-6-3-.7-3.6-2-8.6-3-12v-9h-1v-11h-1v-12h-1v-12h-1v-11h-1v-12h-1c-.7-11.7-1.3-23.3-2-35h-1v-12c-2.3-8.1-.7-17.3-2-27-.3-1-.7-2-1-3h1v-9h1c.3-1 .7-2 1-3 5.2-2.2 7-2.4 12 0 1.8 4.5 2.6 11 4 16v10h1v12h1v11h1c.3 6.3.7 12.7 1 19 16.7-1.7 33.3-3.3 50-5-.3-7.7-.7-15.3-1-23h-1c-2.1-2.6-2.3-.4-3-5 1-.3 2-.7 3-1-.5-10.2-2.4-22.5-5-31v-5h-1v-3h-1v-3h-1v-3h-1l-3-9c-.7-.3-1.3-.7-2-1v-2c-2.3-2-4.7-4-7-6-3.8-3.8-6.8-7.6-13-9v-1c-1.1-.5-2.8 2.9-3 3h-5v-2h-2c-.3 1-.7 2-1 3-2.9 0-4.3-.4-6-1 .3-3.2 1-3.8 2-6-6.1-2.7-12.7-1.8-20-1 .5.9 2 1.9 2 2v4h1c-.1 5.2-.4 3.9-2 7h-4c-.3-.7-.7-1.3-1-2-1.3.2-2.3 1.2-3 2-3.8-.1-4.2.2-5-3-1.1-1.1-.4 0-1-2h1c.3-1 .7-2 1-3h3c.6-.4.9-2.1 2-3v-1c-3 .7-6 1.3-9 2v1h-2v1h-3c-.3.7-.7 1.3-1 2-1.3.3-2.7.7-4 1-.3.7-.7 1.3-1 2h-2c-.7 1-1.3 2-2 3h-2c-1 1.3-2 2.7-3 4-.7.3-1.3.7-2 1v2c-1 .7-2 1.3-3 2v2c-.7.3-1.3.7-2 1v2c-.7.3-1.3.7-2 1-.3 1.7-.7 3.3-1 5h-1v2h-1v3h-1v3h-1v3h-1v6c-1.1 3.7-2.4 26-1 31h1v14h1v12h1v12h1v11h1v12h1v12h1v11h1c.3 7 .7 14 1 21h1v7c1.2 4 2.6 10.5 3 15 2.1-1.1 1.8-1.7 5-2v5h-1v1h-3c.4 4.7 3.1 13.4 5 17h1v2h1c.3 1.3.7 2.7 1 4 .7.3 1.3.7 2 1v2c2.3 2 4.7 4 7 6 .7 1 1.3 2 2 3h2c.3.7.7 1.3 1 2 2 .7 4 1.3 6 2v1c1.7.3 3.3.7 5 1v1c1-.3 2-.7 3-1v-1c1 .3 2 .7 3 1 .6 2-.1.9 1 2v1h8v1c3.2.9 8.3-.5 10-1h9v-1h4v-1h4v-1h3v-1h2v-1h3c.3-.7.7-1.3 1-2 1.3-.3 2.7-.7 4-1 .3-.7.7-1.3 1-2h2c1-1.3 2-2.7 3-4h2c.7-1 1.3-2 2-3h1v-2c1.3-1 2.7-2 4-3v-2c1-.7 2-1.3 3-2 .3-1.3.7-2.7 1-4h1c.7-2 1.3-4 2-6h1v-3h1v-4h1v-5h1v-17h1l-3-45c-16.6 1.6-33.3 3.3-50 5zm39-67c1-.3 2-.7 3-1v3c-2-.6-.9.1-2-1h-1v-1zm1 14c2.6.1 3.4.4 5 1v5c-1 .3-2 .7-3 1v-1c-1-.3-2-.7-3-1 .4-1.7.7-3.4 1-5zm-7-12h1v2h-1v-2zm-29-60h4c.8 1.3.7 1.2 2 2-.2 4.3-.6 3.4-2 6-4.3-.2-3.4-.6-6-2 .3-4.3.7-3.4 2-6zm-55 208h-1v-2h1v2zm35-231c1.3-.3 2.7-.7 4-1 .9 1 1.7 1.4 3 2-.4 3.2-.9 2.9-2 5-2.6-.1-3.4-.4-5-1v-5zm-3-2h2v2h-2v-2zm0 10h4c.8 1.3.7 1.2 2 2-.1 3.8.2 4.2-3 5-1.1 1.1 0 .4-2 1-.9-1-1.7-1.4-3-2 .3-4.3.7-3.4 2-6zm-19 203c-1 .3-2 .7-3 1-.3-.7-.7-1.3-1-2-1.1-1.1-.4 0-1-2 1.1-1.1.4 0 1-2 1-.3 2-.7 3-1 .3.7.7 1.3 1 2h1c-.7 1.4-.8 1.6-1 4zm7 31c-.8 2.7-.2 2.3-3 3v-4h1v-1h1v1h2c-.8 1.1.2.1-1 1zm0-113c-.6 2.4-1.1 2.2-2 4h-3c-.1 0-2.7-4.7-2-6h1c.3-1 .7-2 1-3h5c.3 1.7.7 3.3 1 5h-1zm3 111c-.7 1.2-1-1-1-1-1.6-1.1-.4-.1 0-2h1v3zm-1-208c1.3-1 1.5-2 3-3 1.1-1.1 0-.4 2-1 1.7 2.1 2.1.6 3 4h1c-.3 1.3-.7 2.7-1 4-3.8.7-3.2.7-7 0-.3-1.4-.6-2.7-1-4zm8 210h-3v-1h-1v-3h-1c.4-3.2.9-2.9 2-5 1.3 1 2.7 2 4 3 0 2.8-.3 4.2-1 6zm8-2v1h-1v-3h2c-.6 2 .2.8-1 2zm4-19h-1v1c-2.4-.2-2.5-.4-4-1 .4-3.2.9-2.9 2-5h3v5zm3 28c-.9 1.1.1.2-1 1-.6-1.5-.8-1.6-1-4 1 .3 2 .7 3 1-.6 2 .2.8-1 2zm13-25h-3c.8-2.7.2-2.3 3-3v3zm-92-42v-14h-1v-12h-1v-12h-1v-12h-1v-11h-1v-12h-1v-11h-1c-.7-9.3-1.3-18.7-2-28h-1v-7h-1v-5h-1v-5h-1c-.7-3-1.3-6-2-9h-1c-.7-2-1.3-4-2-6h-1v-2h-1c-.3-1-.7-2-1-3-.7-.3-1.3-.7-2-1v-2c-1.3-1-2.7-2-4-3-2-2.3-4-4.7-6-7h-2c-.3-.7-.7-1.3-1-2h-2v-1c-2-.7-4-1.3-6-2v-1c-2-.3-4-.7-6-1v-1h-4v-1h-14v1c-1.5.9-4 2.9-7 2v-1h-2v-1c-3.5-1.2-6.3 1.3-8 2-2 .3-4 .7-6 1v1c-2 .7-4 1.3-6 2v1h-2c-.3.7-.7 1.3-1 2h-2c-1 1.3-2 2.7-3 4-14.2 10.2-20.4 29.2-20 54 2.8.7 2.9 1.8 5 3v5h-1v1h-3c.7 13 1.3 26 2 39h1v5h1c-.3 1.7-.7 3.3-1 5 .7.3 1.3.7 2 1-.3 4.3-.7 8.7-1 13h1v11h1v12h1v11c2.8 9.9 2.1 23.4 5 33v5h1v4h1c.3 2 .7 4 1 6h1c.7 2 1.3 4 2 6h1c.3 1.3.7 2.7 1 4h1c.3 1 .7 2 1 3 .7.3 1.3.7 2 1v2c1.7 1.3 3.3 2.7 5 4 1.3 1.7 2.7 3.3 4 5h2c.3.7.7 1.3 1 2h2c.3.7.7 1.3 1 2h2v1c2.7-.3 5.3-.7 8-1 .3.7.7 1.3 1 2h1v2c1.8 2 6.1.7 8 0v2h3c.9-.4.7-3.1 4-2 .3.7.7 1.3 1 2h8c2.8-.8 6.2-1.8 10-2-.3-1.3-.7-2.7-1-4 3.6-2.1 2.8-4 8-2 .1-4.2.6-5.3-2-7v-3h1v-1h3v2c1.6-.1 3.8-1 4-1v1h3v1c1.9 1.4 2.3 2.3 5 3 1.7-2 3.3-4 5-6h1c2.1-2.9 3.1-7.1 6-9v-3h-1c-.4-.6-2-2-2-2l1-1v-4h1c.3-1 .7-2 1-3h5c.3-2.9 1.4-5.9 2-8v-12h1c-.3-.7-.7-1.3-1-2-.7-7.6.8-17-1-23zm-114-25c-2.4-.2-2.5-.4-4-1 .2-2.4.4-2.5 1-4h3c.9 1.1-.1.2 1 1-.2 2.3-.4 2.4-1 4zm1-70c-.7 1.2-1-1-1-1-1.6-1.1-.4-.1 0-2h1v3zm6 8c-.9 1.1.1.2-1 1-.3-1-.7-2-1-3 1-.3 2-.7 3-1v3h-1zm3 13h-2v-2h2v2zm9 8h-2v-2h2v2zm-1-46v-3h3c-.7 2.7-.2 2.2-3 3zm17 49h-3v-1h-1v-3c1.3-.3 2.7-.7 4-1 .9 1.1-.1.2 1 1-.2 2.3-.4 2.4-1 4zm-2-87h-4c-1.3.5.3.5-1 1-.3-1-.7-2-1-3h-2c-.3-2.7-.7-5.3-1-8 1.2-1 3.2-3.6 4-5 5.6 0 5.9 1.2 9 3 0 3.7-2 10.8-4 12zm65 184h1v2h-1v-2zm-23-173h2v2h-2v-2zm3 27v2h-1v-2h1zm-8 161h1v2h-1v-2zm-17-8c-.4-2-1-2-1-2v-5h-1v-8h-1v-9h-1v-12h-1v-11h-1c-.3-8-.7-16-1-24h-1v-11h-1v-12h-1v-12h-1c-.3-5.3-.7-10.7-1-16-.7-10.3-1.3-20.7-2-31 0-3.9-.9-10.8 1-13 1-3.4 1.3-1.9 3-4h6c.7 1 1.3 2 2 3h1v3h1c.3 4.7.7 9.3 1 14h1v11h1v11h1v12h1v12h1v12h1v11h1v12h1v12h1v11c.4 1.4.8-.4 1 1v11h1v11c.5 5.7 3.1 18.9-1 23-1 1.5-2 1.7-3 3-5.1-.1-5-1.3-8-3zm7 27c.3-1 .7-2 1-3 .7-.3 1.3-.7 2-1 .6 1.6.9 2.4 1 5h-3v-1h-1zm-3 2v1h-2v-2h1c.9 1.1-.1.1 1 1zm5 12c-2 .3-4 .7-6 1-.6-2.4-.3-1.9-2-3 .6-4.4 2.2-3.3 4-6 2.4.6 2.2 1.1 4 2v6zm6-8v1c-1.3-.3-2.7-.7-4-1v-3h1c.3-1 .7-2 1-3h4c.3.7.7 1.3 1 2h2c-.8 3-1.8 3.4-5 4zm9 0h-2v-2h2v2zm1-17v3h-1v1c-2.6-.1-3.4-.4-5-1 0-2.9.4-4.3 1-6h4v1h1l1-1c.9 1.1-.1.2 1 1-.5.9-1.8 1.8-2 2zm5-5c-.7.3-1.3.7-2 1-.9-1.1.1-.2-1-1 .2-2.4.4-2.5 1-4 1 .3 2 .7 3 1-.3 1-.6 2-1 3zm17 9c-.7-.3-1.3-.7-2-1-.3 1.3-.7 2.7-1 4h-4v-1h-1v-5h1v-1c-2.5-1.7-1.2 1.5-4-2h-1v-4h-1c-.3-2-.7-4-1-6h1c.3-1 .7-2 1-3 5.2.3 4.9 2.1 8 4v4h1c-.3 2.3-.7 4.7-1 7h4v4zm3-7v1h-3v-3h1c1.1-1.1 0-.4 2-1 .9 1.1-.1.2 1 1-.6 2 .2.8-1 2zm-119 10v-12h-1v-12h-1v-11h-1v-11h-1c-.3-6.7-.7-13.3-1-20h-1v-7h-1v-4h-1v-3h-1v-2h-1c-.3-1.3-.7-2.7-1-4-4-6.4-13.2-13.5-23-14v-2c8-.7 17.4-7.1 19-14h1v-4c-1-.3-2-.7-3-1 .1-5.1 1.5-6.2 5-5v-16c-2.4-.6-1.9-.3-3-2-1.1-.9-.2.1-1-1 1.3-.8 1.2-.7 2-2h2c-.5-10.7-2.1-23.4-5-32-1.1-3.2 0-5.8-2-8v-2h-1v3c-.2.4-1.4.8-2 2-3.8-.1-4.2.2-5-3h-1c.3-1.3.7-2.7 1-4 3.5-.7 3.8-2.3 6 1h1c-.9-3.5-2.6-3.7-3-8-1-.3-2-.7-3-1-1.8-14.3-29-21-47-16h-13v1h-10v1h-9v1h-10v1c-5.3.3-10.7.7-16 1 .3 5.3.7 10.7 1 16h1v12h1v12h1v12h1v11h1v12h1v12h1v11h1v12h1v12h1v11h1v10h1v3h1v1h-1v4c.7 9.7 1.3 19.3 2 29h1v12h1v12h1v9c.5 1.1 1.9-.1 2 3 .1 2.2-1 2-1 2-.6 2.4 1.3 20.2 2 21v8c4.3-.7 8.7-1.3 13-2 .3-1 .7-2 1-3 1-.3 2-.7 3-1 .6 1.3 1 2.1 2 3v1c2.5-1 6.3-.4 10-1 7.3-1 14.7-2 22-3-3.3-37-6.7-74-10-111h9c1 1.2 3.6 3.2 5 4 .7 3.6 2 8.6 3 12v9h1v11h1v12h1c.3 7.7.7 15.3 1 23h1v12h1v11h1c.3 5.3.7 10.7 1 16h1v-1h5c.7-1 1.3-2 2-3h2v-1c2.9-1.1 12.1.4 14 1v1c7.3-.7 14.7-1.3 22-2-.3-8.3-.7-16.7-1-25h-1zm-16-141c.9-1.1-.1-.2 1-1 .6 1.5.8 1.6 1 4-2-.6-.9.1-2-1h-1c-.6-1.9.6-1.5 1-2zm-6 4c-2-.6-.9.1-2-1 2 .6.9-.2 2 1zm-84 81h3c-.8 2.7-.2 2.3-3 3v-3zm-4-6h-2v-2h2v2zm6 84c-.7.3-1.3.7-2 1-.9-1.1.1-.2-1-1 .2-2.4.4-2.5 1-4 1 .3 2 .7 3 1-.3 1-.6 2-1 3zm2-63c-.9 1.1.1.2-1 1v-1c-1.1-.9-.2.1-1-1 1-.3 2-.7 3-1-.6 2 .2.8-1 2zm6-164c.3-5.4.7-3.2 3-6h4c1 1.8 1.4 1.6 2 4 1.3 1.8-.8 3.8-2 6-5.1-.6-4.2-1.8-7-4zm4 173h-2v-2h2v2zm1-47h-1c-.9 1.1.1.2-1 1-.3-1-.7-2-1-3 1-.3 2-.7 3-1v3zm4-14c-.3 1.3-.7 2.7-1 4-1.3.3-2.7.7-4 1-.6-1.3-1-2.1-2-3 .2-4.3.6-3.4 2-6h5c.3 1.3.7 2.7 1 4h-1zm6 62c.3-1 .7-2 1-3h4c.9 1.1-.1.2 1 1-.3 1-.7 2-1 3h-4v-1h-1zm10 25c-1.1.9-.2-.1-1 1-2.4-.2-2.5-.4-4-1 .4-3.2.9-2.9 2-5h3v5zm12-125v6h-1v2c-.2.4-1.4 1-2 2-3.3 1-6.7 2-10 3-1.7-18.3-3.3-36.7-5-55h9c1 1.2 3.6 3.2 5 4l3 9v11h1c.3 6 .7 12 1 18h-1zm14-71c-2.6-.1-3.4-.4-5-1v-4c1-.3 2-.7 3-1v1c1 .3 2 .7 3 1-.2 2.3-.4 2.4-1 4zm8 93c-4.3-.2-3.4-.6-6-2v-2c1.1-.9.2.1 1-1 2.6.1 3.4.4 5 1v4zm-1-81c-2.9 0-4.3-.4-6-1 .2-7.9 5.1-7.2 8-12h4c.8 1.3.7 1.2 2 2v4h-1v2c-.7 1.2-3.9 1.2-5 2-.6 1-1.3 2-2 3zm3 26c.1-5.2.4-3.9 2-7h4v1h1c.6 2-.1.9 1 2-.4 3.6-.8 4.3-4 5v1h-1v-1c-1-.4-2-.7-3-1zm-104 24h-1v-11h-1v-8h-1v-6h-1v-5h-1v-4h-1c-.3-2-.7-4-1-6h-1c-.3-1.3-.7-2.7-1-4h-1v-2c-.7-.3-1.3-.7-2-1v-2c-1.3-1-2.7-2-4-3-1-1.3-2-2.7-3-4h-2c-.3-.7-.7-1.3-1-2h-2v-1h-2v-1h-3v-1h-4c-9.7-3.1-20.3-1.3-31-1v3c-1.3.8-1.2.7-2 2h-5v-1h-1v-3c-14.3 1.3-28.7 2.7-43 4 7 82.3 14 164.7 21 247 1.9-.1 11-1.1 12-2h5v-1h-1c.3-2.1.1-.9 1-2 1.1-1.1 0-.4 2-1 .9 3 1 .9 0 4 10.7-1.3 21.3-2.7 32-4-.7-5.7-1.3-11.3-2-17-2.4 1.1-4 2.4-7 3-1.1-1.1 0-.4-2-1 .2-4.3.6-3.4 2-6h4c.3.7.7 1.3 1 2h2c-2.3-26.7-4.7-53.3-7-80 14.8-.1 32.2-3.8 41-10 1.3-1.7 2.7-3.3 4-5 1-.7 2-1.3 3-2v-2c.7-.3 1.3-.7 2-1 4.8-7.8 4.1-23.3 4-36-.6-9.7-1.3-19.4-2-29zm-48-49h2v-1c.6 0 1.9.9 4 1v1h1c.1 4.1.4 5.1-3 6v1c-1.3-.3-2.7-.7-4-1-.6-3.8-.6-3.2 0-7zm-15 213h1c.9 1.1-.1.2 1 1v1h-2v-2zm-30-86c-1.1.9-.2-.1-1 1h-4v-3c1.1-.9.2.1 1-1h4v3zm-2-101c-2.9 0-4.3-.4-6-1-1.8-4.4-4-15.3-4-21 1.3-1 1.5-2 3-3v-1c1.5.7 1.6.9 4 1 .7 2 1.3 4 2 6 .7.3 1.3.7 2 1v2h1c.3 1.7.7 3.3 1 5h1c-.1 6.3-1.8 7.1-4 11zm20 169h-1c-.3 1-.7 2-1 3h-4v-1h-1v-3h-1v-1c1.2-1 2.3-2.6 3-4h4c.9 1.1-.1.2 1 1v5zm1-181c-4.2-.5-3.3-1.4-6-3 .5-4.2 1.4-3.3 3-6h3c.9 1.5 1.4 2.1 3 3v2c-1.2.9-2.2 2.6-3 4zm5 216h-1v-1c-1.1-.9-.2.1-1-1h2v2zm8 3c-1 .3-2 .7-3 1-.8-1.3-.7-1.2-2-2 .3-3 .1-2.7 2-4 .9-1.1-.1-.2 1-1 .8 1.3.7 1.2 2 2v4zm3-6c-2.6-.1-3.4-.4-5-1-.6-2 .1-.9-1-2 .5-4.4 2-3.6 4-6 2.4.6 2.2 1.1 4 2-.1 5.2-.3 3.9-2 7zm4-14h-3c-.9-1.1.1-.2-1-1v-3h1c1.1-1.1 0-.4 2-1 .9 1.1-.1.2 1 1v4zm11-127c-1.6 6.1-4.7 3.1-8 6-2.6-.1-3.4-.4-5-1-.2-21.5-3.3-41.7-5-62 4.8-.1 9.7-.4 12 2 4.2 2.5 5.7 9.8 6 16v8h1c.3 5 .7 10 1 15 .2 5.5.9 13.2-2 16zm10-65c-2 .3-4 .7-6 1-.6-2.4-2.4-4.7-4-6 .5-4.3 2.2-5.5 3-9 2-.3 4-.7 6-1 1 1.2 2.6 2.3 4 3-.1 6.2-2 7.4-3 12zm-126 207v-12h-1v-11h-1c-1.7-6.1 1.3-20.2-2-24v-10h-1v1c-2.4-.1-2.5-.5-4-1v-4h1v-1h3c-1-14.3-2-28.7-3-43h-1v-4h-1c-.3-1.7 1.9-4.7 1-8h-1v-12h-1v-11h-1c-1-15.7-2-31.3-3-47h-1v-12h-1v-12c-1.3-4.5-2-12.4-2-18-9.7 1-19.3 2-29 3v1h-2c-.3.7-.7 1.3-1 2h-5l-1 1c-.4.2-1.7-.2-1 1h1v1h-3v1h-1c3 34.3 6 68.7 9 103h-1c-.3-2-.7-4-1-6h-1v-2h-1v-3h-1v-3h-1v-3h-1v-3h-1c-.3-2-.7-4-1-6h-1v-3h-1v-2h-1c-.7-3-1.3-6-2-9h-1c-.7-3-1.3-6-2-9h-1v-2h-1v-3h-1v-3h-1v-3h-1v-3h-1v-3c-1.9-4.8-5-10.1-6-16-4.2 2.1-.8 1.8-6 1 .8 1.3.7 1.2 2 2 0 2.9-.4 4.3-1 6-4.3-.2-3.4-.6-6-2 .1-4.6 1.1-5.3 5-6-.3-2-.7-4-1-6h5l-6-18h-5v1h-7c.8 1.3.7 1.2 2 2-.3 1-.7 2-1 3h-3v-1h-1v-3h2v-1c-9.7 1-19.3 2-29 3 .9 1.7 3.9 3.8 3 7h-1v2h-1v2h-1v1h1c.7 4.9.4 10.2 1 14h2c.4 2 2.2 6 1 9-.7.3-1.3.7-2 1-1.4 3.5.7 9.9 1 12v11h1v11h1v12h1v12h1v11h1v12h1v12h1v12h1v11h1v12h1v12h1v11h1v12h1v12h1v5h1v2h1c-.3 3.3-.7 6.7-1 10 .3 6 .7 12 1 18 6-.3 12-.7 18-1 .3-.7.7-1.3 1-2h2v-1c3.1-.7 3.8 3 8 2v-1c4.7-.3 9.3-.7 14-1-.7-3.8-1.4-11.3-2-15-.6-3.7 1-8.7-1-11v-11c-3.6 2-3.8 3.1-10 3 .2-4.3.6-3.4 2-6h4c.3.7.7 1.3 1 2h2c-.3-7.7-.7-15.3-1-23h-1v-12h-1v-11s-.7-.1-1-2c-1-.3-2-.7-3-1-.3-1.7-.7-3.3-1-5h1v-2c.7-.3 1.3-.7 2-1 1.2-2.7.1-11.8-1-13v-2h1c1.3 5 2.7 10 4 15h1v2h1v4h1c.3 2 .7 4 1 6h1v3h1v3h1v3h1v3h1v3h1c.3 2 .7 4 1 6h1v3h1v3h1v3h1v3h1v3h1c.3 2.3.7 4.7 1 7h1v2h1v4h1v3h1v3h1v3h1v3h1v3h1c.3 2 .7 4 1 6 1.1 2.7 2.7 5.1 3 9 1.1.9.2-.1 1 1 10.7-1 21.3-2 32-3 .6-2-.1-.9 1-2 .7-.5 0-1.4 2-1 .3.7.7 1.3 1 2h8c-.3-6-.7-12-1-18h-1zm-54-202h-1v-1c-1.6-1.2-.3 0 0-2 1.5 1.1 2.7 1.1 1 3zm-71 4h-1c.7-2.9 1.1-3.3 4-4 1.3-.6-.4-1.2 1-1v1c1 .3 2 .7 3 1-.3 1.7-.7 3.3-1 5-3.2-.1-4.5-.3-6-2zm8 12c-1.3.3-2.7.7-4 1-.9-1-1.7-1.4-3-2 .4-3.2.9-2.9 2-5 2.6.1 3.4.4 5 1v5zm41 195h2c-.6 2 .1.9-1 2v1h-1v-3zm-6-195v-1h3v3h-1v1c-1-.3-2-.7-3-1 .7-2-.1-.9 1-2zm-2 6c.9 1.1-.1.2 1 1-.3.7-.7 1.3-1 2-.7.3-1.3.7-2 1-.6-1.5-.8-1.6-1-4h3zm-6 5h4v4h-4v-4zm-1 162v-1h2v2h-1v-1h-1zm-7-170v2h-2v-1c-1 .3-2 .7-3 1v-1c-1.1-1.1-.4 0-1-2h1v-1c2.8.7 2.3 1.3 5 2zm-7-31h2v3h-2v-3zm-7 3c1.4 1.2 2.7 1.1 1 3h-1v-1h-1c.4-.7.7-1.4 1-2zm4 51h-6c-.7-3.8-.7-3.2 0-7 1.3-.3 2.7-.7 4-1 .9 1 1.7 1.4 3 2 0 2.8-.3 4.2-1 6zm4-39c3.4.4 3.2 0 4 3h1v1h-1c-.6 2 .1.9-1 2v1c-1.3-.3-2.7-.7-4-1-.3-1.3-.7-2.7-1-4 1.3-.9 1.2-.7 2-2zm-1 208v-3h3c.3 1 .7 2 1 3h-4zm5-184c.2-2.4.4-2.5 1-4h2c.3-1 .7-2 1-3h4v5c-3.3.8-3.8 2.2-7 3v-1h-1zm4 178h-1v-1h-1v-1h2v2zm2-38h-1v-2h1v2zm0-123v-1h-1c.3-1.3.7-2.7 1-4h3v1h1c-.2 2.4-.4 2.5-1 4h-3zm5 164c-2.4-.2-2.5-.4-4-1v-4c1-.3 2-.7 3-1 .8 1.3.7 1.2 2 2-.2 2.3-.4 2.4-1 4zm4-6c-2.6-.1-3.4-.4-5-1-.6-2 .1-.9-1-2 .5-4.2 1.4-3.3 3-6h3c.8 1.3.7 1.2 2 2-.1 5.2-.3 3.9-2 7zm4-14h-4v-4h1c1.1-1.1 0-.4 2-1 .9 1.1-.1.2 1 1v4zm3-163h-3v-1h-1c.3-1 .7-2 1-3h3v4zm6 15h-4v-4h4v4zm45 75c2.4.2 2.5.4 4 1v4h-1v1c-1.3-.3-2.7-.7-4-1-.3-1-.7-2-1-3 1.3-.9 1.2-.7 2-2zm-22 57v2c-1 .3-2 .7-3 1v1c-3.4-.4-3.7-.7-5-3h-1c.3-1 .7-2 1-3h-1v-2h-1c-1-3.1 1.2-5.4 2-7h4c2 3.3 6.1 6.4 4 11zm13 0h-1v1h-3c.2-2.4.4-2.5 1-4 .7-.3 1.3-.7 2-1 .9 1.1-.1.2 1 1v3zm-5-164c-2-.3-4-.7-6-1-.4-3-2.3-7.6 0-10 .3-1 .7-2 1-3 6.5.2 6.2 2.7 10 5-.8 3.1-3.5 6.1-5 9zm12 174h4v5c-1.1.9-.2-.1-1 1-2.4-.2-2.5-.4-4-1 .4-1.7.7-3.4 1-5zm8 26h-1v1h-3c-.3-1-.7-2-1-3 1.3-.8 1.2-.7 2-2h2c.9 1.1-.1.2 1 1v3zm13-5h-1v-2h1v2zm-125-4h-1v-11h-1v-12h-1v-12h-1c-.7-11.7-1.3-23.3-2-35h-1v-2c-.7-.3-1.3-.7-2-1-1.7-4.3 2.8-4.1 2-8h-1v-12h-1v-12h-1v-12h-1v-11h-1v-12h-1v-12h-1v-11h-1v-12h-1v-3c-2.6-.1-3.4-.4-5-1-.3-1-.7-2-1-3 1.2-1 2.3-2.6 3-4h2c.1-5.2-.7-10.2-1-14-.3-3.5.7-8-1-10v-2h-1c-1 1.3-2 2.7-3 4h-1c.3.7.7 1.3 1 2h-1v1h-1v-3h-1c-1.9-1.9-9.5-3.3-14-2-7.9 2.2-18.3 2.9-28 3-.9 1.1.1.2-1 1-.1 6.6.6 6.8 5 9 0 3.1-.3 5.1-1 7h-2c.1 8.5.1 18.2 2 25v12h1v11h1c.3 8 .7 16 1 24h1v12h1v11h1v12h1v12h1v11h1v3c3.6 1 4.2 3.3 7 5 0 3.6-.2 6.8-1 9-1.7.3-3.3.7-5 1 2.3 27.3 4.7 54.7 7 82 16.7-1.7 33.3-3.3 50-5-.1-7.7-.3-16.8-2-23v-12zm-48-65c2 .6.9-.1 2 1-1.9-.6-.8.1-2-1zm3-93c-2.4-.2-2.5-.4-4-1-.6-2 .1-.9-1-2 .5-3.8 1.2-2.8 2-6 2.9 0 4.3.4 6 1-.1 3.3-.6 4.5-1 7-1.9.6-.8-.2-2 1zm2 180c2 .6.9-.1 2 1-1.9-.6-.8.1-2-1zm6-67h-3v-3c1-.3 2-.7 3-1v4zm10-150c1-.3 2-.7 3-1v1h2c.3 1 .7 2 1 3h-1v2c-2.6-.1-3.4-.4-5-1v-4zm-2 159h3v1h1c-.1 2.6-.4 3.4-1 5-2.4-.2-2.5-.4-4-1 .2-2.7.4-3.4 1-5zm7 27h-3v-1h-1c.6-2.4 1.1-2.2 2-4 1 .7 2 1.3 3 2-.3 1-.6 2-1 3zm13-7c.9-1.1-.1-.2 1-1v2c-2-.6-.9.1-2-1h1zm3 20c-1.3.3-2.7.7-4 1-.3-1-.7-2-1-3 1.6-.6 2.4-.9 5-1v3z"/><text transform="translate(1161 722)" fill="#27AAE1" font-family="'MyriadPro-Regular'" font-size="12">27aae1</text></svg>