<svg version="1" xmlns="http://www.w3.org/2000/svg" width="576" height="576"><path fill="none" stroke="#000" stroke-width="2.681" stroke-miterlimit="10" d="M259.8 289.1l2.1 4 2.7 1.1 2.5 3.7s9.8 2.8 14.3 3.3 25.8-4.6 27.5-8.1c1.7-3.5 1.8-8.2 1.5-9-.3-.8-3.7-5.5-3.7-6s.3-5.2.3-5.2l14.2-.7v-2.3l-10.8-3.5-1.8-6.4-5-4.4s-5.5-.8-7.7 0-6.2 4.4-6.2 4.4-2.2 7.7 0 9.4c2.2 1.7.8 5 .8 5s-16.2.5-20.7 2.8S255 288 255 288s10.2 2.2 11 2.5c.8.3 11.7-2.5 11.7-2.5"/><path fill="none" stroke="#000" stroke-width="2.681" stroke-miterlimit="10" d="M265 284.2h6.2l5.3-1.8m-3 29.5l7.7 6.6-7.7 2.8v-9.4l5.7-10.7m21 13.1l4.8 7 8.3-5.3-13.1-1.7-5.8-15.2"/></svg>