<svg version="1" xmlns="http://www.w3.org/2000/svg" width="576" height="576"><path fill="none" stroke="#000" stroke-width="2.681" stroke-miterlimit="10" d="M260.9 289.4l-3.4 2.1 4.5 2.1-2.2 2s10.4 4.1 18.8 4.7c8.4.6 21.8-2 22.2-2s9.6-3.9 8.9-7.9-3.4-9.1-3.4-9.1-3.4-7.8.5-8.1c3.9-.3 14-1.2 14-1.2v-2.1l-13.1-5.9-1.5-4.6-3.4-3.3s-7.5-.4-9.8 0-5.1 2.1-5.2 4.9-.8 5.1 0 7.9 1 5.9 1 5.9-11.1-2-15.2.5-8.8 6.6-8.8 6.6l-7.9 5.5s7.8 2.9 9.4 3 13.2-2.2 13.9-2.4"/><path fill="none" stroke="#000" stroke-width="2.681" stroke-miterlimit="10" d="M267.6 285.4s7.2-.7 7.6-.7 4.6-1.6 4.6-1.6m-10.9 11s8.1.5 8.6.5M273 311v8.8l6.9-2-6.9-6.8 5.5-10.8m20.5 13.2l4.2 6.4 7.8-4.4-12-2-4.5-13.7"/></svg>