<svg version="1" xmlns="http://www.w3.org/2000/svg" width="576" height="576"><path fill="none" stroke="#000" stroke-width="2.681" stroke-miterlimit="10" d="M305.7 273.2h13v-2.7l-9.3-3.3s-3.3-9.3-10.5-9.8-10.7 3.7-10.7 3.7v4.2c0 .8.7 3.9.8 4.4s2.3 4 2.3 4l-2 2s-9.7-1-15.5 0c-5.8 1-13.2 9.9-13.2 9.9l-4 4.6 9.1 2.8 3.7 3.2s13.3 1.5 18.2 2c4.8.5 9-1.6 11.2-2 2.2-.4 7.6-3.8 8.4-4.1.8-.3 4.6-6.3 4.6-7.9 0-1.7-2.8-5.9-2.8-5.9l-3.3-5.1z"/><path fill="none" stroke="#000" stroke-width="2.681" stroke-miterlimit="10" d="M266.8 284.7s6.7-.3 7 0c.3.3 6.3-2.5 6.3-2.5m-17.2 9.9s10.2-.6 10.9-.8c.7-.2 11.5-4.5 11.5-4.5m-7.8 23.7l.8 8.3 8.7-4-9.5-4.3v-13.1m22 13.6l2.6 6 8.6-3.8-11.2-2.2-6-13.3"/></svg>