<svg version="1" xmlns="http://www.w3.org/2000/svg" width="576" height="576"><path fill="none" stroke="#000" stroke-width="2.681" stroke-miterlimit="10" d="M322.7 195.6l-2-6.2s-6.7-5.5-9.3-5.4c-2.7.1-8.2 3.1-8.7 3.3-.5.2-1.7 6.1-1.2 7.6s1.9 8-.1 8-10.2-2.8-15-1.8c-4.8 1-13 6.7-13.7 9.3l-4.2 4.2 3 1.1.3 4.2s6.8 8.7 28 7.2c21.2-1.5 27-10.2 25-15.2s-3.8-9.3-3.8-9.3l14.3-1.2.8-2.7-13.4-3.1z"/><path fill="none" stroke="#000" stroke-width="2.681" stroke-miterlimit="10" d="M276.9 210.5s6.2 1.8 7.3 1.7c1.2-.2 6.8-1 7.9-1.7m-21.4 4.9s8.7 2 13.4 1.7c4.7-.3 11.8-2.5 11.8-2.5m-19.9 8.5c.5.3 10-.8 10.5-1 .5-.2 7.7-2.8 7.7-2.8m-5.8 20.2l.7 7.8 6.8-3.8-7.5-4 1-12.2m21.3 12.2l2.9 6 8.1-3-11-3-5.2-13"/></svg>