<svg version="1" xmlns="http://www.w3.org/2000/svg" width="576" height="576"><ellipse transform="rotate(-5.732 256.12 135.382)" fill="none" stroke="#000" stroke-width="2.681" stroke-miterlimit="10" cx="256.1" cy="135.3" rx="26.2" ry="39.7"/><path fill="none" stroke="#000" stroke-width="2.681" stroke-miterlimit="10" d="M239.4 102.7s14.1 0 22-5.3M233.7 112s22.1-2.5 33.1-11.3m-35.4 18s16.9 1.1 40-13.6m10.5 41.4s-28-7.1-47.4 8.7m19.6 19.2v11.8m12.7-13.4l2.5 10.9m-40.6 3l68-4-6.3 125.9s-51 .7-50.7 0c.3-.6-11-121.9-11-121.9z"/><path fill="none" stroke="#000" stroke-width="2.681" stroke-miterlimit="10" d="M250.4 185.5l13.2 15.5 10.6-16.9m-45.5 2.6L188 245.5l22 60-1 26.5 10.5 5.7-.5-27.2 7.4 3.8 3.2-7-12.3-8.3-7.3-49.1 21.4-32.6M188 245.5l22 4.4m86.9-67.7l37.5 27 27-43.2-4-9.2 18.2-32.5 5 1.5-5.5 17.3s13.2 6.4 13.2 7.2-3.8 12.5-3.8 12.5l-15.8-5.8 3.5-8.5"/><path fill="none" stroke="#000" stroke-width="2.681" stroke-miterlimit="10" d="M383.5 162.3l-10.3 8.4-35 65.3-42.8-32.3m39 5.5l3.8 28m-98.5 70.6l5 147.2h9.6l10.1-147.2m1.6 0L284.4 455h10.3l-4.4-147.2M244.7 455L220 472l27.7 4.8 6.6-21.8m30.1 0l11.7 25.2 21.3-6.8-23.1-18.2"/></svg>