<svg version="1" xmlns="http://www.w3.org/2000/svg" width="576" height="576"><path fill="none" stroke="#000" stroke-width="2.681" stroke-miterlimit="10" d="M253.8 127.3s43.9 4.4 65.7-19m-14.1 11c5.9 6.5 9.7 16.1 9.7 26.9 0 19.5-12.2 35.3-27.3 35.3s-27.3-15.8-27.3-35.3c0-6.9 1.5-13.3 4.1-18.7"/><path fill="none" stroke="#000" stroke-width="2.681" stroke-miterlimit="10" d="M273 176s-12.7 1-15 0c-2.3-1-7.3-1.3-9-5s5.3-15.3 5.3-15.3c-2.7-6.3-7.7-33.3-7.3-48s27.3-23.7 46.7-24.3c19.3-.7 30 8.7 36.3 25.7s-8 39-8 39 12.7 15 7.7 19.3c-5 4.3-24.2 5.8-24.2 5.8m-43.4-63.8s22.4 2.2 43.7-11.1M256.7 119s32.3 3.3 54.7-14.3"/><path fill="none" stroke="#000" stroke-width="2.681" stroke-miterlimit="10" d="M260.4 146.2s5 6.8 12.6 4.4c7.7-2.3 14-7.2 19.3-4.4 5.3 2.8 10.8 3.2 22.7 0m-36.7 33.2l1.2 11.3m16.2-10.7l-.5 10.7m26.3-1l-67.7 3.5-18.3 247.3S285 463 354 438l-32.5-248.3zm-15.6.8s-29.2 53.5-58.1 83.8m74.3-79.7s-29.6 80.9-77 116.2"/><path fill="none" stroke="#000" stroke-width="2.681" stroke-miterlimit="10" d="M253.8 193.2s-43.5-22.8-82.2-71.8L145 207s56.7 29 107.6 2.8"/><path fill="none" stroke="#000" stroke-width="2.681" stroke-miterlimit="10" d="M171.7 121.3l-10.4-13-3-10s-5.5-2.1-5.8-2.9-2-12.2-2-12.2-5.5-1.2-5.5 0-1 10-1 10-4.5-.5-4.5-1.8-7.2-17.2-7.2-17.2l-11.2 6 3.8 28.1 23.8 9.7 17.8 20.4"/><path fill="none" stroke="#000" stroke-width="2.681" stroke-miterlimit="10" d="M139.5 100.8c.8 0 5.2-.5 6.8 0 1.7.5 7.2 7.6 7.2 7.6m168.9 81.8s43.5-22.8 82.2-71.8l26.7 85.7s-56.7 29-107.6 2.8m80.9-88.6l10.4-13 3-10s5.5-2.1 5.8-2.9 2-12.2 2-12.2 5.5-1.2 5.5 0 1 10 1 10 4.5-.5 4.5-1.8 7.2-17.2 7.2-17.2l11.2 6-3.8 28.1-23.7 9.7-17.8 20.4"/><path fill="none" stroke="#000" stroke-width="2.681" stroke-miterlimit="10" d="M436.7 97.7c-.8 0-5.2-.5-6.8 0-1.7.5-7.2 7.6-7.2 7.6M264.6 447.2l5.7 29.8h9.4l3.6-27.2m22 0l3.4 27.2H319l3.4-29.5M270.3 477L238 494.3l32.3 11 9.4-28.3m29 0l7.6 28.3 30-9.7L319 477"/></svg>