<svg version="1" xmlns="http://www.w3.org/2000/svg" width="576" height="576"><ellipse fill="none" stroke="#000" stroke-width="2.785" stroke-miterlimit="10" cx="273.2" cy="165.1" rx="23.8" ry="35.4"/><path fill="none" stroke="#000" stroke-width="2.785" stroke-miterlimit="10" d="M266.8 199.2l-1.3 9.6m14.2-9.6l1.8 9.6m-40.8 25.5c-1-14.8-1.7-25.6-1.7-25.6h67s-.5 12.8-1.1 29.6m-73.6-8.6c4.2-11.6 7.7-20.9 7.7-20.9m67-.1s20-18.2 20.5-37.7-1.2-47.8-1.2-47.8l-10.2-7 1.3-37h5.5l1.2 17.2 10.2-1 4 13.2-12.8 2.5-1.5-9"/><path fill="none" stroke="#000" stroke-width="2.785" stroke-miterlimit="10" d="M337.2 108.8l-2.1 12.5s25 47.8-11.1 110m2.5-60.3l16.3 6M297 286.8l11.2-12.6 3 4.3-3.2 6.5 14.2-4.5V294l-24.2 3.5"/><path fill="none" stroke="#000" stroke-width="2.785" stroke-miterlimit="10" d="M268.4 281.9V247l-46.9-22.5 16 46.2c24.8 13.2 59.5 16 59.5 16l1 10.8c-58.8 9.2-82.2-25.2-82.2-25.2s5.9-16 11.5-31.3"/><path fill="none" stroke="#000" stroke-width="2.785" stroke-miterlimit="10" d="M320.3 281.1l6.2-52.3-43 18.2v38m-15.1-38h15.1m19.2 50.7c-.4 11.3-.7 19.1-.7 19.1h-55.8s-.6-9.6-1.5-23"/><path fill="none" stroke="#000" stroke-width="2.785" stroke-miterlimit="10" d="M246.3 316.7l9.5 154.8h10.4l10.3-154.8m2.5 0l19 154.8h11.6L302 316.7m-46.2 154.8l-22.8 18 28.4 3.5 4.8-21.5m31.8 0l5.5 24.5 27.3-8-21.2-16.5M306 247l-1 25.2m-5.2-17.4l11.2-1.3"/></svg>