<svg version="1" xmlns="http://www.w3.org/2000/svg" width="576" height="576"><ellipse fill="none" stroke="#000" stroke-width="2.532" stroke-miterlimit="10" cx="255.3" cy="140.8" rx="25.6" ry="41"/><path fill="none" stroke="#000" stroke-width="2.681" stroke-miterlimit="10" d="M237.3 111.9s16 5 32.9-4.4m-36.9 12s22.8 2.8 41-6.2m-43.8 15.1s26.2 6.3 46.7-9"/><path fill="none" stroke="#000" stroke-width="2.785" stroke-miterlimit="10" d="M227 136l1.3 13.7h23V136zm25 7s4.9-1.8 9.1 0m0-7v13.8s21.1.8 21.1 0 1-13.8 1-13.8h-22.1z"/><path fill="none" stroke="#000" stroke-width="2.681" stroke-miterlimit="10" d="M247.7 180v8.8m13.4-8.1l.7 8.1m-41.6.4h70.3l-8.3 114.5h-53.7z"/><path fill="none" stroke="#000" stroke-width="2.681" stroke-miterlimit="10" d="M220.2 189.2L193 250.9l11 68.8 1 27 11.3 4-1.7-25.7s5.5 4.7 5.6 3.7 2.8-7 2.8-7l-9.3-6-2.3-62.3 11.5-28.1M193 250.9l18.3 2.4m79.2-64.1l37.5 27 27-43.2-4-9.2 18.2-32.5 5 1.5-5.5 17.3s13.2 6.4 13.2 7.2-3.8 12.5-3.8 12.5l-15.8-5.8 3.5-8.5"/><path fill="none" stroke="#000" stroke-width="2.681" stroke-miterlimit="10" d="M377.1 169.3l-10.3 8.5-35 65.2-42.8-32.3m39 5.5l3.8 28m-101.1 59.5l5 147.3h9.5l10.2-147.3m2.6 0L276.3 451h10.4l-4.5-147.3M235.7 451L211 468l27.7 4.8 6.5-21.8m31.1 0l11.8 25.2 21.3-6.8-23.2-18.2M252 188.8l-4.3 3.8v8.8s2.3 2.5 4.3 2.5h6.2l2.9-4-.6-7.5-3.9-3"/><path fill="none" stroke="#000" stroke-width="2.681" stroke-miterlimit="10" d="M252 203.8l-6.8 31.4 11.4 34.8 10.9-35.8-9.3-30.4"/></svg>