<svg version="1" xmlns="http://www.w3.org/2000/svg" width="576" height="576"><ellipse transform="rotate(-6.28 266.027 135.228)" fill="none" stroke="#000" stroke-width="2.532" stroke-miterlimit="10" cx="266.1" cy="135.1" rx="25.6" ry="41"/><path fill="none" stroke="#000" stroke-width="2.785" stroke-miterlimit="10" d="M245.1 130.8l2.8 13.6 22.8-2.5-1.5-13.7zm25.6 4.3s4.7-2.4 9.1-1m-.7-7l1.5 13.7s21.1-1.6 21-2.3c-.1-.7-.5-13.8-.5-13.8l-22 2.4z"/><path fill="none" stroke="#000" stroke-width="2.681" stroke-miterlimit="10" d="M245.1 108.4s16.5 3.2 32.3-8M242 116.3s22.9.3 40-10.6m-41.9 19.9s26.7 3.4 45.4-14m-22.6 63.3l1.3 12.5m12.1-13.2l2.2 11.8"/><path fill="none" stroke="#000" stroke-width="2.785" stroke-miterlimit="10" d="M236.3 190l66.7-6.3L291.7 308h-46.6z"/><path fill="none" stroke="#000" stroke-width="2.681" stroke-miterlimit="10" d="M236.3 190l-39 55.8-1.6 70.7 8.6.5 10-65.9 24.2-32.1m-41.2 26.8l17 5.3"/><path fill="none" stroke="#000" stroke-width="2.681" stroke-miterlimit="10" d="M204.3 317l7.7 13.8-6.2 4.5-4.5-6.5-4 21.2-8.6 2.7 7-36.2M303 183.7l23.7 61.5L367 284l-6.7 6.3-46.6-35.1-13.7-32.9m26.7 22.9l-13 10"/><path fill="none" stroke="#000" stroke-width="2.681" stroke-miterlimit="10" d="M367 284l10 8.3 9 24.1-6 .5-13-16.5-2.7 7.5s-5.7-1.2-5.7-2.8 1.7-14.9 1.7-14.9"/><path fill="none" stroke="#000" stroke-width="2.785" stroke-miterlimit="10" d="M291.5 309l53 142-8.7 5.7L245.1 308"/><path fill="none" stroke="#000" stroke-width="2.785" stroke-miterlimit="10" d="M270.6 349.7c-6.3 34.4-10.3 60-39.8 103l-11.6-1.4s29.9-98.5 30.5-135.8m-30.5 135.8l12 29.7 23.5-11.3-23.9-17m105 4l28.7 24.3 21.3-19-41.3-11"/><path fill="none" stroke="#000" stroke-width="2.681" stroke-miterlimit="10" d="M268.9 186.3l-4 4 .6 8.7s2.4 2.3 4.4 2.2c2-.1 6.2-.4 6.2-.4l2.6-4.2-1.2-7.4-4.2-2.7m-3.3 14.8l-4.5 31.9 13.8 33.8 8.3-36.4-11.4-29.7"/></svg>