<svg version="1" xmlns="http://www.w3.org/2000/svg" width="576" height="576"><ellipse transform="rotate(-8.66 260.407 135.834)" fill="none" stroke="#000" stroke-width="2.681" stroke-miterlimit="10" cx="260.4" cy="135.8" rx="26.2" ry="39.7"/><path fill="none" stroke="#000" stroke-width="2.681" stroke-miterlimit="10" d="M242.1 104.1s14.1-.7 21.7-6.5m-27.1 16s22-3.6 32.5-13m-34.4 19.8s16.9.2 39.3-15.6m12.6 40.8s-28.4-5.6-46.9 11.1m18.3 17.6l1.3 11.1m12-13.2l2.2 11.8"/><path fill="none" stroke="#000" stroke-width="2.785" stroke-miterlimit="10" d="M231.4 188l66.7-6.3L286.8 306h-46.6z"/><path fill="none" stroke="#000" stroke-width="2.681" stroke-miterlimit="10" d="M255.2 185.8c1-.1 12.1 15.2 12.1 15.2l11.7-17.5m-47.6 4.5l-47.6 30.7 17.2 69.6 8.7-1.3-4.7-59 28.2-16.7m-49.4 7.4L205 228m93.1-46.3l27.5 40 35.2 6.3v7l-40.8 3.2-24.6-26.7m30.2 10.2l-5.6 16.5m40.8-10.2l9.8-6.3 17-1.4 4.8 11.7s-4.5 4.1-5.2 4.1h-13l-5.5-6.1"/><path fill="none" stroke="#000" stroke-width="2.681" stroke-miterlimit="10" d="M360.8 235l8.2 7.5 13.5-2V236m-172.8 51l9 9-1.7 10h-5.7l1 3.7L199 317l-4.6-15 6.6-13.7"/><path fill="none" stroke="#000" stroke-width="2.785" stroke-miterlimit="10" d="M286.6 307l53 142-8.7 5.7L240.2 306"/><path fill="none" stroke="#000" stroke-width="2.785" stroke-miterlimit="10" d="M265.7 347.7c-6.3 34.4-10.3 60-39.8 103l-11.6-1.4s29.9-98.5 30.5-135.8"/><path fill="none" stroke="#000" stroke-width="2.785" stroke-miterlimit="10" d="M214.3 449.3l12 29.7 23.6-11.3-24-17m105 4l28.7 24.3 21.3-19-41.3-11"/></svg>