<svg version="1" xmlns="http://www.w3.org/2000/svg" width="288" height="288"><g fill="#27AAE1"><path d="M124.2 50.6s-21.1 10.8-11.4 39.2c0 0-11.4-10.4-4.5-26.4 6.9-15.9 15.9-12.8 15.9-12.8zm-20.4 39.2l-14.3 51s12.3 8.9 23.3 10.3c0 0-11.5.5-18.1-2.3 0 0 11.1 41.7-8.9 66.7 0 0 22.8 8.9 22.7 9.4s-8.8 9.2-9.2 8.5-23.2-10.8-23.2-10.8 10.3-13.2 11.5-15.5c1.2-2.3 8.9-23.9 3.5-36.7l-3.1-13-5.6-15.4 17.7-53.4 3.7 1.2z"/><path d="M108.5 151.2s25.5 51.5 26.8 67.6c0 0 22.6 4 22.5 4.8-.2.7-5 8.2-5 8.2l-23.8-5 1.9-10-12.6-30-9.8-20.5-1.5-1.6-1.6-12.8 3.1-.7z"/></g><g fill="none" stroke="#000" stroke-width="2" stroke-miterlimit="10"><ellipse transform="rotate(-78.03 119.93 70.785)" cx="119.9" cy="70.8" rx="20.6" ry="13.3"/><path d="M112.4 51.2s11.2 6.2 20.2 4.5m-21.9-2.1s9.2 8.1 23.2 5.3m-25.5-2.4s12 10.1 24.2 5.9m-22.8 24.5l-2.3 4.4 9.5 3.9 1.1-4.1"/><path d="M120.4 125.8c2-13.6 4.1-27.6 4.1-27.6L101 88.7l-18.8 54.1s15 10.9 34.5 8c0 0 .9-5.8 2-13.6"/><path d="M105.4 101.2c.5 1 11 33.2 35.8 35.5v6.1s-26.8 2.4-43.5-26.3m43.5 20.2c1.1-.5 6.5-2 6.5-2h10.5l2.6 7.9-13.9 2.6-5.6-2.5m-17.6-39.5s3 28.9 19 30m-60.5 9.5s23 44.1 0 72.8h5.1s27.1-13.7 18.1-63.7"/><path d="M116.7 150.7s19.1 37.5 21.1 66.1l-6.8.1s-14.1-35.8-24.1-53.5m-24.7 52.2l-4.7 5.8 22.5 8.3 8.5-7.1-21.2-7m43.5 1.7l-1.7 8.2 23.8 3.1 4.9-7.8-20-4"/><ellipse transform="rotate(-72.656 189.865 139.622)" cx="189.9" cy="139.6" rx="15" ry="10.6"/><path d="M197.3 148.2s12.8 18.6 12.8 54.3c0 0-18.8 7.8-35 0 0 0 7.1-11.8 8.6-30.1m14.1-14.9s-24.3 11.3-41.5-14m-5.7 1.8c4.3 8.7 19.2 33.9 43.2 25.2m-36.1-27.6s14.1 15.2 25.4 11.2m-26.3-19.6l-4.5-6-9.7 2.5s.3 2.8.5 5.3m40.7 24.1c-.2-2.5-.4-5.1-.9-7.8m-6.4 51.4L163 219.4s5.2 5 15 4.1"/><path d="M188.1 206l-13 22.6s33.5 1.5 54.5-15.5v-3.8l-29 4 9.5-10.8"/><path d="M227.2 209.6c-.1-1.1 1.4-5.6 1.4-5.6l18.8 9.8-14 3.1-4.9-3.1"/></g></svg>