<svg version="1" xmlns="http://www.w3.org/2000/svg" width="288" height="288"><g fill="#27AAE1"><path d="M132.5 63.8s-21.9 17.3-7.6 39.2c0 0-13.8-5.5-9-22.3s16.6-16.9 16.6-16.9zm-15.6 41.7s-12.2 55.4-10.4 66.2l4.3 13.1-4.3.2-7.2-17.4-1.3-.9 14.7-63.5 4.2 2.3zM39.8 206.8c.2-1.3 11.5-16.5 11.5-16.5l80 2.3 2.4 9.3s-80.1-9.2-80.3-8.2c-.2 1.1-2.9 13.1-2.9 13.1H39.8zm128.6-9.2s-14.1 1.2-14.5 3.1c-.4 1.9.8 5.7 1.3 5.8.4.2 5.6 2.2 5.6 2.2s-6.6 5.6-6.2 6c.4.3 5.6 11.8 16.7 11.2 11.1-.6 19.7-2.2 19.7-2.2l.9-4s-2.1-4.4-2.3-4.6-5-4.7-5-4.7l8.9-3.5s4.5-5.1 4-5.1c-.5-.1-10.2-4.3-10.2-4.3l1.2-1.4-4.6-1.3s-3.1-5-3.3-4.6-16.6 2-16.6 2l4.4 5.4z"/><ellipse cx="117.8" cy="222.6" rx="24.3" ry="2.3"/></g><g fill="none" stroke="#000" stroke-width="2" stroke-miterlimit="10"><ellipse transform="rotate(-77.896 129.089 83.43)" cx="129.1" cy="83.4" rx="20" ry="13.4"/><path d="M143.9 69.2s-9.8.5-19.7-5.7m21 9.5s-17.6 1.5-23.1-7.8M145.2 77S126 78.8 120 67.5m2.1 34.3l-1.6 3.7 6.8 2.5 1.8-5.1"/><path d="M131.8 150.7c-1.4 13.9-2.7 26.2-2.7 26.2s-17.4.3-31-10.2l14.7-63.5s16.3 4.3 23 9c0 0-1.2 11.6-2.6 25.1"/><path d="M122.1 118.5s13 31.9 34.5 37.6l-1.9 4.9s-31-6.2-37-29.8"/><path d="M156.6 156.1c.8-.4 5.3-1.8 5.3-1.8l8.7 6.6-4.3 6.4-12.3-5.7"/><path d="M163 155.2c-.1-.1 4.1-10.2 4.1-10.2l9.3 8.5-7.5 7.3M158 164l-7.3 7.6 12.3 5.3 1.4-10.4m-37.2 10.4l6.5 25-80.5-9.5V187l61.2-2.2m-15.2-17.4l7.3 17.6"/><path d="M54.6 186.5l-.9-.9-5.6-.7-14.5 19.5h17.5l2.5-11.3M242.1 64.5l-6.3 82.1h6.3l11.7-82.1z"/><path d="M244.8 146.6l-57.5-1.6 1 13.8 56.5-2.8z"/><path d="M193.8 158.5l4 48.3h3.8v-48m40.5-2.7V206h-6.3l-2.5-49.4m-31.7 22.2h32.8m-32.8 6l33.1-1.1"/><ellipse transform="rotate(-12.104 211.117 64.704)" cx="211.1" cy="64.7" rx="13.4" ry="20"/><path d="M215.3 84.2l.8 2.7m4.5-5.9l1.4 3.2m-5 51.2c-2.9.3-4.9.6-4.9.6s9.6-14.7-.9-44.9c0 0 15.9-10.2 16.7-10s12.1 19.1 9 52c0 0-6.8.8-13.3 1.5m-3.3 12l10.3-43.4"/><path d="M224.2 92l-8.2 49.2-12.8 1.3s-.3 1.2-.7 2.6"/><path d="M212.1 135.9l-32.9.7 6.9 57.1h4.5l1-34.9"/><path d="M186.1 193.7c-2 .3-19.8 7.8-19.8 7.8l13 5.2 11.3-13.1m-4.9-3.3l-22.2 1.5 7.5 7.7"/><path d="M167.8 196.2s-13.6 1.6-15.1 2-2.5 5.8-1.8 6.4c.7.7 10.5 4.3 10.5 4.3s-8.8 6.2-8.8 7.3c0 1.2 7.8 13.7 19.7 13.2 11.8-.5 17.2-2.2 18.3-3.3s2.3-6.7 0-9.7-6.5-6.3-6.5-6.3 8-2 9.7-3.3c1.8-1.3 3.8-3 3.7-3.8s-10.2-5.5-10.2-5.5"/><ellipse cx="117.7" cy="221.6" rx="26.5" ry="3.3"/><path d="M91.2 221.6s5.2 15.7 10.8 18.3c5.7 2.7 11.7 2.8 11.7 2.8s7.7-.5 8.2 0 13.3-3.3 13.3-3.3 7.7-5.8 9-17.8"/></g></svg>