<svg version="1" xmlns="http://www.w3.org/2000/svg" width="288" height="288"><path d="M134.8 8.8s-28.2 22.3-12.3 53c0 0-17.3-11-10.1-31.4s19.4-22.1 22.4-21.6zm-24.1 57.8L91.4 144l-11 112 6.4 27.2h-22L76.5 256l8.2-115.4 12.9-52-17.4 5.7-7.1 36-4.1.8 7.5-44.3L100 76.5l2.5-9.9zm-2.3 81.5l14 102.5h3.8l-6.9-101.9z" fill="#27AAE1"/><g fill="none" stroke="#000" stroke-width="2" stroke-miterlimit="10"><ellipse transform="rotate(-73.811 130.184 35.526)" cx="130.2" cy="35.5" rx="27.4" ry="18.4"/><path d="M121.5 8.8s11.4 6.9 27.6 5.9m-31.5-2.2s20.3 13.3 32.9 5.6m-35.5-.8s22.1 14.6 36.6 4.9m-32.3 38.1l-1.8 7.2 10.2 2.3 2.5-8.1"/><path d="M103.2 66.2s18.2-.3 36 7.9l-12.7 74s-26 3.8-41.8-7.5l18.5-74.4z"/><path d="M103.2 66.2L69.3 84.7l-4.5 45.6h8.3l7.1-36m17.4-5.7L68 98.2"/><path d="M64.8 130.3l-5.1 12s8.8 19.5 9.1 18.8c.3-.7 5.8-5.5 5.8-5.5l-2.4-14.8 4.7 2.8 3.5-4.6-7.4-8.9m66.2-54.8s2.2 35.8 37.4 48.1l-2.9 6.9s-30.6 1.3-38.8-30.6m45.8 32.5c-4.3-1.2-7.5-2.1-7.5-2.1m3.9-6.3l10.5-2.4 1.3 4.6-7.6 1.4"/><path d="M183 122.4c.2-.9 5.9-14.4 5.9-14.4l13 5.7-13.9 33-12.3-4.6 6.6-15.5"/><path d="M200.7 116.5l3.1 1.8-12.9 33.6-13.8-5.2 1.7-3.5m21.9-16.8h5.7l-4.5 11.6s-1.8-.5-4.6-1.3m-112.6 3.9L76.5 256H84l22.3-107.3m20.2-.6l3.7 102.5h-7.8l-14-102.5M76.5 256l-12.7 24.1 25.4 1L84 256m38.4-5.4l13 14.2 15.3-7.9-20.5-6.3"/><ellipse transform="rotate(-81.628 240.34 166.31)" cx="240.3" cy="166.3" rx="22" ry="16.1"/><path d="M209 182.8c.7-1.4 5-9.9 14.9-14.1m31.8 3.7c7.3 5 11.4 11.6 12.4 13.4"/><path d="M209.8 181.3s-18.2 37.8 23.6 38.9V213s-19-2.6-20.7-18m55.3-9.2s16.4 39.1-23.5 34.5l-1.8-8.2s15.1-.5 23.3-12.7M233.3 213s3.1-2.5 9.4-.9m-9.4 8.2s3.5 3.7 10.6 0"/><path d="M260.2 219.1c-3.5 14.6-6.7 28.4-6.7 28.4H229s-4.5-14.5-9.3-29.7m-6.9-3.4s.5 30.7 14.9 31.9"/><path d="M229.8 247.5l-19 12s22.4 3.2 22.5 3 7-15 7-15l-1.2-25m25.3-4.6s-1 24.6-10.8 28.9m-13.3 1.5l9.9 15.8 17.8-8.5-14.6-8.1"/></g></svg>