<svg version="1" xmlns="http://www.w3.org/2000/svg" width="288" height="288"><path d="M82.1 134.2c-.8-1-1.7-2-2.4-3.1-1.2-1.8-1.8-3.7-2.1-5.7-5.2 2.3-10.7 4.4-16.3 5.9l-7.6 13.5s14.3-2.5 28.9-8.6c-.4-.6-.5-1.3-.5-2zm9.1-15.8c1.4 1 2.7 2.2 3.5 3.7 1.6 1.6 3.2 3.4 3.9 5.4 1.5-1 2.9-2.1 4.2-3.3l4.9-16.4s-6.6 5-16.5 10.6z" fill="#27AAE1"/><g fill="none" stroke="#000" stroke-width="2" stroke-miterlimit="10"><path d="M101.2 92l-3.9-1c-6.4-1.7-10.2-8.3-8.4-14.7L93 61c1.7-6.4 8.3-10.2 14.7-8.4l3.9 1c6.4 1.7 10.2 8.3 8.4 14.7l-4.1 15.3c-1.7 6.4-8.3 10.2-14.7 8.4z"/><path d="M90.4 70.7s5.8 2.9 10 2.6c4.2-.3 9.5 1.5 9.8 3.2.3 1.7 6.7 3.4 6.7 3.4M91.8 65.4s-4.1-1.4-5.3 2.3c-1.2 3.7 2.2 6.4 2.2 6.4"/><path d="M101.4 99.4c6.2 1.1 12.9 1.2 19.6-.4 0 0-1.9-13.2 1.9-24.9s5.8-26.2-9.5-29.6c0 0-22.5-10.8-36.1 20.7 0 0-8 17.9-9.5 18.8 0 0 5.8 4.7 14.7 9.1"/><path d="M93.4 89.1l-3 5.6 10.2 5.3 1.6-7.7"/><path d="M94.2 150.1c-1.4 4.4-2.4 7.2-2.4 7.2s21.5 21.1 23 60.2c0 0-32.5 10.2-57.3 0 0 0 .8-46.7-8.8-64.2l34.6-61.6s18.6 7 25.2 14.8c0 0-3.7 11.2-7.7 23.1"/><path d="M83.7 102.7s16 38 40.9 41.4l-3.1 21.3s-41-12-44.9-48"/><path d="M123.6 154.1h9l3.5 3.5 10.6-3.1-1-11.3-21.6 1.2m-16.4-34.8s1.8 31 21 32.2m-1.8 12.3l-5.2 9.4m-15.1-58.3s-6.6 5-15.3 10.3m-13.5 7.4c-5.1 2.4-10.2 4.2-14.5 4.7m39.5-3.4s-1.7 1.3-4.6 3.3m-15 8.5c-8.3 3.9-18.5 7.5-29.4 8.4m14.1 76.8l1.4 16.1H74l2-15.2m20-.8l3.5 16h5l1.6-17.6m-36.8 17.6c-.2 2 19.3 14.7 19.3 14.7l7.5-10.3-22.1-4.4m25.5 0l16.1 12 10.6-8.5-22.7-3.5"/><ellipse transform="rotate(-72.656 178.852 151.187)" cx="178.9" cy="151.2" rx="15" ry="10.6"/><path d="M186.3 159.8s12.8 18.6 12.8 54.3c0 0-18.8 7.8-35 0 0 0 7.1-11.8 8.6-30.1m14.1-14.9s-24.3 11.3-41.5-14m-5.7 1.8c4.3 8.7 19.2 33.9 43.2 25.2m-36.1-27.6s14.1 15.2 25.4 11.2m-29.3-22.6l-4.5-6-9.7 2.5s.3 2.8.5 5.3m43.7 27.1c-.2-2.5-.4-5.1-.9-7.8m-6.4 51.4L152 230.9s5.2 5 15 4.1"/><path d="M177.1 217.5l-13 22.6s33.5 1.5 54.5-15.5v-3.8l-29 4 9.5-10.8"/><path d="M216.2 221.2c-.1-1.1 1.4-5.6 1.4-5.6l18.8 9.8-14 3.1-4.9-3.1"/></g></svg>