<svg version="1" xmlns="http://www.w3.org/2000/svg" width="288" height="288"><g fill="#27AAE1"><path d="M208.3 45.9s17.8 19.6 11.9 37.4c0 0 10.1-10.1 4.7-23.4-5.4-13.4-16.6-14-16.6-14zm-16.4 148.5l1-34.9h-3.4l-.2-13.8 14.3.4c.4-1 1.2-1.8 2.3-1.9 1.1-.2 2.3-.3 3.4-.4.6-.7 1.5-1.2 2.7-1.2h1.6c1.1-.1 3.4-.6 4.1-2.1h-1.5l-30.7 3.7 1.9 50.3-20.1.6 1.4 2.7-12.6 3.2s-.2 3.9 0 3.9 8.7 4.2 8.7 4.2L158 219s3.4 11.7 13.5 11.1c10.1-.6 17.2-2.6 17.2-2.6s4.6-4.6 4.6-5.2c0-.6-1.2-4.8-2.7-6.3s-4.2-4.8-4.2-4.8l8.8-3.7 3.7-3.8-10.2-5.5 3.2-3.8zm45.2-90.5c-4.6-15.7-8-22.2-8-22.2l-3.2 1.6.5.9s9.7 28.1 4.4 54.5l-6.7.8c-.4 1.8-1 3.5-1.8 5.1-.4.8-.8 1.4-1.3 2l16.2.4c-.1 0 4.5-27.4-.1-43.1z"/><ellipse cx="119.1" cy="223" rx="24.9" ry="1.9"/><path d="M112.7 147c-.2-.2-.3-.4-.4-.7-4 3.8-8.6 7.4-13.7 10.5l.1 12.8s9-4.3 18.8-14.2c-2.4-2-3-6.1-4.8-8.4zm21.9-32.6s-2.9 7.2-9 16.2c.9.4 1.7 1.2 2.3 2.5 1 2 1.5 3.2 3.2 4.6 2.3-4 4.4-8.5 6.1-13.3l.8-3.5v-5.1l-3.4-1.4z"/></g><g fill="none" stroke="#000" stroke-width="2" stroke-miterlimit="10"><path d="M130.7 102.2l-3.9-1c-6.4-1.7-10.2-8.3-8.4-14.7l4.1-15.3c1.7-6.4 8.3-10.2 14.7-8.4l3.9 1c6.4 1.7 10.2 8.3 8.4 14.7l-4.1 15.3c-1.7 6.3-8.3 10.1-14.7 8.4z"/><path d="M119.9 80.8s5.8 2.9 10 2.6c4.2-.3 9.5 1.5 9.8 3.2.3 1.7 6.7 3.4 6.7 3.4m-25.1-14.5s-4.1-1.4-5.3 2.3c-1.2 3.7 2.2 6.4 2.2 6.4"/><path d="M129.2 110c6.2 1.1 14.6.7 21.2-.9 0 0-1.9-13.2 1.9-24.9s5.8-26.2-9.5-29.6c0 0-22.5-10.8-36.1 20.7 0 0-8 17.9-9.5 18.8 0 0 5.8 4.7 14.7 9.1"/><path d="M121.3 97.8l-2.7 7.7 10.6 4.5 2.7-7.6"/><path d="M138 175.6v34H42.2l14.7-37.4 42.3 8.4s-4.7-34 8-78.7c0 0 22.8 6 30.8 13.7v30.1"/><path d="M117.8 116.9s21.3 40.4 42.6 42.9l-7.6 26.8s-46.8-26.8-44.1-59.1m49.9 38.7l6.5-1.1 8.5 8.7-6 6.3-6.2-4.8-5.3-.1"/><path d="M167.3 167.4c1.6-2.3 6.3-7.9 6.3-7.9l7 9.3-8.1 3.8m-11.1 2.7c-.7 1-6.4 6.2-6.4 6.2l9.8 8.2 2.7-9.5m-34.3-68.1s-3.2 7-8.5 15.3m-12.8 16.7c-4.1 4.2-8.6 7.7-13.3 9.7m39.4-32s-2.1 6.9-6.9 15.7M118 155.7c-5.3 5.6-11.7 10.6-19.4 13.9m-44.9 10.7s-5.6-3.1-6.1-1.6-15.5 23.5-15.5 23.5h13m198.3-137l-6.3 82h6.3l11.7-82z"/><path d="M246.1 147.2l-57.5-1.5 1 13.7 56.5-2.7zm-51 12l4 48.2h3.8v-48"/><path d="M243.4 156.8v49.9h-6.3l-2.4-49.5m-31.8 22.2h32.9m-32.9 6l33.1-1"/><ellipse transform="rotate(-12.104 212.45 65.39)" cx="212.5" cy="65.4" rx="13.4" ry="20"/><path d="M197.6 51.2s9.8.5 19.8-5.8m-21 9.5s17.6 1.5 23.1-7.8m-23.1 11.8s19.2 1.8 25.2-9.5m-5 35.5l.8 2.7m4.6-5.9l1.3 3.2m-5 51.1c-2.9.3-4.9.6-4.9.6s9.6-14.7-.9-44.9c0 0 15.9-10.2 16.7-10 .8.2 12.1 19.1 9 52 0 0-6.8.8-13.3 1.5"/><path d="M225.6 92.7l-8.2 49.2-12.8 1.3s-.3 1.2-.7 2.6m17.7 1.4l10.3-43.3"/><path d="M213.4 136.6l-32.8.7 6.8 57.1h4.5l1-35"/><path d="M187.4 194.4c-2 .3-19.8 7.8-19.8 7.8l13 5.2 11.3-13.1"/><path d="M187 190.9l-22.2 1.5 7.6 7.8"/><path d="M169.1 196.9s-13.6 1.6-15.1 2c-1.5.4-2.5 5.8-1.8 6.4.7.7 10.5 4.3 10.5 4.3s-8.8 6.2-8.8 7.3 7.8 13.7 19.7 13.2c11.8-.5 17.2-2.2 18.3-3.3 1.2-1.2 2.3-6.7 0-9.7s-6.5-6.3-6.5-6.3 8-2 9.7-3.3c1.8-1.3 3.8-3 3.7-3.8s-10.2-5.5-10.2-5.5"/><ellipse cx="119.1" cy="222.3" rx="26.5" ry="3.3"/><path d="M92.6 222.3s5.2 15.7 10.8 18.3c5.7 2.7 11.7 2.8 11.7 2.8s7.7-.5 8.2 0 13.3-3.3 13.3-3.3 7.7-5.8 9-17.8"/></g></svg>