<svg version="1" xmlns="http://www.w3.org/2000/svg" width="288" height="288"><path fill="#27AAE1" d="M168.8 93.2l-49 54.9-1 20.2 32.4-34.9c-.1-1 .1-2 .6-2.9.7-1.2 1.9-2 3.1-2.7.6-.4 1.3-.5 1.9-.5l2.9-3.2c-.3-.2-.5-.5-.7-.9-1.1-2.3-2-4.8-2.6-7.2-.4-1.6-.8-3.4-.7-5-.5-1.7.2-3.7 2.5-4.3.3-.1.5-.1.8-.2 3.4-1.5 8.3-.2 11.3 2.2l-1.5-15.5z"/><g fill="none" stroke="#000" stroke-width="2" stroke-miterlimit="10"><path d="M152.9 79.8h-13.3c-6.6 0-12-5.4-12-12V37.3c0-6.6 5.4-12 12-12h13.3c6.6 0 12 5.4 12 12v30.4c0 6.7-5.4 12.1-12 12.1z"/><path d="M127.6 56.2s10.2.8 14.8-.7 5-.8 9.7.7c4.7 1.6 12.8.2 12.8.2m-37.3-8.2s-9 4.7 0 11m37.3-11s8.7 7.2 0 11"/><path d="M130.1 90.2c-11.4-.7-25.2-7.3-25.2-7.3 3.5-7.8 6.7-33.3 6.7-33.3 1.7-44.5 34.1-35 34.1-35s32.4-9.7 27.9 33.6c0 0 3.5 30.1 12.8 35.6 0 0-18.8 7.4-26.5 5.7"/><path d="M141.7 79.8l-.8 8.1h11.3l-1.1-8.1m19.2 28.9c-.9-10.3-1.5-16.8-1.5-16.8-19.1-7.5-46.9 0-46.9 0s-2.3 117.5-11.3 143.1c0 0 36.7 25.3 71.3 0 0 0-3.6-39.1-7-76.4"/><path d="M121.9 91.9s-32.6 12.8-48.3 11.4l6.7 44.7 41-35.6m-47.6-7.5l-8.5-1.5-3.5 9 3.5 1.5 5-5.3"/><path d="M58.7 119.7c1.1 2.8 1.6 5.8 3.6 8.9l-5.8 9 19.6-1.9-8.3-8.9s2.6-9.9 1.5-16.8m.4-6.1c.5-2.1 3-15.3-9.6-24.1 0 0-9.7 8.2-6.4 25.8"/><path d="M64.5 104.9s-13.1-.3-13.1 0 2.8 14.8 3.8 15c1 .2 13.2-3 13.2-3l-.9-5.8m1 8.9h7.6m88.8-29.3l-45.1 54.4m31.7-12c-15 16.1-33.2 35.7-33.2 35.7m12.8 75.5c.6 7.2 1.2 15 1.2 15h4.8s1.2-7.4 2.2-13.9m14.1.7c.7 6.4 1.4 13.3 1.4 13.3h6s.4-8 .8-15m-29.3 14.9l-23.5 12.3 23.5 3.2 4.8-15.5"/><path d="M154.8 259.3l1 17 21.8-4.7-16.8-12.3m8-167.4s11.7 6.3 24.5 18.3m-12.4 9.9c.2 0 .4 0 .6-.1 3-.3 5.8-.6 8.6-.7m20.2 2.3c2.2.9 3.5 2.1 3.7 3.5.6 4.8-13.1 10.4-30.4 12.4s-31.9-.2-32.5-5.1c-.3-2.4 2.9-5 8.4-7.2"/><path d="M151 132.5s3.3 30.8 35.4 27.3c7.9-.9 13.5-3.4 17.6-6.7m-38-15s-17-28.4-7.1-32.3c9.9-3.9 20.1 11.6 29 23.6"/><path d="M186.4 137.2s6.4-41.3 17.4-41.4 4.6 35.3 4.6 35.3m-48.5-14.4c.2-.2 3.7-5.1 8.9-5.5m-2.1 19.7s4.4-6 10.7-6.2m19-16.6s5.8-.9 11.4 2.2m-15.3 13.3s7.1-.7 13.1 2.4m6.4 15.6c3.1-8.4 1.9-16.5 1.9-16.5"/><path d="M213.7 141.7l-12.2-2.6-2.2 11.6 9.8 6zm-12.7.2l6.9 2.5m-7.3 2.4l6.4 2.6"/></g></svg>