<svg version="1" xmlns="http://www.w3.org/2000/svg" width="288" height="288"><path fill="none" stroke="#000" stroke-width="2" stroke-miterlimit="10" d="M79.9 113.3l4.3-3.6 4 2.7 7.3-2.7 5.8 2.7 7.4-1.3s4.4 1.9 5.3 1.3 6.2 0 6.7 0 7.8-1.3 7.8-1.3l4.9 1.4 13.6-2.2 8.9 3.4 13.5-5.5 16.1 5.5 8.3-1.3 14.6 1.3s.3 66.2-64.2 64.7c-62.6-1.3-64.3-65.1-64.3-65.1z"/><path fill="none" stroke="#000" stroke-width="2" stroke-miterlimit="10" d="M105.6 111.6l.8 6.3 5.3 8.7 6.2 2 7.9 1.7 7 4.2 3.8 8.6 9.3 3.9v8l-.9 8.5 7.3 6.9h5.6l6.1-5.5 6.6-7 1.1-8.3 3.2-8.6-1.7-7.7-6.2-1.4-5.9-2.9-2-9.7-6.4.3-7.6 2-1.8 5.8-.2 4.1-4.2.4-5.5-6.5-6.2.9-4.1-7.4-.6-6.5m69.7 0l-.6 7.8 2 7.2 3.3 3.6 1 8.1 4.4 3.3"/></svg>