<svg version="1" xmlns="http://www.w3.org/2000/svg" width="288" height="288"><path d="M128.9 170.5l2.2 12.3-9.8 8.6 9.8 4 5.3-12.6v-12.3h-7.5z"/><path d="M125.7 186.3l1.1-15.2c-1.7.6-3.4.9-5.1 1.1l1.3 14h2.7zm30.7-16.6c-2.9.1-5.9.3-8.8.5l.8 12.7 4 12.6 9.3-3.1-6.4-9.5 1.1-13.2zm4.4-.2l2.4 16.9h3l.4-17c-2 0-3.9.1-5.8.1z"/><path fill="none" d="M119.8 166.6c20.3 2.2 40.8 2.4 61.3 2.6-10.9 1.1-21.8 2.2-32.7 3.6-8.7 1.2-20.2 1.4-26.9 7.9 19.1.1 38.4.2 57.2 3.7-18.6 6.6-38.8 2.2-57.8 6.2 10.6 2.3 21.3 4.2 32.1 5.5"/></svg>