<svg version="1" xmlns="http://www.w3.org/2000/svg" width="288" height="288"><g fill="#27AAE1"><path d="M142.4 83s-10.6 12.8 0 26.7c0 0-11.3-4-8.3-16s8.3-10.7 8.3-10.7zm-10.3 31.1c-.7 1-6.5 22.8-6.2 36l-6.5-1s6.3-33.7 10-35c3.7-1.3 2.7 0 2.7 0z"/><path d="M127 114.9l-9.3 19.6 3.9.6 7.8-21zm5.2 37.6c0 .4 1.9 30.3 1.9 30.3L122 194s10.2 2.7 10.2 2c0-.7 4.5-11.5 4.5-13.2V155l4-2.5h-8.5zm10.9 0l3.9 3.5 1.6 27.8 4.8 12.8 8.5-1.6-8.5-12.2-.9-30.3z"/></g><g fill="none" stroke="#000" stroke-width="2" stroke-miterlimit="10"><ellipse cx="143" cy="96.1" rx="8.9" ry="13.6"/><path d="M136.4 84.3s6.7 2 12.7 0m-15 2.1s9.5 2.5 17 0m-17.9 2.4s10.5 3.2 18.8.7m-12 20.3l-1 3.3 8.1.1-1.5-4"/><path d="M129.4 114.1s13.6-2.2 26.1 0c0 0 10 10 9.1 35.5 0 0-25.5 6.3-44.5 0 0 .1.7-21.5 9.3-35.5zm0 0l-5.1 1.2s-8 12.1-9.6 18.9"/><path d="M121.6 135.1l-11.1-1.8v12.2s4.8.9 5.1.6 5.1-5.8 5.1-5.8l.9-5.2zm33.9-21l6.2 1.3s8 12.1 9.6 18.9"/><path d="M164.4 135.1l11.1-1.8v12.2s-4.8.9-5.1.6-5.1-5.8-5.1-5.8l-.9-5.2zM112 145.9c.1 0 1.1-6.1 1.1-6.1m2.5 6.5l1.3-5.8m54.5 5.4l-2.6-6.1m5.1 5.5l-1.2-6m-46.8 12.5l5.5 31h5.3v-26.9l4-3.4m3.8 0l2.5 3.5 1.6 26.8h6.9l2.8-31.9m-26.9 31.9l-9.8 8.6 9.8 4 5.3-12.6m11.9 0l4 12.6 9.3-3.1-6.4-9.5m-31.3-68.2l-.8-5.9s7.2-.3 15.2-.6m8.8-.3c6.6-.3 12.1-.5 12.1-.5v7.7m-49.9 31.9v4.5l9.4-.1.7-4.4zm58.3 4l-.6-4.6 10.7.6-.3 4z"/><path d="M127 158.3c-4.1.1-6.9.2-6.9.2l-1.2-8.2s1-.1 2.7-.1m25.6 7.7c-3.5.1-7.2.2-10.6.3m28.1-10.4c1.5-.1 2.4-.1 2.4-.1v9.8s-4 .1-9.7.2m-36.7.8l2.5 27.8h2.7l1.8-23.9"/><path d="M159.5 158.5l4 27.8h3l.6-28.9"/></g></svg>