<svg version="1" xmlns="http://www.w3.org/2000/svg" width="288" height="288"><path d="M210.8 67s8.1 25.7-2 31.6c0 0 10.1-2.1 9.8-12.6s-3.6-16.9-7.8-19zm5.4 35.5l10.2 43.4s-8.9 4.9-11.7 5.3l17.9-2.6-12.6-46.2h-4.9m7 7.5l12.6 6.1-5.2 19.3-1.3-5.1 2.6-12.9-7.2-1.8zm-.4 40.9l6.7-.9 12.4 43c-11.8-13.9-18.7-41.3-18.7-41.3s9.3 24.8 12.1 31.4c2.8 6.7 16.2 21.7 16.2 21.7l15 8s-4.5 7.8-4.7 8.8c-.2 1-11.8-15-11.8-15-21.5-17.3-33.2-54.9-33.2-54.9m26.4 53.4l.6 4-14.8 9.7 9.2 4.2 9-11.5-1.2-4.9z" fill="#27AAE1"/><g fill="none" stroke="#000" stroke-width="2" stroke-miterlimit="10"><path d="M161.4 99.5c5 9.3 7.8 20.1 7.8 31.5 0 36.4-28.7 65.9-64.1 65.9S40.9 167.4 40.9 131 69.6 65.1 105 65.1c19.9 0 37.7 9.3 49.5 24"/><path d="M59.3 85.7l3.3-.9s1.8.8 2.7.9c.9.2 4.4.2 5-.5.6-.6 2-1.7 2.7-1.7.8 0 2.4-.3 3.3 0s3.2-.4 4.4-.1c1.2.3 5.9.6 7.1-.1 1.2-.7 4.9-2.4 4.9-2.4h2.7s3.8 1.9 4.6 2.4c.8.5 2.3 2.9 2 3.7-.3.8-1.2 4-1.2 4l-.2 5 1.4.9 4.8-1.7 4.7-2.7 3.8-2.3 5.3-.5 1.1 1.1v2.6l-2.7 3.5.8 2.4 3.5 3.5 1.1 2.4 2 3.2v2.3h-11.6s-.8 3.2-.9 3.8c-.1.5-.3 3.1-.3 3.9m-45.5 12.9c-.1-.2-.1-.3-.1-.3h-2.3s-2.6-.2-2.7-.6c-.2-.5-1.1-2.7-1.1-2.7l-2.6-5.3v-2.6s-4 0-4 .5 2 3.2 0 3.6c-2 .5-3 2.3-3.8 1.4-.8-.9-3.3-4.7-3.3-4.7s-2.1-3.6-2.1-4.4c0-.8 1.2-9.9 1.7-10s4.9-2.3 4.9-2.3 2.1-2.7 1.5-3c-.6-.3-3.6-4.5-3.6-4.5m87-21.4s1.2 7.9 1.2 8.5-.3 4.7.9 6.1 3.8 2.1 4.4 2.1c.6 0 1.4.2 2.6 0 1.2-.2 1.8.3 2.7.1.9-.2 3.3-.5 4.1-.5.8 0 2.7.1 2.7.1"/><path d="M137.3 142.2l-57 6.8c-6 .7-11.5-3.6-12.2-9.6l-.6-4.7c-.7-6 3.6-11.5 9.6-12.2l57-6.8c6-.7 11.5 3.6 12.2 9.6l.6 4.7c.7 5.9-3.6 11.4-9.6 12.2z"/><path d="M120.7 144.4c.4 1.1 1 2.1 1.1 2.3.3.5 3.2 3 3.8 3s4.6 1.4 4.6 1.4l4.4 1.2 1.5 2.6v4.7L135 162l-1.7 4.3-1.8 4.1s.2 3-.2 4.4c-.3 1.4 1.7.5-.6 3-2.3 2.6-3.8 4.1-4.3 5-.5.9-3.2 4.3-3.2 4.3l-3 1.5-4.9.9-3.2-.8-3-3.2s-2.6-2.6-2.3-4.9c.3-2.3.5-2.7.6-3.6.2-.9.3-2.3.2-4.9s-.5-4.4-.5-4.4l-.6-2.1-3.5-1.7-.9-.5-3.6-2.6-.2-2.3-.7-2.4-1.1-2.6-4.1-3-4.9-2s-2.2-.2-3.8-.3"/><path d="M96.2 147.1c1.6 1.7 4.5 4.1 4.8 4.1.5 0 3.3-.6 3.3-1.4s-.8-2-.2-3.8v-.1m64-28.6s-4.8 1.4-5.3 1.8-2.6 4.4-2.6 4.4l-4.1 5.6s-2.6 2.6-2.6 3.5v10.6l2 4.1s1.8 1.4 2.3 2.4c.5 1.1.8 3.8.8 3.8s-.2 3 0 3.5 3.6 3.8 3.6 3.8M40.9 128.5l11 4.9s11.3-.8 16.1-1.1"/><path d="M145.5 134.6c.9.4 1.4.7 1.4.7l14.4-5.3 7.7-2.2m-76.3-7.2l3.2 26.5m24.1-2.9v-26.9"/><circle transform="rotate(-6.832 74.77 134.078)" cx="74.8" cy="134.1" r="2.1"/><circle transform="rotate(-6.832 84.268 140.995)" cx="84.3" cy="141" r="2"/><circle transform="rotate(-6.832 86.007 130.765)" cx="86" cy="130.8" r="2.9"/><circle transform="rotate(-6.832 127.302 124.15)" cx="127.3" cy="124.2" r="2.1"/><circle transform="rotate(-6.832 129.056 136.645)" cx="129" cy="136.6" r="2.4"/><circle transform="rotate(-6.832 138.713 128.795)" cx="138.7" cy="128.8" r="2.4"/><ellipse cx="208.9" cy="82.8" rx="9.8" ry="15.8"/><path d="M200.1 69.5s10.1 2.6 15 0m-15.8 3.1s8.1 3.6 18.8.9m-19.9 2.6s8 4.6 19.9 1.2m-12.6 20.4v5.3l7.7-.6-1-4.7"/><path d="M196.6 103.3l23.4-1 12.7 46.8s-17.6 3.4-26.3 2.2l-9.8-48z"/><path d="M196.6 103.3l-34.5-8.2v5.1l36.7 14.2m-36.7-19.3l-4.8-12-4.6 1.8 6.3 14.8 3.1.5m70.6 33.7l9.4-.8-3.1 6.9h-7.7l10.8-28.7-22.1-8.9m3.3 12l15.4 5.9m-7.7-2.2l-3.1 13.3m-19 20.2s12.8 47.3 40 56.2l1.9-2.8s-23.5-23.6-29.1-54.2m9.3-.9s6.5 26.4 10.9 44.6m3 12c.7 3.1 1.2 4.9 1.2 4.9"/><path d="M248.9 207.8l10.3 13.7 6.1-8.8-14.6-7.7m-9.1 3.4l-13.4 7.6 8.6 5.9 9.3-10.5-5-3.6-2.5-5.4"/></g></svg>