<svg version="1" xmlns="http://www.w3.org/2000/svg" width="288" height="288"><g fill="#27AAE1"><path d="M113 24.5S98.2 53.2 116.1 66c0 0-15.1-2.4-14.1-21.9s11-19.6 11-19.6zM99.7 71c.5 1.8 0 63.3 0 63.3l21.3 5.5h-19L94.2 246 88 264.3l-13.2-3.5L91.2 246l1.3-107.8-1.3-1.5 3-65.9 5.5.2z"/><path d="M120 139.9l1 106.1 21 9.3-11.8 10.8-11.9-18.6-5.5-107.7zM93.7 80.6s-20.6 25-16.9 59.3H79s2.1-39.4 14.2-46.9l.5-12.4z"/></g><g fill="none" stroke="#000" stroke-width="2" stroke-miterlimit="10"><ellipse cx="116.1" cy="45.2" rx="14.1" ry="20.8"/><path d="M104.4 28.4s14.3 1.6 21.5-2.1M102 32.5s17.5 3.5 27-1.8M99.7 36s16.9 4.8 30.5 0m-21.7 26.2l-1 9.1m11-5.6v5.6m-24.3-.4s27.2.5 33.9 1.9v66.7s-25.6 1.6-36.9-1.6l3-67z"/><path d="M94.2 70.9s-26.6 14-20.5 69H79s2.8-38.5 14.3-48.6m-20.5 49.4l7.4-.8 6.4 6.3-3.1 3.3 3.1 8.3-15.3-2.6zm2-37.4l8.7 6.4m44.6-36.9c1.4-.2 41.9 2.8 58.4 5.3v5.5l-58.4 2.8m58.4-2.8l3.5 7s4.5-.5 4.5-1.1v-5.9l15-1.5v-6.2l-23 2.2m-94 60.2L91.2 246h5.6l14.3-106.1h1.7l5.5 106.1h5.8l3-106.4M91.2 246l-14.4 12.1 14.4 4.5 5.6-16.6m21.5 0l12.5 16.6 13.2-9.9-19.9-6.7m61.1-134.4L210 94.2l9.2 12.2-25.9 18.5z"/><path d="M195.7 110.5h-2.5l-2.5 1.7 1.6 2.8 4.3-1.8 2 2.3-1.6 1-3.8 1.5m17-17.8l-2.5.3-2.3 1.9 1.9 2.7 4.1-2.4 2.2 2.1-1.5 1.1-3.5 2.1m-16.2 1.5l4.4 9.4m9.9-19.4l5.6 8.9"/></g></svg>