<svg version="1" xmlns="http://www.w3.org/2000/svg" width="288" height="288"><path fill="#FFF" d="M162.1 95.1l-4.8-12-4.6 1.8 6.3 14.8 3.1.5"/><path fill="#27AAE1" d="M210.8 67s8.1 25.7-2 31.6c0 0 10.1-2.1 9.8-12.6s-3.6-16.9-7.8-19zm5.4 35.5l10.2 43.4s-8.9 4.9-11.7 5.3l17.9-2.6-12.6-46.2h-4.9m7 7.5l12.6 6.1-5.2 19.3-1.3-5.1 2.6-12.9-7.2-1.8zm-.4 40.9l6.7-.9 12.4 43c-11.8-13.9-18.7-41.3-18.7-41.3s9.3 24.8 12.1 31.4c2.8 6.7 16.2 21.7 16.2 21.7l15 8s-4.5 7.8-4.7 8.8-11.8-15-11.8-15c-21.5-17.3-33.2-54.9-33.2-54.9m26.4 53.4l.6 4-14.8 9.7 9.2 4.2 9-11.5-1.2-4.9z"/><g fill="none" stroke="#000" stroke-width="2" stroke-miterlimit="10"><ellipse cx="208.9" cy="82.8" rx="9.8" ry="15.8"/><path d="M200.1 69.5s10.1 2.6 15 0m-15.8 3.1s8.1 3.6 18.8.9m-19.9 2.6s8 4.6 19.9 1.2m-12.6 20.4v5.3l7.7-.6-1-4.7"/><path d="M196.6 103.3l23.4-1 12.7 46.8s-17.6 3.4-26.3 2.2l-9.8-48z"/><path d="M196.6 103.3l-34.5-8.2v5.1l36.7 14.2m-36.7-19.3l-4.8-12-4.6 1.8 6.3 14.8 3.1.5m70.6 33.7l9.4-.8-3.1 6.9h-7.7l10.8-28.7-22.1-8.9m3.3 12l15.4 5.9m-7.7-2.2l-3.1 13.3m-19 20.2s12.8 47.3 40 56.2l1.9-2.8s-23.5-23.6-29.1-54.2m9.3-.9s6.5 26.4 10.9 44.6m3 12c.7 3.1 1.2 4.9 1.2 4.9"/><path d="M248.9 207.8l10.3 13.7 6.1-8.8-14.6-7.7m-9.1 3.4l-13.4 7.6 8.6 5.9 9.3-10.5-5-3.6-2.5-5.4"/></g><path fill="none" d="M209.2 66.5c2.6.7 5.2 1.3 7.8 2-3.4 2.6-7.3 4.7-11.3 6.2 5.7.2 11.4.3 17.1.5-5.4 3.1-10.9 6.2-16.3 9.2 5.5-.3 11.1.1 16.4 1.4-13.4 7.3-24.7 10.6-39.7 5.6-8.1-2.7-15.9-6.4-24.3-7.4-1.9-.2-3.9-.3-5.5.5-1.7.8-3 2.8-2.4 4.6 3.6.7 7.4.2 10.6-1.4 1.6 1.2.2 3.8-1.5 4.7-1.7 1-4 1.5-4.8 3.3 2.8.6 5.8.3 8.3-1-1.6 2.4-3.6 4.5-5.8 6.3 4.2 1.2 8.9.9 13-.9 2.4-1.1 4.7-2.7 7.2-3.6 2.6-.9 5.4-1.1 8.1-1.2 13.2-.7 26.6-2.4 39.7-1.7-6.6 2.9-13 6.3-19.1 10 8.3.7 16.6 1.7 24.9 3.2-5.1 3.3-10.3 6.3-15.8 8.9 7 .4 13.9.8 20.9 1.2-6.3 2.6-12.5 5.2-18.8 7.9 5.6-.3 11.2 0 16.7.8-6.4 4.3-13.2 8.2-20.1 11.5 7.9-.1 15.8.3 23.7 1.1-4.6 2.1-9.3 4.1-13.9 6.2-4.7 2.1-9.5 4.3-13.6 7.5 7.6.2 15.3.5 22.9.7-7.1 3.5-14.2 6.9-21.4 10.4 7.7.9 15.4 2 23.1 3.5-6.5 3.7-13 7.4-19.4 11.1 8 1.5 16.2 2.4 24.3 2.8-5.4 2.7-10.7 5.3-16.1 8 8.3.1 16.7.2 25 .4-7 5.1-14 10.2-20.9 15.3 10.8.6 21.7 1.3 32.5 1.9-11.5 4-23.1 8-34.6 12 9.4 1 18.9.8 28.3-.5 4.4-.7 9.4-1.5 13 1.2"/></svg>