<svg version="1" xmlns="http://www.w3.org/2000/svg" width="288" height="288"><path fill="#FFF" stroke="#000" stroke-width="2" stroke-miterlimit="10" d="M200.9 148.9s-.7-5.5-3.2-13.4c-6.1-19.4-22.7-52.9-65.3-51.9-59.8 1.4-61.3 65.3-61.3 65.3.5 0 9.6 2.3 9.6 2.3l12.8-2.3h8.4l7.6 1.1 3.3-1.1h22.5l8.8 1.1 17.5-5.7 15.3 5.8 8.7-1.2h15.3z"/><path fill="none" stroke="#000" stroke-width="2" stroke-miterlimit="10" d="M87.7 103.7l4.7-.9s4.2.5 4.8.9c.6.4 5.3-1.6 5.3-1.6l5.8.8 6.7-.8 6.6-3.3h6.8l4.3 5.5s-.5.9-1.1 4-.6 3-.6 3l-.1 4.3 6.2-1.9 7-5.4 7.4-.4.8 3-2.3 3.8 5 5.8 2.3 8.1-12 1.1-1.2 7.6-4.4 1.4-6 3 .8 7.2M80.7 113l4 6.4-.8 3.8-6.7 2.3v10l4.7 7.1 4.5-1.3v-3.5h4.7v4.1l3.2 7m74.6-55.3l-1 6.8 1.7 7 9.8 3.2 4.8-2.1m13.5 27l-5.8 1.9-8 11.5"/></svg>