<svg version="1" xmlns="http://www.w3.org/2000/svg" width="288" height="288"><g fill="none" stroke="#000" stroke-width="2" stroke-miterlimit="10"><path d="M154.5 89.1c8.8 10.6 14.7 30.5 14.7 41.9 0 36.4-28.7 65.9-64.1 65.9S40.9 167.4 40.9 131 69.6 65.1 105 65.1c19.9 0 37.7 9.3 49.5 24"/><path d="M59.3 85.7l3.3-.9s1.8.8 2.7.9c.9.2 4.4.2 5-.5.6-.6 2-1.7 2.7-1.7.8 0 2.4-.3 3.3 0s3.2-.4 4.4-.1c1.2.3 5.9.6 7.1-.1s4.9-2.4 4.9-2.4h2.7s3.8 1.9 4.6 2.4c.8.5 2.3 2.9 2 3.7-.3.8-1.2 4-1.2 4l-.2 5 1.4.9 4.8-1.7 4.7-2.7 3.8-2.3 5.3-.5 1.1 1.1v2.6l-2.7 3.5.8 2.4 3.5 3.5 1.1 2.4 2 3.2v2.3h-11.6s-.8 3.2-.9 3.8c-.1.5-.3 3.1-.3 3.9m-45.5 12.9c-.1-.2-.1-.3-.1-.3h-2.3s-2.6-.2-2.7-.6c-.2-.5-1.1-2.7-1.1-2.7l-2.6-5.3v-2.6s-4 0-4 .5 2 3.2 0 3.6c-2 .5-3 2.3-3.8 1.4s-3.3-4.7-3.3-4.7-2.1-3.6-2.1-4.4 1.2-9.9 1.7-10 4.9-2.3 4.9-2.3 2.1-2.7 1.5-3-3.6-4.5-3.6-4.5m87-21.4s1.2 7.9 1.2 8.5-.3 4.7.9 6.1 3.8 2.1 4.4 2.1c.6 0 1.4.2 2.6 0 1.2-.2 1.8.3 2.7.1.9-.2 3.3-.5 4.1-.5s2.7.1 2.7.1"/><path d="M137.3 142.2l-57 6.8c-6 .7-11.5-3.6-12.2-9.6l-.6-4.7c-.7-6 3.6-11.5 9.6-12.2l57-6.8c6-.7 11.5 3.6 12.2 9.6l.6 4.7c.7 5.9-3.6 11.4-9.6 12.2z"/><path d="M120.7 144.4c.4 1.1 1 2.1 1.1 2.3.3.5 3.2 3 3.8 3s4.6 1.4 4.6 1.4l4.4 1.2 1.5 2.6v4.7L135 162l-1.7 4.3-1.8 4.1s.2 3-.2 4.4c-.3 1.4 1.7.5-.6 3-2.3 2.6-3.8 4.1-4.3 5s-3.2 4.3-3.2 4.3l-3 1.5-4.9.9-3.2-.8-3-3.2s-2.6-2.6-2.3-4.9c.3-2.3.5-2.7.6-3.6.2-.9.3-2.3.2-4.9s-.5-4.4-.5-4.4l-.6-2.1-3.5-1.7-.9-.5-3.6-2.6-.2-2.3-.7-2.4-1.1-2.6-4.1-3-4.9-2s-2.2-.2-3.8-.3"/><path d="M96.2 147.1c1.6 1.7 4.5 4.1 4.8 4.1.5 0 3.3-.6 3.3-1.4s-.8-2-.2-3.8v-.1m64-28.6s-4.8 1.4-5.3 1.8-2.6 4.4-2.6 4.4l-4.1 5.6s-2.6 2.6-2.6 3.5v10.6l2 4.1s1.8 1.4 2.3 2.4c.5 1.1.8 3.8.8 3.8s-.2 3 0 3.5 3.6 3.8 3.6 3.8M40.9 128.5l11 4.9s11.3-.8 16.1-1.1"/><path d="M145.5 134.6c.9.4 1.4.7 1.4.7l14.4-5.3 7.7-2.2m-76.3-7.2l3.2 26.5m24.1-2.9v-26.9"/><circle transform="rotate(-6.832 74.809 134.092)" cx="74.8" cy="134.1" r="2.1"/><circle transform="rotate(-6.832 84.307 140.991)" cx="84.3" cy="141" r="2"/><circle transform="rotate(-6.832 86.01 130.796)" cx="86" cy="130.8" r="2.9"/><circle transform="rotate(-6.832 127.311 124.193)" cx="127.3" cy="124.2" r="2.1"/><circle transform="rotate(-6.832 129.001 136.6)" cx="129" cy="136.6" r="2.4"/><circle transform="rotate(-6.832 138.706 128.794)" cx="138.7" cy="128.8" r="2.4"/></g></svg>