<svg version="1" xmlns="http://www.w3.org/2000/svg" width="432" height="432"><path fill="none" stroke="#000" stroke-width="9" stroke-miterlimit="10" d="M156.7 58l113.7-35.2 34.9 29.8-26 68.7 42 11.3-42 98.7 32.9 3.8-130.6 174.4-24.9-25.5 20.7-92.6-39.7 20.9-27-25 38-71.3-36.6-25.7z"/><path fill="none" stroke="#000" stroke-width="9" stroke-miterlimit="10" d="M305.3 52.6L196.7 89.8l-48 126.2 54-25.7-64.8 120.6m38.2-18.8l35.7-18.5-30.2 135.9m97.7-288.2l-13.4 33.4 55.4-22.1M156.7 58l40 31.8m82.6 141.5l-9.4 20.8 42.3-17"/></svg>