<svg version="1" xmlns="http://www.w3.org/2000/svg" width="288" height="288"><ellipse transform="rotate(-72.656 142.105 117.936)" fill="none" stroke="#000" stroke-width="2" stroke-miterlimit="10" cx="142.1" cy="117.9" rx="15" ry="10.6"/><path fill="none" stroke="#000" stroke-width="2" stroke-miterlimit="10" d="M149.7 126.5c3.6 5.5 5.9 11.9 7.8 18.1 2.1 7.2 3.5 14.5 4.3 22 .4 3.6 1.9 9.9.7 13.3-1.1 3.3-6 4.6-8.8 6.6-.4.3-.8.6-1.3.6-1 0-1.4-1.3-1.6-2.2-.4 1.2-1.7 2.1-2.9 2-.4 0-.9-.2-1.3-.1-1.6.1-2.3 2.2-3.9 2.6-1-1.3-1.9-2.7-2.9-4-.2-.3-.4-.5-.7-.6-.3 0-.6.2-.9.4-1.4 1.2-2.7 2.5-4.1 3.7-.6-.4-.7-1.2-.9-2-.2-.7-.7-1.5-1.5-1.4-.7.1-.9 1.1-1.4 1.7-.5.7-1.6.9-2.4.6.9-3.1-.5-5.3 0-7.8.3-1.8 1.9-4 2.6-5.7 3-7.5 4.8-15.4 5.5-23.5m.1-12.1c-.2-2.5-.4-5.1-.9-7.8m15 5s-24.3 11.3-41.5-14"/><path fill="none" stroke="#000" stroke-width="2" stroke-miterlimit="10" d="M135.5 132.5c-11.3 4-25.4-11.2-25.4-11.2l1.8-11.9-3.2-3.9v9.3l-2.5-4.9-4.5-6-9.7 2.5s.3 2.8.5 5.3l3 6.8 7.5 5.2c4.3 8.7 19.2 33.9 43.2 25.2m-5.8 35.4l-13 22.6s33.5 1.5 54.5-15.5v-3.8l-29 4 9.5-10.8m-33.6 1.6l-13.5 15.3s5.2 5 15 4.1"/><path fill="none" stroke="#000" stroke-width="2" stroke-miterlimit="10" d="M179.6 187.9c-.1-1.1 1.4-5.6 1.4-5.6l18.8 9.8-14 3.1-4.9-3.1m-60.6-46.8v-5.2h4.5v-4.2l3.1-3.2"/></svg>