<svg version="1" xmlns="http://www.w3.org/2000/svg" width="432" height="432"><ellipse fill="none" stroke="#000" stroke-width="2" stroke-miterlimit="10" cx="216.1" cy="97.2" rx="15.4" ry="24.5"/><path fill="none" stroke="#000" stroke-width="2" stroke-miterlimit="10" d="M221.1 120.4v7h-9.4v-6.8m24.7 6.8H195l4.2 81.8h32.3z"/><path fill="none" stroke="#000" stroke-width="2" stroke-miterlimit="10" d="M195 127.4l-15.7 38.1 3.5 50.6h6.3l1.9-46.2 5.4-15.5"/><path fill="none" stroke="#000" stroke-width="2" stroke-miterlimit="10" d="M189 216l4.5 7.8-3.5 2-3.5-3.7-1 16.4-7.2-6.8 4.4-15.7m8.3-46.1l-11.7-4.4m56.8-38.1l15.8 38.1-3.5 50.6H242l-1.9-46.2-5.3-15.5"/><path fill="none" stroke="#000" stroke-width="2" stroke-miterlimit="10" d="M242.2 216l-4.5 7.8 3.4 2 3.6-3.7.9 16.4 7.3-6.8-4.4-15.7m-8.4-46.1l11.8-4.4m-20.4 43.7l-2.6 136.5h-6.7l-6.8-136.5-7.5 136.5h-7.7l-1-136.5m29.7 136.5l20 8.5-12.8 6.3-13.9-14.8m-14.3 0l-10.8 14.8-13-6.4 16.1-8.4"/></svg>