<svg version="1" xmlns="http://www.w3.org/2000/svg" width="432" height="432"><path fill="none" stroke="#000" stroke-width="2" stroke-miterlimit="10" d="M50.1 103.7s-18.9 5.2-21.8 18.5c-2.8 13.3-8 23.7-8 23.7S8.4 168.1 8.9 181.3c.5 13.3 9.5 38.7 9.5 38.7s18.5 32.5 31.7 38.5c13.3 6 18.5 3.1 27 5.3s36.4 0 36.4 0 38.8 16.4 55.4 15.9 69.5-.9 77.1 0 32.2 0 32.2 0 63.9-12.3 85.2-22.5c21.3-10.2 48.8-36.9 48.8-37.2 0-.4 8.5-34.9 8.5-34.9s-5.2-36.8-10.9-45.6c-5.7-8.8-11.9-13.6-11.9-13.6l-15.5-19.4s-27.9-30.3-51.1-32.7c-23.2-2.4-37.4-2.8-37.4-2.8h-37.4s-32.1 2.4-32.9 2.8c-.7.5-66.8-12.8-82.8-2.8s-26.4 11.4-26.4 11.4-40.7 7.4-42.1 10.1c-1.4 2.7-22.2 11.2-22.2 11.2zm66.5 188.7s2.6-6.2 8.3-6.9c5.7-.7 10.4-.9 10.6 0s7.1 6.2 4.3 11.4-6.9 8-6.9 8l-16.3-1.7v-10.8zm-8.5 28.1s-10.6-1.9-12.1 3.3c-1.4 5.2-1.9 11.6-1.7 12.3s8.3 5.2 11.6 4.7 8.5-3.5 8.5-3.5l2.1-6.8c.1 0-.9-10-8.4-10zm-23 34.1s-11.1-1.9-12.5 5.7c-1.4 7.6 2.4 16.3 9 16.3s10.6-4.7 11.1-5.4c.5-.7 1.8-8.3 1.6-9.5-.2-1.2-5.2-6.9-9.2-7.1z"/><ellipse fill="none" stroke="#000" stroke-width="2" stroke-miterlimit="10" cx="86.7" cy="149" rx="11" ry="16.3"/><path fill="none" stroke="#000" stroke-width="2" stroke-miterlimit="10" d="M82.6 164.1v6.7m7.7-6.4v5.8m10.3 44.9l.6-44.9-28 .6 1 44.3m27-44.9l12.3 27.7 1.3 17.2"/><path fill="none" stroke="#000" stroke-width="2" stroke-miterlimit="10" d="M100.9 190.5l4.6 9.6 1.1 15.6m-.8-15.7l7.3-2.1m-40.2-27.7l-12.3 27.7-1.3 17.2m14.3-24.6l-5 9.6-1.1 15.6m.8-15.7l-7.3-2.1"/><ellipse fill="none" stroke="#000" stroke-width="2" stroke-miterlimit="10" cx="151.3" cy="108.8" rx="11" ry="16.3"/><path fill="none" stroke="#000" stroke-width="2" stroke-miterlimit="10" d="M139.9 130.7l-10.5-2.3 2.1-15.4c3.9-28.8 18.9-24.1 18.9-24.1l1.1.3 1.3-.3s15-4.7 18.9 24.1l2.1 15.4-10.5 1.7m-16.1-6.1v6.7m7.7-6.4v5.8"/><path fill="none" stroke="#000" stroke-width="2" stroke-miterlimit="10" d="M166.4 176.7l-3-16.8 2.4-29.8-28 .6 3.4 29.2-3.7 16.8"/><path fill="none" stroke="#000" stroke-width="2" stroke-miterlimit="10" d="M165.8 130.1l12.3 27.7 1.3 17.1m-15.2-26.6l5.9 11.7 1.1 15.6m-.8-15.7l7.3-2.1m-40.2-27.7l-12.3 27.7-1.3 17.1m16-27.2l-6.7 12.3-1.1 15.6m.8-15.7l-7.3-2.1"/><ellipse fill="none" stroke="#000" stroke-width="2" stroke-miterlimit="10" cx="208.8" cy="178.4" rx="11" ry="16.3"/><path fill="none" stroke="#000" stroke-width="2" stroke-miterlimit="10" d="M204.7 193.6v6.7m7.6-6.4v5.8m10.3 44.8l.7-44.8-28.1.6 1.1 44.2m27-44.8l12.3 27.7 1.2 17.1M223 220l4.5 9.6 1.1 15.6m-.8-15.8l7.4-2m-40.3-27.7l-12.3 27.7-1.2 17.1"/><path fill="none" stroke="#000" stroke-width="2" stroke-miterlimit="10" d="M195.7 220l-5 9.6-1.1 15.6m.8-15.8l-7.3-2"/><ellipse fill="none" stroke="#000" stroke-width="2" stroke-miterlimit="10" cx="265" cy="110.5" rx="11" ry="16.3"/><path fill="none" stroke="#000" stroke-width="2" stroke-miterlimit="10" d="M253.5 132.3L243 130l2.1-15.4C249 85.8 264 90.5 264 90.5l1.1.3 1.3-.3s15-4.7 18.9 24.1l2.1 15.4-10.5 1.7m-16-6v6.6m7.6-6.4v5.8"/><path fill="none" stroke="#000" stroke-width="2" stroke-miterlimit="10" d="M280 178.4l-2.9-16.9 2.4-29.8-28.1.6 3.4 29.2-3.7 16.9m28.4-46.7l12.3 27.7 1.2 17.2"/><path fill="none" stroke="#000" stroke-width="2" stroke-miterlimit="10" d="M277.9 150l5.8 11.6 1.1 15.6m-.8-15.7l7.3-2.1m-40.2-27.7l-12.3 27.7-1.2 17.2m15.9-27.3l-6.6 12.3-1.1 15.6m.8-15.7l-7.4-2.1"/><ellipse fill="none" stroke="#000" stroke-width="2" stroke-miterlimit="10" cx="323.9" cy="149" rx="11" ry="16.3"/><path fill="none" stroke="#000" stroke-width="2" stroke-miterlimit="10" d="M319.8 164.1v6.7m7.6-6.4v5.8m10.3 44.9l.7-44.9-28.1.6 1.1 44.3m27-44.9l12.3 27.7 1.2 17.2m-13.8-24.6l4.5 9.6 1.1 15.6m-.8-15.7l7.3-2.1M310 170.2l-12.3 27.7-1.2 17.2"/><path fill="none" stroke="#000" stroke-width="2" stroke-miterlimit="10" d="M310.8 190.5l-5 9.6-1.1 15.6m.8-15.7l-7.4-2.1"/></svg>