<svg version="1" xmlns="http://www.w3.org/2000/svg" width="648" height="432"><path fill="none" stroke="#000" stroke-width="2" stroke-miterlimit="10" d="M431.3 185l-32-22.2-39-8.5-28-10.6-42.4-10.4h-29.1l-3.5 8.4 10.5 9.6 33 16.5 43.5 17.2h34l33 14.8"/><path fill="none" stroke="#000" stroke-width="2" stroke-miterlimit="10" d="M257.3 141.7l14.5 43.3v9.5l-14.5 22.3 2.5 22-20 13-21.5 47m62.3-141.1v28.9l14.5 33.7-8.6 22-12.5 6.3-4.7 48m46.3-5l-3-34 14.7-15.3-7-35.3 9.4-10.2v-17.6m29.5 31.9v22.5s-12.5 2.8-12.5 4-9.5 26.5-9.5 26.5"/></svg>