<svg version="1" xmlns="http://www.w3.org/2000/svg" width="249.7" height="133.3"><path fill="none" stroke="#000" stroke-width="2" stroke-miterlimit="10" d="M11.6 50.6h230M32.2 15.3L40 42.8H24.3zm0 27.5V51M124 25.4l5.7 19.7h-11.3zm0 19.7V51m29.6-36.4l7.9 27.3h-15.8zm0 27.3v8.2M88.7 74.7l11.5 40.2H77.1zm0 40.2v12m46.9-69.4L149 104h-26.8zm0 46.5v13.9m41.2-58.3l9.3 32.6h-18.7zm0 32.6v9.7m26.6-42.7l7.4 25.7H196zm0 25.7v7.7M61.7 53.8l9.2 32.1H52.4zm0 32.1v9.7m19.5-69.8L87.6 48H74.8zm0 22.2v6.6m134.6-27.7l5 17.5h-10zm0 17.5v5.2m-26.4-16.4l3.9 13.7h-7.8zm0 13.7v4"/></svg>