<svg version="1" xmlns="http://www.w3.org/2000/svg" width="648" height="432"><path fill="none" stroke="#000" stroke-width="2" stroke-miterlimit="10" d="M194.6 233.7v-9.2m-.2-4.5v-9.4m0-4.4v-9.4m.2-4.4v-9.3m0-4.5v-9.3m-.2-4.4v-9.4m3.9 9.4v-9.4m0 50.7v-9.4m0 23.2v-9.4m0 23.2v-9.4m0-32v-9.3m0-4.5v-9.3m-4.9-13.8h5.9m4.1 68.9v-7.9m-.2-3.9v-8.1m0-3.8v-8.1m.2-3.8v-8.1m0-3.8v-8.1m-.2-3.8v-8.1m3.9 8.1v-8.1m0 43.8v-8.1m0 20v-8.1m0 20v-8.1m0-27.6v-8.1m0-3.8v-8.1m-4.9-10.9h5.9M457.7 232v-9m.2-4.4v-9.1m0-4.3v-9.1m-.2-4.3v-9.1m0-4.4v-9.1m.2-4.3v-9.1m-3.9 9.1v-9.1m0 49.4v-9.1m0 22.6v-9.1m0 22.5V223m0-31.2v-9.1m0-4.4v-9.1m4.9-13.4H453m-4.1 69.4v-7.9m.2-3.9v-8.1m0-3.8v-8.1m-.2-3.8v-8.1m0-3.8v-8.1m.2-3.8v-8.1m-3.9 8.1v-8.1m0 43.8v-8.1m0 20v-8.1m0 20v-8.1m0-27.6v-8.1m0-3.8v-8.1m4.9-11.9h-5.9M193.6 233l8.6.1m2.5-.1l8.6.1m2.5-.1l8.7.1m2.5-.1l8.6.1m2.5-.1l8.6.1m2.6-.1l8.6.1m2.5-.1l8.6.1m2.5-.1l8.6.1m2.5-.6l8.6.1m2.6-.1l8.6.1m2.5-.1l8.6.1m2.5-.1l8.6.1m2.6-.1l8.6.1m2.5-.6l8.6.1m2.5-.1l8.6.1m2.6-.5h8.6m2.4 0h8.7m2.5 0h8.6m2.5 0h8.6m2.6 0h8.6m2.5-.5h8.6m2.5 0h8.6m2.6 0h8.6m2.5-.1l8.6.1m-257.1-6.6h8.6m2.7 0h8.6m2.6 0h8.7m2.7 0h8.6m2.6 0h8.6m2.7 0h8.6m2.7 0h8.6m2.7 0h8.6m2.7 0h8.6m2.7 0h8.6m2.7 0h8.6m2.6 0h8.6m2.7 0h8.6m2.7 0h8.6m2.7 0h8.6m2.7 0h8.6m2.6 0h8.7m2.7 0h8.6m2.6 0h8.6m2.7 0h8.6m2.7 0h8.7m2.6 0h8.6m.9 0h7.1"/></svg>