<svg version="1" xmlns="http://www.w3.org/2000/svg" width="432" height="432"><path fill="#27AAE1" d="M318.4 151.7c-53-54.8-102.2 16.8-102.6 17.4-.4-.6-49.6-72.2-102.6-17.4-52.9 54.7 101 182.7 102.6 184 1.6-1.3 155.5-129.3 102.6-184zm-174 63c17.6 3.1 27.3-3.4 36.6-9.7 6.5-4.4 12.7-8.5 21-9.4 20.6-2.3 45.7 22.2 46.7 23.3l-2.8 2.8c-.2-.2-24.7-24.2-43.5-22.1-7.4.8-13.2 4.7-19.3 8.8-9.5 6.4-20.3 13.6-39.5 10.3l.8-4zm99.8 11l-1.6 1.2-1.6 1.3c-.2-.2-15.7-19.2-37.8-16.3-11.1 1.4-15.5 4-19.8 6.4-4.6 2.6-8.9 5.1-20 5.4l-.1-4c10.1-.2 13.8-2.4 18.1-4.9 4.4-2.5 9.4-5.4 21.3-6.9 24.4-3.2 40.8 16.9 41.5 17.8zm29.5 2.1c-18.4 21.8-34.5 28.9-48.7 28.9-14.4 0-27-7.2-38.2-13.7-3.5-2-6.9-4-10.2-5.6-8.2-4.1-15.4-5.2-21.3-3.2-6.7 2.3-9.5 7.7-9.5 7.8l-3.6-1.8c.1-.3 3.5-7 11.8-9.8 7-2.3 15.2-1.2 24.4 3.4 3.4 1.7 6.8 3.7 10.4 5.7 22.2 12.8 47.3 27.3 82.5-15l.6-.7H285l-5.3-3.6-.2-.8c-.1-.3-1.8-8.2-8.1-8-6.3.2-7.6 7.3-7.7 7.6l-.3 1.9-1.9-.2c-.4 0-10.8-1.4-27-20.3-7.2-8.4-19.4-13-32.7-12.4-11 .5-20.6 4.6-25 10.8l-3.3-2.3c5.2-7.2 15.6-11.9 28-12.4 14.5-.7 27.9 4.5 35.9 13.8 11.3 13.2 19.4 17.2 22.8 18.4 1.3-3.7 4.6-8.6 10.9-8.8 7.2-.2 10.8 6.3 11.9 10.4l14.9 10h-24.2z"/></svg>