<svg version="1" xmlns="http://www.w3.org/2000/svg" width="432" height="432"><path fill="#27AAE1" d="M318.4 151.7c-53-54.8-102.2 16.8-102.6 17.4-.4-.6-49.6-72.2-102.6-17.4-52.9 54.7 101 182.7 102.6 184 1.6-1.3 155.5-129.3 102.6-184z"/><path fill="none" stroke="#FFF" stroke-width="2" stroke-miterlimit="10" d="M144 241.1s8.8-17.9 33.5-5.5c24.7 12.4 53.4 40.6 95.3-9.8h18.7l-10.1-6.8s-2-9.8-10.1-9.6c-8.1.3-9.6 9.3-9.6 9.3s-9.8-1.1-25.7-19.6-50.4-16.1-60.8-1.5"/><path fill="none" stroke="#FFF" stroke-width="2" stroke-miterlimit="10" d="M247.4 220.3s-25.2-24.9-45.1-22.7-27.7 24.4-58.2 19.1"/><path fill="none" stroke="#FFF" stroke-width="2" stroke-miterlimit="10" d="M242.6 226.9s-16.1-20.1-39.6-17c-23.4 3-18.9 11.3-39.6 11.8"/></svg>