<svg version="1" xmlns="http://www.w3.org/2000/svg" width="288" height="288"><g fill="#26A9E0"><path d="M147.2 20.1s-18.4 24.3-3.2 45.3c0 0-16-5.8-12.8-22.6 3.3-16.9 9.4-22.3 16-22.7zM124 85.6l-10.1 7.7 1.8 5.5 8.3-5.5zm1 34.3c.5 1.1 1 2 2.2 2.3.3.1.6.2.9.2.3-.2.5-.4.8-.5.7-.4 1.6-.5 2.4-.4l1.6-50-8.4 3.3-.5 43.4c.4.6.8 1.1 1 1.7zm5.8 18.3l.2-7.6c-.7.1-1.5 0-2.3-.4-1.6-.9-3.3-.9-4.9-1.4l-.2 12.5c11 5.7 24.8 4 24.8 4-7.8-1.1-17.6-7.1-17.6-7.1z"/><path d="M134.4 257.6c.9-.5 2-.7 3.1-.5l-6.3-113-6.5-2.3 9.1 101.3.6 14.5z"/></g><g fill="none" stroke="#000" stroke-width="2" stroke-miterlimit="10"><ellipse transform="rotate(-83.933 147.604 42.847)" cx="147.6" cy="42.8" rx="22.9" ry="16.3"/><path d="M138.5 20.1s7.8 4.3 22.1 3.4m-25-.3s13.2 7.1 27.9 3.7m-29.9-.2s16.3 10.2 31.1 3.6m-23.6 34.1l-.8 6.2 10.2 1 1.4-7.2"/><path d="M160.5 121c.3-16.5.9-37.8 1.7-47.4 0 0-26.2-7.3-37.7 1.3 0 0-.3 23.4-.5 42.3"/><path d="M124.6 75l-20.3 18.7s.5 23.8 21.5 35.3l1.1-7.3s-9.6-13.1-14.8-35.1m3.1 12.2l8.5-5.5m2.7 36.6l12 4.2 6.1-5.2-11.7-4.9 3-3-1-2-7.3 3zm37.6-2.4s20.2-27.6-1.8-51.3m-1.1 21.6l11.2 1.8"/><path d="M151.3 117.4v2.6l3.7 2.4-9 1.9 3.9 6.8 14.1-3.6v-5.4z"/><path d="M123.9 128.4c-.1 7.6-.2 12.8-.2 12.8s14.3 8 36.4 2c0 0 .1-5.9.2-14.4"/><path d="M124.8 141.8l10 114.9h5.7s9.2-74.2 5.5-110.8"/><path d="M160.1 140.2s.1 93.3-10.7 115.8h-4.9s2.3-73.2 2.1-74.4"/></g><path fill="none" d="M137 20.4c4.5-.3 9 .4 13.2 2-8.8 3.3-17.7 6.7-26.5 10 7.3-.3 14.5-.1 21.7.9-8.1 3.3-16.2 6.5-24.3 9.8 8.7-1.9 17.9-1.6 26.5.9-8.2 2.2-16.4 4.1-24.7 5.6 6.9.8 13.8 1.6 20.7 2.3-6.5.9-13 1.8-19.4 2.8 7.5 1.1 15.1 2.2 22.6 3.3-10.1 1.3-20.3 2.7-30.4 4 4.6 2 9.2 4.1 13.9 6.1-9.3 2.5-18.5 5.1-27.8 7.6l34.8 1.5c-8.2 2-16.2 5-23.7 8.9l29.4 1.5c-8.1 1.6-16.1 3.1-24.2 4.7-2.1.4-4.6 1.1-5.4 3.2 10.4.8 20.9.9 31.3.3-11.5 2.9-22.8 6.6-33.8 11.3 7.4.5 14.8.4 22.2-.3-7.5 2.3-14.6 6-20.8 10.9 8.3 1 16.8 1.3 25.2.9-8.1 2.8-16 6.4-23.4 10.9 5.7.1 11.4.2 17.1.4-8.7 2.1-17.8 4.3-24.7 10.1 10.8.8 21.6.9 32.4.1-8.4 3.4-16 8.7-22 15.4 5 .6 10 .6 15-.2-6.3 2.3-12.2 5.9-17.1 10.6 6 1.3 12.2 1.6 18.2.9-4 2.4-7.6 5.5-10.5 9.1-.8 1-1.5 2.2-1.1 3.4.5 1.1 1.9 1.4 3.1 1.6 3 .4 5.9.9 8.9 1.3-5.5 2.1-10.5 5.5-14.5 9.9 4.3 1.9 9 2.7 13.6 2.4-4.1 2.8-7.8 6.1-11 9.9-.8 1-1.7 2.2-1.2 3.4.4 1.1 1.6 1.6 2.8 1.9 4.1 1.2 8.3 2 12.5 2.3-2.9 3.1-5.2 6.6-6.9 10.5 3.1-.1 6.3.4 9.2 1.5-3.4 2.9-6.7 5.8-10.1 8.8 5.2.9 10.6 1.2 15.9.9-5.7 2.2-10.5 6.5-13.5 11.8 2.3.3 4.7.7 7 1-3.7 2.2-6.8 5.3-9.2 8.9-.6.8-1.1 2-.5 2.8.5.7 1.4.8 2.3.9 3.9.2 7.8.5 11.8.7-3-.4-5.6 2.9-5.1 5.9s3.4 5.2 6.3 5.5 6-.8 8.5-2.4"/></svg>