<svg version="1" xmlns="http://www.w3.org/2000/svg" width="432" height="432"><path fill="none" stroke="#000" stroke-width="2" stroke-miterlimit="10" d="M135.8 138.4s21.2-18.3 26.7-6.7-7.7 17.9-7.7 17.9 28.9-8.4 32.5 4.1-17.5 15.2-17.5 15.2 31.7-2.2 32.9 8.5c1.2 10.8-21.2 15.6-21.2 15.6s36.3 11.8 30 23.4-25.1 7.6-25.1 7.6 27.6 22.4 16.3 31.4c-11.4 9-24.3 3-24.3 3s17 25.2.9 27.4c-16.1 2.2-33.1-7.2-33.1-7.2s-3.4 6.6-11.3 9.7l-6.2 1.5c-17.5 3.1-23.9-11.2-23.9-11.2s-17 9.4-33.1 7.2.9-27.4.9-27.4-13 5.9-24.3-3S64.4 224 64.4 224s-18.8 4-25.1-7.6 30-23.4 30-23.4-22.4-4.8-21.2-15.6 32.9-8.5 32.9-8.5-21.1-2.7-17.5-15.2 32.5-4.1 32.5-4.1-13.2-6.3-7.7-17.9 26.7 6.7 26.7 6.7-3.6-35.7 10.4-6.8c0 0 19.7-29.2 10.4 6.8z"/><path fill="none" stroke="#000" stroke-width="2" stroke-miterlimit="10" d="M314.4 138.4s21.7-18.2 27.3-6.7-7.9 17.8-7.9 17.8 29.6-8.4 33.2 4.1c3.7 12.4-17.9 15.1-17.9 15.1s32.4-2.2 33.6 8.5-21.7 15.5-21.7 15.5 37.1 11.7 30.7 23.3-25.6 7.6-25.6 7.6 28.2 22.3 16.6 31.2-24.9 3-24.9 3 17.4 25.1.9 27.3-33.9-7.1-33.9-7.1-3.5 6.6-11.5 9.7l-6.4 1.5c-17.9 3.1-24.4-11.2-24.4-11.2s-17.4 9.4-33.9 7.1.9-27.3.9-27.3-13.3 5.9-24.9-3c-11.6-8.9 16.6-31.2 16.6-31.2s-19.2 4-25.6-7.6c-6.4-11.6 30.7-23.3 30.7-23.3s-22.9-4.8-21.7-15.5 33.6-8.5 33.6-8.5-21.5-2.7-17.9-15.1 33.2-4.1 33.2-4.1-13.5-6.2-7.9-17.8 27.3 6.7 27.3 6.7-3.6-35.6 10.6-6.8c.3 0 20.4-29.2 10.9 6.8zM113.8 287.9l2.1 11.5h15.3l2.9-11.5"/><path fill="none" stroke="#000" stroke-width="2" stroke-miterlimit="10" d="M118.6 289.7l4.4 6.6 3.2-6.1m168-2.3l2.1 11.5h15.2l3-11.5"/><path fill="none" stroke="#000" stroke-width="2" stroke-miterlimit="10" d="M298.9 289.7l4.4 6.6 3.3-6.1"/><ellipse fill="#27AAE1" stroke="#000" stroke-width="2" stroke-miterlimit="10" cx="90" cy="211.6" rx="15.6" ry="16.2"/><path fill="none" stroke="#000" stroke-width="2" stroke-miterlimit="10" d="M91.2 195.4s-6.4-8.5-1.3-9.1c5.3-.7 3.1 9.4 3.1 9.4l.9.2s6.3-10.3 9.2-7.8c5.6 4.7-7.4 9-7.4 9"/><ellipse transform="rotate(-27.047 127.396 254.821)" fill="#27AAE1" stroke="#000" stroke-width="2" stroke-miterlimit="10" cx="127.4" cy="254.8" rx="15.6" ry="16.2"/><path fill="none" stroke="#000" stroke-width="2" stroke-miterlimit="10" d="M121.2 239.8s-9.6-4.6-5.3-7.6c4.4-3 7 7 7 7l.9-.2s.9-12 4.6-11.2c7.1 1.7-2.5 11.3-2.5 11.3"/><ellipse transform="rotate(-62.953 155.887 211.707)" fill="#27AAE1" stroke="#000" stroke-width="2" stroke-miterlimit="10" cx="155.9" cy="211.7" rx="16.2" ry="15.6"/><path fill="none" stroke="#000" stroke-width="2" stroke-miterlimit="10" d="M162.1 196.7s9.6-4.6 5.3-7.6c-4.4-3-7 7-7 7l-.9-.2s-.9-12-4.6-11.2c-7.1 1.7 2.5 11.3 2.5 11.3"/><ellipse transform="rotate(-27.047 125.503 177.276)" fill="#27AAE1" stroke="#000" stroke-width="2" stroke-miterlimit="10" cx="125.5" cy="177.3" rx="15.6" ry="16.2"/><path fill="none" stroke="#000" stroke-width="2" stroke-miterlimit="10" d="M119.2 162.3s-9.6-4.6-5.3-7.6c4.4-3 7 7 7 7l.9-.2s.9-12 4.6-11.2c7.1 1.7-2.5 11.3-2.5 11.3"/><ellipse fill="#27AAE1" stroke="#000" stroke-width="2" stroke-miterlimit="10" cx="267.6" cy="211.3" rx="15.9" ry="16.2"/><path fill="none" stroke="#000" stroke-width="2" stroke-miterlimit="10" d="M268.9 195.1s-6.6-8.4-1.3-9.1c5.4-.7 3.2 9.4 3.2 9.4l.9.2s6.4-10.3 9.4-7.8c5.7 4.7-7.5 8.9-7.5 8.9"/><path fill="#27AAE1" stroke="#000" stroke-width="2" stroke-miterlimit="10" d="M320.1 247.3c4.2 8 1.2 17.6-6.6 21.5s-17.6.6-21.7-7.4c-4.2-8-1.2-17.6 6.6-21.5 7.8-3.8 17.5-.6 21.7 7.4z"/><path fill="none" stroke="#000" stroke-width="2" stroke-miterlimit="10" d="M299.5 239.4s-9.8-4.6-5.4-7.5c4.5-3 7.2 6.9 7.2 6.9l.9-.2s.9-12 4.7-11.1c7.3 1.7-2.6 11.3-2.6 11.3"/><path fill="#27AAE1" stroke="#000" stroke-width="2" stroke-miterlimit="10" d="M320.8 204.3c-4.2 8-1.2 17.6 6.6 21.5 7.8 3.9 17.6.6 21.7-7.4s1.2-17.6-6.6-21.5-17.5-.5-21.7 7.4z"/><path fill="none" stroke="#000" stroke-width="2" stroke-miterlimit="10" d="M341.4 196.5s9.8-4.6 5.4-7.5c-4.5-3-7.2 6.9-7.2 6.9l-.9-.2s-.9-12-4.7-11.1c-7.3 1.7 2.6 11.3 2.6 11.3"/><path fill="#27AAE1" stroke="#000" stroke-width="2" stroke-miterlimit="10" d="M318 170c4.2 8 1.2 17.6-6.6 21.5-7.8 3.9-17.6.6-21.7-7.4s-1.2-17.6 6.6-21.5c7.9-3.8 17.6-.5 21.7 7.4z"/><path fill="none" stroke="#000" stroke-width="2" stroke-miterlimit="10" d="M297.5 162.2s-9.8-4.6-5.4-7.5c4.5-3 7.2 6.9 7.2 6.9l.9-.2s.9-12 4.7-11.1c7.3 1.7-2.6 11.3-2.6 11.3"/></svg>