<svg version="1" xmlns="http://www.w3.org/2000/svg" width="432" height="432"><path fill="none" stroke="#000" stroke-width="2" stroke-miterlimit="10" d="M226.4 144.5s21.2-18.3 26.7-6.7c5.5 11.6-7.7 17.9-7.7 17.9s28.9-8.4 32.5 4.1-17.5 15.2-17.5 15.2 31.7-2.2 32.9 8.5c1.2 10.8-21.2 15.6-21.2 15.6s36.3 11.8 30 23.4c-6.3 11.6-25.1 7.6-25.1 7.6s27.6 22.4 16.3 31.4c-11.4 9-24.3 3-24.3 3s17 25.2.9 27.4c-16.1 2.2-33.1-7.2-33.1-7.2s-3.4 6.6-11.3 9.7l-6.2 1.5c-17.5 3.1-23.9-11.2-23.9-11.2s-17 9.4-33.1 7.2.9-27.4.9-27.4-13 5.9-24.3-3 16.1-31.4 16.1-31.4-18.8 4-25.1-7.6 30-23.4 30-23.4-22.4-4.8-21.2-15.6c1.2-10.8 32.9-8.5 32.9-8.5s-21.1-2.7-17.5-15.2c3.6-12.5 32.5-4.1 32.5-4.1s-13.2-6.3-7.7-17.9 26.7 6.7 26.7 6.7-3.6-35.7 10.4-6.8c0 0 19.7-29.2 10.4 6.8z"/><path fill="none" stroke="#000" stroke-width="2" stroke-miterlimit="10" d="M204.4 294l2.1 11.5h15.3l2.9-11.5"/><path fill="none" stroke="#000" stroke-width="2" stroke-miterlimit="10" d="M209.2 295.8l4.4 6.6 3.2-6.1"/><ellipse fill="#27AAE1" stroke="#000" stroke-width="2" stroke-miterlimit="10" cx="180.6" cy="217.7" rx="15.6" ry="16.2"/><path fill="none" stroke="#000" stroke-width="2" stroke-miterlimit="10" d="M181.8 201.5s-6.4-8.5-1.3-9.1c5.3-.7 3.1 9.4 3.1 9.4l.9.2s6.3-10.3 9.2-7.8c5.6 4.7-7.4 9-7.4 9"/><ellipse transform="rotate(-27.047 218 260.967)" fill="#27AAE1" stroke="#000" stroke-width="2" stroke-miterlimit="10" cx="218" cy="261" rx="15.6" ry="16.2"/><path fill="none" stroke="#000" stroke-width="2" stroke-miterlimit="10" d="M211.8 245.9s-9.6-4.6-5.3-7.6c4.4-3 7 7 7 7l.9-.2s.9-12 4.6-11.2c7.1 1.7-2.5 11.3-2.5 11.3"/><ellipse transform="rotate(-62.953 246.49 217.852)" fill="#27AAE1" stroke="#000" stroke-width="2" stroke-miterlimit="10" cx="246.5" cy="217.8" rx="16.2" ry="15.6"/><path fill="none" stroke="#000" stroke-width="2" stroke-miterlimit="10" d="M252.7 202.8s9.6-4.6 5.3-7.6c-4.4-3-7 7-7 7l-.9-.2s-.9-12-4.6-11.2c-7.1 1.7 2.5 11.3 2.5 11.3"/><ellipse transform="rotate(-27.047 216.107 183.421)" fill="#27AAE1" stroke="#000" stroke-width="2" stroke-miterlimit="10" cx="216.1" cy="183.4" rx="15.6" ry="16.2"/><path fill="none" stroke="#000" stroke-width="2" stroke-miterlimit="10" d="M209.8 168.4s-9.6-4.6-5.3-7.6c4.4-3 7 7 7 7l.9-.2s.9-12 4.6-11.2c7.1 1.7-2.5 11.3-2.5 11.3"/></svg>