<svg version="1" xmlns="http://www.w3.org/2000/svg" width="432" height="432"><g fill="#27AAE1"><path d="M215.4 71.7s-17.2 27.4.8 49c0 0-14.9-1.1-15.4-23.1-.4-22 14.6-25.9 14.6-25.9zm-12.7 54.7l4 77.7 22.2 4.1h-20.4l-4.6 136.5-7.8 17.6-14.7-6.7 19.3-10.9-1.4-136.5-4.2-81.8z"/><path d="M222.3 208.2l3.6 136.5 22 11.4-12.8 6.2-12.8-17.6-6.9-136.5zm-26.7-72.6l-10.4 31.1.8 48.3h3.1l2-46.1 5.4-15.5z"/></g><g fill="none" stroke="#000" stroke-width="2" stroke-miterlimit="10"><ellipse cx="216.2" cy="96.2" rx="15.4" ry="24.5"/><path d="M226.4 73.8s-12.2 2.3-18.8 0m20.6 3.2c-1.1.6-12.9 3.4-23.1.5m24.4 3.1s-12.7 5.4-25.5.7m17.2 38.1v7h-9.4v-6.8m24.6 6.8h-41.3l4.2 81.8h32.3z"/><path d="M195.1 126.4l-15.7 38.1 3.5 50.6h6.3l1.9-46.2 5.4-15.5"/><path d="M189.1 215l4.5 7.8-3.5 2-3.5-3.7-1 16.4-7.2-6.8 4.4-15.7m8.3-46.1l-11.7-4.4m56.8-38.1l15.8 38.1-3.5 50.6h-6.4l-1.9-46.2-5.3-15.5"/><path d="M242.3 215l-4.5 7.8 3.4 2 3.6-3.7.9 16.4 7.2-6.8-4.4-15.7m-8.3-46.1l11.8-4.4m-20.4 43.7l-2.7 136.5h-6.6l-6.9-136.5-7.5 136.5h-7.6l-1-136.5m29.6 136.5l20.1 8.5-12.8 6.3-13.9-14.8m-14.4 0l-10.7 14.8-13-6.4 16.1-8.4"/></g></svg>