<svg version="1" xmlns="http://www.w3.org/2000/svg" width="432" height="432"><g fill="#27AAE1"><path d="M201.6 79.9s25 21.1 7.2 43.9c0 0 13.1.2 10.6-23-2.6-22.2-17.8-20.9-17.8-20.9zm20.3 42.5l6.2 73.4-17.5 5.5 20.4-1.5 4.1-27.1-4.4-51.8z"/><path d="M230.7 129.1l12.6 28.6-9.4 45h-3.4l7.1-44.4-8.2-12.7zm-1.7 77.6l14.3 127.7-12.6 18.9 15.7 1.5 1-20.4-9.9-127.2zm-18.4-5.4l6.1 133.1-21.5 13.8 17.2 3 8-16.8-2-132.6z"/></g><g fill="none" stroke="#000" stroke-width="2" stroke-miterlimit="10"><ellipse transform="rotate(-9.32 205.194 101.807)" cx="205.2" cy="101.8" rx="14.2" ry="22.2"/><path d="M192 85.1s7.8.1 17.1-4.6M190.7 89s12.2 1.4 21.1-6.2m-22.1 10.5s17.5 1.7 24.5-7.4m1.8 32.8l.8 4.4m14.2 76.7c-7.9 1.2-21.4 2.8-29.5 1.6l-11.8-73.5 41-7s2.5 29.8 4.4 52.5"/><path d="M230.7 120.1l18.7 36.9-12.6 46.5-6.1-.9 6.5-44.3-4.2-9m-43.3-19.8l-6.4 39.6s13.5 21.7 17.9 30.3"/><path d="M194.4 158.4l-1.4 9.9 5.1 11.9m-5.1-11.9l-9.7-.3m19.5 34.4l10.4 132h7.2l-2.1-133 21.7 133h7.4s-7.7-98.5-9.9-127.2"/><path d="M230.5 202.7l-2.4 2.1 2.4 1.4 7.1.7-1-3.3m.6-45.3l12.2-1.3m-36 177.6l-20.6 9.6 18.2 4 9.8-13m19.5-.6L229 350l17.5 1.3 1.2-16.7"/></g></svg>