<svg version="1" xmlns="http://www.w3.org/2000/svg" width="288" height="288"><path fill="#27AAE1" d="M153.6 90.3l-28.2 47.3-.9 12.5 31.9-50.4 2.9-2.9-.5-5.9z"/><path fill="#FFF" d="M148.5 212.9l2.6 25.4h5.5l2.2-26.8m-31.1 0l3.3 26.8h6.1l1.4-25.2"/><g fill="none" stroke="#000" stroke-width="2" stroke-miterlimit="10"><path d="M140.1 84.3h4.3c6.6 0 12-5.4 12-12V55.6c0-6.6-5.4-12-12-12h-4.3c-6.6 0-12 5.4-12 12v16.7c0 6.6 5.4 12 12 12z"/><path d="M156.4 65.8s-3.3 1-7.2 0c-3.8-1-5.8-2.8-10.7-1-4.8 1.8-10.5.3-10.5.3m.1-5.5s-5.8 4.2 0 7"/><path d="M133.4 90c-4.9-.4-16.6-6.8-16.6-6.8 1.8-3.7 5.4-39.7 8.7-44.2s16.8-.6 16.8-.6 17.2-3.5 19.1 6.5 4.8 32.6 7.4 36.2c0 0-2.1 8-11.6 9.9"/><path d="M146.2 84.3l-.6 5.5-8.2.2v-6"/><path d="M127.7 90.3s21.3-1.5 31 .7c0 0 11.5 86.9 10.7 117.2 0 0-22.3 11.2-54.3 0 .1-.1 14.9-84.8 12.6-117.9z"/><path d="M127.4 111.2l-20.5 44.6-10-21.2c11.7-19 32.2-45.3 32.2-45.3"/><path d="M102.7 146.8L90 158.1l1.2-10.8 8.7-6.4"/><path d="M99.4 149.7l-.9 5.4 2.7.7 3.1-5.5m54.5-59.4h53.1V118l-51.8-16.4m52.3-10.3h20.2l-1.2 3.5-5.5.6-2.4 7-11.6-1.5"/><path d="M150.8 90s-21.2 34.6-25.2 44.9l-1.9 16.5L159.4 95l-.5-4.1c-.1 0-5.4-.9-8.1-.9zm-2.3 122.9l2.6 25.4h5.5l2.2-26.8m-31.1 0l3.3 26.8h6.1l1.4-25.2m-1.4 25.2l-21.9 2.5 8.5 10.3 13.4-10.2zm14 0l-1.6 4.5 21.8 8.3 5.2-11.3-19.9-1.5"/></g><path fill="none" d="M179.8 95.6c-9.1-3.9-18.5-7.3-28.1-10-2.1-.6-4.2-1.2-6.4-.8s-4.2 1.9-4.4 4.1c-.4 3.6 3.8 5.6 7 7.2 5.4 2.7 9.8 7.5 12.1 13.1-9.7-.5-19.4-1.6-29-3.2.8 4.3 4.6 7.4 8.5 9.6s8.1 3.9 10.9 7.4c-6.3 2.1-13.1 4.2-19.5 2.3-2.1-.6-4.1-1.7-6.3-1.6-2.2.1-4.4 2.3-3.6 4.3 6.7 1.2 12 7.5 12 14.3-4.2.3-10-.4-13.9.9-3.5 1.2-5.7 5.3-6.6 8.6-1.2 4.3-1.5 11 1.9 14.5 1.6 1.7 2.8 1.5 3.1 4.3.3 3-1 6-1.2 9-.9 8.7 5 18.4 12.1 23 2.7 1.8 5.8 2.8 8.8 3.8 7.8 2.6 15.5 5.3 23.3 7.9-.6 1-1.9 1.3-3.1 1.5-6.2.8-12.5 1.1-18.7 1-5.5-.1-11.3-.5-16.3 1.7 13.2 2.1 26.5 4.1 39.7 6.2-1.8 2.6-5.2 3.5-8.4 3.9-8.7 1.2-17.5 1-26.3 1.6-3.3.2-6.8.7-9.1 3.1 11 .9 22 1.5 33 1.6 3.2 0 6.6.1 9.2 1.9-15 2.6-30.2 4.3-45.4 4.9"/></svg>