<svg version="1" xmlns="http://www.w3.org/2000/svg" width="648" height="432"><path d="M157.5 43.3s-11.6 20.2 6 36.1c0 0-14.1.1-14.5-19.6-.3-16.7 8.5-16.5 8.5-16.5zM169 230.9c-.3 0-5.8-59.5-9.8-102.8-2.1-1.5-2.5-4.2-2.4-6.9-.2-.5-.3-1-.3-1.6 0-1.8.2-3.5.6-5.2.1-.6.4-1.1.7-1.5-1.6-17-2.6-28.9-2.6-28.9l-4.8.3 5.9 60.3.7 2.1 9.2 88.1 13.2 7.1 4.8-7.1c0-.1-14.7-3.9-15.2-3.9z" fill="#27AAE1"/><g fill="none" stroke="#000" stroke-width="2" stroke-miterlimit="10"><ellipse transform="rotate(-6.332 161.503 61.083)" cx="161.5" cy="61.1" rx="12.4" ry="18.4"/><path d="M147.5 49.2s13.7-2.1 20.1-6m-21 9.6s14.2-1.4 23.7-7.1m-24 10.9s16.6-1.1 25.4-7.6m-11.5 30.1s.2 2.1.4 3.8m7.4-.1c-.2-2.1-.5-4.9-.5-4.9m-4.5 68.7h-6l-6.7-62.3 28-2-1.7 64.3h-8.8"/><path d="M159 91.6l-2.8 28 8.1 32.7 3.7-.7-2.8-31.3 3.8-28.7"/><path d="M168 151.6l2.8 5.3-1.8 1.8-1.5-1.5 1 7.8-4.9-1.9.7-10.8m-8.1-32.7l9 .7"/><path d="M158 146.6l8.2 83.9h3.8l3.8-83.9m2.9 0l-3.2 82.2h-2.7m-4.6 1.7l19.8 2.6-6.5 5.9-13.3-5.5z"/><path d="M173.5 228.8h11.8l-2.5 3.9M34.7 276l32-22.2 39-8.5 28-10.6s19.3-4.7 31.8-7.8"/><path d="M174.3 224.7c1.1-.3 1.7-.4 1.7-.4h29.1l3.5 8.4-10.5 9.6-33 16.5-43.4 17.2h-34l-33 14.8m154-58.1L194.2 276v9.5l14.5 22.3-2.5 22 20 13 21.5 47m-62.4-141.1v28.9l-14.5 33.7 8.6 22 12.6 6.3 4.7 48m-51-89.6l-7 35.3 14.6 15.3-3 34"/></g><path fill="none" d="M151.7 44.1c2.9-1.1 6.2-1.2 9.2-.4-4.3 1.8-8.8 2.9-13.4 3.5l12.1.3c-4.8 2.3-9.6 4.6-14.5 7 4 0 8-.1 12-.1-3.6 3.5-8 6.2-12.8 7.6 4.8-.3 9.6-.6 14.3-.9-4.2 2.8-8.5 5.6-12.7 8.4 5.4-1.2 11-1.7 16.5-1.5-5.4 1.7-10.7 3.7-15.8 6.1l16.1.3c-4.5 1.9-9.3 3.1-14.1 3.7 5.3-.2 10.7-.4 16-.5-6.6 2.1-13 4.8-19.1 8.1 4.4.3 8.8.3 13.3 0-5.9 2.4-11.8 4.9-17.7 7.3 5.6-.8 11.3-1.2 17-1.2-4.1 2.2-8.2 4.4-12.3 6.5 6.9-1.6 14-2.3 21-2.1-7.3 2.8-14.5 5.5-21.8 8.3 4.1-.2 8.2-.4 12.4-.6-5.1 2.3-10.2 4.5-15.3 6.8 6.8-1.2 13.7-1.8 20.7-1.8-3.7 1.1-7.1 2.8-10.2 5.1 2.5-.2 4.9-.3 7.4-.5-5.4 2.4-10.6 5.1-15.7 8.2 3.8.1 7.7.3 11.5.4-1.9.9-3.7 2.1-5.1 3.6 4.2-2 8.9-3.1 13.5-3.3-4.9 2.4-9.7 5.1-14.4 8 7-2.2 14.2-3.3 21.5-3.4-5.7 2-11.1 5-15.8 8.8 2.7-1 5.6-1.6 8.5-1.7-5.8 1.4-11.2 4.4-15.5 8.4 6.2-.3 12.5-.6 18.7-1-5.2 1.7-10 4.5-14.1 8.2 2.6-.9 5.3-1.8 7.9-2.7-4.1 2.6-7.6 6.2-10.2 10.4 5.7-.3 11.4-.6 17-.9-6.7 3.1-13.4 6.2-20 9.4l12.6-.9c-4.1 1.9-7.8 4.8-10.7 8.3 6.1-.2 12.3-.3 18.4-.5-5.3 2-10.4 4.6-15.2 7.6 4.7-.2 9.4-.3 14.2-.5-3.9 2-7.5 4.5-10.7 7.5 3.3.6 6.6.7 9.9.4-3.9 2.4-7.3 5.4-10.1 9 4.4.2 8.7.2 13.1.1-4.2 2.7-8.2 5.6-12 8.9l10.2-1.2c-2.8 2.4-5.5 4.7-8.3 7.1 3.8-.1 7.6-.3 11.4-.4-4.4 2.5-8.6 5.2-12.7 8.1 2.3.1 4.5.2 6.8.3-1.3 2.5-2.6 5.1-3.9 7.6 3.2-.1 6.3-.2 9.5-.3-2.8 1.3-5.4 3.2-7.6 5.4 3.9-.3 7.8-1.1 11.5-2.4-2.6 1.6-4.9 3.6-6.9 5.8 6.2-2.2 12.5-4.4 18.7-6.5-4.7 2.3-9.2 5.3-13.1 8.8 2.8-1.1 5.6-2.2 8.3-3.3-2.6 1.4-5 3.2-7 5.4 3.7-.2 7.4-1 10.9-2.4"/></svg>