<svg version="1" xmlns="http://www.w3.org/2000/svg" width="432" height="432"><g fill="#27AAE1"><path d="M223.4 71.3s25.5 25.1 0 49.1c0 0 13.4-1.8 15.2-20.8s-9-28-15.2-28.3zm10.1 54l-2.4 77.8-23.1 4.3 23.1.5 2.4 136.5 13.9 14.9 11.8-4.5-23.1-10.4 2.7-143.3 4.8-75z"/><path d="M215.1 207.9l-4.2 136.5-19.5 11.8 15 6.6 8.7-18.4 7.5-136.5z"/></g><g fill="none" stroke="#000" stroke-width="2" stroke-miterlimit="10"><path d="M209.5 85.5c-.9 3.2-1.4 6.7-1.4 10.4 0 13.5 6.9 24.5 15.4 24.5s15.4-11 15.4-24.5-6.9-24.5-15.4-24.5c-3.9 0-7.5 2.3-10.2 6.2m20.2-4.1s-12.2 2.3-18.8 0m20.7 3.2c-.8.4-6.5 1.9-13.4 1.8m15 1.7s-6.9 3.2-15.1 2.7"/><path d="M228.3 119.1v7h-9.4v-6.8m24.7 6.8h-41.3l4.1 81.8h32.4z"/><path d="M208 126.1l-20.3-25.3 18.7-15.2 15.4-1.7 1.1-6.3-16.5-.9-34.2 24.6 30.6 35.8m-30.6-35.8l15.5-.5m55.7 25.3l15.8 38.1-3.5 50.6h-6.4l-1.9-46.2-5.4-15.5"/><path d="M249.4 214.7l-4.5 7.8 3.5 2 3.5-3.8 1 16.5 7.2-6.8-4.4-15.7m-8.3-46.1l11.8-4.4m-20.4 43.7l-2.7 136.5h-6.7l-6.8-136.5-7.5 136.5h-7.7l-1-136.5m29.7 136.5l20.1 8.5-12.8 6.3-14-14.8m-14.3 0l-10.7 14.8-13-6.4 16-8.4"/></g></svg>