<svg version="1" xmlns="http://www.w3.org/2000/svg" width="432" height="432"><path fill="none" stroke="#000" stroke-width="2" stroke-miterlimit="10" d="M160.2 261v-27m42 27v-27m30 27v-27m42 27v-27m-120.1 4l26.5-17.9 27.7 17.9m17.7 0l26.5-17.9 27.7 17.9m-77-30.7V226m27-18.7V226m-73.1-18.7V226m27-18.7v15.4m65.1-15.4v15.3m27-15.3V226m-77.5-16.7l18.5-9.1 17.6 9.1m-82.3 0l18.6-9.1 17.5 9.1m56 0l18.6-9.1 17.5 9.1m-97.2-21.6V201m19.1-13.3V201m26.2-13.3V201m19.2-13.3V201m-107-13.3V201m19.2-13.3V201m111.5-13.3V201m19.2-13.3V201m-110.7-11.9l13.2-6.4 12.4 6.4m19.8 0l13.2-6.4 12.4 6.4m-113.4 0l13.1-6.4 12.5 6.4m105.1 0l13.2-6.4 12.4 6.4m-40.4-11.8v8.4m12.2-8.4v8.4m-55.1-8.4v8.4m12.2-8.4v8.4m-58.2-8.4v8.4m12.2-8.4v8.4m74.6-7.5l8.4-4.1 8 4.1m-59.3 0l8.4-4.1 8 4.1m-62.4 0l8.4-4.1 8 4.1"/></svg>