<svg version="1" xmlns="http://www.w3.org/2000/svg" width="288" height="288"><g fill="#26A9E0"><path d="M125.8 13.7s-16.2 8.9-11.2 28.2c3.6 14.4 11.9 17.3 15.8 17.9 1.4.2 2.2.1 2.2.1s-24.9-20.8-6.8-46.2zM130 146l8.5 107.1.1.2h3.2l-1.7-1.3c2.4-33-.8-111-.8-111 7 .5 16.8-1.2 16.8-1.2-7.8.2-20.3-5.3-20.3-5.3-.2-3-.6-6.1-1-9.2-2.7-.2-5.8-.7-8.5-1.7l2.5 11.6L130 146zm-5.8-32.2c1.1.2 2.2.8 2.9 1.9 0 0 .1.1.2.3.1 0 .2.1.3.1.3.1.8.3 1.1.4 1.1.4 2.3.7 3.5.9.5.1.9.2 1.4.3-5.2-25.8-16.3-49.8-16.3-49.8l-5.5 1.3 9.8 32.3 2.6 12.3z"/><path d="M114.8 79.4l-10.6 17.1 3.9 3 9.7-15.2z"/></g><g fill="none" stroke="#000" stroke-width="2" stroke-miterlimit="10"><ellipse transform="rotate(-7.607 130.401 36.796)" cx="130.4" cy="36.8" rx="16.5" ry="23.2"/><path d="M115.9 16.7s8.7 2.4 22.5-1.9m-24.5 5.6s14.7 3.8 28.3-3.1m-29.4 7s18.5 6.1 31.5-3.9m-17.1 38.5l2.6 7 10.3-1.5-1.7-6.9"/><path d="M124.5 113.7c-2.7-11.7-6.8-27-12.8-44.5 0 0 20.5-5.5 41.6-5.3 0 0 10.9 9 11.9 51.9"/><path d="M111.7 69.2l-17.9 32.1s12.8 19.5 36.6 22.5l.9-6.1s-17.5-10.2-23.2-18.2l8.5-15.2m-16.2 5.2s2.7 5.5 7.7 10.1"/><path d="M131.2 117.7l7.3-3.9 1 1.9-3.1 3.1 11.9 5-6.2 5.3-11.7-5.3m37.5-1.4s21.3-32.9-13-56.5m9.1 26.7l10.1 1.5"/><path d="M155.1 112.1v2.6l3.8 2.5-9.1 1.9 3.9 6.9 14.2-3.6v-5.5z"/><path d="M165.2 123.7c0 3.2-.1 6.5-.2 10 0 0-5.7 12.7-35.7 4.6 0 0-.7-5.6-2.8-15.5"/><path d="M129.3 138.3l9.2 114.3h5.8s9.3-74.5 5.5-111.6"/><path d="M164 135.2s.1 94.3-10.8 117.1h-4.9s2.4-74.1 2.2-75.3"/></g><path fill="none" d="M110.7 15.7c10.1.4 20.2.7 30.3 1.1-11.2 6.8-23.2 12.4-35.7 16.6L135 37c-12.3 2-24.3 5.6-35.7 10.6 13.9-.5 27.8-.4 41.6.4-16.4 6.6-33.5 11.4-51 14.1 19 1.6 38.2.8 57.3 0C128 69.5 108.6 76.6 89 83.3c18.6-.7 37.2-.1 55.7 1.9-17 5.3-33.9 10.5-50.9 15.8 18.9 2.1 37.9 3.6 56.8 4.6l-53.4 13.5c-3.8 1-7.9 2.1-10.4 5.2 21.3 2.2 42.7 3.4 64.2 3.6-12.8 6.1-25.7 12.3-38.5 18.4 15.8-.4 31.6.3 47.3 2a1300296602511643100 1300296602511643100 0 00-50.2 33.3c13.9.8 27.7 1.5 41.6 2.3-6.5 2.2-13.5 2.8-20.2 4.3s-13.5 4.3-17.7 9.8c8.1 2 16.4 3.1 24.7 3.4-5.7 2.9-11.4 5.8-17 8.7-2.7 1.4-5.9 3.9-5 6.8 12.8.6 25.6 1.1 38.4 1.4-7 2.8-14.1 5.5-21.1 8.3-3.6 1.4-7.8 3.4-8.5 7.3 9.8.7 19.5 1.4 29.3 2.1-7.1 3.7-14.3 7.4-21.4 11.1-2.4 1.3-5.1 2.9-5.6 5.5 6.5.4 13.1.9 19.6 1.3-5.6 1-11.3 2.1-16.9 3.1-2.9.5-6.5 1.9-6.3 4.8 9.7 2.2 19.5 3.9 29.3 5.1-5.1 0-10.3.9-15.1 2.6 8.8 3.7 19.4 2.7 27.4-2.6"/></svg>