<svg version="1" xmlns="http://www.w3.org/2000/svg" width="432" height="432"><ellipse fill="none" stroke="#000" stroke-width="2" stroke-miterlimit="10" cx="217.4" cy="95.6" rx="11.2" ry="17.3"/><path fill="none" stroke="#000" stroke-width="2" stroke-miterlimit="10" d="M214.3 112.2l-.5 7.9h8.9l-1-8.5"/><path fill="none" stroke="#000" stroke-width="2" stroke-miterlimit="10" d="M199 120.1h36.8L245.9 258s-37.5 6.3-52.5.9l5.6-138.8zm30.5 0s-22 31.3-32 37.3m39.2-24.8s-28.5 37.6-39.8 41.3"/><path fill="none" stroke="#000" stroke-width="2" stroke-miterlimit="10" d="M169.8 97.5l-11.7 11.2 22.9 29.6 17.2-4.3 1.4-12.3-11.2-4.1-1.5-20.1-7.6-2.8"/><path fill="none" stroke="#000" stroke-width="2" stroke-miterlimit="10" d="M178.7 91.2c.8 3.1 1.7 12.3 1.7 12.3l-4.9 6.4-6.3-3.3s.8-10.9 1.4-14.2l.4-3.1c-1-.9-4.1-4-4.1-4l2.3-15.7 2.9-3 4.9 1.6 2 11.7 3.4-3.4 1.4 4.4-3.1 5.1s-1.5.9-2.5 1.4l.5 3.8zm57 28.9l23.1 54.8-18.5 7.4m6.5-2.2l-1.9 8.9 2.7 1.1 2.2-3.6 2.5 13.2 6-8.5-4.5-13.9m-43.4 83.2l1 10.7h3.5l.9-10.5m7.5-.2l1.4 10.7h3.5l1-11.3m-17.8 11.3l-18 6.7 12.3 5.3 9.2-12m9.8 0l9.3 12 11.8-4.4-17.6-7.6"/><path fill="none" stroke="#000" stroke-width="2" stroke-miterlimit="10" d="M204.1 268.6s-14.8-10.8-23.4-3.1c0 0-10.7-10.4-17.3-4.5 0 0-14.3-7.9-22-1.8-7.7 6-8.7 12-8.7 12s-15.3-5.2-21.3 1.4-7.7 13-8 19.3c0 0-8.7 1.3-10.7 12.3s9.3 23 21.3 18c0 0 3.3 10.3 16 7.3 0 0 3.7 17.7 32.7 12.3 0 0 29.1 24.3 52.2-3.7 0 0 21.1 18.7 43.4 1.7 0 0 13 6.3 19.7-9 0 0 24.3 15 36-14.7 0 0 23 3.7 25.3-20.3 2.3-24-27.7-22.3-27.7-22.3s-.3-16-11.7-16.7c-11.3-.7-17 8.6-17 8.6s-10-13.3-24.4-8.7c-13 4.1-12.2 10.6-12.2 10.6"/><path fill="none" stroke="#000" stroke-width="2" stroke-miterlimit="10" d="M137 303.1s17.8-13.8 26.5 3c0 0 8.8-14.2 21.2-8.3 12.3 5.8 12.5 17.3 12.5 17.3m50.3 1.5s-4.8-14.1 6.7-16.4c11.5-2.3 20.5 2.2 20.5 2.2s-2.5-11.8 6.2-12.8 14.3 3.3 14.3 3.3 2.7-11.2 10.5-8.2 10.2 11.6 10.2 11.6"/></svg>