<svg version="1" xmlns="http://www.w3.org/2000/svg" width="432" height="432"><ellipse transform="rotate(-2.159 213.168 105.7) scale(1.00001)" fill="none" stroke="#000" stroke-width="2" stroke-miterlimit="10" cx="213.2" cy="105.7" rx="15.7" ry="23.1"/><path fill="none" stroke="#000" stroke-width="2" stroke-miterlimit="10" d="M209.1 127.8v7.2m10.3-7.6v7.9m-25.4.2l40.7-1.3V212l-31.7 1.5z"/><path fill="none" stroke="#000" stroke-width="2" stroke-miterlimit="10" d="M205.2 135.5v8.2l9.3-4.7 9.9 4.7-2.4-9.1"/><path fill="none" stroke="#000" stroke-width="2" stroke-miterlimit="10" d="M215.8 146.3l-2.4.1c-1.2 0-2.2-.9-2.3-2.1l-.1-1.9c0-1.2.9-2.2 2.1-2.3l2.4-.1c1.2 0 2.2.9 2.3 2.1l.1 1.9c.1 1.2-.8 2.2-2.1 2.3z"/><path fill="none" stroke="#000" stroke-width="2" stroke-miterlimit="10" d="M213.6 146.3l-2.6 31.6 5.9 21.7 5.1-22.7-5.8-30.6M194 135.5l-28.3 31.8-10.3 38 5.5 1.5 13.8-34.2 21.4-19.1"/><path fill="none" stroke="#000" stroke-width="2" stroke-miterlimit="10" d="M155.4 205.3l-7.6 10.8v9l11.2-10.8 4.7 2.4 1.2-4.9-4-5m4.8-39.5l9 5.3m59.9-38l28.3 31.8s5.3 19.5 8.2 30.5m1.5 5.2c.4 1.5.6 2.3.6 2.3l-5.5 1.5s-.2-.6-.6-1.6m-1.8-4.3c-3.9-9.8-11.4-28.3-11.4-28.3l-19.2-17.6"/><circle transform="rotate(-62.095 272.337 199.663)" fill="none" stroke="#000" stroke-width="2" stroke-miterlimit="10" cx="272.3" cy="199.7" r="2.6"/><path fill="none" stroke="#000" stroke-width="2" stroke-miterlimit="10" d="M270 198.4l-6.3 2.6 1.4 3.4 6.6-2.2m1.5 2.2l7.6 10.7v9l-11.2-10.7-4.6 2.4-1.3-4.9 4-5m-4.7-39.5l-9.1 5.2M203 213.5l-1.1 118.3h6.9l11.4-107.7 27.2 107.7 6.5-1L234.7 212m-32.8 119.8l-23.9 8 19.5 8.2 11.3-15.5"/><path fill="none" stroke="#000" stroke-width="2" stroke-miterlimit="10" d="M247.4 331.8l16.3 17.8 15-13.3-24.8-5.5M180 303.6l-14.3-4.6-2-27.1 5-11.6 16.3-17h-14.8l-9.5 9.3L152 264l-4.2-12.4 2.9-8.3-10 5-3.7 20-9.7 9.3-2 19.7-18.6-23.8 12.3-26.9-12.3-38.6-5 28L86 246.6l-7 42.7 32.3 41.5M129.2 212l-7.5-13.5 6.2-13.3s-8.7-5.8-8.7-6.5 3.2-12.9 3.2-12.9l1.8 8.9 7.8-3-5.2-17.6 14.2 12.3 2.3 15.1v11.7l5.5 2.5m118.3 118.1l-11.9-22.5 7.8-35.5 7.1 24.8 7.3 6.5 10.3-10-9-11.5 3.7-13.8-17.1-17.2 27.9 2.7 12.5 23.8-2 26 9.7 3.2 3.3-15-5-22.2 21.5-31.5-5.3 23.5 1 12.2 10.3-4.2-5.3 10.5 4 16 14.8 8.2-31.8 47.3m-39-136.7l-4.5-10.6 8.5-9-6.5-5 5-17 2.8 9.6 9.2 2.6 4.5-16.4-14-17.1 32 17.6-18.5 31.7 1.3 19.6"/></svg>