<svg version="1" xmlns="http://www.w3.org/2000/svg" width="432" height="432"><path fill="none" stroke="#000" stroke-width="2" stroke-miterlimit="10" d="M11.5 198.8h409.1v53.1H11.5zm19.3 0v11.8m5.6-11.8v21.6m6.4-21.6v11.8m36.7-11.8v11.8m5.6-11.8v21.6m6.4-21.6v11.8m39.6-11.8v11.8m5.6-11.8v21.6m6.4-21.6v11.8m36.6-11.8v11.8m5.7-11.8v21.6m6.3-21.6v11.8m43.3-11.8v11.8m5.6-11.8v21.6m6.4-21.6v11.8m36.6-11.8v11.8m5.7-11.8v21.6m6.3-21.6v11.8m36.8-11.8v11.8m5.6-11.8v21.6m6.4-21.6v11.8m36.7-11.8v11.8m5.6-11.8v21.6m6.4-21.6v11.8"/></svg>