<svg version="1" xmlns="http://www.w3.org/2000/svg" width="432" height="432" viewBox="0 0 432 432"><g fill="#27AAE1"><path d="M159 69.4s-19.3 21.1-3.9 46.3c0 0-15.1-6.4-12.8-23.2S153 70 159 69.4zm-12.5 51.8l-9.8 84.9 17.2 6.2h-12s-12 115.8-21.8 131.5l23.7 14.2-15.2 6.5-13-20.8s11.8-72.2 12.3-101 2-34.5 2-34.5l9.2-88.2 7.4 1.2z"/><path d="M152.1 212.9s11.6 89.3 10.8 129.3l21.3 13.5-13.1 5.5-11.6-19s-4.4-51.3-4.8-55.1c-.4-3.9-6.1-44.6-6.1-44.6l-2.4-5.5 1.7-17.8v-6.4l4.2.1z"/></g><g fill="none" stroke="#000" stroke-width="2" stroke-miterlimit="10"><ellipse transform="matrix(.07653 -.9971 .9971 .07653 54.36 244.107)" cx="159" cy="92.7" rx="23.4" ry="16.7"/><path d="M149.9 69.9s12.7 4.7 21.3 2.7m-23.8.5s13.5 6.8 25.7 3.3m-29.2-.1s14.8 9 31.5 4.2M151 113.8l-1.1 7.6 9.7 1 .6-6.5m5.2 52.6c-2.9 21.9-5.8 43.9-5.8 43.9s-21.9 1.5-29.7-4l9.2-88.2 32 4.8s-1.8 13.6-4 30"/><path d="M130 208.4s-5.7 119.5-13.5 135.5h6.8s27.2-102.9 24.5-131.3"/><path d="M159.6 212.4s10.1 107.8 6.8 129.8h-6.8s-6.6-92.9-13.1-107.3m-30.8 109c.3.8 13.8 18.1 13.8 18.1l14.7-6.3-21-11.8"/><path d="M159.6 342.1l13.3 17.5 14-6.7-20.5-10.8m-14.3-208.7l20.7 30 39.4 4.9s.9.3 2.2.6"/><path d="M218.3 170c3.2.9 6.5 1.8 6.5 1.8l-4 10.7-10-5.3s-41-2.7-41.8-3.8-25-30-25-30m28.8 20l-3.9 9.9"/><ellipse transform="matrix(.9971 -.07653 .07653 .9971 -6.321 21.086)" cx="271.9" cy="93" rx="16.7" ry="23.4"/><path d="M279.9 114.1l1.1 7.7-9.7 1-.6-6.6m-5.1 53.3c2.9 21.7 5.7 43.1 5.7 43.1s21.9 1.5 29.7-4l-9.2-88.3-32 4.8s1.8 13.8 4 30.4"/><path d="M300.9 208.7s5.8 119.5 13.5 135.5h-6.8s-27.2-102.9-24.5-131.3"/><path d="M271.3 212.7s-10.1 107.8-6.8 129.8h6.8s6.6-92.9 13.1-107.3m30.8 109c-.3.8-13.8 18.1-13.8 18.1l-14.7-6.3 21-11.8"/><path d="M271.3 342.4L258 359.9l-14-6.7 20.5-10.8m14.3-208.7l-20.7 30s-34.2 2.6-36.7 2.9"/><path d="M223.1 177.4c4.9-.3 38.2-2.7 38.9-3.8.8-1.2 25-30 25-30m-28.9 20.1l3.9 9.9m-39.4-6l-3-3.4s-7.5 6.1-7.1 6.4 3.1 2 3.1 2l4.2-4"/></g><path fill="none" d="M146.4 72.1H161c-6.1.5-12.1 1.8-17.8 3.8 5 .8 9.9 1.6 14.9 2.4-7.6-.3-15.3.7-22.6 2.9 6.1 1.3 12.3 2.4 18.6 3.3-5.6.5-11.2 2.1-16.2 4.7 5.9 1.8 12.1 2.7 18.3 2.7-6.7.1-13.3 1.1-19.8 2.8 6.1.8 12.2 1.5 18.3 2.3-6.3.6-12.7 1.3-19 1.9 8.2.9 16.5 1.8 24.7 2.7-8 .7-15.8 2.6-23.3 5.4 6.2 1 12.5 1.9 18.7 2.9-12.4 1.9-24.6 4.7-36.6 8.3 11.5 1.9 23.1 2.8 34.7 2.8-7.4.5-14.7 2.2-21.6 5 6.7-.2 13.4.8 19.8 2.9-11.3 1.3-22.5 3.3-33.5 6.2 8.9.4 17.9.7 26.8 1.1-7.5 1.6-14.8 4.2-21.7 7.5 9.8.7 19.6 1 29.3.9-9.8 2.2-19.6 4.4-29.4 6.5 11.5.7 23.1 1.4 34.6 2.2-12.5 2.1-24.9 5.5-36.7 10.1 8.4.2 16.9.3 25.3.5-9.5 2.9-18.7 6.6-27.6 11 11.3 0 22.6 1 33.6 3.1-10.1 2.2-20.1 4.4-30.2 6.6 9.6.2 19.2.4 28.8.7-10.7 3.2-21.4 6.5-32.1 9.7l37.2 1.8c-12.1.8-24.2 1.6-36.4 2.5-4.3.3-8.7.6-12.3 3 18.5.6 37 1.1 55.5 1.7-15.6 1.5-31.3 3.1-46.9 4.6 16.5 1.2 33 2.4 49.6 3.6-17.5 3.5-35 6.9-52.5 10.4 15.9 2 31.9 4 47.8 6-18.1 2.1-36.2 4.1-54.3 6.2 20.6.3 41.3.5 61.7 3.8-18.4 1.4-36.7 3.9-54.7 7.5 17.6 0 35.3 0 52.7 2.9-16.9 1.2-33.7 3.9-50.1 8.2 18.7.7 37.5 1.3 56.2 2-17.1.3-34.4.6-50.7 5.4 16.4.1 32.8.7 49.2 2.1-11.8 2.9-23.7 5.2-35.7 7 1.5-1.3 2.9-2.6 4.4-3.8-9.2-2.7-19.3-2.5-28.3.8 16.7 4.8 33.9 7.7 51.2 8.5-16 1.5-31.9 3-47.9 4.4 16.6 4.2 33.8 5.5 50.9 4-18.2.9-36.4 4.2-53.7 9.9 17.3-.4 34.6-.2 51.9.5-16.7 7.3-36.2 2.8-53.8 7.6-2.2.6-4.7 1.8-5.1 4 23.8-.1 47.6-.3 71.5-.4-19.8 6.5-40 11.6-60.5 15.2l56.2.6c-21.2 3.1-42.4 6.1-63.6 9.2 22.6-2.7 45.3-3.9 68.1-3.5-19.8 1.8-39.7 3.7-59.5 5.5-5.2.5-11.3 1.6-13.4 6.4 27.8 1.1 55.6.8 83.4-.9-28.3 5.4-58.4-3.8-85.8 4.8 29.8-.7 59.7-1.5 89.5-2.2-21.7 3.5-43.6 6.5-65.4 9 21.9 1 43.8.1 65.5-2.7-28.9-.4-57.8 1-86.5 4.3 18.6 7.4 39.8 8 58.8 1.8 8.7-2.8 17.9-7.1 26.5-4.1"/></svg>