<svg version="1" xmlns="http://www.w3.org/2000/svg" width="288" height="288"><g fill="#27AAE1"><path d="M123.9 30.7s-9.1 24.2 4.6 39.5c0 0-11.9-3.3-13.5-19.1s8.9-20.4 8.9-20.4zm-6 46.5l2.6 59.7s12.5 4.8 24.5 4.2l-11.8 2.6h-10.6l-1.6 94-1.2 21.2-16.5-3.2 15.3-18.8s-3.5-67.4-4.4-94.9c-.9-27.5-1.2-36.2-1.2-36.2L102.4 147l4.5 7.6-1.7.8-5.9-7.3s6.6-46.9 12.8-56.1V77.2h5.8z"/><path d="M137.2 143.6l7.8 94.1 17.5 21.2-17.5 3-4-24.2-9.9-93.3z"/></g><g fill="none" stroke="#000" stroke-width="2" stroke-miterlimit="10"><ellipse transform="rotate(-4.261 128.503 50.003)" cx="128.5" cy="50" rx="13.5" ry="20.2"/><path d="M117.9 32.8s13.9.4 17.3-1.3m-19.5 3.6s11 3.9 21.4-1.6m-22.3 4.9s14.7 4.1 24.6-1.8m-13.7 32.9l.8 6.4 7.9-.7.8-7m-23.2 9l34.1-3v66.9s-11 5.1-32 .9L112 77.2zm0 0s-13.2 34-14.6 69.9h5s6-27.5 10.5-41.2"/><path d="M102.4 147l4.4 7.7-2.2 2.2-3.6-2.2v13.5l-6-4 2.4-17.2m5.8-40.5l7.3 7.2M146 74.1s13.8-29.8 19.5-42.2m6.7 3.6C165.7 50.8 146 96.7 146 96.7m19.4-64.5l11.3 5.1 3.5-.8-2.2-4.3s12.8-1.3 13.5-1.5 1-4 1-4H168l-2.6 5.5zM114 143s.7 71.3 4.2 94.7h5.5l7.4-94m0 .7l9.9 93.2h6.7s2.7-75.2-1.7-96.6m-27.8 96.7l-13.1 14.9 17.5 5.1 1.1-20m17.3 0l3 21.2 18.5-3.2-14.8-18"/></g></svg>