<svg version="1" xmlns="http://www.w3.org/2000/svg" width="288" height="288"><g fill="#27AAE1"><path d="M148.9 53.6s6.4 23.2-11.9 31.9c0 0 13.5 1.4 16.4-13.1s-4.6-19.8-4.6-19.8m1.4 36.1l2 48.6s-17.6 7-16.8 7c.8-.1 14-1.5 18.4-2.8 0 0-1.4 64.9 2.2 76.9.4 1.2 6.6 14.9 6.6 14.9l8.3-5-12.7-9.9s2.7-45.6 2.7-51.5c0-5.8-1.4-27.3-1.4-27.3L156 87.8l-5.8.9z"/><path d="M139.3 144.2l-.8 74.2-11 12.3s10.8 6.2 11 5.8c.2-.3 2.6-18.3 2.6-18.3l3.3-74.1h-5.1zm17.4-50.5l11.9 11-10 22-.1-7.3 5.8-15.3-7.3-4.7z"/></g><g fill="none" stroke="#000" stroke-width="2" stroke-miterlimit="10"><ellipse transform="rotate(-73.734 141.81 68.966)" cx="141.8" cy="69" rx="17.2" ry="12.1"/><path d="M138.3 51.6s6.2 4.9 15.6 5.8m-18.5-3.6s8.9 6.6 19.2 7.1m-21.7-4.1s14 8.2 21.7 7.2M137 85.4l2.1 4.6 5.5-.8v-5.4m-17.8 8.5l29.2-4.5 3.5 51.7s-18.2 7.8-29.8 3.2l-2.9-50.4z"/><path d="M126.8 92.3s-9.1 11.8-13.9 18.5l15.5 23.2-6.1 4.6 2.1 1.9 4.9-1m-1.8-34.8l-10.8 11.7m6.1-6.6c-.3.3 5.8 14 5.8 14m27.4-36s13.4 9 18.5 16.8l-15.1 25.7 7.6 3.9-2.3 3-5.5-1m-2.5-37.6c0 .1 10.2 6.3 14.2 12.1m-6.3-6c0 .8-6.4 15.8-6.4 15.8m-25.5 23.1s1 59 4.1 74.6h4.3l3.3-74.1m2.3-.8l7.6 74.9h4.2s4.7-60 .9-78.7m-18.8 78.9l-3.1 15-10.4-5.5 10.9-9.5m20.1-.1l10.5 7.3-9 5.6-5.3-12.9"/></g></svg>