<svg version="1" xmlns="http://www.w3.org/2000/svg" width="288" height="288"><g fill="#27AAE1"><path d="M87.8 78.2S73 97.7 89.2 116.1c0 0-16.4-1.1-13.4-21.8 2.5-17.5 12-16.1 12-16.1zm-9.4 38.5S72 158 78.4 177l13.6 5H72.4s-4.3-34-1.5-49.2 3.3-16.8 3.3-16.8l4.2.7z"/><path d="M71.8 124.2s-11.7 13.6-12.5 14.7c-.7 1.1 1.8 34.6 1.8 34.6l4.4 15 1.6-3.2-3.1-13.5.5-30 6.3-7.2 1-10.4zm24.8 17s6.5 16.7 19 20.4L131 166l-1.3 2.4-13-.1-1.7-5.3s-5.1-.9-9-3c-3.8-2.1-9.5-9.6-9.5-9.6l.1-9.2zm-15.6 41s-3.9 41.7-20.9 65.6l2.7.9s13.2-17 17.2-32.5 5.5-23.6 5.3-24.1c-.2-.5 0-10 0-10l-4.3.1zm11-.2l10.5 66.4h-2.6l-12-65.7z"/><path d="M60.1 247.8l.9 11.8 15.7 1.6 5.1-6.7zm38.1 2l-1.6 8.7 22.6 2.7 6.6-5.7-20.3-6.9zm81.2-150.3l-27.3 48s-1.6 12.1-1.3 11.6c.3-.5 35.1-55.5 35.1-55.5v-3.5l-6.5-.6z"/></g><g fill="none" stroke="#000" stroke-width="2" stroke-miterlimit="10"><ellipse cx="89.3" cy="97.1" rx="13.4" ry="19"/><path d="M172.1 92.8h-4.3c-6.6 0-12-5.4-12-12V64.1c0-6.6 5.4-12 12-12h4.3c6.6 0 12 5.4 12 12v16.7c0 6.6-5.4 12-12 12z"/><path d="M155.8 74.3s3.3 1 7.2 0 5.8-2.8 10.7-1c4.8 1.8 10.5.3 10.5.3"/><path d="M143.4 89.6c2.6-3.6 5.5-26.2 7.4-36.2s19.1-6.5 19.1-6.5 13.5-3.9 16.8.6 6.9 40.5 8.7 44.2c0 0-11.7 6.4-16.6 6.8m-23-30.4s-6.3 4.5 0 7.8m28.3-7.8s5.8 4.2 0 7M79.5 80.3s10.2 2 18.7-.3m-20.6 2.8s8.8 4.9 23 .5m-24.8 2.6s11.7 5.5 26.9 1.7m-19.5 26.5l-.9 3.4 6.8 1.8 1.3-3.4"/><path d="M166 92.8l.6 5.5 8.1.3v-6.1M74.3 115.9s-8.5 25.9-1.8 64.9c0 0 15.3 2 25.8 1.2 0 0-3.5-43.5 0-59.5-.1 0-9.2-4.1-24-6.6z"/><path d="M74.3 115.9s-8.3 5.2-19.8 21.2c0 0-.8 20.5 5.8 36.3l4.1-.7s-1.4-25.2 0-30.8l6.5-8.1m-16.5 3.3s7.3 2 9.9 4.8"/><path d="M64.3 172.8l2.8 12.5-2.8 7.7-7.2-7 2.3-12.5zm33-44.3s6.3 24 19.5 30.5l-1.7 4s-9.7 1.2-18.4-13.9"/><path d="M116.8 159l6.8-.6 9 4.6-2.8 5.4-13-1.3-1.7-4.1zm-20.2-11.5l6.6-3.9m-30.8 37.2s.9 36.2-15.3 66l5 1.6s24.8-27.7 23.3-66.2m2.4 0l12.1 66.2h4.9s2.9-45.8-6.7-66.4"/><path d="M57.1 246.8l1.4 9.1 15.8 2.6 5.4-4.5-17.6-5.6m37.2 0l-2.7 7.6 20 3.6 6-4.8-17.8-6.4m49.6-149.6s21.3-1.5 31 .7c0 0 11.5 86.9 10.7 117.2 0 0-22.2 11.2-54.2 0-.1-.1 14.7-84.7 12.5-117.9z"/><path d="M124.3 66.2l-11.6 11.2 23.9 38.5 17.8-3.5.7-13.1-11.2-4-2.5-29.1-8.1-3"/><path d="M126.6 56l-4.7-7.5 5.5-22.2h2V39s3.8 4.2 4.3 3.8c.5-.3 2.8-1.7 2.8-1.7l1.5 3.7-6.6 11.2 3.5 13.2-4.9 6.4-6.3-3.3 2.9-16.3z"/><path d="M123.7 41.2l7.4 3.3.9 4.4m-9.3-3.6l4.7 2.6.8 3.6m49.2 47.1s-21.2 34.6-25.2 44.9l-1.9 16.5 35.7-56.4-.5-4.1c-.1 0-5.4-.9-8.1-.9z"/><path d="M185.4 99.5s20.5 26.3 32.2 45.3l-10 21.2-19.5-44.6"/><path d="M214.6 151.1l8.7 6.4 1.1 10.8-12.6-11.3m-1.6 3.5l3.1 5.5 2.6-.7-.8-5.3m-60.8 60.1l3.3 26.7h6.2l1.3-25.2m10-.1l2.7 25.3h5.5l2.1-26.7m-21.6 26.7l-22 2.5 8.5 10.3 13.5-10.1zm14 0l-1.7 4.5 21.8 8.3 5.2-11.3-19.8-1.5"/></g></svg>