<svg version="1" xmlns="http://www.w3.org/2000/svg" width="1859.9" height="1102.4"><g fill="none" stroke="#000" stroke-width="2" stroke-miterlimit="10"><ellipse transform="rotate(-78.93 494.925 132.39)" cx="494.9" cy="132.4" rx="31.2" ry="21.4"/><ellipse transform="rotate(-82.265 658.85 132.223)" cx="658.8" cy="132.2" rx="31.5" ry="21.3"/><path d="M663.2 100.9s27.6 2.9 27.6 31.2 2.8 34.9 5.4 39.9c0 0-8.7 2.5-18.8 2.2"/><path d="M679.6 120.5s3.6 16.3 5.6 26.5c2 10.2 4.5 22.5 5.6 26.1M678.5 143s1.1 24.7 5.1 31.1M670.2 157s1.1 13.4 3.6 16.1m-190.6-12.6l-1.5 8.4 9.4 1.9 3.8-7.8m159.7.3v6.9l8.6.9 2.3-10.2"/><path d="M461.6 166.9s29.5.3 46.6 10.4c0 0-19.4 79.5-26.7 90.5l-34.6-4.8 14.7-96.1zm0 0l-48.1 29s2.5 36.3 14.3 66.6h5.4s-2-44.4-.6-57.8m25.6-15.4l-42.7 25.1m17.7 48.3l6.2 10.7-3.1 2.7h-3.1l2.1 17.5-11.4-7 3.9-23.9z"/><path d="M508.2 177.5l20.5 33.3 28.9-25.7 4 2.3-32.9 46.6-26.7-32.5m55.6-16.4v-7.6l26.7-5.6v15.5h-22.7m-32.9 23.4V234m148.8-59.8c-16-5.4-42.9-5.1-42.9-5.1L598 204.2l1.2 60.9s5.1 1.7 5.9.6c.8-1.1 6.2-54.8 6.2-54.8l21.3-18.5s-9.8 34.6-5 63.7c0 0 25.3 5.4 36.5 3.1l17.5-56.8-4.1-28.2z"/><path d="M605.3 265.8l5.1 16-11.4 17.5-8-3.5 8.2-30.6m80.4-56.4s13.5 22.2 32.1 32.4l-2 5.9s-19.9-3.1-36-19.1m36 19.2l25.3 12.6 5-10.6-18.2-11.6s-9.5 2.3-9.9 3.7m-265 21.7s75 127 82 151.1l6.5-1.9s-18.2-87.6-53.9-144.4"/><path d="M452.8 273.4s6.8 75.9-37.3 132l8.4 1.6s46.6-41.5 50.8-95.8m153.1-55s-24.4 71.9-29.8 107.3c0 0 67.4 26.2 113.8-10.6l-47.7-93.6"/><path d="M621.7 369.8l-9 51.9h4.5s26.5-38.3 27-49.2m21.3 0l18.3 49.2 9-2.8L691 365m-277.3 41l-5.5 14.4 32.5 11.4 16-9.3-32.8-15.4zm115 8.2l2.2 17.9 32.9 7 10.7-13.2-37.9-12.9z"/><path d="M612.6 421.7l-1.6 5.4 24.4 15.2 14.4-13.3-32.7-7.3m66.7 0l.9 7.4 36.1 13.2 6.6-16.3-34.6-7.1"/></g><g fill="none" stroke="#000" stroke-width="2" stroke-miterlimit="10"><ellipse transform="rotate(-78.93 1224.34 141.782)" cx="1224.3" cy="141.8" rx="31.2" ry="21.4"/><ellipse transform="rotate(-82.265 1388.266 141.617)" cx="1388.3" cy="141.6" rx="31.5" ry="21.3"/><path d="M1392.6 110.3s27.6 2.9 27.6 31.2 2.8 34.9 5.4 39.9c0 0-8.7 2.5-18.8 2.2"/><path d="M1409 129.9s3.6 16.3 5.6 26.5 4.5 22.5 5.6 26.1m-12.2-30.1s1.1 24.7 5.1 31.1m-13.5-17.1s1.1 13.4 3.6 16.1m-190.6-12.6l-1.5 8.4 9.5 1.9 3.7-7.8m159.7.3v6.9l8.6.9 2.3-10.2"/><path d="M1191.1 176.3s29.5.3 46.6 10.4c0 0-19.4 79.5-26.7 90.5l-34.6-4.8 14.7-96.1zm0 0l-48.1 29s2.5 36.3 14.3 66.6h5.4s-2-44.4-.6-57.8m25.5-15.4l-42.6 25.1m17.7 48.3l6.2 10.7-3.1 2.7h-3.1l2 17.5-11.4-7 3.9-23.9z"/><path d="M1237.6 186.9l20.5 33.3 28.9-25.7 4 2.3-32.9 46.6-26.7-32.5"/><path d="M1287 194.5v-7.6l26.7-5.6v15.5H1291m-32.9 23.4v23.2m148.8-59.8c-16-5.4-42.9-5.1-42.9-5.1l-36.6 35.1 1.2 60.9s5.1 1.7 5.9.6c.8-1.1 6.2-54.8 6.2-54.8l21.3-18.5s-9.8 34.6-5 63.7c0 0 25.3 5.4 36.5 3.1l17.5-56.8-4.1-28.2z"/><path d="M1334.7 275.2l5.1 16-11.3 17.5-8.1-3.5 8.2-30.6m80.4-56.4s13.5 22.2 32.1 32.4l-2 5.9s-19.9-3.1-36-19.1m36.1 19.2l25.3 12.6 5-10.6-18.2-11.6s-9.5 2.3-9.9 3.7m-265.1 21.7s75 127 82 151.1l6.5-1.9s-18.2-87.6-53.9-144.4"/><path d="M1182.2 282.8s6.8 75.9-37.3 132l8.4 1.6s46.6-41.5 50.8-95.8m153.1-55s-24.4 71.9-29.8 107.3c0 0 67.4 26.2 113.8-10.6l-47.7-93.6"/><path d="M1351.1 379.2l-9 51.9h4.5s26.5-38.3 27-49.2m21.3 0l18.3 49.2 9-2.8-1.8-53.9m-277.3 41l-5.4 14.4 32.4 11.4 16-9.3-32.8-15.4zm115 8.2l2.2 17.9 32.9 7 10.7-13.2-37.8-12.9zm83.9 7.5l-1.6 5.4 24.4 15.2 14.4-13.3-32.7-7.3m66.7 0l1 7.4 36 13.2 6.7-16.3-34.7-7.1"/></g><g fill="none" stroke="#000" stroke-width="2" stroke-miterlimit="10"><ellipse transform="rotate(-78.93 309.516 480.162)" cx="309.5" cy="480.2" rx="23.6" ry="16.2"/><ellipse transform="rotate(-82.265 433.398 480.037)" cx="433.4" cy="480" rx="23.8" ry="16.1"/><path d="M436.7 456.4s20.9 2.2 20.9 23.6c0 21.4 2.1 26.4 4.1 30.2 0 0-6.6 1.9-14.2 1.6"/><path d="M449.1 471.2s2.7 12.3 4.2 20.1c1.5 7.7 3.4 17 4.2 19.7m-9.2-22.8s.8 18.7 3.9 23.5m-10.3-13s.8 10.1 2.7 12.2m-143.9-9.5l-1.2 6.4 7.2 1.4 2.8-5.9m120.7.3v5.1l6.5.7 1.7-7.7"/><path d="M284.4 506.3s22.3.2 35.2 7.9c0 0-14.7 60.1-20.2 68.4l-26.2-3.6 11.2-72.7zm0 0L248 528.2s1.9 27.5 10.8 50.3h4.1s-1.5-33.6-.5-43.6m19.4-11.8l-32.3 19.1m13.4 36.4l4.7 8.1-2.4 2h-2.3l1.5 13.3-8.5-5.3 2.9-18.1z"/><path d="M319.6 514.2l15.5 25.3 21.8-19.5 3 1.7-24.8 35.2-20.2-24.5"/><path d="M356.9 520v-5.8l20.2-4.2v11.7h-17.2m-24.8 17.8v17.4m112.4-45.1c-12.1-4.1-32.4-3.9-32.4-3.9l-27.7 26.5.9 46s3.9 1.3 4.5.5c.6-.8 4.7-41.4 4.7-41.4l16.1-14s-7.4 26.2-3.8 48.1c0 0 19.1 4.1 27.6 2.3l13.3-42.9-3.2-21.2z"/><path d="M392.9 581l3.9 12.1-8.6 13.2-6.1-2.7 6.2-23.1m60.8-42.6s10.2 16.8 24.3 24.5l-1.5 4.5s-15-2.3-27.2-14.4m27.2 14.4l19.1 9.5 3.8-8-13.7-8.8s-7.2 1.8-7.5 2.8m-200.4 16.5s56.7 96 62 114.2l4.9-1.4s-13.7-66.2-40.7-109.1"/><path d="M277.7 586.7s5.2 57.4-28.2 99.7l6.3 1.2s35.2-31.3 38.4-72.4m115.7-41.5s-18.4 54.3-22.5 81.1c0 0 50.9 19.8 86-8l-36-70.8"/><path d="M405.3 659.6l-6.8 39.2h3.4s20.1-29 20.4-37.2m16.1 0l13.9 37.2 6.8-2.1-1.4-40.7m-209.6 30.9l-4.1 11 24.5 8.5 12.1-7-24.7-11.6zm87 6.3l1.6 13.5 24.9 5.2 8.1-9.9-28.7-9.8z"/><path d="M398.4 698.8l-1.2 4.1 18.5 11.5 10.9-10.1-24.8-5.5m50.5 0l.7 5.6 27.2 10 5-12.3-26.1-5.4"/></g><g fill="none" stroke="#000" stroke-width="2" stroke-miterlimit="10"><ellipse transform="rotate(-78.93 712.663 480.161)" cx="712.7" cy="480.2" rx="23.6" ry="16.2"/><ellipse transform="rotate(-82.265 836.546 480.037)" cx="836.5" cy="480" rx="23.8" ry="16.1"/><path d="M839.8 456.4s20.9 2.2 20.9 23.6c0 21.4 2.1 26.4 4.1 30.2 0 0-6.6 1.9-14.2 1.6"/><path d="M852.2 471.2s2.7 12.3 4.2 20.1c1.5 7.7 3.4 17 4.2 19.7m-9.2-22.8s.8 18.7 3.9 23.5m-10.2-13s.8 10.1 2.7 12.2m-144-9.5l-1.2 6.4 7.2 1.4 2.8-5.9m120.8.3v5.1l6.4.7 1.8-7.7"/><path d="M687.5 506.3s22.3.2 35.2 7.9c0 0-14.7 60.1-20.2 68.4l-26.2-3.6 11.2-72.7zm0 0l-36.4 21.9s1.9 27.5 10.8 50.3h4.1s-1.5-33.6-.5-43.6m19.4-11.8l-32.2 19.1m13.3 36.4l4.7 8.1-2.3 2H666l1.6 13.3-8.6-5.3 2.9-18.1z"/><path d="M722.7 514.2l15.5 25.3L760 520l3.1 1.7-24.9 35.2-20.2-24.5"/><path d="M760 520v-5.8l20.2-4.2v11.7h-17.1m-24.9 17.8v17.4m112.4-45.1c-12.1-4.1-32.4-3.9-32.4-3.9l-27.7 26.5.9 46s3.9 1.3 4.5.5c.6-.8 4.7-41.4 4.7-41.4l16.1-14s-7.4 26.2-3.8 48.1c0 0 19.1 4.1 27.6 2.3l13.3-42.9-3.2-21.2z"/><path d="M796 581l3.9 12.1-8.5 13.2-6.1-2.7 6.2-23.1m60.7-42.6s10.2 16.8 24.3 24.5l-1.5 4.5s-15-2.3-27.2-14.4m27.2 14.4l19.1 9.5 3.8-8-13.7-8.8s-7.2 1.8-7.5 2.8m-200.3 16.5s56.7 96 62 114.2l4.9-1.4s-13.7-66.2-40.7-109.1"/><path d="M680.8 586.7s5.2 57.4-28.2 99.7l6.3 1.2s35.2-31.3 38.4-72.4m115.8-41.5s-18.4 54.3-22.5 81.1c0 0 50.9 19.8 86-8l-36-70.8"/><path d="M808.5 659.6l-6.8 39.2h3.4s20.1-29 20.4-37.2m16.1 0l13.8 37.2 6.8-2.1-1.4-40.7m-209.5 30.9l-4.1 11 24.5 8.5 12.1-7-24.8-11.6zm86.9 6.3l1.6 13.5 24.9 5.2 8.1-9.9-28.6-9.8z"/><path d="M801.6 698.8l-1.2 4.1 18.4 11.5 10.9-10.1-24.7-5.5m50.4 0l.7 5.6 27.2 10 5.1-12.3-26.2-5.4"/></g><g fill="none" stroke="#000" stroke-width="2" stroke-miterlimit="10"><ellipse transform="rotate(-78.93 1052.283 481.491)" cx="1052.3" cy="481.5" rx="23.6" ry="16.2"/><ellipse transform="rotate(-82.265 1176.167 481.368)" cx="1176.2" cy="481.4" rx="23.8" ry="16.1"/><path d="M1179.4 457.7s20.9 2.2 20.9 23.6c0 21.4 2.1 26.4 4.1 30.2 0 0-6.6 1.9-14.2 1.6"/><path d="M1191.9 472.5s2.7 12.3 4.2 20.1c1.5 7.7 3.4 17 4.2 19.7m-9.3-22.8s.8 18.7 3.9 23.5m-10.2-12.9s.8 10.1 2.7 12.2m-144-9.5l-1.1 6.3 7.1 1.4 2.8-5.8m120.8.2v5.1l6.4.8 1.8-7.8"/><path d="M1027.1 507.6s22.3.2 35.2 7.9c0 0-14.7 60.1-20.2 68.4l-26.2-3.6 11.2-72.7z"/><path d="M1027.1 507.6l-36.4 21.9s1.9 27.5 10.8 50.3h4.1s-1.5-33.6-.5-43.6m19.5-11.7l-32.3 19m13.4 36.5l4.7 8.1-2.4 2h-2.3l1.5 13.2-8.6-5.3 3-18zm56.6-64.4l15.5 25.2 21.8-19.5 3.1 1.8-24.9 35.2-20.2-24.6m42-12.4v-5.7l20.2-4.3v11.8h-17.1m-24.9 17.7v17.5m112.4-45.2c-12.1-4.1-32.4-3.9-32.4-3.9l-27.7 26.5.9 46s3.9 1.3 4.5.5c.6-.8 4.7-41.4 4.7-41.4l16.1-14s-7.4 26.2-3.8 48.1c0 0 19.1 4.1 27.6 2.3l13.3-42.9-3.2-21.2z"/><path d="M1135.7 582.3l3.8 12.1-8.5 13.3-6.1-2.7 6.2-23.1m60.8-42.6s10.2 16.8 24.3 24.5l-1.5 4.5s-15-2.3-27.2-14.4"/><path d="M1214.6 568.2l19.1 9.5 3.8-8-13.7-8.8s-7.2 1.8-7.5 2.8M1016 580.2s56.7 96 62 114.2l4.9-1.4s-13.7-66.2-40.7-109.1"/><path d="M1020.4 588.1s5.2 57.4-28.2 99.7l6.3 1.2s35.2-31.3 38.4-72.4m115.8-41.6s-18.4 54.3-22.5 81.1c0 0 50.9 19.8 86-8l-36-70.8"/><path d="M1148.1 660.9l-6.8 39.2h3.4s20.1-29 20.4-37.2m16.1 0l13.8 37.2 6.8-2.1-1.4-40.7m-209.5 31l-4.1 10.9 24.5 8.6 12.1-7.1-24.8-11.6zm86.9 6.2l1.7 13.5 24.8 5.3 8.1-10-28.6-9.7zm63.4 5.6l-1.2 4.1 18.4 11.5 10.9-10.1-24.7-5.5m50.4 0l.7 5.7 27.3 9.9 5-12.3-26.2-5.4"/></g><g fill="none" stroke="#000" stroke-width="2" stroke-miterlimit="10"><ellipse transform="rotate(-78.93 1455.43 481.49)" cx="1455.4" cy="481.5" rx="23.6" ry="16.2"/><ellipse transform="rotate(-82.265 1579.315 481.368)" cx="1579.3" cy="481.4" rx="23.8" ry="16.1"/><path d="M1582.6 457.7s20.9 2.2 20.9 23.6c0 21.4 2.1 26.4 4.1 30.2 0 0-6.6 1.9-14.2 1.6"/><path d="M1595 472.5s2.7 12.3 4.2 20.1c1.5 7.7 3.4 17 4.2 19.7m-9.2-22.8s.8 18.7 3.9 23.5m-10.2-12.9s.8 10.1 2.7 12.2m-144-9.5l-1.2 6.3 7.2 1.4 2.8-5.8m120.7.2v5.1l6.5.8 1.7-7.8"/><path d="M1430.3 507.6s22.3.2 35.2 7.9c0 0-14.7 60.1-20.2 68.4l-26.2-3.6 11.2-72.7z"/><path d="M1430.3 507.6l-36.4 21.9s1.9 27.5 10.8 50.3h4.1s-1.5-33.6-.5-43.6m19.4-11.7l-32.3 19m13.4 36.5l4.7 8.1-2.3 2h-2.4l1.5 13.2-8.5-5.3 2.9-18zm56.7-64.4l15.5 25.2 21.8-19.5 3 1.8-24.8 35.2-20.2-24.6m42-12.4v-5.7l20.2-4.3v11.8h-17.2m-24.8 17.7v17.5m112.4-45.2c-12.1-4.1-32.4-3.9-32.4-3.9l-27.7 26.5.9 46s3.9 1.3 4.5.5c.6-.8 4.7-41.4 4.7-41.4l16.1-14s-7.4 26.2-3.8 48.1c0 0 19.1 4.1 27.6 2.3l13.3-42.9-3.2-21.2z"/><path d="M1538.8 582.3l3.9 12.1-8.6 13.3-6.1-2.7 6.2-23.1m60.8-42.6s10.2 16.8 24.3 24.5l-1.5 4.5s-15-2.3-27.2-14.4"/><path d="M1617.8 568.2l19.1 9.5 3.8-8-13.7-8.8s-7.2 1.8-7.5 2.8m-200.4 16.5s56.7 96 62 114.2l4.9-1.4s-13.7-66.2-40.7-109.1"/><path d="M1423.6 588.1s5.2 57.4-28.2 99.7l6.3 1.2s35.2-31.3 38.4-72.4m115.7-41.6s-18.4 54.3-22.5 81.1c0 0 50.9 19.8 86-8l-36-70.8"/><path d="M1551.3 660.9l-6.8 39.2h3.4s20.1-29 20.4-37.2m16 0l13.9 37.2 6.8-2.1-1.4-40.7m-209.6 31l-4.1 10.9 24.5 8.6 12.1-7.1-24.7-11.6zm87 6.2l1.6 13.5 24.9 5.3 8.1-10-28.6-9.7zm63.3 5.6l-1.1 4.1 18.4 11.5 10.9-10.1-24.8-5.5m50.5 0l.7 5.7 27.2 9.9 5.1-12.3-26.2-5.4"/></g><g fill="none" stroke="#000" stroke-width="2" stroke-miterlimit="10"><ellipse transform="rotate(-78.93 216.025 752.003)" cx="216" cy="752" rx="12.5" ry="8.6"/><ellipse transform="rotate(-82.265 281.85 751.938)" cx="281.8" cy="751.9" rx="12.7" ry="8.5"/><path d="M283.6 739.4s11.1 1.2 11.1 12.5 1.1 14 2.2 16c0 0-3.5 1-7.5.9"/><path d="M290.2 747.2s1.4 6.5 2.2 10.7c.8 4.1 1.8 9 2.2 10.5m-4.8-12.1s.4 9.9 2.1 12.5m-5.5-6.9s.4 5.4 1.4 6.5m-76.5-5.1l-.6 3.4 3.8.7 1.5-3.1m64.2.1v2.8l3.4.4.9-4.2"/><path d="M202.7 765.9s11.8.1 18.7 4.2c0 0-7.8 31.9-10.7 36.3l-13.9-1.9 5.9-38.6zm0 0l-19.3 11.7s1 14.6 5.7 26.7h2.2s-.8-17.8-.2-23.2m10.2-6.3l-17.2 10.1"/><path d="M191.2 804.3l2.5 4.3-1.2 1.1h-1.3l.9 7-4.6-2.8 1.6-9.6zm30.2-34.2l8.2 13.4 11.6-10.3 1.6.9-13.2 18.7-10.7-13"/><path d="M241.2 773.2v-3.1l10.7-2.2v6.2h-9.1m-13.2 9.4v9.3m59.7-24c-6.4-2.2-17.2-2.1-17.2-2.1l-14.7 14.1.5 24.4s2.1.7 2.4.2c.3-.4 2.5-22 2.5-22l8.5-7.4s-3.9 13.9-2 25.6c0 0 10.2 2.2 14.7 1.2l7-22.8-1.7-11.2z"/><path d="M260.3 805.6l2.1 6.4-4.6 7-3.2-1.4 3.3-12.3m32.3-22.6s5.4 8.9 12.9 13l-.8 2.4s-8-1.2-14.5-7.7m14.5 7.7l10.2 5 2-4.2-7.3-4.7s-3.8.9-4 1.5m-106.5 8.8s30.1 51 32.9 60.7l2.6-.7s-7.3-35.2-21.6-58"/><path d="M199.1 808.6s2.7 30.5-15 53l3.4.6s18.7-16.6 20.4-38.5m61.5-22s-9.8 28.9-12 43.1c0 0 27.1 10.5 45.7-4.2L284 803"/><path d="M266.9 847.4l-3.6 20.8h1.8s10.7-15.4 10.8-19.8m8.6 0l7.4 19.8 3.6-1.1-.8-21.7m-111.3 16.5l-2.2 5.8 13 4.5 6.5-3.7-13.2-6.2zm46.2 3.3l.9 7.2 13.2 2.8 4.3-5.3-15.2-5.2zm33.7 3l-.7 2.2 9.8 6.1 5.8-5.4-13.1-2.9m26.8 0l.4 3 14.4 5.3 2.7-6.6-13.9-2.8"/></g><g fill="none" stroke="#000" stroke-width="2" stroke-miterlimit="10"><ellipse transform="rotate(-78.93 430.241 752.002)" cx="430.2" cy="752" rx="12.5" ry="8.6"/><ellipse transform="rotate(-82.265 496.067 751.938)" cx="496.1" cy="751.9" rx="12.7" ry="8.5"/><path d="M497.8 739.4s11.1 1.2 11.1 12.5 1.1 14 2.2 16c0 0-3.5 1-7.5.9"/><path d="M504.4 747.2s1.4 6.5 2.2 10.7c.8 4.1 1.8 9 2.2 10.5m-4.8-12.1s.4 9.9 2.1 12.5m-5.5-6.9s.4 5.4 1.4 6.5m-76.5-5.1l-.6 3.4 3.8.7 1.5-3.1m64.2.1v2.8l3.4.4.9-4.2"/><path d="M416.9 765.9s11.8.1 18.7 4.2c0 0-7.8 31.9-10.7 36.3l-13.9-1.9 5.9-38.6zm0 0l-19.3 11.7s1 14.6 5.7 26.7h2.2s-.8-17.8-.2-23.2m10.2-6.3l-17.1 10.1"/><path d="M405.5 804.3l2.5 4.3-1.3 1.1h-1.2l.8 7-4.6-2.8 1.6-9.6zm30.1-34.2l8.2 13.4 11.6-10.3 1.6.9-13.2 18.7-10.7-13"/><path d="M455.4 773.2v-3.1l10.7-2.2v6.2H457m-13.2 9.4v9.3m59.7-24c-6.4-2.2-17.2-2.1-17.2-2.1l-14.7 14.1.5 24.4s2.1.7 2.4.2c.3-.4 2.5-22 2.5-22l8.5-7.4s-3.9 13.9-2 25.6c0 0 10.2 2.2 14.7 1.2l7-22.8-1.7-11.2z"/><path d="M474.5 805.6l2.1 6.4-4.5 7-3.3-1.4 3.3-12.3m32.3-22.6s5.4 8.9 12.9 13l-.8 2.4s-8-1.2-14.5-7.7m14.5 7.7l10.2 5 2-4.2-7.3-4.7s-3.8.9-4 1.5M411 804.5s30.1 51 32.9 60.7l2.6-.7s-7.3-35.2-21.6-58"/><path d="M413.3 808.6s2.7 30.5-15 53l3.4.6s18.7-16.6 20.4-38.5m61.5-22s-9.8 28.9-12 43.1c0 0 27.1 10.5 45.7-4.2L498.2 803"/><path d="M481.2 847.4l-3.6 20.8h1.8s10.7-15.4 10.8-19.8m8.5 0l7.4 19.8 3.6-1.1-.7-21.7m-111.4 16.5l-2.2 5.8 13.1 4.5 6.4-3.7-13.2-6.2zm46.2 3.3l.9 7.2 13.2 2.8 4.3-5.3-15.2-5.2zm33.7 3l-.6 2.2 9.7 6.1 5.8-5.4-13.1-2.9m26.8 0l.4 3 14.4 5.3 2.7-6.6-13.9-2.8"/></g><g fill="none" stroke="#000" stroke-width="2" stroke-miterlimit="10"><ellipse transform="rotate(-78.93 610.702 752.71)" cx="610.7" cy="752.7" rx="12.5" ry="8.6"/><ellipse transform="rotate(-82.265 676.528 752.645)" cx="676.5" cy="752.6" rx="12.7" ry="8.5"/><path d="M678.3 740.1s11.1 1.2 11.1 12.5 1.1 14 2.2 16c0 0-3.5 1-7.5.9"/><path d="M684.9 747.9s1.4 6.5 2.2 10.7 1.8 9 2.2 10.5m-4.9-12.1s.4 9.9 2.1 12.5m-5.4-6.9s.4 5.4 1.4 6.5M606 764l-.6 3.4 3.8.7 1.5-3.1m64.1.1v2.8l3.5.4.9-4.2"/><path d="M597.3 766.6s11.8.1 18.7 4.2c0 0-7.8 31.9-10.7 36.3l-13.9-1.9 5.9-38.6zm0 0L578 778.2s1 14.6 5.7 26.7h2.2s-.8-17.8-.2-23.2m10.3-6.1l-17.2 10.1m7.1 19.3l2.5 4.3-1.2 1.1h-1.3l.8 7-4.5-2.8 1.5-9.6z"/><path d="M616 770.8l8.3 13.4 11.6-10.3 1.6.9-13.2 18.7-10.8-13"/><path d="M635.9 773.9v-3.1l10.7-2.2v6.2h-9.1m-13.2 9.4v9.3m59.7-24c-6.4-2.2-17.2-2.1-17.2-2.1l-14.7 14.1.5 24.4s2.1.7 2.4.2c.3-.4 2.5-22 2.5-22l8.5-7.4s-3.9 13.9-2 25.6c0 0 10.2 2.2 14.7 1.2l7-22.8-1.7-11.2z"/><path d="M655 806.3l2.1 6.4-4.6 7.1-3.2-1.5 3.3-12.3m32.3-22.6s5.4 8.9 12.9 13l-.8 2.4s-8-1.2-14.5-7.7m14.5 7.7l10.2 5 2-4.2-7.3-4.7s-3.8.9-4 1.5m-106.5 8.8s30.1 51 32.9 60.7l2.6-.7s-7.3-35.2-21.6-58"/><path d="M593.8 809.3s2.7 30.5-15 53l3.4.6s18.7-16.6 20.4-38.5m61.4-22s-9.8 28.9-12 43.1c0 0 27.1 10.5 45.7-4.2l-19.1-37.6"/><path d="M661.6 848.1l-3.6 20.8h1.8s10.7-15.4 10.8-19.8m8.6 0l7.4 19.8 3.6-1.1-.8-21.7m-111.3 16.5l-2.2 5.8 13 4.5 6.4-3.7-13.1-6.2zm46.2 3.3l.8 7.2 13.3 2.8 4.3-5.3-15.2-5.2zm33.6 3l-.6 2.2 9.8 6.1 5.8-5.4-13.2-2.9m26.9 0l.3 3 14.5 5.3 2.7-6.6-13.9-2.8"/></g><g fill="none" stroke="#000" stroke-width="2" stroke-miterlimit="10"><ellipse transform="rotate(-78.93 824.918 752.709)" cx="824.9" cy="752.7" rx="12.5" ry="8.6"/><ellipse transform="rotate(-82.265 890.745 752.645)" cx="890.7" cy="752.6" rx="12.7" ry="8.5"/><path d="M892.5 740.1s11.1 1.2 11.1 12.5 1.1 14 2.2 16c0 0-3.5 1-7.5.9"/><path d="M899.1 747.9s1.4 6.5 2.2 10.7 1.8 9 2.2 10.5m-4.8-12.1s.4 9.9 2.1 12.5m-5.5-6.9s.4 5.4 1.4 6.5m-76.5-5.1l-.6 3.4 3.8.7 1.5-3.1m64.1.1v2.8l3.5.4.9-4.2"/><path d="M811.6 766.6s11.8.1 18.7 4.2c0 0-7.8 31.9-10.7 36.3l-13.9-1.9 5.9-38.6zm0 0l-19.3 11.7s1 14.6 5.7 26.7h2.2s-.8-17.8-.2-23.2m10.2-6.2L793 785.7"/><path d="M800.1 805l2.5 4.3-1.2 1.1h-1.3l.9 7-4.6-2.8 1.6-9.6zm30.2-34.2l8.2 13.4 11.6-10.3 1.6.9-13.2 18.7-10.7-13"/><path d="M850.1 773.9v-3.1l10.7-2.2v6.2h-9.1m-13.2 9.4v9.3m59.7-24c-6.4-2.2-17.2-2.1-17.2-2.1l-14.7 14.1.5 24.4s2.1.7 2.4.2c.3-.4 2.5-22 2.5-22l8.5-7.4s-3.9 13.9-2 25.6c0 0 10.2 2.2 14.7 1.2l7-22.8-1.7-11.2z"/><path d="M869.2 806.3l2.1 6.4-4.6 7.1-3.2-1.5 3.3-12.3m32.3-22.6s5.4 8.9 12.9 13l-.8 2.4s-8-1.2-14.5-7.7m14.5 7.7l10.2 5 2-4.2-7.3-4.7s-3.8.9-4 1.5m-106.5 8.8s30.1 51 32.9 60.7l2.6-.7s-7.3-35.2-21.6-58"/><path d="M808 809.3s2.7 30.5-15 53l3.4.6s18.7-16.6 20.4-38.5m61.5-22s-9.8 28.9-12 43.1c0 0 27.1 10.5 45.7-4.2l-19.1-37.6"/><path d="M875.8 848.1l-3.6 20.8h1.8s10.7-15.4 10.8-19.8m8.6 0l7.4 19.8 3.6-1.1-.8-21.7m-111.3 16.5l-2.2 5.8 13 4.5 6.5-3.7-13.2-6.2zm46.2 3.3l.9 7.2 13.2 2.8 4.3-5.3-15.2-5.2zm33.7 3l-.7 2.2 9.8 6.1 5.8-5.4-13.1-2.9m26.8 0l.3 3 14.5 5.3 2.7-6.6-13.9-2.8"/></g><g fill="none" stroke="#000" stroke-width="2" stroke-miterlimit="10"><ellipse transform="rotate(-78.93 1003.545 750.807)" cx="1003.5" cy="750.8" rx="12.5" ry="8.6"/><ellipse transform="rotate(-82.265 1069.371 750.744)" cx="1069.4" cy="750.7" rx="12.7" ry="8.5"/><path d="M1071.1 738.2s11.1 1.2 11.1 12.5 1.1 14 2.2 16c0 0-3.5 1-7.5.9"/><path d="M1077.7 746s1.4 6.5 2.2 10.7 1.8 9 2.2 10.5m-4.8-12.1s.4 9.9 2.1 12.5m-5.5-6.9s.4 5.4 1.4 6.5m-76.5-5.1l-.6 3.4 3.8.7 1.5-3.1m64.2.1v2.8l3.4.4.9-4.2"/><path d="M990.2 764.7s11.8.1 18.7 4.2c0 0-7.8 31.9-10.7 36.3l-13.9-1.9 5.9-38.6zm0 0l-19.3 11.7s1 14.6 5.7 26.7h2.2s-.8-17.8-.2-23.2m10.2-6.2l-17.1 10.1"/><path d="M978.8 803.1l2.5 4.3-1.3 1.1h-1.2l.8 7-4.6-2.8 1.6-9.6zm30.1-34.2l8.2 13.4 11.6-10.3 1.6.9-13.2 18.7-10.7-13m22.3-6.6v-3.1l10.7-2.2v6.2h-9.1m-13.2 9.4v9.3m59.7-24c-6.4-2.2-17.2-2.1-17.2-2.1l-14.7 14.1.5 24.4s2.1.7 2.4.2 2.5-22 2.5-22l8.5-7.4s-3.9 13.9-2 25.6c0 0 10.2 2.2 14.7 1.2l7-22.8-1.7-11.2z"/><path d="M1047.9 804.4l2 6.4-4.5 7.1-3.3-1.5 3.3-12.3m32.3-22.6s5.4 8.9 12.9 13l-.8 2.4s-8-1.2-14.5-7.7"/><path d="M1089.8 796.9l10.2 5 2-4.2-7.3-4.7s-3.8.9-4 1.5m-106.4 8.8s30.1 51 32.9 60.7l2.6-.7s-7.3-35.2-21.6-58"/><path d="M986.6 807.4s2.7 30.5-15 53l3.4.6s18.7-16.6 20.4-38.5m61.5-22s-9.8 28.9-12 43.1c0 0 27.1 10.5 45.7-4.2l-19.1-37.6"/><path d="M1054.5 846.2l-3.6 20.8h1.8s10.7-15.4 10.8-19.8m8.5 0l7.4 19.8 3.6-1.1-.7-21.7m-111.4 16.5l-2.2 5.8 13.1 4.5 6.4-3.7-13.2-6.2zm46.2 3.3l.9 7.2 13.2 2.8 4.3-5.3-15.2-5.2zm33.7 3l-.6 2.2 9.7 6.1 5.8-5.4-13.1-2.9m26.8 0l.4 3 14.4 5.3 2.7-6.6-13.9-2.8"/></g><g fill="none" stroke="#000" stroke-width="2" stroke-miterlimit="10"><ellipse transform="rotate(-78.93 1217.761 750.806)" cx="1217.8" cy="750.8" rx="12.5" ry="8.6"/><ellipse transform="rotate(-82.265 1283.588 750.744)" cx="1283.6" cy="750.7" rx="12.7" ry="8.5"/><path d="M1285.3 738.2s11.1 1.2 11.1 12.5 1.1 14 2.2 16c0 0-3.5 1-7.5.9"/><path d="M1291.9 746s1.4 6.5 2.2 10.7c.8 4.1 1.8 9 2.2 10.5m-4.8-12.1s.4 9.9 2.1 12.5m-5.5-6.9s.4 5.4 1.4 6.5m-76.4-5.1l-.7 3.4 3.8.7 1.5-3.1m64.2.1v2.8l3.4.4 1-4.2"/><path d="M1204.4 764.7s11.8.1 18.7 4.2c0 0-7.8 31.9-10.7 36.3l-13.9-1.9 5.9-38.6zm0 0l-19.3 11.7s1 14.6 5.7 26.7h2.2s-.8-17.8-.2-23.2m10.2-6.2l-17.1 10.1"/><path d="M1193 803.1l2.5 4.3-1.3 1.1h-1.2l.8 7-4.6-2.8 1.6-9.6zm30.1-34.2l8.2 13.4 11.6-10.3 1.6.9-13.2 18.7-10.7-13m22.3-6.6v-3.1l10.8-2.2v6.2h-9.2m-13.2 9.4v9.3m59.8-24c-6.4-2.2-17.2-2.1-17.2-2.1l-14.7 14.1.5 24.4s2.1.7 2.4.2c.3-.4 2.5-22 2.5-22l8.5-7.4s-3.9 13.9-2 25.6c0 0 10.2 2.2 14.7 1.2l7-22.8-1.7-11.2z"/><path d="M1262.1 804.4l2 6.4-4.5 7.1-3.3-1.5 3.3-12.3m32.3-22.6s5.4 8.9 12.9 13l-.8 2.4s-8-1.2-14.5-7.7m14.5 7.7l10.2 5 2-4.2-7.3-4.7s-3.8.9-4 1.5m-106.4 8.8s30.1 51 32.9 60.7l2.6-.7s-7.3-35.2-21.6-58"/><path d="M1200.8 807.4s2.7 30.5-15 53l3.4.6s18.7-16.6 20.4-38.5m61.5-22s-9.8 28.9-12 43.1c0 0 27.1 10.5 45.7-4.2l-19.1-37.6"/><path d="M1268.7 846.2l-3.6 20.8h1.8s10.7-15.4 10.8-19.8m8.6 0l7.3 19.8 3.6-1.1-.7-21.7m-111.4 16.5l-2.1 5.8 13 4.5 6.4-3.7-13.2-6.2zm46.2 3.3l.9 7.2 13.2 2.8 4.3-5.3-15.2-5.2zm33.7 3l-.6 2.2 9.8 6.1 5.8-5.4-13.2-2.9"/><path d="M1293.6 867l.4 3 14.5 5.3 2.6-6.6-13.9-2.8"/></g><g fill="none" stroke="#000" stroke-width="2" stroke-miterlimit="10"><ellipse transform="rotate(-78.93 1398.222 751.513)" cx="1398.2" cy="751.5" rx="12.5" ry="8.6"/><ellipse transform="rotate(-82.265 1464.05 751.451)" cx="1464" cy="751.5" rx="12.7" ry="8.5"/><path d="M1465.8 738.9s11.1 1.2 11.1 12.5 1.1 14 2.2 16c0 0-3.5 1-7.5.9"/><path d="M1472.4 746.7s1.4 6.5 2.2 10.7c.8 4.1 1.8 9 2.2 10.5m-4.8-12.1s.4 9.9 2.1 12.5m-5.5-6.9s.4 5.4 1.4 6.5m-76.5-5.1l-.6 3.4 3.8.7 1.5-3.1m64.2.1v2.8l3.4.4.9-4.2"/><path d="M1384.9 765.4s11.8.1 18.7 4.2c0 0-7.8 31.9-10.7 36.3L1379 804l5.9-38.6zm0 0l-19.3 11.7s1 14.6 5.7 26.7h2.2s-.8-17.8-.2-23.2m10.2-6.2l-17.2 10.1"/><path d="M1373.4 803.8l2.5 4.4-1.2 1h-1.3l.9 7.1-4.6-2.9 1.6-9.6zm30.2-34.2l8.2 13.4 11.6-10.3 1.6.9-13.2 18.7-10.7-13m22.3-6.6v-3.1l10.7-2.2v6.2h-9.1m-13.2 9.4v9.3m59.7-24c-6.4-2.2-17.2-2.1-17.2-2.1l-14.7 14.1.5 24.4s2.1.7 2.4.2c.3-.4 2.5-22 2.5-22l8.5-7.4s-3.9 13.9-2 25.6c0 0 10.2 2.2 14.7 1.2l7-22.8-1.7-11.2z"/><path d="M1442.5 805.1l2.1 6.4-4.6 7.1-3.2-1.5 3.3-12.3m32.3-22.6s5.4 8.9 12.9 13l-.8 2.4s-8-1.2-14.5-7.7m14.5 7.7l10.2 5 2-4.2-7.3-4.7s-3.8.9-4 1.5m-106.5 8.8s30.1 51 32.9 60.7l2.6-.7s-7.3-35.2-21.6-58"/><path d="M1381.3 808.2s2.7 30.5-15 53l3.4.6s18.7-16.6 20.4-38.5m61.5-22.1s-9.8 28.9-12 43.1c0 0 27.1 10.5 45.7-4.2l-19.1-37.6"/><path d="M1449.1 846.9l-3.6 20.8h1.8s10.7-15.4 10.8-19.8m8.6 0l7.4 19.8 3.6-1.1-.8-21.7m-111.3 16.5l-2.2 5.8 13 4.5 6.5-3.7-13.2-6.2zm46.2 3.3l.9 7.2 13.2 2.8 4.3-5.3-15.2-5.2zm33.7 3l-.7 2.2 9.8 6.1 5.8-5.4-13.1-2.9m26.8 0l.3 3 14.5 5.3 2.7-6.6-13.9-2.8"/></g><g fill="none" stroke="#000" stroke-width="2" stroke-miterlimit="10"><ellipse transform="rotate(-78.93 1612.438 751.512)" cx="1612.4" cy="751.5" rx="12.5" ry="8.6"/><ellipse transform="rotate(-82.265 1678.266 751.451)" cx="1678.3" cy="751.5" rx="12.7" ry="8.5"/><path d="M1680 738.9s11.1 1.2 11.1 12.5 1.1 14 2.2 16c0 0-3.5 1-7.5.9"/><path d="M1686.6 746.7s1.4 6.5 2.2 10.7c.8 4.1 1.8 9 2.2 10.5m-4.8-12.1s.4 9.9 2.1 12.5m-5.5-6.9s.4 5.4 1.4 6.5m-76.5-5.1l-.6 3.4 3.8.7 1.5-3.1m64.2.1v2.8l3.4.4.9-4.2"/><path d="M1599.1 765.4s11.8.1 18.7 4.2c0 0-7.8 31.9-10.7 36.3l-13.9-1.9 5.9-38.6zm0 0l-19.3 11.7s1 14.6 5.7 26.7h2.2s-.8-17.8-.2-23.2m10.2-6.2l-17.1 10.1"/><path d="M1587.7 803.8l2.5 4.4-1.3 1h-1.2l.8 7.1-4.6-2.9 1.6-9.6zm30.1-34.2l8.2 13.4 11.6-10.3 1.6.9-13.2 18.7-10.7-13m22.3-6.6v-3.1l10.7-2.2v6.2h-9.1M1626 783v9.3m59.7-24c-6.4-2.2-17.2-2.1-17.2-2.1l-14.7 14.1.5 24.4s2.1.7 2.4.2c.3-.4 2.5-22 2.5-22l8.5-7.4s-3.9 13.9-2 25.6c0 0 10.2 2.2 14.7 1.2l7-22.8-1.7-11.2z"/><path d="M1656.7 805.1l2.1 6.4-4.5 7.1-3.3-1.5 3.3-12.3m32.3-22.6s5.4 8.9 12.9 13l-.8 2.4s-8-1.2-14.5-7.7m14.5 7.7l10.2 5 2-4.2-7.3-4.7s-3.8.9-4 1.5m-106.4 8.8s30.1 51 32.9 60.7l2.6-.7s-7.3-35.2-21.6-58"/><path d="M1595.5 808.2s2.7 30.5-15 53l3.4.6s18.7-16.6 20.4-38.5m61.5-22.1s-9.8 28.9-12 43.1c0 0 27.1 10.5 45.7-4.2l-19.1-37.6"/><path d="M1663.4 846.9l-3.6 20.8h1.8s10.7-15.4 10.8-19.8m8.5 0l7.4 19.8 3.6-1.1-.7-21.7m-111.4 16.5l-2.2 5.8 13.1 4.5 6.4-3.7-13.2-6.2zm46.2 3.3l.9 7.2 13.2 2.8 4.3-5.3-15.2-5.2zm33.7 3l-.6 2.2 9.7 6.1 5.8-5.4-13.1-2.9m26.8 0l.4 3 14.4 5.3 2.7-6.6-13.9-2.8"/></g><path d="M243 390c41.5-51.9 70.7-96.1 97.5-136.5 66.8-100.9 64.3-113.6 94.5-141 53-48 115.3-58.6 172.5-67.5 148.2-23.2 205.5 27.2 369 25.5 81.6-.8 60.4-14.3 198-27 261.3-24.1 308 19.5 322.5 36 18.9 21.6 10.8 28.7 51 123 28.9 67.8 44 101.4 63 130.5 58.7 90.1 102.4 84.7 142.5 166.5 24 49.1 29.2 93.5 31.5 115.5 6.6 62.3-4.2 110.8-16.5 163.5-14.7 63-22 94.5-37.5 117-74.3 108-265.8 90-280.5 88.5-96.1-10.2-92.7-44.4-216-63-79.4-12-145.7-7.6-214.5-3-15 1-77.5 5.4-184.5 24-134.7 23.4-135.5 33.9-228 49.5C504.6 1008.8 369.7 1030 228 978c-45.4-16.7-79.8-29.8-108-64.5C61.1 841 79 736.2 91.5 663c6.3-37.1 16.7-94.4 54-156 26.5-43.7 38.3-43 97.5-117zm-58.9 168.3s-55.1 56.6-44.6 148.2m61.8-116.2s-36.3 52-27.3 87.1M1365.5 60s112.6-5.2 120.5 72.4m-100.4-54s36.4-7.6 53.3 23.3M740 96.2s41.1-43 120.8-8.1m-88 22.2s26.2-24.4 52.7-14.1m867.9 409.6s53.6 9.2 28.1 90.8m-457.1 73.9s64.7 38.1 105.3-14.5m83.7 269.9s98.3 37.4 160-14.2m-323.8-273.2s32.8 14.6 52.6 0M281.8 939s117.8 64.5 220.2 13.5" fill="none" stroke="#000" stroke-width="2" stroke-miterlimit="10"/></svg>