<svg xmlns="http://www.w3.org/2000/svg" viewBox="0 0 430.17 203"><path d="M187.39 9.36h-12.67l-11.87 24.1h12.59zm-1.75 158.93c0 3.05-2.14 5.09-5.35 5.09h-26.77c-3.21 0-5.35-2.04-5.35-5.09V46.19h-16.06v122.09c0 11.19 9.64 20.35 21.42 20.35h26.77c11.78 0 21.42-9.16 21.42-20.35V46.19h-16.06v122.1zM268 136.14l-25.49-89.95h-21.63v142.45h16.06V80.38l27.63 98.08h6.85l28.28-98.08v108.26h16.06V46.19h-21.63zm66.99 52.5h58.9v-15.26h-42.84v-52.51h32.13v-15.26h-32.13V61.45h42.84V46.19h-58.9zM117.53 46.19H33.48l26.65 56.92 8.64-18.5L57.49 60.5h35.74L33.27 188.64h84.1l-26.64-57.05-8.63 18.48 11.21 24.05H57.72z" fill="#22346a"/></svg>