<svg id="Layer_1" xmlns="http://www.w3.org/2000/svg" viewBox="0 0 910.69 203"><style>.st0{fill:#22346a}</style><path class="st0" d="M187.39 9.36h-12.67l-11.87 24.1h12.59zm-1.75 158.93c0 3.05-2.14 5.09-5.35 5.09h-26.77c-3.21 0-5.35-2.04-5.35-5.09V46.19h-16.06v122.09c0 11.19 9.64 20.35 21.42 20.35h26.77c11.78 0 21.42-9.16 21.42-20.35V46.19h-16.06v122.1zM268 136.14l-25.49-89.95h-21.63v142.45h16.06V80.38l27.63 98.08h6.85l28.28-98.08v108.26h16.06V46.19h-21.63zm66.99 52.5h58.9v-15.26h-42.84v-52.51h32.13v-15.26h-32.13V61.45h42.84V46.19h-58.9zM117.53 46.19H33.48l26.65 56.92 8.64-18.5L57.49 60.5h35.74L33.27 188.64h84.1l-26.64-57.05-8.63 18.48 11.21 24.05H57.72zm359.81 6.56h-32.67v136.91h-3.33V52.75h-32.67v-5.27h68.67v5.27zm37.25 76.08h-31.13v60.84h-3.33V47.48h28.6c9 0 16.16 3.68 21.48 11.04 5.32 7.36 7.98 17.35 7.98 29.98 0 9.7-1.9 18.18-5.7 25.44-3.8 7.26-8.64 11.77-14.52 13.53l23.98 60.84v1.37h-3.51l-23.85-60.85zm-31.13-5.28h28.29c6.9 0 12.48-3.32 16.73-9.96s6.38-15.01 6.38-25.1c0-11.07-2.35-19.79-7.06-26.17-4.71-6.38-11.15-9.57-19.32-9.57h-25.03v70.8z"/><path class="st0" d="M597.69 147.19h-43.95l-9.99 42.48h-3.64L573.7 47.48h4.07l33.59 142.19h-3.64l-10.03-42.48zm-42.72-5.28h41.48l-20.71-88.09-20.77 88.09zm63.99 47.76h-3.33V47.48h3.33v142.19zm79.16 0h-3.33l-57.94-133.2v133.2h-3.39V47.48h3.39l57.94 132.91V47.48h3.33v142.19zm17.82 0h-3.33V47.48h3.33v142.19zm79.16 0h-3.33l-57.94-133.2v133.2h-3.39V47.48h3.39l57.94 132.91V47.48h3.33v142.19zm75.27-15.24c-2.26 4.95-6.22 9.05-11.9 12.3s-11.92 4.88-18.74 4.88c-6.66 0-12.59-2.57-17.81-7.71-5.22-5.14-9.3-12.4-12.23-21.78-2.94-9.38-4.45-19.99-4.53-31.84v-24.41c0-11.65 1.42-22.1 4.25-31.35 2.83-9.24 6.82-16.39 11.96-21.44 5.14-5.04 10.91-7.57 17.32-7.57 8.92 0 16.18 3.61 21.79 10.84 5.61 7.23 8.87 17.09 9.77 29.59h-3.33c-1.11-11.33-4.09-20.02-8.94-26.07-4.85-6.05-11.28-9.08-19.29-9.08-9.04 0-16.33 5.11-21.88 15.33-5.55 10.22-8.32 23.67-8.32 40.33v22.66c0 11.13 1.3 21.06 3.91 29.79 2.61 8.72 6.29 15.48 11.03 20.26s10.18 7.18 16.3 7.18c6 0 11.57-1.4 16.7-4.21 5.14-2.8 8.67-6.2 10.6-10.17v-41.48H839.6v-5.27h30.76v49.22z"/></svg>