<svg id="Layer_1" data-name="Layer 1" xmlns="http://www.w3.org/2000/svg" viewBox="0 0 685.82 182.26"><defs><style>.cls-1{fill:#22346a}</style></defs><path class="cls-1" d="M154.11 0h-12.66l-11.87 24.1h12.59L154.11 0z"/><path class="cls-1" d="M185.64 168.29c0 3.05-2.14 5.09-5.35 5.09h-26.78c-3.21 0-5.35-2-5.35-5.09V46.19h-16.07v122.1c0 11.19 9.64 20.35 21.42 20.35h26.78c11.78 0 21.41-9.16 21.41-20.35V46.19h-16.06z" transform="translate(-33.27 -9.36)"/><path class="cls-1" d="M234.72 126.77l-25.48-89.94H187.6v142.44h16.07V71.02l27.63 98.08h6.85l28.27-98.08v108.25h16.07V36.83h-21.63l-26.14 89.94zm66.99 52.5h58.91v-15.26h-42.84v-52.5h32.13V96.25h-32.13V52.09h42.84V36.83h-58.91v142.44zM84.25 36.83H.21l26.64 56.91 8.64-18.49-11.28-24.11h35.75L0 179.27h84.1l-26.65-57.05-8.62 18.49 11.21 24.05h-35.6L84.25 36.83z"/><path class="cls-1" d="M441.23 175.8l1.78 8.59 1.79-8.59 30.14-128.32h3.64l-33.53 142.19H441L407.45 47.48h3.64zm44.94 13.87h-3.33V47.48h3.33zm68.25-34.09a39.41 39.41 0 00-2.68-15.38 29.65 29.65 0 00-8.45-11.13q-5.76-4.83-17.41-9.91t-17.47-10.26a31.39 31.39 0 01-8.54-12 45 45 0 01-2.71-16.6q0-15.53 8.26-25.15t21.51-9.61a24.65 24.65 0 0115.5 5.32q6.87 5.32 10.63 14.94a59.23 59.23 0 013.76 21.73h-3.33q0-15.92-7.39-26.32T526.93 50.8q-11.83 0-19.14 8.35t-7.31 20.95q0 12.8 6.35 20.6t21 13.82q14.61 6 21.39 13.92 8.63 10 8.63 26.95a44.84 44.84 0 01-3.82 19 29.41 29.41 0 01-10.85 12.75 28.74 28.74 0 01-15.78 4.49 30.7 30.7 0 01-29.19-19.73q-3.92-9.46-3.91-22.36h3.33q0 17.47 8.26 27.15t21.51 9.67a24.88 24.88 0 0019.41-8.55q7.61-8.56 7.61-22.23zm14.06 34.09h-3.32V47.48h3.32zm78.05-60.45q0 18.45-4.16 32.66t-11.87 22q-7.69 7.75-17.75 7.76-15.16 0-24.53-17.09t-9.37-46.09v-20.53A116.78 116.78 0 01583 75.31q4.17-14.25 11.9-22t17.72-7.76q10.05 0 17.78 7.76t11.93 22.07a116.08 116.08 0 014.19 32.57zm-3.33-21.49q0-25.78-8.26-41.35T612.63 50.8q-13.87 0-22.13 15.48t-8.26 42.14v20.8a109.42 109.42 0 003.73 30q3.74 13 10.63 20.06a21.93 21.93 0 0016.15 7q14.06 0 22.25-15.53t8.2-42.38zm75.89 81.94h-3.33L657.82 56.46v133.21h-3.39V47.48h3.39l57.94 132.91V47.48h3.33z" transform="translate(-33.27 -9.36)"/></svg>