<svg version="1" xmlns="http://www.w3.org/2000/svg" width="432" height="432"><ellipse transform="rotate(-77.936 157.932 87.563)" fill="none" stroke="#000" stroke-width="2" stroke-miterlimit="10" cx="157.9" cy="87.6" rx="29.5" ry="18.3"/><path fill="none" stroke="#000" stroke-width="2" stroke-miterlimit="10" d="M144.9 112.3l-3.6 7.9m12.5-3.5c0 .8-.8 6.3-.8 6.3"/><path fill="none" stroke="#000" stroke-width="2" stroke-miterlimit="10" d="M155.4 174.9c-2.6 23.4-5.1 46.5-5.1 46.5-21.7 10-44 0-44 0-.3-66.3 24.5-104 24.5-104s23.2 4 29.9 9.2c0 0-1.3 10-2.7 23"/><path fill="none" stroke="#000" stroke-width="2" stroke-miterlimit="10" d="M137.8 140.8s10.2 28.3 25.5 44l47.5-2.3 2.5-6.7-42-3.3s-17.5-28.5-20-37.3m20 37.3l-8 12.3"/><path fill="none" stroke="#000" stroke-width="2" stroke-miterlimit="10" d="M213.3 175.8h5.5l11.8 7.8 1.2 5.2h-5s-2.5-2.5-3.3-2.8-12.7-3.5-12.7-3.5m-51.2-46s11 30.4 22.4 36.9"/><path fill="none" stroke="#000" stroke-width="2" stroke-miterlimit="10" d="M206.2 182.7l2.6 3.2 8.2 1 3.1 1.9 2.7-3M97 244.2l-5.5-126.9 14.8-1.1s1 49.4 1.6 75.9M93 244.2l3.5 18.6 106-2.3v-13.7zm14.9-22.2s-2.2 13.8 2.3 22.7"/><path fill="none" stroke="#000" stroke-width="2" stroke-miterlimit="10" d="M150.5 220.2s51.7 9.5 72.4 24c0 0-5.9 74.2-13.9 106.2l-8 .5"/><path fill="none" stroke="#000" stroke-width="2" stroke-miterlimit="10" d="M184.2 260.9l-13.4 82.9h6.7l12.4-33.3m-19.1 33.3l-2 8.4 23.8 2.5m-15.1-10.9l14.4 2.4m-92.2-83.4l6.6 106.5h7.7l-1.3-106.9"/><path fill="none" stroke="#000" stroke-width="2" stroke-miterlimit="10" d="M186.8 260.9l6.7 108.4h7.7l-1.4-108.4m10-70.7l1 7.1h57.7V190zm88.7-51l-32.1 48.5 3.8 2.3 34.1-46.2-5.8-4.6-14.8 1-24.9 43.5h-28.1m28.1 0l8.7 4.6m-58 1.7l4.7-3.6M194 197.3h146v12H194zm33.3 12l1.4 165L334 373V209.3M201.2 357.8l27.4 3.4m-19.7-10.7l19.6.5"/></svg>