<svg version="1" xmlns="http://www.w3.org/2000/svg" width="500" height="500"><path fill="#3B57A7" d="M-581 700c2-5 13-298 9-306s-15-72-15-79 18-16 28-21 59-110 59-110 35-31 46-28 98 44 98 44l61-12s-15-118 20-142S-175-6-161 9-43 40-20 29s55-49 123-50 151 6 161-14-24-93-26-120 2-102 72-105 91-31 142-11 103 47 124 60 77 17 95 31 45 56 45 56 16 153 25 161 115 40 129 44 72 28 69 56-47 125-72 118-67-27-67-27 1-9 1-13-10-20-22-27-55-15-67-18-89-12-106-12-49-2-54-2-46 3-46 3-82 24-90 29-23.5 12-23.5 12L382 215s-7 15-7 22 8 73 8 73-12 31-12 44-2 25 10 27 24-49 56 40c29 121-5 288-5 288l-605 54-315-19-93-44z"/></svg>