<svg version="1" xmlns="http://www.w3.org/2000/svg" width="432" height="432"><path fill="none" stroke="#000" stroke-width="2" stroke-miterlimit="10" d="M37.8 144.5s-3-42.5 40-43c17.1-.2 28.3 5.3 35.6 12.1"/><path fill="none" stroke="#000" stroke-width="2" stroke-miterlimit="10" d="M107.4 109s.3-15.2 14.2-17.5c12.9-2.1 19.2 10.5 19.2 10.5"/><path fill="none" stroke="#000" stroke-width="2" stroke-miterlimit="10" d="M139 108.6c2-11.1 9.1-24.8 32.3-25.8 39.5-1.8 40.8 32 40.8 32m-35.6-60.3s12.1-23.2 46.1-20 36 40.2 36 40.2m-.6-4.4s3.2-18 23.2-15.9 18.2 25.4 18.2 25.4M70.5 255.5s47.5 25 88.5-3 27.5-78.6 27.5-78.6m-5.6 53.8s42.6 10.3 70.6-19.7 17.5-65.5 17.5-65.5m-2.5 40c12.4-2.3 26.1-7.8 37.5-20 28-30 17.5-65.5 17.5-65.5"/><path fill="none" stroke="#000" stroke-width="2" stroke-miterlimit="10" d="M389 337l-45-21.7-35 35.7 36.3 48 50.7-54.3-31.3-38.1c23-22 27.8-45 27.8-45l-17.5-5-25.4 25.4-22.1 2-76-76"/><path fill="none" stroke="#000" stroke-width="2" stroke-miterlimit="10" d="M328.5 376.8l-31.2-23.1L293 325l-117.2-88.7m142 105.8l39.6 43.9m-30.1-53.7l44.6 38.2m-35.5-47.4l49 32.9"/></svg>