<svg version="1" xmlns="http://www.w3.org/2000/svg" width="432" height="432"><g fill="#27AAE1"><path d="M313.5 346.5l37.8 46.1-6 6.4-35.8-48.5zm5.3-3.3l38.6 42.8 8.6-9.2-45.8-37.3zm8.5-10.9l3.1-3.1 48.7 33.6-7.2 7.7zm9.1-9.2l3-3.1 51.8 29.8-5.8 6.2zm38.6-66.5l-20.3 29.7-17.1 3.7-10.3-6.2 22.4-1.8z"/><path d="M313.3 361l-11-15.3L299 319l-94.7-77.3c17.2-1.6 40.5-7.5 54.2-26.7l-6.9-6.9s-20.7 28.4-70.6 19.7l-5.1 8.6 6.5 4.9.1.5s.3 0 .7.1l110 82.6 4.3 29.4 30 21.5-14.2-14.4z"/></g><g fill="none" stroke="#000" stroke-width="2" stroke-miterlimit="10"><path d="M37.8 144.5s-3-42.5 40-43c17.1-.2 28.3 5.3 35.6 12.1"/><path d="M107.4 109s.3-15.2 14.2-17.5c12.9-2.1 19.2 10.5 19.2 10.5"/><path d="M139 108.6c2-11.1 9.1-24.8 32.3-25.8 39.5-1.8 40.8 32 40.8 32m-35.6-60.3s12.1-23.2 46.1-20 36 40.2 36 40.2m-.6-4.4s3.2-18 23.2-15.9 18.2 25.4 18.2 25.4M70.5 255.5s47.5 25 88.5-3 27.5-78.6 27.5-78.6m-5.6 53.8s42.6 10.3 70.6-19.7 17.5-65.5 17.5-65.5m-2.5 40c12.4-2.3 26.1-7.8 37.5-20 28-30 17.5-65.5 17.5-65.5"/><path d="M389 337l-45-21.7-35 35.7 36.3 48 50.7-54.3-31.3-38.1c23-22 27.8-45 27.8-45l-17.5-5-25.4 25.4-22.1 2-76-76"/><path d="M328.5 376.8l-31.2-23.1L293 325l-117.2-88.7m142 105.8l39.6 43.9m-30.1-53.7l44.6 38.2m-35.5-47.4l49 32.9"/></g></svg>