<svg version="1" xmlns="http://www.w3.org/2000/svg" width="432" height="432"><path fill="none" stroke="#000" stroke-width="2" stroke-miterlimit="10" d="M178.7 57.2s20.1 10.1 42.3 0V23.5l-10.2 9.2-10.9-25.6L188 33.8l-11.5-11.1 2.2 34.5z"/><path fill="none" stroke="#000" stroke-width="2" stroke-miterlimit="10" d="M215.2 59.2c4.9 6.5 8 16.2 8 27.1 0 19.6-10 35.4-22.4 35.4-12.4 0-22.4-15.9-22.4-35.4 0-10.3 2.8-19.6 7.3-26.1"/><path fill="none" stroke="#000" stroke-width="2" stroke-miterlimit="10" d="M178.7 57.2s-10.6 8.6-10.9 24.8-3.2 33.6-3.2 33.6 8.5 5.1 15.7 5.5m40.2-63.8s10.6 8.6 10.9 24.8c.2 16.1 3.2 33.6 3.2 33.6s-5.4 3.2-11.2 4.7"/><path fill="none" stroke="#000" stroke-width="2" stroke-miterlimit="10" d="M178.7 92.7s7.3 2.6 12.8 1c5.6-1.6 7.2-3.3 9.8-3.3 2.6 0 5.2 2.8 9.2 3.8 4.2 1 12.5-3.2 12.5-3.2m-70.6 48.7s47.9 56.4 97.5 5.3l-34.6-31.8"/><path fill="none" stroke="#000" stroke-width="2" stroke-miterlimit="10" d="M178.2 159.6l-1.2 75.1s29 11.2 53.3-.7l-4.7-71.7"/><path fill="none" stroke="#000" stroke-width="2" stroke-miterlimit="10" d="M188.2 115.6l-48.4 32.7s19.6 54.5 37.5 73.3m-9-68c-.8.4-21.7 12.8-21.7 12.8m13.6-8.1s12.7 37 17.3 42.3"/><path fill="none" stroke="#000" stroke-width="2" stroke-miterlimit="10" d="M169.5 212.5l-7.1 7.3 14.6 6.1m48.6-63.6l20.4 26.5 39.3-19.3-3.8-8.4-30 11.3-11.3-18.8m11.3 18.8l-5.5 16.4m58.5-38.7l-14.1 7.4.6 11.6 14.5 2.1v-21.7l-22.4-.6-1.6 12.2m3.8 8.4l5.7-.4m-.4-9.1l14.2-2.9m-13.8 6.3l14.5-.5m-14.5 3.5l13.8 1"/><circle fill="none" stroke="#000" stroke-width="2" stroke-miterlimit="10" cx="295.6" cy="115.6" r="6.1"/><path fill="none" stroke="#000" stroke-width="2" stroke-miterlimit="10" d="M293.5 121.7V149m0 20.2v36.1h6.2s-.4-16.7-.8-35.2m-.6-20.8c-.4-15.2-.7-27.6-.7-27.6m-43 49.4c-2.9-15.9-4.8-26.1-4.8-26.1M177 234.7l-4.3 169.6h8.6l22.4-164.9m2.6 0l23 164.9 8.9-.8-7.9-169.5m-57.6 170.3L134.2 416l21.8 10.2 25.4-16.1-.1-5.8"/><path fill="none" stroke="#000" stroke-width="2" stroke-miterlimit="10" d="M238.2 403.5l38.4 12.5-21.7 10.3-25.4-16.2.1-5.8m-86.5-247.2l-16.6 192.4s18 15.7 47 24.5m64.3 2.8c15.9-3.4 32.8-10.2 50.3-21.8 0 0-20.2-110.6-31.2-171.3M185.2 377c12.1 2.5 25.8 3.6 40.4 1.9"/></svg>