<svg version="1" xmlns="http://www.w3.org/2000/svg" width="432" height="432"><path fill="none" stroke="#000" stroke-width="2" stroke-miterlimit="10" d="M169 267.5c-4.7 29-29.9 51.2-60.3 51.2-33.7 0-61.1-27.3-61.1-61.1s27.3-61.1 61.1-61.1c16.1 0 30.7 6.2 41.6 16.4m4.5 4.8c.6.7 1.2 1.4 1.7 2.1l3.6 5.1c6 9.5 9.6 20.7 9.6 32.8 0 1.5-.1 3-.2 4.5m128.6-59.8c7.9-3.7 16.7-5.8 25.9-5.8 33.7 0 61.1 27.3 61.1 61.1s-27.3 61.1-61.1 61.1-61-27.4-61-61.1c0-22.5 12.2-42.1 30.3-52.7M224 274.4c-3.5 4.3-8.9 7.1-15 7.1-10.7 0-19.3-8.6-19.3-19.3 0-10.7 8.6-19.3 19.3-19.3s19.3 8.6 19.3 19.3c0 2.9-.7 5.7-1.8 8.2"/><path fill="none" stroke="#000" stroke-width="2" stroke-miterlimit="10" d="M322.5 249.6c.5-.1 1-.1 1.6-.1 4.5 0 8.2 3.7 8.2 8.2 0 4.5-3.7 8.2-8.2 8.2-4.5 0-8.2-3.7-8.2-8.2 0-1.3.3-2.6.9-3.7m-149.3-90.2s-1.8-15.8-18.9-17.3c-17.1-1.4-32.1-1.6-32.1-1.6l1 18.9h50zm62.2 124.6l23.6-16.7 1.9 6.7-19.1 13.6z"/><path fill="none" stroke="#000" stroke-width="2" stroke-miterlimit="10" d="M244.8 277.7L209 264.3v3.6l32.2 12.4M136 163.8l68.9 79.5m-61.1-79.5l67.8 79.3M166 198.3l-69.5 63.9s-2.8 4.9 0 4.9h93.3"/><path fill="none" stroke="#000" stroke-width="2" stroke-miterlimit="10" d="M169 203.4l-62 58.8h82.7m138.9-5l-21.2-25.4-29-85.1 6-30.8-6.6-1.7-3.4 27.5-31.1-6.7-1.1 7.5 30.6 5.2 3.5 9.4 26.9 77.7 18.9 26.5c.1.1 3.9 1.9 6.5-4.1zm-48.7-89.8l-115.3 20.7m-3.6-4.2l117.3-21.1m3.1 8.9c-1.4.9-62.2 74.1-62.2 74.1m59.1-78c-.3.1-63.4 76-63.4 76"/></svg>