<svg version="1" xmlns="http://www.w3.org/2000/svg" width="432" height="432"><path fill="none" stroke="#000" stroke-width="6" stroke-miterlimit="10" d="M297.9 215.2c2.8-8.6 4.4-17.7 4.4-27.2 0-47.6-38.6-86.2-86.2-86.2s-86.2 38.6-86.2 86.2c0 9.5 1.6 18.7 4.4 27.2l.1.3c1.2 3.4 2.5 6.8 4.1 10l43.2 106.2h68.8l43.2-106.2c1.6-3.2 2.9-6.6 4.1-10l.1-.3zM181.5 331.8l-6.5 5.4 6.5 4.6H252l6-5-7.5-5m-69.5 10l-6.5 5.4 6.5 4.6h70.5l6-5-7.5-5m-69 10l-6.5 5.4 6.5 4.6h70.5l6-5-7.5-5m-69 10l-6.5 5.4 6.5 4.6h70.5l6-5-7.5-5m-69 10l-6.5 5.4 6.5 4.6h70.5l6-5-7.5-5m-69 10.4l-6.5 5.6 6.5 4.4h70.5l6-5-7.5-5m1.5 10l-6.5 18h-56.5l-7.5-18m-27-95l-60.5 10m44.5-51l-73 4.6m58.8-47c-5.2-1.5-81.8-4.5-81.8-4.5m74-35.5c-2.5-1.5-74-32-74-32m91.5-13c-1-2-66-39-66-39m102.5 15l-40.2-52.6M202 81.8l-10-55m52 63l18.5-58.6m25 85L333 64.8m-30.8 81.4l66.3-26.4M313 184.2l68-5.4m-73.5 42.4l76 18m-86 21.6l71 18M279 307.2l50 13"/></svg>