<svg version="1" xmlns="http://www.w3.org/2000/svg" width="432" height="432"><path fill="none" stroke="#000" stroke-width="2" stroke-miterlimit="10" d="M317.5 270.1H114.9c-6.5 0-11.9-5.3-11.9-11.9v-39.9c0-6.5 5.3-11.9 11.9-11.9h202.6c6.5 0 11.9 5.3 11.9 11.9v39.9c-.1 6.6-5.4 11.9-11.9 11.9z"/><path fill="none" stroke="#000" stroke-width="2" stroke-miterlimit="10" d="M320.3 207l-33.2-28.6s-15-49-16.3-49H162.1l-11.2 49-40.7 28.6"/><path fill="none" stroke="#000" stroke-width="2" stroke-miterlimit="10" d="M152.4 172.1c-1.9-.2-24.4-1.7-24.4-1.7s-4 14.2-3.2 14.2 15.5 1.3 15.5 1.3m144.3-15.5l18.8-2.2s5 12.7 4.2 12.7h-17.7m-117.4-43l-12.8 40.3h112.5l-9-38.8z"/><g fill="none" stroke="#000" stroke-width="2" stroke-miterlimit="10"><circle cx="128.5" cy="240.6" r="17.1"/><circle cx="303.8" cy="240.6" r="17.1"/></g><path fill="none" stroke="#000" stroke-width="2" stroke-miterlimit="10" d="M142.8 231.1h44.5m58.5 0h43.7m-143.9 8.3h41.3m58.3 0h41.5m-142.6 9h43.4m58.7 0h42.1m-151.5 7.3h50.4m57.8 0h50.6m-108.4-27h58v29.1h-58zM151 269.9v22.7c0 5.5-4.5 10-10 10h-12.2c-5.5 0-10-4.5-10-10v-22.7m197.6 0v22.7c0 5.5-4.5 10-10 10h-12.2c-5.5 0-10-4.5-10-10v-22.7"/></svg>