<svg version="1" xmlns="http://www.w3.org/2000/svg" width="432" height="432"><path fill="none" stroke="#000" stroke-width="2" stroke-miterlimit="10" d="M169 317.8c-4.7 29-29.9 51.2-60.3 51.2-33.7 0-61-27.3-61-61s27.3-61.1 61.1-61.1c16.1 0 30.7 6.2 41.6 16.4m4.5 4.7c.6.7 1.2 1.4 1.7 2.1l3.6 5.1c6 9.5 9.6 20.7 9.6 32.8 0 1.5-.1 3-.2 4.5m128.6-59.8c7.9-3.7 16.7-5.8 25.9-5.8 33.7 0 61.1 27.3 61.1 61.1s-27.4 61-61.1 61-61.1-27.3-61.1-61c0-22.5 12.2-42.1 30.3-52.7m-69.2 69.4c-3.5 4.3-8.9 7.1-15 7.1-10.7 0-19.3-8.6-19.3-19.3 0-10.7 8.6-19.3 19.3-19.3s19.3 8.6 19.3 19.3c0 2.9-.7 5.7-1.8 8.2"/><path fill="none" stroke="#000" stroke-width="2" stroke-miterlimit="10" d="M322.6 299.9c.5-.1 1-.1 1.6-.1 4.5 0 8.2 3.7 8.2 8.2s-3.7 8.2-8.2 8.2c-4.5 0-8.2-3.7-8.2-8.2 0-1.3.3-2.6.9-3.7M135 195.8c-10.4-.6-18.4-.7-18.4-.7l1 18.9h46.1m66.1 124.7l23.6-16.7 1.9 6.7-19.1 13.6zm6.7-13.8c-10.6-4-27.4-10.3-27.4-10.3v3.6s19.5 7.6 28.2 10.9m-101.2-115l68.9 79.5m-61.1-79.5l67.8 79.3M166 248.6l-69.5 63.9s-2.8 4.9 0 4.9h93.3"/><path fill="none" stroke="#000" stroke-width="2" stroke-miterlimit="10" d="M169 253.7l-61.9 58.8h82.7m61.7-125.4c-4.6-1-8.1-1.7-8.1-1.7l-1.1 7.5s3.1.5 7.3 1.2m14 2.4c4.8.8 9.2 1.6 9.2 1.6l3.5 9.4 26.9 77.7 18.9 26.5s3.9 1.9 6.5-4.2l-21.2-25.4-29-85.1s2.1-10.9 3.8-19.7m1.7-8.3c.3-1.8.6-2.9.6-2.9l-6.6-1.7s-.1.6-.2 1.7"/><path fill="none" stroke="#000" stroke-width="2" stroke-miterlimit="10" d="M276.6 175.1c-1 7.7-2.1 16.9-2.1 16.9s-4.4-.9-9.1-1.9m14.6 27.6s-28.5 5.1-57.2 10.3m-29 5.2c-16.7 3-29.1 5.2-29.1 5.2m-3.6-4.2s10.9-2 26.1-4.7m30.4-5.5c30-5.4 60.8-10.9 60.8-10.9m3.1 8.9c-.8.5-20.3 23.8-37.3 44.2m-12.4 14.9c-7.3 8.8-12.5 15-12.5 15m59.1-78c-.2 0-17.4 20.7-33.8 40.5m-13.7 16.3c-9.1 11-15.9 19.2-15.9 19.2"/><ellipse transform="rotate(-77.561 194.898 88.738)" fill="none" stroke="#000" stroke-width="2" stroke-miterlimit="10" cx="194.9" cy="88.7" rx="25.5" ry="16.2"/><path fill="none" stroke="#000" stroke-width="2" stroke-miterlimit="10" d="M184.1 110.7l-2.9 5.8m7.8 3.4c1.2-2.2 3.1-6 3.1-6m-11.9 46.2c-8.7 14.8-16.3 27.8-16.3 27.8l-26.3-8.3 31.5-68c1.5.5 31.4 14 31.4 14s-5.5 9.3-12.2 20.8"/><path fill="none" stroke="#000" stroke-width="2" stroke-miterlimit="10" d="M137.6 179.5l-6 14.2 96.8 61.7 9.5 76.8 4.6-2.5 2.4-87-81-54.8m9.3-58.9s35.3 42 36 42.3c.6.2 26 7.4 38.7 11"/><path fill="none" stroke="#000" stroke-width="2" stroke-miterlimit="10" d="M247.6 186.3c-.1 0 0-4.1 0-4.1h16l1.6 10.8-3.9 6.5s-13.1-.9-13-1.8 2.1-10.9 2.1-10.9m-86.6-43.5c7.2 6.3 35.3 38.1 35.3 38.1l43.2 8.9m.4 132.9c.5-.3 16-18.4 16-18.4l1.4 12.5-17.6 12.5.2-6.6zm-46.2-190.4c10.4 9.2 26.9 23.8 26.9 23.8l48 12.1 4.5-2.6s9.6 3.1 9.5 3.8-3.2 7.3-3.2 7.3l-5.8-1.2m-.6 5.3l-5.4-6.8-51.1-5.3-29.5-20.5m33.6 7.9l-4.1 12.6m-10.5 2.7l-9.7 9.4"/></svg>