<svg version="1" xmlns="http://www.w3.org/2000/svg" width="432" height="432"><g fill="none" stroke="#000" stroke-width="2" stroke-miterlimit="10"><path d="M216.2 306.8c-4.4 27-27.8 47.6-56.1 47.6-31.4 0-56.8-25.4-56.8-56.8s25.4-56.8 56.8-56.8c15 0 28.6 5.8 38.7 15.2m4.2 4.4c.6.6 1.1 1.3 1.6 2l3.4 4.7c5.6 8.8 8.9 19.3 8.9 30.5 0 1.4-.1 2.8-.1 4.2m119.5-55.6c7.3-3.4 15.5-5.4 24.1-5.4 31.4 0 56.8 25.4 56.8 56.8s-25.4 56.8-56.8 56.8-56.8-25.4-56.8-56.8c0-20.9 11.3-39.2 28.2-49.1m-64.4 64.7c-3.3 4-8.3 6.6-13.9 6.6-9.9 0-17.9-8-17.9-17.9s8-17.9 17.9-17.9 17.9 8 17.9 17.9c0 2.7-.6 5.3-1.7 7.7"/><path d="M359 290.1c.5-.1.9-.1 1.4-.1 4.2 0 7.7 3.4 7.7 7.7 0 4.2-3.4 7.7-7.7 7.7-4.2 0-7.7-3.4-7.7-7.7 0-1.2.3-2.4.8-3.4m-169-101c-9.7-.5-17.1-.6-17.1-.6l.9 17.6h42.9m61.5 116l21.9-15.5 1.8 6.2-17.8 12.6zm6.3-12.9c-9.8-3.7-25.5-9.6-25.5-9.6v3.4s18.2 7 26.2 10.1m-94.2-107l64.1 74m-56.9-74l63.2 73.8m-42.5-41.7l-64.6 59.4s-2.6 4.5 0 4.5h86.8"/><path d="M216.2 247.2l-57.7 54.7h77m57.4-116.7c-4.3-.9-7.5-1.6-7.5-1.6l-1 7s2.9.5 6.8 1.1m13 2.2c4.5.8 8.6 1.5 8.6 1.5l3.3 8.8 25.1 72.3 17.6 24.7s3.6 1.7 6-3.9L345 273.6l-27-79.2s1.9-10.1 3.5-18.3m1.5-7.7c.3-1.6.5-2.7.5-2.7l-6.1-1.5s-.1.6-.2 1.6"/><path d="M316.2 174c-.9 7.1-2 15.8-2 15.8s-4.1-.9-8.4-1.8m13.6 25.7s-26.5 4.8-53.2 9.5m-27 4.8c-15.5 2.8-27.1 4.9-27.1 4.9m-3.4-3.9s10.2-1.8 24.3-4.4m28.3-5.1c27.9-5 56.6-10.2 56.6-10.2m2.9 8.4c-.8.5-18.9 22.2-34.7 41.1m-11.6 13.9c-6.8 8.2-11.6 14-11.6 14m55-72.7c-.2 0-16.2 19.3-31.5 37.6m-12.7 15.3c-8.5 10.2-14.8 17.8-14.8 17.8"/><ellipse transform="rotate(-77.561 240.268 93.697)" cx="240.3" cy="93.7" rx="23.7" ry="15"/><path d="M230.2 114.1l-2.7 5.4m7.2 3.1c1.1-2 2.9-5.6 2.9-5.6m-11.1 43.1c-8.1 13.8-15.1 25.8-15.1 25.8l-24.5-7.8 29.3-63.3c1.4.5 29.2 13 29.2 13s-5.1 8.7-11.3 19.3"/><path d="M186.9 178.2l-5.5 13.1 90 57.5 8.9 71.4 4.3-2.3 2.1-80.9-75.3-51.1m8.6-54.8s32.8 39.1 33.5 39.3c.5.2 24.2 6.9 36 10.2m-.2 3.8c-.1 0 0-3.8 0-3.8h14.8l1.5 10.1-3.6 6s-12.2-.8-12.1-1.6 1.9-10.1 1.9-10.1"/><path d="M211.3 144.4c6.7 5.9 32.9 35.4 32.9 35.4l40.2 8.3m.3 123.7c.4-.3 14.9-17.1 14.9-17.1l1.3 11.6-16.3 11.6.1-6.1zm-43-177.1c9.7 8.6 25.1 22.2 25.1 22.2l44.7 11.3 4.2-2.4s8.9 2.9 8.9 3.6c0 .7-3 6.8-3 6.8l-5.4-1.2m-.7 4.8l-5-6.3-47.6-4.9-27.4-19.1m31.3 7.3l-3.9 11.8m-9.7 2.4l-9.1 8.8"/><ellipse transform="rotate(-66.396 125.825 93.888)" cx="125.8" cy="93.9" rx="23.7" ry="15"/><path d="M112 112s-2.3 3-3.6 4.8m6.4 4.4c1.4-1.8 3.9-4.9 3.9-4.9m-19.2 40.1c-10.6 12-31.1 37.9-31.1 37.9l-24.6-16.1L98.1 110c1.3.7 26.2 18.4 26.2 18.4s-6.7 7.5-14.8 16.8"/><path d="M87.6 138c5.4 7.1 25.4 41.1 25.4 41.1l39 27.7 10.2 10.8 14.9-7.4h-8.8l-8.6-6.2 7.7-2.6s1.1-4.3 0-4.7-10 0-10 0c-10.9-5.6-32.9-24.7-33.4-24.9-.6-.4-25.3-45.1-25.3-45.1m24.8 45.6l-10.5 6.9m-44.7 14.1l26 143.7h-7.6L57.2 208.9 21.4 337.1s-9 1.1-8.1-.9c.9-1.9 30.4-158 30.4-158m50.6 158.9l23 2.6-1.6 9.3s-29.2-6-29-5.9c.2.1 0-5.9 0-5.9"/><path d="M13.3 336.2l-3.7 8.4 33.2 4.3 2.1-9.6-23.5-2.2"/></g></svg>