<svg version="1" xmlns="http://www.w3.org/2000/svg" width="432" height="432"><ellipse transform="rotate(-5.987 223.727 129.627)" fill="none" stroke="#000" stroke-width="2" stroke-miterlimit="10" cx="223.8" cy="129.7" rx="13.8" ry="20.6"/><path fill="none" stroke="#000" stroke-width="2" stroke-miterlimit="10" d="M211.3 163.2c.7 15.5 2.2 52.8 2.2 52.8 8.2 1.5 27.2 0 27.2 0l-2-61.5c-5-.6-13.6.2-20 1l-7.5.8v6.9z"/><path fill="none" stroke="#000" stroke-width="2" stroke-miterlimit="10" d="M220.4 149.1l1.3 6.1 7.8-.9V149m-16 67l5.2 96.6h4.5l2.7-95.5m2.8 0l4.2 95.5h3.5l2.9-95.5m-28-59.5c-1 1.2-9.5 18.3-9.5 18.3l-12-14.3v-11.5h-4.2v6.8h-7.2l1 10.7h7l14.5 19.3 10.5-10.8m-9.6-.2l-1 11m38-32.4l12 25.1-.9 30.2h-4.4l-1.9-27.6-4.1-6.3m4.1 6.3l7.2-2.6m-5.3 30.9l-1.9 5.5 1.9 1.2 2.8-2 1.6 11.1 4.4-5.1-4.4-11.4m-31.2 103.7l-14.5 4.2 10.8 5 8.2-9.2zm12.8 0l6.4-.8 14.1 8.7-12.7 2z"/></svg>