<svg version="1" xmlns="http://www.w3.org/2000/svg" width="288" height="288"><ellipse fill="none" stroke="#000" stroke-width="2" stroke-miterlimit="10" cx="128.7" cy="49.6" rx="13.4" ry="21"/><path fill="none" stroke="#000" stroke-width="2" stroke-miterlimit="10" d="M123.6 69.1v6.1h9.8l-1-5.3m9.9 30.7c1.4 19.8 3.2 44 3.2 44s-17.5 3.2-33.5 0V75.2h28.5s.4 6 1 14.6"/><path fill="none" stroke="#000" stroke-width="2" stroke-miterlimit="10" d="M117.5 81.4s27.7 16 57 7.2v6.8s-33.1 12.5-55.3 0m55.3-6.7l2.6-12.2h3v20.8l-5.6-1.3m-33.7-17.1s14.3 5.4 34.9 5m4.3-.2l4.2-.3m.1 6.6l-3.7.3m3.7-7.6l2.6-12.2 3-1v20.8l-5.6-.3zm-37.4 8l-2.4 10.3m13.6-18.1l-3.6 7.8m-11 54.3l2 97.2h-5l-12.2-96.1M113 145l8 95.7h5.2l2.1-93.5m-7.3 93.5l-18.8 11.6 15.8 4.6 8.2-16.2m14.3 1.5l-5.8 16.7h17.8l-7-16.7"/></svg>