<svg version="1" xmlns="http://www.w3.org/2000/svg" width="432" height="432"><ellipse transform="rotate(-78.93 228.112 126.913)" fill="none" stroke="#000" stroke-width="2" stroke-miterlimit="10" cx="228.1" cy="126.9" rx="20.1" ry="13.8"/><path fill="none" stroke="#000" stroke-width="2" stroke-miterlimit="10" d="M206.7 149.2s19 .2 30 6.7c0 0-12.5 51.2-17.2 58.3l-22.3-3.2 9.5-61.8zm-9.5 61.9s48.2 81.8 52.8 97.3l4.2-1.2s-11.7-56.4-34.7-93"/><path fill="none" stroke="#000" stroke-width="2" stroke-miterlimit="10" d="M201.1 217.7s4.4 48.9-24 85l5.4 1s30-26.7 32.7-61.7m34.7 66.4l1.4 11.5 21.2 4.5 6.9-8.5-24.4-8.2zm-74.1-5.2l-3.5 9.2 20.9 7.4 10.3-6-21.1-10zm60.9-147.3l13.2 21.6 18.6-16.7 2.6 1.6-21.2 29.9-17.2-20.8m17.2 6v14.8m-29.3-47.2l-1 5.3 6.1 1.3 2.4-5.1m-21.4 2.6l-27-4.1-17 26.4 4.7 2.6 17.3-18.2 18.8 6.5m65-1.6l-4.1-5.7 4.8-6.7s9.2 6.1 9.2 6.2-2.5 7-2.5 7l-4.7.8m-108.5 9.1h-6.2l-4.3 6 11.3 7.4 4.4-4.1-.5-6.7"/></svg>