<svg version="1" xmlns="http://www.w3.org/2000/svg" width="432" height="432"><ellipse fill="none" stroke="#000" stroke-width="2" stroke-miterlimit="10" cx="156.5" cy="155.9" rx="17.5" ry="22.9"/><path fill="none" stroke="#000" stroke-width="2" stroke-miterlimit="10" d="M148.5 176.4v4.8l11.6.7v-3.5m-13.6 60.2c-3-.5-6.1-1.3-9.1-2.7l6.8-54H163l3.2 56s-6.2 1.6-14.1 1.3"/><path fill="none" stroke="#000" stroke-width="2" stroke-miterlimit="10" d="M149.3 193.7l-2.2 38.3s7.8.3 8 0c.2-.3 5-36.5 5-36.5m-6.5 37.3l2.7 4.1-2.7 2.3-1.7-1.5 1.7 9.6h-6.5v-15.2"/><path fill="none" stroke="#000" stroke-width="2" stroke-miterlimit="10" d="M142.7 237.8l7 54.7h7.1l5.5-53.3m-12.6 53.3h20l-2 6.7-18-2.5z"/><g fill="none" stroke="#000" stroke-width="2" stroke-miterlimit="10"><path d="M183.5 150.2h6"/><path stroke-dasharray="11.3056,11.3056" d="M200.8 150.2h84.7"/><path d="M291.2 150.2h6"/></g></svg>