<svg version="1" xmlns="http://www.w3.org/2000/svg" width="432" height="432"><g fill="#27AAE1"><path d="M251 79.3s-23.2 22.2-10.1 45.7c0 0-15.3-6.2-9.3-26.5S251 79.3 251 79.3zm-22.7 46.3L205 189.1l79.8 59.6 4.6 69.8 15.6-13.7v7.3l-19.6 13.2-9.4-70.5-88-56.5 34.3-75.3z"/><path d="M221.3 144.6s32.1 38.8 33 38.1c.8-.8 35.1 8 35.1 8v4.5l-39.6-8.2-34.8-37.2 6.3-5.2z"/></g><g fill="none" stroke="#000" stroke-width="2" stroke-miterlimit="10"><path d="M222.3 312.1c-4.3 26.6-27.4 46.9-55.2 46.9-30.9 0-56-25.1-56-56s25.1-56 56-56c14.7 0 28.1 5.7 38.1 15m4.1 4.4c.5.6 1.1 1.3 1.6 1.9l3.3 4.7c5.5 8.7 8.8 19 8.8 30.1 0 1.4 0 2.7-.1 4.1m117.8-54.8c7.2-3.4 15.3-5.3 23.8-5.3 30.9 0 56 25.1 56 56s-25.1 56-56 56-56-25.1-56-56c0-20.6 11.1-38.6 27.7-48.3m-63.5 63.6c-3.2 4-8.2 6.5-13.7 6.5-9.8 0-17.7-7.9-17.7-17.7 0-9.8 7.9-17.7 17.7-17.7s17.7 7.9 17.7 17.7c0 2.7-.6 5.3-1.7 7.5"/><path d="M363 295.7c.5-.1.9-.1 1.4-.1 4.2 0 7.5 3.4 7.5 7.5s-3.4 7.5-7.5 7.5-7.5-3.4-7.5-7.5c0-1.2.3-2.4.8-3.4m-166.6-99.4c-9.5-.5-16.9-.6-16.9-.6l.9 17.3h42.3m60.5 114.3l21.7-15.3 1.8 6.1-17.6 12.5zm6.2-12.7c-9.7-3.7-25.1-9.5-25.1-9.5v3.3s17.9 6.9 25.8 10M192.1 217l63.1 73m-56-73l62.2 72.7m-41.9-41l-63.7 58.5s-2.5 4.5 0 4.5h85.5"/><path d="M222.3 253.4l-56.8 53.8h75.8m56.5-114.9c-4.2-.9-7.4-1.6-7.4-1.6l-1 6.9s2.8.5 6.7 1.1m12.9 2.2c4.4.7 8.5 1.4 8.5 1.4l3.2 8.6 24.7 71.2 17.3 24.3s3.5 1.7 5.9-3.8l-19.4-23.3-26.6-78s1.9-9.9 3.5-18m1.5-7.6c.3-1.6.5-2.6.5-2.6l-6-1.5s-.1.6-.2 1.5"/><path d="M320.9 181.3c-.9 7-1.9 15.5-1.9 15.5s-4-.9-8.3-1.8m13.3 25.4s-26.1 4.7-52.4 9.4m-26.7 4.7c-15.3 2.7-26.7 4.8-26.7 4.8m-3.2-3.8l23.9-4.3m27.9-5.1c27.5-5 55.7-10 55.7-10m2.8 8.2c-.7.5-18.6 21.9-34.2 40.5m-11.3 13.7c-6.7 8.1-11.4 13.8-11.4 13.8m54.1-71.6c-.1 0-15.9 19-31 37.1m-12.5 15c-8.4 10.1-14.6 17.6-14.6 17.6"/><ellipse transform="rotate(-77.561 245.98 102.139)" cx="246" cy="102.1" rx="23.4" ry="14.8"/><path d="M236.1 122.3s-1.6 3.3-2.6 5.3m7.1 3.1c1.1-2 2.8-5.5 2.8-5.5m-10.9 42.4c-8 13.6-14.9 25.5-14.9 25.5l-24.2-7.6 28.8-62.4c1.4.5 28.8 12.8 28.8 12.8s-5 8.5-11.1 19"/><path d="M193.4 185.4l-5.4 12.9 88.7 56.6 8.7 70.4 4.3-2.3 2.1-79.7-74.2-50.3m8.5-54s32.3 38.5 33 38.7c.5.2 23.9 6.8 35.5 10.1"/><path d="M294.3 191.5c-.1 0 0-3.8 0-3.8h14.6l1.5 9.9-3.6 6s-12-.8-11.9-1.6 1.9-10 1.9-10m-79.3-39.9c6.6 5.8 32.4 34.9 32.4 34.9l39.6 8.2m.3 121.8c.4-.3 14.7-16.9 14.7-16.9l1.3 11.4-16.1 11.5.1-6zm-42.3-174.5c9.5 8.4 24.7 21.8 24.7 21.8l44 11.1 4.1-2.4s8.8 2.8 8.7 3.5-2.9 6.7-2.9 6.7l-5.4-1.1m-.6 4.9l-4.9-6.2-46.9-4.9-27-18.8m30.8 7.3l-3.8 11.5m-9.6 2.4l-8.9 8.7"/><ellipse transform="rotate(-66.396 133.254 102.354)" cx="133.2" cy="102.3" rx="23.4" ry="14.8"/><path d="M119.6 120.2s-2.3 3-3.6 4.7m6.4 4.4c1.4-1.7 3.8-4.8 3.8-4.8m-18.9 39.4c-10.4 11.8-30.7 37.3-30.7 37.3l-24.3-15.9 53.5-67.1c1.3.7 25.8 18.1 25.8 18.1s-6.6 7.4-14.6 16.5"/><path d="M95.6 145.9c5.3 7 25 40.5 25 40.5l38.4 27.3 10.1 10.6 14.7-7.3h-8.7l-8.5-6.1 7.5-2.6s1.1-4.3 0-4.7c-1.1-.4-9.9 0-9.9 0-10.8-5.5-32.4-24.3-32.9-24.6-.6-.4-24.9-44.4-24.9-44.4m24.6 45l-10.4 6.8m-44 13.9l25.6 141.6h-7.5l-29-126.3-35.3 126.3s-8.9 1.1-7.9-.8c.9-1.9 29.9-155.7 29.9-155.7"/><path d="M102.2 341.9l22.7 2.5-1.6 9.1s-28.8-5.9-28.6-5.8c.2.1 0-5.8 0-5.8m-72.2-.8l-3.7 8.2 32.7 4.3 2-9.5-23.1-2.2M241.6 79.5s11.3 4.2 18.5 4.4M237.7 82c.1.7 13.3 8.3 22.9 5.7m-25.6-1s15.4 9.5 26.2 5.4"/></g></svg>