<svg version="1" xmlns="http://www.w3.org/2000/svg" width="288" height="288"><path fill="none" stroke="#27AAE1" stroke-miterlimit="10" d="M95.5 122.5c-10.7-8.2-4-12.7 2.8-9.7 6.6 3 38.4 23.6 38.4 23.6.9-1.8 6.4-15.7 29.1-18.5s39.6-9.4 33.8-18-31.9-4.2-31.9-4.2m15.4 84.8s12.1 3.7 13.5 9.9-63.6-12.6-109.8-41.2 4.3-7.5 4.3-7.5"/><path fill="none" stroke="#27AAE1" stroke-miterlimit="10" d="M94 161.9s-18.9 26.3-5.4 23.9 113.6-45 115-61.4c.6-7.4-13.4-6.3-13.4-6.3"/><path fill="none" stroke="#27AAE1" stroke-miterlimit="10" d="M147.2 198.3s4.8 12.6 11.2 12.6c12.8 0 6.2-72.4 6.2-72.4"/><path fill="none" stroke="#27AAE1" stroke-miterlimit="10" d="M163 142.6l1.8-4.6 3.1 3.5M134 90.8s-8.3-10.2-19.4-7.5c-9.8 2.4-1.9 9.1-1.9 9.1"/><path fill="none" stroke="#27AAE1" stroke-miterlimit="10" d="M113.4 89.3l-.2 3.7-3.3-.1"/></svg>