<svg version="1" xmlns="http://www.w3.org/2000/svg" width="432" height="432"><g fill="#27AAE1"><path d="M153.6 133s-19.7 26.5.7 46.1l-1.8 8.1-.7 9.3-2.1 35.5v15.2l2.8 45.2 16.2 3.4-2.5 4.1-16-1.8-7.5-60.4-5.3-1.5 7.6-54.4 4-.4-.5-5.1s-8.8-5.2-9.5-20.5 14.6-22.8 14.6-22.8z"/><path d="M162.3 243.2v-4h-10.2l2.2 6.3z"/></g><g fill="none" stroke="#000" stroke-width="2" stroke-miterlimit="10"><ellipse cx="156.5" cy="155.9" rx="17.5" ry="22.9"/><path d="M148.5 176.4v4.8l11.6.7v-3.5m-13.6 60.2c-3-.5-6.1-1.3-9.1-2.7l6.8-54H163l3.2 56s-6.2 1.6-14.1 1.3"/><path d="M149.3 193.7l-2.2 38.3s7.8.3 8 0 5-36.5 5-36.5m-6.5 37.3l2.7 4.1-2.7 2.3-1.7-1.5 1.7 9.6h-6.5v-15.2"/><path d="M142.7 237.8l7 54.7h7.1l5.5-53.3m-12.6 53.3h20l-2 6.7-18-2.5z"/></g></svg>