<svg version="1" xmlns="http://www.w3.org/2000/svg" width="432" height="432"><g fill="#27AAE1"><path d="M178.9 111.2s-6.3 29.9 13 38.2c0 0-14.1.9-17.5-12.4s-1.6-23.4 4.5-25.8zm4.7 46.2l11.8 54.3 17.5 1.2-17.5 3.7s3.6 89.3 2.8 89.3c-.8 0-11.7 15.8-11.7 15.8l-9.2-5.5 17.8-10.3-6.7-89.1-9.6-39.2-4.5 9.8 7 36.6h-3.1l-9.6-39 8-16.3-2.3-9.3 9.3-2z"/><path d="M203.6 215.6l12.5 89.6s12.1 18.4 12.7 18c.6-.3 12.6-9.3 12.6-9.3l-22.3-9s-2.1-76.7-10.3-91l-5.2 1.7z"/></g><g fill="none" stroke="#000" stroke-width="2" stroke-miterlimit="10"><ellipse transform="rotate(-15.442 186.57 130.066)" cx="186.6" cy="130.1" rx="13.8" ry="20.1"/><path d="M170.9 118s15.3-2.9 19-8.1m-20 11.4s16.7-2.8 24.5-10.1m1 2.7s-13.3 11.2-25.5 11.7m4.5 33.8l34-7.4s8.7 28.4 4.5 60.9l-24.2 5.2-14.3-58.7zm0 0l-11.5 31.7 15.5 33 2.3-1-6.4-36.5m4.6-8.9l-11.8 22.7m14.4 23.7l5 7.7-3.6 9.3-6.5-1.7 2-8.6.2-5.4z"/><path d="M188.8 218.1l6.4 87.8h5l3.4-91 12.6 91 3.2-1.1s8.2-61.8-6.5-91.9m-17.7 93l-17.8 8.7 13.9 7.1 8.9-15.8z"/><path d="M216.2 305.9l10.9 15.8 14.2-10.9-21.2-6.3zm-28.7-156.3l2.4 6.5 5.5-1.5-.3-6.7m13.3 4.1c2.9-.3 53.6-2.3 53.6-2.3l4-15 3 2.2-1.5 19.1-56.7 6.3m24.7-11.5l1.8 8.6"/></g></svg>