<svg version="1" xmlns="http://www.w3.org/2000/svg" width="432" height="432"><path d="M194.9 61.7s-22.9 24.5-13.2 49c0 0-14.9-11.1-7.9-30.8s21.1-18.2 21.1-18.2zm-24.2 52.7l-33 72.7 20.6 4.9 69 10.2 3.4 82.5 19.1-11.9s.1 12.5-1.6 13.7c-1.6 1.2-20.3 8.4-20.3 8.4l-8.9-84.5-92.9-18.8 37.4-82.2 6.7 2.9" fill="#27AAE1"/><g fill="none" stroke="#000" stroke-width="2" stroke-miterlimit="10"><path d="M163.5 315.7c-4.7 29-29.9 51.2-60.3 51.2-33.7 0-61.1-27.3-61.1-61.1s27.3-61.1 61.1-61.1c16.1 0 30.7 6.2 41.6 16.4m4.6 4.8c.6.7 1.2 1.4 1.7 2.1l3.6 5.1c6 9.5 9.6 20.7 9.6 32.8 0 1.5-.1 3-.2 4.5m128.6-59.8c7.9-3.7 16.7-5.8 25.9-5.8 33.7 0 61.1 27.3 61.1 61.1S352.4 367 318.6 367s-61.1-27.3-61.1-61.1c0-22.5 12.2-42.1 30.3-52.7m-65.9 51.1c1.7 5.3 1.2 11.3-2.1 16.5-5.7 9-17.6 11.7-26.6 5.9s-11.7-17.6-5.9-26.6c5.7-9 17.6-11.7 26.6-5.9 2.4 1.6 4.4 3.7 6 5.9"/><path d="M317.1 297.8c.5-.1 1-.1 1.6-.1 4.5 0 8.2 3.7 8.2 8.2s-3.7 8.2-8.2 8.2-8.2-3.7-8.2-8.2c0-1.3.3-2.6.9-3.7m-181.9-110c-10.4-.6-18.4.8-18.4.8l1 18.9h43.5c1 0 .5-14.5 1.2-14.5m66.1 98.8l27.3-9.6v6.9l-22.1 7.9z"/><path d="M224.4 297.7c-9.7 5.9-24.9 15.4-24.9 15.4l2.8 2.2s17.9-10.8 25.9-15.6M130.6 212l68.9 79.5M138.4 212l67.8 79.3m-45.7-44.8L91 310.4s-2.8 4.9 0 4.9h93.3"/><path d="M163.5 251.6l-61.9 58.8h82.7M246 185c-4.6-1-8.1-1.7-8.1-1.7l-1.1 7.5s3.1.5 7.3 1.2m14 2.4c4.8.8 9.2 1.6 9.2 1.6l3.5 9.4 26.9 77.7 18.9 26.5s3.9 1.9 6.5-4.2L302 280l-29-85.1s2.1-10.9 3.8-19.7m1.6-8.3c.3-1.8.6-2.9.6-2.9l-6.6-1.7s-.1.6-.2 1.7"/><path d="M271.1 173c-1 7.7-2.1 16.9-2.1 16.9s-4.4-.9-9.1-1.9m14.6 27.6s-10.7 1.9-39.4 7.1m-15 2.7c-16.7 3-60.9 10.9-60.9 10.9m-3.6-4.2s49.2-8.9 64.4-11.6m15-2.7c30-5.4 37.9-6.8 37.9-6.8m3.1 8.9c-.8.5-25.4 29.8-42.4 50.2m-5.8 7.4c-7.3 8.8-14 16.5-14 16.5m59.1-78c-.2 0-22.7 27-39.1 46.8m-7 8.7c-9.1 11-17.3 20.5-17.3 20.5"/><ellipse transform="rotate(-77.561 189.327 86.598)" cx="189.3" cy="86.6" rx="25.5" ry="16.2"/><path d="M185.9 62.3s14.1 5.5 19.2 4.2m-24.3-2.4s17.1 8.8 25 6.3M178.3 67s19.4 10.4 29 6.7m-28.7 35l-2.9 5.8m7.8 3.3c1.2-2.2 3.1-6 3.1-6M174.7 158c-8.7 14.8-16.3 27.8-16.3 27.8l-26.3-8.3 31.5-68c1.5.5 31.4 14 31.4 14s-5.5 9.3-12.2 20.8"/><path d="M132.1 177.5l-6 14.1 92.9 18.8 9.6 76.8 4.6-2.5 2.3-86.9-77.1-12m9.3-58.9s35.3 42 36 42.2c.6.2 26 7.4 38.7 11"/><path d="M242.1 184.2c-.1 0 0-4.1 0-4.1h16l1.6 10.8-3.9 6.5s-13.1-.9-13-1.8 2.1-10.9 2.1-10.9m-86.6-43.5c7.2 6.3 35.3 38.1 35.3 38.1l43.2 8.9m-8.2 99c.5-.3 21.2-14.4 21.2-14.4l-1.6 13.7-20.3 8.4.7-7.7zM191 130.7c10.4 9.2 26.9 23.8 26.9 23.8l48 12.1 4.5-2.6s9.6 3.1 9.5 3.8-3.2 7.3-3.2 7.3L271 174m-.7 5.2l-5.3-6.8-51.2-5.2-29.5-20.6m33.7 7.9l-4.2 12.7m-10.5 2.6l-9.7 9.4"/></g></svg>