<svg version="1" xmlns="http://www.w3.org/2000/svg" width="432" height="432"><g fill="#27AAE1"><path d="M218.8 109.2s-9.7 31.3 5.2 40.2c0 0-13.5-4.9-13.5-16.5.1-11.6 1.5-23.3 8.3-23.7zm-1.4 45.8l3.1 56.2 17.5 3.9-15.6 1-1.1 95.8-7.5 11.4-10-5.9 14.7-4.6-4.9-97.5-3-60.3z"/><path d="M212.9 167.8l-11.4 9.8-14.8-11.1s14.2 20.4 14.3 19.6c.1-.8 12.7-11.7 12.7-11.7l-.8-6.6zm21.2 48.1l.9 96 14.1 8.8-9.7 1.9-6.4-9.8v-3.3l-4.2-93.2z"/></g><g fill="none" stroke="#000" stroke-width="2" stroke-miterlimit="10"><ellipse transform="rotate(-5.987 223.84 128.863)" cx="223.9" cy="128.9" rx="13.8" ry="20.6"/><path d="M211.4 162.4c.7 15.5 2.2 52.8 2.2 52.8 8.2 1.5 27.2 0 27.2 0l-2-61.5c-5-.6-13.6.2-20 1l-7.5.8v6.9z"/><path d="M220.5 148.3l1.3 6.1 7.8-.8v-5.3M212.9 113s9.8-.2 15.3-3.5m-17.9 5.9s9.8 2.3 22.8-4.2m-24 7.4s14 1.7 26.5-3.7m-22 100.4l5.2 96.6h4.5l2.7-95.6m2.8 0l4.2 95.6h3.5l2.9-95.6m-28-59.5c-1 1.2-9.5 18.3-9.5 18.3l-12-14.3v-11.5h-4.2v6.8h-7.2l1 10.7h7l14.5 19.3 10.5-10.8m-9.6-.1l-1 11m38-32.4l12 25-.9 30.3h-4.4l-1.9-27.7-4.1-6.2m4.1 6.2l7.2-2.6"/><path d="M245.6 209.7l-1.9 5.6 1.9 1.2 2.8-2 1.6 11.1 4.4-5.1-4.4-11.4m-31.2 103.7l-14.5 4.1 10.8 5 8.2-9.1zm12.8 0l6.4-.9 14.1 8.7-12.7 2z"/></g><path opacity=".01" fill="none" stroke="#27AAE1" stroke-width="15" stroke-miterlimit="10" d="M202.7 110.2c8.7-1.4 17.5-1.9 26.2-1.5-11.8 5-24.3 8.1-37.1 9.3l40.2.6c-14.6 5.2-29.5 9.5-44.6 12.7 11.3-.1 22.7-.1 34-.2-12.3 3.5-24.5 6.9-36.8 10.4 16.5.1 32.9.2 49.4.4-19.6 4.1-39.2 8.2-57.9 15.2 19.4-.9 38.8-1.7 58.1-2.6-21.5 4.8-43.1 9.7-63.2 18.6 21.3-2.4 42.7-3.5 64.1-3.1-14.2 5-28.4 10-42.5 15.1 14.6-.6 29.1-1.2 43.7-1.8-16.7 4.7-33.4 9.5-50 14.2 2.3 2.3 5.8 2.7 9.1 2.9 16.8 1.1 33.7 1.8 50.5 2.1-14.9 3.7-29.9 7.5-44.8 11.2 15.5-.3 31 .3 46.4 1.7-13.1 1.1-26.1 3-39 5.6l30.3-2.1c-12.5 8-27.2 12.1-41.6 16 17.9-.6 35.8.1 53.6 2.1-15.8 5-31.8 9.4-47.9 13.3 15.2.2 30.3 1.6 45.2 4.3-12.7 5-25.4 9.9-38 14.9 11.1.4 22.2.9 33.4 1.3-14.9 4.5-29.7 9.5-44.3 14.9 11.5-.1 23.1.8 34.5 2.9-11.2 5.4-23.3 9.1-35.7 11l43.5.9-49.2 6.9c18.4.8 36.9 1.6 55.3 2.4-12.1 3.3-24.2 6.6-36.4 9.9 16.6 2 33.3 2.4 50 1.2"/></svg>