<svg version="1" xmlns="http://www.w3.org/2000/svg" width="432" height="432"><path d="M231.4 107.1s-20.1 17.4-8.7 39c0 0-10.8-6-7.7-21.8s16.4-17.2 16.4-17.2zm-66 65.6l18.3-21.1 22.4 4.2 1-6.7s5.7-.6 5.8.3c.1 1-6.6 62.8-6.6 62.8s43.7 76.2 46 95.3c0 0 25.4 9.5 25.7 10.4.3.9-4.9 7.9-4.9 7.9l-21.5-6.1-1.4-11.5s-7-16.1-10.2-21.6c-3.2-5.5-24.6-44.7-24.6-44.7l-1 7.7s-6.3 22-13.3 31.8c-7 9.8-17.4 22.2-17.4 22.2l17.5 13.2-9.5 4.3-15.7-9.9 3.2-8.3s14.1-25.7 19.4-34.3c5.7-9.1 5.5-46.2 5.5-46.2l-6.7-11.5 6.9-48-20-7.2s-15.7 18.2-16.2 18.2-2.7-1.2-2.7-1.2z" fill="#27AAE1"/><g fill="none" stroke="#000" stroke-width="2" stroke-miterlimit="10"><ellipse transform="rotate(-78.93 228.518 126.913)" cx="228.5" cy="126.9" rx="20.1" ry="13.8"/><path d="M216.4 111.5s16.2 4.9 26.4 1.9m.8 3s-16.9 4.1-28-.9m-8.5 33.7s19 .2 30 6.7c0 0-12.5 51.2-17.2 58.3l-22.3-3.2 9.5-61.8zm-9.5 61.9s48.3 81.8 52.8 97.3l4.2-1.2s-11.7-56.4-34.7-93"/><path d="M201.5 217.7s4.4 48.9-24 85l5.4 1s30-26.7 32.7-61.7m34.7 66.4l1.4 11.5 21.2 4.5 6.9-8.5-24.4-8.2zm-74.1-5.2l-3.5 9.2 20.9 7.4 10.3-6-21.1-10zm60.9-147.3l13.2 21.6 18.6-16.7 2.7 1.6-21.3 29.9-17.2-20.8m17.2 6v14.8M221 145.1l-1 5.3 6.1 1.3 2.4-5.1m-6.7-38.7s8 3.3 19.2 2m-33.9 39.3l-27-4.1-17 26.4 4.7 2.6 17.3-18.2 18.8 6.5"/><path d="M268.9 160.8l-4.1-5.7 4.8-6.7s9.2 6.1 9.2 6.2-2.5 7-2.5 7l-4.7.8m-108.5 9.1H157l-4.4 6 11.4 7.4 4.3-4.1-.5-6.7"/></g></svg>