<svg version="1" xmlns="http://www.w3.org/2000/svg" width="432" height="432"><path d="M160.5 129.4s-5.2 23.8 7.2 30.8c0 0-11.1-1.7-12.2-10.8-1.2-9.2-2.5-17.3 5-20zm-2.7 35.6l11.9 47.3 55.4 42.3 3.7 47 10.8-10.2 1.5 6.7-14.2 9.2-5.5-48.1s-60.4-37.8-60.1-38.6c.3-.8 3.7-8.8 3.7-8.8l-2.2-1.8-9.6-44.3-15.5-15.2-5-24.4 2.2-.5 6.6 23.2 16.3 16.2z" fill="#27AAE1"/><g fill="none" stroke="#000" stroke-width="2" stroke-miterlimit="10"><path d="M184.7 297.6c-2.9 18-18.6 31.8-37.4 31.8-20.9 0-37.9-17-37.9-37.9s17-37.9 37.9-37.9c10 0 19 3.9 25.8 10.2m2.8 2.9c.4.4.7.9 1.1 1.3l2.2 3.2c3.8 5.9 5.9 12.9 5.9 20.4 0 .9 0 1.9-.1 2.8m79.8-37.2c4.9-2.3 10.3-3.6 16.1-3.6 20.9 0 37.9 17 37.9 37.9 0 19.4 5.8 26.4-13 28.6 0 0-7-2.5-14.4 1.8-7.3 4.3-17.1 7.1-19.4 6.5-16.5-4.5-29-19-29-36.9 0-14 7.5-26.2 18.8-32.7m-43 43.1c-2.2 2.7-5.5 4.4-9.3 4.4-6.6 0-12-5.4-12-12s5.4-12 12-12 12 5.4 12 12c0 1.8-.4 3.6-1.1 5.1"/><path d="M280 286.5c.3-.1.6-.1 1-.1 2.8 0 5.1 2.3 5.1 5.1s-2.3 5.1-5.1 5.1-5.1-2.3-5.1-5.1c0-.8.2-1.6.5-2.3m-112.8-67.3c-6.5-.4-11.4-.4-11.4-.4l.6 11.7h28.6m41 77.4l14.6-10.3 1.2 4.1-11.9 8.4zm4.2-8.6c-6.6-2.5-17-6.4-17-6.4v2.2s12.1 4.7 17.5 6.8m-62.9-71.4l42.8 49.4m-37.9-49.4l42.1 49.3m-28.4-27.8l-43.1 39.6s-1.7 3 0 3h57.9"/><path d="M184.7 257.9l-38.5 36.4h51.4m57.4-83.8c-1.1 5.5-2.4 12.2-2.4 12.2l18 52.8 13.2 15.8c-1.6 3.7-4 2.6-4 2.6L268 277.4l-16.7-48.2-2.2-5.8s-2.7-.5-5.7-1l-8.7-1.5c-2.6-.4-4.5-.8-4.5-.8l.7-4.7s2.2.5 5 1.1l8.6 1.9c2.9.6 5.6 1.2 5.6 1.2s.7-5.8 1.3-10.5l.7-5.5c.1-.7.1-1 .1-1l4.1 1s-.1.7-.3 1.8l-1 5.1zm-1.5 25s-17.7 3.2-35.5 6.4m-18 3.2c-10.4 1.9-18.1 3.2-18.1 3.2m-2.2-2.6s6.8-1.2 16.2-2.9m18.9-3.4c18.6-3.4 37.7-6.8 37.7-6.8m2 5.6c-.5.3-12.6 14.8-23.1 27.4m-7.8 9.3c-4.5 5.5-7.7 9.3-7.7 9.3m36.6-48.5c-.1 0-10.8 12.8-21 25.1m-8.4 10.2c-5.7 6.8-9.9 11.9-9.9 11.9"/><ellipse transform="rotate(-11.304 164.56 144.627)" cx="164.6" cy="144.6" rx="10" ry="15.8"/><path d="M164.5 160.1s.2 2.5.4 4m5.2-.8c-.1-1.5-.3-4.2-.3-4.2m-4.6 52.7l-3.7 8.8 60 38.3 6 47.7 2.8-1.6 1.5-54-48.7-35.1"/><path d="M230.4 301c.3-.2 9.9-11.4 9.9-11.4l.9 7.7-10.9 7.7.1-4zm-74.7-169.9s6 2.3 13-1.2m-14.5 4.1s6.2 3.5 15.8-1.2m-17.5 5.4c.6-.2 12.1 2.1 20.1-3m-19.3 30.5l26.4-4.1 3.4 54.3-20.1-5.3z"/><path d="M157.8 165l-16.7-16.6-6.1-22.7-4.8 1 5.1 26 18.9 19.3M135 125.7l2.8-7.8-2.8-1.9-1.4 1.9-3.4-9.9-6.9 2.8 6.3 16m11.3 21l-5.6 4.9m40.4 9.6l11.3-17.9.8-23.6 4.9-.1.8 26.5-13.3 22"/><path d="M187.8 120.8l-4.5-6.9 2.3-2.5 1.8 1.6 1.1-10.4 7.3 1.1-2.5 17m-6.3 23.1l6.5 3.4m-10.6 65.4l35.1-18.4 55.2-4.2v5l-51.7 10-29.4 17.4m81.1-27.4v-23l6.6 1-3.3 22.7-3.3-.7z"/></g></svg>