<svg version="1" xmlns="http://www.w3.org/2000/svg" width="432" height="432"><path d="M194.9 61.7s-22.9 24.5-13.2 49c0 0-14.9-11.1-7.9-30.8s21.1-18.2 21.1-18.2zm-24.2 52.7l-30 65.7 88.4 63.1 8.2 77.9 16.4-15.2s2.7 8.1 1 9.3c-1.6 1.2-22.2 15-22.2 15L222 253l-95.9-61.4 37.4-82.2 6.7 2.9" fill="#27AAE1"/><g fill="none" stroke="#000" stroke-width="2" stroke-miterlimit="10"><path d="M163.5 315.7c-4.7 29-29.9 51.2-60.3 51.2-33.7 0-61.1-27.3-61.1-61.1s27.3-61.1 61.1-61.1c16.1 0 30.7 6.2 41.6 16.4m4.6 4.8c.6.7 1.2 1.4 1.7 2.1l3.6 5.1c6 9.5 9.6 20.7 9.6 32.8 0 1.5-.1 3-.2 4.5m128.6-59.8c7.9-3.7 16.7-5.8 25.9-5.8 33.7 0 61.1 27.3 61.1 61.1S352.4 367 318.6 367s-61.1-27.3-61.1-61.1c0-22.5 12.2-42.1 30.3-52.7m-69.2 69.4c-3.5 4.3-8.9 7.1-15 7.1-10.7 0-19.3-8.6-19.3-19.3 0-10.7 8.6-19.3 19.3-19.3s19.3 8.6 19.3 19.3c0 2.9-.7 5.7-1.8 8.2"/><path d="M317.1 297.8c.5-.1 1-.1 1.6-.1 4.5 0 8.2 3.7 8.2 8.2 0 4.5-3.7 8.2-8.2 8.2-4.5 0-8.2-3.7-8.2-8.2 0-1.3.3-2.6.9-3.7M129.5 193.7c-10.4-.6-18.4-.7-18.4-.7l1 18.9h46.1m66.1 124.7l23.6-16.6 1.9 6.6-19.1 13.6zm6.7-13.8c-10.6-4-27.4-10.3-27.4-10.3v3.6s19.5 7.6 28.2 10.9M130.6 212l68.9 79.5M138.4 212l67.8 79.3m-45.7-44.8L91 310.4s-2.8 4.9 0 4.9h93.3"/><path d="M163.5 251.6l-61.9 58.8h82.7M246 185c-4.6-1-8.1-1.7-8.1-1.7l-1.1 7.5s3.1.5 7.3 1.2m14 2.4c4.8.8 9.2 1.6 9.2 1.6l3.5 9.4 26.9 77.7 18.9 26.5s3.9 1.9 6.5-4.2L302 280l-29-85.1s2.1-10.9 3.8-19.7m1.6-8.3c.3-1.8.6-2.9.6-2.9l-6.6-1.7s-.1.6-.2 1.7"/><path d="M271.1 173c-1 7.7-2.1 16.9-2.1 16.9s-4.4-.9-9.1-1.9m14.6 27.6s-28.5 5.1-57.2 10.3m-29 5.2c-16.7 3-29.1 5.2-29.1 5.2m-3.6-4.2s10.9-2 26.1-4.7m30.4-5.5c30-5.4 60.8-10.9 60.8-10.9m3.1 8.9c-.8.5-20.3 23.8-37.3 44.2M226.3 279c-7.3 8.8-12.5 15-12.5 15m59.1-78c-.2 0-17.4 20.7-33.8 40.5m-13.7 16.3c-9.1 11-15.9 19.2-15.9 19.2"/><ellipse transform="rotate(-77.561 189.409 86.646)" cx="189.4" cy="86.6" rx="25.5" ry="16.2"/><path d="M185.9 62.3s14.1 5.5 19.2 4.2m-24.3-2.4s17.1 8.8 25 6.3M178.3 67s19.4 10.4 29 6.7m-28.7 35l-2.9 5.8m7.8 3.3c1.2-2.2 3.1-6 3.1-6M174.7 158c-8.7 14.8-16.3 27.8-16.3 27.8l-26.3-8.3 31.5-68c1.5.5 31.4 14 31.4 14s-5.5 9.3-12.2 20.8"/><path d="M132.1 177.5l-6 14.1 96.8 61.7 9.6 76.8 4.6-2.5 2.3-86.9-81-54.9m9.3-58.9s35.3 42 36 42.2c.6.2 26 7.4 38.7 11"/><path d="M242.1 184.2c-.1 0 0-4.1 0-4.1h16l1.6 10.8-3.9 6.5s-13.1-.9-13-1.8 2.1-10.9 2.1-10.9m-86.6-43.5c7.2 6.3 35.3 38.1 35.3 38.1l43.2 8.9m.4 132.9c.5-.3 16-18.4 16-18.4l1.4 12.5-17.6 12.5.2-6.6zM191 130.7c10.4 9.2 26.9 23.8 26.9 23.8l48 12.1 4.5-2.6s9.6 3.1 9.5 3.8-3.2 7.3-3.2 7.3L271 174m-.7 5.2l-5.3-6.8-51.2-5.2-29.5-20.6m33.7 7.9l-4.2 12.7m-10.5 2.6l-9.7 9.4"/></g></svg>