<svg version="1" xmlns="http://www.w3.org/2000/svg" width="432" height="432"><path d="M188.4 114.3s-26.9 28.4-4.4 56.1c0 0-14.7-5.5-15-21.7-.2-16.2 6.8-33.8 19.4-34.4zm-2.2 166.6h22.5l-22.5-6.6c.5 2.2.5 4.5 0 6.6zm-10.3-1.1v-.6c-.1-.7-.2-1.4-.3-2-.1-.9-.1-1.8-.1-2.7.1-1.1.3-2.1.8-3.1l-3.1-.9v-92.8l-5-.2-2.5 103.3h10.5c-.1-.3-.2-.6-.3-1z" fill="#27AAE1"/><g fill="none" stroke="#000" stroke-width="2" stroke-miterlimit="10"><ellipse transform="rotate(-82.738 187.599 142.427)" cx="187.6" cy="142.4" rx="28.3" ry="18.5"/><path d="M171.5 122.1s21.7 6.1 33.7.2m-34.2 4.3s23.2 7.7 35.9.8m-28.3 41.4l-.8 8.8H191l.7-8.8m-15.3 112.1h-10.7l2.5-103.3 33.5 1.1 7 102.2h-22.6m16.3-92.6c9.7 4.4 19.6 10.7 19.6 10.7l31.8-10.2 16-5.7-.7 8.7-12.2 1.8 5 3.3-3.3 2.7-7.5-3s-23.6 8.6-30.5 11.1c0 0-8.1-2.1-17.2-4.5m18.6-4.3l-1.4 8.7"/><path d="M173.8 188.8l2.8 99.7 8.8-.9 4.2-96.8"/><path d="M185.4 287.6l4.5 8.9-3.7 2.6-3.6-3.9v21.9l-9.1-7.2 4.1-22.3"/></g></svg>