<svg version="1" xmlns="http://www.w3.org/2000/svg" xmlns:xlink="http://www.w3.org/1999/xlink" width="960" height="523"><path fill="#FFF" stroke="#000" stroke-width="3" stroke-miterlimit="10" d="M378.5 39l-50.8-4.9-40 2.3-21.2 9.2-29.2 9.5-26.8 3.7s-24-2.9-46.8 6.6-22.7 9.5-22.7 9.5L95.8 97.3 81 112.5s-9.2 8.9-9.2 17.8-5.2 22.4-5.2 22.4l-8 18.1-8 15.2-10.8 32.5s4-20.1 0 7.8-12 39.4-8 48.8 9.2 22.1 10.8 28.7c1.2 6.6 4 16.4 6.8 23s5.2 10.9 9.2 25.3 24 37.9 24 37.9l24 11.5 29.2 4 30.8 8.3s25.6 16.4 38 19.2c12.4 2.9 31.2 11.5 46 11.5s6.8 5.7 46.8 0 37.2-4.9 49.2-9.5c12-4.9 13.2-7.8 32-7.8h38.8s24 3.7 58.8 4.9c34.8.9 25.2 4.9 49.2.9 24-3.7 40-5.7 40-5.7s40-8.6 70.8-15.2 58-6.3 58-6.3 88.8 4.6 98 4.6 52-4.6 52-4.6l22.8-10.9s29.2-7.8 33.2-20.1 12-36.5 12-36.5l14.4-23.8s6.4-41.1 0-45.1-5.2-7.5-10.4-21-4 2.9-8-24.1c-4-26.7-4-45.1-4-45.1l-12-34.5-20-25c-9.2-11.5-6.8-13.5-18.8-23.8-12-10.6-4.4-10.1-16.4-18.4-11.6-8.3-45.2-17.8-45.2-17.8l-36-8.9-17.2-6.3-61.2-10.6-38.8-10.1h-116l-34.8 3.7L441 37.6l-26.8 2-35.7-.6z"/><defs><path id="a" d="M378.5 39l-50.8-4.9-40 2.3-21.2 9.2-29.2 9.5-26.8 3.7s-24-2.9-46.8 6.6-22.7 9.5-22.7 9.5L95.8 97.3 81 112.5s-9.2 8.9-9.2 17.8-5.2 22.4-5.2 22.4l-8 18.1-8 15.2-10.8 32.5s4-20.1 0 7.8-12 39.4-8 48.8 9.2 22.1 10.8 28.7c1.2 6.6 4 16.4 6.8 23s5.2 10.9 9.2 25.3 24 37.9 24 37.9l24 11.5 29.2 4 30.8 8.3s25.6 16.4 38 19.2c12.4 2.9 31.2 11.5 46 11.5s6.8 5.7 46.8 0 37.2-4.9 49.2-9.5c12-4.9 13.2-7.8 32-7.8h38.8s24 3.7 58.8 4.9c34.8.9 25.2 4.9 49.2.9 24-3.7 40-5.7 40-5.7s40-8.6 70.8-15.2 58-6.3 58-6.3 88.8 4.6 98 4.6 52-4.6 52-4.6l22.8-10.9s29.2-7.8 33.2-20.1 12-36.5 12-36.5l14.4-23.8s6.4-41.1 0-45.1-5.2-7.5-10.4-21-4 2.9-8-24.1c-4-26.7-4-45.1-4-45.1l-12-34.5-20-25c-9.2-11.5-6.8-13.5-18.8-23.8-12-10.6-4.4-10.1-16.4-18.4-11.6-8.3-45.2-17.8-45.2-17.8l-36-8.9-17.2-6.3-61.2-10.6-38.8-10.1h-116l-34.8 3.7L441 37.6l-26.8 2-35.7-.6z"/></defs><clipPath id="b"><use xlink:href="#a" overflow="visible"/></clipPath><g clip-path="url(#b)"><g fill="none" stroke="#000" stroke-width="2" stroke-miterlimit="10"><path d="M715.6 176.1c6.4-6 15.1-9.7 24.6-9.7 20 0 36.1 16.2 36.1 36.1s-16.2 36.1-36.1 36.1c-18 0-32.9-13.1-35.7-30.3m-.2-3.1c-.1-.9-.1-1.8-.1-2.7 0-7.2 2.1-13.8 5.7-19.4l2.1-3c.3-.4.7-.8 1-1.2m-81.9-7.5c10.7 6.3 17.9 17.9 17.9 31.2 0 19.9-16.2 36.1-36.1 36.1-19.9 0-36.1-16.1-36.1-36.1s16.2-36.1 36.1-36.1c5.4 0 10.6 1.2 15.3 3.4m42.3 40.1c-.7-1.5-1.1-3.1-1.1-4.9 0-6.3 5.1-11.4 11.4-11.4 6.3 0 11.4 5.1 11.4 11.4 0 6.3-5.1 11.4-11.4 11.4-3.6 0-6.8-1.7-8.9-4.2"/><path d="M617.1 200.3c.4.7.5 1.4.5 2.2 0 2.7-2.2 4.9-4.9 4.9s-4.9-2.2-4.9-4.9 2.2-4.9 4.9-4.9c.4 0 .7 0 .9.1m94.2-50.8h27.3l.6-11.2s-4.7.1-10.9.4m-59.9 86.7l-11.3-8 1.1-4 13.9 9.9zm-.7-7.8c5.1-2 16.7-6.4 16.7-6.4v-2.1s-9.9 3.7-16.2 6.1m18.6-18.6l40.8-47m-44.7 46.9l40.1-46.9m-27.2 61.1h55.2c1.7 0 0-2.9 0-2.9l-41.1-37.8"/><path d="M692.3 205.2h48.9l-36.6-34.8m-47.7-35.3c2.5-.4 4.3-.7 4.3-.7l-.7-4.4s-2.1.4-4.8 1m-18.1-5.8c1 5.2 2.2 11.7 2.2 11.7l-17.2 50.3-12.5 15c1.5 3.6 3.8 2.5 3.8 2.5l11.2-15.7 15.9-46 2.1-5.6s2.6-.5 5.4-.9m-8.2-17.9c-.1-.7-.1-1-.1-1l-3.9 1s.2.7.4 1.7"/><path d="M647.6 132.8c-2.8.6-5.4 1.1-5.4 1.1s-.7-5.4-1.2-10m31.8 31.3c-17-3.1-33.8-6.1-33.8-6.1m68.2 12.3s-7.3-1.3-17.2-3.1m3.8-2.2c9 1.6 15.4 2.8 15.4 2.8m-69.3-12.5s18.2 3.3 36 6.4m-15.8 25c-10.1-12.1-21.6-25.9-22.1-26.1m36.9 43.8s-3.1-3.7-7.4-8.9m-7.6-13.3c-9.7-11.7-19.9-24-20-24m37.5 45s-4-4.9-9.4-11.4"/><ellipse transform="rotate(-12.439 689.335 72.806)" cx="689.3" cy="72.8" rx="9.6" ry="15.1"/><path d="M697.4 89.2c-.7-1.3-1.7-3.4-1.7-3.4m-4.8 1.9s1.1 2.2 1.8 3.5m.5 15.7c-4-6.8-7.2-12.3-7.2-12.3s17.7-8 18.6-8.3l18.6 40.2-15.6 4.9s-4.5-7.7-9.6-16.4"/><path d="M707.6 131.5l-47.9 32.4 1.4 51.5 2.8 1.4 5.6-45.4 57.2-36.5-3.5-8.4m-65.3 1.7c7.5-2.1 22.5-6.4 22.9-6.5.4-.2 21.3-25 21.3-25"/><path d="M656.5 130.8s1.2 5.9 1.2 6.4c.1.5-7.7 1.1-7.7 1.1l-2.3-3.8.9-6.4h9.5s.1 2.4 0 2.4m3.1 2.4l25.6-5.3s16.6-18.8 20.9-22.5m-46.6 110.3l-10.4-7.4.8-7.4s9.2 10.7 9.5 10.9l.1 3.9zm-20-91l-3.4.7s-1.8-3.9-1.9-4.3c-.1-.4 5.6-2.2 5.6-2.2l2.7 1.5 28.4-7.2s9.8-8.6 15.9-14.1m3.9 9.5l-17.4 12.1-30.3 3.1-3.2 4.1m33.5-7.2l-2.5-7.4m14.4 14.6l-5.7-5.6"/></g><path d="M260.3 82.4c6.7 18.7-7.5 29.3-7.5 29.3 9.2-23.3-12.6-46.6-12.6-46.6s13.5-1.4 20.1 17.3zm3.5 30.9l6.4-2.8 35.6 78.2-91.3 58.4-10 73.5s-19.6-13.1-21.1-14.3c-1.6-1.1 1-8.8 1-8.8L200 312l7.8-74.1 84.1-60-28.5-62.5" fill="#27AAE1"/><g fill="none" stroke="#000" stroke-width="2" stroke-miterlimit="10"><path d="M287.9 254.8c10.4-9.7 24.3-15.6 39.6-15.6 32.2 0 58.1 26 58.1 58.1s-26.1 58.1-58.1 58.1c-28.9 0-52.9-21.1-57.4-48.7m-.5-4.9c-.1-1.4-.2-2.9-.2-4.3 0-11.5 3.4-22.2 9.1-31.2l3.4-4.9c.5-.7 1-1.3 1.6-2m-131.6-12.1c17.2 10.1 28.8 28.7 28.8 50.1 0 32.2-26 58.1-58.1 58.1s-58.1-26-58.1-58.1 26.1-58.1 58.1-58.1c8.8 0 17.1 2 24.6 5.5m68.1 64.8c-1-2.4-1.7-5-1.7-7.8 0-10.2 8.2-18.4 18.4-18.4s18.4 8.2 18.4 18.4-8.2 18.4-18.4 18.4c-5.8 0-10.9-2.7-14.3-6.8"/><path d="M129.4 294c.6 1 .9 2.3.9 3.5 0 4.3-3.5 7.8-7.8 7.8s-7.8-3.5-7.8-7.8 3.5-7.8 7.8-7.8c.6 0 1 0 1.5.1M275.2 208h43.9l1-18s-7.6.1-17.5.7m-96.4 139.4L188 317.2l1.8-6.3 22.5 15.8zm-1.1-12.5c8.3-3.1 26.8-10.4 26.8-10.4v-3.4s-16 6-26.1 9.8m30.1-29.8l65.5-75.7m-71.9 75.5l64.5-75.5m-43.7 98.3h88.8c2.7 0 0-4.7 0-4.7L273 241"/><path d="M250.3 301.8H329l-58.9-56m-76.7-56.7c4-.7 6.9-1.1 6.9-1.1l-1-7.1s-3.3.7-7.7 1.6m-29.3-9.4c1.6 8.4 3.6 18.7 3.6 18.7l-27.6 81-20 24.2c2.5 5.8 6.2 4 6.2 4l18-25.2 25.6-73.9 3.3-8.9s4.2-.8 8.8-1.5m-13.5-29.1c-.1-1-.2-1.6-.2-1.6l-6.3 1.6s.3 1 .6 2.8"/><path d="M178.4 185.3c-4.5 1-8.7 1.8-8.7 1.8s-1-8.8-2-16.1m51.2 50.3c-27.3-4.9-54.4-9.8-54.4-9.8m109.7 19.7s-11.8-2.1-27.7-4.9m6.3-3.5c14.5 2.6 24.8 4.5 24.8 4.5M166 207.2s29.3 5.2 57.9 10.4m-25.3 40.1c-16.2-19.4-34.7-41.6-35.5-42.1m59.2 70.6s-4.9-5.9-11.9-14.3m-12.2-21.4c-15.6-18.8-32-38.5-32.2-38.5m60.4 72.2s-6.5-7.8-15.1-18.3"/><ellipse transform="rotate(-12.439 245.537 88.837)" cx="245.5" cy="88.8" rx="15.4" ry="24.3"/><path d="M230.6 69.7c4.9 1.2 18.3-4 18.3-4m-19 7.7c7.5 2.4 23.8-6 23.8-6m-25.2 9.1c9.1 3.5 27.6-6.4 27.6-6.4m2.4 45.2c-1-2.1-2.8-5.5-2.8-5.5m-7.5 3s1.8 3.6 2.9 5.7m.7 25.2c-6.4-10.9-11.6-19.8-11.6-19.8s28.5-12.8 29.9-13.3l30 64.7-25 7.9s-7.2-12.4-15.5-26.5"/><path d="M275 183.2l-77.1 52.2 2.2 82.7 4.4 2.4 9.1-73.1 92.1-58.7-5.7-13.4m-104.9 2.5c12.1-3.4 36.3-10.3 36.8-10.5.7-.2 34.3-40.2 34.3-40.2"/><path d="M192.7 182.1s1.9 9.5 2 10.4-12.4 1.7-12.4 1.7l-3.7-6.2 1.5-10.3h15.2s.1 3.9 0 3.9m5.1 3.9l41.1-8.5s26.7-30.3 33.6-36.3m-74.9 177.5l-16.7-11.9 1.3-11.9s14.7 17.2 15.2 17.5l.2 6.3zM167.8 172l-5.4 1s-2.9-6.3-3-6.9c-.1-.7 9-3.6 9-3.6l4.3 2.5 45.7-11.5s15.7-13.9 25.6-22.6m6.3 15l-28 19.6-48.7 4.9-5.1 6.5m53.8-11.4l-4-12.1m23.2 23.5l-9.2-8.9"/></g><g stroke="#000" stroke-width="2" stroke-miterlimit="10"><path fill="none" d="M565.1 295.1c10.9-10.2 25.5-16.4 41.6-16.4 33.8 0 61.1 27.4 61.1 61.1s-27.3 61-61 61c-30.4 0-55.6-22.2-60.3-51.2m-.6-5.3c-.1-1.5-.2-3-.2-4.5 0-12.1 3.6-23.3 9.6-32.8l3.6-5.1c.5-.7 1.1-1.4 1.7-2.1m-138.4-12.7c18.1 10.6 30.3 30.2 30.3 52.7 0 33.7-27.4 61-61.1 61s-61.1-27.2-61.1-61 27.4-61.1 61.1-61.1c9.2 0 18 2.1 25.9 5.8m71.6 68c-1.1-2.5-1.8-5.3-1.8-8.2 0-10.7 8.6-19.3 19.3-19.3s19.3 8.6 19.3 19.3c0 10.7-8.6 19.3-19.3 19.3-6.1 0-11.5-2.8-15-7.1"/><path fill="none" d="M398.6 336.1c.6 1.1.9 2.4.9 3.7 0 4.5-3.7 8.2-8.2 8.2s-8.2-3.7-8.2-8.2 3.7-8.2 8.2-8.2c.6 0 1.1 0 1.6.1"/><path fill="#FFF" d="M551.8 245.8h46.1l1-18.9s-8 .1-18.4.7"/><path fill="none" d="M479.3 374.1l-19.1-13.6 1.9-6.7 23.6 16.7zm-1.1-13.2c8.7-3.3 28.2-10.9 28.2-10.9v-3.6s-16.8 6.3-27.4 10.3m31.5-31.3l68.9-79.5m-75.6 79.3l67.8-79.3m-45.9 103.3H619c2.8 0 0-4.9 0-4.9l-69.5-63.9"/><path fill="none" d="M525.7 344.3h82.7l-61.9-58.8m-80.6-59.6c4.2-.7 7.3-1.2 7.3-1.2l-1.1-7.5s-3.5.7-8.1 1.7m-30.7-9.8c1.7 8.8 3.8 19.7 3.8 19.7l-29 85.1-21.2 25.4c2.6 6.1 6.5 4.2 6.5 4.2l18.9-26.5 26.9-77.7 3.5-9.4s4.4-.8 9.2-1.6m-14.1-30.4c-.1-1.1-.2-1.7-.2-1.7l-6.6 1.7s.3 1.1.6 2.9"/><path fill="none" d="M450.1 221.9c-4.7 1-9.1 1.9-9.1 1.9s-1.1-9.2-2.1-16.9m53.8 52.9c-28.7-5.2-57.2-10.3-57.2-10.3m115.3 20.7s-12.4-2.2-29.1-5.2m6.5-3.7c15.2 2.7 26.1 4.7 26.1 4.7m-117.2-21.1s30.8 5.5 60.8 10.9M471.3 298c-17-20.4-36.5-43.7-37.3-44.2m62.2 74.1s-5.2-6.2-12.5-15m-12.8-22.5c-16.4-19.8-33.6-40.5-33.8-40.5m63.4 76s-6.8-8.2-15.9-19.2"/><ellipse transform="rotate(-12.439 520.606 120.5)" fill="none" cx="520.6" cy="120.5" rx="16.2" ry="25.5"/><path fill="none" d="M534.2 148.3l-2.9-5.8m-7.9 3.2s1.9 3.8 3.1 6m.7 26.5c-6.7-11.5-12.2-20.8-12.2-20.8s29.9-13.5 31.4-14l31.5 68-26.3 8.3s-7.6-13-16.3-27.8"/><path fill="none" d="M551.6 219.7l-81 54.8 2.4 87 4.6 2.5 9.5-76.8 96.8-61.7-6-14.2m-110.3 2.8c12.7-3.6 38.1-10.8 38.7-11 .7-.3 36-42.3 36-42.3"/><path fill="none" d="M465 218.6s2 10 2.1 10.9-13 1.8-13 1.8l-3.9-6.5 1.6-10.8h16s.1 4.1 0 4.1m5.4 4l43.2-8.9s28.1-31.8 35.3-38.1M473 361.6l-17.6-12.5 1.4-12.5s15.5 18.1 16 18.4l.2 6.6zm-33.9-153.8l-5.8 1.2s-3.1-6.6-3.2-7.3 9.5-3.8 9.5-3.8l4.5 2.6 48-12.1s16.5-14.6 26.9-23.8m6.7 15.9L496.2 201l-51.1 5.3-5.4 6.8m56.5-12.1l-4.1-12.6m24.3 24.7l-9.7-9.4"/></g><g stroke="#000" stroke-width="2" stroke-miterlimit="10"><path fill="none" d="M891.2 416.9c18.1-16.9 42.2-27.2 68.9-27.2 56 0 101.2 45.4 101.2 101.2s-45.2 101-101 101c-50.4 0-92.1-36.8-99.9-84.8m-1-8.8c-.2-2.5-.3-5-.3-7.5 0-20 6-38.6 15.9-54.3l6-8.4c.8-1.2 1.8-2.3 2.8-3.5m-229.3-21c30 17.6 50.2 50 50.2 87.3 0 55.8-45.4 101-101.2 101s-101.2-45.1-101.2-101 45.4-101.2 101.2-101.2c15.2 0 29.8 3.5 42.9 9.6M765 511.9c-1.8-4.1-3-8.8-3-13.6 0-17.7 14.2-32 32-32 17.7 0 32 14.2 32 32 0 17.7-14.2 32-32 32-10.1 0-19-4.6-24.8-11.8"/><path fill="none" d="M615.4 484.8c1 1.8 1.5 4 1.5 6.1 0 7.5-6.1 13.6-13.6 13.6s-13.6-6.1-13.6-13.6 6.1-13.6 13.6-13.6c1 0 1.8 0 2.7.2m263.2-142.3h76.4l1.7-31.3s-13.3.2-30.5 1.2M749.1 547.7l-31.6-22.5 3.1-11.1 39.1 27.6zm-1.8-21.9c14.4-5.5 46.7-18.1 46.7-18.1v-6s-27.8 10.4-45.4 17.1m52.2-51.8l114.1-131.6M789.7 466.7L902 335.4m-76.1 171.1h154.5c4.6 0 0-8.1 0-8.1l-115-105.9"/><path fill="none" d="M825.9 498.3h137L860.4 401m-133.5-98.8c7-1.2 12.1-2 12.1-2l-1.8-12.4s-5.8 1.2-13.4 2.8"/><path fill="#FFF" d="M672.9 274.4c2.8 14.6 6.3 32.6 6.3 32.6l-48 140.9-35.2 42.2c4.3 10.1 10.8 7 10.8 7l31.3-43.9 44.6-128.7 5.8-15.6s7.3-1.3 15.2-2.7"/><path fill="none" d="M680.4 255.9c-.2-1.8-.3-2.8-.3-2.8l-10.9 2.8s.5 1.8 1 4.8m30.5 34.9c-7.8 1.7-15.1 3.1-15.1 3.1s-1.8-15.2-3.5-28m89.2 87.7c-47.5-8.6-94.7-17.1-94.7-17.1m190.9 34.3S847 372 819.3 367m10.9-6.1c25.2 4.5 43.2 7.8 43.2 7.8m-194.2-35s51 9.1 100.7 18.1m-44.1 69.9c-28.2-33.8-60.5-72.4-61.8-73.2m103.1 122.7s-8.6-10.3-20.7-24.8m-21.2-37.3c-27.2-32.8-55.7-67.1-56-67.1m105 125.9s-11.3-13.6-26.3-31.8"/><ellipse transform="rotate(-12.439 817.582 127.715)" fill="none" cx="817.6" cy="127.7" rx="26.8" ry="42.2"/><path fill="none" d="M840.2 173.7l-4.8-9.6m-13.3 5.3s3.1 6.3 5.1 9.9m1.2 43.9c-11.1-19-20.2-34.5-20.2-34.5s49.5-22.4 52-23.2l52.2 112.6-43.6 13.9s-12.6-21.5-27-46"/><path fill="none" d="M868.8 292l-134.1 90.7 4 144.1 7.6 4.2L762 403.8l160.3-102.2-9.9-23.5m-182.7 4.6c21-6 63.1-17.9 64.1-18.2 1.2-.5 59.6-70.1 59.6-70.1"/><path fill="none" d="M725.6 290.1s3.3 16.6 3.5 18.1c.2 1.5-21.5 3-21.5 3l-6.5-10.8 2.7-17.9h26.5s.2 6.8 0 6.8m8.7 6.6l71.6-14.7s46.5-52.7 58.5-63.1M738.7 527l-29.2-20.7 2.3-20.7s25.7 30 26.5 30.5l.4 10.9zm-56.2-254.7l-9.6 2s-5.1-10.9-5.3-12.1c-.2-1.2 15.7-6.3 15.7-6.3l7.5 4.3 79.5-20s27.3-24.2 44.6-39.4m11 26.2l-48.8 34-84.7 8.8-8.9 11.2m93.6-20l-6.8-20.9m40.2 40.9l-16-15.5"/></g></g></svg>