<svg version="1" xmlns="http://www.w3.org/2000/svg" width="432" height="432"><path fill="none" stroke="#000" stroke-width="2" stroke-miterlimit="10" d="M208 105.9s-14.2-7.8-18.5-6.8-14 3.3-14 3.3-17.5-.4-18.8 0c-1.2.4-10.2 2.2-11 3.4s-10.2 8-10.2 8L126 125s1 12.8 0 13.8-13.6 16-13.2 18.2 2.7 12.8 2.7 12.8 6.8 12 6.5 13-1.8 9.8-1.8 11.2-1.2 16 3.8 22.8 13.8 14 13.8 14l12.5 11.5s13.5 1 16 1.5 17.5 7.2 17.5 7.2 25.8 4.2 35 2.8S241 249 241 249s11-4.8 12-5 17-8 19-8.8 13.8-2.2 13.8-2.2l11.5-6.2 6.5-9.8 3.2-14s9.5-11.2 10-13 2.2-16 2.2-17 .2-3 0-7.5.5-8.5-1-13.2-3.5-5.8-5-11-1.8-10.8-1.8-10.8l-6.2-12.8-8.8-7.7-8.5-4.2-12.2-1.2h-14s2-3.8-13-3.8-4 .5-15 0-9.5-.5-9.5-.5l-16.2 5.6zM219.7 273s-3.9-1.2-5.4 1-2.1 4.1-2.2 5 .9 5.2.9 5.2 2.6 2 5.6 1.8 8-3.2 8-3.2.2-1.8 0-4.8-6.9-5-6.9-5zm-14 23c-.6 0-4.5-2-6.1.6s-2.1 4.1-2.2 4.8-3.6 4.4 0 6 7.8 2.1 7.8 2.1l4.5-1.2 1.2-4.6v-4l-5.2-3.7zm-22.4 24.7s-4.8.5-5.1 1-2.6 3.9-2.6 4.8v2.6l5.1 3h7.4l2.1-3.6V323l-2-2.4h-4.9z"/></svg>