<svg version="1" xmlns="http://www.w3.org/2000/svg" width="960" height="523"><path fill="#FFF" stroke="#000" stroke-width="3" stroke-miterlimit="10" d="M509.6 235.3h-5.5l-3.5 3.2-2.2 5.2s-1 2.8 0 4.2-1.8-.2 1 1.5 4.4 2.2 4.4 2.2h5.8s3-.2 4.5-1.8 2-2 3-3.2 4 0 2.8-3.2c-1.2-3.2 0-3-1.8-4.8-1.8-1.8-1-3.2-3.2-3.5-2.2-.3-5.3.2-5.3.2zm-23.8 21.2h-6.7l-5 4.2s.5 1.2 0 3.2-1 3.2 0 5 3.2 3.5 3.2 3.5h7.2l8-1.2s-.2-1 0-3.2-.5-3.8 0-5.5.1-5 .1-5l-2.8-1h-4zM450 270.1h-5.8l-2 4.5-1.5 4.2s-2 3.8 0 6l2 2.2 7.2 1h5s4.5-5.2 4.5-6v-3c0-2 1-5.5 0-6.5s-1.5-2.2-3-2.5-6.4.1-6.4.1z"/></svg>