<svg version="1" xmlns="http://www.w3.org/2000/svg" width="432" height="432"><path fill="none" stroke="#000" stroke-width="2" stroke-miterlimit="10" d="M281 250.4v-77.5l31-13v111.5l-31-21-23 21-38-18-32 18-28-21-34.5 21-5-109 39.9 4.8v84"/><path fill="none" stroke="#000" stroke-width="2" stroke-miterlimit="10" d="M258 271.4V163.2l-38 8m-32 100.2V159.9l-27.6 7.3m59.6 86.2v-82.2l-32-11.3m70 3.3l23 9.7"/><path fill="none" stroke="#27AAE1" stroke-width="2" stroke-miterlimit="10" d="M272.8 169.4s-40.1 18.9-34.4 92.7m-117.1-81.9s61.7 74 190.7 39m-109.3 43.9s9.1-94.7-81.4-88.7"/></svg>