<svg version="1" xmlns="http://www.w3.org/2000/svg" width="432" height="432"><path d="M239.6 325.4l-3-4.7 1.7-1.1 2.5 3.9-.5.4.5.9-1.2.6zm-28.8-2.7l-4.6-2 .8-1.8 4.6 2-.8 1.8zm34.4-.1l-.9-1.8 4.5-2.2.9 1.8-4.5 2.2zm-29.2-.3l-1.6-1.2 3-4 1.6 1.2-3 4zm-14.4-3.7l-2.2-1 6.1-3.1.9 1.8-4.2 2.1-.3-.6-.3.8zm51.3-.4l-4.6-2 .8-1.8 4.6 2-.8 1.8zm-18.9-1.7l-2.7-4.2 1.7-1.1 2.7 4.2-1.7 1.1zm-12-2.2l-1.6-1.2 1.9-2.6v-1.1h2v1.8l-2.3 3.1zm21.7-.1l-4.6-2 .8-1.8 4.6 2-.8 1.8zm-32.8-.1l-.9-1.8 4.5-2.2.9 1.8-4.5 2.2zm5.7-6.4l-.3-5 2-.1.3 5-2 .1zm13.5-.7l-.1-5h2l.1 5h-2zm9.6-.2h-2v-5h2v5zm-17.4-2.4v-5h2v5h-2zm-6.4-6.6l-.3-5 2-.1.3 5-2 .1zm14-.8l-.1-5h2l.1 5h-2zm9.8-.2h-2v-5h2v5zm-17.5-2.4v-5h2v5h-2zm-6.9-6.6l-.3-5 2-.1.3 5-2 .1zm14.4-.8l-.1-5h2l.1 5h-2zm10-.2h-2v-5h2v5zm-17.5-2.4v-5h2v5h-2zm-7.6-6.6l-.3-5 2-.1.3 5-2 .1zm14.8-.8l-.1-5h2l.1 5h-2zm10.3-.2h-2v-5h2v5zm-17.5-2.4v-5h2v5h-2zm-8.2-6.6l-.3-5 2-.1.3 5-2 .1zm15.2-.8l-.1-5h2l.1 5h-2zm10.5-.2h-2v-5h2v5zm-17.5-2.4v-5h2v5h-2zm-8.9-6.6l-.3-5 2-.1.3 5-2 .1zm15.7-.8l-.1-5h2l.1 5h-2zm10.7-.2h-2v-5h2v5zm-17.6-2.4v-5h2v5h-2zm-9.4-6.5l-.3-5 2-.1.3 5-2 .1zm16-.8l-.1-5h2l.1 5h-2zm11-.3h-2v-5h2v5zm-17.6-2.4v-5h2v5h-2zm-10-6.5l-.3-5 2-.1.3 5-2 .1zm16.4-.8l-.1-5h2l.1 5h-2zm11.2-.3h-2v-5h2v5zm-17.6-2.4v-5h2v5h-2zm-10.7-6.5l-.3-5 2-.1.3 5-2 .1zm16.9-.8l-.1-5h2l.1 5h-2zm11.4-.3h-2v-5h2v5zm10.6-.3c-.5 0-.9-.3-1.1-.8-.1-.2-.2-.7-.8-3.1l1.9-.5c.2.8.3 1.3.4 1.8 0 0 .1-.1.2-.1l1.4 1.4c-.9.9-1.4 1.3-2 1.3zm.8-1.4zm-1-.6zm-28.1-.1v-5h2v5h-2zm33.8-3l-1.5-1.3.3-.3-1.3-3.2 1.9-.8 1.7 4.3-.4.5s-.3.3-.7.8zm-45-3.5l-.3-5 2-.1.3 5-2 .1zm36.5-.2l-.4-1.7-1.2-1 2.4-3 1.2 5.2-2 .5zm-18.3-.5h-4.2v-2h5.1v1.8h-1v.2zm10.7-.4h-2v-5h2v5zm2.9-.3l-.8-1.2 1.3-4.3 1.9.6-1 3.4.3.4-1.7 1.1zm8.8-4.5l-.7-1.6v-3.6h2v3.2l.5 1.3-1.8.7zm-41.3-4.1l-.3-5 2-.1.3 5-2 .1zm29.6-1.1h-2v-5h2v5zm4-.4l-.2-5 2-.1.2 5-2 .1zm9-4.6h-2v-5h2v5zm-43.2-3.8l-.3-5 2-.1.3 5-2 .1zm30.2-1.2h-2v-5h2v5zm3.7-.4l-.2-5 2-.1.2 5-2 .1zm9.3-4.6h-2v-5h2v5zm-43.9-3.8l-.3-5 2-.1.3 5-2 .1zm-8.5-.4l-1.5-1.4 3.4-3.6 1.5 1.4-3.4 3.6zm39.4-.8h-2v-5h2v5zm3.4-.4l-.1-4.3-.1-.1h.1v-.2h.3l1.3-1 .4.6.2 4.9-2.1.1zm-47.2-2.8l-2.9-4.1 1.6-1.1 2.9 4.1-1.6 1.1zm56.8-1.8h-2v-4l-.2-.4 1.7-1 .5.9v4.5zm-45.5-1.5l-1.5-1.4 4.2-4.5.2 3.4h-.8l-2.1 2.5zm32.6-2.2l-1-1.3h-1.2V172l3.7 4.8-1.5 1.3zm-49.6-2.7l-2.9-4.1 1.6-1.1 2.9 4.1-1.6 1.1zm9.9-2c-.5 0-.9-.3-1.3-.8l.6-.6-.2-.1c.1-.1.9-1.6 2.1-3.7l1.7 1c-1.2 2.1-2 3.6-2.1 3.7l-.3.5h-.5zm47.9-.4l-2.5-4.3 1.7-1 2.5 4.3-1.7 1zm-52.5-4.3c-1-1.3-2.1-2.7-3.1-3.9l1.6-1.2c1 1.3 2.1 2.6 3.1 3.9l-1.6 1.2zm-10.4-.8l-5-.2.1-2 5 .2-.1 2zm20.4-3l-1.7-1 2.5-4.4 1.7 1-2.5 4.4zm37.5-.5l-2.5-4.3 1.7-1 2.5 4.3-1.7 1zm-64.5-.2h-2v-5h2v5zm10.7-3.4l-.5-.6.4-5 2 .2-.3 4.6h-.4l-1.2.8zm21.3-4.7l-1.7-1 .1-.2c.2-.3.3-.5.4-.7l-.5-.9 5-.3.1 2-2.8.2c-.1.2-.3.5-.4.8l-.2.1zm-27.2-.1h-5v-2h5v2zm54.7-.3l-.6-1.1-2.6-.1v-2l3.7.1 1.2 2.1-1.7 1zm-19.2-1.1l-.1-2h.6l-.5-1.9 1.9-.5 1.1 4.2-3 .2zm11-.2h-2v-4.9h2v3h.1l-.1 1.9zm-46.4-3l-.4-5.6h1.5v1h.6l.3 4.6h-2zm8.1-1l-2-.1.2-2.6h-.2l-.1-2 2.4-.1-.3 4.8zm27.2-1.6c-.1 0-2-1-4.2-3.3l1.4-1.4c1.9 2 3.6 2.8 3.6 2.8l-.8 1.9zm13.6-2.4l-1.5-1.4c1-1.1 1.9-2.4 2.7-3.9l1.8.9c-.8 1.7-1.8 3.2-3 4.4zm-21-5.1c-.8-1.5-1.5-3.1-2-4.8l1.9-.6c.5 1.6 1.1 3 1.8 4.4l-1.7 1zm25.9-4.1l-1.9-.5c.7-2.6.7-4.5.7-4.5v-.1l2-.1v.2c-.1.1-.1 2.2-.8 5zm-28.9-5.8c-.1-.8-.1-1.7-.1-2.5v-2.7l2 .1v2.5c0 .8.1 1.6.1 2.3l-2 .3zm27.2-4.2c-.2-1.7-.6-3.3-1-4.8l1.9-.5c.4 1.6.8 3.2 1 5l-1.9.3zm-24.7-5.6l-2-.4c.4-1.8.9-3.4 1.6-5l1.8.8c-.5 1.4-1 2.9-1.4 4.6zm22.1-3.7c-.7-1.5-1.6-2.9-2.5-4l1.5-1.3c1.1 1.3 2 2.8 2.8 4.4l-1.8.9zm-18.1-4.8l-1.5-1.3c1.2-1.4 2.6-2.6 4.2-3.4l.9 1.8c-1.3.7-2.6 1.6-3.6 2.9zm12.1-2.3a9.57 9.57 0 00-4.3-1.5l.2-2c1.2.1 3 .5 5.1 1.8l-1 1.7z"/></svg>