<svg version="1" xmlns="http://www.w3.org/2000/svg" width="432" height="432"><path fill="none" stroke="#000" stroke-width="2" stroke-miterlimit="10" stroke-dasharray="5" d="M219.1 147.9s-9.6-4.5-9.9-19c-.3-14.5 7.2-20 11.7-20.6 4.5-.6 15.2 3.3 16 23.9 0 0-.1 10.6-8.1 15.9v5.3l9.2.2 13.7 23.9v32.7l4 9.8s-5.2 6.3-5.5 5.4c-.3-.9-2.7-11.1-2.7-11.1l-2.8 3.5-1.8-2.7 1.9-6.2-.9-27.1-5.2-6.8v136l14.8 6.4-13.5 6.7-8.8-13.8-2.2-94.1h-6l.3 94.6-9.2 12.3-12.3-5.5 15.9-8-8.6-132.8-9.6 10.2-14-20.1-8-.4V155h7.2l-.6-8.2 6.7-.2-1 13.3s10 13 10.3 12.5 10.3-18.2 10.3-18.2l10.2-.7-1.5-5.6z"/></svg>