<svg version="1" xmlns="http://www.w3.org/2000/svg" width="432" height="432"><path fill="none" stroke="#000" stroke-miterlimit="10" d="M123.2 153.9l2.5 124h178.5l4-124zm0 18.5h184.4m-184.4 18h184.4m-184.4 18h184.4m-183.3 18h181.2m-181.2 18h181.2m-181.2 18h180.4M148.4 153.9v18.5m50.8-18.5l-.9 18.5m44.5-18.5l1.6 18.5m39.8-18.5v18.5m-18 0l-1 18m-45-18v18m-49-18v18m-23.8 0l1 18m46-18v18m45.8-18l1.2 18m40.9-18l-.8 18m-15.3 0l-1 18m-45-18v18m-49-18v18m-23.8 0l1 18m46-18v18m45.8-18l1.2 18m40.9-18l-.8 18m-15.3 0l-1 18m-45-18v18m-49-18v18m-23.8 0l1 16m46-16v16m45.8-16l1.2 16m40.9-16l-.8 16"/></svg>