<svg version="1" xmlns="http://www.w3.org/2000/svg" width="568.8" height="432"><path fill="none" stroke="#000" stroke-width="2" stroke-miterlimit="10" d="M27.3 216.3h513.5M27.3 202.2v27.6m19-21.8v16.6m19-16.6v16.6M84.4 208v16.6m19-16.6v16.6m19-16.6v16.6m19-16.6v16.6m19-16.6v16.6m19-16.6v16.6m19.1-22.4v27.6m19-21.8v16.6m19-16.6v16.6m19-16.6v16.6m19-16.6v16.6m19.1-16.6v16.6m19-16.6v16.6m19-16.6v16.6m19-16.6v16.6m19-22.4v27.6m19.1-21.8v16.6m19-16.6v16.6m19-16.6v16.6m19-16.6v16.6m19-16.6v16.6m19-16.6v16.6m19.1-16.6v16.6m19-16.6v16.6m19-22.4v27.6"/></svg>