<svg version="1" xmlns="http://www.w3.org/2000/svg" width="432" height="432"><path fill="none" stroke="#000" stroke-width="2" stroke-miterlimit="10" d="M237.4 158.5h-9.7c.2-.9.3-1.8.3-2.8 0-6.8-5.5-12.2-12.2-12.2s-12.2 5.5-12.2 12.2c0 .9.1 1.9.3 2.8h-9.7c-4 0-7.2 3.2-7.2 7.2v7.3h57.8v-7.3c-.2-4-3.4-7.2-7.4-7.2z"/><circle fill="none" stroke="#000" stroke-width="2" stroke-miterlimit="10" cx="215.7" cy="155.2" r="5.2"/><path fill="none" stroke="#000" stroke-width="2" stroke-miterlimit="10" d="M243.9 163h17.7v143.4h-91.8V163h17.9"/><path fill="none" stroke="#000" stroke-width="2" stroke-miterlimit="10" d="M245.1 169h11.8v132.2h-82.4V169h12.6"/><path fill="none" stroke="#000" stroke-width="2" stroke-miterlimit="10" d="M179.9 180.5h12.7v12.7h-12.7zm0 16.8h12.7V210h-12.7zm0 16.8h12.7v12.7h-12.7zm0 16.8h12.7v12.7h-12.7zm0 16.9h12.7v12.7h-12.7zm0 16.8h12.7v12.7h-12.7zm0 16.8h12.7v12.7h-12.7z"/></svg>