<svg version="1" xmlns="http://www.w3.org/2000/svg" width="432" height="432"><g fill="#27AAE1"><path d="M199 103.6s-15.6 25.3 6.1 40.8c0 0-13.6 0-15.2-14.8-1.7-14.9 2.3-23.9 9.2-26.7m-4 48.9l9.1 55.4h23.1l-27.6 4.4-11.4-58.3zm8.2 59.4l-1.1 98.7-15.8 17 16.9 2.9 4.4-19.9 4.8-99.5zm17.8-2.1l17.9 98.2 19.2 12-18.6 8.4-4.2-19.4-19.5-98.6z"/><path d="M189.4 161.4l-13 19.8 21.6 23.5 1 3.3-11.6 2.4 2.6 3.7 9.7-3.7-2.3-10.3-15.9-19.8 9.7-11.8z"/></g><g fill="none" stroke="#000" stroke-width="2" stroke-miterlimit="10"><ellipse transform="matrix(.9951 -.09903 .09903 .9951 -11.259 20.71)" cx="203" cy="123.8" rx="14" ry="20.7"/><path d="M211.1 104.6s-13.7 4.2-22.8 4.3m24.8-1.7s-11.5 6-24.8 5.4m26.5-3.7s-12.2 10.2-28.5 7.5m2 36.9s28-6.3 36.8-6.1l2.2 61.1-27.7 3.3-11.3-58.3zm48.1 154.9l5.9 16.5 18.8-6.4-18.5-11z"/><path d="M202.3 144.2l1.4 5.9 7.4-1.3-1-6.4m-21.8 10.9l-19.4 28.5 26.4 25h-10.4l5.1 7.3 9-3.2"/><path d="M197.1 199.6c-2.2-2.7-15.8-19.5-15.8-19.5l9.8-12.3m-21.7 13.4l11.9-1.1m43.8-32.9l21.5 22.1-16 33.4 9 1.7-3.7 5.5-8.5-1.6"/><path d="M225.7 163.8l9.1 8.5-7.9 23.2m7.9-23.2l11.8-3m-46.9 42.3l.8 97.3 7.2 1 4.8-99.5 3.4-.7 19.5 98.6 7.2-1-15.3-101.4"/><path d="M200.5 308.9l-14.1 14.8 17.3 3.2 4-17m28.2-159.8l37.7-40.1m-31 45.4l62.8-42.7m-56.3 48.7l46.3-25.5m-43.8 31.9l43.8-12.4m-110-5.3l-40.3-41.2m-5.2 16.5c1.8 1 38.5 27.9 38.5 27.9m-51.8-16.1c.8.2 48.7 20.5 48.7 20.5m-2.7 6.1l-46-10.5m56 63.4l-54.5 46.5m48.3-50.3l-38 22m45.6-8.2l-34.4 36.5m38.7-31c-.7 1.2-24.9 49.2-24.9 49.2m74-54.7l34.8 39.7m-31.5-47.7l58.7 47.7m-53.8-52.3l55.3 25.8m-54.3-34l44.8 10.8"/></g></svg>