<svg version="1" xmlns="http://www.w3.org/2000/svg" width="432" height="432"><path fill="#27AAE1" d="M249.4 212.8c.3.3 1.2 18.1-14.7 13.8 0 0 4.8 7.8 13.9 1.4 0 0 4.7-5.5 3.1-10.8-1.7-5.4-2.3-4.4-2.3-4.4z"/><g fill="none" stroke="#000" stroke-width="2" stroke-miterlimit="10"><circle cx="215.5" cy="216.1" r="72.3"/><ellipse transform="rotate(-82.49 203.502 190.162)" cx="203.5" cy="190.2" rx="18.3" ry="12.5"/><path d="M185.8 207.2l-12.5-10.4 5.1-11.5c13.2-27 29.8-21.5 29.8-21.5s14.8.1 15.9 21.5 0 24.9 0 24.9l-14.1 2.2"/><path d="M196.1 205.9l-1.1 4.9 3.8 8.5 4.2-6.4 1-4 6.5 3.7s5.3 9.9 7.5 13.9m-23-18.1l-9.8-1.2-12.4 21.3 13 4.8 4-10.5"/><path d="M176.7 229.9l-2.4 4.6 24.2 23.3 12.5-5m-25.2-19.5s8.5 8.1 11.5 11"/><ellipse transform="rotate(-77.801 242.527 220.256)" cx="242.5" cy="220.2" rx="10.5" ry="9.4"/><path d="M233.5 246.6c.4-.4 7.9-8.8 7.9-8.8l-10.1-6.2-3.2 6.1 5.4 8.9zm-3.2-13.3l4.1 3.6m-5.2-1.4l3.2 3.6m13.3-9.2s-2.2 3-5.8 6.7"/><path d="M232.4 243.5c-9.3 7.5-22 13.6-33.4 4.8 0 0-10.1-10.9 22.5-23.6 0 0 9.5-3.9 11.6-4.5m-47.5 25.1v7.4l-12.2 22.1m40.3-22.3l12 35.1m-40.1-34.9s5.9 2 10.7 3"/></g></svg>