<svg version="1" xmlns="http://www.w3.org/2000/svg" width="432" height="432"><path fill="#27AAE1" d="M216.2 159.7s-21.6 29-7.5 46.5c0 0-11-7.1-10.3-18.8s6.3-20.2 6.3-20.2 5.5-7 11.5-7.5zM164 267c1.9 2 5.7 4.3 7.2 7.2 1-21.7 21.2-68.2 21.2-68.2l-4.1-1.8-11.2 19.8s-8.8 25.6-13.4 42.9c.2 0 .3 0 .3.1z"/><g fill="none" stroke="#000" stroke-width="2" stroke-miterlimit="10"><circle cx="215.7" cy="215.8" r="72.3"/><ellipse transform="rotate(-79.432 214.518 182.624)" cx="214.5" cy="182.6" rx="24" ry="15.6"/><path d="M229.7 164.6s-18.2-.3-22.9-3.7m24.8 7s-17.4 3.1-26.9-3.4m27.7 7.4s-22.3 3.4-30.4-4m4.8 91.4c-2.2 11.6-4.3 22.3-5.2 26.9m-37.4-20.3c3.1-15.5 10.2-42.8 23.6-62 0 0 18.8 7.1 26.8 15.4 0 0-2.1 11-4.7 24.2"/><path d="M202.5 202.4l-3.2 6.6 8 4.6 2.8-7.3m-8.1 12.9s5.9 22.5 10.5 28c0 0 12.4-3.4 21.9-16.8l5.1 2.8s-6.9 29.4-37.5 27c0 0-12.9-15.4-13.7-32m24.1 19l-10.4 13"/><path d="M234.3 230.4l-1-11.3 2.8-1.6 3.9-12 4.1 1.4s1.8 8.9 1.4 13.5-6.1 12.2-6.1 12.2m.1-27.1h-3.7l-4 9.6H229v13.2s-7.6 11.5-17.5 10.8m18.4-10.3l3.4 2"/></g></svg>