<svg version="1" xmlns="http://www.w3.org/2000/svg" width="432" height="432"><g fill="#27AAE1"><path d="M191.6 120.1s-23.5 15.8-13.1 35.8c0 0-12-6.7-4.8-21.3s15.5-15.2 17.9-14.5z"/><path d="M175.3 154.6l-1.9 5.6-3.9-2.1 4.3-6.9zM163 165.7c-.5 2-6.1 21.6-6.1 21.6l-2.1-1.5s-1.3-8.3-.8-8.3 5.8-11.3 5.8-11.3l3.2-.5zm-13.3 33.2l-1.9 9.6 13.9 5.6-20.8-3.4 5.8-13.9zm4.2 14.2l-8 84.9 14.5 9-10.7 6.7-10.6-14.9 1.8-88.1zm10.1 2.2l18.2 83.9 17.9 8.4s-10.9 6.9-11 6.1c-.2-.8-11.7-14.8-11.7-14.8l-21.5-85.7 8.1 2.1z"/></g><g fill="none" stroke="#000" stroke-width="2" stroke-miterlimit="10"><ellipse transform="rotate(-66.229 186.245 138.284)" cx="186.3" cy="138.3" rx="19.2" ry="13"/><path d="M182.8 120.1s9.7 5.5 17.7 5m-20.6-2.7s10.8 8.4 21.6 6.8m-24.2-4.2s16.5 11.1 25.5 8.8m-37.3 21.3l-20.7 8.7 2.1 20.1-3 2.2v8.2l8.3 5.5 4-7.3 2.5 1.2 1.5-4.1-5.5-3.8-.8-17.6 11.7-3.3"/><path d="M164 155.9c.4-.9.6-1.4.6-1.4 1.8.8 18.1 11.9 18.1 11.9s-6.4 22.2-10.5 36.7m-1.5 5.1c-1.2 4.3-2 7.1-2 7.1l-27.8-4.6s2.5-5.9 5.8-13.9m7.7-18.2c1.9-4.4 3.7-8.7 5.2-12.4m14.2-15c-.3.8-3.3 6.9-3.3 6.9m10-1.7l-2.4 6.7m1.9 12.8l7.8 34.8m3.3 2l-5.7-3.4-4.9 9.6 9.4 5.4zm-.2 3.4c28.3 19.7 56.7 39.4 56.7 39.4l-3.7 2.3s-26.3-18-53.4-36.4m-8.3-5.7c-10.2-6.9-20-13.7-28.3-19.3m-9.9-6.8c-7.2-4.9-11.7-8-11.7-8l2-5s4.5 3.1 11.6 8.1m12.8 9c7.7 5.4 16.7 11.6 25.8 18m-8.4-22.3c-.3 1 3.9 19.1 3.9 19.1m85.9 38.9l-38.8 19.9 3.6 8.3 2.7-1.3-2-6.1 8.1-3.9 3.4 6.9 2.5-1-2.7-7.9 6.4-3.3 4.6 8 2.5-1.4-3.5-7.8 7.2-3.6 4.6 8.1 1.4-.8-3.2-9.1 6.4-3.2 4.8 7.5 2.1-1.5-4.5-10.7z"/><path d="M140.9 210.7l-1.8 87h6.3l8.5-84.9m1.3.3l22.1 84.6h6.6l-15.2-82.4m-29.6 82.4l11 12.6 10.3-5.1-15-7.5m31.9 0l15.6 13.6 11.5-5.9-19.9-7.7m-39.7-133.9l9.1 4.4m63.2 122.5c.2-.5 1.5-3.2 2-3.5s1.2.3 2.7 0 1.8-1.2 3.3-.1 2.5 1.5 2.5 1.5 6.5-2.6 7.1-2.9 4.1-.9 4.1-.9l1.4 1s4 2 4.3 1.9.2.6 1 0 3.4-1.9 3.4-1.9.3-.8 1.9-1 3.3-.6 3.3-.6 1.2-.4 2.8 0c1.5.4 2.6.6 2.6.6s2.2 2.8 3.1 2.5c.9-.3 4.4-2.2 4.4-2.2s1.4.2 2.5-.1 1.5-1.5 1.9-1.6 1.8-.8 2.5-.8 2.2-.1 3.7 0 3.4 0 4.3.8 2.6 1.8 2.6 1.8.2.2 1.6.7c1.3.5-.3.4 2.1.8s2.6-.5 3.5 0 3.3.7 3.3.7l3.2.8 2 1.8m-73.9 2.5l3.6-.6m0 3.9c.4-.1 2.2-1.8 2.6-1.8m18.4-4.1s2.3.9 3.1 2.6m13.7.6s2.9 1.2 4.3-.9m6.1-5.6l3 1.7m4.9 2.4h2.4"/></g></svg>