<svg version="1" xmlns="http://www.w3.org/2000/svg" width="432" height="432"><path d="M187.2 189.9s-1.8 23.3 7.5 26.2c0 0-11.1.6-12.3-7.7-1.1-8.3-.3-15.4 4.8-18.5zm12.4 53.6c.5-.1 8.1 18.8 8.8 18.3s8.7-6.1 9-5c.2 1.1 1.6 4.8 1.1 5.1s-10.8 5.2-10.8 5.2l-11.1-21.8-11.9-.3v-8.2l-.4-3.5h-2.9l2.3-13.6 4.4-.5-2.9 13.3.4 5.1 10.7 4.4 2.1 1.6 1.2-.1z" fill="#27AAE1"/><g fill="none" stroke="#000" stroke-width="2" stroke-miterlimit="10"><circle cx="215.8" cy="216.1" r="72.3"/><ellipse transform="rotate(-5.548 191.756 202.616) scale(.99998)" cx="191.8" cy="202.6" rx="10.5" ry="13.8"/><path d="M189.4 215.9v3.4m7.4-3.7v3.1m-14-26.2s8.2.7 13.7-3.3m-15.2 5.1s7.3 4.3 17-3.5m5.4 52l-3.5-24.7-16.6 1.7-1.8 12.8m-7 43.3c1.2-6.5 5.7-30.5 5.7-30.5h16.8m2.2 41v-29.7m0 9.1h7.8m3.2 0h12m25.9 14.8c.1-.1-5.5-29.7-6.4-34.4m-14.1-.9h-4.3l-3.5 8.3m2.7 34.8v-31.7"/><ellipse cx="216.3" cy="169.9" rx="14.3" ry="19.9"/><path d="M211 188.8l-.8 4m12.3-4.9l1.2 4.3m-14.2 0l6.8 3.6 9.3-5 1.4 5-3.3 8.2-7.4-6.6-5.7 6.6-3-9z"/><path d="M214 200.1l1.4 3.3h2.8l1.1-3.3"/><path d="M215.5 203.6l-4.8 25.7s5.6 18.2 5.7 17.3c0-.4 7.6-17.3 7.6-17.3l-5.7-26m-9.9-9.4l-7.8 1.7m-19.3 4.5l-3.2 1.6-10.3 33.7 2.7 3.2"/><path d="M184.2 245.3v-12l-12.6-.8s-2 9.9-2 11l10.6 3m-3.3-9.3c.3.1 6.7 1.3 6.7 1.3m-7.4 3l7.4 1.3m1 0s7.6.4 11.4-.3m7.1-2.9l8.8 20.3 5.4-3.1 1.1 5.1-10.8 5.2-11.1-21.8"/><path d="M203.7 240.2l4.7-1.6L214 255l5.9-3 1 6-2.5 1.5m-26.9-35l-2.1 9.7 9.3 3.7-2.4 4.3-12.1-5m0 0l2.6-13.2"/><path d="M198.7 237.9h4.2v4.9l-6.1 1.3-.5-1.9m29.9-49.4l19.3 5.7 7.3 33-10.2 11.3"/><path d="M241.2 250.5l2-10.9H227l1.5 10.9zm-10.5-10.9c.5-1.1 8.8-11.1 8.8-11.1l-4.4-21.7m-3.1 43.7l-.6-6.4m3.7 6.4v-6.7m2.8 6.7l.9-6.7"/></g></svg>