<svg version="1" xmlns="http://www.w3.org/2000/svg" width="432" height="432"><g fill="#27AAE1"><path d="M190.3 162.6s-12.5 23.2 2.5 38.3c0 0-12.3-2.5-12.5-19.2s10-19.1 10-19.1zm-19.6 68.9c-1-.4-1.7-1.3-1.4-2.4.3-.9 1.4-1.7 2.4-1.4.4.2.8.3 1.2.5l3.2-5.2-1.4-6.8-10.6 16.8 3.7 3.5 3.1-5c-.1.1-.1 0-.2 0z"/><path d="M182.2 229.1h.8l-1.6-22.3-6.6.9 1.6 21.6c1.9-.1 3.9-.1 5.8-.2zm.3 51.7c.3.3.7.5 1.1.7.1 0 .1.1.2.1.3.1.5.2.8.3.2.1.4.2.6.2 1 .3 1.6.9 2.1 1.6v-13.4l16.6-.4-18.4-4.3-.5-7c-1.1.3-2.4.4-3.6.5-1.1 0-2.1-.1-2.9-.3l1.4 21.5c.8-.2 1.7 0 2.6.5z"/><path d="M200.2 287.3c.9.1 1.8.2 2.6.3.2 0 .4 0 .6.1l-1.1-17.4h-5.1l1.6 16.8c.4.1.9.1 1.4.2z"/></g><g fill="none" stroke="#000" stroke-width="2" stroke-miterlimit="10"><circle cx="215.6" cy="216.4" r="72.3"/><ellipse cx="192.8" cy="181.8" rx="12.5" ry="19.2"/><path d="M183.9 165.1s7.5 1.8 16-.7m-18.1 4s8.2 2.5 21-.8m-22.5 4.5s17.8 2.3 24.2-2m4.9 56.3v-19.5c-12.8-2.2-34.7.8-34.7.8s.8 9.4 1.9 20.7m2.8 30.1c.6 6.1.9 10.3.9 10.3s17.7 3.5 29.2 0v-12.4"/><path d="M188.8 199.9v6.5l8.8-.3-.8-6.2m-4.9 34.5l10.9-1.6 2.5 25.3-7.7 1.2zm11.1-1.9l-3.1-2.7 21.5-8.2s.7 8.2 1.4 16.3m1 10.5c.3 3.6.5 6.1.5 6.1l-19 2.9M191.7 234l1.5-3.4-23.6-3s1.6 6.9 3.2 14.1m3 12.7c.5 2.3.9 3.7.9 3.7l20.5.3m-26.4-16.6l1.8 12.6 11.3-2.1-.5-8z"/><path d="M174.8 207.8s-14 18.8-18.3 32.1c0 0 7.7 8.4 15.9 12.8M172 242l-10.4-13.6m14.4-6.8s-1.9 2.7-3.9 6.1m-1.9 3.6c-.9 1.8-1.8 3.7-2.3 5.3M229 249l-3.2-12.4-11 3.4 1.4 7.9z"/><path d="M209 206.9s17.3 13.1 22.4 24.1l-3 15.8m3-15.9l-8.6.5"/><ellipse cx="257.9" cy="183.4" rx="9.4" ry="14.3"/><path d="M266.4 227.4c-.3 9.9-.6 19-.6 19s-15.3 1.4-23.2-1.7c0 0 .7-9.1 1.4-18.9m.9-12.5c.5-6.3.8-11 .8-11s14.5-2.3 21.6.9c0 0-.2 5.6-.4 12.8"/><path d="M267.2 203.2s9 13.5 9.4 20.9c0 0-6.9 5.9-17 1.6m.7-6.4l-7.9-3-2 4"/><path d="M243.7 218.2c2.9 1.1 11.2 3.6 18.1.3l4.8 3.3c-13.9 11.9-32.5-.9-32.5-.9 1-8.5 11.5-17.7 11.5-17.7"/><path d="M261.8 218.5l2.2-3.5 3.2.7 1 4.6-1.6 1.4m-12.1-25l-.6 4.9m6.4-4.4v4.5m-8.1 14l-3.7-2.9-5.9.9.5 4.3 7.3 1.9zm-9.1 2.3l-8.4 2.3m33.5 0l8.1 3.6m-33.7 20.8s1.1 19.5 2.1 37.8m7.1-3.5c1.1-16.4 2.1-32.3 2.1-32.3m-73.6 22.1s.2 4.1.6 10.6m12.5 5.4c.6-8.7 1-14.6 1-14.6m2.7.1s.7 6.8 1.6 16.5m10.7 1.4v-19.4m45.9-22.1s1.3 13.4 2.7 28.2m7.5-5.7c.2-12.5.3-22.8.3-22.8M214 245l-1.8-13.2m-2.8 3.4l6.6-1.3"/></g></svg>