<svg version="1" xmlns="http://www.w3.org/2000/svg" width="432" height="432"><circle fill="none" stroke="#000" stroke-width="2" stroke-miterlimit="10" cx="215.8" cy="216.4" r="72.3"/><path fill="none" stroke="#000" stroke-width="2" stroke-miterlimit="10" d="M180.7 237.2c1.7-15.9 7.1-51.4 7.1-51.4s6.9-11.4 29.7-12.1 30.8 16 30.8 16l-4 61.2"/><path fill="none" stroke="#000" stroke-width="2" stroke-miterlimit="10" d="M224 174s16.5 2 25.8 7.5 7.5 12 7.5 12-2.3 29.2-3.6 46m-58.1-37.4h5.5s3.6 1.1 4 1.1.5-.8 2.2-.6 2.9 0 2.9 0l3 .6h1.5s2.5.4 4 0-1.2-.4 1.5-.4h2.8c2.3 0-.2-.6 2.2 0s2.5.6 2.5.6h1.5s-.8-.4 1.6 0l2.4.4h2m-39.6 8.6l1.6.2 1.5.6h1.9s2.4-.4 3.1-.4c.8 0 1.2-.2 1.2-.2h1.8l2.4.6h4.7l5.1-.4h2.4l1.4.4h1.4l3.4.8h1.4s2 .1 2.5 0-.4 0 .5-.1 1.6-.6 1.6-.6m-39.6 10.9h13.3l2.2.8h5.9l2.2-.4h1.8c.6 0 1 .5 1.6.4s1.4 0 1.4 0h1.6s1.9-.4 2.9 0-.1.4 1 .4h5.4"/><path fill="none" stroke="#000" stroke-width="2" stroke-miterlimit="10" d="M265 252.2l-.6-9-8 8.6 2.4-17.4c-7 4.2-17.4 20.5-17.4 20.5l-5.5-7.1-5.4 6.5s-1.5-7.9-1.8-8.8-7.2 8.4-7.6 8.8-1.8-5.5-1.8-5.5l-7.6 4.8-.8-19.8-9.5 19.1-2.9-6.6s-1.9 6.9-2.2 7.2-7.8-22.1-7.8-22.1V251s-6.8-16-15.6-19.5c0 0 3.2 12.4 3.2 16l-7.7-5.8s2.1 7.6 2.1 9.2-6.9-4.1-6.9-4.1L162 252"/></svg>