<svg version="1" xmlns="http://www.w3.org/2000/svg" width="432" height="432"><g fill="#27AAE1"><path d="M194.6 120.1s-23.5 15.8-13.1 35.8c0 0-12-6.7-4.8-21.3s15.6-15.2 17.9-14.5z"/><path d="M178.4 154.6l-2 5.6-3.8-2.1 4.2-6.9zm-21.5 58.5L149 298l14.4 9-10.6 6.7-10.7-14.9 1.8-88.1zm10.2 2.2l18.2 83.9 17.9 8.4s-10.9 6.9-11 6.1-11.7-14.8-11.7-14.8L159 213.2l8.1 2.1zm-6.2-43.4L150.2 208l10.7 5.2-17-2.5 11.2-34.2z"/></g><ellipse transform="rotate(-66.229 188.92 138.284)" fill="none" stroke="#000" stroke-width="2" stroke-miterlimit="10" cx="188.9" cy="138.3" rx="19.2" ry="13"/><path fill="none" stroke="#000" stroke-width="2" stroke-miterlimit="10" d="M185.4 120.1s9.7 5.5 17.7 5m-20.5-2.7s10.8 8.4 21.6 6.8M180 125s16.5 11.1 25.5 8.8m-38.2 20.6c1.8.8 18.1 11.9 18.1 11.9s-6.4 22.2-10.5 36.7l-1.5 5.2c-1.2 4.3-2 7.1-2 7.1l-27.8-4.6s8.5-27.1 11.9-35.1m20.9-24.4c-.3.8-3.3 6.9-3.3 6.9m10.1-1.7l-2.5 6.7"/><path fill="none" stroke="#000" stroke-width="2" stroke-miterlimit="10" d="M143.6 210.7l-1.8 87h6.2l8.6-84.9m1.3.3l22.1 84.6h6.6l-15.2-82.4m-29.6 82.4l11 12.6 10.2-5.1-15-7.5m32 0l15.5 13.6 11.5-5.9-19.8-7.7m-22.6-128.3l-13.8 9.3-13.2 27.3 3.2 4.6-2 2.4-3.5-2.4s0 8-.2 9-6.2 0-6.2 0v-12.5l3.5-5.2 12-29.6 22.1-17.3.8-.6 2.2 1.3m-25.1 16.7l6.5 6.3m34.5-12.4l7.3 20.4h19.7"/><path fill="none" stroke="#000" stroke-width="2" stroke-miterlimit="10" d="M182 178.4l6.2 15.6s10.9-.4 18.3-.6m-13.8-6.1l-4.6 6.7m36.9-11.5l-17.4 22s6 7.6 16.2 8l8-26.6-6.8-3.4zm-.3.4s1.2 6.2 7 3.4m.2-.5l8.5 2.5m-10 2.4c.1-.2 8.6.5 8.6.5"/><path fill="none" stroke="#000" stroke-width="2" stroke-miterlimit="10" d="M244.6 185.2l-4.2 1.1-2.4 6.9 2.9 3.1zm-22.8 1.3c-.4 0-3.9-5.7-3.9-5.7l-13.4 14.3 7.2 3.5"/><path fill="none" stroke="#000" stroke-width="2" stroke-miterlimit="10" d="M214.3 196l-4.5-2.2s1-1.2 2.3-2.7"/><path fill="none" stroke="#000" stroke-width="2" stroke-miterlimit="10" d="M216.3 186.2c.4-.4.6-.7.6-.7l2.6 3.5s-4.6-4.9-4.8-4.9-4.2 6.5-4.2 6.5l5.9 2.9m3.4 97.2c.2-.5 1.5-3.2 2-3.5.5-.3 1.2.3 2.7 0 1.5-.3 1.8-1.2 3.3-.1 1.5 1.1 2.5 1.5 2.5 1.5s6.5-2.6 7.1-2.9 4.1-.9 4.1-.9l1.4 1s4 2 4.3 1.9c.3-.1.2.6 1 0s3.4-1.9 3.4-1.9.3-.8 1.9-1c1.6-.2 3.3-.6 3.3-.6s1.2-.4 2.8 0 2.6.6 2.6.6 2.2 2.8 3.1 2.5 4.4-2.2 4.4-2.2 1.4.2 2.5-.1 1.5-1.5 1.9-1.6 1.8-.8 2.5-.8 2.2-.1 3.7 0 3.4 0 4.3.8 2.6 1.8 2.6 1.8.2.2 1.6.7c1.3.5-.3.4 2.1.8s2.6-.5 3.5 0c.9.5 3.3.7 3.3.7l3.2.8 2 1.8m-73.9 2.5l3.5-.6m0 3.9c.4-.1 2.2-1.8 2.6-1.8m18.4-4.1s2.3.9 3.1 2.6m13.8.6s2.9 1.2 4.3-.9m6.1-5.6l3 1.7m4.9 2.4h2.3"/><g fill="none" stroke="#000" stroke-width="2" stroke-miterlimit="10"><path d="M245.1 199s.9 2 2.3 5.5"/><path stroke-dasharray="13.359,13.359" d="M252 217.1c3.9 12 8.2 28.7 8.9 45.8"/><path d="M261.1 269.5c0 2-.1 4-.3 6"/></g><g fill="none" stroke="#000" stroke-width="2" stroke-miterlimit="10"><path d="M246.4 193.2s1.5 1.5 3.7 4.7"/><path stroke-dasharray="10.2251,10.2251" d="M255.2 206.7c5.5 10.9 11.7 28.6 12.6 54.4"/><path d="M267.9 266.2c0 2 0 4-.1 6"/></g><g fill="none" stroke="#000" stroke-width="2" stroke-miterlimit="10"><path d="M249.4 190.3s1.8 1.3 4.3 4.1"/><path stroke-dasharray="10.5107,10.5107" d="M260 202.8c6.5 10.3 13.9 27.8 15.4 55.1"/><path d="M275.6 263.2c0 2 .1 4 .1 6"/></g></svg>