<svg version="1" xmlns="http://www.w3.org/2000/svg" width="288" height="288"><g fill="#27AAE1"><path d="M161.4 39.1l11.3 10.2-4.9 37.3-9.8-.5-1.5 20.5 8.2 3.8-14.8 148-4.3 1.5z"/><path d="M230.4 90l9.2 7.9-2.5 16.9-72.4-4.4-8.2-3.8 69.8 3.8zM66.6 102.2l9.2 4.4 48.7 2.6-.4-4.7z"/></g><g fill="none" stroke="#000" stroke-width="2" stroke-miterlimit="10"><path d="M118.5 39.1h42.9l11.3 10.2-4.9 37.3-9.8-.5-1.5 20.5 8.2 3.8-14.8 148-16.4.2zm42.9 0l-15.8 220.8"/><path stroke-linejoin="bevel" d="M230.4 90l9.2 7.9-2.5 16.9-72.4-4.4-8.2-3.8 69.8 3.8 4.1-20.4-72.4-3.9"/><path d="M226.3 110.4l10.8 4.4M122.4 85.1H66.6v17.1l57.5 2.3m-57.5-2.3l9.2 4.4 48.7 2.6m-8 150.7l9.4-1.3h5.2l11.3-.2 11.5 1.5h11.2"/></g></svg>