<svg version="1" xmlns="http://www.w3.org/2000/svg" width="288" height="288"><ellipse transform="rotate(-80.584 101.1 102.742)" fill="none" stroke="#000" stroke-width="2" stroke-miterlimit="10" cx="101.1" cy="102.7" rx="16.4" ry="11.9"/><path fill="none" stroke="#000" stroke-width="2" stroke-miterlimit="10" d="M93.9 116.8l-.7 6.3 5.4 1.1 1.8-5.2m2.1-32.7s-17.5-6.4-29 22.8c0 0 1.5 9.7 12 15.5m5.6-29.4s-10.3 4.6-15.7 19.4m13.7-8.5s-5.9 4.8-9.8 13.8m11.4-6.1s-2.9 3.8-4.5 9.4"/><path fill="none" stroke="#000" stroke-width="2" stroke-miterlimit="10" d="M102.8 141.2c.5-1.5.9-2.8.9-2.8l-1.2-12.5c-4.8-3.2-15.2-2.8-16.2-2.8 0 0-5.5 25.8-6.2 48"/><path fill="none" stroke="#000" stroke-width="2" stroke-miterlimit="10" d="M96 130.5s5.2 13.6 16.2 18.9l12.5-6.2 1.8-5.9h3.2v5.9H142l-3.5 4-10.2.4-16.8 9.6s-12.8 0-20.8-18.8"/><path fill="none" stroke="#000" stroke-width="2" stroke-miterlimit="10" d="M99.4 151.4c-.6 2.8-1.6 8-1.6 8l3.4 10.5m11-20.5l-1.4 7.7m-29.8 0s7.8 3.5 16.8 2.2"/><ellipse fill="none" stroke="#000" stroke-width="2" stroke-miterlimit="10" cx="175.3" cy="106.2" rx="11.1" ry="15.8"/><path fill="none" stroke="#000" stroke-width="2" stroke-miterlimit="10" d="M175.3 122s1.8 5.5 3.7 13m7.4-25.9s30.4 7.6 24.2 59.7"/><path fill="none" stroke="#000" stroke-width="2" stroke-miterlimit="10" d="M195.6 124.9l-16 27-24-5.8h-8.2v-3l9.5-.8 1-4h2.8l1 3 12.8 1.8s5.7-8.5 8.1-18.2m-8.3 18.2l5.3 8.8m2-3.4c1.2 8.5 1.4 16.8-1.3 21.4"/><path fill="none" stroke="#000" stroke-width="2" stroke-miterlimit="10" d="M130.1 135s-.4 7.2.6 7.2h25.4l2.1-7.9-28.1.7zm5.2-24.1s-1.9 4-.9 7 4 3.7 3 6.8c-1 3.1-2.3 4.2-1.5 7.2m7.4-27.1s-3.1 5.8-1.9 9.7 3.8 6.3 2.8 8.6-1.4 8.8-1.4 8.8m7.3-22.8s-2.9 3.6-1.9 6.4 5 2.6 2.7 6.5c-2.2 3.9-1.1 9.3-1.1 9.3"/></svg>