<svg version="1" xmlns="http://www.w3.org/2000/svg" width="288" height="288"><path d="M169.4 167.5v-3.7l-1-1.8-3.4-.9c-1.6-.5-3.4-1.1-3.7-1.1-.8 0-3.3-2.5-3.5-2.7-.3-.4-1.6-3.1-1.6-4.3 0-.6-.1-1.1-.3-1.5-.1-.2-.1-.4-.1-.6-.3-.1-1.1-.3-2.1-.3-1.1 0-2.7.2-2.7.2s-2 .6-3.7 1.1c-1 .3-1.1.4-1.2.5-.1.1-.2.3-.5.5-.5.4-.8 1.4-1.1 2.4-.1.4-.2.7-.3 1.1-.3.9-.1 1.6 0 2.2.1.3.1.5.1.7 0 1.3-3.3 1.6-3.3 1.6-.8 0-4.9-3.7-5.3-4.8-.1-.2-.4-.1-1.2.1-.7.2-1.5.4-2.3.2-2-.4-4.8-5.1-4.8-5.1-.4-.7-1.8-3.7-1.8-3.8l-.8-3.7c0-.1 0-1.6 1.1-2.4.7-.6 1-.6 1.8-.6h1.3c2.3-.1 3.9 1 3.9 1.1.1 0 2.5 1.5 4 2.8 1 .9 2.1 1 3.2 1.1.4 0 .8.1 1.2.2.7.2 1.2-.3 1.9-.9.2-.2.4-.4.6-.5.1-.2-.5-1.3-.8-1.7-.2-.4-.4-.7-.6-1-.1-.3-.3-.6-.4-.8-.4-.8-.7-1.3-.7-1.9 0-.7 1.1-2 1.5-2.5l.1-.1 3.4-1h.1s1.8.2 2.8 0c.5-.1 1.1-1.1 1.4-1.8 0-1 0-3 .2-3.5.1-.3.5-2 .8-3l.1-.4h9.5v-1.3l-1.5-2.5-.9-2-2.9-2.9-.7-2.4 2.3-3v-1.7l-.6-.6-4.1.4-3 1.8-3.9 2.2-4.3 1.5-1.6-1.1.1-4.5c.1-.3.7-2.7 1-3.3.1-.4-.9-2-1.4-2.4-.6-.3-3.1-1.6-3.6-1.9h-2c-.5.2-3 1.4-3.9 1.9-1.3.8-5.6.3-6.3.2-.4-.1-1.1 0-1.8.1s-1.4.2-1.9 0c-.5-.1-1.3-.1-2 0h-.7c-.3 0-1.2.6-1.8 1.3-.7.7-3.9.7-4.6.5-.6-.2-1.7-.6-2.1-.8-.3.1-.7.2-1 .2-.5.1-1.1.2-1.6.4-.4.1-.7.3-.9.4l-.6.6-.6.6c-.2.2-.4.3-.6.5-.2.1-.4.3-.6.4-.6.5-1 1.1-1.4 1.8-.6 1-1.1 2-1.5 3-.3.8-.3.9.2 1.6.2.2.3.5.5.7.5.7 1.1 1.7 1.7 2 .2.1.3.3.4.5.2.7-.8 2-1.4 2.8l-.2.1c-.8.4-3.1 1.5-3.9 1.9-.4 1-1.2 7.2-1.2 7.8 0 .3.9 2 1.7 3.3 0 0 2.2 3.1 2.8 3.9.1 0 .5-.2.7-.4.5-.3 1.1-.7 1.9-.9.2-.1.3-.2.3-.2.2-.3-.2-1.1-.4-1.6-.2-.4-.3-.6-.3-.8 0-.4 0-.9 3.7-.9h.5v2.5l2.1 4.3c.1.2.7 1.6.9 2.1.3.1 1.1.2 1.8.3h2.2l.1.3c.1.4.8 2.4.8 3.2 0 .5.5 3.3.9 5 .2.3.9 1.4 2.5 3.5.2.3.4.5.5.7l6.8 1.6 4.4.4 4.1 1.7 3.5 2.6 1 2.2.6 2.2.1 1.7 2.8 2 3.8 1.9.6 2c0 .1.3 1.6.4 3.7.1 2.1 0 3.2-.1 4.1 0 .3-.1.6-.2.8-.1.4-.2 1-.3 2.2-.2 1.6 1.7 3.6 1.8 3.6l2.4 2.5 2.4.5 3.8-.8 2.3-1.1c.7-.8 2.2-2.8 2.5-3.3.4-.7 1.4-1.8 3.1-3.7l.5-.5c.6-.7.8-1 .8-1.1-.2-.2-.5-.5-.4-1.2.2-1 .1-3.5.1-3.5v-.1l1.5-3.5 1.4-3.5.7-1.9zm19-1.9c.1.2.5.6.8.9l.3.3c.3.3.5.6.7.9.9 1.3 1.4-.6 1.6-1.4.4-1.3 1.1-2.3 1.4-3.6.7-2.5 1.2-5.1 1.9-7.6.7-2.2 1.6-4.6 1.6-6.9 0-2.4-.1-4.8-.1-7.2 0-.9 0-1.7-.1-2.6-.1-1.1-.5-2.2-.7-3.3s0-1.9-1.3-1.4c-.3.1-.5.2-.7.3s-.4.1-.6.2c-.5.1-1.2.3-1.5.6-.2.2-1.2 1.9-2 3.5l-3.4 4.7c-1.1 1.1-2 2.3-2 2.6v8.7l1.5 3.2c.4.3 1.6 1.2 2 2.1.4.9.6 3 .6 3.3 0 1.1-.1 2.4 0 2.7zm-15.5-55.8c.9 1 2.9 1.6 3.2 1.6h2.5c.4 0 .7 0 .9.1.3 0 .5.1.8 0l.4-.1c.6-.1 1.2-.2 1.8-.2h1.1c.4 0 .8.1 1.1 0 .2-.1.3-.2.3-.3 0-.1-.2-.4-.3-.5l-1.5-1.9c-1.4-1.8-2.9-3.7-4.7-5.3-.7-.6-2.4-1.1-2.8-2-.2-.4-.2-.8-.5-1.1-.2-.4-.6-.6-1-.8-.4-.2-.8-.4-1.1-.6-.3-.1-.6-.3-.9-.4-1.6-.3-1.2.8-.8 1.9.1.4.3.8.3 1.1 0 .3.1.7.2 1 .2.8.3 1.7.3 2.6v.2c-.1 3.2.3 4.3.7 4.7z" fill="#27AAE1"/></svg>