<svg version="1" xmlns="http://www.w3.org/2000/svg" width="288" height="288"><ellipse fill="none" stroke="#000" stroke-width="2" stroke-miterlimit="10" cx="143.9" cy="144.1" rx="52.8" ry="54.2"/><path fill="none" stroke="#000" stroke-width="2" stroke-miterlimit="10" d="M106.3 106.9l2.8-.8s1.5.6 2.2.8 3.6.1 4.1-.4 1.6-1.4 2.2-1.4 2-.2 2.8 0 2.6-.3 3.6-.1c1 .2 4.9.5 5.9-.1s4-2 4-2h2.2s3.1 1.6 3.8 2c.6.4 1.9 2.4 1.6 3s-1 3.2-1 3.2l-.1 4.1 1.2.8 4-1.4 3.9-2.2 3.1-1.9 4.4-.4.9.9v2.1l-2.2 2.9.6 2 2.9 2.9.9 2 1.6 2.6v1.9h-9.6s-.6 2.6-.8 3.1-.2 3.4-.2 3.4-.8 2-1.8 2.2-2.9 0-2.9 0l-3.2.9s-1.4 1.6-1.4 2.2.5 1.4 1 2.5 1.9 2.9 1.2 3.4-1.6 1.8-2.9 1.5-3.1-.1-4.6-1.4-4-2.8-4-2.8-1.5-1.1-3.6-1c-2.1.1-2-.2-2.9.5s-.9 2-.9 2l.8 3.5s1.4 3.1 1.8 3.8 2.9 4.6 4.5 4.9 3.5-1.1 3.9 0 4.4 4.5 4.8 4.5 2.8-.5 2.8-1.1-.6-1.6-.1-3.1.8-3.2 1.6-3.8.1-.6 1.9-1.1 3.8-1.1 3.8-1.1 1.6-.2 2.8-.2 2.6.2 2.6.6.4 1.1.4 2.2 1.2 3.6 1.5 4 2.6 2.5 3.1 2.5 3.8 1.1 3.8 1.1l3.6 1 1.2 2.1v3.9l-.9 2-1.4 3.5-1.5 3.4s.1 2.5-.1 3.6 1.4.4-.5 2.5-3.1 3.4-3.5 4.1-2.6 3.5-2.6 3.5l-2.5 1.2-4 .8-2.6-.6-2.5-2.6s-2.1-2.1-1.9-4 .4-2.2.5-3 .2-1.9.1-4-.4-3.6-.4-3.6l-.5-1.8-2.9-1.4-.8-.4-3-2.1-.1-1.9-.6-2-.9-2.1-3.4-2.5-4-1.6-4.3-.4-6.1-1.4s.4 1.5-1.5-1-2.6-3.6-2.6-3.6-.9-4.5-.9-5.2-.8-3-.8-3h-1.9s-2.1-.2-2.2-.5-.9-2.2-.9-2.2l-2.1-4.4v-2.1s-3.2 0-3.2.4 1.6 2.6 0 3-2.5 1.9-3.1 1.1-2.8-3.9-2.8-3.9-1.8-3-1.8-3.6 1-8.1 1.4-8.2 4-1.9 4-1.9 1.8-2.2 1.2-2.5-3-3.7-3-3.7m97.3 17.1s-4.8 1.4-5.2 1.8-2.1 3.6-2.1 3.6l-3.4 4.6s-2.1 2.1-2.1 2.9v8.8l1.6 3.4s1.5 1.1 1.9 2 .6 3.1.6 3.1-.1 2.5 0 2.9 3 3.1 3 3.1m-20.2-70.7s1 6.5 1 7-.2 3.9.8 5 3.1 1.8 3.6 1.8 1.1.1 2.1 0 1.5.2 2.2.1 2.8-.4 3.4-.4h2.2"/></svg>