<svg version="1" xmlns="http://www.w3.org/2000/svg" width="366.5" height="255.2"><g fill="#27AAE1"><path d="M258.2 233.3c3.1-1.3 7.1-3 10.2-4.5l-9.7-52.7-.5 57.2zm-141 7.7c.5.7.8 1.1.8 1.1s3.6-.6 8.2-1.4l-6.8-69.7-2.2 70zm82.8-72.8l10.3.7-4.6 64.8c3.3-.6 7.3-1.2 11.1-1.7l-5.5-63.1H222l-22-.7zm48.8-31.1c-6.7 6.9-3.9 30.4-3.4 33.5h.1l1.5 2.1-.3-3s2.2-17 2.2-32.6h-.1zm-1.6 35.8l-.2-.2v.5z"/><path d="M294 103l-.5-12.8 59.8-6.2L185 11.4 2.5 96.7l50.8-1.8 2.5 147.5 57-.4.9-6.1c0-.1-4.2-64.9-4.2-64.9h.1l-.7-5.5h-.6v.3l-8.5 3-2-6.7 10.2.7v.1h.6l-.4-2.8-.1-.1.1.4-16.3-11.6-5.4-3.8c2-10.1 16.1-27 16.1-27 .5 0 4.8-.5 9.8-1.2v-.1c-.1-.2-.1-.4-.1-.5h-.2s-.7-3.1-1.2-5.4c-5.1-1.2-9.7-7.2-10.8-15-.7-4.4-.1-8.6 1.3-11.8-.1-.1-.2-.1-.2-.1h.3c.4-.9.9-1.7 1.4-2.5-.1 0-.2-.1-.2-.1l.3-.1c.7-.9 1.4-1.7 2.2-2.3-.4-.1-.7-.3-.7-.3l1.2-.1c1-.6 2-1 3.2-1.2 2.5-.4 4.8.4 7 2 1.2.9 2.2 2 3.1 3.3 1.9 2.6 3.3 6 3.8 9.8 1.2 7.6-1.3 14.5-5.7 17.3.3 1.5.1 3.3 0 5v1.4h-.1v.2c5.8-.8 11.2-1.5 11.2-1.5l15.3 18.6 8.2-13.3 1-1.7c-.1-1.9-.2-3.1-.2-3.4v-.1c.2 0 5-.1 10.9.3v-.1h-.1v-5.5c-3.8-2.6-6.4-8.9-6-16.2.5-9.3 5.5-16.6 11.2-16.3s10 8 9.5 17.4c-.4 7.8-4 14.2-8.5 15.8l-.7 4.3c.1.2.1.5.1.8 4.1.5 8.2 1.2 11 2.5v-.1l7.1 29-1.3 20.2-4.8-1.3-.9-17.6-2.5-7-2.6 24.3 4.4 73.1c9.2-1.4 18.7-2.7 20.1-3.4.3-.2.9-.3 1.8-.6-1-33.2-1.9-65.3-1.9-66.5l-1.2-.1s.4-10.8.8-22.5c-6.9-1.1-10.1-4.6-10.1-4.6s1.3-2.7 3-6.4l8-17.5s4.3-.1 9.9.2c0-.1 0-.1.1-.2h-.3v-6.4c-4-2.2-7.1-8.5-7.2-15.8-.1-9.3 4.3-17 10.1-17.1 5.7-.1 10.5 7.3 10.6 16.6.1 7.4-2.7 13.8-6.8 16.1l-1.1 6.4c.1.2.1.4.1.7 2.9.3 5.8.6 8.5 1.2.1 0 .3.1.4.1v.7c1.6 3.3 7.2 15.7 7.9 26.4l-8.8-.7c-.4 12-.8 23.6-.8 23.6v62.6c3.7-.3 6.7-.4 8.2 0 4.5 1.1 19.6 3.3 22.6 3.7l-4.2-45.5h-2.6l-4.3-6.6-.6-10.1.5-.2c-9.1-31.3 1.6-49.7 4.5-53.9v-.4c0-.6.3-1 .7-1.2v-.1l6.9-.8c-.1-.3-.1-.6 0-.8l-.9-4.1c-4-2-7-7.4-7.5-14-.6-8.5 3.4-15.8 8.9-16.1 5.5-.4 10.5 6.2 11.1 14.8.5 7.2-2.2 13.3-6.3 15.4l.2 4.3h-.4v.1l7.6-.9s13.5 11.5 18.3 20L270 156.7v.2h.2l9.8-3 4.7 5s-9 5-9.1 5.1c-.2.1-5.7-2-5.7-2v-.1h-.3c-.2 2.5-.4 4.8-.8 6.9h-.1c0 .1 2.2 15.8 4.1 37 0 0 2.8 26.2 4 27.9s23.2 2 23.2 2l-1.5-40.3L294 103zm-111.3 81.9l-3.8-9.5 1.8-8.2 4.8 1.3 2 12.4-4.8 4z"/><path d="M154 164.3l-1.3.4-2.2.3v.5zm1.2-.3c-.1-1-.6-10.6-1.2-21l-.1 21.3 1.3-.3z"/><path d="M161 238.3h-5.8v-57.4h-2.5l-3.1-6.1.8-9.8h.1l-2.6-19s.9-6.1 2-13.2l3.4-6.9-8.7 17.6-16-15.8 1.2 42.1v70.3c5.9-1 12.3-2.1 14.4-2.4 2.3-.3 5.5 1.6 9 3.2l2.1-2h6.4l-1.2 3.6c.6-.1 1.3-.2 1.9-.5 2.1-.9 6.8-1.8 12.1-2.7l-10.2-66.8-3.3 65.8zm-66.8-95.7c-.7.2 12.2 9.7 12.5 10.4l-1.3-24.9c.1 0-10.4 14.3-11.2 14.5zM266 121.7l2.5 26.8 8.3-14.1z"/></g></svg>