<svg version="1" xmlns="http://www.w3.org/2000/svg" width="288" height="288"><ellipse transform="rotate(-85.786 121.183 102.693)" fill="none" stroke="#000" stroke-width="2" stroke-miterlimit="10" cx="121.2" cy="102.7" rx="19.5" ry="14.4"/><path fill="none" stroke="#000" stroke-width="2" stroke-miterlimit="10" d="M115 120.7l-.6 4.4 8.5.6v-3.8"/><path fill="none" stroke="#000" stroke-width="2" stroke-miterlimit="10" d="M130.4 143.4l.7-15.5c-10.2-4.7-31.5-2.2-31.5-2.2l-1.8 20"/><path fill="none" stroke="#000" stroke-width="2" stroke-miterlimit="10" d="M99.5 125.7s-15.5 9.2-20.3 15.5c0 0 8.4 16.8 26 25.7l3.7 6.5 5.5-.5.8-3.3-6.2-1.2.2-4.7 7.8 6 1.3-6.3-13.2-5s-8.8-7-14.2-16.3m7.5-3.4s-11.6 6.2-14.6 9.7m91.8-13.6c8-3.7 15.1-6.9 15.1-6.9l1.7-5 11-6.5 4 11.5-10.7 5.2-4-.3s-5.5 3.4-12.1 7.5"/><path fill="none" stroke="#000" stroke-width="2" stroke-miterlimit="10" d="M94.8 146.6c10.9-3.7 24.4.3 27.1.5 4.5.3 7-2 7-2 12.3-15.3 24.5 0 24.5 0s8.3-3.8 17-7.8m2.2 7.9c-8.2 5.1-15.9 9.8-15.9 9.8 2.3 14.8-10.8 16-19.5 15.8-8.7-.2-15.5 3.8-18.7 10.7-3.2 6.8-38.3 24-38-11.2.1-8.9 2.5-14.9 6.1-18.7m44.4-23.7s5.5 8.5 13.1 10.9"/><path fill="none" stroke="#000" stroke-width="2" stroke-miterlimit="10" d="M157 158.1c18.1 5 24.9-16 24.9-16l-8.5-9.7-3.5 3 3 10.2 3.6.8m-68.6 13.5c.9-4.3 4.7-7.4 9.2-7.4 5.2 0 9.4 4.2 9.4 9.4s-4.2 9.4-9.4 9.4c-.7 0-1.4-.1-2-.2m40.3-86l-8.4-1.5 5.6 16.2"/><ellipse transform="rotate(-16.374 148.488 101.582)" fill="none" stroke="#000" stroke-width="2" stroke-miterlimit="10" cx="148.5" cy="101.6" rx="4.5" ry="2.9"/><path fill="none" stroke="#000" stroke-width="2" stroke-miterlimit="10" d="M176.5 103.6l-5.8-4-1.3 14.1"/><ellipse transform="rotate(-82.143 165.67 113.627)" fill="none" stroke="#000" stroke-width="2" stroke-miterlimit="10" cx="165.7" cy="113.6" rx="2.4" ry="3.7"/><path fill="none" stroke="#000" stroke-width="2" stroke-miterlimit="10" d="M89 164.6l3.9-2.8 11.9 19-8.6 3.3z"/></svg>