<svg version="1" xmlns="http://www.w3.org/2000/svg" width="288" height="288"><ellipse transform="rotate(-81.9 125.943 122.925)" fill="none" stroke="#000" stroke-width="2" stroke-miterlimit="10" cx="125.9" cy="122.9" rx="14.1" ry="10.3"/><ellipse fill="none" stroke="#000" stroke-width="2" stroke-miterlimit="10" cx="156.6" cy="132.5" rx="10.6" ry="14"/><path fill="none" stroke="#000" stroke-width="2" stroke-miterlimit="10" d="M119.7 134.8v3.9l6.2 1.2 1.7-3.4"/><path fill="none" stroke="#000" stroke-width="2" stroke-miterlimit="10" d="M135.2 158.8c-.5-8.1-1-15.5-1-15.5-10.3-6.3-26-4.8-26-4.8l-2.5 40.6"/><path fill="none" stroke="#000" stroke-width="2" stroke-miterlimit="10" d="M112.2 141.6s13 16.5 14.3 17.7 17.2-3 17.2-3v3.2l-15.8 8.8s-10.6-3-17.6-13.3m26.2 25.3s-.5-7.7-1-16m17-7.3l-2.5-9.7h-2.6l-3.7 9v3.2h4.4l3.8 2.3m-25.4-2.5l1.5 9"/><path fill="none" stroke="#000" stroke-width="2" stroke-miterlimit="10" d="M148.8 141.6c-5 2.1-8.1 4.9-8.1 4.9s-.6 3.9-1 10.8m-.3 4.6c-.2 4.8-.2 11.4 0 17.8m35.5-14.5l1.6 12.3m-30.4 1.6v-20.3m26.1-3l-19.7 1.2-.7 4.8c11.5 6.7 27.3 2.1 27.3 2.1l-4.3-20.5c-.4-.2-1.6-.9-2-1.1m-24.1 5l-.6 11.7m-14.5-16.1s7.3-2.6 13.3-5.2m-6.7 13.3l-5.4 2.2"/><path fill="none" stroke="#000" stroke-width="2" stroke-miterlimit="10" d="M166.8 136.5l4.8 1.2 1.9 8.8-4.3.8-4.7-5.4"/></svg>