<svg version="1" xmlns="http://www.w3.org/2000/svg" width="288" height="288"><ellipse transform="rotate(-79.432 156.324 101.549)" fill="none" stroke="#000" stroke-width="2" stroke-miterlimit="10" cx="156.3" cy="101.5" rx="15.2" ry="9.9"/><path fill="none" stroke="#000" stroke-width="2" stroke-miterlimit="10" d="M148.7 114.1l-2 4.1 5.1 2.9 1.7-4.6"/><path fill="none" stroke="#000" stroke-width="2" stroke-miterlimit="10" d="M151.4 150.1c-1.9 9.7-3.6 18.5-3.6 18.5s-19.2.4-24.7-6.7c0 0 3.8-29 16.2-46.9 0 0 11.9 4.5 16.9 9.8 0 0-1.3 7-3 15.3"/><path fill="none" stroke="#000" stroke-width="2" stroke-miterlimit="10" d="M148.4 124.7s3.8 14.2 6.6 17.8c0 0 7.9-2.1 13.9-10.6l3.2 1.8s-4.4 18.6-23.8 17.1c0 0-8.2-9.8-8.7-20.2m29.3 1.2l-.6-7.1 1.8-1 2.5-7.6 2.6.9s1.1 5.6.9 8.6-3.9 7.8-3.9 7.8"/><path fill="none" stroke="#000" stroke-width="2" stroke-miterlimit="10" d="M172.1 116.1h-2.3l-2.6 6.1h-1.8v8.4s-4.8 7.3-11.1 6.8m11.8-6.6l2.1 1.3M155 142.4l-6.6 8.3m-.6 17.9l10 21.7s-33.2 7.7-53-9.4l2.5-6s21.2 10.4 37.2 2.2m-21.4-15.2s-3.3 12.1 6.2 18.4"/><path fill="none" stroke="#000" stroke-width="2" stroke-miterlimit="10" d="M107.4 174.9l-3.5-2.2L91 190.5l10.1 2.5 4.6-10.7m.7-9l2.4-2.2s6.9 5.5 16.6 5.4m-23.2 14l5.2-1.9 1.7-4.6"/></svg>