<svg version="1" xmlns="http://www.w3.org/2000/svg" width="288" height="288"><circle fill="none" stroke="#000" stroke-width="2" stroke-miterlimit="10" cx="143.4" cy="144.1" r="47.4"/><path fill="none" stroke="#000" stroke-width="2" stroke-miterlimit="10" d="M111.1 133.7c4.4-13 16.6-22.3 31.1-22.3 18.1 0 32.8 14.7 32.8 32.7s-14.7 32.8-32.8 32.8c-13.1 0-24.4-7.7-29.7-18.8"/><path fill="none" stroke="#000" stroke-width="2" stroke-miterlimit="10" d="M103.2 135.3l51-12.3 4 19.7-52.3 17.7z"/><path fill="none" stroke="#000" stroke-width="2" stroke-miterlimit="10" d="M139.2 149.6c2.2 9.3 4.1 17.1 4.1 17.1l19.4-6.2-3-41.2-27.5 1.5s.7 2.8 1.7 7.1m-14.3 2.6c-.3-.7-.5-1.5-.5-2.4 0-3.2 2.6-5.7 5.7-5.7s5.7 2.6 5.7 5.7v.3m-1.8 39.7h-.2c-3.2 0-5.7-2.6-5.7-5.7 0-3.2 2.6-5.7 5.7-5.7 2.8 0 5.2 2.1 5.6 4.8"/><circle fill="none" stroke="#000" stroke-width="2" stroke-miterlimit="10" cx="134.9" cy="167.5" r="5.7"/><path fill="none" stroke="#000" stroke-width="2" stroke-miterlimit="10" d="M161.4 136.9c.9-.6 2-.9 3.2-.9 3.2 0 5.7 2.6 5.7 5.7 0 3.2-2.6 5.7-5.7 5.7-.9 0-1.8-.2-2.5-.6m-43-8l-4.5-1.2-3.5 1.6.5 4.9h8l2.5 5-3.5 2.9-7.5-.6m2.4-16.1l3.6 18.5m31.8-23.1l-3.8-1-2.9 1.3-.3 5.2 7.4-1.1 2.2 4.2-2.9.9-6.4 1m2-13.5l3.2 16.2m8.9 12l.8-3.4-1.2-2.6-3.6.4.1 6-3.6 2-2.1-2.6.3-5.7m11.9 1.8L144 155"/></svg>