<svg version="1" xmlns="http://www.w3.org/2000/svg" width="500" height="500"><path d="M485.9 219.8l-10.8 1.2-1.3 2.9-1.8 1.1-4.8-7.7-12.7-11.3-.4-2.4 7.6-14.9.8-6.6 2.2.4 1.7 1.8 7.3 1.8 4.4-6.3-3.6-10.9-7.7-2.3-4.7 6.5-.1 1.1-1.7 1.5-5.5-6-15.2-8.4-1.4-3.1 4.1-16.4-.8-5.8 8.7 2.4 5.9-7.8-6.3-10.2-7.5-.5-3.4 6.9.2 1.9-1.4 1.8-6.8-4.7-16.5-4.7-1.9-2.7.2-17.9-1.6-2.7-.4-1.9 2.2-.4 2.1.8 8.9-8.1-9.6-9.7-8.2 8.8-.2 3.8-3.1-1.7-21.9-2.2-2.3-2-3.3-16.2-3.5-5.5 2.1-.9 4.8.1 4.8-7.9-13.6-8.9L366 57l.2 2.9-1.4.3-9.8-1.1-14.1 2.5-2.8-1.6-6.5-15-4.6-4.6 1.8-1.3 4.2-.8 3.5-8.8-15.8-5.6-3 8.6 2.7 3.6.1 2.2-8.1.5-16.2 6.7-2.8-.8L283 31.1l-5-3.1 8.1-7.3-2.5-6.7-13.8-1.6-1.1 11.6 1.7 1.1.8 2.3-7.3 2.1-14 9.9-4.2-.1-12.6-10.5-5.5-1.7 1.2-2.2 3-2.2-1.2-10.3-3.6-1.6h-6l-5.2 2.9 1.4 11.1 2.6 1.1 1.1 1.8-7.7 4.8L201.9 45l-2.7.5-14.8-7.5-6.6-.8.4-2.2 1.8-1.7 1.7-7.3-6.3-4.4-10.9 3.6-2.3 7.7 6.5 4.7 1.1.1 1.5 1.7-6 5.5-8 14.3-4.4 1.9-15.5-3.8-5.8.8 2.4-8.7-8-5.9-9.6 5.6-.9 8.3 10 3.6-.3 2.3-4 5.3-4.5 16.4-2.7 1.9-17.9-.2-2.8 1.7-1.8.3-.5-2 .9-2.5-8.3-8.7-9.5 9.5 8.8 8.2 3.8.2-1.7 3.1-2.2 21.9-2 2.3-16.2 3.3-5.5 3.5-1-2.1.1-4.8-7.9-4.8-8.9 13.6 8.8 5.1 3.2-1.7 2.2.4.2 1.3-1.1 10 2.4 13.9-1.5 2.8-14.8 6.8-4.6 4.6-1.3-1.8-.6-3.5-10.3-3.6-5.1 13.4 11.5 3.4 3.6-1.4-.1 6.3 7.4 17.9-.8 2.8-13.8 10.5-2.9 5-1.8-1.8-.1-.5-6.1-5.9-7.6 4.8v11.9l11.4.9 1.3-1.9 2.3-.7 2 7.3 10 14.1-.1 4-10.6 12.7-1.7 5.5-2.2-1.2-2-2.9L8.2 269l-1.7 3.6v6l3.1 5.4 10.8-1.2 1.3-2.9 1.8-1 4.8 7.7L41 297.9l.4 2.4-7.6 14.9-.8 6.6-2.2-.4-1.7-1.8-7.3-1.7-4.4 6.3L21 335l7.7 2.3 4.7-6.5.1-1.1 1.7-1.5 5.5 6 15.3 8.5 1.2 2.8-4.2 16.1.8 6.2-2.3-.1-6.2-2.3-6.1 7.8 6.4 10.3 7.5.4 3.2-6.8-.2-2.1 1.4-1.6 7 4.8 16.3 4.6 1.9 2.7-.2 17.9 1.7 2.8.3 1.8-2 .5-2.5-.9-8.8 8.3 9.5 9.5 8.3-8.8.2-3.8 3.1 1.7 22.1 2.2 2.1 2 3.3 16.4 3.4 5.3-2.1 1-4.8-.1-4.8 7.9 13.6 8.9 4-11.1-.2-2.9 1.4-.3 9.8 1.1 14.1-2.5 2.8 1.5 6.7 14.9 4.6 4.6-1.8 1.3-5.2 1.3-2.5 8.3 15.8 5.7 3-8.6-2.7-3.6-.1-2.2 8.1-.5 16.2-6.7 2.8.8 10.5 13.8 5 3.1-1.7 1.6-.5.1-5.9 6.1 4.8 7.6H226l.9-11.4-1.9-1.3-.8-2.3 7.3-2.1 13.9-9.8 4.5.1 12.5 10.3 5.5 1.7-1.2 2.2-3 2.2 1.2 10.3 3.6 1.6h6l5.2-2.9-1.4-11.1-2.6-1.1-1-1.8 7.7-4.8 11.2-12.5 2.5-.6 15.3 7.8 6.2.6-.6 2.3-1.5 1.4-1.9 7.3 6.2 4.6 11.1-3.6 2.3-7.7-6.5-4.6-.9-.1-1.7-1.7 5.9-5.3 8.5-15.3 2.9-1.3 16.1 4.1 6.3-.9.1 2.3-2.4 6.4 7.9 6 10.2-6.3.5-7.5-6.9-3.3-1.7.2-1.9-1.4 4.7-6.6 4.7-16.7 2.6-1.9 17.9.2 4.6-2.1.5 2.3-.8 2.1 8.2 8.9 9.6-9.4-8.9-8.3-3.8-.3 1.7-2.9 2.3-22.1 1.9-2.2 16.8-3.4 5.1-3.3.8 2.4v4.5l8 4.8 8.8-13.5-11.1-4.1-3 .2-.3-1.3 1.1-9.8-2.5-14.1 1.7-2.9 14.4-6.5 5-4.8 1.3 1.6.8 4.4 9.2 3.4 5.4-15.5-10.9-1.8-3.6 1.4v-6.5l-7.3-17.8.7-2.8 13.8-10.5 3.1-5 1.6 1.7 2.3 4.4 8.7.7 1.9-16.8-10 .1-1.6 2.3-2.3.8-2.1-7.3-9.9-14 .1-4.2 10.5-12.6 1.7-5.5 2.2 1.2 2.2 3 10.3-1.3 1.7-3.6v-6l-3.5-5.4zm-30.6-31.1l-7.7 16.2.6 2.9 13.2 12.1.8 1.2-.9.5-40.9 2-2.7-2.3-3.3-14.5 1.3-2.9 39.6-15.2zm-36 42.5l1.3-1.4 20.6 1.3-19.9 5.7-1.6-.9-.4-4.7zm4.8 38.4l16.4 4.9-.1.3-18.4 1.1-2.7-3.1 4.8-3.2zm-10.6-70.9l-1.7-.5-1.5-4.6.9-1.6 19.3-3.1.5.2-17.5 9.6zm21.2-53.8l1-.2.1 1.6-3.5 14.8 1.5 3.3 15.2 8.7 1.2 1.2-40.7 11.9-2.6-1.2-6.9-14.4.6-2.5 34.1-23.2zm-36.8 17.9l-2.4-.3-2.2-3.5.7-2.1 18.3-6.9-14.4 12.8zm9.4-57.9l.1 17.7 1.9 2.6 18.3 5.9-1.2 1.3-35.7 19.6-2.5-.4-10-12.7.1-2.8 29-31.2zm-33.2 26.9l-2.3.2-2.9-2.9.3-2.4 16.3-11.4.3.2-11.7 16.3zm-3.4-58.9l4 17.5 2.2 1.8 19.7 1.7-31.8 28.4h-2.9l-12.3-9.9-.6-2.6 21.7-36.9zm-27.6 34.6l-5.3-3 .2-1.4 13.8-14.7-8.7 19.1zm-15.3-57l7.5 15.1 3.4 1.9 16.5-2.6 2.1.2-.7 1.8-23.8 33.1-2.2.5-14.5-7.1-1.2-2.6 12.9-40.3zm-47.2-11.8l.5-.9.9.6 10 12.7 3 .8 18.5-7.1-16.2 39.3-3.1 1.5-14.8-3.5-1.8-1.8 3-41.6zm31.8 30.5l-3.1 20.1-1.3.7-1.6-.6-2.1-5.8 8.1-14.4zm-40.8 8.9l-2.6 2.4-3.5-.5-1-1.3 6-19.5 1.1 18.9zm-38.9-42.2l1.3.6 12.4 10.1 2.7.1 16.3-10.8.2 2-7 40-1.9 1.5h-8.1v-.1h-8.1l-2.1-1.6-6-40.3.3-1.5zm-5.9 22.5l5.7 19.9-1.2 1.6-3.9.4-1.9-1.7 1.3-20.2zm-41.9-14.2l16 7.9 2.3-.5 12.4-13.4 1.7.1 2.1 40.9-2.2 2.7-14.7 3.3-2.7-1.3-15.2-39.2.3-.5zm9.6 42.2l-.5 1.4-4.8 1.6-1.5-.8-3-19.7 9.8 17.5zm-52.4-22.6l15 3.6 2.9-1.2 8.8-15.4 1.2-1.2.8 1.4L182 90.9l-.9 1.6-15.3 7.3-1.9-.5-23.1-33.9-.4-1.5 1.7-.1zm14.8 36.2l-.8 5.5-4.1-1.2-6.7-16.5.4-.3 11.2 12.5zm-38.4-7.7l2.3-1.8 5.2-17.1.8-1.4 1.1 1.1 19.7 35.7-.7 2.9-12.4 9.8h-2.7l-31.2-29.2h17.9zm9.3 35.3l-3.2 3.2-2.1-.2-11.5-16.5.2-.3 16.5 11.8.1 2zM86 125l2.1-2.5 1.6-19.2 1.8 1.2 26.7 30.3v2.9l-9.9 12.3-2.8.5L68.7 129l17.3-4zm16.9 32.6l-1.7 2.7-3.4.5-13.9-12.6 18.4 7.2.6 2.2zm-56.6 13.9l15.3-7.3 1.7-3-2.7-17.1.2-1.9 1.7.7 33.3 23.9.5 2.2-7.1 14.5-2.4 1.2L46.3 172v-.5zM85.7 192l-1.6 4.4-1.5.7L65 186.8l19.5 3.4 1.2 1.8zm-38.5 15.5l.6-2.6-6.6-16.6-.2-1.7 1.6.2 37.8 15.8 1.1 2.3-3.6 15.4-2.1 1.8-42.1-3.2-.3-.5 13.8-10.9zm28.6 26.3l-1.9 1.3-19-5.7v-.2L74 228l2.2 2.6-.4 3.2zm.3 38.7l-1.7 1.7-20.4-1.3 20.2-5.8 1.5 1.1.4 4.3zM31.6 267l.6-1.3 10.1-12.4.1-2.7-10.2-14.7-.6-1.6 1.8-.2 40 7 1.6 2v8.1h-.1v8.1l-1.7 2-40.3 6-1.3-.3zm8.7 48.2l7.4-16-.5-3L33.9 284l-.7-1 1.1-.6 40.2-2 3.4 2.7 3.3 14.1-1.3 2.7-39.6 15.3zm41.7-10l1.5.6 1.5 4.6-.7 1.6-19.9 2.8 17.6-9.6zM60.7 359l-1 .2-.1-1.6 3.5-14.8-1.5-3.3-15.2-8.7-1.3-1.3 40.6-11.7 2.9 1.3 6.7 14.1-.7 2.8-33.9 23zM98 340.7l1.7.3 2.6 4.1-.6 1.7-18.4 7.2L98 340.7zM88.1 399l-.1-18-1.7-2.2-17.1-5.2-1.5-.9 1.2-1.1 35.7-19.6 2.8.7 9.9 12.5v2.5L88.1 399zm33.1-26.9l2.3-.1 2.9 2.9-.2 2.3-16.7 11.3 11.7-16.4zm3.5 59l-4-17.5-2.3-2-19.3-1.6.8-1.5 30.7-27.1h2.7l12.4 10 .5 2.7-21.5 37zm26.3-33.3l2.8-.9 4 2.9-13.7 15.9v-.9l6.9-17zm16.9 55.2l-.6.6-7.6-16-2.2-1.2-19.4 2.6.6-1.8 23.8-33.1 2.3-.5 14.4 7 1.3 2.7-12.6 39.7zm49.9-27.1h-.1l-3 39.3-.5.9-.9-.6-10-12.7-3-.8-18 6.9.1-1.5 15.8-37.8 2.6-1.2L216 422l1.8 2.4v1.5zm-34.8 8.8l3-19.9 1.6-.8 4.4 1.6.7 1.8-9.7 17.3zm41.9 9.9l-1.1-18.5 2.9-2.6.4.1 3.1 4.6-4.9 16.5-.4-.1zm37.9 23.4l-1.3-.5-12.4-10.1-2.8-.1L230 468l-.2-1.9 7-40 2.1-1.5h7.9v.1h8.1l2.1 1.6 6 40.5-.2 1.2zm5.8-23.1l-.2.1-5.4-19.3 1.2-1.8 4.1-.4 1.6 1.5-1.3 19.9zm41.8 14.8l-15.8-7.8-2.6.6-12.3 13.3-1.7-.1-2-40.9 2.3-2.7 14.5-3.3 2.9 1.3 15.2 39.2-.5.4zm.1-24.6l-9.6-17.4.6-1.6 4.8-1.6 1.5.9L311 435l-.5.1zm-62.8-14.6c-93.4 0-169.1-75.7-169.1-169.1S154.3 82.3 247.7 82.3 416.8 158 416.8 251.4s-75.7 169.1-169.1 169.1zm165.4-113.6l17.4 9.7-19.9-3-.9-1.6 1.6-4.4 1.8-.7zM372.7 373l12 17.3-17.1-12.1-.2-1.8 3.6-3.6 1.7.2zm-30.2 24.7l7.2 18.8-12.9-14.3.3-2.4 3.8-2.4 1.6.3zm11.5 42.6l-15.9-3.8-2.6 1.2-9.9 16.8-.9-1.5-11.2-39.2 1.1-2.5 14.6-6.9 2.3.6 23.2 34.1.2 1.2h-.9zm22.9-28.6l-2.3 1.8-5.9 18.5-1.1-1.1-19.7-35.7.7-2.9 12.4-9.8h2.7l31.2 29.2h-18zm32.6-32.8l-2.2 2.5-1.5 19-1.4-.6-27.2-30.6v-3L387 354l2.8-.7 37 21.6-17.3 4zm-17.1-32.7l7.2-1.3 11.8 10.8-.2.4-18-7.6-.8-2.3zm41.4-6.5l-1.6 2.9 2.7 17.3-.4 2-34.5-24.5-.6-2.5 6.9-14.2 2.9-1.4 39.3 12.3.7.7-15.4 7.4zm14.4-43.3l-.6 2.6 6.6 16.6.2 1.7-1.6-.2-37.8-15.8-1.1-2.3 3.6-15.4 2.1-1.8 42.1 3.2.3.5-13.8 10.9zm15-58.2l-10.1 12.4-.1 2.7 10.1 14.6.7 1.8-2 .1-39.8-7-1.6-2v-8.1h.1v-8.1l1.7-2 40.3-6 1.4.3-.7 1.3z"/></svg>