<svg version="1" xmlns="http://www.w3.org/2000/svg" width="432" height="432"><path fill="none" stroke="#000" stroke-width="2" stroke-miterlimit="10" d="M175 308.5l-30.5-16V125l30.5 16zm0-167.5h113v167.5H175M144.5 125h122l21.5 16m-136.5-12.3H271M159.8 133h117.4M168 137.3h113.5"/><path fill="none" stroke="#000" stroke-width="2" stroke-miterlimit="10" d="M186.5 214.9h6v28.8h-6zm9 .1c2-2.5 35.5-24 35.5-24v68.5l-35.5-16V215zm47-7.5s9.5 20.2 0 35.5m12.3-43.7s9.5 29.7 0 52m12-63.8s9.5 43.1 0 75.5"/></svg>