<svg version="1" xmlns="http://www.w3.org/2000/svg" width="432" height="432"><path fill="none" stroke="#000" stroke-width="1.6" stroke-miterlimit="10" d="M78.1 282s138.8 45.9 286.2 0V131.1c-147.5 45.9-286.2 0-286.2 0V282zm3.4-143.7l-19.3-24.7m19.3 163.9l-19.3 15.9m295.4-154.9l19.4-24.9m-19.4 163.9l19.4 15.9M86.3 45.9s91.3 88.6 265.3 84.6m0-84.6s-91.3 88.6-265.3 84.6m139.5-67.1l-6.6 8.9 7.8 1.9zM110.6 99l7.3-4.7 2.7 14.9zM60.7 208.3l7 2.7s-7.9 11-7.9 10.1c0-1 .9-12.8.9-12.8zm242 94.2l7 2.7s-7.9 11-7.9 10.1c0-.9.9-12.8.9-12.8zm-187.5-.6l-9.2 14h9.2zm57.9 11.1h10.2l-2.8 12.1zm62.4 17.2l-1.8 13 12.7-3.2zM167.7 45.9h10.9l-5.5 12.5z"/><path fill="none" stroke="#000" stroke-width="1.6" stroke-miterlimit="10" d="M223.4 126.3l-6 11.7h10.7zm90.1-30l-3.8 10.9 18.5-3.6zm13.2 226.9l5.5-6 7.1 10.8zm48-103.4l8.9-15 1.7 17.5zM161.1 97l-2 9.5 12-2.2z"/></svg>