<svg version="1" xmlns="http://www.w3.org/2000/svg" width="432" height="432"><g fill="#FFF"><path d="M148 320.9l-13.1 8.1 10.6 3.5 6.8-12-.9-11.7 5-.4.9 11.8 8.5 10.8 9.5-4.8-13.7-6.4 1.1-11.9c11.3-.8 20.9-6.8 20.9-6.8l-10.4-60.6 1.3-6.2-1.5-6.9-.2-39.3-10.4-29.1s-8 .6-9 .7-.2-2.4-.2-2.4l16.9-2.6-.7-11.5s-.9-8.4-5.7-20.1c-4.8-11.6-15.9-12.8-15.9-12.8-16.7.1-16.6 12.9-19.4 20.1-2.8 7.1.5 26.1.5 26.1l15.9.6-.4 3.3-8.4.6-.8.9-10.7 20.2 10.7 27.1-10.9 1.9 3.8 6.1 7.5-2.6-9.3 90.9 18.3 2.9 3.4 12.5zm11.3-136.4l1.7-5.8 5 11.5s.5 9.9-.1 9.7c-.6-.3-6.6-15.4-6.6-15.4zm-18.2 2.2l-2.4 13.4-6.3-17.4 5.8-10 2.9 14z"/><path d="M209.6 94.5s9.6.8 12 13.6-1 19.6-1 19.6-3 10.5-8.8 11.9l.6 7.5 11.7 1 11.3 35.3-10.8 2 .4 31.3-1.6 74.1-2 31.9 16.9 9.9-14.9 4.9-5.8-14.5-2.5-33.6-6.4-71.7-2.8-.2-.8 6.4-7.5 61.3-2.7 38.4-9.4 14.6-11.5-5.1 15.5-9.2-3-38.9s.8-37.9 1.1-41 3.5-24.6 3.5-24.6l1.5-4.3-1.5-31.2-3.8-1-9.3-2 4.2-11.4-1.8-1.2 1.6-5.4 2.3.7 6.1-16.7 12.1.4.4-6.2s-4-2.8-5.6-5.8c-1.6-3-5.8-14.8-4.4-19.7 1.3-5.1 2.8-19 16.7-21.1zM239.4 328l12.4 4.4 8.4-16c-.7-17.8 11-91.7 11-91.7l.9-5.6 1.1-.8 8.6 98.7 7.7 13.3 13.1-5.4-15.3-8.3-.2-97 6.5 4.8 6.4-3.7-9.9-5.8 20.3-27.6-15.7-38.1-11.5-1.1-.5-7 4-3.3 3.9-7s2.3-3.5 2.7-9.2c.4-5.7-1.7-12.8-3.9-18.6-2.3-5.8-8.7-6.7-8.7-6.7-7.5 0-11.4 9.6-12.8 13.4-1.4 3.8-2.1 15.4.3 21.9 2.3 6.5 6.6 9.3 6.6 9.3l-2.5 6.4-10.1-.4-15.9 28.6 12.3 35.9-11.5 6.2 5.6 4.1 8.9-5.7 1.2.4-3.9 12s-4.1 26.3-4.4 28.7c-.2 2.4-1.5 35.9-1.5 35.9l.6 24-14.2 11zm48.5-119.6l.5-17.6 1.9-21.6 1.2-.1 6.1 16.4-9.7 22.9zm-27.1-37.1l-1.1 14.5-2.6-10.2 3.7-4.3z"/></g><g fill="none" stroke="#000" stroke-width="2" stroke-miterlimit="10"><ellipse transform="rotate(-85.451 207.771 117.723) scale(1.00005)" cx="207.8" cy="117.7" rx="23.3" ry="14.7"/><path d="M211.7 139.6l.6 7.5m-9.4-6.1l-.6 6.9m-10.8 34.2c.4 16.6.8 32.8.8 32.8s20.7 6.3 32.6-.4c0 0-.2-14-.4-29.2m-.6-10.5c-.2-13.8 0-26.6 0-26.6l-33.4-1.4s.2 8.2.5 18.9"/><path d="M224 148.1l11.3 35.3s-21.7 7.4-48.7-.9m4-35.8s-3.1 8.5-6.2 16.9"/><path d="M182.3 169.3c-2.3 6.3-4.2 11.4-4.2 11.4s12.4 6.8 45.5-6.4l-4.9-5.7s-17.9 2-31.4 4.3"/><path d="M196.9 171.5l-3.7-5.4-11.1-3.3-.9 5.4 8 4.5m35.7 41.9s-.8 86.5-3.7 108.1l-3.8.3-8.9-105.3m-2.7.4s-11.1 73.3-11 105.4l-5.2.4s-7.9-73.7 2.8-108.9"/><path d="M221.2 322.7l16.2 9.4-14.2 5.3-5.8-14.4m-22.6.5l-9.4 14.6-11.5-5.1 15.6-9.1"/><ellipse transform="rotate(-87.396 279.828 119.195) scale(1.00003)" cx="279.8" cy="119.2" rx="22.9" ry="13.2"/><path d="M282.9 141.2l.5 6.9m-9-7.5c0 1.2-1.4 6.5-1.4 6.5m21.9 2.2l-31.9-2.7s-5.6 46-1.2 69.4c0 0 15.4 5.6 25.1-.1.1 0 1.6-51 8-66.6z"/><path d="M294.9 149.3l15.7 38.1-20.3 27.6 9.9 5.8s-5.6 3.9-6.4 3.7c-.5-.1-4.5-3.2-7.2-5.3"/><path d="M290.8 167.2l6.8 18.4-10.4 24.4m-25.4 6l-8.8 5.7-5.7-4.1 11.2-5.5-12-36.6 16.5-28.9"/><path d="M260.9 168.9l-3.8 7.4 3 10.5m26.9 29.1l.4 100.8-5.5.4-8.6-98.7m-10.3-2s-12.7 26.2-9.1 100.5l6.3-.5c-.7-18 11.9-97.3 11.9-97.3m15.3 97.6l15.3 8.3-13.2 5.4-7.6-13.3m-21.7-.7c.3 1.1-8.4 16-8.4 16l-12.4-4.4 14.5-11"/><ellipse transform="rotate(-4.211 147.23 134.028)" cx="147.2" cy="134" rx="13" ry="19.7"/><path d="M152.9 152.3l.5 7.4m-8.1-6.4l-.6 7m-.3-3.2l-15.4-.7s-8.1-44.7 16.5-46 24.6 44.1 24.6 44.1l-16.9 2.6m13 46.4c-2.6-8.2-6.7-18.7-6.7-18.7l2.9-25.8-26.6 2 5.2 25.7-5.2 29.4s16.8 4.3 30.7-2.1"/><path d="M162.4 159l10.4 29.2.1 39.4 1.5 6.9-1.7 8.6-4.5-.9-.9-12.9-1.6-39.1-5.2-14M135.8 161l-11.1 21.1 11.9 30.1"/><path d="M137.9 171.3l-5.5 11.6 6 18.9m-2.2 12.6l-7.9 2.8-3.8-6.1 10.9-2m37.8 31.6c4.5 25.9 10.4 60.6 10.4 60.6s-19.8 13.2-57.1 4.2l9.4-89.3"/><path d="M162.7 308l-1.1 11.9-4.3.3-.9-11.7m5.2 11.4l14.1 6.1-9.9 5.1-8.5-10.9m-12.4-11.8l3.1 12.5 4.3-.3-.9-11.7m-3.4 12l-13.1 8.1 10.6 3.6 6.8-12"/></g></svg>