<svg version="1" xmlns="http://www.w3.org/2000/svg" width="432" height="432"><g fill="#FFF"><path d="M294.7 303l18.1-4.3-15.9-90 7.7 2.1 3.3-6.4-11-1.1 8.7-27.8-12.1-19.4-.9-.8h-8.4l-.7-3.2 15.9-1.8s1.9-19.2-1.4-26.1c-3.3-6.9-4.1-19.8-20.8-18.6 0 0-11 2-14.9 13.9-3.9 11.9-4.2 20.4-4.2 20.4l.2 11.5 17.1 1.4s1.1 2.4 0 2.4h-9.1l-8.2 29.9 2.7 39.2-1 7 1.7 6.1-6 61.2s10 5.2 21.3 5.2l2 11.8-13.2 7.3 9.8 4.1 7.7-11.4V304h5v11.8l7.7 11.4 10.3-4.3-13.7-7.1 2.3-12.8zm-29-106.7c-.7.3-.8-9.6-.8-9.6l4.2-11.8 2.2 5.7c-.1-.1-5 15.4-5.6 15.7zm25.6-29.2l6.5 9.6-5 17.9-3.3-13.2 1.8-14.3z"/><path d="M214.4 94.4s-9.5 1.5-10.9 14.5c-1.4 12.9 2.5 19.5 2.5 19.5s3.8 10.3 9.7 11.2v7.5L204 149l-8.7 36 10.9 1.2 1.9 31.3 7.1 73.8 4.3 31.6-16 11.1 15.2 3.8 4.7-14.9v-33.7l1.1-72 2.8-.4 1.3 6.3 12 60.6 5.5 38.1 10.4 13.8 11.1-5.9-16.1-8 .1-39s-3.6-37.7-4.1-40.9c-.5-3.1-5.4-24.3-5.4-24.3l-1.8-4.2-.8-31.2 3.7-1.3 9.1-2.6-5-11.1 1.7-1.3-2-5.2-2.2.8-7.3-16.2-12 1.3-.8-6.2s3.8-3.1 5.2-6.2c1.4-3.1 4.7-15.1 3-20-1.9-4.8-4.5-18.6-18.5-19.7zm-27.8 225.2l-1.2-23.9s-3.7-33.3-4.1-35.7c-.4-2.4-6.5-28.3-6.5-28.3L170 220l1.2-.5 9.2 5 5.3-4.5-12-5.3 9.7-36.7-18-27.3-10 1.2-2.9-6.2s4.1-3.1 5.9-9.8.3-18.2-1.3-21.9c-1.7-3.7-6.3-13-13.7-12.5 0 0-6.4 1.3-8.2 7.3-1.8 6-3.4 13.2-2.6 18.9.8 5.7 3.4 9 3.4 9l4.4 6.7 4.2 3v7l-11.4 2-12.8 39.2 22.2 26-9.4 6.5 6.7 3.2 6.2-5.3 6.9 96.8-14.6 9.4 13.5 4.4 6.7-13.8 1.3-99 1.2.7 1.3 5.5s17.1 72.8 17.7 90.6l9.6 15.3 12.1-5.3-15.2-10zm-53.3-127.9l4.9-16.8h1.2l3.5 21.4 1.8 17.5-11.4-22.1zm39.7-12.9l-1.8 10.3-2.2-14.3 4 4z"/></g><g fill="none" stroke="#000" stroke-width="2" stroke-miterlimit="10"><ellipse transform="rotate(-8.761 217.945 117.5)" cx="217.9" cy="117.5" rx="14.7" ry="23.3"/><path d="M215.6 139.6v7.6m8.9-6.9l1.1 6.9m13.3 33.3c.8 16.6 1.6 32.8 1.6 32.8s-20.2 7.8-32.5 2c0 0-.8-14-1.8-29.1m-.2-10.6c-.8-13.8-2-26.6-2-26.6l33.2-3.8s.4 8.2.9 18.8"/><path d="M204 149l-8.7 36s22.2 5.8 48.5-4.5m-6.6-35.3s3.7 8.2 7.5 16.4"/><path d="M247.1 167.1c2.8 6.1 5 11.1 5 11.1s-11.8 7.7-45.8-3l4.5-6s18 .7 31.7 2"/><path d="M232.7 170.4l3.3-5.7 10.8-4.2 1.4 5.4-7.7 5.1M208 215.3s7.2 86.2 11.6 107.6h3.8l1.1-105.7m2.7.3s16.5 72.3 18.8 104.3h5.2s2.4-74.1-10.8-108.4m-20.8 109.5l-15.4 10.6 14.5 4.3 4.7-14.9m22.6-1.1l10.4 13.8 11.1-5.9-16.3-7.9"/><ellipse transform="rotate(-6.817 146.153 124.24)" cx="146.2" cy="124.2" rx="13.2" ry="22.9"/><path d="M144.7 146.4v7m8.4-8.2c.1 1.2 1.9 6.3 1.9 6.3m-21.7 3.8l31.7-5s9 45.4 6.2 69.2c0 0-14.9 6.8-25.1 1.8.1-.1-5.2-50.9-12.8-66z"/><path d="M133.3 155.3l-12.8 39.2 22.2 26-9.4 6.5s5.9 3.5 6.7 3.2c.5-.2 4.3-3.5 6.8-5.8"/><path d="M138.7 172.9l-5.4 18.9 12.2 23.5m25.7 4.2l9.3 5 5.3-4.5-11.6-4.7 9.3-37.3-18.5-27.7"/><path d="M168.7 172.5l4.3 7-2.2 10.7m-24.6 31l6.9 100.6h5.6l1.3-99.1m10.1-2.7s14.6 25.2 16.4 99.6h-6.3c-.7-18-19-96.2-19-96.2m-8.1 98.4l-14.6 9.4 13.5 4.4 6.7-13.8"/><path d="M180.2 319.5c-.2 1.1 9.6 15.3 9.6 15.3l12.1-5.3-15.3-9.9"/><ellipse cx="279.5" cy="129.3" rx="13" ry="19.7"/><path d="M275.2 147.9v7.4m7.7-7l1.1 7m0-3.2l15.3-1.8s4.8-45.2-19.8-44.7-21.3 45.8-21.3 45.8l17.1 1.4m-9.6 47.2c2-8.4 5.3-19.2 5.3-19.2l-4.8-25.5h26.7l-3.3 26 7.3 29s-16.5 5.5-30.8.1"/><path d="M266.2 155.3l-8.2 29.9 2.8 39.3-1 7 2.3 8.5 4.4-1.2v-13l-1.3-39.2 4.2-14.3m23.4-17l12.7 20.3-9.6 30.9"/><path d="M291.5 165.7l6.3 11.3-4.5 19.3m3.1 12.3l8.1 2.2 3.3-6.4-11-1.1m-35.3 34.3c-2.5 26.1-6 61.2-6 61.2s20.8 11.8 57.2 0l-15.9-88.4"/><path d="M276.8 304l2 11.8h4.4V304m-4.4 11.8l-13.6 7.1 10.3 4.3 7.7-11.4m11.5-12.8l-2.2 12.8h-4.3V304m4.3 11.8l13.7 7.1-10.4 4.3-7.6-11.4"/></g></svg>