<svg version="1" xmlns="http://www.w3.org/2000/svg" width="504" height="504"><path fill="none" stroke="#000" stroke-width="4" stroke-miterlimit="10" d="M151 415.5l-4-5-15-30.5-47.5-113.5V257l21.5-10.6L219.5 262l53.2-96 21.8-6.5h10l70 153.5v6.5l-182 88z"/><path fill="none" stroke="#000" stroke-width="4" stroke-miterlimit="10" d="M94.6 252L70 226l211.5-105.5 7 24 6 15M84.5 257l-10.1-26.3"/><path fill="none" stroke="#000" stroke-width="4" stroke-miterlimit="10" d="M74.4 223.8l-6.9-31.3 70-113.5L264 109l8.3 16.1M93.5 229.8c4.6-.3 9.1-2.8 11.9-6.5 1.1-1.4 1.9-3 3.3-4.1 1.3-.9 2.8-1.3 4.3-1.7 14.6-3.7 28.3-11.1 39.5-21.3 1.8-1.6 3.7-3.4 6.2-3.5 3-.1 6 2.5 8.9 1.5 1.7-.6 2.8-2.2 4-3.5 4.3-4.5 11.3-5.3 16.6-8.6 4-2.5 7-6.5 11.1-8.9 9-5.2 22.5-1.9 28.9-10.1 2.3-2.9 3.2-6.9 6.3-9 2.5-1.7 5.8-1.7 8.8-2.1 5.8-.8 11.3-3.3 16.6-5.7l12.9-6m-168.1 94.5c4.9-3 11-3.4 16.6-4.8 7-1.8 13.6-5.3 19-10.2 3.9-3.5 7.5-7.9 12.5-9.4 2.4-.7 5.1-.7 7.5-1.5 5.9-1.9 9.6-8.1 15.3-10.5 4.5-1.8 9.7-1 14.4-2.4 7.4-2.2 12.3-9.4 19.5-12 3.9-1.4 8.2-1.4 11.7-3.6 2.9-1.8 4.8-4.7 7.3-6.9 2.5-2.1 5.5-3.4 8.5-4.7 13.5-5.8 27-11.6 40.4-17.4m-166.8 93.7c5.1.9 10.5-.4 14.8-3.4 3.4-2.4 6-5.9 9.8-7.6 2.6-1.1 5.6-1.3 8.4-1.9 3.1-.7 6-1.9 8.9-3.1 12.6-5.2 25.2-10.5 37.7-15.7 7.6-3.2 15.3-6.4 21.1-12.2 5.3-5.3 10-13.1 17.5-12.9 1.6 0 3.3.5 4.9.1 3.8-.8 5.2-5.4 8.2-8 3.7-3.2 9.1-2.8 14-2.9 4.9-.1 10.7-1.8 11.9-6.5m-134.2 77.7c4 1.7 8.6-.6 12-3.3 3.4-2.7 6.8-6 11.1-6.6 3.1-.4 6.2.5 9.3.3 10.5-.7 16.5-14.4 27-15.3 2.4-.2 4.9.2 7-.7 3.5-1.5 4.6-5.9 7.3-8.5 2.5-2.4 6.1-3.3 9.4-4.3 8.5-2.6 16.4-7 23-12.9 1-.9 2.1-1.9 3.4-2.1 1.5-.2 2.9.7 4.3 1.1 3.8 1.1 8.1-1.6 8.9-5.4m-100.5 61.5l28.8-11.4c1.8-.7 3.6-1.5 5-2.8 1-.9 1.7-2 2.7-2.9 4.8-3.9 13.2 1 17.8-3.2 2.4-2.2 2.8-6.2 5.6-7.7 1.1-.6 2.4-.7 3.6-.8 9.9-1.1 19.4-4.9 27.2-11.1M174 254.3c12.8-1.9 25.5-5.2 36.6-11.8 3.1-1.9 6.2-4.1 7.8-7.3 6 .7 12.2-.7 17.3-3.8m-35.3 26.4c5-2.6 10.5-4.3 16.2-4.8 1.1-.1 2.3-.2 3.3-.6 2.9-1.2 4.5-4.9 7.6-5"/></svg>