<svg version="1" xmlns="http://www.w3.org/2000/svg" width="432" height="432" viewBox="0 0 432 432"><path fill="#27AAE1" d="M179.5 167.3l-6.3 3.7 2.2 92.7 8 4.7h26.3s-1-33.2-2.3-33.3c-1.3-.1-12.2-.2-12.2-1s1.8-13 1.8-13l10.3.7-5.1-20.4 11.6-14.2 21.8-2-.7 19.7-16.3.3 1 16.7 13.3-2.3s1.2 12.6.3 12.7-11 .7-11 .7l2.3 33.7 29.7-3.3 5.7-4.7-2-91s-6.5-3.7-7-3.7c-.4-.3-71.4 3.3-71.4 3.3z"/><path fill="none" stroke="#000" stroke-width="2" stroke-miterlimit="10" d="M173.2 171l5.5-3.7 73-3.7 6.3 3.7 2 91-4.9 4.7-30.4 3.3-2.3-33.7 11-.7-.3-12.7-13.3 2.3-1-16.7 16.3-.3.7-19.7-21.8 2s-11.8 13.7-11.8 14.7 5.3 20 5.3 20L197 221s-2 13.3-1 13.3 11.3.7 11.3.7l2.3 33.3h-26.3l-8-4.7-2.1-92.6z"/></svg>