<svg version="1" xmlns="http://www.w3.org/2000/svg" width="432" height="432"><ellipse transform="rotate(-3.107 130.695 110.092) scale(.99997)" fill="none" stroke="#000" stroke-width="2" stroke-miterlimit="10" cx="130.7" cy="110.1" rx="18" ry="25.9"/><path fill="none" stroke="#000" stroke-width="2" stroke-miterlimit="10" d="M127.1 136.2v8.6l11.8-1.3-2.1-8.7m-23.4 12.1l42.1-5.1 3.7 85.7-34.7 2.2z"/><path fill="none" stroke="#000" stroke-width="2" stroke-miterlimit="10" d="M115.7 164l-40.4-33.9c-1-2.7-13.7-39.1-13.7-39.1l-5-3.2-3.1-9.1 20.4-4.5.6 11.3-5.5 6L86.8 125l26.7 21.9"/><path fill="none" stroke="#000" stroke-width="2" stroke-miterlimit="10" d="M74.2 80c-.7 0-11 2-11 2l-.2 4.4 3.8-.1-1.2 3.2m58.9 140.2l2.6 113.5h5.9l8.9-114.4m0 0l14.3 114.4h5.8l-2.8-115.7m-32.1 115.7l-18 12.5 18 2.5 5.9-15m23.2 0l8.3 20.3 16.5-5.3-19-15m-5.7-182.6l33.4-38.8c.5-2.8 7.2-40.8 7.2-40.8l4.5-4 1.6-9.5-20.8-1.1 1.2 11.3 6.5 5-12.1 35.9-22 24.3"/><path fill="none" stroke="#000" stroke-width="2" stroke-miterlimit="10" d="M182.7 72.2c.7-.1 11.2.2 11.2.2l.9 4.3-3.8.5 1.7 2.9"/><ellipse transform="rotate(-86.891 302.637 110.127) scale(.99997)" fill="none" stroke="#000" stroke-width="2" stroke-miterlimit="10" cx="302.6" cy="110.1" rx="25.9" ry="18"/><path fill="none" stroke="#000" stroke-width="2" stroke-miterlimit="10" d="M306.3 136.2v8.6l-11.7-1.3 2-8.7m23.4 12.1l-42.1-5.1-3.7 85.7 34.7 2.2z"/><path fill="none" stroke="#000" stroke-width="2" stroke-miterlimit="10" d="M317.7 164l40.4-33.9c1-2.7 13.7-39.1 13.7-39.1l5-3.2 3.1-9.1-20.4-4.5-.6 11.3 5.6 5.9-17.8 33.6-26.7 21.9"/><path fill="none" stroke="#000" stroke-width="2" stroke-miterlimit="10" d="M359.2 80c.7 0 11 2 11 2l.2 4.4-3.8-.1 1.2 3.2m-58.9 140.2l-2.6 113.5h-5.9l-8.8-114.4"/><path fill="none" stroke="#000" stroke-width="2" stroke-miterlimit="10" d="M291.6 228.8l-14.4 114.4h-5.7l2.7-115.7m32.1 115.7l18 12.5-18 2.5-5.9-15"/><path fill="none" stroke="#000" stroke-width="2" stroke-miterlimit="10" d="M277.2 343.2l-8.3 20.3-16.5-5.3 19.1-15m5.6-182.6l-33.4-38.8c-.5-2.8-7.2-40.8-7.2-40.8l-4.5-4-1.6-9.5 20.8-1.1-1.2 11.3-6.5 5 12.1 35.9 22 24.3"/><path fill="none" stroke="#000" stroke-width="2" stroke-miterlimit="10" d="M250.8 72.2c-.7-.1-11.2.2-11.2.2l-.9 4.3 3.8.5-1.7 2.9m-85.2 20.6l13.1-13.6M155.6 109l17.4-8.3M159.2 115h13.1m95-25.6l12.4 11.3m-16 4.1l16 4.2m-16 6l14.1 1.7"/></svg>