<svg version="1" xmlns="http://www.w3.org/2000/svg" width="432" height="432"><path fill="#FFF" d="M248.3 332.7l-18.6-112.3v-7l6.6 3 3.4-7-10-1.3 23.2-46.6-26.9-26.6-16.7 1.9-2.1-9s13.7-5.5 11.9-24.7c-1.7-19.2-10.7-27.3-21.6-25.5 0 0-10.5 2.6-13.7 16.3s5.8 34 13.7 34.3v9.6l-13.7 2.1-19.1 30.4L191 209l-8.4 6.5 6 5.7 5.5-5.4.9 6.8-5.8 111.3-22.2 11.7 19.4 9 10.2-20.8L213 222.4l26.7 111.3 10.5 21.2 17.1-7.8-19-14.4zm-68.8-161l7.4-10.3.7 4.9 3.9 30.3-12-24.9zm47.6-13.4l9.3 8-8 22.6-1.3-30.6z"/><g fill="#27AAE1"><path d="M197.6 77.4s-19.7 31.4 3.6 51c0 0-13.5 2.4-17.9-24.5 0 0-.3-21.3 14.3-26.5zm-3.4 61.1l9.3 79.6 17.3 2.2-15.6 2.1-11 111.4-10.3 19.8-16.8-8.1 21.9-11.7 6.1-111.4-8.3-61.8-2.9-20.9z"/><path d="M185.5 151.8l-11.7 19.1 19.2 36.3-1.6-11.9-11.9-23.9 7.3-10.8zm36.7 69.2L244 332.7l16.2 17.7-10 4.5-10.5-21.1-26.2-112.5z"/></g><g fill="none" stroke="#000" stroke-width="2" stroke-miterlimit="10"><ellipse transform="rotate(-3.107 201.264 102.921) scale(.99997)" cx="201.3" cy="102.9" rx="18" ry="25.9"/><path d="M187.2 80.3s12.4 3 23.7-1.7M185 84.5s15.8 3.6 30.1-1.5m-32.4 6.2s23.9 3.8 34.4-1.9M197.6 129v8.6l11.8-1.3-2.1-8.7m-23.4 12.1l42.2-5.1 3.6 85.7-34.6 2.1z"/><path d="M183.9 139.7l-19 30.4 26.8 39.6-9 5.6 6 5.7 5.5-5.4"/><path d="M186.8 160.6l-7.1 11.1 12 25.5m-26.8-27.1l14.8 1.6m46.4-37.1l27.2 26-23.6 47.1 10 1.6-3.4 7-6.6-3"/><path d="M227.1 158l9.2 8.5-7.9 23.8m7.9-23.8l17-5.9m-58.2 61.8l-5.9 111.4h7.6l16.4-112.5m0 0l26.5 112.5 8.6-1.5-18.6-112m-40.5 113.5l-22.1 11.7 19.4 9 10.3-20.7m42.8.6l10.6 20.5 17.1-7.7-19-14.9"/></g></svg>