<svg version="1" xmlns="http://www.w3.org/2000/svg" width="432" height="432"><path d="M173.8 108.7s-36.4 37.4-9.1 77.3c0 0-20.5-4.6-16.8-43 0 .1 4.6-29.9 25.9-34.3zm-29.7 83.4L125.5 318h-20.6l28.9-127.8z" fill="#27AAE1"/><g fill="none" stroke="#000" stroke-width="2" stroke-miterlimit="10"><ellipse transform="rotate(-80.061 173.749 147.596)" cx="173.8" cy="147.6" rx="39.6" ry="26.3"/><path d="M160.8 111.5s20.8 5 33 1.2m-36 2.8s22.8 10 39.8 2.2m-43.4 1.8s21 13.5 45.5 4.2M157 181.4l-2.8 11.8m17.3-6.4l-1.3 10.2m-65.3 121l28.8-127.8 52.5 9.6s-2.8 25.8-5.7 53.1m-2.5 23.9c-2.3 21.9-4.3 39.9-4.3 39.9"/><path d="M140.7 234l42.7 49.3H244l14.3 4h15.3l2.3-6.3s-25.7-10.7-26.7-10.7-57-1.7-57-1.7L157.8 223m34.5 45.7l-8.3 14.6"/><path d="M183.6 224.4l22.2 24.5 35.2 6.3 20.7 7.5-2 6-16.7-3.4 2 4.3m-5.8.5l-3.6-5.2h-33.2L181.2 247m24.6 1.9l-3.4 16M93.5 316.7L104 190.2l44.2-7.4v10.4"/><path d="M148.2 182.8l-10.7-4.8-45 4.8-16.3 137.4m16.3-137.4l11.5 7.4m141.7 66.7l32-1.7 39.7 40.8-66 14.3s-12-14.3-22.3-26.7m-12-14.2c-1.9-2.2-3-3.6-3-3.6l-.7 3.5"/><path d="M277.7 255.2l16.6-63.3 50.4 42.4-27.4 61.7"/><path d="M294.4 191.1l11.3-.9 51 37.5-33 77-73.4 21-37-42.4m104 11.7l6.4 9.7m21-70.4l12-6.6m-105.4 82.6l-1 15.4"/></g></svg>