<svg version="1" xmlns="http://www.w3.org/2000/svg" width="1217" height="1176"><path fill="none" stroke="#000" stroke-width="5" stroke-miterlimit="10" d="M506.9 163.6c-3.3-.6-6.5-1.1-9.8-1.3-8.6-.4-17.1 1.8-25.5 4-19.3 5.1-38.8 8.1-57.9 13.3-35.3 9.7-67.3 29.2-96.7 50.5-17.5 12.7-35.2 26.4-56.4 31-7.6 1.6-15.7 2-22.6 5.6-5.4 2.7-9.8 7.2-13.9 11.7-12.6 14.1-22.9 29.9-32.9 45.9-9 14.4-21.9 29.5-28.7 45-13.2 30.4-.2 66.3-9.7 97.6-1 3.2-2.2 6.4-4.5 8.7-3.4 3.5-8.5 4.7-13.2 5.8-17.5 4.1-36.1 10.9-45.6 26.1-6.5 10.4-4.4 20.6-7.8 31.3C78 551 63 562.1 54.4 571.4c-4.1 4.4-8.3 9-9.9 14.8-2.3 8.2 1.2 16.9.7 25.4-.9 16-15.4 28.4-18.2 44.2-2.7 15.5 6.4 30.8 6 46.5-.2 9.1-3.6 18.2-1.6 27 1.3 5.6 4.7 10.5 7.2 15.7 3.7 7.5 5.7 15.8 8.7 23.6 8.2 20.8 25.7 32.7 36.3 51.1 8.9 15.5 8.5 36.1 26.7 45.7 5.5 2.9 11.9 3.6 18.1 4.1 21 1.8 42.2 2.4 63.3 1.9 18.4-.5 36.2-5.3 54.2-5.5 19.8-.2 39.6 2.2 58.7 7.2 8.9 2.3 17.8 5.2 26.9 6 25.6 2.3 53.4-10.8 76 1.5 4.8 2.6 9.1 6.4 14.2 8.6 15.5 6.8 32.9-2.1 49.6-4.7 25.2-3.9 51.7 6.8 76.1-.4 8.4-2.5 16.6-8 25.6-8.3 9-.2 12.3 5.5 19.8 7.9 8.7 2.8 21.3.6 30.5 1.7 10.9 1.3 21.7 3.2 32.7 3.7 48.1 1.9 97.2-11.7 144.7-17.5 12.5-1.5 27.6 1.2 40.5 1.2 16.2 0 32.3.6 48.5 1.5 10.8.6 21.7 1.5 32.4 3.4 8.5 1.6 16.9 3.9 25.4 5.4 17.4 3.2 35.1 3.5 52.8 3.2 16.5-.2 33-.8 49.5-1.5 14.6-.7 34 1.6 47.9-2.6 19.1-5.8 45-24.3 48.5-45.6.8-4.6.7-9.3.7-13.9.1-17.6 3.4-35.3 2.3-52.7-1.1-16.9-.6-35.2 6.1-51.2l17.6-42.7s7.8-73.8 0-81c-9.1-8.3-10.7-26.4-12.4-37.8-2.8-19-8.2-36.9-15.8-54.8-15.7-37.2-38.6-71.3-67.3-99.7-9.7-9.6-20.1-18.6-31.6-25.9-16.5-10.4-35-17.2-52.5-25.9-30.1-15-57.2-35.8-88.3-48.7-16.1-6.7-33.2-11.3-48.4-19.7-9.4-5.2-18-11.9-26.6-18.5-19.8-15.3-39.6-30.6-59.4-46-12.3-9.5-24.6-19-38.6-25.6-15.3-7.3-32-10.7-48.5-14.2-31.7-12.7-64.7-19.8-98.3-24-7.8-1-15.6-1.9-23.4-.8-14.5 2.1-27.5 11.4-42.1 11.5-4.3.1-8.6-.7-12.8-1.4z"/></svg>