<svg version="1" xmlns="http://www.w3.org/2000/svg" width="432" height="432"><path fill="none" stroke="#000" stroke-width="2" stroke-miterlimit="10" d="M157 125.7l4 182h108l7.3-177.4zm10.5 37.8H214m-46.5 12h98m-98 19h98m-98 16.5h98m-97.8 15.5h98m-98.2 16h98m-98 13h98m-98 14.6h98m-98 13.4h98m-98 14.2h98"/><path fill="none" stroke="#000" stroke-width="2" stroke-miterlimit="10" d="M225.8 144.5c-1.4-.1-2.5.1-2.5.1v12.3c3.4.6 9 .6 9-5.4 0-5.7-3.8-6.9-6.5-7zm-2.5.2v23.1m14.4-22.1v21.1s12.5-2 12.5-10.5-12.5-10.6-12.5-10.6zm16.8 22.1l-.8-23.3 11.1.2M254 155h8.5"/></svg>