<svg version="1" xmlns="http://www.w3.org/2000/svg" width="432" height="432"><path fill="#27AAE1" d="M220.3 165.3l-10 15.4V192l-60.8-19 15.5 21-16.1 4.3 19.4 15.4L159 224l42 10 2.3 6.7-30.3 32 60.3-9 13.4-19.3 15.6-12.1 3.7-9.6.7-26 17-13.4-16-1 7.5-18.6-18.4 6.5-11.8-10.5z"/><path fill="none" stroke="#000" stroke-width="2" stroke-miterlimit="10" d="M149.5 173l60.8 19v-11.3l10-15.3 24.7-5.7 12 10.7 18.2-6.7L268 182s16.7.3 15.7 1.3-17 13.3-17 13.3l-.7 26-3.7 9.7-16 12.3-13 19s-62.7 10-61.3 9 31.3-31 31.3-32-1.3-6-2.3-6.7-42-9-42-10 9.3-10.3 9.3-10.3l-19.5-15.3L165 194l-15.5-21z"/></svg>