<svg version="1" xmlns="http://www.w3.org/2000/svg" width="432" height="432"><ellipse transform="rotate(-12.013 244.69 165.662)" fill="none" stroke="#000" stroke-width="2" stroke-miterlimit="10" cx="244.7" cy="165.7" rx="25.5" ry="38"/><path fill="none" stroke="#000" stroke-width="2" stroke-miterlimit="10" d="M250.1 213.7l-29.6-2.2s-39-89.5 6-100c0 0 40-22.1 63.5 29.4s23 55.9 23 55.9l-32 10.5m-7.4-50.9s-1.1 20.8-16.6 29.4"/><ellipse transform="rotate(-15.254 252.097 187.301)" fill="none" stroke="#000" stroke-width="2" stroke-miterlimit="10" cx="252.1" cy="187.3" rx="5.1" ry="4.6"/><path fill="none" stroke="#000" stroke-width="2" stroke-miterlimit="10" d="M252.6 202.8l1.8 9m8.3-15l6.5 8.6m49.1 91.6c-8.3-25-40.3-95.3-40.3-95.3L247 215l.5 31s8.2 10.9 13.6 18.1m4.4 15.6c-.5 12.6-1.3 33.5-1.3 33.5"/><path fill="none" stroke="#000" stroke-width="2" stroke-miterlimit="10" d="M272.8 238.8l-16.6 34.4-40.4 21H201l-13.5 10 10 4 23.3-5.7 41.9-17.7 18.5-35.6m-25 24l6.5 11.6M247.4 237l-19.9 32-27.2 17.2s-9.2-1.5-10-1.5c-.4 0-4.8 2.4-8.5 4.5"/><path fill="none" stroke="#000" stroke-width="2" stroke-miterlimit="10" d="M182.4 295.6c1.6.9 3.1 1.5 3.4 1.4.8-.2 11.8-4.2 11.8-4.2l-1.7 5.4m10.1-4l3-4 25.4-12.7 18.2-24.7M227.5 269l6.9 8.5"/><path fill="none" stroke="#000" stroke-width="2" stroke-miterlimit="10" d="M174 342.2l-1.5-90.7-58.5-37.8 1.8 80.5 58.2 48 69.5-20.2v-12.2l-69.8 16.6"/><path fill="none" stroke="#000" stroke-width="2" stroke-miterlimit="10" d="M114 213.7l11.8-4.7 55.2 34.8-8.5 7.7m8.5-7.7l1.4 80.5m61.1-14.5s-7-4.7-15.7-10.7m-9.1-6.1c-2.2-1.5-4.4-3-6.5-4.4m-7.5-5.2c-6.4-4.3-11-7.4-11-7.4l-11.4 1.5"/></svg>