<svg version="1" xmlns="http://www.w3.org/2000/svg" width="288" height="288"><path fill="#2B2B2B" d="M203.1 124.7c-4.7-11.6-13.5-18.9-19.8-16.3-1.2.5-2.2 1.3-3 2.3h-10.9c-9-4.3-20.1-6.9-32-6.9-30.4 0-55 16.4-55 36.6s24.6 36.6 55 36.6c26.3 0 48.2-12.3 53.7-28.7 3.2 2.2 6.4 3 9.1 1.9 6.3-2.5 7.6-13.9 2.9-25.5z"/><g fill="none" stroke="#000" stroke-width="2" stroke-miterlimit="10"><path d="M178.3 120.6c0 3.9.7 8.3 2.1 12.7 4.2 13.1 13.2 21.9 20.2 19.7 6.9-2.2 9.2-14.6 5-27.7s-13.2-21.9-20.2-19.7c-2.4.8-4.2 2.8-5.5 5.6"/><path d="M183.5 111.4l-8.6-.7s-10.1.7-11.2 1.3c-1.1.6-8.7 6.4-9.3 7.6-.7 1.2 1.4 6.9 3.4 8.5 2 1.6 8.8.6 8.8.6l16.7-11.3.2-6z"/><path d="M179.6 111.5c-10.4-9.7-26.5-15.9-44.7-15.9-31.3 0-56.6 18.4-56.6 41.1s25.4 41.1 56.6 41.1c25.8 0 47.5-12.5 54.4-29.6m-83.4 23.9l4.7 21h4.5v-17.8"/><path d="M148.3 176.7v16.4h5.8l2.7-18.4"/></g><path fill="none" d="M94 97.2c32.3-.4 64.7 0 97 1.1-32.4 7.7-65.4 12.4-98.3 17.1l150.6 5.1c-55.5 2.8-111.1 6.1-166.6 10 13.7 2.6 27.8 2.9 41.8 3.1 18.3.2 36.7 0 55-.1 24.7-.2 49.5-.4 74.2-.7-13.7.8-28 8.2-41.8 9-48.2 2.8-95.9-1-143.7 5.2 35.3 5.8 91.6 9.5 127.2 13.5-28.9 1.3-78.8 4.4-107.1 10.2 35.7 3.3 71.6 4.9 107.5 4.8"/></svg>