<svg version="1" xmlns="http://www.w3.org/2000/svg" width="288" height="288"><path fill="#27AAE1" d="M205.1 94.1l-48.9 56.7-1 18.8 51.9-55z"/><g fill="none" stroke="#000" stroke-width="2" stroke-miterlimit="10"><path d="M189.2 81.9h-13.3c-6.6 0-12-5.4-12-12V39.5c0-6.6 5.4-12 12-12h13.3c6.6 0 12 5.4 12 12v30.4c0 6.6-5.4 12-12 12z"/><path d="M163.9 58.3s10.2.8 14.8-.7c4.7-1.5 5-.8 9.7.7 4.7 1.6 12.8.2 12.8.2m-37.3-8.2s-9 4.7 0 11m37.3-11s8.7 7.2 0 11"/><path d="M166.5 92.4c-11.4-.7-25.2-7.3-25.2-7.3 3.5-7.8 6.7-33.3 6.7-33.3 1.7-44.5 34.1-35 34.1-35s32.4-9.7 27.9 33.6c0 0 3.5 30.1 12.8 35.6 0 0-18.8 7.4-26.5 5.7"/><path d="M178.1 81.9l-.9 8.2h11.4l-1.2-8.2m17.7 12.2c-19.1-7.5-46.9 0-46.9 0s-2.3 117.5-11.3 143.1c0 0 36.7 25.3 71.3 0L205.1 94.1z"/><path d="M158.3 94.7s-32.6 12.8-48.3 11.4l6.7 44.7 41-35.6m-47.7-7.6l-8.5-1.5-3.5 9.1 3.5 1.4 5-5.2"/><path d="M100.9 107.7s-13.1-.3-13.1 0 2.8 18.2 3.8 18.5c1 .3 16.2-4.7 16.2-4.7l-.9-7.1-3-.5m3.1 6.9h5.5"/><path d="M104.4 106.3c-4.6-29.2-8-50.5-8-50.5s-3-5.9-4.3-7.3c-1.3-1.3-7.3-6-9-6.7-1.7-.7-14-3-14-3s-15.3 3.5-16.3 22.4S63.5 83 73.2 83.7c9.7.6 9.8 10.9 9.8 10.9l6.1 1.9s.3-16.2-10.2-17.5c-10.5-1.3-11.8-4.9-11.8-4.9s-6.7-2.3-8-7.3c-1.3-5-1.3-10.9.3-12.8 1.7-1.9 9.3-6.9 9.3-6.9s18-.7 21.7 9.5c1.1 3.1 4.8 24.5 9.5 52.8m2.2 13.7C112.7 188 126.4 277 126.4 277l4.7-2.4s-14.1-88.8-24.3-153.2m94.4-28.6l-45.1 54.4m51-32.6L154.6 171m50.5-76.9s22 26.5 29.6 74.1l-22 9.3m4.6-1.9l-1.1 4.6 3.7 2.4 2.7-3.5 4.8 13.8h7.3l-5.1-21.9m-62.2 75.5c.6 7.2 1.2 15 1.2 15h4.8s1.2-7.4 2.2-13.9m14.1.6c.7 6.4 1.4 13.3 1.4 13.3h6s.4-8 .8-15m-29.2 15l-23.5 12.2 23.5 3.3 4.7-15.5m17.8 0l1 17 21.7-4.8-16.7-12.2"/></g></svg>