<svg version="1" xmlns="http://www.w3.org/2000/svg" width="288" height="288"><ellipse fill="none" stroke="#000" stroke-width="2" stroke-miterlimit="10" cx="1457.7" cy="1107.1" rx="44" ry="46.8"/><ellipse transform="rotate(-83.529 1454.92 1107.16)" fill="none" stroke="#000" stroke-width="2" stroke-miterlimit="10" cx="1454.8" cy="1107.1" rx="25" ry="11.6"/><path fill="none" stroke="#000" stroke-width="2" stroke-miterlimit="10" d="M1453.8 1083.1s-20.3 7.2-23.3 12.2l-3 5s0 6 1.5 6.8 7 .2 8.8-1.2 7.8-10.6 7.8-10.6m16.9-9.8s21.2 9.7 18.2 21.7l-4 1.8s-5.5-.8-6.5-1.4-3.8-10.3-3.8-10.3m-28.3 51.7l2.5 20.1h5.6v-16.8m14.5 1.6v15.2h6.3l2.2-16.8"/><ellipse transform="rotate(-83.529 140.82 136.138)" fill="none" stroke="#000" stroke-width="2" stroke-miterlimit="10" cx="140.8" cy="136.1" rx="25" ry="11.6"/><path fill="none" stroke="#000" stroke-width="2" stroke-miterlimit="10" d="M139.8 112.1s-20.3 7.2-23.3 12.2l-3 5s0 6 1.5 6.8 7 .2 8.8-1.2 7.8-10.6 7.8-10.6m16.9-9.8s21.2 9.7 18.2 21.7l-4 1.8s-5.5-.8-6.5-1.4-3.8-10.3-3.8-10.3"/><ellipse fill="none" stroke="#000" stroke-width="2" stroke-miterlimit="10" cx="143.7" cy="136.1" rx="44" ry="46.8"/><path fill="none" stroke="#000" stroke-width="2" stroke-miterlimit="10" d="M124.1 178l2.5 20.1h5.6v-16.8m14.5 1.6v15.2h6.3l2.2-16.8"/></svg>