<svg version="1" xmlns="http://www.w3.org/2000/svg" width="288" height="288"><path fill="none" stroke="#000" stroke-width="2" stroke-miterlimit="10" d="M174.6 122.1c.2-.5.5-1.1.8-1.6 4.1-6.1 15.7-5.5 25.9 1.4s15.1 17.4 10.9 23.5-15.7 5.5-25.9-1.4c-4.4-3-7.8-6.6-9.9-10.2"/><path fill="none" stroke="#000" stroke-width="2" stroke-miterlimit="10" d="M180.2 130.2s-7.1 7-8.6 8.3c-1.5 1.3-9.5 5.3-11 5.7s-5.1-1-6.5-1.7c-1.3-.7-2-5-2-5s.3-2.3 4.4-8c4-5.7 20.6-8 20.6-8l3.1 8.7z"/><path fill="none" stroke="#000" stroke-width="2" stroke-miterlimit="10" d="M186.3 144.1s7.2 18.8.6 23.8c-6.6 5-99.2 0-99.2 0s-17-48.7 38-49.8c0 0 23.1-1.8 40.4 6"/></svg>