<svg version="1" xmlns="http://www.w3.org/2000/svg" width="288" height="288"><path fill="none" stroke="#000" stroke-width="2" stroke-miterlimit="10" d="M174 120.3c3 2.3 6.6 4.4 10.7 6 12.8 5 25.3 3.6 28-3.2 2.7-6.8-5.6-16.4-18.4-21.4-12.8-5-25.3-3.6-28 3.2-1 2.5-.5 5.3 1.1 8.1"/><path fill="none" stroke="#000" stroke-width="2" stroke-miterlimit="10" d="M169.6 110l-6 6.2s-5.8 8.2-6 9.5-.5 10.7 0 12 6.2 3.2 8.8 2.8 6-6.5 6-6.5l1.8-20-4.6-4z"/><path fill="none" stroke="#000" stroke-width="2" stroke-miterlimit="10" d="M166.5 105.2c-9.9-6.1-22.6-9.7-36.6-9.7-31.3 0-56.6 18.4-56.6 41.1s25.4 41.1 56.6 41.1 56.6-18.4 56.6-41.1c0-3.5-.6-6.9-1.7-10.1m-41.5 50.1V193h5.8l2.7-18.4m-50.9-2.7l4.7 21.1h4.5v-17.9"/></svg>