<svg version="1" xmlns="http://www.w3.org/2000/svg" width="288" height="288"><path fill="none" stroke="#000" stroke-width="2" stroke-miterlimit="10" d="M205.4 120.2c0 3.9.7 8.3 2.1 12.7 4.2 13.1 13.2 21.9 20.2 19.7 6.9-2.2 9.2-14.6 5-27.7s-13.2-21.9-20.2-19.7c-2.4.8-4.2 2.8-5.5 5.6"/><path fill="none" stroke="#000" stroke-width="2" stroke-miterlimit="10" d="M210.6 111l-8.6-.7s-10.1.7-11.2 1.3c-1.1.6-8.7 6.4-9.3 7.6-.7 1.2 1.4 6.9 3.4 8.5s8.8.6 8.8.6l16.7-11.3.2-6z"/><path fill="none" stroke="#000" stroke-width="2" stroke-miterlimit="10" d="M206.7 111.1c-10.4-9.7-26.5-15.9-44.7-15.9-31.3 0-56.6 18.4-56.6 41.1s25.4 41.1 56.6 41.1c25.8 0 47.5-12.5 54.4-29.6M133 171.7l4.7 21.1h4.5v-17.9"/><path fill="none" stroke="#000" stroke-width="2" stroke-miterlimit="10" d="M175.4 176.3v16.5h5.8l2.7-18.5"/></svg>