<svg version="1" xmlns="http://www.w3.org/2000/svg" width="288" height="288"><path fill="none" stroke="#000" stroke-width="2" stroke-miterlimit="10" d="M212 42s-20-5.8-22.5-6.5-40.5-6.7-50.5-6.7-44.5 6.6-44.5 6.6l-18 8.4S42.3 56 39.8 59.3s-9.6 12.2-9.6 12.2-7.4 59 5.1 77.8 22 41 36.7 41.8 42.8 3.5 42.8 3.5 40.8 11.3 53 8.8c12.2-2.5 31.5-7.3 31.5-7.3s35.2-6.2 42-15.8 24-37.2 19.8-52.8c-4.2-15.5-7.5-23.5-8.8-34.5s-3-37.5-10.2-41.7S212 42 212 42zm-17.6 163.3l-6.8 3.5.5 6 4.4 5.5h6.5s5.3-5 4.8-5.8-2.2-3.3-2.5-3.9c-.3-.6 0-3.9 0-3.9l-6.9-1.4zm-9.6 19.2l-5.8 1.9v7.2s2.3 4.8 3.4 4.8 5.6-1.8 5.6-1.8l4.5-3.8s-1.2-3.2-1.2-3.8-6.5-4.5-6.5-4.5zm-11.1 15.1l-8.3 1.8v4.5l2.4 4h3.6l6.3-2.8zm-18.3 10.3h-3.2l-1.6 5s2.8 5.1 3.3 4.9 3.9-1.9 3.9-1.9l2.4-3.1V252l-1-2.2h-3.8z"/></svg>