<svg version="1" xmlns="http://www.w3.org/2000/svg" width="288" height="288"><path fill="none" stroke="#000" stroke-width="2" stroke-miterlimit="10" d="M54 139.9l37-5.3-7 53H72.5z"/><path fill="none" stroke="#000" stroke-width="2" stroke-miterlimit="10" d="M54.6 141.6c-.6-1.7-3.3-23-3.3-23l12.6 19.9m19.1-2.8c-.8.1 1.3-24.2 1.3-24.2l6.7 23m-1.4 10.4s41.7-29 90-5.6c0 0 26-14.7 29.7-54.7 0 0 5.3 15.7 5 20.7 0 0 7.1-30 7.2-38.3 0 0 10.8 22.7 2.1 49.7l13.5-16.3s-2.9 41.3-53.9 48l13.7 67-6.3 7.3h-8.3s7-6.3 7-7.3-13.7-35-13.7-35-11.8 13.7-12.3 14.7c-.4 1 13.9 9 13.9 9s-5 11.7-6 11.7-8.8 2-7.9 0c.9-2 5.3-8.3 5.3-8.3s-17.7-8.3-17.7-9.7 12.4-21.7 12.4-21.7-23.7-2.3-43.4 1.3c0 0-15 31-16.7 31s-16 2.3-16 2.3l1.7 10.7s-6 4-6 1.3v-14.3l16.7-7.3 8-21-21.9-5.4"/><path fill="none" stroke="#000" stroke-width="2" stroke-miterlimit="10" d="M109.3 198.2c4.2 10.6 8.1 20.7 8.1 20.7l-3.7 3.4 5.3 1.7 6-5.1s-5.6-19.8-9.3-33.2m-14.1-7.2c.9 2.2 2 5.1 3.2 8.3"/></svg>