<svg version="1" xmlns="http://www.w3.org/2000/svg" width="288" height="288"><path d="M136.2 30.1s-12.3 25 .8 41.2c0 0-13.6-8.1-12-21.5 1.5-13.3 11.2-19.7 11.2-19.7zm-14.7 62.7l3.5 48.3 2 99.8c1 .6 2 1.2 2.9 1.9l.1-.3 1-100.9-4-63.4-6.5.9v8c-10.4.6-18.5-6.7-18.5-6.7l12.9-15.8-2.2-.8C84.1 80.2 94 83.9 94 83.9c1.9 2.3 8.3 5.7 12.6 7.3 4.3 1.6 14.9 1.6 14.9 1.6zm24 147.3l-1.5-98.4h-5.2l3.4 99.3c1.1-.4 2.2-.7 3.3-.9z" fill="#27AAE1"/><g fill="none" stroke="#000" stroke-width="2" stroke-miterlimit="10"><path d="M125 50.7c0 11.4 6.2 20.6 13.8 20.6 1.3 0 2.6-.3 3.8-.8 5.8-2.5 10-10.4 10-19.8 0-11.4-6.2-20.6-13.8-20.6S125 39.3 125 50.7zm25-17.4s-12.2 2.4-19.5 0m22.1 3.3s-14.4 3.3-23.9 0m23.9 2.9s-7.9 6.6-25.7.5m15.9 37.9l-.2-7.4m-7.6 0v7.3m22.2 1.4s-20.2-3-36.7 0l4.5 62.5 27.7-1.5 4.5-61zM112.7 64s-15 8.7-21 17c0 0 6.7 13 29.7 11.8m-12.1-15.7s6 2.8 11.1 2.1m.1-15.2c-1.2.7-21.8 23.8-21.8 23.8m16.1-45.2h4.3l.6 11.3 2.8-2.8 2.5 1.4-4.5 11.5h-7.8l-3-12z"/><path d="M157.2 79.2s7 47.2 22.8 55.7l-2.8 5.5s-15.6-5.5-22.6-27.3m11.8 1.8l-6.2 8.3m20.8 11.7l11 5.5 4.2 12.2s-4.3 2.5-4.8 2.5-8.5-10.8-8.5-10.8l-1.8 5.2-3.5-.7-.2-8.3m-24.8-.3l-3.6 101h-6.8l-3.4-99.5-5.1 101.2-6.7-.3-2-100.9"/></g><path fill="none" d="M118 30c11.2-.7 22.4-.6 33.6.1-13 9.5-28.9 15-45 15.6 17.8-2.4 35.8-3.3 53.8-2.7-20.2 10-44.5 9-64.7 19 18.4-1.7 36.8-2.5 55.3-2.3-23.1 4.4-46.3 8.8-68.7 15.7-2 .6-4.4 1.8-4.4 3.9 13.8 0 27.7 0 41.5-.1C105.9 81.5 92.6 85.5 80 91c2.7 2.3 6.6 2.4 10.1 2.5 12.5.2 25 0 37.5-.5-11.4 2.4-22.6 5.5-33.6 9.3 18.6.4 37.2.8 55.8 1.3-10.1 4.9-20.3 9.8-30.4 14.7-3.7 1.8-7.5 3.7-9.6 7.2 7.4 3.5 15.6 5.4 23.9 5.4-10.8.1-21.6 1.3-32.2 3.4 0 1.9 2.4 2.7 4.3 2.9 17.4 1.8 35 2.8 52.5 3-13.7 5.1-27.5 10.2-41.2 15.3-2 .7-4.4 2.4-3.6 4.4.5 1.2 1.9 1.6 3.2 1.8 8.5 1.5 17.2 2.2 25.8 1.9-10.3 3.4-20.8 6.8-29.1 13.7 11.2 2.7 22.7 4.1 34.1 4.1-4.4 2.8-9.8 3.7-14.8 5.4s-10.1 4.6-11.8 9.6c7.3 2.4 15.1 3.6 22.8 3.3-8.4.7-16.6 3-24.2 6.6-2.4 1.2-5.1 3.1-4.9 5.7.3 3.6 5.2 4.3 8.8 4.2 10.7-.4 21.4.3 31.9 2.1-21.5 6.9-42.7 14.9-63.4 23.9 17.5-2 35.1-3 52.7-3-9.9 3.1-19.7 6.2-29.6 9.3 17.8 1.3 35.7 1.9 53.6 1.9-7.2 4-15.1 6.9-23.2 8.6 7.5-.6 15-1.3 22.4-2.1"/></svg>