<svg version="1" xmlns="http://www.w3.org/2000/svg" width="288" height="288"><path d="M136.2 30.1s-12.3 25 .8 41.2c0 0-13.6-8.1-12-21.5 1.5-13.3 11.2-19.7 11.2-19.7zm-21.3 34.6L102 80.5s8.1 7.3 18.5 6.7v-8l6.5-.9 4 63.4-1 100.9-6.4 16.7-15.4-4.2 18.8-14-2-100-3.5-48.3s-10.6 0-14.9-1.6c-4.3-1.6-10.7-5-12.6-7.3 0 0-9.9-3.7 18.7-20l2.2.8zm29.1 77l1.5 99.5 19.7 9.2-14.7 6.6-8.3-15.8-3.4-99.5z" fill="#27AAE1"/><g fill="none" stroke="#000" stroke-width="2" stroke-miterlimit="10"><path d="M125 50.7c0 11.4 6.2 20.6 13.8 20.6 1.3 0 2.6-.3 3.8-.8 5.8-2.5 10-10.4 10-19.8 0-11.4-6.2-20.6-13.8-20.6S125 39.3 125 50.7zm25-17.4s-12.2 2.4-19.5 0m22.1 3.3s-14.4 3.3-23.9 0m23.9 2.9s-7.9 6.6-25.7.5m15.9 37.9l-.2-7.4m-7.6 0v7.3m22.2 1.4s-20.2-3-36.7 0l4.5 62.5 27.7-1.5 4.5-61zM112.7 64s-15 8.7-21 17c0 0 6.7 13 29.7 11.8m-12.1-15.7s6 2.8 11.1 2.1m.1-15.2c-1.2.7-21.8 23.8-21.8 23.8m16.1-45.2h4.3l.6 11.3 2.8-2.8 2.5 1.4-4.5 11.5h-7.8l-3-12z"/><path d="M157.2 79.2s7 47.2 22.8 55.7l-2.8 5.5s-15.6-5.5-22.6-27.3m11.8 1.8l-6.2 8.3m20.8 11.7l11 5.5 4.2 12.2s-4.3 2.5-4.8 2.5-8.5-10.8-8.5-10.8l-1.8 5.2-3.5-.7-.2-8.3m-24.8-.3l-3.6 101h-6.8l-3.4-99.5-5.1 101.2-6.7-.3-2-100.9m8.7 101.2l-5.5 15.3-14.7-3.5 13.5-12.1"/><path d="M149 241.2l17.4 6.5-15.9 5.8-8.3-12.3"/></g></svg>