<svg version="1" xmlns="http://www.w3.org/2000/svg" width="288" height="288"><path d="M139.8 29s-12.6 24.5 1 41.1c0 0-13.8-5.7-12.4-22.8 1.4-17.1 11.4-18.3 11.4-18.3zm-13.9 77.4l4.4 134.3c1.2.3 2.4.6 3.5 1.1l.1-.2-3.5-164.3-6.5.8v15.4c-10.7 15.5-11.8 56.2-11.8 56.2h3c2.4-31.9 10.8-43.3 10.8-43.3zm20 134.5c1.1-.4 2.2-.7 3.3-.9l-3-100.8-4 1.5 3.4 99.5.3.7z" fill="#27AAE1"/><g fill="none" stroke="#000" stroke-width="2" stroke-miterlimit="10"><path d="M128.4 49.6c0 11.4 6.2 20.6 13.8 20.6 1.3 0 2.6-.3 3.8-.8 5.8-2.5 10-10.4 10-19.8 0-11.4-6.2-20.6-13.8-20.6s-13.8 9.3-13.8 20.6zm25-17.3s-12.2 2.4-19.5 0m22.1 3.2s-14.4 3.3-23.9 0m23.9 2.9s-7.9 6.6-25.7.5m15.9 38l-.2-7.4m-7.6 0v7.3m22.2 1.3s-20.2-3-36.7 0l4.5 62.5 27.7-1.5 4.5-61z"/><path d="M123.9 78.1s-15.7 29-15.5 71.5h6.7s1.6-26.8 10.8-43.3m-10.8 43.4l3.1 7.2-3.1 2.2-2-2.5-2.6 10.3-4.5 3.2 1.7-20.4m12.9-30.7l-7.5-10.2m47.5-30.7s7 47.2 22.8 55.7l-2.8 5.5S165 133.8 158 112m26.4 21.9l11 5.5 4.2 12.2s-4.3 2.5-4.8 2.5-8.5-10.8-8.5-10.8l-1.8 5.2-3.5-.7-.2-8.3m-11-25.6l-6.2 8.3m-7.6 17l-3.6 101h-6.8l-3.4-99.5-5.1 101.2-6.7-.3-2-100.9m34-87.9l14.7-5.5m-13.5 9.9l16.7-1.7m-17.9 5.9l12 6.1"/></g><path fill="none" d="M126 32.1c6.4-1.6 13-2.4 19.6-2.3-8.9 7.6-19.7 13.1-31.1 15.9 8.8 1.9 17.7 3 26.7 3.3-9 3.7-18.3 6.8-27.7 9.4 7.6 1.2 15.2 2.5 22.8 3.7-10.9 5.6-22.3 10.3-34 14 11.3 6.5 26.3 1.5 38.1 7-10.6 3.5-21 7.6-31.1 12.3 11.9 2.2 23.7 4.4 35.6 6.6-12.2 2.6-24.8 5.3-34.9 12.6 10.4 1.7 20.9 3.3 31.3 5-12.7 2.9-25.4 5.9-38.1 8.8-2.7.6-6.3 2.8-5 5.3 15.7 1.1 31.5 1.5 47.3 1.1-13.4 2.7-26.8 5.4-39.7 9.8 14 .6 26.7 4.6 40.7 5.2-12.6 4.7-24 6-36.6 10.8-3.5 1.3-7.4 2.9-9.2 6.3 14.6 4.3 29.7 6.5 44.8 8.6-12.3 3.3-24.5 7.3-36.3 12 11.9.9 23.8 2.4 35.6 4.7-11.1 2.5-22.9 5.2-31.2 13 10 .9 20 1.8 30.1 2.7 4.5.4 9.3.9 12.9 3.7-13.3 4.9-26.8 9.9-38.1 18.4 11.2 1.4 22.4 2.8 33.6 4.1-11.4 1.7-22.4 5.9-32.1 12.2 18 .1 36 .1 54 .2-13.1 2.1-26.3 4.2-39.4 6.2"/></svg>