<svg version="1" xmlns="http://www.w3.org/2000/svg" width="288" height="288"><path fill="#26A9E0" d="M157.4 94.8l-49 56.5s-2 23.1-1.5 21.5 52.5-57.5 52.5-57.5l-2-20.5z"/><g fill="none" stroke="#000" stroke-width="2" stroke-miterlimit="10"><path d="M141.5 82.6h-13.3c-6.6 0-12-5.4-12-12V40.2c0-6.6 5.4-12 12-12h13.3c6.6 0 12 5.4 12 12v30.4c0 6.6-5.4 12-12 12z"/><path d="M116.2 59s10.2.8 14.8-.7c4.7-1.5 5-.8 9.7.7 4.7 1.6 12.8.2 12.8.2m-37.3-8.1s-9 4.7 0 11m37.3-11s8.7 7.2 0 11"/><path d="M118.7 93.1c-11.4-.7-25.2-7.3-25.2-7.3 3.5-7.8 6.7-33.3 6.7-33.3 1.7-44.5 34.1-35 34.1-35s32.4-9.7 27.9 33.6c0 0 3.5 30.1 12.8 35.6 0 0-18.8 7.4-26.5 5.7"/><path d="M130.4 82.6l-.9 8.2h11.4l-1.2-8.2m17.7 12.2c-19.1-7.5-46.9 0-46.9 0s-2.3 117.5-11.3 143.1c0 0 36.7 25.3 71.3 0L157.4 94.8z"/><path d="M110.5 94.8s-24.6 41.4-40.6 57.4l7.5 36.2s28.8-45.8 31.9-59.8"/><path d="M69.9 156l-12.4 7.1-8.6 15.8 13.5-1.1 10.2-12.9"/><path d="M68.9 169.5l1 6.6h2.7l.9-6.6m83.9-73.3S173 131.5 186 126s24.5-10.6 24.5-10.6V156s-41.1 3.7-50.2-32"/><path d="M210.4 117.4l8.3-8 2.5 2.4-1.8 5.6h19.3l-5.7 5.7-22.6 2m-56.9-31.6l-45.1 54.4m51-32.6l-52.5 56.4m12.8 75.5c.6 7.2 1.2 15 1.2 15h4.8s1.2-7.4 2.2-13.9m14.1.6c.7 6.4 1.4 13.3 1.4 13.3h6s.4-8 .8-15m-28.5 15.3l-23.5 12.2 23.5 3.3 4.8-15.5m16.9-.3l1 17 21.8-4.8-16.8-12.2m24.3-204.8l21.3-6.3M175 62h22m-22 5.4l22 6.3"/></g><path fill="none" d="M140 95.7c8-.5 16 0 23.9 1.4-16 5.4-32.4 9.6-49 12.3 1.5 1.2 3.5 1.3 5.4 1.4 14.4.8 28.8 1.6 43.1 2.3-16.8 2-33.5 5.3-49.8 9.9-1.2.3-2.6.9-2.8 2.1 16.7 2 33.5 3.4 50.3 4.4-24.6 4.4-50.7 1.7-73.6 11.5 15 .8 30.1.9 45.1.4-10.2 7.1-22.8 9.5-34.6 13.5-.6.2-1.3.5-1.7 1-.8 1.2.5 2.7 1.7 3.5 2.8 1.7 6.1 2.3 9.4 2.7 12.6 1.8 25.4 2.3 38.1 1.4"/></svg>