<svg version="1" xmlns="http://www.w3.org/2000/svg" width="576" height="576"><path fill="#27AAE1" d="M306 153.5l-43.7 46-1.2 16.7 51.5-55.9-.2-5.7z"/><path fill="#FFF" d="M256.6 224.3s27.8-10.2 63 0l7 90s-47.5 13.8-77.2 0l7.2-90z"/><g fill="none" stroke="#000" stroke-width="2" stroke-miterlimit="10"><path d="M294.6 146h-12.7c-6.6 0-12-5.4-12-12v-30.9c0-6.6 5.4-12 12-12h12.7c6.6 0 12 5.4 12 12V134c0 6.6-5.4 12-12 12z"/><path d="M269.9 123.5s10.7-.5 15.3-2.5c4.7-2 10.8 2 20.5 2.5m-35.8-6.5s-7.7 3.3 0 9.3m36.7-8.7s8.5 2.7 0 8.7"/><path d="M273.1 153.5c-11.5-1-23.5-9.9-23.5-9.9 1.7-4.7 5.5-27.8 5.5-27.8 8-42.8 32.7-31.7 32.7-31.7s13.2-6.2 21.4 6 11.2 50.2 14 53.5c0 0-17.5 8.3-23.1 8.8m-16.7-6.4l-.6 6m11.8-6l1.7 6"/><path d="M315.5 223.2c-1.1-25.2-3.1-68.5-3.1-68.5-16.9-5.8-47.9 0-47.9 0s-2.1 42.9-3.4 68.2m3.4-68.3s-17.2 5.4-29.2 61.2c0 0 4.8 8.2 20.6 9.8"/><path d="M239.9 220.2l-19.1 3v3.9h28l2.7-2.2m60.5-70.3s16.2 5.4 28.2 61.2c0 0-4.8 8.2-20.6 9.8"/><path d="M335.7 220.2l19.1 3v3.9h-28.1l-2.6-2.2m-21.8-72.2s-34.7 38.4-39.7 43.9m-1.1 18.6c5.7-6.1 51.1-54.8 51.1-54.8m-44.8 159.1l1.5 9h8l2.8-8.1m14 0l1.2 8.1h8l1.2-9.8"/><path d="M256.1 224.3s27.8-10.2 63 0l7 90s-47.5 13.8-77.2 0l7.2-90zm13.2 104.2l-5.3 24.4 18.6 6.8-5.3-31.2m26.1 0l5.4 24.4-18.6 6.8 5.2-31.2"/></g></svg>