<svg version="1" xmlns="http://www.w3.org/2000/svg" width="288" height="288"><path d="M79.5 93.2V87l-4.7-3.2h-8.2l-3.7 10 3.7 1.2s-6.9 9.7-9.1 11.8c-2.1 2-4 8.9-4 8.9s-3.7 10.8-3 15.6c.7 4.8 1.6 10.4 1.6 10.4l-1.7 17 1.6 44.7h33.7L83.1 189v-14.5l8.3 6.8 17.4-18.8s-4.2-9.4-4.8-9.3c-.7.1-7 3.2-7 3.2l.3 4 3.5 1.7-10.5 8.2-6.6-14.3 1.5-11.5-7.3-2.8s6.9-4.1 6.8-7.9c0-3.8-1.4-11.7-1.9-11.9-.5-.2-5.6-4.1-6.3-4.2s-4.7 1.4-4.7 1.4-5.3 3.7-5.8 6-.7 3.5-.8 4.6c-.1 1.1.9 7.3.9 7.3s-6.4-1-6.4-1.7 1.3-8.7 1.3-8.7 1.6-13.7 4.2-18.5c2.6-4.8 6.1-11.5 6.1-11.5l5 .2s2.4-3.8 3.2-3.6zm129 .1V87l4.7-3.2h8.2l3.7 10-3.7 1.2s6.9 9.7 9.1 11.8c2.1 2 4 8.9 4 8.9s3.7 10.8 3 15.6c-.7 4.8-1.6 10.4-1.6 10.4l1.7 17-1.6 44.7h-33.7L205 189v-14.5l-8.3 6.8-17.4-18.8s4.2-9.4 4.8-9.3c.7.1 7 3.2 7 3.2l-.3 4-3.5 1.7 10.5 8.2 6.7-14.2-1.5-11.5 7.3-2.8s-6.9-4.1-6.8-7.9 1.4-11.7 1.9-11.9c.5-.2 5.6-4.1 6.3-4.2.7-.1 4.7 1.4 4.7 1.4s5.3 3.7 5.8 6 .7 3.5.8 4.6-1 7.2-1 7.2 6.4-1 6.4-1.7-1.3-8.7-1.3-8.7-1.6-13.7-4.2-18.5c-2.6-4.8-6.1-11.5-6.1-11.5l-5 .2c-.1 0-2.4-3.8-3.3-3.5zm-78 14.4h5.7l1.8-5.7-1.7-4-8.5-3.2-14.5 30.5 2.8 7 5.3 8.2s6.6 8.5 12.1 8.5l2.5 51.5h27.4l-.5-51.5 7.8-4.2 6.2-6.7 6.1-12.7-14.5-30.5-8.3 3.2-1.7 4.8 1.7 5h5.8l8.3 18.1-11 12.2-8.8-1.7s2.7-3.2 2.7-6.8c-.1-3.6-2.6-11.1-2.6-11.1s-2.4-4.1-5.2-3.7-3.7.7-3.7.7-4.5 1.7-5.2 5c-.7 3.3-.8 8.3-.8 8.3l1.8 8-7.5 1.5-12-12.6 8.5-18.1z"/><g fill="none" stroke="#000" stroke-width="2" stroke-miterlimit="10"><path d="M66.2 137.4c-1.2-2.5-1.6-5.7-1-9 1.3-6.8 6.7-11.5 12-10.5s8.5 7.4 7.1 14.2c-.9 4.4-3.4 7.9-6.5 9.6M52.2 204c-5.3-58.7 4.3-70.2 4.3-70.2l28.7 10.7S80 184 85.9 204"/><path d="M60.2 135.2c.3-21.6 11.1-38.4 11.1-38.4h5.1l3.2-2.5V87l-4.7-3.2h-8.2l-3.7 10 3.7 1.2s-22.2 19.8-13.8 49.3M84 156.6s6.4 13.8 6.6 13.8 10.2-8.7 10.2-8.7l-3.1-1.2-.8-4.5 7.5-2.9 4.4 9.3-17.4 18.8-8.3-6.8m138.6-37c1.2-2.5 1.6-5.7 1-9-1.3-6.8-6.7-11.5-12-10.5s-8.5 7.4-7.1 14.2c.9 4.4 3.4 7.9 6.5 9.6m25.7 62.3c5.3-58.7-4.3-70.2-4.3-70.2l-28.7 10.7s5.2 39.5-.7 59.5"/><path d="M227.8 135.2c-.3-21.6-11.1-38.4-11.1-38.4h-5.1l-3.2-2.5V87l4.7-3.2h8.2l3.7 10-3.7 1.2s22.2 19.8 13.8 49.3M204 156.6s-6.4 13.8-6.6 13.8-10.2-8.7-10.2-8.7l3.1-1.2.8-4.5-7.5-2.9-4.4 9.3 17.4 18.8 8.3-6.8m-63.3-38.1c-1.4-2.3-2.2-5.3-2.2-8.5 0-7.1 4-12.9 8.9-12.9s8.9 5.8 8.9 12.9c0 3.6-1 6.9-2.7 9.3"/><path d="M163.3 201v-62.7c-10.7-4.3-29.8 0-29.8 0L136 201"/><path d="M133.5 138.3L122 126l8.5-18.3h5.7l1.8-5-1.7-4.7-8.5-3.2-14.5 30.5s5 18.8 20.2 23.7m29.3-10.7l11.5-12.3-8.5-18.3h-5.7l-1.8-5L160 98l8.5-3.2 14.5 30.5s-5 18.8-20.2 23.7"/></g></svg>