<svg version="1" xmlns="http://www.w3.org/2000/svg" width="288" height="288"><path d="M79.5 93.2V87l-4.7-3.2h-8.2l-3.7 10 3.7 1.2s-6.9 9.7-9.1 11.8c-2.1 2-4 8.9-4 8.9s-3.7 10.8-3 15.6c.7 4.8 1.6 10.4 1.6 10.4l-1.7 17 1.6 44.7h33.7L83.1 189v-14.5l8.3 6.8 17.4-18.8s-4.2-9.4-4.8-9.3c-.7.1-7 3.2-7 3.2l.3 4 3.5 1.7-10.5 8.2-6.6-14.3 1.5-11.5-7.3-2.8s6.9-4.1 6.8-7.9c0-3.8-1.4-11.7-1.9-11.9-.5-.2-5.6-4.1-6.3-4.2s-4.7 1.4-4.7 1.4-5.3 3.7-5.8 6-.7 3.5-.8 4.6c-.1 1.1.9 7.3.9 7.3s-6.4-1-6.4-1.7 1.3-8.7 1.3-8.7 1.6-13.7 4.2-18.5c2.6-4.8 6.1-11.5 6.1-11.5l5 .2s2.4-3.8 3.2-3.6zm129 .1V87l4.7-3.2h8.2l3.7 10-3.7 1.2s6.9 9.7 9.1 11.8c2.1 2 4 8.9 4 8.9s3.7 10.8 3 15.6c-.7 4.8-1.6 10.4-1.6 10.4l1.7 17-1.6 44.7h-33.7L205 189v-14.5l-8.3 6.8-17.4-18.8s4.2-9.4 4.8-9.3c.7.1 7 3.2 7 3.2l-.3 4-3.5 1.7 10.5 8.2 6.7-14.2-1.5-11.5 7.3-2.8s-6.9-4.1-6.8-7.9 1.4-11.7 1.9-11.9c.5-.2 5.6-4.1 6.3-4.2s4.7 1.4 4.7 1.4 5.3 3.7 5.8 6 .7 3.5.8 4.6-1 7.2-1 7.2 6.4-1 6.4-1.7-1.3-8.7-1.3-8.7-1.6-13.7-4.2-18.5c-2.6-4.8-6.1-11.5-6.1-11.5l-5 .2c-.1 0-2.4-3.8-3.3-3.5zm-78 14.4h5.7l1.8-5.7-1.7-4-8.5-3.2-14.5 30.5 2.8 7 5.3 8.2s6.6 8.5 12.1 8.5l2.5 51.5h27.4l-.5-51.5 7.8-4.2 6.2-6.7 6.1-12.7-14.5-30.5-8.3 3.2-1.7 4.8 1.7 5h5.8l8.3 18.1-11 12.2-8.8-1.7s2.7-3.2 2.7-6.8c-.1-3.6-2.6-11.1-2.6-11.1s-2.4-4.1-5.2-3.7-3.7.7-3.7.7-4.5 1.7-5.2 5-.8 8.3-.8 8.3l1.8 8-7.5 1.5-12-12.6 8.5-18.1z"/><path fill="none" d="M48.3 79c18.2 2.1 36.6 2.3 55 2.5l146.4 1.8c-69.2-1.4-138.7-2.7-207.6 4 71.9 6.2 144.1 7.4 216.1 3.7-44 .9-88 1.9-132 3-27.1.7-54.3 1.5-80.8 7.1 64.2.2 128.4.5 192.6.7-25.2 2.6-50.6 3.1-75.9 3.5-40.8.7-81.7 1.4-122.5 2.2 67 4.8 134.1 6.8 201.3 6.2-30.1-3.3-60.5-2.1-90.7-.8-39.3 1.6-78.5 3.2-117.8 4.8 69.6 7.1 141.3 0 209.8 5.4-18.9 5-38.6 6.1-58.1 6.9-47.5 2-95.1 2.7-142.6 2.2 27.3 11.3 57.8 11 87.3 10.6 34.3-.5 68.7-.9 103-1.4-14.4 3.3-29.3 4.3-44.1 5.1-48.9 2.5-97.9 1.6-146.9.7 66.8 12.2 135.4 1.7 203.2 3.7-67.1 4-134.2 5-201.4 6 67.5 9.3 135.9 6.5 203.9 3.1-73.8 12.9-149.5 4.6-224.4 5 39 7.4 78.7 12.5 118.4 10.4 17.3-.9 34.6-3.2 51.9-4.9 19.7-1.9 39.5-3.1 59.4-3.6-1.9 3.5-6.5 4.2-10.4 4.4-60.3 4-120.8 2.1-181.2 4.6-7.1.3-14.6.8-20.4 4.9 65.5 2.9 131.2 1.7 196.6-3.6-19.3 2.1-38.7 1.5-58.1 1.4-50.4-.3-100.7 2.3-150.9 6.2 46.2 7 92.8 13.7 139.5 10.9 26.2-1.5 52.3-6 78.4-4.2-59.5 2.6-119.1 3.8-178.7 3.6-8 0-16.3 0-23.7 3.2 41.3 3.6 82.9 4.2 124.3 2 15-.8 30.1-2 45.1-1.3 13.2.6 26.5 2.6 39.6 1.4"/></svg>