<svg version="1" xmlns="http://www.w3.org/2000/svg" width="288" height="288"><path d="M103.6 150.7c-.4.1-1.2.2-7.7 3.4l-1.5.7.5 7.1 1.2.6-4.9 3.8-5-10.8 1.7-12.7-4.9-1.9c2.2-2 4.2-4.5 4.1-7.2 0-.1-.5-12.5-3.3-14.1-.2-.1-1.3-.9-1.8-1.3-3.7-2.6-4.4-3.1-5.3-3.2-.6-.1-1.7-.1-5.9 1.5l-.6.3c-1.6 1.1-5.2 3.8-6.4 6.4.7-4.6 2-11.4 3.5-14.2 1.8-3.4 4.1-7.8 5.4-10.1l4.9.2.8-1.2c.6-.9 1.2-1.7 1.6-2.2l2 .5V85.7l-6.4-4.4H64.9l-5.2 14.1 2.9.9c-3.3 4.5-5.8 7.7-6.8 8.7-2.5 2.4-4.3 8.7-4.6 9.9-.4 1.2-3.9 11.5-3.1 16.8.6 4.1 1.3 8.8 1.6 10.1L48 158.5v.1l1.7 47.3h39.1l-3.1-17.1v-9l6 4.9 20.1-21.7-.7-1.5c-4.6-10.3-5.4-11.1-7.5-10.8zm-41.2-17c.1-.7.2-1.5.4-2.5.1.6.2 1.5.3 2.6-.2 0-.5 0-.7-.1zm176 8.1c.2-1.1.9-6 1.6-10.1.8-5.3-2.8-15.9-3.1-16.7-.5-1.8-2.3-7.7-4.7-10-1-.9-3.5-4.1-6.8-8.7l2.9-.9-5.2-14.1h-10.7l-6.4 4.4v11.1l2.1-.7c.3.3.7.8 1.2 1.7.5.7 1.1 1.6 2.5 1.6l3.4-.1c1.2 2.4 3.5 6.7 5.4 10.1 1.4 2.7 2.7 9.1 3.4 14.1-1.4-2.5-4.7-5.1-6.3-6.2l-.6-.3c-4.3-1.6-5.3-1.6-5.9-1.5-.9.1-1.6.6-5.3 3.2l-.1.1c-.6.4-1.5 1.1-1.6 1.2-2.8 1.6-3.3 13.9-3.3 14.1-.1 2.8 1.9 5.3 4.1 7.3l-4.9 1.9 1.7 12.7-5.1 10.7-4.9-3.8 1.2-.6.5-7.1-1.5-.7c-6.7-3.3-7.4-3.4-7.7-3.4-2.1-.3-2.9.5-7.5 10.7l-.7 1.5 20.1 21.7 6-4.9v9l-3.2 17.1h39.1l1.7-47.3-1.4-17.1zm-13-10.2c.1.8.2 1.5.3 2.1-.2 0-.4.1-.6.1.1-.9.2-1.6.3-2.2zm-46.5 8l6.9-14.2-16-33.7-11.5 4.4-2.4 6.7 2.6 7.5h6l6.9 15.1-9 9.9-3.9-.8c.7-1.4 1.2-3.2 1.2-5.1-.1-4-2.6-11.5-2.7-11.8l-.2-.5c-.5-.9-3.5-5.5-7.7-4.9-2.8.4-3.9.7-4.2.8-.6.2-5.8 2.3-6.8 6.8-.7 3.4-.8 8.2-.9 8.8v.3l1.3 5.8-3.6.7L125 125l7.1-15.1h5.9l2.6-8.3-2.5-5.8-11.7-4.4-16 33.6 3.2 8 5.6 8.7.1.1c.6.8 6 7.5 11.7 9.1l2.5 51.8h32.3l-.5-52.5 6.8-3.7 6.8-6.9z"/><path fill="none" d="M48.3 79c18.2 2.1 36.6 2.3 55 2.5l146.4 1.8c-69.2-1.4-138.7-2.7-207.6 4 71.9 6.2 144.1 7.4 216.1 3.7-44 .9-88 1.9-132 3-27.1.7-54.3 1.5-80.8 7.1 64.2.2 128.4.5 192.6.7-25.2 2.6-50.6 3.1-75.9 3.5-40.8.7-81.7 1.4-122.5 2.2 67 4.8 134.1 6.8 201.3 6.2-30.1-3.3-60.5-2.1-90.7-.8-39.3 1.6-78.5 3.2-117.8 4.8 69.6 7.1 141.3 0 209.8 5.4-18.9 5-38.6 6.1-58.1 6.9-47.5 2-95.1 2.7-142.6 2.2 27.3 11.3 57.8 11 87.3 10.6 34.3-.5 68.7-.9 103-1.4-14.4 3.3-29.3 4.3-44.1 5.1-48.9 2.5-97.9 1.6-146.9.7 66.8 12.2 135.4 1.7 203.2 3.7-67.1 4-134.2 5-201.4 6 67.5 9.3 135.9 6.5 203.9 3.1-73.8 12.9-149.5 4.6-224.4 5 39 7.4 78.7 12.5 118.4 10.4 17.3-.9 34.6-3.2 51.9-4.9 19.7-1.9 39.5-3.1 59.4-3.6-1.9 3.5-6.5 4.2-10.4 4.4-60.3 4-120.8 2.1-181.2 4.6-7.1.3-14.6.8-20.4 4.9 65.5 2.9 131.2 1.7 196.6-3.6-19.3 2.1-38.7 1.5-58.1 1.4-50.4-.3-100.7 2.3-150.9 6.2 46.2 7 92.8 13.7 139.5 10.9 26.2-1.5 52.3-6 78.4-4.2-59.5 2.6-119.1 3.8-178.7 3.6-8 0-16.3 0-23.7 3.2 41.3 3.6 82.9 4.2 124.3 2 15-.8 30.1-2 45.1-1.3 13.2.6 26.5 2.6 39.6 1.4"/></svg>