<svg version="1" xmlns="http://www.w3.org/2000/svg" width="288" height="288"><ellipse fill="none" stroke="#000" stroke-width="2" stroke-miterlimit="10" cx="70.1" cy="58.5" rx="11.2" ry="17.3"/><path fill="none" stroke="#000" stroke-width="2" stroke-miterlimit="10" d="M73.2 75.1l.5 8h-8.9l1-8.6m16.9 8.6H53.4s-6.7 119.2-8.9 137.4c0 0 33.5 8.2 51.2-1.7l-13-135.7z"/><path fill="none" stroke="#000" stroke-width="2" stroke-miterlimit="10" d="M53.4 83.1l-22.1 54.7 18.5 7.4"/><path fill="none" stroke="#000" stroke-width="2" stroke-miterlimit="10" d="M45.3 143.4l1.9 8.8-2.7 1.1-2.2-3.5-2.5 13.2-6-8.5 4.5-13.9m44.4-57.5h46v26.6L83.5 91.1m45.2-8l5.1-4.9h14.5v3.4l-6 1.5-.6 8.1-13-1.3M64.8 223.4l-1.3 10.7H60l-1-11.2m18.8.5l-1 10.7h-3.5l-.9-10.5m-8.9 10.5l-9.4 12-11.8-4.4 17.7-7.6m16.8 0l18 6.7-12.3 5.3-9.2-12"/><ellipse transform="rotate(-79.77 190.562 58.538)" fill="none" stroke="#000" stroke-width="2" stroke-miterlimit="10" cx="190.6" cy="58.5" rx="17.3" ry="11.2"/><path fill="none" stroke="#000" stroke-width="2" stroke-miterlimit="10" d="M190.7 75.5l-.9 7.9-8.8-1.6 2.5-8.3"/><path fill="none" stroke="#000" stroke-width="2" stroke-miterlimit="10" d="M171.2 99.2l-4 19.6 26.5 18.1-16.9 20.5-17.8-28.7-5.7-9.2 15-39.2s21.5 1.8 32.2 7c0 0-11.5 36.9-14.1 45.3m4.3 8.8l2.8 2.7 7-.3 7.5 13-6.4 4.2-8.2-6.9-6.6-.2-3.2-4.6"/><path fill="none" stroke="#000" stroke-width="2" stroke-miterlimit="10" d="M192.9 143.6c.4-.3 5.1-4.2 7.6-4.2s12.7 3.9 6.2 15.2m-18.7-.7s-2.2 6.2 0 9.6c2.2 3.4 6.1 3.2 7.2 3s6.4-5.5 6.4-5.5m-1.1-73.8l35.7-20v32.6l-39.3-1m48-30.8s-4.9 5.1-8.6 9.1m2.4-11.1l-2.5 1.2m4.6-13.3l14.6 2.3-4.4 13.1-12.3-3.3z"/><path fill="none" stroke="#000" stroke-width="2" stroke-miterlimit="10" d="M191.4 166.1c4.2 24 9.1 52.9 9.1 52.9s-36.2 4.5-57.2-6c0 0 14.2-63.5 18-80.9"/><path fill="none" stroke="#000" stroke-width="2" stroke-miterlimit="10" d="M164.4 218.9l-2 11.7h-3.5l-1.1-12.8m27.9 2l-1 10.8h-3.5l-.9-10.6m-17.9 10.6l18 6.7-12.3 5.3-9.2-12m25.8 0l18 6.7-12.4 5.3-9.1-12"/></svg>