<svg version="1" xmlns="http://www.w3.org/2000/svg" width="288" height="288"><path d="M126.7 148.6c.4-2.1.8-4.3 1.5-6.3-.1-.3-.3-.6-.5-.9 0 0 0-.1-.1-.1-2.4 1.5-4.8 2.9-7.5 4.1l-1.1 16.7 7.2-5.9c-.7-2.4.1-5.4.5-7.6zm33-44.3c-1 .6-5.4 9.9-13.6 20 .2.4.3.9.3 1.4 0 4.3.9 8.9.5 13.2l1-.9 12-18.2-.2-15.5z" fill="#27AAE1"/><g fill="none" stroke="#000" stroke-width="2" stroke-miterlimit="10"><path d="M144 90.9l4 .3c6.6.6 12.4-4.4 13-10.9l1.3-15.8c.6-6.6-4.4-12.4-10.9-13l-4-.3c-6.6-.6-12.4 4.4-13 10.9L133 77.9c-.5 6.6 4.4 12.4 11 13z"/><path d="M161.4 74.5s-6.5.8-10.3-1c-3.8-1.7-9.4-1.8-10.3-.4-.9 1.5-7.5.9-7.5.9m28.6-5s4.3.1 4.2 3.9c-.2 3.8-4.3 5.3-4.3 5.3"/><path d="M141.3 97.7c-6.2-1.1-12.5-3.3-18.2-7.1 0 0 6.3-11.8 6.8-24S133.5 40 149 42c0 0 24.8-2.4 26.9 31.8 0 0-.2 19.9.9 21.2 0 0-12.9 2.6-22.8 3.6"/><path d="M152.3 90.8l1.2 8.5-11.7-.7 1.1-7.9m-13.7 7.5l30.2 2.5 8.3 118.9s-32.7 12.2-57.7-2l19.2-119.4z"/><path d="M137.2 103.5s-12.8 47.5-12.5 67.8l25.9-6.2s-8.4-37.6-1.6-56.8"/><path d="M131.4 169.7v7.3l6.3 7 9.7-3.5.3-4.7h2.9l1.2-4.6-7.5-4.7m13.2-65.7s-4.2 7.8-10.4 16.2m-17.6 18.7c-2.1 1.7-4.3 3.3-6.5 4.7m37.6-20.5s-4.7 9-13.5 19.2m-21.5 19c-1.7 1.1-3.5 2.2-5.4 3.1m9.6 61.8l-2.9 12.8h-1.6l-3.2-13.2m30.5.8l-2.4 10.8h-1.7s-1.4-6-2.4-9.9m-19 11.5l22.1 2.8-8.6 9-16.5-9zm23.2-1.6l22.2 2.9-8.7 9-16.5-9z"/></g></svg>