<svg version="1" xmlns="http://www.w3.org/2000/svg" width="288" height="288"><path d="M103.9 152.2c-.7.1-4.4 1.8-7.3 3.3l-.6.3.4 5.2 2.6 1.2-8.2 6.4-5.9-12.9 1.6-12-6.2-2.4c2.2-1.6 5.7-4.6 5.6-7.7 0-1.1-.9-12.2-2.5-12.8-.2-.1-1.2-.8-2-1.4-3.3-2.3-4.1-2.8-4.6-2.9-.6-.1-2.4.4-5.2 1.5l-.2.1c-.9.7-5.6 4.1-6.2 6.6-.5 2.2-.7 3.5-.8 4.7-.1.9.4 4.2.7 6.2-1.7-.3-3.4-.7-4.1-1 .2-1.3.7-4.9 1.2-8.1 0-.1 1.6-13.6 4.1-18.1 2.1-3.9 4.9-9.2 5.8-11l4.9.2.3-.5c.9-1.4 1.9-2.7 2.4-3.1l1 .2v-8l-5.4-3.7h-9.2l-4.3 11.6 3.4 1.1c-1.9 2.6-6.5 9-8.2 10.5-2.2 2.1-4.1 8.6-4.3 9.3-.2.5-3.8 11.1-3 16.1.6 4.4 1.4 9.4 1.6 10.3l-1.7 16.9 1.6 45.7h35.9l-2.8-15.5v-12.3l7.4 6.1 18.5-20-.3-.6c-4.7-9.7-5.2-9.6-6-9.5zm133-10.5c.1-.9.9-5.9 1.6-10.3.7-5-2.9-15.6-3-16-.2-.7-2-7.2-4.3-9.4-1.7-1.6-6.3-8-8.2-10.5l3.4-1.1-4.3-11.6h-9.2l-5.4 3.7v8.2l1.1-.4c.3.2.9.9 2 2.5.4.6.7.9 1.2.9l4.4-.2c.9 1.7 3.7 7 5.8 11 2.5 4.6 4.1 18 4.1 18.2.5 3.2 1.1 6.8 1.2 8.1-.7.3-2.4.6-4.1 1 .3-2 .8-5.2.8-6.1-.1-1.2-.3-2.5-.8-4.7-.6-2.6-5.3-6-6.2-6.6l-.2-.1c-2.8-1.1-4.6-1.6-5.2-1.5-.5.1-1.4.6-4.6 2.9-.8.6-1.7 1.2-1.9 1.3-1.7.7-2.5 12.7-2.5 12.8-.1 3.1 3.4 6.1 5.6 7.7l-6.2 2.4 1.6 12-6 12.8-8.2-6.4 2.6-1.2.4-5.2-.6-.3c-2.9-1.4-6.6-3.2-7.3-3.3-.8-.1-1.4-.2-5.9 9.9l-.3.6 18.5 20 7.4-6.1V189l-2.9 15.5H237l1.6-45.7v-.1l-1.7-17zM169 93.6l-9.6 3.7-2 5.6 2 6h5.9l7.8 16.9-10.2 11.3-6.7-1.3c.9-1.4 2-3.6 2-6.1-.1-3.7-2.5-11.1-2.7-11.4l-.1-.2c-.3-.5-2.8-4.7-6.2-4.2-2.8.4-3.8.7-3.9.8-.2.1-5 1.9-5.8 5.7-.7 3.4-.8 8.3-.8 8.5v.1l1.6 7.1-6 1.2-11.1-11.7 7.9-16.9h5.8l2.1-6.8-2-4.7-9.8-3.7-15.1 31.7 3 7.4 5.4 8.4c.3.3 6.3 8 11.9 8.8l2.5 51.6h29.4l-.5-51.9 7.4-4 6.3-6.8 6.5-13.4-15-31.7z"/><path fill="none" d="M48.3 79c18.2 2.1 36.6 2.3 55 2.5l146.4 1.8c-69.2-1.4-138.7-2.7-207.6 4 71.9 6.2 144.1 7.4 216.1 3.7-44 .9-88 1.9-132 3-27.1.7-54.3 1.5-80.8 7.1 64.2.2 128.4.5 192.6.7-25.2 2.6-50.6 3.1-75.9 3.5-40.8.7-81.7 1.4-122.5 2.2 67 4.8 134.1 6.8 201.3 6.2-30.1-3.3-60.5-2.1-90.7-.8-39.3 1.6-78.5 3.2-117.8 4.8 69.6 7.1 141.3 0 209.8 5.4-18.9 5-38.6 6.1-58.1 6.9-47.5 2-95.1 2.7-142.6 2.2 27.3 11.3 57.8 11 87.3 10.6 34.3-.5 68.7-.9 103-1.4-14.4 3.3-29.3 4.3-44.1 5.1-48.9 2.5-97.9 1.6-146.9.7 66.8 12.2 135.4 1.7 203.2 3.7-67.1 4-134.2 5-201.4 6 67.5 9.3 135.9 6.5 203.9 3.1-73.8 12.9-149.5 4.6-224.4 5 39 7.4 78.7 12.5 118.4 10.4 17.3-.9 34.6-3.2 51.9-4.9 19.7-1.9 39.5-3.1 59.4-3.6-1.9 3.5-6.5 4.2-10.4 4.4-60.3 4-120.8 2.1-181.2 4.6-7.1.3-14.6.8-20.4 4.9 65.5 2.9 131.2 1.7 196.6-3.6-19.3 2.1-38.7 1.5-58.1 1.4-50.4-.3-100.7 2.3-150.9 6.2 46.2 7 92.8 13.7 139.5 10.9 26.2-1.5 52.3-6 78.4-4.2-59.5 2.6-119.1 3.8-178.7 3.6-8 0-16.3 0-23.7 3.2 41.3 3.6 82.9 4.2 124.3 2 15-.8 30.1-2 45.1-1.3 13.2.6 26.5 2.6 39.6 1.4"/></svg>