<svg version="1" xmlns="http://www.w3.org/2000/svg" width="288" height="288"><path d="M137.2 53.3v24.9l-2.5 5.7s-2.6 2.1-3.1 2.1H87v7.2l-3.2.1v6.2H87v4h42.3l-3 22.8.9 17.4h1.8l7.8 27.1.3 42.7H149v-84.2s.7-15.8 0-16.5c-.7-.7 1.4-9.3 2.6-9.3h44.3v-3.8s2 .5 2-.2v-6.2l-2.3-.1.3-7.3h-37.5l-1.7-7.1s-1.1-2.3-1.6-2.8-5.7-2.5-6.2-3.1c-.5-.6 0-19.8 0-19.8h-11.7z"/><g fill="none" stroke="#000" stroke-miterlimit="10"><path stroke-width="2" d="M144.6 99c-4-.7-6.6-4.6-5.9-8.6l1.3-7.2c.7-4 4.6-6.6 8.6-5.9 4 .7 6.6 4.6 5.9 8.6l-1.3 7.2c-.8 4-4.6 6.7-8.6 5.9z"/><path stroke-width="2" d="M138.2 91.3s5.4.1 7.5 0c2.1-.1 2.8 1.1 4.1 2.5s2.4 1.2 2.4 1.2"/><path stroke-width="2" d="M140.9 97.1l-9.2-2.6 3.2-11.2c3.2-11.2 14.3-10.2 14.3-10.2s9.4 1.8 9.2 13.8-.1 12.1-.1 12.1l-7.5-1.3"/><ellipse transform="rotate(-82.715 147.669 76.836)" stroke-width="2" cx="147.7" cy="76.8" rx="6.7" ry="13.2"/><path stroke-width="2" d="M131.7 94.1H98l-1.9-2.8-4-3.4-1.2 3.1 1.6 2.1-8.6.2v6.2l10.4.2 3.1-1.3 32.5 3.6-2.6 22.2 17.9 4.9L152 102l32.5-3.6 3.1 1.3 10.4-.2v-6.2l-8.6-.2L191 91l-1.2-3.1-4 3.4-1.9 2.8h-25.1m-31.6 30.3v20.3l19.3-10.2-1.3-5.2m-16.1 14.4l11.3 36.7"/><path stroke-width="2" d="M138.3 138.8l2.1 42.6h2.6l2.2-46.2m-4.8 46.2v14.9l8.6-2-6-12.9m-3.2-2.9l-3.6 11.9 3.6 1.8M87 93.3v-7.2h46.5m25.5 0h37v7.5m-58.8-15.4V53.3H149V73"/><path stroke-width="2" d="M149 114v99.5h-11.8v-22m0-4v-17.3M196 99.8v3.8h-44.1m-22.5 0H87.1v-4m.5-3.6h1.6m105 0h-1.6m-55.4 105.8l-10.8-1.8-8.7 4.5-10.3.8-5.2 4-11.8 1.2-10.5 3-2.8 9-12.2 2.3-7 10.5m91.1-33.5l12.6-1.8 7 4 6.3 6.3s8-2.8 8.5-2.8 14.8 2.8 14.8 2.8l4.2 7.3 6.5 2.5 6.8-3.2 15.2 15.5"/><path stroke-width="2" d="M55.7 194l21.8-5.1s7.8 3.7 8.3 3.3 14.5.4 15.7 0c1.2-.4 6.6 2.8 6.6 2.8l8.7 2.5 4.5 5.1"/><path stroke-width="6" d="M86 192.2v-73.1m-19.8 16.1h39.6"/><ellipse transform="rotate(-79.904 85.951 133.286)" stroke-width="7" cx="86" cy="133.3" rx="4" ry="2.8"/><path stroke-width="7" d="M83.1 135.6c-.2 0-13.4-.4-13.4-.4l-1.6-.7m20 1.1c.2 0 13.4-.4 13.4-.4l1.6-.7m-19.2 1.8l-.8 10.7 2.4 5.4-1.6 17 2.1 1.4"/><path stroke-width="2" d="M231.5 194l-21.8-5.1s-7.8 3.7-8.3 3.3-14.5.4-15.7 0c-1.2-.4-6.6 2.8-6.6 2.8l-8.7 2.5-4.5 5.1"/><path stroke-width="6" d="M201.2 192.2v-73.1m19.8 16.1h-39.6"/><ellipse transform="rotate(-10.101 201.238 133.303)" stroke-width="7" cx="201.2" cy="133.3" rx="2.8" ry="4"/><path stroke-width="7" d="M204.1 135.6c.2 0 13.4-.4 13.4-.4l1.6-.7m-20 1.1c-.2 0-13.4-.4-13.4-.4l-1.6-.7m19.2 1.8l.8 10.7-2.4 5.4 1.6 17-2.1 1.4"/></g></svg>