<svg version="1" xmlns="http://www.w3.org/2000/svg" width="288" height="288"><path fill="#27AAE1" d="M130.1 124.8l-.5 18.5 17.2-9.1-1.9-5.3-15.6-4.3"/><g fill="none" stroke="#000" stroke-miterlimit="10"><path stroke-width="2" d="M144.9 98.8c-4-.7-6.6-4.6-5.9-8.6l1.3-7.2c.7-4 4.6-6.6 8.6-5.9 4 .7 6.6 4.6 5.9 8.6l-1.3 7.2c-.8 4-4.7 6.6-8.6 5.9z"/><path stroke-width="2" d="M138.4 91s5.4.1 7.5 0c2.1-.1 2.8 1.1 4.1 2.5s2.4 1.2 2.4 1.2"/><path stroke-width="2" d="M141.2 96.8l-9.2-2.6 3.2-11.2c3.2-11.2 14.3-10.2 14.3-10.2s9.4 1.8 9.2 13.8-.2 12.1-.2 12.1l-7.5-1.3"/><ellipse transform="rotate(-82.715 147.925 76.551)" stroke-width="2" cx="147.9" cy="76.6" rx="6.7" ry="13.2"/><path stroke-width="2" d="M131.9 93.8H98.2L96.4 91l-4-3.4-1.2 3.1 1.6 2.1-8.6.2v6.2l10.4.2 3.1-1.3 32.5 3.6-2.6 22.2 17.9 4.9 6.8-27.1 32.5-3.6 3.1 1.3 10.4-.2V93l-8.6-.2 1.6-2.1-1.2-3.1-4 3.4-1.9 2.8h-25.1m-31.6 30.3v20.3l19.3-10.2-1.4-5.2m-16.1 14.4l11.3 36.7"/><path stroke-width="2" d="M138.6 138.5l2 42.6h2.6l2.3-46.2m-4.9 46.2V196l8.6-2-6-12.9m-3.2-2.9l-3.5 11.9 3.5 1.8M87.9 95.7h1.6m105 0h-1.6m-55.4-17.8V53h11.8v19.7M87.3 93v-7.2h46.5m25.5 0h37v7.5m-.1 6.2v3.8h-44.1m-22.5 0H87.3v-4"/><path stroke-width="2" d="M149.2 113.8v99.5h-11.8v-22m.1-4.1v-17.3"/><path stroke-width="2" d="M137.5 201.5l-10.8-1.8-8.7 4.5-10.3.8-5.2 4-11.8 1.2-10.5 3-2.9 9-12.1 2.3-7 10.5m91-33.5l12.6-1.8 7 4 6.3 6.3s8-2.8 8.5-2.8 14.8 2.8 14.8 2.8l4.2 7.3 6.5 2.5 6.8-3.2 15.2 15.5"/><path stroke-width="2" d="M56 193.7l21.8-5.1s7.8 3.7 8.3 3.3 14.5.4 15.7 0c1.2-.4 6.6 2.8 6.6 2.8l8.7 2.5 4.5 5.1"/><path stroke-width="6" d="M86.2 191.9v-73.1m-19.8 16.1h39.7"/><ellipse transform="rotate(-79.904 86.207 133.002)" stroke-width="7" cx="86.2" cy="133" rx="4" ry="2.8"/><path stroke-width="7" d="M83.3 135.3c-.2 0-13.4-.4-13.4-.4l-1.6-.7m20 1.1c.2 0 13.4-.4 13.4-.4l1.6-.7M84.1 136l-.8 10.7 2.5 5.4-1.7 17 2.1 1.4"/><path stroke-width="2" d="M231.7 193.7l-21.8-5.1s-7.8 3.7-8.3 3.3-14.5.4-15.7 0c-1.2-.4-6.6 2.8-6.6 2.8l-8.7 2.5-4.5 5.1"/><path stroke-width="6" d="M201.5 191.9v-73.1m19.8 16.1h-39.7"/><ellipse transform="rotate(-10.101 201.494 133.02)" stroke-width="7" cx="201.5" cy="133" rx="2.8" ry="4"/><path stroke-width="7" d="M204.4 135.3c.2 0 13.4-.4 13.4-.4l1.6-.7m-20 1.1c-.2 0-13.4-.4-13.4-.4l-1.6-.7m19.2 1.8l.8 10.7-2.4 5.4 1.6 17-2.1 1.4"/></g></svg>