<svg version="1" xmlns="http://www.w3.org/2000/svg" width="288" height="288"><path fill="none" stroke="#000" stroke-width="2" stroke-miterlimit="10" d="M136.1 148s-6.9-19.8 2.8-22.4c10.7-2.9 14.6.1 16.1 19.4m-22.1 3.5l25.8-4s4.9 28-7.4 31.1c-12.4 3.1-16.6-11.6-18.4-27.1z"/><path fill="none" stroke="#000" stroke-width="2" stroke-miterlimit="10" d="M150.3 145.8s-1.5-14.5-6.4-14.1c-4.9.5-4.1 7.1-2.8 15.5m5 12.7c-1.8-.4-3.3-2-3.4-4-.2-2.4 1.7-4.5 4.1-4.7 2.4-.2 4.5 1.7 4.7 4.1.1 1.7-.7 3.2-2.1 4.1"/><path fill="none" stroke="#000" stroke-width="2" stroke-miterlimit="10" d="M145.1 159.6l-.6 8 9.1-1.4-3.4-7.5"/><ellipse fill="none" stroke="#000" stroke-width="2" stroke-miterlimit="10" cx="146.2" cy="144.3" rx="65.2" ry="67"/><path fill="none" stroke="#000" stroke-width="2" stroke-miterlimit="10" d="M99.8 98.2l3.4-.9s1.9.8 2.8.9c.9.2 4.5.2 5.1-.5.6-.6 2-1.7 2.8-1.7.8 0 2.5-.3 3.4 0s3.2-.4 4.5-.1c1.2.3 6 .7 7.3-.1 1.2-.7 4.9-2.4 4.9-2.4h2.8s3.9 1.9 4.6 2.4c.8.5 2.3 3 2 3.7-.3.8-1.2 4-1.2 4l-.2 5.1 1.4.9 4.9-1.7 4.8-2.8 3.9-2.3 5.4-.5 1.1 1.1v2.6l-2.8 3.6.8 2.5 3.6 3.6 1.1 2.5 2 3.2v2.3h-11.9s-.8 3.2-.9 3.9c-.2.6-.3 4.2-.3 4.2s-.6 1.6-1.5 2.4m-6 .8c-1.1.3-2.4.6-2.4.6s-1.7 2-1.7 2.8c0 .8.6 1.7 1.2 3.1.6 1.4 2.3 3.5 1.5 4.1m-10.4-.5c-1.8-1.3-3.9-2.6-3.9-2.6s-1.9-1.4-4.5-1.2-2.5-.3-3.6.6c-1.1.9-1.1 2.5-1.1 2.5l.9 4.3s1.7 3.9 2.2 4.6c.5.8 3.6 5.7 5.6 6 1.1.2 2.2-.2 3.1-.4m24.2-7c1.1.1 2.3.4 2.3.7 0 .5.5 1.4.5 2.8s1.5 4.5 1.9 4.9c.3.5 3.2 3.1 3.9 3.1s4.6 1.4 4.6 1.4l4.5 1.2 1.5 2.6v4.8l-1.1 2.5-1.7 4.3-1.9 4.2s.2 3.1-.2 4.5c-.3 1.4 1.7.5-.6 3.1s-3.9 4.2-4.3 5.1c-.5.9-3.2 4.3-3.2 4.3l-3.1 1.5-4.9.9-3.2-.8-3.1-3.2s-2.6-2.6-2.3-4.9c.3-2.3.5-2.8.6-3.7.2-.9.3-2.3.2-4.9-.2-2.6-.5-4.5-.5-4.5l-.6-2.2-3.6-1.7-.9-.5-3.7-2.6-.2-2.3v-.1"/><path fill="none" stroke="#000" stroke-width="2" stroke-miterlimit="10" d="M137.6 167.4l-4.2-3.1-4.9-2-5.3-.5-7.6-1.7s.5 1.9-1.9-1.2c-2.3-3.1-3.2-4.5-3.2-4.5s-1.1-5.6-1.1-6.5c0-.9-.9-3.7-.9-3.7h-2.3s-2.6-.2-2.8-.7c-.2-.5-1.1-2.8-1.1-2.8l-2.6-5.4v-2.6s-4 0-4 .5 2 3.2 0 3.7-3.1 2.3-3.9 1.4c-.8-.9-3.4-4.8-3.4-4.8s-2.2-3.7-2.2-4.5 1.2-10 1.7-10.2c.5-.2 4.9-2.3 4.9-2.3s2.2-2.8 1.5-3.1-3.7-4.6-3.7-4.6m119.5 22s-4.6.9-5.1 1.3-2.6 4.5-2.6 4.5l-4.2 5.7s-2.6 2.6-2.6 3.6v10.8l2 4.2s1.9 1.4 2.3 2.5c.5 1.1.8 3.9.8 3.9s-.2 3.1 0 3.6 3.7 3.8 3.7 3.8m-25-87.4s1.2 8 1.2 8.7-.3 4.8.9 6.2c1.2 1.4 3.9 2.2 4.5 2.2s1.4.2 2.6 0c1.2-.2 1.9.3 2.8.1.9-.2 3.4-.5 4.2-.5s2.7.1 2.7.1m-44.6 28.1c4.1-.4 7.5 1 7.9 3.3.4 2.5-2.9 5-7.4 5.7-4.5.7-8.4-.8-8.8-3.2-.2-1.2.5-2.5 1.9-3.5"/><ellipse transform="rotate(-8.848 166.702 134.656)" fill="none" stroke="#000" stroke-width="2" stroke-miterlimit="10" cx="166.7" cy="134.7" rx="8.2" ry="4.5"/><ellipse transform="rotate(-12.774 179.151 131.395)" fill="none" stroke="#000" stroke-width="2" stroke-miterlimit="10" cx="179.1" cy="131.4" rx="8.2" ry="4.5"/><ellipse transform="rotate(-12.774 191.98 127.855)" fill="none" stroke="#000" stroke-width="2" stroke-miterlimit="10" cx="192" cy="127.8" rx="8.2" ry="4.5"/><ellipse transform="rotate(-12.774 203.643 124.734)" fill="none" stroke="#000" stroke-width="2" stroke-miterlimit="10" cx="203.6" cy="124.7" rx="8.2" ry="4.5"/><path fill="none" stroke="#000" stroke-width="2" stroke-miterlimit="10" d="M140 136.5c1.7.8 2.7 2 2.7 3.3 0 2.5-3.6 4.6-8.1 4.7-4.5.1-8.2-1.9-8.2-4.4 0-2.4 3.2-4.4 7.4-4.7"/><ellipse transform="matrix(.9998 -.01874 .01874 .9998 -2.6 2.301)" fill="none" stroke="#000" stroke-width="2" stroke-miterlimit="10" cx="121.5" cy="139.9" rx="8.2" ry="4.5"/><ellipse transform="rotate(-87.795 108.363 139.515) scale(1.00004)" fill="none" stroke="#000" stroke-width="2" stroke-miterlimit="10" cx="108.4" cy="139.5" rx="4.5" ry="8.2"/><ellipse transform="rotate(-87.795 95.377 137.712) scale(1.00004)" fill="none" stroke="#000" stroke-width="2" stroke-miterlimit="10" cx="95.4" cy="137.7" rx="4.5" ry="8.2"/><ellipse transform="rotate(-87.795 83.079 135.932) scale(1.00004)" fill="none" stroke="#000" stroke-width="2" stroke-miterlimit="10" cx="83.1" cy="135.9" rx="4.5" ry="8.2"/><path fill="none" stroke="#000" stroke-width="2" stroke-miterlimit="10" d="M147.2 133.7c-1.8 1.3-3.7 1.6-5 .8-2.1-1.4-1.7-5.6.8-9.3 2.5-3.8 6.2-5.7 8.3-4.3 1.7 1.1 1.8 4.2.3 7.3"/><path fill="none" stroke="#000" stroke-width="2" stroke-miterlimit="10" d="M158.2 110c2.1 1.4 1.7 5.6-.8 9.3-2.5 3.8-6.2 5.7-8.3 4.3-2.1-1.4-1.7-5.6.8-9.3 2.5-3.8 6.2-5.7 8.3-4.3z"/><path fill="none" stroke="#000" stroke-width="2" stroke-miterlimit="10" d="M164.9 100c2.1 1.4 1.7 5.6-.8 9.3-2.5 3.8-6.2 5.7-8.3 4.3s-1.7-5.6.8-9.3c2.5-3.8 6.2-5.7 8.3-4.3z"/><path fill="none" stroke="#000" stroke-width="2" stroke-miterlimit="10" d="M172.1 90.1c2.1 1.4 1.7 5.6-.8 9.3-2.5 3.8-6.2 5.7-8.3 4.3-2.1-1.4-1.7-5.6.8-9.3 2.4-3.8 6.2-5.7 8.3-4.3z"/><path fill="none" stroke="#000" stroke-width="2" stroke-miterlimit="10" d="M178.8 80.5c2.1 1.4 1.7 5.6-.8 9.3-2.5 3.8-6.2 5.7-8.3 4.3-2.1-1.4-1.7-5.6.8-9.3 2.4-3.7 6.2-5.7 8.3-4.3zm-39.1 62.4c1.9 1.5 1.5 5.5-.9 9.2-2.5 3.8-6.2 5.7-8.3 4.3-2.1-1.4-1.7-5.6.8-9.3 1.1-1.7 2.5-3 3.9-3.8"/><path fill="none" stroke="#000" stroke-width="2" stroke-miterlimit="10" d="M132 153.5c2.1 1.4 1.7 5.6-.8 9.3-2.5 3.8-6.2 5.7-8.3 4.3-2.1-1.4-1.7-5.6.8-9.3 2.5-3.8 6.2-5.7 8.3-4.3z"/><path fill="none" stroke="#000" stroke-width="2" stroke-miterlimit="10" d="M125 164.3c2.1 1.4 1.7 5.6-.8 9.3-2.5 3.8-6.2 5.7-8.3 4.3-2.1-1.4-1.7-5.6.8-9.3 2.5-3.8 6.2-5.7 8.3-4.3z"/><path fill="none" stroke="#000" stroke-width="2" stroke-miterlimit="10" d="M117.8 174.6c2.1 1.4 1.7 5.6-.8 9.3-2.5 3.8-6.2 5.7-8.3 4.3s-1.7-5.6.8-9.3c2.5-3.8 6.2-5.7 8.3-4.3z"/><path fill="none" stroke="#000" stroke-width="2" stroke-miterlimit="10" d="M110.9 185.6c2.1 1.4 1.7 5.6-.8 9.3-2.5 3.8-6.2 5.7-8.3 4.3-2.1-1.4-1.7-5.6.8-9.3 2.5-3.8 6.2-5.7 8.3-4.3z"/></svg>