<svg version="1" xmlns="http://www.w3.org/2000/svg" width="288" height="288"><path fill="#FFF" d="M158.7 144.5l-3.7.5s2.5-19.8-12.3-20.3-7.7 23.5-7.7 23.5l-2.1 1.7s2.8 28.4 17.4 26.1c14.6-2.2 8.4-31.5 8.4-31.5zm-8.4 1.3l-9.5 1c.2-.8-3.8-15.2 3.2-15.4s6.3 14.4 6.3 14.4z"/><g fill="none" stroke="#000" stroke-width="2" stroke-miterlimit="10"><path d="M136.1 148s-6.9-19.8 2.8-22.4c10.7-2.9 14.6.1 16.1 19.4m-22.1 3.5l25.8-4s4.9 28-7.4 31.1c-12.4 3.1-16.6-11.6-18.4-27.1z"/><path d="M150.3 145.8s-1.5-14.5-6.4-14.1c-4.9.5-4.1 7.1-2.8 15.5m5 12.7c-1.8-.4-3.3-2-3.4-4-.2-2.4 1.7-4.5 4.1-4.7 2.4-.2 4.5 1.7 4.7 4.1.1 1.7-.7 3.2-2.1 4.1"/><path d="M145.1 159.6l-.6 8 9.1-1.4-3.4-7.5m3.5-26.5c4.1-.4 7.5 1 7.9 3.3.4 2.5-2.9 5-7.4 5.7s-8.4-.8-8.8-3.2c-.2-1.2.5-2.5 1.9-3.5"/><ellipse transform="rotate(-8.848 166.693 134.72)" cx="166.7" cy="134.7" rx="8.2" ry="4.5"/><ellipse transform="rotate(-12.774 179.102 131.411)" cx="179.1" cy="131.4" rx="8.2" ry="4.5"/><ellipse transform="rotate(-12.774 191.987 127.797)" cx="192" cy="127.8" rx="8.2" ry="4.5"/><ellipse transform="rotate(-12.774 203.593 124.71)" cx="203.6" cy="124.7" rx="8.2" ry="4.5"/><path d="M140 136.5c1.7.8 2.7 2 2.7 3.3 0 2.5-3.6 4.6-8.1 4.7-4.5.1-8.2-1.9-8.2-4.4 0-2.4 3.2-4.4 7.4-4.7"/><ellipse transform="matrix(.9998 -.01874 .01874 .9998 -2.6 2.301)" cx="121.5" cy="139.9" rx="8.2" ry="4.5"/><ellipse transform="rotate(-87.795 108.355 139.473) scale(1.00004)" cx="108.4" cy="139.5" rx="4.5" ry="8.2"/><ellipse transform="rotate(-87.795 95.371 137.685) scale(1.00004)" cx="95.4" cy="137.7" rx="4.5" ry="8.2"/><ellipse transform="rotate(-87.795 83.053 135.906) scale(1.00004)" cx="83.1" cy="135.9" rx="4.5" ry="8.2"/><path d="M147.2 133.7c-1.8 1.3-3.7 1.6-5 .8-2.1-1.4-1.7-5.6.8-9.3 2.5-3.8 6.2-5.7 8.3-4.3 1.7 1.1 1.8 4.2.3 7.3"/><path d="M158.2 110c2.1 1.4 1.7 5.6-.8 9.3-2.5 3.8-6.2 5.7-8.3 4.3-2.1-1.4-1.7-5.6.8-9.3 2.5-3.8 6.2-5.7 8.3-4.3z"/><path d="M164.9 100c2.1 1.4 1.7 5.6-.8 9.3-2.5 3.8-6.2 5.7-8.3 4.3s-1.7-5.6.8-9.3c2.5-3.8 6.2-5.7 8.3-4.3z"/><path d="M172.1 90.1c2.1 1.4 1.7 5.6-.8 9.3-2.5 3.8-6.2 5.7-8.3 4.3-2.1-1.4-1.7-5.6.8-9.3 2.4-3.8 6.2-5.7 8.3-4.3z"/><path d="M178.8 80.5c2.1 1.4 1.7 5.6-.8 9.3-2.5 3.8-6.2 5.7-8.3 4.3-2.1-1.4-1.7-5.6.8-9.3 2.4-3.7 6.2-5.7 8.3-4.3zm-39.1 62.4c1.9 1.5 1.5 5.5-.9 9.2-2.5 3.8-6.2 5.7-8.3 4.3s-1.7-5.6.8-9.3c1.1-1.7 2.5-3 3.9-3.8"/><path d="M132 153.5c2.1 1.4 1.7 5.6-.8 9.3-2.5 3.8-6.2 5.7-8.3 4.3-2.1-1.4-1.7-5.6.8-9.3 2.5-3.8 6.2-5.7 8.3-4.3z"/><path d="M125 164.3c2.1 1.4 1.7 5.6-.8 9.3-2.5 3.8-6.2 5.7-8.3 4.3-2.1-1.4-1.7-5.6.8-9.3 2.5-3.8 6.2-5.7 8.3-4.3z"/><path d="M117.8 174.6c2.1 1.4 1.7 5.6-.8 9.3-2.5 3.8-6.2 5.7-8.3 4.3s-1.7-5.6.8-9.3c2.5-3.8 6.2-5.7 8.3-4.3z"/><path d="M110.9 185.6c2.1 1.4 1.7 5.6-.8 9.3-2.5 3.8-6.2 5.7-8.3 4.3-2.1-1.4-1.7-5.6.8-9.3 2.5-3.8 6.2-5.7 8.3-4.3z"/></g></svg>