<svg version="1" xmlns="http://www.w3.org/2000/svg" width="288" height="288"><g fill="#27AAE1"><path d="M154.5 39.2s-18 19.7-6.5 38.6c0 0-11.3-8.1-7.5-21.4s11.3-17.3 14-17.2zM136 83.4l-7 54.3 14.8 7.8s-21.1-1.8-21-2.9c.1-1.1 6.2-57.3 6.2-57.3l7-1.9z"/><path d="M128 93.8l-19.8 7.1-4.1 28 2.3-.1 6.3-25.3 16.2-4zM98.9 225.7s38.2-46 25.6-77l.1-3.2 13.7 23s-1.5 30.6-36.5 59.3l14.8 13.1-14.8 3.8-10.7-14.2 6.2-6 1.6 1.2z"/><path d="M133.2 144s32.3 53.4 45.5 85.8l22.8 5.9-9.6 7.8s-21.5-6.4-21.2-6.7c.2-.3 3.7-8 3.7-8l-40.2-68.3-11.5-17.8 10.5 1.3z"/></g><g fill="none" stroke="#000" stroke-width="2" stroke-miterlimit="10"><ellipse transform="rotate(-79.618 153.674 58.894)" cx="153.7" cy="58.9" rx="19.9" ry="13.4"/><path d="M143.7 42s14.9 2.1 22.7 0m-24.8 3.4s15.1 3 26.8 0m-28.2 3.9s17.5 4 28.8 0m-24.4 26l-1.8 7.9 8.2 1.5 1.5-6.7"/><path d="M160.9 88.1s-19.2-9-32-2.8l-6.2 57.3 21 2.9 17.2-57.4z"/><path d="M128.9 85.4l-23.7 9.5-3.4 33.9h4.6l6.4-25.7m-8.7 2.4l23.4-6.5"/><path d="M106.4 128.8l2.9 5.2v5.9h-3.4l-1.8-3-1.6 13.1-5.2-6.7 4.5-14.9m58.1-37.1s5.3 29.3 30.7 30v5.7s-21.3 2.1-35.6-17.8m35.7 12l8.2-2.7 12.2 6.6-6.2 3.3-5.5-1.4 1.5 2.7-4.3.9-5.9-3.6m-68 15.7s42.4 66 52.6 87.9h6.9s-23.4-61.7-38.5-85.1"/><path d="M124.6 145.5s-.8 49.7-27.3 79.1l4.5 3.2s34.5-26.5 36.5-60.6m37 63.4l27.9 1.4-11.9 8.9-16.8-5.2z"/><path d="M97.3 224.6l-6.2 6s9.6 11.5 10.1 11.5 17.9-4 17.9-4l-17.4-10.4"/><ellipse transform="rotate(-76.579 62.74 57.545)" cx="62.7" cy="57.5" rx="18.6" ry="12.9"/><path d="M55.6 74.4L54.5 80l6.3 1.3 1.4-5.6M38 131.8c1.3-12 5.6-51.8 5.6-51.8s17-.4 24.5 4.7l-11.2 53s-12.3-1.6-17.2-2.3M43.6 80L22 96.7l6.5 30.3 5.2-1.2L31.4 99m10.9-6.6l-19 11.8"/><path d="M28.5 127l-1.4 7.9 5 5.4 9-4.2-7.4-10.3M67 89.9l8.3 17.2 17.4-5.3 1.3 4.8-20.6 10.2-9.3-11.3m28.6-3.7v-4l8-5 3.4 4.5s.7.6.8.9"/><path d="M103.7 106.4c-1.2.9-3.5 2.8-3.5 2.8l-6.3-2.6m-39.4 31.1s-4.2 56.8-36.1 86.8l-4.1-2.5s23.8-53.7 23.4-84.1"/><path d="M56.9 137.7s19.5 44.2 23.1 85.2l-5.3 1.6s-19.5-63-22.8-69.6m-38.1 67l-6 5.8s11 10 11.5 10 17.8-.6 17.8-.6l-18.7-12.6m56.3.1v7.7s10-1.2 17.5-2m7.8-8.8c-7.8.6-20 1.5-20 1.5"/><ellipse transform="rotate(-82.478 233.98 58.444)" cx="234" cy="58.4" rx="17.3" ry="12.4"/><path d="M228.2 74.7v5l5.8.7 1-4.4m-19.3 61.7h19.7l9.2-54.6c-12.1-3.9-30-3.1-30-3.1l1.1 57.7zM214.5 80s-12.9 12.7-18.1 39m-1.5 10.1c-.3 3.2-.5 6.6-.6 10.1l4.8 1.1s.8-4.9 2.4-11.4m2.3-7.8c2.5-7.8 6-16 10.7-20.2m-7.2 10.9l-6.5-8.3"/><path d="M194.3 139.2l-4.7 7.1s2.1 6.6 2.4 6.6h11.3l1.8-8.2-6.1-4.5m44.9-53.3s2.1 25.1 24.3 33.6l-1.9 4.8s-16.7.1-25.9-19"/><path d="M268 120.8l4.6-2.9 7.8 2.3-3.1 12-9.7-2.3-1.3-3.9m-50.6 11.7c6.9 45.6-7 92.1-7 92.1l7.9.7c15.5-31.1 18.8-92.9 18.8-92.9"/><path d="M235.7 135.9c11.7 35.7 18.6 95.5 18.6 95.5l-7.5.8s-9.7-50-15.3-58m-14.9 56.4l16.6 4.3-9.9 6-16.9-7.2 2.3-3.9m38.1 2.5v6.5l21 3.3 7.2-9.8-20.7-.8"/></g></svg>