<svg version="1" xmlns="http://www.w3.org/2000/svg" width="288" height="288"><g fill="#27AAE1"><path d="M154.5 39.2s-18 19.7-6.5 38.6c0 0-11.3-8.1-7.5-21.4s11.3-17.3 14-17.2zM136 83.4l-7 54.3 14.8 7.8s-21.1-1.8-21-2.9c.1-1.1 6.2-57.3 6.2-57.3l7-1.9z"/><path d="M128 93.8l-19.8 7.1-4.1 28 2.3-.1 6.3-25.3 16.2-4zM98.9 225.7s38.2-46 25.6-77l.1-3.2 13.7 23s-1.5 30.6-36.5 59.3l14.8 13.1-14.8 3.8-10.7-14.2 6.2-6 1.6 1.2z"/><path d="M133.2 144s32.3 53.4 45.5 85.8l22.8 5.9-9.6 7.8s-21.5-6.4-21.2-6.7c.2-.3 3.7-8 3.7-8l-40.2-68.3-11.5-17.8 10.5 1.3z"/></g><g fill="none" stroke="#000" stroke-width="2" stroke-miterlimit="10"><ellipse transform="rotate(-79.618 153.684 58.87)" cx="153.7" cy="58.9" rx="19.9" ry="13.4"/><path d="M143.7 42s14.9 2.1 22.7 0m-24.8 3.4s15.1 3 26.8 0m-28.2 3.9s17.5 4 28.8 0m-24.4 26l-1.8 7.9 8.2 1.5 1.5-6.7"/><path d="M160.9 88.1s-19.2-9-32-2.8l-6.2 57.3 21 2.9 17.2-57.4z"/><path d="M128.9 85.4l-23.7 9.5-3.4 33.9h4.6l6.4-25.7m-8.7 2.4l23.4-6.5"/><path d="M106.4 128.8l2.9 5.2v5.9h-3.4l-1.8-3-1.6 13.1-5.2-6.7 4.5-14.9m58.1-37.1s5.3 29.3 30.7 30v5.7s-21.3 2.1-35.6-17.8m35.7 12l8.2-2.7 12.2 6.6-6.2 3.3-5.5-1.4 1.5 2.7-4.3.9-5.9-3.6m-68 15.7s42.4 66 52.6 87.9h6.9s-23.4-61.7-38.5-85.1"/><path d="M124.6 145.5s-.8 49.7-27.3 79.1l4.5 3.2s34.5-26.5 36.5-60.6m37 63.4l27.9 1.4-11.9 8.9-16.8-5.2z"/><path d="M97.3 224.6l-6.2 6s9.6 11.5 10.1 11.5 17.9-4 17.9-4l-17.4-10.4"/></g><path fill="none" d="M134.5 41c8 0 16 0 23.9.1-10.3 5.3-21 9.9-31.9 13.6 9.2-.6 18.4-.3 27.5.7-11.2 1.7-22.1 5.2-32.2 10.5 9.5.8 18.9 1.6 28.4 2.5-9.4 2.1-18.8 4.1-28.2 6.2-6.9 1.5-14 3.1-19.9 7.1 13.9-.7 27.8-.1 41.6 1.7-5.2 6.7-14.1 9.1-22.4 10.5-8.3 1.5-17.2 2.6-23.8 7.9 13.8.4 27.7.4 41.5.2-14.4 5.7-29.3 10.1-44.5 13.3 15.9.5 31.8 1.1 47.7 1.6-9.9 3.9-20.2 6.6-30.8 7.8-4.1.5-8.7 1-11.5 4.1 13 3.8 26.7 5.3 40.3 4.5-11.2 5.5-23.3 8.9-35.7 10.2 15.1-.3 30.2 1.8 45.1 4-15.2 3.6-30.4 7.2-45.6 10.7 18.9 3.4 37.7 6.9 56.6 10.3-19.1 6.9-40.8.7-60.2 6.6 21.1 6.6 43.5 9.4 65.6 8.3-20.8 7.5-43.2 8.4-65.3 9.2 23.6.9 47.1 1.8 70.7 2.7-16.9 5.8-35.1 6.5-52.9 6.7-6.8.1-13.7.1-20.1 2.3 25.5 6.7 52.9-2.9 78.7 2-26.8 9.6-56.2 6.9-84.4 10.6 30.6 5 62.2-6.2 92.8-.9-5.4 2.1-11.2 3.3-16.9 4.1-26.9 3.8-55 .7-80.5 10 33.5 10 69.3-.8 104.2-.4-16.6 3.1-33.5 4.7-50.4 4.7-8.4 0-17.1-.3-24.8 3-4.2 1.8-8.2 4.7-12.8 4.9 33.5 8.7 69.4 8 102.5-1.9"/></svg>