<svg version="1" xmlns="http://www.w3.org/2000/svg" width="288" height="288"><g fill="#27AAE1"><path d="M91.2 41.1s-18.5 14.4-5.2 36c0 0-12.3-3.2-9.6-19.6C79 41.2 90.5 41.1 90.5 41.1M74 79.6l-6.5 52.6s14.8 5 14.6 5.4c-.3.5-20.7-2-20.7-2L70 79.4l4 .2z"/><path d="M68 88.5l-21.2 11.9s1.7 24.6 4.8 34.9h1.8l-1-33.8s15.6-7.7 15.4-8.4c-.1-.6.2-4.6.2-4.6zm2 48.3s26.3 47.6 40.8 86.5l17.2 7.6-.8 1.6-7.6.4-2.7.2-2.1 2.2-4.3-.9-1.5-11.1-12.2-25.1-19.1-34.4s-2.1 20-8.7 28.3c-6.5 8.4-10.6 18.7-20.4 27.1l18.5 12.7-10.1 5.6s-19.5-7.6-19.3-8.2 4.1-10.6 4.1-10.6l3 .5s27.3-25.1 20.2-67.9l.5-8.5-4.2-7.2 8.7 1.2z"/></g><g fill="none" stroke="#000" stroke-width="2" stroke-miterlimit="10"><ellipse transform="rotate(-78.93 89.461 59.142)" cx="89.5" cy="59.1" rx="18.3" ry="12.5"/><path d="M80.6 42.9s13.7 3.8 18.7 1.1m-20.8 1.1s14.7 4.5 24 1.8m.7 2.7s-15.4 3.7-25.5-.8M83.1 76l-1 4.6 5.9 1.2 2.5-5"/><path d="M70 79.4s17.3.2 27.3 6.1c0 0-11.3 46.5-15.6 53l-20.2-2.9L70 79.4zm0 0l-28.2 17s1.4 21.3 8.4 39h3.3s-1.2-26-.4-33.8M68 92.4l-24.9 14.8"/><path d="M53.4 135.3l3.6 6.4-1.8 1.5h-1.8l1.2 10.3-6.6-4.1 2.2-14.1zm42.7-45.1s.8 26.8 18.3 35.9l-2.3 3.6s-11.2-1.3-20.9-20.8m23.2 17.2h7.9l11.3 6.5-8.6 2.7-5.7-3.3 1.5 3.3h-4.1l-4.6-5.6zm-53 9.5s43.8 74.3 47.9 88.4l3.9-1s-10.6-51.3-31.5-84.5"/><path d="M64.9 141.7s4 44.4-21.8 77.2l4.9.9s27.2-24.3 29.7-56m-35.8 55.4l-3.1 8.4 18.9 6.7 9.4-5.4-19.1-9.1zm87.9 9.5c-6.5-2.2-15.9-5.4-15.9-5.4l-4.7.7 1.2 10.4s1.8.4 4.3.9"/><path d="M48 203.6l-13.9-4.2-1.6 9.2-9.8 1.8 2.4 8.1-14.8 1.3-3.6 12.1m154.5 6.6l-6.2-5.8-7.9 1.6s-2.3-12.5-2.9-12.7c-.6-.2-8.2-2.4-8.2-2.4l-8.9 13.3-10.3.6-7.6 8.6-14.2-5.1-10.3 6.1m190.4-91.6c-.9 0-37.2-46.3-37.2-46.3l-30.6-1.8s2.4 7.5 3.3 7.4c.9-.1 24.8 4.7 24.8 4.7"/><path d="M209.5 108.9l-4.4 4.5s6.4 27.1 9.4 26.2 27.9-7.3 27.9-7.3l-7-17.3s-.5-.1-1.4-.3m.8 19.6c.9-.2 16.9 34.1 16.9 34.1m-15.3-49.6l-18.3.6m20.6 3.8l-21.5 3.8m23 0c-.4.4-18.3 5.2-18.3 5.2m-8.7-47.5s1.1 7.7 2.6 18.1"/><path d="M220.7 137.6c1.7 12.2 3.1 21.7 3.1 21.7l14.1-8s-1.5-7.2-3.5-17m-6.3-30.4c-2.4-11.9-4.4-21.3-4.4-21.3m-33.4-23.5c.3.2 7 28.7 7 28.7l45.1-9-5.1-31.6-47 11.9zm-44.5 33.3l7.3 25.1 26.6-7.1-3.6-30.1zm29.1 19.2s6.6 58.2 22.3 71m-39.1-66.5s-8.7 45.3 18.5 77.1"/><path d="M176.4 82.8c8-3.6 13.9-6.3 13.9-6.3l1.6 11.4s-6.2 1.9-14.4 4.4m-29.3 9c-6.7 2.1-11.5 3.6-11.5 3.6l-3.1-2.7s5.8-2.6 13.6-6.2m-20.3 13.9l-4 .9s.2 3.9.8 3.9h4.2l-1-4.8zm-5.5 36.9l-3.2 2.9 3.2 5 5.8-3.4zm19.5-9.6l-3.7 2.4 1.8 4.8h4.5zm1.3-16.5l-3.8 1 .6 5.3 6.8 1.4v-6.5zm-56.1 80.9l-3 2.7 1.5 3.9h4.6zm28.3-19l-2.3 1.5s-.7 1.8 0 2.5 3.7 1.4 3.7 1.4l-1.4-5.4z"/></g></svg>