<svg version="1" xmlns="http://www.w3.org/2000/svg" width="288" height="288"><path fill="#27AAE1" d="M159.7 104.5l-23.1 36.6 11.1-1.1h1.2l18.1-28.6-.8-6z"/><g fill="none" stroke="#000" stroke-width="2" stroke-miterlimit="10"><path d="M152.3 95.7h-17c-6.6 0-12-5.4-12-12V48.8c0-6.6 5.4-12 12-12h17c6.6 0 12 5.4 12 12v34.9c0 6.6-5.4 12-12 12z"/><path d="M123.3 68.9s4.8 1.4 10.4 0c5.6-1.4 8.5-4.1 15.5-1.4s15.2.5 15.2.5m-41.1-5.9s-9.2 5 0 10.2m41-11.3s8.5 6 0 10.1"/><path d="M156.6 104.1c7.1-.6 24.1-9.9 24.1-9.9-2.5-5.4-7.8-57.6-12.5-64.1s-24.3-.9-24.3-.9-24.9-5.1-27.6 9.4-7 47.2-10.7 52.4c0 0 9.1 9.2 22.4 13.1"/><path d="M138.1 95.7l.9 8 11.8.4v-8.8"/><path d="M120.1 147.3c1.3-16.6 1.9-31.7 1.1-42.9 0 0 30.9-2.2 45 1 0 0 2.2 16.4 4.9 39.4"/><path d="M121.7 105.4l-70 24.7 4 40 65.7-43.4"/><path d="M51.9 132.6H37.3l-2.2 4.3 6.7 3.7-16.7 7 11.2 8.8 17.4-8m112.5-43l70.1 24.7-4 40-63.4-43.7"/><path d="M236 132.6h14.6l2.3 4.3-6.8 3.7 16.8 7-11.3 8.8-17.3-8m-85.4-8.4c9.9-15.6 18.1-28.6 18.1-28.6l-.8-6s-7.6-1.3-11.5-1.3c0 0-12.2 19.8-22.6 38.3"/></g><path fill="none" d="M146.7 104.5c13.4-.3 26.9 0 40.3.8-16.4.6-32.7 1.7-49 3.4 11.3 1.6 22.8 2.4 34.2 2.1-12.8 0-25.7.7-38.4 2.3.9 1.1 2.5 1.3 4 1.4l30 1.8c-9.5 1-19 1.9-28.5 2.9-1.3.1-2.6.3-3.6 1.1 9.2.5 18.5 1 27.7 1.5-12 .8-24 1.5-35.8 3.8 10.5.7 21 1.3 31.5 1.7-9.8 1.8-19.6 3.2-29.4 4.4 9.4 1.2 18.9 1.7 28.4 1.6-12.2 1-24.3 3.5-36 7.4 10-1.4 20.2-1.9 30.3-1.5"/></svg>