<svg version="1" xmlns="http://www.w3.org/2000/svg" width="288" height="288"><path fill="#27AAE1" d="M153.3 106.5s-19.5 34-30.4 41.5v5.8l9.4-2.7s7.4-7.3 8.8-9.2 15.7-24.6 15.7-24.6v-10.8h-3.5z"/><g fill="none" stroke="#000" stroke-width="2" stroke-miterlimit="10"><path d="M141.3 99.5h-2.7c-6.6 0-12-5.4-12-12v-14c0-6.6 5.4-12 12-12h2.7c6.6 0 12 5.4 12 12v14c0 6.6-5.4 12-12 12z"/><path d="M126.6 83.1s5.3.7 10 0 6.3-.6 8.5.2c2.2.7 8.2-.6 8.2-.6m-26.7-4.1s-6.9 3.2 0 7.1m26.7-7.1s6.4 3.7 0 6"/><path d="M152.3 105.6l12.1-5.3c-1.2-3.4-3.2-19.9-3.2-19.9-.5-14.4-5.2-20.8-10.2-23.5 0 0-7.4-2.6-10.7 0 0 0-9.3-2.8-13.8 1.4-4.2 4.1-8.4 10.1-8.2 24.3 0 0-.4 16.8-1.8 20.5l10.7 2.8"/><path d="M135.8 99.5v5.1h9.1l-.2-5.1"/><path d="M124.4 106.5s16.8-4 32.1 0l2.2 45.3s-28-1-36.5 1.6l2.2-46.9zm0 0s-11.8 5.2-13.1 41.5"/><path d="M119.7 161.1c.1-.6 2.5-13.7 2.5-13.7l-16.6.6 4.9 14.1 9.2-1zm37.1-54.6s11.8 5.2 13.1 41.5"/><path d="M161.5 161.1c-.1-.6-2.5-13.7-2.5-13.7l16.6.6-4.9 14.1-9.2-1zm-48.5.8l-1.1-7.1m3.2 6.8V154m2.8 6.9l.6-6.9m45.2 6.9l-.7-7.4m2.9 7.4l.5-6.9m1.9 7.9l1.6-7.4m-49.6 3.8l-2.4 58.4s33.6 5.3 51.4 0l-8.5-59.3"/><path d="M129.8 218.1l3.3 9h1.9l2.8-8m10.3 0l2.7 8h2.9l1.5-8.2m-23.3 8.2L120 234l10.9 2.6 5.5-9.5zm17.6 0l5.7 11.5 11.3-2.7-11.3-8.8zm1.3-121.7s-13.1 25.9-28.2 40.3M157 117s-16.6 30.9-26.5 35.2m-23 .9c-4.7-.3-8.7-.5-8.7-.5v10l24.1-.7v-8s-.5 0-1.3-.1m52-.6c5.4-.3 10.3-.6 10.3-.6v10s-17.8-.5-22.8-.7m-56.9.6v66.3H123s-.1-4.9-.3-12m.2 12h5.6m6.7 0h15.1m28.3-66.3v66.3h-18.8s.1-4.3.3-10.6m-50.9-55.6v66.2m5.8-66.2l.6 66.2m57.9-66.2v66.2m-5.8-66.2s-.2 22-.4 40.6m-.1 14.1c-.1 6.8-.1 11.5-.1 11.5"/><path d="M178.6 152.9l1.5-76.2c-.4-8.6-14.1-7.1-14.1-7.1s.4-12.3-13.7-17.1c0 0-15.7-3.6-25.8-.2-15.5 5.3-15.1 19-15.1 19-12-.4-14.5 9.1-14.5 9.1l5.5 72.1m2.1 58.2H43.4m136.2 0h77.8M82.3 243.4h121.4"/></g></svg>