<svg version="1" xmlns="http://www.w3.org/2000/svg" width="288" height="288"><path fill="#74C056" d="M192.4 73.8l7.7.5v-6.7l13 1v-8.1l-13 2.6v-6.5l-56.7 6.7-56.7-8v7l-12.6-1.8.8 8.1 11.8-1.8v7.5l7.1-.5v141.3l-7.1-1v7l-12.6-1.8.8 8.2 11.8-1.9v7.5l56.7-3.8 56.7 3.8v-6.6l13 1v-8.2l-13 2.7v-6.6l-7.7.9z"/><path fill="none" d="M49 68.6c65-1 138.2-23.8 202-11.2-28.3 10.4-59.5 9.2-88.9 16.1-29.3 6.9-56.2 21.6-82.5 36.2 38.8-14 81.2-17.8 121.9-10.9-44.2 31.8-104 29.3-155 48.2-4.8 1.8-10.2 4.7-10.8 9.8 56.1 7.9 112-16.9 168.6-15.6 4.9.1 10.9 1.1 12.8 5.7-42.1 25.3-97.9 16-141 39.6-5 2.8-10.4 6.8-10.6 12.6-.4 9 11.4 13 20.5 12.9 48.5-.3 95.7-32.3 142.5-20.1 4.8 1.3 10.6 5 9 9.7-.9 2.5-3.6 3.8-6 4.8-51.2 20-109.1 2.7-163.5 10.1-5 .7-10.1 1.6-14.2 4.6s-6.8 8.4-5.1 13.1c56.6 9 114.4-14.5 171.3-7.2-13.2 14.4-32.6 23-52.1 23.2"/></svg>