<svg version="1" xmlns="http://www.w3.org/2000/svg" width="288" height="288"><path fill="#FFF" d="M192.4 73.8l7.7.5v-6.7l13 1v-8.1l-13 2.6v-6.5l-56.7 6.7-56.7-8v7l-12.6-1.8.8 8.1 11.8-1.8v7.5l7.1-.5v141.3l-7.1-1v7l-12.6-1.8.8 8.2 11.8-1.9v7.5l56.7-3.8 56.7 3.8v-6.6l13 1v-8.2l-13 2.7v-6.6l-7.7.9z"/><g fill="none" stroke="#000" stroke-width="2" stroke-miterlimit="10"><path d="M143.4 63.3l-56.7-8v19l56.7-3.8 56.7 3.8V56.6zM93.8 73.8v141.3m95.9-141.5l2.7 142.7m-49 5.8l-56.7-8v19l56.7-3.8 56.7 3.8v-17.7zM86.7 62.3l-12.6-1.8.8 8.1 11.8-1.8"/><path d="M200.1 63.1l13-2.6v8.1l-13-1M86.7 221.1l-12.6-1.8.8 8.2 11.8-1.9m113.4-3.6l13-2.7v8.2l-13-1"/></g></svg>