<svg version="1" xmlns="http://www.w3.org/2000/svg" width="288" height="288"><path fill="#FFF" stroke="#000" stroke-width="2" stroke-miterlimit="10" d="M138.5 156.1c-4.2-7.4-7.3-13.3-2.9-15.5 2-1 7.8 2.8 9.9 5.6l2.8-3.6c-.1-.1-1.3-3.2-1.7-3.7-6.2-7.6-10.7-7.3-17.6-2.3-8.1 5.9 5.2 21.9 5.2 21.9m-2.9 1.7l22.7-12.8s14.4 24.5 4 31.7-19.6-5.1-26.7-18.9z"/><path fill="none" stroke="#000" stroke-width="2" stroke-miterlimit="10" d="M147.6 166.2c-1.9.2-3.8-.7-4.6-2.5-1-2.2 0-4.8 2.2-5.8s4.8 0 5.8 2.2c.7 1.5.4 3.3-.5 4.5"/><path fill="none" stroke="#000" stroke-width="2" stroke-miterlimit="10" d="M146.6 166.2l2.2 7.7 8.1-4.5-5.9-5.8"/><ellipse fill="none" stroke="#000" stroke-width="2" stroke-miterlimit="10" cx="145.5" cy="150.5" rx="65.2" ry="67"/><path fill="none" stroke="#000" stroke-width="2" stroke-miterlimit="10" d="M99 104.4l3.4-.9s1.9.8 2.8.9c.9.2 4.5.2 5.1-.5s2-1.7 2.8-1.7 2.5-.3 3.4 0 3.2-.4 4.5-.1c1.2.3 6 .7 7.3-.1 1.3-.8 4.9-2.4 4.9-2.4h2.8s3.9 1.9 4.6 2.4c.8.5 2.3 3 2 3.7-.3.8-1.2 4-1.2 4l-.2 5.1 1.4.9 4.9-1.7 4.8-2.8 3.9-2.3 5.4-.5 1.1 1.1v2.6l-2.8 3.6.8 2.5 3.6 3.6 1.1 2.5 2 3.2v2.3h-12s-.8 3.2-.9 3.9-.3 4.2-.3 4.2-.9 2.5-2.2 2.8c-1.2.3-3.6 0-3.6 0s-.4.1-.9.2m-20.4 6.5h-.4c-2.6.2-2.5-.3-3.6.6-1.1.9-1.1 2.5-1.1 2.5l.9 4.3s1.7 3.9 2.2 4.6c.5.8 3.6 5.7 5.6 6 1.1.2 2.4-.3 3.3-.5"/><path fill="none" stroke="#000" stroke-width="2" stroke-miterlimit="10" d="M158.9 158.2c.8.1 1.4.3 1.4.6 0 .5.5 1.4.5 2.8s1.5 4.5 1.9 4.9c.3.5 3.2 3.1 3.9 3.1s4.6 1.4 4.6 1.4l4.5 1.2 1.5 2.6v4.8l-1.1 2.5-1.7 4.3-1.9 4.2s.2 3.1-.2 4.5c-.3 1.4 1.7.5-.6 3.1s-3.9 4.2-4.3 5.1c-.5.9-3.2 4.3-3.2 4.3l-3.1 1.5-4.9.9-3.2-.8-3.1-3.2s-2.6-2.6-2.3-4.9c.3-2.3.5-2.8.6-3.7.2-.9.3-2.3.2-4.9s-.5-4.5-.5-4.5l-.6-2.2-3.6-1.7-.9-.5-3.7-2.6-.2-2.3-.7-2.5-1.2-2.6-4.2-3.1-4.9-2-5.3-.5-7.6-1.7s.5 1.9-1.9-1.2-3.2-4.5-3.2-4.5-1.1-5.6-1.1-6.5-.9-3.7-.9-3.7h-2.3s-2.6-.2-2.8-.7c-.2-.5-1.1-2.8-1.1-2.8l-2.6-5.4v-2.6s-4 0-4 .5 2 3.2 0 3.7-3.1 2.3-3.9 1.4c-.8-.9-3.4-4.8-3.4-4.8s-2.2-3.7-2.2-4.5 1.2-10 1.7-10.2 4.9-2.3 4.9-2.3 2.2-2.8 1.5-3.1S90 115 90 115m119.3 21.8s-4.6 1.2-5 1.7c-.5.5-2.6 4.5-2.6 4.5l-4.2 5.7s-2.6 2.6-2.6 3.6v10.8l2 4.2s1.9 1.4 2.3 2.5c.5 1.1.8 3.9.8 3.9s-.2 3.1 0 3.6 3.7 3.8 3.7 3.8m-25.1-87.5s1.2 8 1.2 8.7-.3 4.8.9 6.2 3.9 2.2 4.5 2.2 1.4.2 2.6 0c1.2-.2 1.9.3 2.8.1.9-.2 3.4-.5 4.2-.5s2.7.1 2.7.1M167 134.3c4.1-.4 7.5 1 7.9 3.3.4 2.5-2.9 5-7.4 5.7s-8.4-.8-8.8-3.2c-.2-1.2.5-2.5 1.9-3.5"/><ellipse transform="rotate(-8.848 179.986 136.813)" fill="none" stroke="#000" stroke-width="2" stroke-miterlimit="10" cx="180" cy="136.8" rx="8.2" ry="4.5"/><ellipse transform="rotate(-12.774 192.392 133.5)" fill="none" stroke="#000" stroke-width="2" stroke-miterlimit="10" cx="192.4" cy="133.5" rx="8.2" ry="4.5"/><path fill="none" stroke="#000" stroke-width="2" stroke-miterlimit="10" d="M211.7 131.6c-1.3 1.2-3.2 2.2-5.5 2.8-4.4 1-8.4-.2-9-2.6s2.6-5.2 7-6.2c1.6-.4 3.1-.4 4.4-.3m16.6 7.5c3.1 1 5.2 2.9 5 4.8-.3 2.5-4.1 4.1-8.6 3.7-4.2-.4-7.4-2.5-7.6-4.8m-100.5-8.1c1.7.8 2.7 2 2.7 3.3 0 2.5-3.6 4.6-8.1 4.7-4.5.1-8.2-1.9-8.2-4.4 0-2.4 3.2-4.4 7.4-4.7"/><ellipse transform="matrix(.9998 -.01874 .01874 .9998 -2.455 1.803)" fill="none" stroke="#000" stroke-width="2" stroke-miterlimit="10" cx="95" cy="131.9" rx="8.2" ry="4.5"/><ellipse transform="rotate(-87.795 81.848 131.432) scale(1.00004)" fill="none" stroke="#000" stroke-width="2" stroke-miterlimit="10" cx="81.8" cy="131.4" rx="4.5" ry="8.2"/><ellipse transform="rotate(-87.795 68.864 129.645) scale(1.00004)" fill="none" stroke="#000" stroke-width="2" stroke-miterlimit="10" cx="68.9" cy="129.6" rx="4.5" ry="8.2"/><path fill="none" stroke="#000" stroke-width="2" stroke-miterlimit="10" d="M67.2 111.3c3.3 2.9 4.7 6.6 3.1 8.5s-5.7 1.1-9.2-1.7c-3.5-2.9-5-6.8-3.4-8.7.3-.4.7-.6 1.2-.8m108.7-4.4c-1.8 1.3-3.7 1.6-5 .8-2.1-1.4-1.7-5.6.8-9.3 2.5-3.8 6.2-5.7 8.3-4.3 1.7 1.1 1.8 4.2.3 7.3"/><path fill="none" stroke="#000" stroke-width="2" stroke-miterlimit="10" d="M178.5 80.5c2.1 1.4 1.7 5.6-.8 9.3-2.5 3.8-6.2 5.7-8.3 4.3-2.1-1.4-1.7-5.6.8-9.3 2.5-3.8 6.2-5.7 8.3-4.3z"/><path fill="none" stroke="#000" stroke-width="2" stroke-miterlimit="10" d="M182.9 81.8c-2.3 2.4-5.1 3.4-6.7 2.3-2.1-1.4-1.7-5.6.8-9.3 1.3-1.9 2.9-3.4 4.4-4.1m18.4 18.5c-1.7-.1-3.7-.6-5.6-1.8-3.9-2.3-6.1-5.9-4.8-8s5.4-2.1 9.4.2c.1.1.3.2.4.2m-74.4 96.6c1.4 2-.1 5.7-3.5 8.5-3.5 2.9-7.6 3.7-9.2 1.7-1.6-1.9-.1-5.8 3.4-8.7 1.6-1.3 3.3-2.2 4.8-2.6"/><path fill="none" stroke="#000" stroke-width="2" stroke-miterlimit="10" d="M115.8 186.7c.9 2.4-1.8 5.5-6.1 7.1-4.2 1.6-8.4.9-9.3-1.4-.9-2.4 1.8-5.5 6.1-7.1 4.3-1.6 8.4-1 9.3 1.4z"/><path fill="none" stroke="#000" stroke-width="2" stroke-miterlimit="10" d="M104.7 192.7c1.6 1.9.1 5.8-3.4 8.7s-7.6 3.7-9.2 1.7c-1.6-1.9-.1-5.8 3.4-8.7s7.6-3.7 9.2-1.7z"/><path fill="none" stroke="#000" stroke-width="2" stroke-miterlimit="10" d="M85.1 202.8c.2-.2.4-.3.6-.5 3.5-2.9 7.6-3.7 9.2-1.7 1.5 1.8.2 5.4-2.8 8.2M78.4 198c-4.2-1.1-7.2-3.8-6.6-6.1.5-2.4 4.6-3.6 9-2.6s7.5 3.8 7 6.2c-.1.5-.3.9-.7 1.3"/></svg>