<svg version="1" xmlns="http://www.w3.org/2000/svg" width="297.4" height="297.4"><ellipse transform="rotate(-76.579 155.163 68.383)" fill="none" stroke="#010101" stroke-width="2" stroke-miterlimit="10" cx="155.2" cy="68.4" rx="18.6" ry="12.9"/><path fill="none" stroke="#010101" stroke-width="2" stroke-miterlimit="10" d="M148.1 85.2l-1.1 5.6 6.3 1.3 1.4-5.6m-24.2 56.1c1.3-12 5.6-51.8 5.6-51.8s17-.4 24.5 4.7l-11.2 53s-12.3-1.6-17.2-2.3m3.9-55.4l-21.6 16.7 6.5 30.3 5.2-1.2-2.3-26.8m10.9-6.6l-19 11.8"/><path fill="none" stroke="#010101" stroke-width="2" stroke-miterlimit="10" d="M121 137.8l-1.4 7.9 5 5.4 9-4.2-7.4-10.3m33.3-35.9l8.3 17.2 17.4-5.3 1.3 4.8-20.6 10.2-9.3-11.3m28.6-3.7v-4l8-5 3.4 4.5s3.3 5.7 3.4 6m0 .1c-1.2.9-7.3 5.9-7.3 5.9l-6.3-2.6m-39.4 31s-4.2 56.8-36.1 86.8l-4.1-2.5s23.8-53.7 23.4-84.1"/><path fill="none" stroke="#010101" stroke-width="2" stroke-miterlimit="10" d="M149.4 148.5s19.5 44.2 23.1 85.2l-5.3 1.6s-19.5-63-22.8-69.6m-38.1 67l-6 5.8s11 10 11.5 10 17.8-.6 17.8-.6l-18.7-12.6m56.3.1v7.7s10-1.2 17.5-2l8.5-.5-.7-8.3c-7.8.6-20 1.5-20 1.5"/></svg>