<svg version="1" xmlns="http://www.w3.org/2000/svg" width="288" height="288"><path fill="none" stroke="#000" stroke-width="2" stroke-miterlimit="10" d="M155.3 140.7h20.4s-2.9-71.4-30.7-69.4-30.7 30.4-31.9 69.4h13.4m-78 84H90s5.4-74.9-18.1-74.9c-23.4 0-25.9 28.4-23.4 74.9zm145.4 0h41.5s5.4-74.9-18.1-74.9c-23.4 0-25.9 28.4-23.4 74.9zM69.2 150v74.7m-21.4-37.4h42m55.2-116v59m-27.1-34.4h50.2m46.2 54.1v74.7m-21.5-37.4h42.1M102.7 63.2l-36.3 71.3m46.7-71.3l-29.6 82.3m32.6-72.7l-13.4 58.9m71.6-58.9l13.4 58.9m-10.4-68.5l29.7 82.3m-19.3-82.3l36.4 71.3"/></svg>