<svg version="1" xmlns="http://www.w3.org/2000/svg" width="288" height="288"><g fill="#61BDEB"><path d="M85.8 174.5v-24.7l2.1-8.1-4.7-3.6-5 .5v-.1.1L75 137l-2.5 15.9 2.5-18.1c-.2-.8-.5-1.6-.8-2.4l.4.3c4-1.9 7.6-5.8 9.6-11 3.5-9.2.6-18.9-6.5-21.6s-15.8 2.5-19.3 11.7c-1.3 3.1-1.7 6.4-1.5 9.4l.1.1c-4.3.1-7.5 1.3-7.5 1.3-18 17.2-29.7 64-29.7 64 .6.5 1.2.9 1.8 1.3l1 .3-13.8 25.3 20.2 6.2c.2-2.8-.3-14.8 2.7-14.8 1 0 1.9.5 2.9.7 1.2.2 2.4-.1 3.6-.1 4.8.1 1.5 6.3.8 9.1-.6 2.3-1.2 4.7-1.8 7l19 2.2-1.9-17.1 32.8-9.7c-.1-3.8-16.5-27.2-16.9-27.8l1.9-13.8c.9 1.2 13.7 19.1 13.7 19.1zm126.9-19.1l1.9 13.8c-.4.6-16.8 24-16.9 27.8l32.8 9.7-1.9 17.1 19-2.2c-.6-2.3-1.2-4.7-1.8-7-.7-2.8-4-9 .8-9.1 1.2 0 2.4.3 3.6.1 1-.2 1.9-.7 2.9-.7 3 0 2.5 12 2.7 14.8l20.2-6.2-13.8-25.3 1-.3c.6-.4 1.2-.8 1.8-1.3 0 0-11.7-46.8-29.7-64 0 0-3.3-1.2-7.5-1.3l.1-.1c.2-3-.2-6.3-1.5-9.4-3.5-9.2-12.2-14.4-19.3-11.7-7.1 2.7-10 12.4-6.5 21.6 2 5.2 5.6 9.1 9.6 11l.4-.3c-.3.8-.6 1.5-.8 2.4l2.5 18.1-2.5-15.9-3.2 1.6v-.1.1l-5-.5-4.7 3.6 2.1 8.1v24.7s12.8-17.9 13.7-19.1zM105.5 84.9c.3-.2 3.8-7.9 3.8-7.9l-2-2.9-2.9 1.8 1.9-12.7-9.9 2.9 3.6 19.3-.7 25 20.7 25.9 2.2-15-13.8-14.9-2.9-21.5z"/><path d="M183.1 66.1l-9.9-2.9 1.9 12.7-2.9-1.8-2 2.9s3.5 7.7 3.8 7.9l-2.9 21.5-13.7 14.7c-1.6-1-3.4-1.8-5.2-2.3 1.1-2.5 1.7-5.4 1.7-8.5 0-9.2-5.7-16.6-12.7-16.6s-12.7 7.5-12.7 16.6c0 3.1.7 6 1.8 8.5-4.9 1.1-8.2 2.5-8.2 2.5l-7.6 73.3c1.7.8 3.7 1.4 5.8 1.9h.4l-6.2 20.9 19 2.3-2-22c5.2.2 10.6-.1 15.5-.5l-15.5.5-.1-1.3 15.7-.2 1 23.6 15.9-3.2-6.7-20.5h.3c4.4-.7 8.2-1.4 8.2-1.4l-6.5-59.7.2 1.4 20.6-25.9-.7-25h.1l3.6-19.4z"/></g><path fill="none" d="M38.3 61c50.9 2.2 101.7 4.3 152.6 6.5 28.2 1.2 56.7 2.4 83.8 9.3-6.5 3.1-14.2 3.3-21.6 3.5l-143.6 2.4c-24.2.4-48.9.9-71.9 7.5-2.6.8-5.7 2.5-4.8 4.8 23.7 6.6 49.2 3.5 74 3.4 41-.2 82.1 7.7 122.8 3.5 11-1.1 22.6-3.1 32.9.4 2.1.7 4.1 1.7 5.1 3.5 1.5 2.7-.2 6.1-3 7.8-2.8 1.7-6.3 2.1-9.6 2.4-56.1 5-84.3 10.7-140.4 12.3-18.2.5-62.2-6.8-89.7.1-1.2 3.7 3.6 6.6 7.6 8 36.1 12.4 75.6 14.3 114.3 13.4 38.7-.9 77.3-4.5 115.9-2.5 1.2.1 2.6.2 3.5.9 1.5 1.2.9 3.6-.7 4.7-1.5 1.1-3.6 1.4-5.6 1.6-72.1 8-144.9 7.5-217.4 11.4-10.7.6-21.9 1.4-31.2 6.2-.9.4-1.8 1-2.1 1.8-1 2.2 2.4 3.9 5 4.4 45.2 8.9 92.1 5.1 138.3 3 48.1-2.2 96.2-2.5 144.3-2.8 1.6 4.7 2.4 9.6 2.4 14.5 0 1.5-.1 3-1 4.2-1 1.3-2.9 2-4.7 2.4-16.3 4.4-33.8 4.1-50.8 3.7-79.7-1.7-159.4-2.1-239.1-2.5-2.1 0-4.3 0-6.2.9s-3.1 3-2.2 4.7c.8 1.5 2.8 2 4.7 2.4 74.6 15.1 152.3 3.6 228.6-.7 16.2-.9 32.9-1.4 48.3 3.2.9 2.8-2.7 5.1-5.8 6.1-8.4 2.7-17.3 4-26.1 5-20.3 2.3-40.7 3.2-61.1 4-59.6 2.5-119.4 4.9-179 1.7"/></svg>