<svg version="1" xmlns="http://www.w3.org/2000/svg" width="288" height="288"><path fill="none" stroke="#000" stroke-width="4" stroke-miterlimit="10" d="M56.9 121.2c-.2-3 .2-6.3 1.5-9.4 3.5-9.2 12.2-14.4 19.3-11.7 7.1 2.7 10 12.4 6.5 21.6-2 5.2-5.6 9.1-9.6 11"/><path fill="none" stroke="#000" stroke-width="4" stroke-miterlimit="10" d="M21.6 187.9c-.6-.4-1.2-.8-1.8-1.3 0 0 11.7-46.8 29.7-64 0 0 19.8-7.3 25.5 12.2l-8.3 59.6s-5.6 2.1-13.9 2.4"/><path fill="none" stroke="#000" stroke-width="4" stroke-miterlimit="10" d="M31.5 188.6l-7.5-3.1-15.2 28 20.2 6.2zm12.2 7.8c-4.1-.6-8.6-1.7-13.2-3.6"/><path fill="none" stroke="#000" stroke-width="4" stroke-miterlimit="10" d="M44.4 193.3l8.5.7 3.3 29.7-19-2.2zm-14.2 11.4l10.2 1.9"/><path fill="none" stroke="#000" stroke-width="4" stroke-miterlimit="10" d="M70.2 169.1s16.8 24 16.9 27.8l-32.8 9.7m17.8-51.3c.5.8 13.7 19.2 13.7 19.2v-24.7l2.1-8.1-4.7-3.6-5 .5L75 137m-.5 2.2l11.3 18.6"/><path fill="none" stroke="#000" stroke-width="4" stroke-miterlimit="10" d="M78.2 138.5l.1 6.4 4.4 2.3m48-27.7c-1.3-2.6-2.1-5.8-2.1-9.2 0-9.1 5.7-16.6 12.7-16.6s12.7 7.4 12.7 16.6c0 3.5-.8 6.7-2.2 9.4"/><path fill="none" stroke="#000" stroke-width="4" stroke-miterlimit="10" d="M120.4 196.5c-2.1-.5-4.1-1.1-5.8-1.9l7.6-73.3s21.5-8.9 35.6 0l8 73.3s-3.8.7-8.2 1.4"/><path fill="none" stroke="#000" stroke-width="4" stroke-miterlimit="10" d="M122.7 190.3l8.3 1.3 2.6 28.1-19-2.3zm24.4 6.9c-5 .4-10.4.7-15.7.5m15.5-7.4l1.2 29.4 15.9-3.2-8.6-26.2zm-24.7-69l-13.8-14.9-3-22-5.4.9-.7 25.1 20.7 25.9"/><path fill="none" stroke="#000" stroke-width="4" stroke-miterlimit="10" d="M105.5 84.9c.3-.2 3.8-7.9 3.8-7.9l-2-2.9-2.9 1.8 1.9-12.7-9.9 2.9 3.6 19.3m57.2 35.9l13.9-14.9 3-22 5.3.9.7 25.1-20.6 25.9"/><path fill="none" stroke="#000" stroke-width="4" stroke-miterlimit="10" d="M174 84.9c-.3-.2-3.8-7.9-3.8-7.9l2-2.9 2.9 1.8-1.9-12.7 9.9 2.9-3.6 19.3m47.8 35.8c.2-3-.2-6.3-1.5-9.4-3.5-9.2-12.2-14.4-19.3-11.7s-10 12.4-6.5 21.6c2 5.2 5.6 9.1 9.6 11"/><path fill="none" stroke="#000" stroke-width="4" stroke-miterlimit="10" d="M262.6 187.9c.6-.4 1.2-.8 1.8-1.3 0 0-11.7-46.8-29.7-64 0 0-19.8-7.3-25.5 12.2l8.3 59.6s5.6 2.1 13.9 2.4"/><path fill="none" stroke="#000" stroke-width="4" stroke-miterlimit="10" d="M239.8 193.3l-8.4.7-3.4 29.7 19-2.2zm.7 3.1c4.1-.6 8.6-1.7 13.2-3.6"/><path fill="none" stroke="#000" stroke-width="4" stroke-miterlimit="10" d="M252.7 188.6l7.6-3.1 15.2 28-20.3 6.2zm1.3 16.1l-10.1 1.9M214 169.1s-16.8 24-16.9 27.8l32.8 9.7m-17.8-51.3c-.5.8-13.7 19.2-13.7 19.2v-24.7l-2.1-8.1 4.7-3.6 5 .5 3.2-1.6m.6 2.2l-11.3 18.6"/><path fill="none" stroke="#000" stroke-width="4" stroke-miterlimit="10" d="M206.1 138.5l-.2 6.4-4.3 2.3"/></svg>