<svg data-name="Layer 1" xmlns="http://www.w3.org/2000/svg" viewBox="0 0 380.3 433.82"><ellipse cx="147.09" cy="153.05" rx="19.33" ry="29.09" fill="none" stroke="#231f20" stroke-miterlimit="10" stroke-width="2.79"/><ellipse cx="333.85" cy="206.16" rx="19.33" ry="29.09" transform="rotate(-9.77 -131.493 743.534)" fill="none" stroke="#231f20" stroke-miterlimit="10" stroke-width="2.79"/><path d="M181.42 219.9s16.67-13.61 7-33.36-12-46.55-12.66-52.48-3.92-26.68-27.63-27-31.3 18.1-31.51 33.57-38.53 37.49-29.2 67.65m50.07-29.99v16.51m17.07-14.92v16m79.27-32.93l2.1 16.07m12.05-19l7.29 14.84" fill="none" stroke="#231f20" stroke-miterlimit="10" stroke-width="2.79"/><path fill="none" stroke="#231f20" stroke-miterlimit="10" stroke-width="2.79" d="M120.21 208.31V194.8l38.02 1.2m83.11 88.05c-1.12-4.37-24.58-100.91-24.58-100.91l57.31-12.34s10.24 62.7 13.82 91.42M120.21 194.8l-7.16 10.44m54.25-5.47l34.63 49.36 12.83 35.34 7 6.33 4 20.5-10.39 3.75-4.28-15.92-7-1 .67-13.66-14.67-31.34-25.98-25.33-2.02 40m55.79-80.27c.15.62-3.52 65.09-5 91.21m18.96-33.57l-4.66 39.3m66.91 0l20-50.32-40-63.34"/><path d="M282.31 277.53l14.76-40.39s-10.45-14.7-16.43-24.92m9.07 70.46s-5.29 18.12-5.52 19.79H273.8l-3.27-23.67 19.89-1.27 3.67 6.94m-104-31.33l11.84-4m13.13 1.19l15.57 5.13m66.46-18.31l17-3m-182.59-7.79l-8.43-16.81-28.5-12.25 7.75 21.25s16.08 11.64 17.42 11.25" fill="none" stroke="#231f20" stroke-miterlimit="10" stroke-width="2.79"/><path d="M174.9 421.23c-.98-17.54-3.83-58.43-3.83-58.43l-32.67-45.67-5.33-52.66H95.42l-2.66-10.34 27-24.33 19.31-5.67 4.35-17.33 24.65-18-2 27.67-13.67 14.66 9.67 36.67 23 16.67h20.33m9.02 0h58m16.65 0h11l11 27-9 45.33 7.3 48.93M195.49 421.8l-.4-56.33 44.33 5.33 37.65-5.33 13.08 46.16m-22.14-44.83l10.53 52.36m-67.95-51.83l-5.41 58.66" fill="none" stroke="#231f20" stroke-miterlimit="10" stroke-width="2.79"/><path fill="none" stroke="#231f20" stroke-miterlimit="10" stroke-width="2.79" d="M301.54 288.03l9.55 1.77 9 18.17-12.28 20.04M10.07 216.8c.33-1.67 8.33-15.25 8.33-15.25s4.67 15.58 6 15.25 15.42-19.5 15.42-19.5l1.92 23.83 9-7.58s8.67 17.6 9 16.26 6.51-16.22 6.51-16.22l11 17.54 4.2-14 7.23 8.67m-54.74 76.42l-4.01-17.67 16.34 8.83-2-27.5 19.36 20.67 11.31-14.33 4.64 17.56 9.36-7.9 7 15 6-14.33 9.11 14.67m-72.57 83.91l-9-38.33 27 29-2.66-54 25.16 47.66 9.84-28.66 10 30.33 8.33-15.33 6.67 19 9.27-16 6.73 17.33m173.75-166.89l5-11.79 8.71 10.93.76-24.5 12.26 17.42 5.1-15.17 9.67 15.17 7.91-15.17 9.22 19.43m-48.11 77.18l14.66-25.84 4.13 28.4 7.97-14.2 4.72 16.95 8.07-15.58 8.56 15.58m-49.43 86.25l5.27-29.5 6.92 24.67 15.89-42.67 4.72 35 8.07-12.33L360 360.8l9.07-14.25 4.5 16.25M1.39 420.13v-13l12 9 1.68-14.33 12.34 9.17 6.31-14.17 8 15.33 5-11 15 14.67v-13.33l12.87 10.33 10.13-16 7 20s12-14 11.67-12.67 7.68 19.34 7.68 19.34l9-11.34 13.65 18.67 10-11 7.67 11 5.68-13 9.67 13 4.1-13s10.57 9 11.57 9.33 7.4-10.33 7.4-10.33l13.41 12 8.85-11.33s8.32 14.33 9.32 13.33 9-14.33 9-14.33l12.68 12.66 3.77-13.33 9.55 7.67 3.11-14 18.55 14 1.67-18.18s15.67 9.89 15.67 8.53 2.33-19.35 2.33-19.35l11.35 12.66 10.67-14.66 3 16.33 12.67-14.33 5 15.66 13-17.66 6 12.82 11-10.82 8.66 17.19M90.64 8.58S69.98 13.91 51.29 26.8m30.91-6.47S50.68 31.57 39.84 43.42m31.95-9.22s-34 16.86-43 28m32.45-10.88s-25.9 15.65-35.16 28m31.27-15.7S30.72 86.8 19.07 100.48m35-23.42s-19.53 26.24-28.68 54m36.39-53.91s-11.32 32.76-13 45.89m21.71-62.15s-6.47 35.76-3.35 49.75m10.74-59.76s-.51 37.27.29 43.05m9.34-55.87s-1.83 29-.48 38.4m6.67-53.19s.21 27.16 1.91 36.28m3.01-45.57s2.66 17.65 5.9 28.33m55.41-41.18s-20.09 14.33-24.71 22.4m19.7-10.31s-15 12.72-19.7 21.6m18.47-13.3s-14.72 17.61-20.79 27.62m20.09-18.65s-9.85 18.86-12.87 37.6m17.8-38.29s-3.89 22.21-3.63 30.82m7.55-42.21s-.46 23.63 3 32.3m.72-39.49s3.52 24 4.62 27.62m.24-36.85s1.82 18.81 3.65 24.71m37.57-24.71s-1.82 18.81-3.65 24.71m8.51-15.48s-3.52 24-4.62 27.62m8.34-20.43s.46 23.63-3 32.3m6.92-20.91s3.89 22.21 3.63 30.82m1.3-30.13s9.85 18.86 12.87 37.6m-13.57-46.57s14.72 17.61 20.79 27.62m-22.02-35.92s15 12.72 19.7 21.6M222.13 1.13s20.09 14.33 24.71 22.4m33.6-9.55s-2.67 17.65-5.9 28.33m10.82-19.04s-.21 27.16-1.91 36.28m8.1-21.49s1.83 29 .47 38.4m9.16-25.58s.5 37.27-.3 43.05m7.69-33.04s6.46 35.76 3.35 49.75m5.36-33.49s11.32 32.76 13 45.89m-5.32-45.98s19.53 26.24 28.68 54m-31.93-67.44s26.62 23.15 38.28 36.86m-42.17-49.16s25.9 15.65 35.15 28m-45.7-45.12s34 16.86 43 28m-53.41-41.87s31.52 11.24 42.36 23.09m-50.8-34.84s20.65 5.33 39.35 18.22"/><path d="M110.39 126.14a32.12 32.12 0 01-4.22-18c1.23-19.41 20-34 41.86-32.66s38.65 18.24 37.43 37.65a31.69 31.69 0 01-3.47 12.54m-75.64-11.71l12.38-.2m-10.86-13.94l12.9 7.43m-5.87-19.08l10.15 11.38m-.57-18.86l8.05 14.63m3.32-18.88l3.72 15.6m9.73.62l1.06-16.92m7.99 17.49l6.46-13.24m1.31 18.53l10.82-9.29m-4.88 19.54l12.33-2.52m16.81 32.61a32.06 32.06 0 01-7.4-16.88c-2.31-19.32 13.47-37.09 35.25-39.7s41.31 10.93 43.63 30.24a31.64 31.64 0 01-1.14 13m-76.52 2.1l12.14-2.43m-13.21-11.75l14.04 4.97m-9.23-17.7l12.04 9.35m-3.97-18.44l10.56 12.92m-.16-19.16l6.49 14.67m9.68-1.16l-2.02-16.82m11.03 15.74l3.95-14.19m4.64 17.99l8.96-11.1m-1.26 20.1l11.67-4.7" fill="none" stroke="#231f20" stroke-miterlimit="10" stroke-width="2.59"/></svg>