<svg version="1" xmlns="http://www.w3.org/2000/svg" width="380.3" height="433.8"><ellipse fill="none" stroke="#231F20" stroke-width="2.79" stroke-miterlimit="10" cx="147.1" cy="153.1" rx="19.3" ry="29.1"/><ellipse transform="rotate(-9.769 235.906 134.978)" fill="none" stroke="#231F20" stroke-width="2.79" stroke-miterlimit="10" cx="235.9" cy="135" rx="19.3" ry="29.1"/><path fill="none" stroke="#231F20" stroke-width="2.79" stroke-miterlimit="10" d="M181.4 219.9s16.7-13.6 7-33.4-12-46.6-12.7-52.5-3.9-26.7-27.6-27-31.3 18.1-31.5 33.6-38.5 37.5-29.2 67.6m50.1-29.9v16.5m17.1-14.9v16m79.2-33l2.1 16.1m12.1-19l7.3 14.9"/><path fill="none" stroke="#231F20" stroke-width="2.79" stroke-miterlimit="10" d="M120.2 208.3v-13.5l38 1.2m83.1 88c-1.1-4.4-24.6-100.9-24.6-100.9l57.3-12.3s10.2 62.7 13.8 91.4m-167.6-67.4l-7.1 10.4m54.2-5.4l34.6 49.3 12.9 35.4 7 6.3 4 20.5-10.4 3.7-4.3-15.9-7-1 .7-13.6-14.7-31.4-26-25.3-2 40m55.8-80.3c.1.6-3.5 65.1-5 91.2m18.9-33.5l-4.7 39.3m67 0l20-50.4-40-63.3"/><path fill="none" stroke="#231F20" stroke-width="2.79" stroke-miterlimit="10" d="M282.3 277.5l14.8-40.4s-10.5-14.7-16.4-24.9m9 70.5s-5.3 18.1-5.5 19.8h-10.4l-3.3-23.7 19.9-1.3 3.7 6.9m-104-31.3l11.8-4m13.2 1.2l15.5 5.2m66.5-18.4l17-3m-182.6-7.7l-8.4-16.8-28.5-12.2 7.8 21.2s16.1 11.6 17.4 11.2"/><path fill="none" stroke="#231F20" stroke-width="2.79" stroke-miterlimit="10" d="M174.9 421.2c-1-17.5-3.8-58.4-3.8-58.4l-32.7-45.7-5.3-52.7H95.4l-2.7-10.3 27-24.3 19.3-5.7 4.4-17.3 24.6-18-2 27.7-13.7 14.7 9.7 36.7 23 16.7h20.3m9.1-.1h58m16.7 0h11l11 27-9 45.3 7.3 48.9m-113.9 16.1l-.4-56.3 44.3 5.3 37.6-5.3 13.1 46.2M268 366.8l10.5 52.4m-67.9-51.9l-5.4 58.7"/><path fill="none" stroke="#231F20" stroke-width="2.79" stroke-miterlimit="10" d="M301.5 288l9.6 1.8 9 18.2-12.3 20M10.1 216.8c.3-1.7 8.3-15.2 8.3-15.2s4.7 15.6 6 15.2 15.4-19.5 15.4-19.5l1.9 23.8 9-7.6s8.7 17.6 9 16.3 6.5-16.2 6.5-16.2l11 17.5 4.2-14 7.2 8.7m-54.7 76.4l-4-17.7 16.4 8.9-2-27.5 19.3 20.6 11.3-14.3 4.7 17.6 9.3-7.9 7 15 6-14.4 9.2 14.7m-72.6 83.9l-9-38.3 27 29-2.7-54L79 365.5l9.8-28.7 10 30.3 8.4-15.3 6.6 19 9.3-16 6.7 17.3m173.8-166.9l5-11.8 8.7 11 .7-24.5 12.3 17.4 5.1-15.2 9.7 15.2 7.9-15.2 9.2 19.5m-48.1 77.1l14.7-25.8 4.1 28.4 8-14.2 4.7 16.9 8-15.5 8.6 15.5m-49.4 86.3l5.2-29.5 7 24.7 15.9-42.7 4.7 35 8-12.3 6.4 15.3 9.1-14.3 4.5 16.3M1.4 420.1v-13l12 9 1.7-14.3 12.3 9.2 6.3-14.2 8 15.3 5-11 15 14.7v-13.3l12.9 10.3 10.1-16 7 20s12-14 11.7-12.7c-.3 1.3 7.7 19.3 7.7 19.3l9-11.3 13.7 18.7 10-11 7.7 11 5.7-13 9.7 13 4.1-13s10.6 9 11.6 9.3c1 .3 7.4-10.3 7.4-10.3l13.4 12 8.9-11.3s8.3 14.3 9.3 13.3 9-14.3 9-14.3l12.7 12.7 3.8-13.3 9.5 7.7 3.1-14 18.5 14 1.7-18.2s15.7 9.9 15.7 8.5c0-1.4 2.3-19.3 2.3-19.3l11.4 12.7 10.7-14.7 3 16.3 12.7-14.3 5 15.7 13-17.7 6 12.8 11-10.8 8.7 17.2M90.6 8.6s-20.7 5.3-39.4 18.2m31-6.5S50.7 31.5 39.8 43.4m32-9.2s-34 16.9-43 28m32.4-10.9S35.3 67 26 79.3m31.3-15.7S30.7 86.8 19 100.5m35.1-23.4s-19.5 26.2-28.7 54m36.4-53.9s-11.3 32.8-13 45.9m21.7-62.2s-6.5 35.8-3.4 49.8m10.8-59.8s-.5 37.3.3 43.1m9.3-55.9s-1.8 29-.5 38.4m6.7-53.2s.2 27.2 1.9 36.3m3-45.6s2.7 17.7 5.9 28.3m55.4-41.2s-20.1 14.3-24.7 22.4m19.7-10.3s-15 12.7-19.7 21.6m18.5-13.3S139 39.1 132.9 49.1M153 30.5s-9.9 18.9-12.9 37.6m17.8-38.3S154 52 154.3 60.6m7.5-42.2s-.5 23.6 3 32.3m.8-39.5s3.5 24 4.6 27.6m.2-36.8s1.8 18.8 3.6 24.7M211.6 2s-1.8 18.8-3.6 24.7m8.5-15.5s-3.5 24-4.6 27.6m8.3-20.4s.5 23.6-3 32.3m6.9-20.9s3.9 22.2 3.6 30.8m1.4-30.1S239 49.4 242 68.1m-13.6-46.6s14.7 17.6 20.8 27.6m-22.1-35.9s15 12.7 19.7 21.6M222.1 1.1s20.1 14.3 24.7 22.4m33.6-9.5s-2.7 17.7-5.9 28.3m10.9-19s-.2 27.2-1.9 36.3m8.1-21.5s1.8 29 .5 38.4m9.1-25.6s.5 37.3-.3 43.1m7.7-33.1s6.5 35.8 3.4 49.8m5.3-33.5s11.3 32.8 13 45.9m-5.3-46s19.5 26.2 28.7 54m-32-67.5s26.6 23.1 38.3 36.9m-42.2-49.2s25.9 15.7 35.1 28m-45.6-45.1s34 16.9 43 28m-53.4-41.9s31.5 11.2 42.4 23.1M288.4 8.6s20.6 5.3 39.4 18.2"/></svg>