<svg version="1" xmlns="http://www.w3.org/2000/svg" width="288" height="288"><path fill="#FFF" d="M52.7 202.7l-1.6-43.9 1.7-17v-.1c0-.1-.9-5.6-1.6-10.4-.7-4.6 2.9-15.1 3-15.2.5-1.9 2.2-7.1 3.8-8.6 2.2-2.1 8.9-11.5 9.2-11.9l.6-.8-3.9-1.3 3.2-8.8h7.4l4.2 2.8v5.3c-.5.3-1.4 1.2-2.9 3.4l-5-.2-.2.4c0 .1-3.5 6.7-6.1 11.5-2.6 4.9-4.2 18.2-4.3 18.8-.2 1.3-1.3 8.1-1.3 8.8 0 .6 0 1.3 7 2.4l1 .2-.2-1c-.4-2.4-1-6.4-.9-7.1.1-1.1.3-2.3.8-4.5.3-1.4 3.5-4.1 5.4-5.5 1.7-.6 3.8-1.3 4.3-1.3.4.1 2.6 1.7 3.8 2.6 1.2.9 1.7 1.2 2 1.4.5 1.1 1.7 7.9 1.7 11.3.1 2.8-4.6 6.2-6.4 7.3l-1.3.8 8.2 3.1-1.5 11.1 7.1 15.4 12.2-9.5-4.2-2-.2-3.1c2.5-1.2 5.1-2.4 6-2.8.7 1 2.5 4.8 4.1 8.3l-16.6 17.9-9-7.4v16.2l2.5 13.6h-32z"/><path d="M74.3 85.3l3.7 2.5v4.5c-.6.5-1.4 1.4-2.5 3l-4.1-.2h-.9l-.5.8c0 .1-3.5 6.7-6.1 11.5-2.7 4.9-4.3 18.1-4.4 19-.5 3-1.3 8.2-1.3 8.9 0 1.2.5 2.1 7.7 3.2l2 .3-.3-2c-.5-2.8-.9-6.3-.9-6.9.1-1.1.3-2.3.8-4.4.2-1 2.8-3.4 5-5 1.4-.5 3.1-1.1 3.7-1.2.7.4 2.5 1.7 3.6 2.4 1 .7 1.5 1.1 1.9 1.3.5 1.5 1.5 7.5 1.5 10.9.1 2-3.5 5.1-6.1 6.6l-2.7 1.6 2.9 1.1 6.2 2.4-1.3 10.3-.1.4.2.4 6.6 14.3.8 1.7 1.5-1.2 10.5-8.2 1.9-1.5-2.2-1.1-2.7-1.3-.2-2.1c1.9-.9 3.8-1.8 4.9-2.3.8 1.4 2.2 4.4 3.5 7.2l-15.8 17-7.2-5.9-2.5-2v17.9l2.3 12.6H53.4l-1.5-43.2 1.7-16.9v-.4c0-.1-.9-5.6-1.6-10.4-.5-3.6 1.9-12 2.9-14.9.7-2.5 2.3-7 3.6-8.2 2.3-2.2 9-11.6 9.3-12l1.2-1.7-1.9-.6-2.2-.7 2.8-7.6h6.6m.5-1.4h-8.2l-3.7 10 3.7 1.2s-6.9 9.7-9.1 11.8c-2.1 2-4 8.9-4 8.9s-3.7 10.8-3 15.6 1.6 10.4 1.6 10.4l-1.7 17 1.6 44.7h33.7L83.1 189v-14.5l8.3 6.8 17.4-18.8s-4.2-9.3-4.8-9.3c-.7.1-7 3.2-7 3.2l.3 4 3.5 1.7-10.5 8.2-6.6-14.3 1.5-11.5-7.3-2.8s6.9-4.1 6.8-7.9c0-3.8-1.4-11.7-1.9-11.9-.5-.2-5.6-4.1-6.3-4.2h-.1c-.9 0-4.6 1.4-4.6 1.4s-5.3 3.7-5.8 6-.7 3.5-.8 4.6c-.1 1.1.9 7.3.9 7.3s-6.4-1-6.4-1.7 1.3-8.7 1.3-8.7 1.6-13.7 4.2-18.5c2.6-4.8 6.1-11.5 6.1-11.5l5 .2s2.3-3.6 3.1-3.6h.1V87l-4.7-3.2z"/><path fill="#FFF" d="M203.2 202.7l2.5-13.6v-16.2l-9 7.4-16.6-17.9c1.6-3.5 3.4-7.3 4.1-8.3 1 .4 3.6 1.6 6 2.8l-.2 3.1-4.2 2 12.2 9.5 7.2-15.2-1.5-11.1 8.2-3.1-1.3-.8c-1.8-1.1-6.5-4.5-6.4-7.2.1-3.5 1.2-10.2 1.7-11.3.3-.2.8-.6 2-1.4 1.2-.9 3.5-2.5 3.9-2.6.4 0 2.5.7 4.2 1.3 2 1.4 5.1 4 5.4 5.5.5 2.2.7 3.4.8 4.5.1.7-.6 4.7-1 7l-.2 1 1-.2c7-1.1 7-1.8 7-2.4 0-.7-1.1-7.5-1.3-8.8-.1-.5-1.6-13.9-4.3-18.7-2.6-4.7-6.1-11.4-6.1-11.5l-.2-.4-5.1.2c0-.1-.1-.1-.1-.2-1.2-1.7-2-2.8-2.8-3.2v-5.3l4.2-2.8h7.4l3.2 8.8-3.9 1.3.6.8c.3.4 7 9.8 9.2 11.9 1.6 1.5 3.3 6.7 3.8 8.6 0 .2 3.6 10.7 3 15.3-.7 4.7-1.6 10.3-1.6 10.4v.1l1.7 17-1.6 43.9h-31.9z"/><path d="M220.4 85.3l2.8 7.6-2.2.7-1.9.6 1.2 1.7c.3.4 7 9.8 9.3 12 1.3 1.2 2.9 5.7 3.6 8.2 1 2.9 3.5 11.3 2.9 14.9-.7 4.7-1.6 10.3-1.6 10.4v.4l1.7 16.9-1.5 43.2h-30.4l2.4-12.6v-18l-2.5 2-7.2 5.9-15.8-17c1.3-2.8 2.7-5.9 3.5-7.2 1.1.5 3 1.4 4.9 2.3l-.2 2.1-2.7 1.3-2.2 1.1 1.9 1.5 10.5 8.2 1.5 1.2.8-1.7 6.7-14.2.2-.4-.1-.4-1.3-10.3 6.2-2.4 2.9-1.1-2.7-1.6c-2-1.2-6.1-4.4-6.1-6.6.1-3.4 1.1-9.4 1.5-10.9.4-.2.9-.6 1.8-1.3 1-.7 2.8-2 3.6-2.4.7.1 2.3.7 3.7 1.2 2.3 1.6 4.8 4 5 5 .5 2.1.7 3.3.8 4.4 0 .6-.5 4-1 6.8l-.4 2.1 2.1-.3c7.2-1.1 7.7-1.9 7.7-3.2 0-.7-.8-5.9-1.3-8.9-.1-.9-1.7-14.1-4.4-19-2.6-4.7-6.1-11.4-6.1-11.5l-.4-.8h-.9l-4.2.2c-1-1.4-1.8-2.4-2.5-3v-4.5l3.7-2.5h6.7m1-1.6h-8.2l-4.7 3.2v6.3h.1c1 0 3.1 3.5 3.2 3.5l5-.2s3.5 6.7 6.1 11.5c2.6 4.8 4.2 18.5 4.2 18.5s1.3 8 1.3 8.7-6.4 1.7-6.4 1.7 1.1-6.1 1-7.2c-.1-1.1-.3-2.3-.8-4.6s-5.8-6-5.8-6-3.7-1.4-4.6-1.4h-.1c-.7.1-5.8 4-6.3 4.2-.5.2-1.8 8.1-1.9 11.9s6.8 7.9 6.8 7.9l-7.3 2.8 1.5 11.5-6.7 14.2-10.5-8.2 3.5-1.7.3-4s-6.3-3.1-7-3.2c-.6 0-4.8 9.3-4.8 9.3l17.4 18.8 8.3-6.8V189l-2.7 14.4H236l1.6-44.7-1.7-17s.9-5.6 1.6-10.4-3-15.6-3-15.6-1.9-6.9-4-8.9c-2.2-2.1-9.1-11.8-9.1-11.8l3.7-1.2-3.7-10z"/><path fill="#FFF" d="M136.7 199.8l-2.5-51.5h-.7c-5.1 0-11.4-8.1-11.5-8.2l-5.2-8.1-2.7-6.6 14.1-29.6 7.6 2.8 1.5 3.4-1.6 4.9H130l-8.9 19 12.6 13.3 8.7-1.7-1.9-8.7c0-.7.2-5.1.8-8.1.6-2.9 4.7-4.4 4.7-4.5 0 0 .9-.3 3.5-.7h.3c1.8 0 3.5 2.3 4.1 3.3.3.8 2.4 7.5 2.5 10.8 0 3.3-2.5 6.3-2.5 6.3l-.8 1 10.5 2 11.6-12.9-8.7-19h-5.7l-1.4-4.2 1.5-4.2 7.3-2.8 14 29.5-5.9 12.3-6 6.5-8.1 4.4.5 51.2h-26z"/><path d="M128.6 96.7l6.6 2.5 1.2 2.9-1.3 4.1h-5.6l-.4.9-8.5 18.1-.4.9.7.7 12 12.6.6.6.8-.2 7.5-1.5 1.5-.3-.3-1.5-1.8-7.8c0-.9.2-5.1.8-7.8.4-2 3.2-3.5 4.2-3.9.2 0 1.1-.3 3.4-.6h.2c1.3 0 2.8 1.9 3.4 2.9.7 2.2 2.4 7.8 2.5 10.5 0 3-2.3 5.8-2.3 5.8l-1.6 2 2.5.5 8.8 1.7.8.2.6-.6 11-12.2.7-.7-.4-.9-8.3-18.1-.4-.9h-5.7l-1.2-3.5 1.3-3.7 6.4-2.5 13.6 28.6-5.7 11.9-5.9 6.4-7.6 4.1-.8.4v.9l.5 50h-24.5l-2.4-50.1-.1-1.4h-1.4c-3.9 0-9.1-5.6-10.9-7.9l-5.2-8-2.5-6.3 13.6-28.8m-.8-1.9l-14.5 30.5 2.8 7 5.3 8.2s6.6 8.5 12.1 8.5l2.5 51.5h27.4l-.5-51.5 7.8-4.2 6.2-6.7 6.1-12.7-14.5-30.5-8.3 3.2-1.7 4.8 1.7 5h5.8l8.3 18.1-11 12.2-8.8-1.7s2.7-3.2 2.7-6.8c-.1-3.6-2.6-11.1-2.6-11.1s-2.2-3.7-4.8-3.7h-.4c-2.8.4-3.7.7-3.7.7s-4.5 1.7-5.2 5c-.7 3.3-.8 8.3-.8 8.3l1.8 8-7.5 1.5-12-12.6 8.5-18.1h5.7l1.8-5.7-1.7-4-8.5-3.2z"/><path fill="none" d="M48.3 79c18.2 2.1 36.6 2.3 55 2.5l146.4 1.8c-69.2-1.4-138.7-2.7-207.6 4 71.9 6.2 144.1 7.4 216.1 3.7-44 .9-88 1.9-132 3-27.1.7-54.3 1.5-80.8 7.1 64.2.2 128.4.5 192.6.7-25.2 2.6-50.6 3.1-75.9 3.5-40.8.7-81.7 1.4-122.5 2.2 67 4.8 134.1 6.8 201.3 6.2-30.1-3.3-60.5-2.1-90.7-.8-39.3 1.6-78.5 3.2-117.8 4.8 69.6 7.1 141.3 0 209.8 5.4-18.9 5-38.6 6.1-58.1 6.9-47.5 2-95.1 2.7-142.6 2.2 27.3 11.3 57.8 11 87.3 10.6 34.3-.5 68.7-.9 103-1.4-14.4 3.3-29.3 4.3-44.1 5.1-48.9 2.5-97.9 1.6-146.9.7 66.8 12.2 135.4 1.7 203.2 3.7-67.1 4-134.2 5-201.4 6 67.5 9.3 135.9 6.5 203.9 3.1-73.8 12.9-149.5 4.6-224.4 5 39 7.4 78.7 12.5 118.4 10.4 17.3-.9 34.6-3.2 51.9-4.9 19.7-1.9 39.5-3.1 59.4-3.6-1.9 3.5-6.5 4.2-10.4 4.4-60.3 4-120.8 2.1-181.2 4.6-7.1.3-14.6.8-20.4 4.9 65.5 2.9 131.2 1.7 196.6-3.6-19.3 2.1-38.7 1.5-58.1 1.4-50.4-.3-100.7 2.3-150.9 6.2 46.2 7 92.8 13.7 139.5 10.9 26.2-1.5 52.3-6 78.4-4.2-59.5 2.6-119.1 3.8-178.7 3.6-8 0-16.3 0-23.7 3.2 41.3 3.6 82.9 4.2 124.3 2 15-.8 30.1-2 45.1-1.3 13.2.6 26.5 2.6 39.6 1.4"/></svg>