<svg data-name="Layer 1" xmlns="http://www.w3.org/2000/svg" viewBox="0 0 365.17 390.9"><ellipse cx="237.49" cy="291.63" rx="15.5" ry="25.13" transform="rotate(-23.68 -37.975 497.307)" fill="none" stroke="#231f20" stroke-miterlimit="10" stroke-width="2.79"/><path fill="none" stroke="#231f20" stroke-miterlimit="10" stroke-width="2.79" d="M135.13 221.85l2.82 8.35m7.87-12.13l4.04 6.98m-23 9.95l32.33-14 13.67 57.12-21.67 16.35L126.86 235z"/><path fill="none" stroke="#231f20" stroke-miterlimit="10" stroke-width="2.79" d="M118.39 206.42l-22.86 32.92 39.6 15.89"/><path fill="none" stroke="#231f20" stroke-miterlimit="10" stroke-width="2.79" d="M126.86 235l-15.33-2.33 11.5-19.08m-11.5 19.08l-16 6.67m64.45-15.04l21.53 26.67 18.87-10.05 6.78-1.58m-40.63 12.33l13.41 13.5 22-11.75 2.63 1.81h4m-5.62-10.97l10.33-.91v4l-7.49 1.15-.76 3.6"/><path d="M208.01 247.97l.94 8.7a9.25 9.25 0 0010.37 0l3.38-32.37h-17.25l2.15 19.88m13.42-3.76l3.92.87v9.68l-5.38 3.46m-18.43-37.01l16.77-3.6-9.78-6.63-6.99 10.23zm8.52-1.32c.41.8 2.58 7.72 2.58 7.72m-39.37 63.25l102.67 27.6L297.19 296l6.67 17.04-28.67 13.3-122.66-20.67-1.34-11.2" fill="none" stroke="#231f20" stroke-miterlimit="10" stroke-width="2.79"/><path fill="none" stroke="#231f20" stroke-miterlimit="10" stroke-width="2.79" d="M172.86 278.12l54.67-1.45 39.66 29L286.53 293l3.66 7.67"/><path fill="none" stroke="#231f20" stroke-miterlimit="10" stroke-width="2.79" d="M202.95 295.16l21.99-3.99 24.81 16.57m-49.35-13.27l-5.62 18.32m2.81-34.67l-1.4 15.22"/><path d="M105.3 242.72l26.39 75.62 172.17 26-4.66 18.23-180-26.57-41.67-128.81 13.33-5.85 24.85-1.67m-24.85 1.67L101 230.41m202.86 113.93l-14.92-24.38m-157.25-1.62L119.19 336m9.35 1.38l4.65 41.46h8l2.09-39.28m138.25 21.01l1.99 28.93h7l4.02-27.61" fill="none" stroke="#231f20" stroke-miterlimit="10" stroke-width="2.79"/><path d="M88.2 117.97S46.7 202.3 34.7 322.23c0 0 12 17.27 34.5 4.11 0 0 5.3-53.23 12.65-106.17m2.2-15.5c5.2-35.26 11.18-68 17-81.92" fill="none" stroke="#231f20" stroke-miterlimit="10" stroke-width="2.79"/><path d="M80.07 139.28s3.71 4.6 14.92 4m-23.54 16.31s6.25 12.25 19.41 5.76m-28.61 21.32s10.16 9.45 23.72 5.38m-31.1 20.25a25.38 25.38 0 0027.26 5.77m-34.82 25.28s9.38 11.1 30.88 4.38m-36.74 25.36s17.9 11.25 33 3.58m-37.08 22.78s18.35 13.89 34.08 2.55m6.53-204.33a88.87 88.87 0 00-27.13-4.23m18.56 7.42s-20.57-5.14-30.44-2.69m20.08 6.35s-23.84-3-32.47-.32m20.9 5.65s-19.15-.85-28.37 2.42m22 2.69s-22.17 2.86-33.13 6m26.7-.05s-19.51 7-34.06 18.37m38.07-15.61s-17.47 13.3-23 19.63m33.3-25.17s-16 16.59-19.23 25.06m26.64-27.74s-13.35 19.48-14.95 22.8m24.53-26.18s-11.14 14.66-13.73 20.08m22.19-25.7s-9.43 14.4-11.73 19.8m17.58-22.97a163.28 163.28 0 00-6.83 17m14.89-39.77a88.82 88.82 0 00-8.28-26.18m1.57 19.94S77.1 53.56 70.51 45.8m3.25 20.81s-7.88-22.7-14.16-29.22m4.24 21.28s-7.76-17.53-14.79-24.33m7.37 20.85s-12.41-18.58-20.1-27M48.2 52.08S33.31 37.67 16.63 29.74m30.94 27.15s-19.68-9.73-27.8-11.85m37.32 18.63s-21.95-6.91-31-6.07m36.7 11.51s-23.38-3.3-27.07-3.26m34.36 10.33S52 72.72 45.99 72.82m32.89 8.44s-17.09-2-23-1.7m28.44 5.53a163.55 163.55 0 00-18.28 1.44m42.06-3.59a88.82 88.82 0 0023-15.05m-18.8 6.9s18.7-10 24.39-18.4m-19.16 8.74s19.73-13.72 24.32-21.52m-19.3 9.82s14.78-12.22 19.43-20.81m-18.13 12.74s14.53-17 20.56-26.65m-19.78 17.96s9.8-18.25 13-36.46M119.81 37.3s4.06-21.58 3.9-30m-7.84 40.99s.73-23-2.52-31.48m-1.15 38.44s-3.15-23.4-4.19-27m-.69 35.93s-1.55-18.35-3.27-24.11m.77 33.95s-2.66-17-4.57-22.56m2.35 28.84a163.68 163.68 0 00-6.33-17.21m27.15 46.49A88.61 88.61 0 01149.2 119m-19.84-2.44s20.49 5.44 28 12.36m-20.69-4.15s22.33 8.86 28.58 15.42m-21.05-5.17s17.17 8.53 23.66 15.84m-20.54-8.28s18 13.22 26.1 21.27m-23.35-12.95s13.71 15.54 20.93 32.55m-25.8-32.1s8.86 20.09 10.62 28.3m-16.94-38.1s6 22.23 4.72 31.23m-9.91-37.11s2.27 23.5 2.07 27.19m-8.82-34.83s2.67 18.21 2.31 24.21m-6.99-33.23s1.29 17.16.7 23m-4.29-28.6a164.59 164.59 0 01-2.24 18.19m6.2-42.02a88.93 88.93 0 0119.9-18.91m-11.01 16.69s14-15.93 23.5-19.53m-12.9 16.64s17.87-16.05 26.52-18.74m-13.97 16.54s15.27-11.59 24.7-14.14m-16.55 14.73s19.85-10.26 30.65-13.92m-21.98 15.15s20-5.36 38.46-4.27m-40.21 8.85s21.93 1 30.06 3.07m-41.67-1.79s22.56 4.56 30.07 9.72m-37.69-7.71s22.06 8.42 25.28 10.24m-35.08-7.53s17.5 5.71 22.72 8.7m-32.87-8.55s15.94 6.48 20.91 9.61m-27.53-8.89a164.4 164.4 0 0115.26 10.13" fill="none" stroke="#231f20" stroke-miterlimit="10" stroke-width="2"/><path d="M231.53 250.97s60.41 1.81 70 2.17c9.33.36-18 11.72-18 11.72s-17.34 8.69 25.33 9.25 56.26 0 56.26 0" fill="none" stroke="#231f20" stroke-miterlimit="10" stroke-width="2.79"/><circle cx="275.94" cy="122.38" r="35.75" fill="none" stroke="#231f20" stroke-miterlimit="10" stroke-width="2.79"/></svg>