<svg version="1" xmlns="http://www.w3.org/2000/svg" width="288" height="288"><path d="M56.8 173.8c-.3 6-.6 12-.9 18.1 8.9.3 17.9.5 26.9.4-.2-3.4-.3-6.8-.5-10.3-.1-1.3-.1-2.7-.9-3.8-1.1-1.7-3.3-2.3-5.3-2.7-6.4-1.2-13-1.5-19.5-1.8m79.4-2c-.1 6.3.2 12.7.9 19 .1.8.3 1.8.9 2.3.5.4 1.2.5 1.9.5 7.1.3 14.2-.1 21.1-1.3.2 0 .5-.1.7-.3.2-.2.3-.6.3-.9.1-6.3-1.1-12.7.2-18.8.1-.5.2-1.1-.1-1.5-.3-.4-.9-.4-1.3-.4-8.5.3-17 .9-25.5 1.8m71.4 7.6c0 4 .1 8 .1 12 0 .2 0 .4.1.5.1.1.2.1.4.1 8.3 1 16.6 1.1 24.9.5.2 0 .4 0 .6-.2.3-.3.3-.8.2-1.2-1-5-1.5-10.1-1.3-15.2-2.6-.5-5.1.4-7.6 1.1-3.2.8-6.4 1.1-9.7 1.4-2.8.3-5.6.5-8.3.8m-129-62c-1.9-3.6-2.2-9.4-1.2-14.9 1.8-9.5 8-16.3 13.8-15.2s9.1 9.7 7.3 19.2c-1.1 5.7-4.7 11.6-7.9 14.2" fill="#FFF" stroke="#27AAE1" stroke-width="2" stroke-miterlimit="10"/><path fill="#FFF" stroke="#27AAE1" stroke-width="2" stroke-miterlimit="10" d="M88.8 177.8c-.2 2.5-.3 3.9-.3 3.9s-24.2-1-34.8-7c0 0 6-43.7 13.2-59 0 0 21.2 2.5 26.2 8.7 0 0-1.9 23.4-3.3 40.3"/><path fill="#FFF" stroke="#27AAE1" stroke-width="2" stroke-miterlimit="10" d="M79.2 130.8l2 34.8 12.1 20-1.1 3.7s1.2 1.5 1.8 1.3c.7-.2 2.8-1.2 2.8-1.2v8.7l6.5-6.5L88.5 162l-.8-28.3m-30.8 42.6L55.7 192m26.6-10.7V192m-1.1-26.3l7.3-3.7m122.9-44.5c1.9-3.6 2.2-9.4 1.2-14.9-1.8-9.5-8-16.3-13.8-15.2s-9.1 9.7-7.3 19.2c1.1 5.7 4.7 11.6 7.9 14.2"/><path fill="#FFF" stroke="#27AAE1" stroke-width="2" stroke-miterlimit="10" d="M199.5 177.8c.2 2.5.3 3.9.3 3.9s24.2-1 34.8-7c0 0-6-43.7-13.2-59 0 0-21.2 2.5-26.2 8.7 0 0 1.9 23.4 3.3 40.3"/><path fill="#FFF" stroke="#27AAE1" stroke-width="2" stroke-miterlimit="10" d="M209.1 130.8l-2 34.8-12.1 20 1.1 3.7s-1.2 1.5-1.8 1.3c-.7-.2-2.8-1.2-2.8-1.2v8.7l-6.5-6.5 14.8-29.7.8-28.3m30.7 42.7l1.3 15.7m-26.7-10.7V192m1.2-26.3l-7.3-3.7m-54.2-39.9c-3.6-2.1-6.1-7.4-6.1-13.7 0-8.1 4.3-14.7 9.7-14.7 5.3 0 9.7 6.6 9.7 14.7 0 5.7-2.2 10.7-5.3 13.1"/><path fill="#FFF" stroke="#27AAE1" stroke-width="2" stroke-miterlimit="10" d="M134.3 123.8s20-4.8 29.2 0l-1.3 50h-26.7l-1.2-50zm1.2 50l2.3 19m24.4-19l-1.2 19"/><path fill="#FFF" stroke="#27AAE1" stroke-width="2" stroke-miterlimit="10" d="M134.3 123.8l-10.2 23.9L123 179l3 9.7s2.2-1.2 2.7-2 0-7.5 0-7.5l2.7 1 1-2.8-3.7-5 3.1-22.1 2.9-6.1m-2.9 6l-7.7-2.4m39.3-24.3l10.2 23.9 1.1 31.2-3 9.7s-2.2-1.2-2.7-2 0-7.5 0-7.5l-2.7 1-1-2.8 3.7-5-3.1-22.1-2.9-6.1m2.9 6.2l7.7-2.5"/></svg>