<svg data-name="Layer 1" xmlns="http://www.w3.org/2000/svg" viewBox="0 0 543.38 295.55"><path d="M244.78 120.77l-35-118.66s38.33 12 80 74.66l-51.5 18.92m-.35 26.5l-29.12-95-2 68.75 22.74-1.07" fill="none" stroke="#231f20" stroke-miterlimit="10" stroke-width="2.79"/><path d="M317.78 165.44c31.75-20 30.5-72.75 30.5-72.75l-174.75 46s5 21.25 12 25m-4.75-18.25l20.55-5.31m11.61-2.99l68.78-17.77m13.23-3.42l53-13.69m-124.56 41.52l-44.72 11.33m134.18-34l-58.66 14.86m92.68-23.48l-23 5.83m-139.8 44.29l22.71-5.65m30.84-7.67l28.32-7.05m7.18-1.8l71-17.68m-60.76 24.89l-38.58 9.79m96.15-24.37l-46.4 11.75m8.43 8.31l33.53-7.69" fill="none" stroke="#231f20" stroke-miterlimit="10" stroke-width="2.79"/><path d="M206.51 162.61s-38.45 9.58-66.2-13.17c0 0-43.25 31.09-69.5-7.2 0 0-33.25 13.24-70.75 14.72" fill="none" stroke="#231f20" stroke-miterlimit="10" stroke-width="2.79"/><path d="M370.31 200.19c-107-.5-137.25-57.41-137.25-57.41s-24.92 30.66-137.59 66.66" fill="none" stroke="#231f20" stroke-miterlimit="10" stroke-width="2.79"/><path d="M255.89 167.2s31.08-4.17 41.89-9.76c0 0 13.83 10.21 35 9.78" fill="none" stroke="#231f20" stroke-miterlimit="10" stroke-width="2.79"/><path d="M281.72 182.69s77.42-18.69 111.75-46.72c0 0 29.34 32.14 85.67 32.8" fill="none" stroke="#231f20" stroke-miterlimit="10" stroke-width="2.79"/><path d="M431.68 159.89s39.46-9.45 50.79-19.45c0 0 23 13.74 60.67 7.2M13.78 231.69s127.75 7 174-21c0 0 41.33 85.75 174.66 83.42m-44.66-44s35.08-10 44.74-20c0 0 28.67 23.33 87.34 16M13.8 170.78l43.34-13.82-4.34 7.66 11.34-4.73v7.34l7.33-1.79m32.2 8.33c2.14-.33 27.08-9.9 27.08-9.9l-4.62 8.24 20-9.78-1 8.44 8-2.72m40.01 26.39s27.9-10.32 39.75-23.67c0 0-1.42 12-5.75 21.34a66.68 66.68 0 0017.6-9.5s.07 10.83-4.27 15.5m103.26-20.67l42.68-20.48-6.46 13.82 15.03-8.17-2.81 9.5 11.69-4.91v6.58" fill="none" stroke="#231f20" stroke-miterlimit="10" stroke-width="2.79"/><path fill="none" stroke="#231f20" stroke-miterlimit="10" stroke-width="2.79" d="M469.14 159.33l13-6.79-1.33 6.79 10.33-2.37M55.78 266.44s74.47-7.67 115.73-29.67c0 0-11.38 24.34-22.39 32.67 0 0 23-6.33 29.52-12.67 0 0-5.24 16.79-11.86 22.79 0 0 12.91-2.12 21.33-9.74 0 0-7.33 18.12-9.71 21.62m157.57-31.83s15.22-7.66 22.81-15.57l-4 13.23 14.66-9.5-1.24 8.5 7.58-.16m-195.25-243l-5.75 6.72m-4.41 5.14l-11.18 13m-4.56 5.36l-9.53 11.11m-5.5 6.44l-7.51 8.76m-5.55 6.48l-10 11.72m-6.18 7.17l-9.25 10.79m-5.39 6.29l-9.36 10.92m-5.2 6.07l-5 5.87M205.55 13.11l-5.77 6.72m-4.39 5.14l-11.18 13m-4.56 5.36l-9.53 11.11m-5.5 6.44l-7.51 8.76m-5.55 6.48l-10 11.72m-6.18 7.17l-9.25 10.79m-5.35 6.29l-9.36 10.92m-5.24 6.07l-5 5.87m93.46-74.07l-7.5 8.76m-5.55 6.48l-10.05 11.72m-6.14 7.17l-9.24 10.79m-5.38 6.29l-9.36 10.92m-5.21 6.07l-5 5.87M266.6 13.11l-5.77 6.72m-64.4 75.18l-9.25 10.79m-5.4 6.29l-9.36 10.92m119.2-109.9l-5.77 6.72m-4.39 5.14l-11.18 13m-63.5 74.12l-9.36 10.92m118.79-109.9l-5.76 6.72m-4.4 5.14l-11.17 13m-4.57 5.36l-9.53 11.11m60.32-41.33l-5.76 6.72m-4.4 5.14l-11.17 13m-4.57 5.36l-9.52 11.11m-5.51 6.44l-7.5 8.76m-21.74 25.37l-9.24 10.79m105.09-92.69l-5.76 6.72m-4.39 5.14l-11.17 13m-4.57 5.36l-9.52 11.11m-5.51 6.44l-7.5 8.76m-5.58 6.48l-10 11.72m89.39-74.73l-5.76 6.72m-4.4 5.14l-11.18 13m-4.56 5.36l-9.49 11.11m-5.54 6.44l-7.46 8.76m-5.6 6.48l-10 11.72m92.7-74.73l-5.76 6.72m-4.4 5.14l-11.18 13m-4.56 5.36l-9.53 11.11m-5.5 6.44l-7.51 8.76m-5.55 6.48l-10 11.72m100.96-74.73l-5.76 6.72m-4.4 5.14l-11.17 13m-4.57 5.36l-9.53 11.11m-5.5 6.44l-7.5 8.76m-5.56 6.48l-10.08 11.72m-6.1 7.17l-9.24 10.79m-5.39 6.29l-9.36 10.92m-5.2 6.07l-5 5.87"/></svg>