<svg version="1" xmlns="http://www.w3.org/2000/svg" width="288" height="288"><path fill="#27AAE1" d="M139.6 138.2c.6-2.2-5-5-6.6-4-2.5 1.5-4 4.1-4 4.1s.6 10.2 1.6 11.9c1.1 1.8 6.5 6.8 6.5 6.8l6.5 2.6 9-6.4 4.8-7.3.7-6.6-2.8-5.4c-.3-.3-1.6-.4-2-.4-.8-.1-1.8-.4-2.6-.3-1.1.2-1.8 1.1-2.6 1.9-1.1 1.1-2 2.1-2.3 3.6-.3 1.8.5 3.7 2.1 4.5.3.2.8.3.9.6.3.6-.3 1.1-.8 1.5-3 2.3-4.8 5.9-8.2 7.7.5-1.7 1.1-3.4 1.6-5.1.4-1.4.9-3 .4-4.4-.5-1.4-1.9-2.3-3.3-2.8-.5-.2-1-.4-.9-.9.7-.3 1.5-.6 1.9-1.3.1-.1.1-.2.1-.3z"/><path fill="none" stroke="#000" stroke-width="2" stroke-miterlimit="10" d="M140.4 138c-1.7-1.9-4.6-4.1-7.3-3.8-3.3.3-3.9 4.7-4.1 7.3-.9 15.2 14.6 18.2 14.6 18.2s14.5-6.7 14.5-18.2c0-3.4-1-7.7-4.8-8.4-1.4-.3-3.3-.1-4.5.7-1.9 1.3-3.1 4.1-3.5 6.2-.1.4-.2.9.1 1.3.1.3.4.5.7.7 1 .8 2 1.5 3 2.3-3.2 2.3-6.1 5-8.7 8 .2-2.8 2.1-5.2 2.1-8 0-.3 0-.6-.1-.8-.1-.3-.4-.5-.6-.7-1.4-1-2.9-1.9-4.5-2.6.8-.9 1.9-1.7 3.1-2.2z"/><path fill="none" d="M129.9 133.5c8.1-1 16.3-1.1 24.5-.4-8.8.6-17.5 1.2-26.3 1.8-1.2.1-2.5.2-3.3 1.2 12.5 2.2 25.4.2 38 1.4-12.8 1.6-25.7 3.2-38.5 4.8 12.1-.2 24.2-.4 36.2-.7-12.5 2.1-24.9 4.2-37.4 6.3 11.5-.2 23-.5 34.6-.7-9.8 1.3-19.5 2.5-29.3 3.8 9.8-.1 19.6-.2 29.3-.2-12.9 1.4-25.7 2.8-38.6 4.2.3.9 1.5 1.1 2.4 1.2 13.7.9 27.5.7 41.3-.4"/></svg>