<svg version="1" xmlns="http://www.w3.org/2000/svg" width="612" height="792"><path fill="#5EBF00" d="M164.2 319.7c-4.3 14.8-6.6 30.1-12.8 44.2-7.1 16.2-14.7 32.2-22.1 48.2-5.4 11.9-10.9 23.8-17.4 35.1-11 19.2-25 36.6-37.1 55.1-16.2 24.8-37.9 59.9-30 90.7 3.4 13.3 13.4 27 26.7 31.8 14.1 5.2 29.7-1.8 44-3.7 16.7-2.2 33.5 2.3 50.1 5.2 23.7 4.1 47.9 5 71.9 5.8 17.7.6 37.2.7 50.7-10.8 16.7-14.2 16.9-39.6 13.8-61.3-2-14.2-3.5-31.7 8.5-39.6 10.5-6.9 24.3-1.4 36 3 51.1 19.6 107.7 17.4 162.4 14.9 15.7-.7 33.1-2.2 43.6-13.9 10-11.1 10.2-27.6 9.8-42.5l-4.2-177.4c-.4-16.1-.8-32.3-3.7-48.2-2.2-12-5.9-23.8-10.9-34.9-3.9-8.6-8.7-17.1-16.1-22.9-10-7.8-23.2-9.8-35.9-10.3-22.7-.8-47.1 3.3-63.6 19-9.5 9-15.7 21.5-26.8 28.4-7.5 4.7-16.4 6.4-25.2 7.2-43 3.9-86.9-11.1-128.9-1.4-38.9 9.1-71.7 40.1-82.8 78.3z"/></svg>