<svg version="1" xmlns="http://www.w3.org/2000/svg" width="612" height="792"><path fill="#5EBF00" d="M173.8 391.7c-3.4-16.7-8.9-34.3-3.5-50.5 2-6 5.5-11.5 6.3-17.8.5-4-.1-8-.6-11.9-2.7-21.5-2.8-43.2-.3-64.7.7-5.7 1.5-11.4 4-16.5 2.9-5.9 7.7-10.6 12.5-15.1 20.8-19.9 41.6-39.8 62.4-59.6 5.4-5.1 10.8-10.3 17.5-13.6 5.9-2.9 12.4-4.2 18.9-4.7 24-1.9 48.6 6.7 66.2 23s28 40.2 28 64.2c0 8-1.1 16.2.8 24 2.4 10.1 9.6 18.3 16.3 26.1 11.3 13.1 22.4 26.7 29 42.6 6.5 16 7.8 35-.5 50.1-3.2 5.7-7.6 10.8-9.8 17-3.5 9.8-1 20.6 1.6 30.6 13.8 53.2 28.5 106.2 44.2 159 4.5 15.2 8.5 33.5-2 45.4-8 9.1-21.7 10.5-33.7 8.8-12-1.6-23.8-5.7-35.9-5.1-10 .5-19.6 4-29.4 6.6-17.2 4.5-35.1 5.9-52.8 7.3-17.2 1.3-34.6 2.7-51.8.8-11.3-1.2-22.4-3.8-33.5-6.3-15.5-3.6-31-7.2-46.5-10.7-14-3.2-26.7-9.3-28.7-25-2-15.6 4-27.3 7.6-42 4.5-18.1 8.7-36.3 12-54.6 6.2-35.5 8.9-71.9 1.7-107.4z"/></svg>