<svg version="1" xmlns="http://www.w3.org/2000/svg" width="612" height="792"><path fill="#5EBF00" d="M279.3 622.3c-20.6 6.9-45.6 8.1-65.9-.3-14.9-6.1-36.3-18.9-37.4-37.2-.7-12.7 11.7-21.8 17.7-33 7.6-14.1 4.9-31.6-.2-46.8-5.1-15.2-12.4-30.1-13.4-46.1-.8-13.2 2.7-26.4 1.4-39.6-2.4-22.8-19-42.2-21.8-65-1.5-12.4 1.3-24.8 4-37 3.9-17.2 7.8-34.5 11.7-51.7 1-4.4 2-8.8 4.4-12.6 3-4.7 7.9-7.8 11.3-12.2 10.4-13.5 4.3-33.1 8.6-49.6 5.2-19.9 24.6-32.2 42.4-42.6 4.6-2.7 9.4-5.4 14.7-6.3 12.6-2 24.7 7.6 29.9 19.3 5.2 11.6 5.1 24.8 5.1 37.6 0 12.7.2 26 5.9 37.4 6 12.1 18.2 20.9 31.5 22.9 2.7.4 5.6.5 8-.7 2.7-1.4 4.3-4.2 5.6-6.9 7.7-16.3 8.7-35.8 19.8-50 9.4-12 25.5-18.3 40.5-16 15 2.4 28.4 13.3 33.8 27.6 3.6 9.7 3.7 20.4 3.7 30.8 0 25.1-1 52.6-17.7 71.2-7.4 8.1-17.1 13.7-26.2 19.8-28.8 19.1-53.2 44.8-70.8 74.5-4.2 7-8 14.4-9.9 22.4-2.3 9.8-1.4 20.1-.6 30.1 2.5 29 5 57.9 7.5 86.9.8 9.8 1.7 19.8-.4 29.4-4.7 20.8-22.9 36.8-43.2 43.7z"/></svg>