<svg version="1" xmlns="http://www.w3.org/2000/svg" width="288" height="288"><path fill="none" stroke="#000" stroke-width="2" stroke-miterlimit="10" d="M61.6 70l16 6.4h15l7.5 17.6 17.5 8 9.5 17.5 18.5 21.3v15.8l-36.5-11.2-5.5-12.8-25 4-12.5-11 10.5 15.3-22.5 2.1-8.5-6.5-11 8.8h10.5l10 5 25-5 8-4.5 13.5 4.5 1 9.1 40.5 13.2 2.5 32.3-4 23.7-9.5 18.5h53l-11-16.5-8.5-19.7s-2-20.8-2-20.3-3-18-3-18l17-11.5 26 9.4 17.5-15.8h21l-15-4.4 23.5-10.8 3-18-7.5 13.5-21.5 10.8-21.5 15.2-21-10.8-18.5 4.4-.5-16.6 18.5-15.5 26.5 1.5 8-8.7V92l17.5-8.9 1-19.6-7 17.2-16.5 7.9-1 17.9-6 3.8h-26l-18 10.7-2-22 11-27-13.5-8.5.5-15-7.5 14.5 11 9-4.5 8.7-13-8.7-6.5-10.5-21 3 19.5 2.7 6 12.6 11 6.2s0 12-.5 13-.5 20.5-.5 20.5l-17.5-3.5-7.5-19.5-20-7-12.5-29-2 9.5-13 2-16-2z"/></svg>