<svg version="1" xmlns="http://www.w3.org/2000/svg" width="288" height="288"><g fill="none" stroke="#000" stroke-width="2" stroke-miterlimit="10"><ellipse transform="matrix(.01505 -.9999 .9999 .01505 68.443 353.405)" cx="213.6" cy="142" rx="10" ry="15.1"/><path d="M199.9 146.1l-5.5-.3-.1-6.3 3.6-.1m-4.7-5.8c1-.1.2 22.9.2 22.9l-33.5 7.9s-11.1-15.4-10.1-16.1c1-.7-.1-11.7-.1-11.7l43.5-3z"/><path d="M183.9 159.6l-1.5 4.1-5.9 8.1-7.9 5.4-20.5 6.9-4.6-3.5-12.6 3.5-1.7 3.6 14 .7 29-.7 15.7-12.9 5.5-18.3m-45.3 27.6l-4.3 3.7m25.3-10.9l3.1 10.8m19.6-54.1l-22.7-4-13.9 6.7m-5.4 12L71 165.1l.9 5 88-5.7m-88.7-4c.6-.1 78.6-23.7 78.6-23.7m-79.1 28.7l.6-13.5-7.1-4.4 1.9 22.3 4.4.3.1-2.9zm-6.6-17.3l-4.8-2 2.9 21.6 3.8 1.1"/></g></svg>