<svg data-name="Layer 1" xmlns="http://www.w3.org/2000/svg" viewBox="0 0 115.89 414.02"><ellipse cx="314.58" cy="124.2" rx="41.5" ry="27.83" transform="rotate(-71.74 142.793 241.713)" fill="none" stroke="#231f20" stroke-miterlimit="10" stroke-width="2.79"/><path fill="none" stroke="#231f20" stroke-miterlimit="10" stroke-width="2.79" d="M60.16 70.85l-8.19 14.13m23.31-3.05l-2.38 9.94m-7.95 114.69l20.09-110.7-54.09-17.8-16 118.5 35.04 11.5"/><path fill="none" stroke="#231f20" stroke-miterlimit="10" stroke-width="2.79" d="M49.99 101.06l-11.04 67 18.5 64.57h11.5l-10.5-65.78 10.5-59.79m-11.5 125.57l5.66 14.84-3.66 16.92 11.66 4.17 4.67-22.66-6.83-13.27m-30-64.57l19.5-1.21m-43.5 29.71l-8.84 187 11.19 1.33 16.57-106.35"/><path fill="none" stroke="#231f20" stroke-miterlimit="10" stroke-width="2.79" d="M17.3 197.33l39.15 191.9h9.66l-2.66-123.34M6.11 383.56l-4.33 15.33 39.93 5 7.18-7.28-31.59-11.72m39.15 4.34v14l39.66 9.33 15.67-6.33-45.67-17"/></svg>