<svg version="1" xmlns="http://www.w3.org/2000/svg" width="288" height="288"><path fill="none" stroke="#000" stroke-width="2" stroke-miterlimit="10" d="M95.8 110.5s-13.5.6-26.7 6.2m19.9 0s-21 2.9-29.2 8.9m21-1.7s-23.2 6.1-30.2 11.8m21.4-2.5s-18.1 6.4-25.4 12.8m21.4-5.7s-19.5 10.9-28.5 17.9m24.8-10S48.8 162 39.6 178M69 149.3s-11.2 18.9-14 26.8m21.5-35.8s-8.6 21.3-8.5 30.4m14.4-35.6s-5.1 23-5.4 26.7m13-33.4s-4.9 17.8-5.2 23.8m11-32.2s-3.4 16.9-3.5 22.8m7.7-27.9s-.6 11.3 0 18.3m87.9-23s21.2-1.1 30.4 3.2m-20.9 2.3s24 1.6 31.9 5.9m-21.6 1.6s19 2.9 27.4 7.8m-22.1-1.6s21.2 7.1 31.4 12.3m-26.2-5.2s17.8 10.6 29.9 24.6m-34.4-22.7s14.6 16.4 18.8 23.7M204.7 131s12.5 19.3 14.1 28.3M197.9 127s9.4 21.7 10.3 25.2m-19-30.4s8.1 16.5 9.6 22.3m-16.9-29.4s6.5 15.9 7.7 21.7m-12.8-26s2.7 11 3.4 18m-51.2-15s-11.4 3.4-13.8 4.6m11.4.7c-.4.2-11.9 3.8-15.8 6.8m11.3-.6s-11.6 5.4-14.2 8.3m12.6-1.8s-13.2 6.7-14.8 9m14.3-3.9l-12.1 12.8m16.3-14.9s.1 10.6-.6 14.9m3-21.4s4.2 10.9 3.4 17.3m.9-21.2s3.9 12.1 3.5 15.6m-1.1-22.9s4.3 10.8 4.3 14.4m16.2-17.7s11.4 3.4 13.8 4.6m-11.3.7c.4.2 11.9 3.8 15.8 6.8m-11.4-.6s11.6 5.4 14.2 8.3m-12.6-1.8s13.2 6.7 14.8 9m-14.3-3.9l12.1 12.8m-16.3-14.9s-.1 10.6.6 14.9m-2.9-21.4s-4.2 10.9-3.4 17.3m-1-21.2s-3.9 12.1-3.5 15.6m1.1-22.9s-4.3 10.8-4.3 14.4"/></svg>