<svg version="1" xmlns="http://www.w3.org/2000/svg" width="576" height="576"><g fill="none" stroke="#000" stroke-width="2.785" stroke-miterlimit="10"><ellipse transform="matrix(.9982 -.05925 .05925 .9982 -7.895 16.31)" cx="271.1" cy="141.3" rx="21.4" ry="34.2"/><path d="M267 174l1 9.7m12.6-11v8.5m-35.9 6l64.3-9.5 2 114.5-49.7 1.8z"/><path d="M244.7 187.2l-30.7 43 39 54.8 6.4-3.3"/><path d="M249.5 213l-12.8 21 21.8 41.7M236.7 234l-22.7-3.8m39 54.8h-21l4.7 14.8 24.6-8.8M309 177.7l33-6.5-6-43.7-9.5-6.8-2.5-28.5h5.8l2.4 13.3h13l2.8 15.2-11 1.8-3-10.3"/><path d="M344.1 122.1l17.9 61.6-53 15.8m31.6-28l21.4 12.2m-51.6 109.8l7.3 189.9h-9.3l-20.5-189.9-10.5 189.9h-10.6l-5.5-188.6m56.1 188.7l27.9 12-17.7 8.7-19.5-20.7m-30.7-.1L263 504.3l-18.1-8.9 22.4-11.7m-22.5-372l-17.8-13m25.8 4.6l-16.1-24.6m33.6 20l2.8-27.7m13.1 30.3L297 78.7m-2.3 31.8l13-11.8"/></g></svg>