<svg version="1" xmlns="http://www.w3.org/2000/svg" width="432" height="432"><path fill="none" stroke="#000" stroke-width="4" stroke-miterlimit="10" d="M245.1 242.5c-9.4-10.8-50.8-58.5-50.8-58.5l9-54.3L183 91l-30-11.3s-7.7 9.6 1.3 13.9 21 11 21 11l4.8 25-21.8-26.6-38-9.3s-3.3 11.2 6 14c9.3 2.7 25.7 9 25.7 9l3.8 21.6-20.8-15.6-38.3.3s1 12.3 11.7 12.5S136 139 136 139l10 18s-26.7 1.3-28.3 3c-1.7 1.7-4.7 22.3.7 24.7 0 0 6.5-4.8 9.5-15.2 0 0 25.5 3.8 25.5 4.8s.7 28.3 2 28.3 47.3 72.7 47.3 72.7"/><path fill="none" stroke="#000" stroke-width="4" stroke-miterlimit="10" d="M250.3 342s-24-16.3-25.3-17.7c-1.3-1.3 1.7-22.3 1.3-23.7-.3-1.3-15-7.3-15-7.3l16.3-4.3 19.3 22.3 9-24s-12-15.7-14.7-17.3c-2.7-1.7-22.3-18.3-22.3-18.3l6-21 4.7 10.3s12 7.7 13 7.7 4.3-12.3 4.3-12.3-8.3-19.3-8.3-20.7c0-1.3-2-11 0-15s19-14.3 19-14.3L256 223l15.7 10.7 10.7-41.7s-10.3-20.7-12.3-23.3c-2-2.7-12.3-13.3-12.3-17.7s14.3-28.6 14.3-28.6 2.3 22.5 2.7 22.9c.3.4 22.7 10.1 23.7 10.8s7 51 8 51.3 47.3 27.7 47.3 27.7l-17 103.7m-140.1-33.1s1.7-22 1.7-23.3-20-19.3-20-19.3l2.7 16.7-4.7 26s-26.7 4-26.7 2S143 270 143 270l7-42-14-22.7-5.3 23-15.4 41.7 18 45.3-24.7-9.7L82 310l22 7.7 5 35.7"/></svg>