<svg version="1" xmlns="http://www.w3.org/2000/svg" width="288" height="288"><g fill="#27AAE1"><path d="M131.1 40.7S119 64.7 141.9 78c0 0-14.8.3-18.2-15.2-3.5-15.6 7.4-22.1 7.4-22.1zm0 44.5s5.8 23.4 8.1 54.1l19.7 2.6-24.2 3.7-10.6-58.2 7-2.2z"/><path d="M125.5 118.3c-.7-.9-1.5-2.7-1.9-3.3-.8-1.2-1.8-1.7-2.2-3.2-1.2-4.4 2.7-6.5 6.3-6.9h.8l-1.4-9.5s-9.7 8.8-14.1 19.9l18.4 19.2-5 8.7 7.2-4-2.7-17.9c-2-.2-3.9-1.1-5.4-3zm13.7 27.3l6.2 88H143l-8.3-88zm14.6-2.8s11.9 32 6.4 88.5h-1.3s.2-58.7-6-74.8l-3.9-13 4.8-.7zm-9.8 90.8l-14.5 12.6 12.3 3 5.5-15.6zm14.9-2.3l1.6 19.5 13-5.8-13.3-13.7z"/></g><g fill="none" stroke="#000" stroke-width="2" stroke-miterlimit="10"><ellipse transform="rotate(-14.976 136.817 59.235)" cx="136.8" cy="59.2" rx="13.7" ry="19.4"/><path d="M143 40.1s-9.2 7.4-20.9 6.1m25.5-4.4c-.9.4-9.4 8.9-25.8 7m28.7-1.9s-17.9 7.2-29.8 5.2M136.8 78l2.4 5.3 6.2-1v-6.1"/><path d="M124.1 87.4s17.2-6.8 34.7-5.6c0 0 4.8 35.8 0 60l-24.2 3.7-10.5-58.1zm0 0s-10 14.3-13.8 25.4l22.6 23.6m-16.3-17.2s2.9-9.9 10.5-15.9m-6.3 7.4s8.3 10.1 10.6 16.4"/><path d="M131.3 134.6l-12.2 1.8 7.9 7.6 6.5-4.7m25.4-57.4s14 14.8 18 21.9l-16.4 26m-.1-31.9s7.8 7 11.3 14.1m-6.2-8.2l-4.5 10.4"/><path d="M160.2 132.9l9.1 5.2 4.2-8.3-12.5-.8m-12 15l-1.7 89.6h-3.8l-8.8-88m24.2-3.7s19.1 31.5 2.6 89.4h-2.6s2.1-56.9-9.9-87.8m9.9 87.8l3.5 16.9 11.8-6.1-12.4-10.8m-18.8 2.3l-11.9 8.3 10.1 6.3 6.1-14.6"/></g></svg>