<svg version="1" xmlns="http://www.w3.org/2000/svg" width="288" height="288"><g fill="#27AAE1"><path d="M113 113c1.1.1 7.2.2 7.4-.6.2-.8-2-6.9-2-6.9l-6.9 4.4 1.5 3.1zm-2 17.6c3.1-.2 8.6-3.3 9.3-2.8s1.9-2 1.8 0c-.1 2-.8 6.2-.8 6.2h-8.8l-1.5-3.4zm12.9 11.8s-12.3 52.1-4.8 84.5c0 0 3.6-47.3 3.8-50.8.2-3.6 4.6-30 8.9-32.6l-7.9-1.1zm21.7 1.1s11.4 60.4 10.9 76.6l-16.9-71.9-.8-4.7h6.8zm-24.8 88.4l-13.5 5.5 3.3 3.6 11.6-5.4zm34.4-3s-3.2 2.9-2.5 3.9c.8 1 15.5 9.2 16 8.8s7.2-8.2 7.2-8.2l-20.7-4.5zm-5.8-144.3c-12.6-19.9 1.2-37.2 1.2-37.2s-12.7 1-12.9 17.4c-.3 14.8 9.5 19.1 11.5 19.8.1.1.1 0 .2 0z"/><path d="M136.6 87.4l-9.8 55.5-5.3-1.8s5-52 10.4-54c5.4-1.9 0 0 0 0l4.7.3z"/></g><g fill="none" stroke="#000" stroke-width="2" stroke-miterlimit="10"><path d="M162.4 76.2c-2.8 5.6-7.7 9.1-12.8 8.6-7.5-.7-12.8-9.6-11.8-19.9s7.8-18.1 15.3-17.4c7.5.7 12.8 9.6 11.8 19.9-.2 1.6-.5 3.2-.9 4.7m-22-21.9c.2 0 12.8 1.2 17.9-1.7m-20.8 4.1c.5.2 11.8 2.3 23.1-2.2m-24.7 6.4c1.1-.2 14.2 2.3 26.8-4.8"/><path d="M145 83.2l-1.5 5.1 5.2.9 2.2-4.4"/><path d="M130.1 87.4s13-3 31.5 7.5c0 0-8.3 21.8-12.2 47.8 0 0-17.2 2.3-28-1 .1 0 1.2-33.3 8.7-54.3z"/><path d="M130.1 87.4s-12.7 4.3-21.2 17.2c0 0 10.1 14.5 13.3 24.8m-8.9-19.5s4.9-5.5 12.9-8m-8.2 4s5.7 10.2 5.2 14.2m-2.5 7.6l-11.7.9 3.5 4.8h9.5m36.4-29.1s4.4 11.5 15.4 15.8c0 0 11.5-19.7-2.2-42.7l-1.7 1.5s4.8 18 .8 27c0 0-7.2-8.1-8.7-10.9m8.8 10.9l2.5 12.9m-.6-43.1l-13.6-5.5-.7 2.1 9.4 7.8zm-34.1 67.8s16.7 62.5 18.2 83.9c0 0 .5-65.8-7.3-84.7m-28.1-.3c.4-1-18.9 51.1-.7 87.1 0 0-1.9-67.2 11.5-86m-11.6 86.6c-.2 0-15.3 6.2-15.3 6.2s5.1 4.6 5.4 4.6 10.9-7.1 10.9-7.1l-1-3.7z"/><path d="M156.4 227l-1.7 4.1 15.4 7.5 3.6-6.8z"/></g></svg>