<svg version="1" xmlns="http://www.w3.org/2000/svg" width="288" height="288"><path fill="#27AAE1" d="M153.6 90.3l-28.2 47.3-.9 12.5 31.9-50.4 2.9-2.9-.5-5.9z"/><g fill="none" stroke="#000" stroke-width="2" stroke-miterlimit="10"><path d="M140.1 84.3h4.3c6.6 0 12-5.4 12-12V55.6c0-6.6-5.4-12-12-12h-4.3c-6.6 0-12 5.4-12 12v16.7c0 6.6 5.4 12 12 12z"/><path d="M156.4 65.8s-3.3 1-7.2 0c-3.8-1-5.8-2.8-10.7-1-4.8 1.8-10.5.3-10.5.3m.1-5.5s-5.8 4.2 0 7"/><path d="M133.4 90c-4.9-.4-16.6-6.8-16.6-6.8 1.8-3.7 5.4-39.7 8.7-44.2s16.8-.6 16.8-.6 17.2-3.5 19.1 6.5 4.8 32.6 7.4 36.2c0 0-2.1 8-11.6 9.9"/><path d="M146.2 84.3l-.6 5.5-8.2.2v-6"/><path d="M127.7 90.3s21.3-1.5 31 .7c0 0 11.5 86.9 10.7 117.2 0 0-22.3 11.2-54.3 0 .1-.1 14.9-84.8 12.6-117.9z"/><path d="M127.6 109.6l-12.8 51-14.1-18.7C108.3 120.9 128 90 128 90"/><path d="M108.9 152.7l-10.2 13.6-1-10.8 7.2-8"/><path d="M106.2 156.2l.2 5.5 2.8.1 1.9-6M150.8 90s-21.2 34.6-25.2 44.9l-1.9 16.5L159.4 95l-.5-4.1c-.1 0-5.4-.9-8.1-.9zm-2.3 122.9l2.6 25.4h5.5l2.2-26.8m-31.1 0l3.3 26.8h6.1l1.4-25.2m-1.4 25.2l-21.9 2.5 8.5 10.3 13.4-10.2zm14 0l-1.6 4.5 21.8 8.3 5.2-11.3-19.9-1.5M159.4 91s19.7 30.9 27.3 51.9l-14.1 18.7-10.8-51"/><path d="M182.5 148.5l7.2 8-1 10.8-10.2-13.6"/><path d="M176.2 156.8l2 6 2.7-.1.3-5.5"/></g></svg>