<svg version="1" xmlns="http://www.w3.org/2000/svg" width="288" height="288"><g fill="#27AAE1"><path d="M125.9 29.1s-9.8 25.6 2.8 41.5c0 0-13-2.7-13.4-21-.3-18.2 10.6-20.5 10.6-20.5zm-5.2 46.1l2.9 63.9 15.6 6.4-18.5.6 2.9 94.6-10.6 18.2-12.3-5 20.3-13.5-8-95.4-1-1.1V75.2z"/><path d="M133.4 146.1l10.2 96.1 5.9 17.7-14.8 1 6.1-18.5-12.5-95.2zM119.1 90s26.8 11.9 55.3 2.4v3s-39 13.1-58.4-2.3l3.1-3.1z"/></g><g fill="none" stroke="#000" stroke-width="2" stroke-miterlimit="10"><ellipse cx="128.7" cy="49.6" rx="13.4" ry="21"/><path d="M119.1 32s14 .7 18.7-1.2m-21.7 4.9s18.1 1.8 24.4-1.5m-25.2 4.7s20.7 2.3 26.8-1.5m-18.5 31.7v6.1h9.8l-1-5.3m9.9 30.7c1.4 19.8 3.2 44 3.2 44s-17.5 3.2-33.5 0V75.2h28.5s.4 6 1 14.6"/><path d="M117.5 81.4s27.7 16 57 7.2v6.8s-33.1 12.5-55.3 0m55.3-6.7l2.6-12.2h3v20.8l-5.6-1.3m-33.7-17.1s14.3 5.4 34.9 5m4.3-.2l4.2-.3m.1 6.6l-3.7.3m3.7-7.6l2.6-12.2 3-1v20.8l-5.6-.3zm-37.4 8l-2.4 10.3m13.6-18.1l-3.6 7.8m-11 54.3l2 97.2h-5l-12.2-96.1M113 145l8 95.7h5.2l2.1-93.5m-7.3 93.5l-18.8 11.6 15.8 4.6 8.2-16.2m14.3 1.5l-5.8 16.7h17.8l-7-16.7"/></g></svg>