<svg version="1" xmlns="http://www.w3.org/2000/svg" width="432" height="432"><g fill="#27AAE1"><path d="M255.2 83.4s19.9 25.2-.8 49.1c0 0 16.4-.2 15.9-24.5-.5-23.8-15.1-24.6-15.1-24.6zm12.3 54.8l-4.5 77.5s-17.8 4-21.9 4.2h23.1l3.2 136.1 8 14.1 10.9-5.3-16-8.8 1-136.1 3.4-65.8.8-16-8 .1z"/><path d="M249.8 220L245 356.4l-21.5 10.5 13.1 7 11.7-17.5 6.9-131.6V220zm25.7-73.4l25.1 18 25.2-20.6-25.2 30.5-28.4-21.2zm-88.4-52.4s19.9 25.2-.8 49.1c0 0 16.4-.2 15.9-24.5-.6-23.8-15.1-24.6-15.1-24.6zm7.2 50.8l-4.4 75.6s-17.8 4-21.9 4.2h23.1L202.5 358l-1.9 12.9 16.4-2.4-12.5-14.9-6.3-128.8 6.7-64.7 1.9-14.6-12.5-.5z"/><path d="M203.7 171l9.1 54.7-5.2-72.4z"/></g><g fill="none" stroke="#000" stroke-width="2" stroke-miterlimit="10"><ellipse cx="254.4" cy="107.9" rx="15.4" ry="24.5"/><path d="M244.2 85.5s12.2 2.3 18.8 0m-20.6 3.3c1.1.6 12.9 3.4 23.1.5m-24.4 3.1s12.7 5.4 25.5.7m-17.2 38v7.1h9.4v-6.8m-24.6 6.8h41.3l-4.2 81.8H239z"/><path d="M239 220l2.7 136.4h6.6l6.9-136.4 7.5 136.4h7.6l1-136.4m-29.6 136.4l-20.1 8.6 12.8 6.2 13.9-14.8m14.4 0l10.7 14.8 13-6.3-16.1-8.5"/><ellipse cx="187.9" cy="118.8" rx="14.1" ry="23.4"/><path d="M182.3 139.9c-.1.9-.4 5-.4 5m9.5-3.4v3.4"/><path d="M178.8 144.4c11.5.4 28 1.1 28 1.1l-8.7 79.3H168V144m0 0l-15.5 39.2 1.7 46.5 6-.8 1.8-44.5 6-12.6m-7.8 57.4l4.8 9.3-3.4 2.6-3.2-4.9-1 1.4 1 11.4-6.5-2.8 2.3-16.2m-1.1-46.9l8.9 1.3m44.8-38.9l6 79.3-4.6.9-5.7-40.1"/><path d="M208.2 225.7l-2.3 7.9 3.2 2.2 1.8-3.2 3.7 10.9 7.2-1-9-17.7m-44.8 0l1 128.8h6.2l7.4-128h2.1l12.5 128h7.3l-6.3-128.8M169 353.6l-20 10.6 16.3 4.3 9.9-14.9m22 0l3.4 17.3 16.4-2.4-12.5-14.9m29.7-215.4s-20.4.1-38.2.2m-15.7.1c-6.1 0-10.3.1-10.3.1l-1.3 5.6 1.4 9.4 7.8.7 1.2-12.6m55.1 8.3s-13.7-1.4-27.5-2.8m-34.5 6.4l.3-7m2.6 7l.5-6.8m99.9-8.6l25.1 20.7 23.2-22.5 5.4-4.3H346l-.8 4.3h-8.7l-1.3 7.6h-8.7l-25.3 30.5-26.5-20.3m61.4-16l-7.3-.3m0 2.7l6.4.4m-34.6 17.9l.6 15.6"/></g><path fill="none" d="M253.7 86.2c8-1.1 16.2-.4 23.8 2.1-5.9 1.8-12 3-18.2 3.5 4.6 1.6 8.9 4 12.6 7.1-5.9 2.3-12.1 3.8-18.3 4.3 7 .3 13.9 1.4 20.7 3.3-5.3 3-11.2 4.8-17.3 5.2 5.5 1.5 10.7 3.9 15.4 7.1-4.8 3.1-10.7 4.5-16.4 3.7 4.3 2.1 8.6 4.3 12.9 6.4-5.2 2.5-11.2 3.4-16.9 2.4 3.4 1.3 6.8 2.5 10.1 3.8-1.6 2.6-4.3 4.6-7.3 5.3 11.9.4 23.7.8 35.6 1.3-10 1.4-20.2 2-30.3 1.6 7.4-.2 14.8.5 22.1 2-11.4 1.2-22.6 3.6-33.6 7 19.9 1.4 39.9-2 59.2-7.4-21.5 6.1-42.7 13.3-63.5 21.5 22.3-6.3 44.5-12.7 66.8-19 7.2-2 14.4-4.1 20.9-7.7-27.9 13.1-55.4 26.8-82.6 41.2 27.8-10.6 55.9-21.2 85.4-25.6-27.7 12.4-56.2 23.1-85.2 32 21.8-3.9 43.7-7.8 65.3-12.9-11.7 3.9-23.4 7.8-35.1 11.6-13.2 4.4-26.6 8.8-38.5 16.1 11.6.4 23.2.7 34.8 1.1-13.2 3.9-26.1 8.6-38.7 14.2 16.8 3.3 34.2 3.5 51 .7-17.1 1.1-34 3.7-50.6 7.6 12.1-.6 24.3.3 36.2 2.4-18.5 3.1-37 6.3-55.4 9.4 28.8.2 57.5 2.1 86.1 5.6-23-.9-46-.6-68.9.8 18.3-.4 36.8 2.2 54.3 7.7-16.3 1.8-32.6 4.5-48.6 8.1h34.3c-14.7 1.8-29.1 5-43.2 9.5 17 2.5 34.1 4.9 51.1 7.4-17.8 1.6-35.6 3.3-53.4 4.9 12.8 2.3 25.4 5.1 38 8.4-12 3.9-23.9 7.8-35.9 11.7 13.9 1.1 27.8.3 41.7-.5-15.9 1.7-31.9 3.5-47.8 5.2 19.2 1.5 38.3 5.3 56.6 11.3l-36 9.3c15.1 1.1 30.4 2.3 44.8 6.8-18.2-.5-36.4 1-54.2 4.5 11.5 3.8 22.9 7.6 34.4 11.5-10.9 1.5-21.8 2.9-32.7 4.4 19.3 4.8 38.8 8.6 58.5 11.5-19.1-1.5-38.1-2.9-57.2-4.3-5.8-.4-11.8-.8-17.2 1.3 14.4 3 28.9 5.2 43.5 6.8-14.2-.2-28.5-1.3-42.6-3.3 5.1 2.7 10.2 5.3 15.2 8 1.1 2.6-3.7 4.1-6.5 3.9-10.7-.6-21.3-1.9-31.7-4-1.4-.3-3-.8-3.2-2.2-.2-1.5 1.6-2.5 3-3l9.6-3.3c1.3-.4 3-1.5 2.4-2.8-.3-.6-1-.9-1.6-1.1-5.9-2.1-12-3.3-18.2-3.6-.1-2.7 2.8-4.6 5.4-5.1 2.6-.5 5.5-.3 7.9-1.3s4.3-4.4 2.6-6.4c-.8-.9-2-1.3-3.2-1.7-4-1.2-8-2.5-12-3.7 6.1-3.7 13.1-6.1 20.2-7-6.8-5-15.2-7.2-23.3-9.3 6.6-4.2 14.2-6.9 21.9-8.1-6.1-2.7-12.4-4.6-19-5.8 4.6.2 9.2-2.5 11.2-6.6-5.8-2.2-11.7-3.8-17.8-5 10.2-3.4 21-5.2 31.7-5.3-9.2-2.2-18.4-4.3-27.6-6.5 3.4-2.8 7.4-4.9 11.7-6l-16.5-3c6-.9 11.9-2.8 17.3-5.5-3.1-2.4-6.7-4-10.6-4.7 5.9-2.2 12.1-3.7 18.4-4.3-7-.4-14-1.6-20.8-3.5 5.9-1.5 12-2.2 18.1-2.3-7.4.2-14.8-.9-21.9-3.2 5.7-1.4 11.4-2.9 17.1-4.3-5.1-2.1-10.2-4.2-15.2-6.2 4.8-1.5 9.6-3 14.5-4.5-4.9-.4-9.7-1.7-14.2-3.7 5.8-.5 11.6-2.4 16.5-5.5-9.7-.1-19.4-1.5-28.8-4 4.8-.8 9.7-1.7 14.5-2.5-6.3.9-12.8 1-19.2.1 15.1 0 30.2-2.8 44.3-8.2-15.8 2.5-31.9 2.6-47.7.3 19.6-4 39.1-7.9 58.7-11.9-20.3 1.8-40.7 1.5-60.9-.9 22.3-2.9 44.5-5.9 66.8-8.8-15.2-.3-30.3-2.4-45-6.2 11.6-1.7 23.3-3.3 34.9-5-18.4-.1-36.9-1.8-55-5.1 16.9-1.1 33.7-2.2 50.6-3.3-11-2.2-22-4.4-32.9-6.7 14.2-.9 28.4-1.8 42.7-2.7-11.3-.6-22.5-2.1-33.6-4.4 7.3-1.5 14.6-2.9 21.9-4.4-8.3-1-16.6-2.1-24.9-3.1 6.2-2 12.4-3.9 18.7-5.9-7.6-1.6-15.2-3.2-22.8-4.7 10.4-1.3 20.8-2.7 31.2-4-13.3-1.3-26.5-4.4-38.9-9.4 8.3-1 16.6-2.3 24.9-4-7.9-.6-15.7-2-23.2-4.2 10.4-.8 20.7-2.5 30.9-4.9-12.2.5-24.5-.8-36.4-3.8 15-1.9 29.9-3.8 44.9-5.7l-34.2-3.9 18-.9c-7.6-.6-15.1-3-21.6-7"/></svg>