<svg version="1" xmlns="http://www.w3.org/2000/svg" width="288" height="288"><path d="M98.9 70.1s-11.8 4.8-9 25.3c0 0 4.3 16.3 15.2 15.3 0 .1-20-10.2-6.2-40.6zm-9.5 52.1s-14.3 22.5-3.9 49.7l1.5-.3s-3.4-19.4-1.6-25.5c1.8-6.1 5.1-12.7 5.1-12.7l2.7 45.1 4.2 61.3-14 8.2 11.6 6 7.4-14.2-5-62.5-1.2-52.2-3.4 1.7-3.4-4.6zm22.6 54.9l2.2 62.7 16 10.7-12.9 2.7-6.6-12.6-2.8-63.3zm60.2-86.3l-28.2 48-1.5 12.2 8.4-13.3L177 96.4v-4.9z" fill="#27AAE1"/><g fill="none" stroke="#000" stroke-width="2" stroke-miterlimit="10"><ellipse transform="rotate(-5.987 102.958 90.22)" cx="103" cy="90.2" rx="13.8" ry="20.6"/><path d="M163.7 84.8h-4.3c-6.6 0-12-5.4-12-12V56.1c0-6.6 5.4-12 12-12h4.3c6.6 0 12 5.4 12 12v16.7c0 6.6-5.4 12-12 12z"/><path d="M147.4 66.3s3.3 1 7.2 0c3.8-1 5.8-2.8 10.7-1 4.8 1.8 10.5.3 10.5.3m-.1-5.5s5.8 4.2 0 7"/><path d="M170.3 90.6c4.9-.4 16.6-6.8 16.6-6.8-1.8-3.8-5.4-39.7-8.7-44.2s-16.8-.6-16.8-.6-17.2-3.5-19.1 6.5-4.8 32.6-7.4 36.2c0 0 2.3 7.1 11.8 9M91.9 74.4s9.8-.2 15.3-3.5m-17.8 5.9s9.8 2.3 22.8-4.2m-24 7.4s14 1.7 26.5-3.7m-15.1 33.4l1.3 6.1 7.8-.9v-5.3"/><path d="M157.6 84.8l.6 5.5 8.1.3v-6.1M98 116.1c6.3-.8 15-1.6 20-1l2 61.5s-19 1.5-27.2 0c0 0-1.6-37.3-2.2-52.8m-3.6-4.5s-16.1 25.2-3.8 53.2l3.8-.8s-6.8-26.4 3.9-39.2m-10.7 4.2l5.7 6.5m-2.7 29.3l-.9 7.4 3.6 7.2 5-1.6-3-13.5zm34.9-52.4s13.1 8.8 25.4 8m-25 3.5s13.2 6 25 2.5m-15.2.4l7.6-6.9"/><path d="M146 90.8s21.3-1.5 31 .7c0 0 11.5 86.9 10.7 117.2 0 0-22.3 11.2-54.3 0 .1-.1 14.8-84.7 12.6-117.9zm0 0l-32.8 14.5m32.8-.6l-23.2 18.1m-25.4-14.6l-6 .3-5.6 9.3 7.3 9 6.5-3.6-2-10.5m-2.6 13l-3.7-6.9M95 117l2.4 7.1"/><path d="M169 90.6s-21.2 34.6-25.2 44.9l-1.9 16.5 35.7-56.4-.5-4.1c-.1 0-5.3-.9-8.1-.9z"/><path d="M177 91.5s20.5 26.3 32.2 45.3l-10 21.2-19.5-44.6"/><path d="M206.2 143.1l8.7 6.4 1.2 10.8-12.7-11.3"/><path d="M201.8 152.5l3.1 5.5 2.7-.7-.9-5.4m-114 24.7l5.2 63.2h4.5l2.7-62.5m2.8 0l4.2 62.5h3.5l2.9-62.5m48.2 36.2l2.7 25.3h5.5L177 212m-31.1 0l3.3 26.8h6.2l1.3-25.2m-58.8 27l-14.5 4.2 10.8 5 8.2-9.2zm12.8 0l6.4-.8 14.1 8.7-12.7 2zm44.7-1.8l-21.9 2.5 8.4 10.3 13.5-10.1zm14 0l-1.7 4.5 21.8 8.3 5.2-11.3-19.8-1.5"/></g></svg>