<svg version="1" xmlns="http://www.w3.org/2000/svg" width="432" height="432"><g fill="none" stroke="#000" stroke-width="2" stroke-miterlimit="10"><ellipse cx="254.4" cy="107.9" rx="15.4" ry="24.5"/><path d="M249.4 131.1v7.1h9.4v-6.8m-24.6 6.8h41.3l-4.2 81.8H239z"/><path d="M239 220l2.7 136.4h6.6l6.9-136.4 7.5 136.4h7.6l1-136.4m-29.6 136.4l-20.1 8.6 12.8 6.2 13.9-14.8m14.4 0l10.7 14.8 13-6.3-16.1-8.5"/><ellipse cx="187.9" cy="118.8" rx="14.1" ry="23.4"/><path d="M182.3 139.9c-.1.9-.4 5-.4 5m9.5-3.4v3.4"/><path d="M178.8 144.4c11.5.4 28 1.1 28 1.1l-8.7 79.3H168V144m0 0l-15.5 39.2 1.7 46.5 6-.8 1.8-44.5 6-12.6m-7.8 57.4l4.8 9.3-3.4 2.6-3.2-4.9-1 1.4 1 11.4-6.5-2.8 2.3-16.2m-1.1-46.9l8.9 1.3m44.8-38.9l6 79.3-4.6.9-5.7-40.1"/><path d="M208.2 225.7l-2.3 7.9 3.2 2.2 1.8-3.2 3.7 10.9 7.2-1-9-17.7m-44.8 0l1 128.8h6.2l7.4-128h2.1l12.5 128h7.3l-6.3-128.8M169 353.6l-20 10.6 16.3 4.3 9.9-14.9m22 0l3.4 17.3 16.4-2.4-12.5-14.9m29.7-215.4s-20.4.1-38.2.2m-15.7.1c-6.1 0-10.3.1-10.3.1l-1.3 5.6 1.4 9.4 7.8.7 1.2-12.6m55.1 8.3s-13.7-1.4-27.5-2.8m-34.5 6.4l.3-7m2.6 7l.5-6.8m99.9-8.6l25.1 20.7 23.2-22.5 5.4-4.3H346l-.8 4.3h-8.7l-1.3 7.6h-8.7l-25.3 30.5-26.5-20.3m61.4-16l-7.3-.3m0 2.7l6.4.4m-34.6 17.9l.6 15.6"/></g></svg>