<svg version="1" xmlns="http://www.w3.org/2000/svg" width="432" height="432"><g fill="#27AAE1"><path d="M179.8 72.4s-21.2 25.8 1.1 49c0 0-14.1-.8-15.3-22.4s11.9-26.6 14.2-26.6zm-11.6 54.8l4.3 76.8 20.5 5-17.5.7-4.7 135.7-11.1 13.8-9.8-4.8 14.9-9.2-.9-136.2-4.1-81.8z"/><path d="M180.1 209l6.8 136.4 15.3 16.6 10.6-4.5-20.6-12.1-6.9-136.1zm-19.5-65.8l-9.9 24.9 1 47.8s2.3.1 2.2 0 1.8-46.3 1.8-46.3l6-13.7-1.1-12.7z"/></g><g fill="none" stroke="#000" stroke-width="2" stroke-miterlimit="10"><ellipse cx="180.9" cy="96.9" rx="15.4" ry="24.5"/><path d="M191 74.5s-12.2 2.3-18.8 0m20.7 3.2c-1.1.6-12.9 3.4-23.1.5m24.4 3.2s-12.7 5.4-25.5.7m17.1 38v7.1h-9.4v-6.8m24.7 6.8h-41.3l4.1 81.8h32.4zm-41.3 0l-15.8 38 3.5 50.7h6.4l1.9-46.3 5.3-15.5"/><path d="M153.8 215.8l4.5 7.8-3.5 2-3.6-3.8-.9 16.5-7.2-6.9 4.4-15.6m8.3-46.2l-11.8-4.4m52.3 43.8l-2.7 136.4h-6.7L180.1 209l-7.5 136.4h-7.7l-1-136.4m29.7 136.4l20.1 8.6-12.8 6.2-14-14.8m-14.3 0l-10.7 14.8-13-6.3 16-8.5"/><ellipse cx="247.4" cy="107.8" rx="14.1" ry="23.4"/><path d="M253 128.9c.1.9.4 5 .4 5m-9.5-3.4v3.4"/><path d="M256.4 133.4c-11.5.4-28 1.1-28 1.1l8.7 79.3h30.2V133m0 0l15.5 39.2-1.8 46.5-6-.8-1.7-44.5-6-12.7m7.7 57.5l-4.7 9.3 3.4 2.6 3.2-4.9 1 1.4-1 11.4 6.5-2.8L281 219m1.2-46.9l-8.9 1.3"/><path d="M228.4 134.5l-6 79.3 4.7.9 5.7-40.1"/><path d="M227.1 214.7l2.3 7.9-3.2 2.2-1.8-3.2-3.7 10.9-7.2-1 8.9-17.7m44.9 0l-1 128.8H260l-7.3-128h-2.1l-12.6 128h-7.2l6.3-128.8m29.2 128.8l20 10.6-16.4 4.3-9.9-14.9m-22 0l-3.4 17.3-16.3-2.4 12.5-14.9m-29.7-215.4s20.4.1 38.2.2m15.6.1c6.1 0 10.3.1 10.3.1l1.3 5.6-1.4 9.4-7.8.7-1.2-12.6m-55 8.3s13.7-1.4 27.5-2.8m34.5 6.4l-.3-7m-2.6 7l-.5-6.9"/></g><path fill="none" d="M172.5 72.1c5.2 1.3 10.5 2 15.9 2.2-7.2.5-14.4 2.1-21.1 4.9 6.2.1 12.4.2 18.6.4-8.2 2.5-16.4 5.1-24.5 7.6 7.5.4 14.9.8 22.4 1.2-7 3.3-14 6.5-21 9.8 5.2.2 10.5.3 15.7.5-4.6 2.5-9.6 4.4-14.8 5.5 6 .8 12 1.7 18.1 2.5-7.3 1.8-14.6 3.7-21.9 5.5 7.9.3 15.7.6 23.6.8-8.8 1.9-17.6 3.9-26.4 5.8 8.2 1 16.5 2 24.7 3-11.2 2.9-22.4 5.9-33.6 8.8 10.9 1.2 21.9 1.5 32.9.9l-40.2 12.6c12.8-.8 25.7-1.7 38.5-2.5-9.5 7-19.9 12.6-31 16.6 10.2-.2 20.5.2 30.7 1.2-11.7 5.2-24 8.9-36.6 11.2 12.3.4 24.7.8 37 1.2-12.7 3.9-25.4 7.8-38.2 11.7 13.9 2.2 28.1 2.8 42.2 1.9-13.5 2.6-26.9 5.1-40.4 7.7 12.2-.4 24.4 0 36.5 1.3-13 3.3-26.1 6.7-39.1 10 20.7.3 41.5.6 62.2 1h-56.8c-2.3 0-5.1.3-6 2.5 17.7-.4 35.3 4.3 52.9 6.8-8 1.2-15.4.6-22.9 3.6-7.6 3-15.2 6.1-22.8 9.1 19.8 1.1 39.6 1.6 59.4 1.6-17.4 1.7-34.8 3.3-52.2 5 10 .9 19.9 1.8 29.9 2.6-11.4 7.1-24.3 11.9-37.7 13.9 11.8.5 23.6.8 35.5.9-10.9 3.1-21.9 6.2-32.8 9.4 18 .4 36 1.3 53.9 2.8-16.5 2.7-33.2 4.6-49.9 5.5 10-.7 30.4 6 40.2 8.1-9.6 2-30.2-1.5-36.7 5.9 16 2 31.9 4 47.9 6.1-19.7 1.5-39.4 3.1-59.1 4.6 13.6 2.1 27.1 4.1 40.7 6.2-10.3 2.8-20.6 5.6-31 8.3 11.8 1.8 23.8 2.5 35.8 2.2-9.7 2.7-19.3 5.5-29 8.2 8.4 3.3 29.8 2 38.7.6-7.3 1.8-26.8 5.9-34.1 7.7 11.8 1.3 23.5 3.5 35 6.6-10.9 2.6-21.9 5.1-32.8 7.7 7.9.7 15.9.7 23.9.1-10.9-1.5-31.2 8-40.5 13.9 13.5 1.5 35.8-4.9 49.4-5.3-9.5 0-18.9 1.5-27.9 4.4-2 .6-4.4 1.8-4.4 3.9 16.5 1.6 33.3.7 49.5-2.7 1.9-.4 4.4-1.8 3.8-3.6"/></svg>