<svg version="1" xmlns="http://www.w3.org/2000/svg" width="432" height="432"><g fill="#27AAE1"><path d="M160.2 69.3s-19.3 21.1-3.9 46.3c0 0-15.1-6.4-12.8-23.2s10.7-22.5 16.7-23.1zm-12.4 51.8L138 206l17.2 6.2h-12s-12 115.8-21.8 131.5l23.7 14.2-15.2 6.5-13-20.8s11.8-72.2 12.3-101 2-34.5 2-34.5l9.2-88.2 7.4 1.2z"/><path d="M153.4 212.7S165 302 164.2 342l21.3 13.5-13.1 5.5-11.6-19s-4.4-51.3-4.8-55.1c-.4-3.9-6.1-44.6-6.1-44.6l-2.4-5.5 1.7-17.8v-6.4l4.2.1z"/></g><g fill="none" stroke="#000" stroke-width="2" stroke-miterlimit="10"><ellipse transform="matrix(.07653 -.9971 .9971 .07653 55.66 245.29)" cx="160.2" cy="92.6" rx="23.4" ry="16.7"/><path d="M151.2 69.8s12.7 4.7 21.3 2.7m-23.8.5s13.5 6.8 25.7 3.3m-29.2-.1s14.8 9 31.5 4.2m-24.4 33.3l-1.1 7.6 9.7 1 .6-6.5m5.2 52.6c-2.9 21.9-5.8 43.9-5.8 43.9s-21.9 1.5-29.7-4l9.2-88.2 32 4.8s-1.8 13.6-4 30"/><path d="M131.2 208.2s-5.8 119.5-13.5 135.5h6.8s27.2-102.9 24.5-131.3"/><path d="M160.9 212.2S171 320 167.7 342h-6.8s-6.6-92.9-13.1-107.3M117 343.8c.3.8 13.8 18.1 13.8 18.1l14.7-6.3-21-11.8m36.4-1.8l13.3 17.5 14-6.7-20.5-10.8m-14.3-208.7l20.7 30 39.4 4.9s.9.3 2.2.6"/><path d="M219.5 169.9c3.2.9 6.5 1.8 6.5 1.8l-4 10.7-10-5.3s-41-2.7-41.8-3.8c-.8-1.2-25-30-25-30m28.9 20l-3.9 9.9"/><ellipse transform="matrix(.9971 -.07653 .07653 .9971 -6.309 21.184)" cx="273.2" cy="92.9" rx="16.7" ry="23.4"/><path d="M281.2 114l1.1 7.6-9.7 1-.6-6.5m-5.1 53.3c2.9 21.7 5.7 43.1 5.7 43.1s21.9 1.5 29.7-4l-9.2-88.3-32 4.8s1.8 13.8 4 30.4"/><path d="M302.2 208.6s5.8 119.5 13.5 135.5H309s-27.2-102.9-24.5-131.3"/><path d="M272.6 212.6s-10.1 107.8-6.8 129.8h6.8s6.6-92.9 13.1-107.3m30.8 109c-.3.8-13.8 18.1-13.8 18.1l-14.7-6.3 21-11.8"/><path d="M272.6 342.3l-13.3 17.5-14-6.7 20.5-10.8m14.3-208.7l-20.7 30s-34.2 2.6-36.7 2.9"/><path d="M224.4 177.3c4.9-.3 38.2-2.7 38.9-3.8.8-1.2 25-30 25-30m-28.9 20.1l3.9 9.9m-39.4-6l-3-3.4s-7.5 6.1-7.1 6.4 3.1 2 3.1 2l4.2-4"/></g></svg>