<svg version="1" xmlns="http://www.w3.org/2000/svg" width="288" height="288"><g fill="#27AAE1"><path d="M133.1 24.5s-14.8 28.7 3.1 41.5c0 0-15.1-2.4-14.1-21.9s11-19.6 11-19.6zM119.8 71c.5 1.8 0 63.3 0 63.3l21.3 5.5h-19L114.3 246l-6.2 18.3-13.2-3.5 16.3-14.8 1.3-107.8-1.3-1.5 3-65.9 5.6.2z"/><path d="M140.1 139.9l1 106.1 21 9.3-11.8 10.8-11.9-18.6-5.5-107.7zm-26.2-59.3s-20.6 25-16.9 59.3h2.1s2.1-39.4 14.2-46.9l.6-12.4z"/></g><g fill="none" stroke="#000" stroke-width="2" stroke-miterlimit="10"><ellipse cx="137.1" cy="45.2" rx="14.1" ry="20.8"/><path d="M125.3 28.4s14.3 1.6 21.5-2.1M123 32.5s17.5 3.5 27-1.8M120.7 36s16.9 4.8 30.5 0m-21.8 26.2l-1 9.1m11-5.6v5.6m-24.3-.4s27.2.5 33.9 1.9v66.7s-25.6 1.6-36.9-1.6l3-67z"/><path d="M115.1 70.9s-26.6 14-20.5 69h5.3s2.8-38.5 14.3-48.6m-20.5 49.4l7.4-.8 6.4 6.3-3.1 3.3 3.1 8.3-15.2-2.6zm2.1-37.4l8.6 6.4m44.7-29.1s5 19.4 25.3 17.5m-25.3 2.4s11.7 10.9 30.6 5.8m-3.8-13.2c-.5.5-1.6 6.1-1.6 6.1l8.1 2.1 1.7-4.1-8.2-4.1z"/><path d="M180.4 101.2v5.3s13.5 4.4 13.5 3.2V95.5l-11.3.9m-16.2 1.8l-2.9 9.1m17.4-11.8l-1.6-13.9 14.6-1-1.9 14.9m-10.4 11.8l-7.3 13.1 16.2 1.8v-12.5"/><path d="M189.8 90.2l.8-2.3-.9-2.9-3.2.6.5 4.7-2.7 1.3-.5-1.9-.4-4m8.4 1.6l-10.3 1.6m5 29.6l1.3-2.1-.1-3-3.2-.2-.8 4.7-2.9.4v-1.9l.6-4m7.8 3.8l-10.4-1.2m-65.3 23.3L112.1 246h5.7L132 139.9h1.8l5.5 106.1h5.7l3-106.4M112.1 246l-14.3 12.1 14.3 4.5 5.7-16.6m21.5 0l12.5 16.6 13.1-9.9L145 246"/></g></svg>