<svg version="1" xmlns="http://www.w3.org/2000/svg" width="432" height="432"><path fill="none" stroke="#000" stroke-width="2" stroke-miterlimit="10" d="M110.7 225.9c2-18.9 20.3-33.7 42.6-33.7 22.4 0 40.8 15 42.6 34"/><path fill="none" stroke="#000" stroke-width="2" stroke-miterlimit="10" d="M106.5 226.1h94.2v8h-94.2z"/><path fill="none" stroke="#000" stroke-width="2" stroke-miterlimit="10" d="M369.7 253.9h-11.8v-49.8c0-.8-30.2 0-30.2 0v50.1h-10.1l-6.4-6.4v-24.2h-24.5v32.5h-6L270.2 243h-6.8v16.1h-10v-19.3h-4.5v-3.2c0-3.8-4.6-6.8-10.4-6.8s-10.4 3.1-10.4 6.8v5.4h-3.2v-5.4c0-3.8-4.6-6.8-10.4-6.8s-10.4 3.1-10.4 6.8v4.9l-8-.2V234M148 192.2l2.4-10.1h6.3l1.8 10.3m-5.2-10.3v-17.6m-4.7 6h9.4m-83.4 40.8v9.4l4.5 5.1v21.6h-8.9v18.4m40.8-31.7v25l-12.9 6.7v-18.4h-9.5v-21.6l4.5-5.1v-9.4m-27.1 0h36.3L89 202.2h-9.7zm18.1-33.7c-2.3 0-4.1 1.8-4.1 4.1v7h8.2v-7c0-2.2-1.8-4.1-4.1-4.1zm0-6v6"/><circle fill="none" stroke="#000" stroke-width="2" stroke-miterlimit="10" cx="84.1" cy="170.2" r="2.2"/><path fill="none" stroke="#000" stroke-width="2" stroke-miterlimit="10" d="M77.6 188.8h13.1v3.3H77.6zm2.4 2.5v10.3m8.2-10.3v10.9"/></svg>