<svg version="1" xmlns="http://www.w3.org/2000/svg" width="288" height="288"><path d="M94 120.5c.7 1.1 1.7 2.3 2.6 3.5.9.3 1.9 2.6 3 2.7.9.1 1.9-1.9 2.8-2l.6-.6 4.9-14.6s-6.6 4.4-15.8 9.5c.6.2 1.3.7 1.9 1.5zM83 136l-.7-.8c-.5-.5-.8-1.2-.9-1.8-1.4-2.4-2.6-4.7-3-7.6-5.8 2.6-11.8 4.8-17.4 6.1l-7 12.5s14.5-2 29.2-8.2c0-.1-.1-.1-.2-.2z" fill="#27AAE1"/><g fill="none" stroke="#000" stroke-width="2" stroke-miterlimit="10"><path d="M101.3 92l-3.9-1C91 89.3 87.2 82.7 89 76.3L93.2 61c1.7-6.4 8.3-10.2 14.7-8.4l3.9 1c6.4 1.7 10.2 8.3 8.4 14.7l-4.1 15.3c-1.8 6.3-8.4 10.1-14.8 8.4z"/><path d="M90.6 70.6s5.8 2.9 10 2.6c4.2-.3 9.5 1.5 9.8 3.2.3 1.7 6.7 3.4 6.7 3.4M92 65.4s-4.1-1.4-5.3 2.3c-1.2 3.7 2.2 6.4 2.2 6.4"/><path d="M101.5 99.4c6.2 1.1 12.9 1.2 19.6-.4 0 0-1.9-13.2 1.9-24.9s5.8-26.2-9.5-29.6c0 0-22.5-10.8-36.1 20.7 0 0-8 17.9-9.5 18.8 0 0 5.8 4.7 14.7 9.1"/><path d="M93.5 89.1l-2.9 5.5 10.1 5.4 1.7-7.8"/><path d="M94.4 150.1c-1.4 4.4-2.4 7.2-2.4 7.2s21.5 21.1 23 60.2c0 0-32.5 10.2-57.2 0 0 0 .8-46.7-8.8-64.2l34.6-61.6s18.6 7 25.2 14.8c0 0-3.7 11.2-7.7 23.1"/><path d="M83.8 102.7s16 38 40.9 41.4l-3.1 21.3s-41-12-44.9-48"/><path d="M123.7 154h9l3.5 3.6 10.7-3.1-1.1-11.4-21.6 1.3m2.9 9.6l-5.2 9.5m-14.1-54s1.8 31 21 32.2m-22.1-36.5s-6.6 5-15.3 10.3M78 122.8c-5.1 2.4-10.2 4.2-14.5 4.7m39.5-3.3s-1.7 1.3-4.6 3.3m-15 8.5c-8.3 3.9-18.5 7.5-29.4 8.4m14 76.7l1.5 16.1h4.6l2-15.2m20-.7l3.5 15.9h5l1.7-17.6m-36.8 17.6c-.2 2 19.3 14.7 19.3 14.7l7.5-10.3-22.2-4.3"/><path d="M99.6 237.2l16.2 12 10.5-8.4-22.6-3.6"/><ellipse transform="rotate(-72.656 179.002 151.151)" cx="179" cy="151.1" rx="15" ry="10.6"/><path d="M186.5 159.7s12.8 18.6 12.8 54.3c0 0-18.8 7.8-35 0 0 0 7.1-11.8 8.6-30.1m0-12c-.2-2.5-.4-5.1-.9-7.8m15 5s-24.3 11.3-41.5-14m-5.7 1.8c4.3 8.7 19.2 33.9 43.2 25.2m-40-39l-4.5-6-9.7 2.5s.3 2.8.5 5.3m17.6 9.6s14.1 15.2 25.4 11.2"/><path d="M177.2 217.5l-13 22.6s33.5 1.5 54.5-15.5v-3.8l-29 4 9.5-10.8m-33.6 1.6l-13.5 15.3s5.2 5 15 4.1"/><path d="M216.4 221.1c-.1-1.1 1.4-5.6 1.4-5.6l18.8 9.8-14 3.1-4.9-3.1"/></g></svg>