<svg version="1" xmlns="http://www.w3.org/2000/svg" width="288" height="288"><path fill="#27AAE1" d="M141.4 88.4l-33.9 40s-1.5 13.7-.5 12.5 43.8-49.1 43.8-49.1l-9.4-3.4z"/><g fill="none" stroke="#000" stroke-width="2" stroke-miterlimit="10"><path d="M127.2 80.2h5.2c6.6 0 12-5.4 12-12V52.3c0-6.6-5.4-12-12-12h-5.2c-6.6 0-12 5.4-12 12v15.9c0 6.6 5.4 12 12 12z"/><path d="M144.4 59.6s-8.9 2.5-12.3 1.4c-3.3-1.2-6.8-1.7-11.8 0s-5.1-1.8-5.1-1.8m29.2-2.7s6.8 2.6 0 7.9"/><path d="M106.1 90.4c-2.2-.6-4.3-1.3-4.3-1.3 8.2-7.8 5.3-43.8 8.8-51.8s19.1-4.8 19.1-4.8 17.7-3.3 19.9 8.2c1.9 10 1.4 36.5 4.2 45.6l-10.7 3.5"/><path d="M125.6 80.6c-.6-.5 0 6.5 0 6.5l10.1.3v-6.8c-.1 0-7.8 1.9-10.1 0z"/><path d="M109 88.1s27.7-3 42.3 2.7c0 0-9 90.5 11 138.3 0 0-44.7 14.2-70.3-10.8 0 0 15.7-74 15.7-83.3s1.3-46.9 1.3-46.9z"/><path d="M108.2 88.4l-25.1 56 17.2 9.2s7.5-39 7.8-41.9m-12.6 40.1l-3.5 8.4-8.1 5-3.5-1.4 8.1-16.2"/><path d="M95.6 151.1l2.5 6.1-.8 3.5-1.3.3-2.9-4.4m58.2-65.8l48.6-.6v39.2L150 107.5"/><path d="M197.2 90.2h4.2l2-20.3 4.8 4.5.3 23.5h-7.7M138 88.4l-30.4 37.8-.6 14.7 43.8-49zm-23.5 143.1l2.8 12.8h1.7l2.8-11.8m21.3 1l-2.8 12.8h-1.7l-3.1-13.2m-18.3 11.2L95 247.1l8.7 9 16.5-9zm23.2 2l22.2 2.9-8.7 9-16.5-9z"/></g></svg>