<svg version="1" xmlns="http://www.w3.org/2000/svg" width="432" height="432"><path fill="#27AAE1" d="M263 148.7s-26.4 53.7-52.9 72.1l-4 35.3s69.4-49.3 65.5-83.1c-.3-2.2-1.4-23.5-1.4-23.5l-7.7-2.6"/><g fill="none" stroke="#000" stroke-width="3" stroke-miterlimit="10"><path d="M256.5 135.4l-21.1.9c-6.6.3-12.2-4.9-12.5-11.5l-1.8-40.1c-.3-6.6 4.9-12.2 11.5-12.5l21.1-.9c6.6-.3 12.2 4.9 12.5 11.5l1.8 40.1c.3 6.6-4.9 12.2-11.5 12.5z"/><path d="M222.2 108.2s10.4 1.7 16.6-.9c6.2-2.5 15.3-2.3 16.6.1s11.9 1.9 11.9 1.9m-45.5-9.9s-7-.1-7 6.1 7.3 8.7 7.3 8.7"/><path d="M253.1 146.9c10.1-1.4 20.4-4.4 29.8-10.2 0 0-9.3-19.4-9.3-39.1.1-19.7-4-43.1-29-40.8 0 0-39.8-5.5-45.3 49.4 0 0-3.5 31.5-5.4 33.5 0 0 12.2 6.7 28 9"/><path d="M234.6 136.3v10.6h18.5v-11.8"/><path d="M216.7 149.5s36.3-6.6 53.6 0c0 0 8.1 140.8 14.2 181.6 0 0-47.4 17.7-85.7 0l17.9-181.6zm-.1.4c-9.5 3.5-20.3 7.5-20.3 7.5L155.6 216s20.4 21.5 35.7 23.1l15.3-55.3s2.8-1.5 6.6-3.6"/><path d="M165 225.6c-.5 1.4-9.4 20.2-9.4 20.2l4.7 18 13.3-19.1 2.7 7.8 6.4-3.8-2.7-13.6m141.8-27.6c8.5 1.2 24 3.5 24 3.5l-3.7 7.1-13.1 1.4 9 6.1-4.6 5.3-13.2-6.9"/><path d="M271.3 165.5c11.5 11.4 33.8 32.3 49.7 36l-1 45.6s-28-12.7-46.1-40.2M259 147s-23.1 41.4-49.1 68.6m61.8-42.6c.1 1.4-30.6 57.3-65.3 79.4m7.5 84.9c-2.7 7.4-9.3 25.5-9.3 25.5h7.6s13.2-12 21.2-24.3m17.9.5l18.7 25.4h9.1l-6.4-30.1M205 363.4c3.6 0 37.6 6.3 37.6 6.3l-18.8 10.6-18.8-16.9zm64 1h38.1l-10.5 11.1-27.6-6.3z"/></g><path fill="none" d="M258.5 147.9c5 .4 10.1.8 15.1 1.2-5.6.4-11.2.8-16.8 1.3 6.2 2.4 12.6 4.1 19.2 5.1-7.9-.5-15.7-1-23.6-1.6 7.5 2.9 15.3 5.2 23.2 7-9.7-1.5-19.3-3-29-4.5 9.8 3.2 19.1 7.9 27.5 13.8-8.4-2-16.9-4-25.3-6 9.2 2.9 17.8 7.7 25.1 14-8.2-4.5-17.3-7.5-26.5-8.7 9.1 4.9 18.3 9.8 27.4 14.7-11.4-3.1-22.6-7.1-33.4-11.8 9.2 7.5 19 14.2 29.4 19.9-9.2-5.8-19.8-9.5-30.6-10.8 6.9 5.6 18.3 12.4 25.6 17.5-9.7-7-24.7-14-36.1-17.9-.7 2.5 1.7 4.6 3.8 6.1 9.4 6.3 18.9 12.7 28.3 19-9.2-6.5-19.8-11-30.8-13.1 5.5 9 13.3 16.5 22.5 21.7-10.4-6.2-21.7-11-33.3-14.3 7.5 10.7 22.5 12.9 32.5 21.3-11.8-3.6-23.6-7.3-35.4-10.9 3.6 7.2 9.5 13.2 16.7 16.9-6.5-7.3-15.1-12.8-24.5-15.7 7.2 9 15.5 17 24.8 23.7-10.7-4.9-21.8-9-33.2-12.1 6.8 7.1 14.7 13.3 23.3 18.1-8-6.3-16.9-11.5-26.2-15.5 5.7 9.2 13 17.4 21.5 24.1-9.7-4.8-19.1-10.1-28.2-16 7.2 7.9 15.4 14.8 24.3 20.5-3.6.5-7-1.2-10.2-2.9-5.5-2.8-11-5.7-16.6-8.5-.7-.3-1.5-1-1.2-1.7.2-.7 1.6.3.8.4"/></svg>