<svg version="1" xmlns="http://www.w3.org/2000/svg" width="288" height="288"><path d="M115.1 142.7c-2-1.8-4.1-4.4-5.3-6.9-5.3 6.6-10.7 12-15.2 14.2l-2.7 17.6 24.6-23.9c-.4-.3-.9-.6-1.4-1zM135 98s-5.5 9.9-13 21.1c.7.1 1.3.4 1.9 1 2 2.1 3.8 4 6.7 4.4l5.8-7.9.6-18.6h-2z" fill="#27AAE1"/><g fill="none" stroke="#000" stroke-width="2" stroke-miterlimit="10"><path d="M125.2 87.3l-4-.2c-6.6-.4-11.7-6-11.3-12.6l.9-15.8c.4-6.6 6-11.7 12.6-11.3l4 .2c6.6.4 11.7 6 11.3 12.6l-.9 15.8c-.4 6.6-6 11.7-12.6 11.3z"/><path d="M110.2 68.7s6.3 1.6 10.3.5c4-1.2 9.6-.5 10.3 1 .7 1.6 7.3 1.9 7.3 1.9m-27.6-8.9s-4.3-.5-4.7 3.3 3.5 5.8 3.5 5.8"/><path d="M126.9 94.4c6.3-.2 12.9-1.5 19-4.5 0 0-4.6-12.6-3.4-24.7 1.2-12.2.1-26.9-15.5-27 0 0-24.3-5.8-31 27.8 0 0-4.1 19.2-5.4 20.4 0 0 13.5 5.1 23.1 7.4"/><path d="M117 87.1l-1.5 6.2 11.4 1.1-.5-6.5m9 66.1c-.4 28.7 0 59.3 3.1 67.5 0 0-28.2 6.6-54.2-4.2l18.9-123.1s18.9-1.6 33.9 3.9c0 0-.6 13.1-1.1 30.8"/><path d="M109 98.9s14.8 35.5 45.8 34.2v26.5s-49.7-6.7-51.9-42.7m52 20.7l9.6-3.6 12.6 3.6v9h-13.5l-8.7-1.4m-22.6-48.3s-5 8.3-12.3 18.8m-12.4 16.7c-4.1 5.1-8.3 10-12.5 14.2m-3.2 21s13.1-11.3 25.3-24.7m14-17.5c2.3-3.5 4.2-7 5.3-10.1M101.2 222l1.3 16.3h5.6l3.3-15.1m9.8.2l1.5 14.2h5.8l1.2-14.8m-21.6 15.5l13.7 14.3-15.5 1.2-3.8-15.5m20.2-.7l7 12.8 14.2-5.3-15.4-7.5"/><ellipse transform="rotate(-76.054 170.586 76.265)" cx="170.6" cy="76.3" rx="18.6" ry="13.1"/><path d="M164.7 93l-.2 5m10-5.5l.9 5m-22.8 35.8v-32.1s3.1-2 8.4-3.3h20.6M137 98c.9-.3 25 0 25 0m-25.5 12.1l9.8 5.2"/><path d="M180.2 98l4.6 11.4s5.7.7 6.1.7c.4 0 1.8-12.1 1.8-12.1s-7.8-1-8.5-1.1l-4 1.1zm5.4 11.4v-6.8m3.4 7.6v-7.6m0 7.6c0 17.1 2.9 57.4 2.9 57.4s-28.6 3.4-40.8 0c0 0 1.5-6.5 1.5-8.2"/><path d="M191.5 107.6c3.4 11.1 8.8 34 7.6 56.4l-5 1.1s-1.4-15.8-4.4-32.6"/><path d="M194.2 165l-2.2 7.6 2.2 2.3V185l7.6-4.9-2.7-16.2m-43.9 4.4c1.1 17.3 4.4 68 4.4 68h6.4s3.3-49.6 4.5-67.3m2.1.1c2.1 17.5 8.2 67.3 8.2 67.3h5.4s1.9-49.1 2.6-68m-29.2 68l-15.7 13 19 3.2 3.1-16.2m14.8 0l3.6 17.4 17.4-5-15.6-12.4m-33.6-107.1c-.5 1.1-1 2.3-1.5 3.5m-7.6-.9c1.6-10.1 3.9-18.7 5.6-24.3 0 0 1.8-5.4 3.6-6.3m-11.3 55.1v6.8l4.9 1.2 1.2-6.3m-1.1 6.9l2.3 7.6-2.3 2.3V185l-7.6-4.9 2.7-16.2"/></g></svg>