<svg version="1" xmlns="http://www.w3.org/2000/svg" width="612" height="792"><path fill="#27AAE1" d="M333.7 342.2c-3.1 2.5-40.4 46.6-40.4 46.6s-1.5 16.1 0 14.9 50.3-59.2 50.3-59.2l-9.9-2.3z"/><path fill="none" d="M323.7 341l34.1.9c-14.6 1.4-29.3 1.3-44 1.2 11.3 2.5 22.9 3.6 34.5 3.2-10.9.8-21.7 2.4-32.4 4.8 10.5.6 21 1.2 31.5 1.9-13.1-.1-26.2.4-39.3 1.6.5 1.8 2.8 2.2 4.7 2.2 7.1.2 14.2.3 21.3.5-10 0-20 .6-29.9 1.9 9.4 4 20.2 1.2 30.3 2.6-14.1.3-28.2 1.9-42 4.9 12.3 1.5 24.7 2.3 37.1 2.6-12.2 2-25.1-.6-37 3 10.9 1.8 22 2.3 33 1.7-12 .6-24 1.3-35.9 1.9 9.4.6 18.7 1.2 28.1 1.7l-32.7 6.3c9.9.9 19.8 1.7 29.7 2.6-7.3 1.2-14.6 2.5-21.9 3.7 6.3-1 12.8-1.4 19.2-1.1-8.8 2-17.8 3.5-26.8 4.4 6.4-.4 12.9-.5 19.3-.4-6.8.5-13.6 1.8-20.1 4 10.1 2.4 20.7 2.9 31 1.3"/><path fill="none" stroke="#000" stroke-width="2" stroke-miterlimit="10" d="M324.7 330h-12.4c-5.9 0-10.8-4.9-10.8-10.8v-24.9c0-5.9 4.9-10.8 10.8-10.8h12.4c5.9 0 10.8 4.9 10.8 10.8v24.9c0 6-4.9 10.8-10.8 10.8z"/><path fill="none" stroke="#000" stroke-width="2" stroke-miterlimit="10" d="M301.4 306s6.8 3.1 10.7 1.8c3.9-1.4 8-1.9 13.8 0s9.6-2.2 9.6-2.2"/><path fill="none" stroke="#000" stroke-width="2" stroke-miterlimit="10" d="M290.5 337.1c3.2-10.5 2.7-41.5 4.9-53.2 2.5-13.4 23.2-9.5 23.2-9.5s18.2-3.7 22.3 5.6c4.1 9.3.8 51.3 10.3 60.5 0 0-3.3 1-5.8 1.7m-44-39.7s-7.9 3.1 0 9.3m34.7-9.3s7.9 3.1 0 9.3"/><path fill="none" stroke="#000" stroke-width="2" stroke-miterlimit="10" d="M313.5 330.5c-.7-.6-.1 7.6-.1 7.6l11.8.3v-8c.1.1-8.9 2.4-11.7.1z"/><path fill="none" stroke="#000" stroke-width="2" stroke-miterlimit="10" d="M296.5 339.4s32.3-3.5 49.4 3.1c0 0-10.5 105.6 12.8 161.4 0 0-52.1 16.5-82.1-12.6 0 0 18.3-86.3 18.3-97.2s1.6-54.7 1.6-54.7z"/><path fill="none" stroke="#000" stroke-width="2" stroke-miterlimit="10" d="M330.3 339.6l-35.4 44.2-.7 17.2 50.6-57.5zm-69.7-39l-13.6 13 27.9 45 20-4.8 1.6-14.4-13-4.9-2.9-33.9-9.5-3.5"/><path fill="none" stroke="#000" stroke-width="2" stroke-miterlimit="10" d="M263.3 288.8l-5.4-8.7 6.4-25.9h2.3V269s4.5 4.9 5.1 4.5c.6-.4 3.3-1.9 3.3-1.9l1.7 4.3-7.8 13 4.1 15.4-5.7 7.5-7.3-3.8 3.3-19.2z"/><path fill="none" stroke="#000" stroke-width="2" stroke-miterlimit="10" d="M259.9 271.4l8.6 4 1.1 5m-10.9-4l5.5 2.8 1 4.3M374.3 401l-23.2 14.4-6.7-51.5 2.1-19.1zm-14.4 9.9l5.7 9.7 10.2 4.4 3.8-2.2-12.2-17.3"/><path fill="none" stroke="#000" stroke-width="2" stroke-miterlimit="10" d="M359.9 410.9l-1.9 7.5 1.6 3.8h1.6l2.5-5.4m-60.8 89.7l3.3 15h2l3.3-13.7m24.9 1.1l-3.3 15h-2l-3.7-15.4m-21.3 13l-25.9 3.4 10.1 10.5 19.3-10.5zm27.1 2.4l25.9 3.3-10.1 10.5-19.3-10.5z"/></svg>