<svg version="1" xmlns="http://www.w3.org/2000/svg" width="288" height="288"><path fill="#FFF" d="M142.9 90.6c-6.7 0-12.1-5.4-12.1-12v-8.9c0-6.6 5.4-12 12-12h.1c6.6 0 12 5.4 12 12v8.9c0 6.6-5.4 12-12 12z"/><path fill="#FFF" d="M130.8 73.6s4.8 2.2 7.5 1.3c2.8-1 5.6-1.4 9.8 0 4.1 1.4 6.8-1.6 6.8-1.6M130.8 71s-5.6 2.2 0 6.5m24.6-6.4s5.6 2.2 0 6.5"/><path fill="#FFF" d="M162.5 99c1.8-.5 3.6-1.1 3.6-1.1-6.7-6.5-4.4-36.2-7.3-42.8s-15.8-4-15.8-4-14.6-2.8-16.4 6.7c-1.6 8.2-1.2 30.2-3.4 37.6l5.3 1.5"/><path fill="#FFF" d="M139.4 91c-.5-.4 0 5.4 0 5.4l8.4.2V91c-.1 0-6.4 1.5-8.4 0z"/><path fill="#FFF" d="M127.4 97.1s22.8-2.5 34.9 2.2c0 0-7.4 74.7 9.1 114.2 0 0-36.9 11.7-58-8.9 0 0 12.9-61.1 12.9-68.8s1.1-38.7 1.1-38.7z"/><path fill="#FFF" d="M127.4 97.1L80.1 103l6 21.2 40.9-16.8M80.1 103l-8.3-2.2v2.7l1.8 2-12.1 4.6 1.2 7.7 20.8-1.8m77.2-17.2l47.3 5.9-6.1 21.1-40.9-16.7m47-4.4l8.2-2.3v2.8l-1.8 1.9 12.1 4.7-1.2 7.7-20.8-1.8"/><path fill="#FFF" d="M151.3 97.4l-25.1 31.2-.4 12.1 36.1-40.5zm-19.4 118.1l2.4 10.5h1.3l2.4-9.7m17.6.8l-2.4 10.6h-1.3l-2.6-10.9m-15.1 9.2l-18.3 2.4 7.1 7.4 13.6-7.4zm19.1 1.7l18.3 2.3-7.1 7.5-13.6-7.5z"/><path fill="#27AAE1" d="M154.9 98.3l-28.6 33.5-.5 11.3 36.1-42.9z"/><g fill="none" stroke="#000" stroke-width="2" stroke-miterlimit="10"><path d="M142.9 90.6c-6.7 0-12.1-5.4-12.1-12v-8.9c0-6.6 5.4-12 12-12h.1c6.6 0 12 5.4 12 12v8.9c0 6.6-5.4 12-12 12z"/><path d="M130.8 73.6s4.8 2.2 7.5 1.3c2.8-1 5.6-1.4 9.8 0 4.1 1.4 6.8-1.6 6.8-1.6M130.8 71s-5.6 2.2 0 6.5m24.6-6.4s5.6 2.2 0 6.5"/><path d="M162.5 99c1.8-.5 3.6-1.1 3.6-1.1-6.7-6.5-4.4-36.2-7.3-42.8s-15.8-4-15.8-4-14.6-2.8-16.4 6.7c-1.6 8.2-1.2 30.2-3.4 37.6l5.3 1.5"/><path d="M139.4 91c-.5-.4 0 5.4 0 5.4l8.4.2V91c-.1 0-6.4 1.5-8.4 0z"/><path d="M127.4 97.1s22.8-2.5 34.9 2.2c0 0-7.4 74.7 9.1 114.2 0 0-36.9 11.7-58-8.9 0 0 12.9-61.1 12.9-68.8s1.1-38.7 1.1-38.7z"/><path d="M127.4 97.1L80.1 103l6 21.2 40.9-16.8M80.1 103l-8.3-2.2v2.7l1.8 2-12.1 4.6 1.2 7.7 20.8-1.8m77.2-17.2l47.3 5.9-6.1 21.1-40.9-16.7m47-4.4l8.2-2.3v2.8l-1.8 1.9 12.1 4.7-1.2 7.7-20.8-1.8"/><path d="M151.3 97.4l-25.1 31.2-.4 12.1 36.1-40.5zm-19.4 118.1l2.4 10.5h1.3l2.4-9.7m17.6.8l-2.4 10.6h-1.3l-2.6-10.9m-15.1 9.2l-18.3 2.4 7.1 7.4 13.6-7.4zm19.1 1.7l18.3 2.3-7.1 7.5-13.6-7.5z"/></g></svg>