<svg version="1" xmlns="http://www.w3.org/2000/svg" width="288" height="288"><path d="M106.2 135.4c-2.9-2.7-5-6.2-5.9-10-6.1 5.2-12.2 9.7-17 11.5l-5.7 15.2s14.4-4.8 27.9-15.8c-.1 0 .8-.8.7-.9zm20.7-36.3s-7.7 8.6-17.2 17.8c.4.4.7.9.8 1.4.3 1.9 1.8 2.4 3.3 3.3 1.6 1 3.3 2.1 4.7 3.4 6.5-6 10.5-10.1 10.5-10.1l2.5-12.5-4.6-3.3z" fill="#27AAE1"/><g fill="none" stroke="#000" stroke-width="2" stroke-miterlimit="10"><path d="M123.6 88.8l-4-.6c-6.5-.9-11.1-7-10.2-13.5l2.2-15.7c.9-6.5 7-11.1 13.5-10.2l4 .6c6.5.9 11.1 7 10.2 13.5l-2.2 15.7c-.9 6.5-7 11.1-13.5 10.2z"/><path d="M110.2 69s6.2 2.2 10.2 1.3 9.6.3 10.2 1.9 7.1 2.5 7.1 2.5m-26.8-11.1s-4.2-.9-4.9 2.9c-.7 3.8 3 6.1 3 6.1"/><path d="M124.7 96.1c6.3.3 12.9-.4 19.4-2.9 0 0-3.5-12.9-1.3-24.9 2.3-12 2.4-26.8-13.1-28.2 0 0-23.7-7.9-33.2 25 0 0-5.7 18.8-7.1 19.9 0 0 13 6.2 22.4 9.4"/><path d="M115.5 87.9l-2 6 10.9 3.6.3-7.9"/><path d="M126.2 127.1c3-11.4 5.3-24.6 5.3-24.6-6.6-7.8-31.5-9.8-31.5-9.8l-23.1 61.6c9.5 17.5 8.8 64.2 8.8 64.2 24.8 10.2 52.2 4 52.2 4l-13.9-75"/><path d="M102.5 101s8.4 43 51.7 19l-1.7 25.4s-47.3 19.1-55.1-34"/><path d="M154.2 129.8l4-1.4 2.8 2.8h12.2v-14.7h-13.4l-5.6 3.5-4-5 8.3-5.5m-27.8-2.8s8.7 18.2 20.7 9.8m-27-19s-7.7 7.2-16.3 15.2m-9.2 8.5C90.9 128.7 84 135 84 135m45-20s-3.6 4.2-9.5 9.9m-12.4 10.9c-8.8 7-19.2 13.7-29.4 16.3m16.2 70l1.5 16.1h4.6l2-15.2m18.4 1.1c.9 4.2 3.1 14.2 3.1 14.2h5s.9-10.1 1.4-15m-34.5 14.9c-.2 2 19.3 14.7 19.3 14.7l7.5-10.3-22.2-4.3"/><path d="M123.5 238.2l16.2 12 10.5-8.4-22.6-3.6"/><ellipse transform="rotate(-72.656 189.003 106.722)" cx="189" cy="106.7" rx="15" ry="10.6"/><path d="M196.7 115s15.3 14.6 13.1 44.8-8.5 29.9-8.5 29.9l-29.2-7.1s7.7-15.3 11.1-36.1m16.8-21.6s-9 17.6-26.8 4.4m-7.3 1.9s9.9 26.2 35.4 8m-40.1-22.7l-2.7-7 9.5-2.8 5.2 9.8m0 8.4s7.8 4.1 11.5 2.3m-.2 7c.3-4.3.3-8.7 0-13.2"/><path d="M178.2 184l-9.2 26.2 18.8 30.9h4.4"/><path d="M191 187.1l-9.7 22.4 12 34.7 4.2-1.7s-2.2-32-2.2-33.5 6-19.4 6-19.4"/><path d="M193.2 244.2l-14.7 6 13.7 5 5.3-12.7"/><path d="M187.8 241.1l-15.8 1.4 9.8 6.4"/></g></svg>