<svg version="1" xmlns="http://www.w3.org/2000/svg" width="288" height="288"><g fill="#27AAE1"><path d="M103.1 86.7c-.4-.1-34.2 40.7-34.2 41v12.8L111.5 90l-8.4-3.3zm107.6-12.1s13.9 18.9-1.2 33.3c0 0 11.8-1.9 11.2-14.7-.6-12.8-6.4-19-10-18.6zm10 39s-3.8 44.3-4.2 58.2c-.3 13.9 0 74.9 0 74.9l4.2 14.9 11.2-3.2-13-12.2 2.6-88.3 5.2-43.6-6-.7zm-14.4 51.2l-2.5 80.4s-12.9 7.3-13.1 7.6c-.2.2 10 4.2 10 4.2l6.2-11.8 3.1-73.5-.4-7h-3.3z"/><path d="M226.4 121.4l11.2 11.5-14.2 16.5 4 8.1-2 1.9s-3.9-.2-3.7-1.5.3-13.7.8-14.2 10.6-10.8 10.6-10.8l-8.7-6.1 2-5.4z"/></g><g fill="none" stroke="#000" stroke-width="2" stroke-miterlimit="10"><path d="M113 87.7c2.2-.6 4.3-1.3 4.3-1.3-8.2-7.8-5.3-43.8-8.8-51.8s-19.1-4.8-19.1-4.8-17.8-3.3-19.9 8.2c-1.9 10-1.4 36.5-4.2 45.6l6.4 1.8"/><path d="M70.5 85.4s27.7-3 42.3 2.7c0 0-9 90.5 11 138.3 0 0-44.7 14.2-70.3-10.8 0 0 15.7-74 15.7-83.3s1.3-46.9 1.3-46.9zm52.4 66.2l3.5 8.3 8 5.1 3.6-1.5-8.1-16.1"/><path d="M122.8 150.9l-2.5 6.1.8 3.5 1.3.2 2.9-4.3M76 228.8l2.8 12.8h1.7l2.8-11.8m-4.6 11.8l-22.2 2.9 8.7 9 16.5-9zm25.9-10.8l-2.8 12.8h-1.7L97 230.5m4.9 13.1l22.2 2.9-8.7 9-16.5-9zM85 78c-.6-.5 0 6.5 0 6.5l10.1.3V78s-7.7 1.8-10.1 0zm27.3 11.2l22.2 55.3-17.2 9.2-5.8-47.1s.6-13.4.8-16.6M74.7 56.9s5.8 2.7 9.1 1.5c3.3-1.2 6.8-1.7 11.8 0 5 1.7 8.2-1.9 8.2-1.9m-4.3 29.2l-30.4 37.9-.6 14.6 43.8-49z"/><path d="M91.9 77.5h-5.2c-6.6 0-12-5.4-12-12V49.6c0-6.6 5.4-12 12-12h5.2c6.6 0 12 5.4 12 12v15.9c0 6.6-5.4 12-12 12zM74.7 53.8s-6.8 2.6 0 7.9m29.7-7.9s6.8 2.6 0 7.9M57 149.2l-3.5 8.3-8.1 5-3.5-1.4 8.1-16.2"/><path d="M57.1 148.5l2.5 6.1-.8 3.5-1.3.2-2.9-4.4m15.1-68.2l-25.1 56 17.2 9.2s7.5-39 7.8-41.9M138 29.2l7.4 224.3 21.3 2V29.2zm.6 17.4h15.1m-15.3-4.5h9.5m-9.2 8.5H149m-9.5 24h11.9m-11.9-4.5l6.6-.7m-6.5 10.2h9m-8 25.3h15.1m-15.3-4.5h9.5m-9.2 8.5H151m-9.5 24h11.9m-11.9-4.5l6.6-.7m-6.5 10.2h9m-8 33.9h15.1m-15.3-4.5h9.5m-9.2 8.5H153m-9.5 24h11.9m-11.9-4.5l6.6-.7m-6.5 10.2h9m-8 29.4h15.1m-15.3-4.5h9.5m-9.2 8.5H155m65.7-147c0 9.2-5 16.7-11.2 16.7-1.1 0-2.1-.2-3.1-.6-4.7-2-8.1-8.4-8.1-16 0-9.2 5-16.7 11.2-16.7 6.2 0 11.2 7.4 11.2 16.6zm-20.2-14s9.9 1.9 15.8 0m-18 2.6s11.6 2.7 19.3 0m-19.3 2.4s6.4 5.3 20.8.4m-24.5 30.1s18.8-.8 32.1 1.6l-6.1 50.5-22.4-1.2-3.6-50.9z"/><path d="M198.3 163.6l3 81.7h5.5l2.7-80.5 4.1 81.9 5.5-.3 1.6-81.6"/><path d="M201.3 245.3l-14.1 5.2 12.9 4.7 6.7-9.9m7 1.5l4.5 12.3 11.9-2.8-10.9-9.8m-13-133.2l.1-6m6.2 0v5.9m14.2 1.1s16.7 17.2 19.3 21l-23.8 16.3m16.4-24.8l-15.3 16m10-9.9l-8.1-6.1"/><path d="M226.8 148.4l4.2 5.8-5.7 5.2-3.5-2.8m-27.2-43.9l-14.8 20.2 17.7 19.1M186 125.3l10.7 16m-.9-13.3l-5.2 4.1m6.9 23.3l-6.1 2.5-3.1-5.9 6.3-2.6"/></g></svg>