<svg version="1" xmlns="http://www.w3.org/2000/svg" width="288" height="288"><path d="M137.2 53.3v24.9l-2.5 5.7s-2.6 2.1-3.1 2.1H87v7.2l-3.2.1v6.2H87v4h42.3l-3 22.8.9 17.4h1.8l7.8 27.1.3 42.7H149v-84.2s.7-15.8 0-16.5 1.4-9.3 2.6-9.3h44.3v-3.8s2 .5 2-.2v-6.2l-2.3-.1.3-7.3h-37.5l-1.7-7.1s-1.1-2.3-1.6-2.8-5.7-2.5-6.2-3.1 0-19.8 0-19.8h-11.7v.2z"/><path fill="none" d="M134 53.5c7.1-.3 14.2-.1 21.2.6-10.4 1.9-20.8 3.5-31.3 4.8l33.3 1.8c-9 3-18.5 4.7-28 5.1 9.8.1 19.5.8 29.2 2.1-13.1 1.4-26.3 2.8-39.4 4.1 15.9 3.6 32 6.1 48.3 7.4-23.5-1.1-47-.7-70.5 1.4-6.1.5-12.3 1.2-17.8 3.9 39.4 7.6 80 5.5 120.1 3.5-6.8 3.6-14.7 4.2-22.3 4.7-32.7 2.2-65.5 3.2-98.2 3 41.1 3.4 82.4 4.7 123.6 3.7-33 3.1-66.3 3.3-99.4 3.5-8 0-16 .1-24.1.1 19.5 2.2 39.1 2.9 58.6 2.2 12.1-.4 24.3-1.4 36.2.5-20.5 3.6-41.4 5.4-62.2 5.4 23.7 1.2 47.3 2.4 71 3.6-22.1 2-44.2 4.1-66.4 6.1 15.6 1.3 31.3 2.6 46.9 3.9-16.4 1.2-32.7 2.4-49.1 3.6 19.6.6 39.2 2.4 58.7 5.3-18.5 9.4-39.9 10.4-60.6 11.3 13.6.7 27 3.7 39.6 8.8-13.4 1.6-26.7 4.4-39.7 8.2 16.3.1 32.6 1.1 48.7 3.1-12.2 2.5-24.3 5-36.5 7.5-1.8.4-3.7.8-4.7 2.3 15.1 1 30.1 3.5 44.6 7.5-15.3 3.9-30.5 7.8-45.8 11.6 3.1 1.8 6.6 2.7 10.1 3.6 11.3 2.8 22.6 5.7 33.9 8.5-13.9-.1-27.9-.3-41.6 2 10.4 4.8 21.4 8.3 32.6 10.7 2.3.5 5.7-.1 5.4-2.4"/></svg>