<svg version="1" xmlns="http://www.w3.org/2000/svg" width="288" height="288"><path fill="#27AAE1" d="M156.5 94.6L110 150.8l-1.5 19.3 50.4-54-1.1-21.5z"/><g fill="none" stroke="#000" stroke-width="2" stroke-miterlimit="10"><path d="M141.9 82.4h-13.3c-6.6 0-12-5.4-12-12V40c0-6.6 5.4-12 12-12h13.3c6.6 0 12 5.4 12 12v30.4c0 6.6-5.4 12-12 12z"/><path d="M116.6 58.8s10.2.8 14.8-.7c4.7-1.5 5-.8 9.7.7 4.7 1.6 12.8.2 12.8.2m-37.3-8.1s-9 4.7 0 11m37.3-11s8.7 7.2 0 11"/><path d="M104 33.4c8.7-22.6 30.7-16.1 30.7-16.1s32.4-9.7 27.9 33.6c0 0 3.5 30.1 12.8 35.6 0 0-18.8 7.4-26.5 5.7m-29.8.7c-6.3-.4-13.3-2.5-18.3-4.4m29.9-6.1l-.8 8.2h11.3l-1.1-8.2"/><path d="M157.8 94.6c-19.1-7.5-46.9 0-46.9 0s-2.3 117.5-11.3 143.1c0 0 36.7 25.3 71.3 0L157.8 94.6z"/><path d="M110 120.5c-36.7 22.1-42.8-31.3-42.8-31.3l14.1-25.9s6.3 1.5 8.8 2.4"/><path d="M99.8 69.4c2.4 1 5.3 2.2 5.3 2.2s-14.4 32.3 5.8 23.6M92.1 61.4L83.7 79l3.7 8.9 9.1-4.6 4.4-19.2m1.5-31.6c.4.1 7.6 2.8 7.6 2.8l-2.7 11.5-2.8 7.6 6.3-3.8 1 6.5s-9.7 7.3-10.2 7.1c-.5-.2-9.7-3.6-9.7-3.6s-1.9-11.7-1.8-12c.1-.4 8.9-17.5 8.9-17.5l3.4 1.4zm55.9 62.1s24.6 41.4 40.6 57.4l-7.5 36.2s-27.5-46.1-30.6-60.1m38.1 27.7l12.4 7.1 8.7 15.8-13.5-1.1-10.2-13"/><path d="M200 169.3l-1.1 6.6h-2.6l-1-6.6m-41.4-76l-45.1 54.4m51-32.6l-52.5 56.4m12.8 75.5c.6 7.2 1.2 15 1.2 15h4.8s1.2-7.4 2.2-13.9m14.1.6c.7 6.4 1.4 13.3 1.4 13.3h6s.4-8 .8-15m-28.5 15.2l-23.5 12.3 23.5 3.2 4.8-15.5m16.9-.2l1 17 21.8-4.8-16.8-12.2"/></g></svg>