<svg version="1" xmlns="http://www.w3.org/2000/svg" width="288" height="288"><path fill="#FFF" stroke="#000" stroke-width="2" stroke-miterlimit="10" d="M161.9 100.2l39.2 35-18 12.6-21.4-38.6m.8-10.2c1.8-.5 3.6-1.1 3.6-1.1-6.7-6.5-4.4-36.2-7.3-42.8s-15.8-4-15.8-4-14.6-2.8-16.4 6.7c-1.6 8.2-1.2 30.2-3.4 37.6l5.3 1.5"/><path fill="#FFF" stroke="#000" stroke-width="2" stroke-miterlimit="10" d="M142.9 90.6c-6.7 0-12.1-5.4-12.1-12v-8.9c0-6.6 5.4-12 12-12h.1c6.6 0 12 5.4 12 12v8.9c0 6.6-5.4 12-12 12z"/><path fill="#FFF" stroke="#000" stroke-width="2" stroke-miterlimit="10" d="M130.8 73.6s4.8 2.2 7.5 1.3c2.8-1 5.6-1.4 9.8 0 4.1 1.4 6.8-1.6 6.8-1.6M130.8 71s-5.6 2.2 0 6.5m24.6-6.4s5.6 2.2 0 6.5m-16 13.4c-.5-.4 0 5.4 0 5.4l8.4.2V91c-.1 0-6.4 1.5-8.4 0zm-10.9 5.9l-41.7 34.6 17.3 13.6 23.2-37.6"/><path fill="#FFF" stroke="#000" stroke-width="2" stroke-miterlimit="10" d="M127.4 97.1s22.8-2.5 34.9 2.2c0 0-7.4 74.7 9.1 114.2 0 0-36.9 11.7-58-8.9 0 0 12.9-61.1 12.9-68.8s1.1-38.7 1.1-38.7zm-40.6 34.4l-8.1 3.1 1.6 2.2 2.7.5-7.1 10.9 5.4 5.5L97.1 140m104-4.8l7.8 3.3-1.7 2.2-2.6.3 6.5 11.3-5.8 5.2-15.1-14.4"/><path fill="#27AAE1" d="M154.9 98.3l-28.6 33.5-.5 11.3 36.1-42.9z"/><path fill="none" stroke="#000" stroke-width="2" stroke-miterlimit="10" d="M151.3 97.4l-25.1 31.2-.4 12.1 36.1-40.5z"/><path fill="#FFF" stroke="#000" stroke-width="2" stroke-miterlimit="10" d="M131.9 215.5l2.4 10.5h1.3l2.4-9.7m17.6.8l-2.4 10.6h-1.3l-2.6-10.9m-15.1 9.2l-18.3 2.4 7.1 7.4 13.6-7.4zm19.1 1.7l18.3 2.3-7.1 7.5-13.6-7.5z"/></svg>