<svg data-name="Layer 1" xmlns="http://www.w3.org/2000/svg" viewBox="0 0 206.63 336.8"><ellipse cx="97.6" cy="43.45" rx="20.75" ry="30.25" fill="none" stroke="#231f20" stroke-miterlimit="10" stroke-width="2.79"/><path d="M76.85 9.45s18.75-18.13 41.87 0" fill="none" stroke="#231f20" stroke-miterlimit="10" stroke-width="2.79"/><circle cx="76.85" cy="16.66" r="7.21" fill="none" stroke="#231f20" stroke-miterlimit="10" stroke-width="2.79"/><circle cx="71.5" cy="29.46" r="6.51" fill="none" stroke="#231f20" stroke-miterlimit="10" stroke-width="2.79"/><circle cx="69.16" cy="44.24" r="7.19" fill="none" stroke="#231f20" stroke-miterlimit="10" stroke-width="2.79"/><circle cx="70.35" cy="60.36" r="7.67" fill="none" stroke="#231f20" stroke-miterlimit="10" stroke-width="2.79"/><circle cx="118.22" cy="16.66" r="7.21" fill="none" stroke="#231f20" stroke-miterlimit="10" stroke-width="2.79"/><circle cx="123.56" cy="29.46" r="6.51" fill="none" stroke="#231f20" stroke-miterlimit="10" stroke-width="2.79"/><circle cx="125.91" cy="44.24" r="7.19" fill="none" stroke="#231f20" stroke-miterlimit="10" stroke-width="2.79"/><circle cx="124.72" cy="60.36" r="7.67" fill="none" stroke="#231f20" stroke-miterlimit="10" stroke-width="2.79"/><path fill="none" stroke="#231f20" stroke-miterlimit="10" stroke-width="2.79" d="M90 71.6l-1.65 10.43 10.11 23.17 10.12-24-3.13-8.92"/><path fill="none" stroke="#231f20" stroke-miterlimit="10" stroke-width="2.79" d="M88.35 82.03l10.11 3.28 10.12-4.11m-10.12 4.11l-4.95 8.56m4.57-7.9l5.16 7.9M88.95 78.23l-21.44 7.74-5.54 45.73m46.11-53.47l21.44 7.74 5.53 45.73M67.39 86.92c-.13 1.12-12.63 26.61-12.63 26.61L42.59 87.7l-7 7.17 8.5 36.83m-1.5-44l-1-9.47H30.42v4.73l5.17 1.24"/><path fill="none" stroke="#231f20" stroke-miterlimit="10" stroke-width="2.79" d="M37.59 78.23l-16-6.63-5.5 18.32 15.65 3.05 2.02-8.32m-2.02 8.32l3.85 1.89m-9.902-46.657l26.927 9.727-5.266 14.578-26.927-9.726zM31.41 66.77l-2.34 7.54m4.27 1.87l1.92-7.31"/><path d="M23.81 91.21l-3 9.82 5.67 1.5 2.74-10.48m100.3-6.08l17.63 25.7m-8.39 1.93l17.95-4.13v21.23h-16.53l-1.42-17.1zm.39 4.7l10.58-1.28m-10.12 5.12l10.12-.56m-9.84 5.57l9.84-.87M15.35 131.7h167l-1.34 11-163.66 5.41-2-16.41zm14.33 16.41L18.46 282.99m152.78-139.97l10.65 128.08M46.98 253.12a47.2 47.2 0 01-1.3-11.09c0-18.41 10.26-33.33 22.92-33.33s22.91 14.92 22.91 33.33c0 11.86-5.48 22.27-11.9 28.18m80.04-17.09a47.2 47.2 0 001.3-11.09c0-18.41-10.26-33.33-22.92-33.33s-22.91 14.92-22.91 33.33c0 11.86 5.48 22.27 11.9 28.18" fill="none" stroke="#231f20" stroke-miterlimit="10" stroke-width="2.79"/><path d="M1.35 325.37s11-42 37-72.67c0 0 22.33.33 38 7 0 0 7.33 14 12 77m116.89-11.33s-11-42-37-72.67c0 0-22.33.33-38 7 0 0-7.33 14-12 77" fill="none" stroke="#231f20" stroke-miterlimit="10" stroke-width="2.79"/></svg>