<svg data-name="Layer 1" xmlns="http://www.w3.org/2000/svg" viewBox="0 0 206.63 385.21"><ellipse cx="97.6" cy="91.86" rx="20.75" ry="30.25" fill="none" stroke="#231f20" stroke-miterlimit="10" stroke-width="2.79"/><path d="M76.85 57.86s18.74-18.13 41.87 0" fill="none" stroke="#231f20" stroke-miterlimit="10" stroke-width="2.79"/><circle cx="76.85" cy="65.07" r="7.21" fill="none" stroke="#231f20" stroke-miterlimit="10" stroke-width="2.79"/><circle cx="71.5" cy="77.87" r="6.51" fill="none" stroke="#231f20" stroke-miterlimit="10" stroke-width="2.79"/><circle cx="69.16" cy="92.65" r="7.19" fill="none" stroke="#231f20" stroke-miterlimit="10" stroke-width="2.79"/><circle cx="70.35" cy="108.78" r="7.67" fill="none" stroke="#231f20" stroke-miterlimit="10" stroke-width="2.79"/><circle cx="118.22" cy="65.07" r="7.21" fill="none" stroke="#231f20" stroke-miterlimit="10" stroke-width="2.79"/><circle cx="123.56" cy="77.87" r="6.51" fill="none" stroke="#231f20" stroke-miterlimit="10" stroke-width="2.79"/><circle cx="125.91" cy="92.65" r="7.19" fill="none" stroke="#231f20" stroke-miterlimit="10" stroke-width="2.79"/><circle cx="124.72" cy="108.78" r="7.67" fill="none" stroke="#231f20" stroke-miterlimit="10" stroke-width="2.79"/><path fill="none" stroke="#231f20" stroke-miterlimit="10" stroke-width="2.79" d="M90 120.01l-1.65 10.43 10.11 23.17 10.12-24-3.13-8.92"/><path fill="none" stroke="#231f20" stroke-miterlimit="10" stroke-width="2.79" d="M88.35 130.44l10.11 3.28 10.12-4.11m-10.12 4.11l-4.95 8.56m4.57-7.9l5.16 7.9m-14.26-15.82l-9.47-.18-38.5-27.84 9.67-27.83 4.17-1.33 5.31-10.49-11.81-7.18-4.17 4.33 3.5 3.84-4.33 3.83"/><path fill="none" stroke="#231f20" stroke-miterlimit="10" stroke-width="2.79" d="M67.18 180.11l3.83-26.5-53.66-48.5 19-40.33-2.17-9.84 11.33-16.83 18 10-3.94 11.41m-23.22 5.26l14.33 5.83m56.74 55.85l9.46-.18 38.5-27.84-9.66-27.83-4.17-1.33-5.32-10.49 11.82-7.18 4.17 4.33-3.5 3.84 4.33 3.83"/><path fill="none" stroke="#231f20" stroke-miterlimit="10" stroke-width="2.79" d="M129.22 180.11l-3.84-26.5 53.67-48.5-19-40.33 2.17-9.84-11.34-16.83-18 10 3.95 11.41m23.22 5.26l-14.33 5.83M15.35 180.11h167l-1.34 11-163.66 5.41-2-16.41zm14.33 16.41L18.46 331.4m152.77-139.97l10.66 128.08M46.98 301.53a47.2 47.2 0 01-1.3-11.09c0-18.41 10.26-33.33 22.92-33.33s22.91 14.92 22.91 33.33c0 11.86-5.49 22.27-11.9 28.18m80.04-17.09a47.2 47.2 0 001.3-11.09c0-18.41-10.26-33.33-22.92-33.33s-22.92 14.92-22.92 33.33c0 11.86 5.49 22.27 11.91 28.18"/><path d="M1.33 373.78s11-42 37-72.67c0 0 22.33.33 38 7 0 0 7.33 14 12 77m117-11.33s-11-42-37-72.67c0 0-22.33.33-38 7 0 0-7.33 14-12 77M72.68 277.44l10.83 8.84m50.44-8.84l-10.84 8.84M77.85 11.61l-2.25 9.12 8.25 5.13-3.25 8.87 7.12 6.25M98.6.48l-3.63 9.88 5.88 5.5-5.63 9.87 6.5 6.75-3.94 10.68m18.83-31.91l3.36 8.77-7.55 6.12 4.33 8.4-6.3 7.08" fill="none" stroke="#231f20" stroke-miterlimit="10" stroke-width="2.79"/></svg>