<svg version="1" xmlns="http://www.w3.org/2000/svg" width="5184" height="3456"><path d="M1595.5 1150.9s-14.3-2.5-22.3-2.7c-8-.2-17.5-1.5-21.8 1.3-4.4 2.8-23.2 10.5-25.1 11s-12.1 4.9-12.1 4.9l-21.1 10.5-10.2 14.3s-9.5 8.1-9.5 18.6v21.1c0 9.8-1.8 54.1 27.5 61.8 29.3 7.7 46 26.6 70.8 25.2 24.8-1.4 52.4-4.4 52.4-4.4s10.2 3.6 23.3-2.9 24.8-6.9 29.9-15.1c5.1-8.2 5.1-13.6 10.9-21.8 5.8-8.2 8.7-7.5 11.7-15.5 2.9-8 0-27.7 0-27.7s-2.9-36.7-17.5-46.4c-14.6-9.7-17.5-14.1-22.6-18.4-5.1-4.3-14.6-6.3-21.8-7.5-7.3-1.2-18.9 7.9-24.8 3.4-5.9-4.5-17.7-9.7-17.7-9.7zm42.2 168.1l-6.8 3.5.5 6 4.4 5.5h6.5s5.3-5 4.8-5.8c-.5-.8-2.2-3.3-2.5-3.9-.3-.6 0-3.9 0-3.9l-6.9-1.4zm-9.6 19.2l-5.8 1.9v7.2s2.3 4.8 3.4 4.8 5.6-1.8 5.6-1.8l4.5-3.8s-1.2-3.2-1.2-3.8c0-.6-6.5-4.5-6.5-4.5zm-11.1 15.1l-8.3 1.7v4.5l2.4 4h3.6l6.3-2.7zm-18.3 10.2h-3.2l-1.6 5s2.8 5.1 3.3 4.9c.5-.2 3.9-1.9 3.9-1.9l2.4-3.1v-2.7l-1-2.2h-3.8z" fill="#FFF"/><path d="M2889.1 1257.2c-22.6 2.7-44.9 2.4-66.8-4.8-17.1-5.6-32.5-15.2-49-22.5-33.6-14.9-71.4-19.9-108-15.9-29.3 3.2-57.6 12.1-85.8 20.8-11.2 0-26.6 8.3-37.3 11.7-13.2 4.1-26.4 8.3-39.7 12.4-24.9 7.8-47.6 18.3-71.4 29.3-4.3 2-8.7 4.1-11.8 7.6-4.9 5.6-5.7 13.6-8.3 20.6-3.5 9.4-10.3 17.1-17 24.6-7.4 8.2-14.7 16.4-22.1 24.6-7.7 8.6-15.6 17.5-19.4 28.4-3.3 9.3-3.3 19.4-5.4 29.1-3.6 16.2-16.2 30.1-33.1 31.7-12.1 1.2-17.2 1.2-25.5 11.2-20.4 24.7-38.8 51.4-58.1 77-4.8 6.3-12.4 11.4-17.7 17.4-12.8 14.3-23.9 30.7-30.9 48.6-8.2 21.1-8.5 41.9-10.4 63.9-2.4 28-13.4 54.5-15 82.6-1.1 18.4 2 36.8 3.6 55.1 5.9 67.1-6.1 139.6 27.4 198 20.5 35.6 55.9 60.8 94.2 75.4 38.3 14.6 79.7 19.5 120.6 21.8 19.1 1.1 38.9 1.8 55.9 10.4 7.9 4 14.9 9.5 22.5 13.9 24 14.2 52.7 17.5 78.8 27.3 17 6.5 32.8 15.7 49.3 23.4 134.1 62.9 288.8 26.5 430.8 46.1 19.6 2.7 39.1 6 58.3 11 19 5 37.7 11.7 57.3 13.3 51 4 100.5-30.1 122.7-76.3 5-10.5 9-21.7 16.3-30.7 18.3-22.8 53.9-27.5 69.4-52.3 5.6-9 7.8-19.5 11-29.6 5-15.9 12.4-30.9 19.8-45.9 8-16.1 16-32.3 24-48.4 20.8-42.1 18.1-90.8 15.2-136.4-1.4-20.9-5.9-35.9-18.7-52.9-11.8-15.7-26.6-29.9-33.8-48.7-2.3-5.9-3.7-12.1-6.2-17.9-8.1-18.5-27-32.2-29.3-52.2-2.2-18.5 10.9-36.1 9.5-54.7-1.6-20.3-19.9-36-22.9-56.1-1.6-11.1 1.6-22.3 2.1-33.5.7-15.1-8-21.7-13.1-33.7-6.8-16.1-7.8-32.9-17.6-48.1-6.9-10.7-16.2-19.5-25.4-28.3-25.5-24.3-50.9-48.6-76.4-72.8-46.3-44.2-97.6-90.8-161.3-97.4-50.4-4.9-101.5 15.9-151.3 21.9zm-533.9 76.4l-11.1 2.8-1.9 9.5 3.8 10.2 9.1 2.5s9.6-5.7 9.2-7.1c-.4-1.4-1.7-6-1.8-7-.2-1 1.7-6 1.7-6l-9-4.9zm-72.1 22.3l-9 .7-3.1 11.1s1.2 8.3 2.7 8.7 8.6-.6 8.6-.6l8-4.1s-.3-5.4-.1-6.3-7.1-9.5-7.1-9.5zm-56.8 26.9l-12.4-.6-2 6.9 1.7 7.2 5.1 1.4 10-1.8zm-60 20l-4.5-1.3-4.4 7.1s1.7 9 2.5 8.9c.8-.1 6.3-1.4 6.3-1.4l4.7-3.9 1.2-4.2-.5-3.8-5.3-1.4z" fill="none" stroke="#000" stroke-width="4" stroke-miterlimit="10"/></svg>