<svg data-name="Layer 1" xmlns="http://www.w3.org/2000/svg" viewBox="0 0 308.55 185.48"><path d="M98.47.98L74.53 25.04m-5.47 5.51L26.67 73.16m-6.98 7.02L.99 98.98m117.48-95l-35.1 55.24m-3.36 5.29l-32.44 51m-3.46 5.47l-14.64 23m107-135L124.2 45.44m-2.73 8.09l-19.75 58.75m-2.19 6.49l-14.54 43.21m69.48-153v69m0 11v42.67m0 8v45.83m17.59-176.5l12.28 36.46m2.72 8.09l19.77 58.75m2.19 6.49l14.54 43.21m-33.5-158l35.12 55.24m3.37 5.29c10.79 17 23.5 37 32.43 51m3.49 5.47l14.62 23M210.06.98L234 25.04m5.47 5.51l42.39 42.61m7 7.02l18.7 18.8" fill="none" stroke="#231f20" stroke-miterlimit="10" stroke-width="2.79"/></svg>