<svg data-name="Layer 1" xmlns="http://www.w3.org/2000/svg" viewBox="0 0 400.73 308.33"><ellipse cx="239.27" cy="201.32" rx="38.44" ry="24.94" transform="rotate(-88.71 129.329 181.633)" fill="none" stroke="#231f20" stroke-miterlimit="10" stroke-width="2.79"/><path d="M138.19 104.63l-4.5 9.95m14.07 8.17l4.42-11.7m-3.49 118.98l5.78-29.92 12.72-65.51c0-.13-42.75-24.88-42.75-24.88-31.57 45.24-41 118.46-41 118.46 10.73 13.79 42.09 16.35 55.84 16.8" fill="none" stroke="#231f20" stroke-miterlimit="10" stroke-width="2.79"/><path fill="none" stroke="#231f20" stroke-miterlimit="10" stroke-width="2.79" d="M125.25 128.55l-3.79 70.52 20.25 52.36 11.75-1.86-12.75-52.25 3-64m-1.38 118.63l.88 10.12 11 3.05 6.65 12.63 6.28-13.17-13.68-15.01m-70.11-21.39s-8.82 59.56 51.84 54.56"/><path d="M159.74 275.32l11.37 24.64s-84 19.36-133.84-23.78l6.31-15.09s25.7 12.64 54.92 13.49" fill="none" stroke="#231f20" stroke-miterlimit="10" stroke-width="2.79"/><path fill="none" stroke="#231f20" stroke-miterlimit="10" stroke-width="2.79" d="M43.58 261.1l-8.84-5.69-32.41 44.97 25.47 6.32 12.15-28.28m-.22-20.15l7.32-6.84s18.68 13.87 43.31 13.68m-59.87 35.33l13.09-4.85 4.33-11.44m264.74-171.62l-2.17-14.23-10.08-6.48-.11-12.26-8.67 6.93-3-6.61-9.9 8.25-4.18-8.55-13.06 4.14 20.61-39.06 19.05 10.83-13.41-18.11 2.23-9.37-5.62-3.73 1-11.06 3.87-.45 2 7.92 6.64 2.67-3.45 13.46 11 13.72 4.4-1.83 6.16 11-4.8 21.92 11.47 15.46-3.7 19.87 9.36 27.86.25 25.35 4.94 27.79-5.17 14.94 6.8 18.09-9.56.47"/><path d="M319.92 111.46l-39.79 5.85.65 13.24 41.66-2.8m-38.17 2.63l1.55 82.29m45.19-7.57l-51.4 8.61 1 20 46.94-2.31" fill="none" stroke="#231f20" stroke-miterlimit="10" stroke-width="2.79"/><path d="M295.06 211.12s-3.91-73.32.82-73.8 6.62 73.44 6.62 73.44m8.98-2.39c.24 0-2.24-74.2 3.23-74.85s8.42 72.9 8.42 72.9m23.79-103.2l2.73-17.58-6.44-8 6.72-12 9.32 4.5 5-6 6.75 3.75 2.75-6.75h10.44l-25-29.5-8.54 10.5 1.71-16.23-2-10 4-3.5-3.74-11h-2.75v8.5l-5.75 4.5 3 12.25-3 15.5-5.11-1.92 3.44 12.09-9.67 21.17 8.76 13.32-3.35 21 6 25.66-3.34 31.75 3.34 26.59-2.67 14.33 5 17.74h32.67v-29.5l-36.27 4.25" fill="none" stroke="#231f20" stroke-miterlimit="10" stroke-width="2.79"/><path d="M339.1 120.21l31.86-.57v-18.75l-34.18 3.32m29.42 15.52l3.76 74.66m-20.31 3.23s.56-71.71 4.31-72.1 5.29 71 5.29 71m-53.94 48.64l5.81 5.66 10.09-2.83v-5.17l-4.08-2.33-11.82 4.67zm65.9-4.67l-5.01-1.33-4.16 3.5 2.5 6.5 10.33-1 4-5.17-7.66-2.5zm-96-2.33l-9.5-2.84-2.5 5.17 6 7.67 7.83-2.5-1.83-7.5zm111-12.5l-6.67 4.83 8.67 6.5 9-3.3 1.66-4.2-12.66-3.83zm-47.67 21.16l-3.43 6.17 6.6 3 7.16-1.83-6-3.34-4.33-4zm12.33-9.83l-7.33.67 1.67 4.08 5.66 1.08v-5.83zm-59.19 7.75l-5.5 2.33 2.75 4.5 7.25-2.83-4.5-4z" fill="none" stroke="#231f20" stroke-miterlimit="10" stroke-width="2.79"/></svg>