<svg data-name="Layer 1" xmlns="http://www.w3.org/2000/svg" viewBox="0 0 389.78 308.56"><ellipse cx="260.67" cy="204.4" rx="38.44" ry="24.94" transform="rotate(-79.43 136.676 196.499)" fill="none" stroke="#231f20" stroke-miterlimit="10" stroke-width="2.79"/><path fill="none" stroke="#231f20" stroke-miterlimit="10" stroke-width="2.79" d="M148.35 105.87l-5.56 12.31 12.92 7.35 4.42-11.7"/><path d="M154.51 200.34l-8.69 45s-48.54 1-62.43-16.89c0 0 9.47-73.21 41-118.46 0 0 30 11.29 42.79 24.69l-7.31 37.79" fill="none" stroke="#231f20" stroke-miterlimit="10" stroke-width="2.79"/><path d="M147.12 134.47s9.47 36 16.73 44.82c0 0 19.89-5.36 35-26.83l8.21 4.42s-11 47-60 43.25c0 0-20.66-24.63-21.85-51.14m73.68 3.47l-1.58-18 4.42-2.53 6.31-19.25 6.63 2.21s2.84 14.2 2.21 21.62-9.78 19.57-9.78 19.57" fill="none" stroke="#231f20" stroke-miterlimit="10" stroke-width="2.79"/><path d="M207.14 112.69h-5.88L194.79 128h-4.42v21.15s-13.06 18.49-28.86 17.26m28.85-17.26l6.95 3.95m-33.46 26.2l-16.73 20.83m-63.76 28.28s-8.83 59.56 51.84 54.56" fill="none" stroke="#231f20" stroke-miterlimit="10" stroke-width="2.79"/><path d="M145.79 245.3l25.32 54.89s-84 19.36-133.84-23.78l6.31-15.08s25.7 12.63 54.92 13.48" fill="none" stroke="#231f20" stroke-miterlimit="10" stroke-width="2.79"/><path fill="none" stroke="#231f20" stroke-miterlimit="10" stroke-width="2.79" d="M43.58 261.33l-8.84-5.68-32.41 44.97 25.47 6.31 12.15-28.28m-.22-20.15l7.33-6.84s18.68 13.88 43.31 13.69m-59.88 35.32l13.09-4.85 4.33-11.44m301.58-181.15l2.72-17.59-6.43-8 6.71-12 9.33 4.5 4.96-6 6.75 3.75 2.75-6.75h10.5l-24.96-29.5-8.54 10.5 1.7-16.23-1.95-10.02 3.99-3.5-3.74-11h-2.75v8.5l-5.75 4.5 3 12.25-3 15.5-6-2.25-6.25 2.25-10.29-14.25 4.04-13.25-6.5-3-1.57-8-3.89.25-1.54 11 5.43 4-2.68 9.25 12.5 18.75-18.5-11.75-22.5 38 13.25-3.5 3.75 8.75 10.29-7.75 2.71 6.75 9-6.5-.5 12.25 9.75 7 1.46 14.32"/><path fill="none" stroke="#231f20" stroke-miterlimit="10" stroke-width="2.79" d="M336.9 80.64l7.88 6.5-2.16 16.75m-38.59 3.75v13.25l69.5-1.25v-18.75l-69.5 6.75zm3.5 13.25l-2.5 82.27m63.74-83.43l3.76 74.66m-73.75 9.5v20h81v-29.5l-81 9.5z"/><path d="M314.33 202.07s-.3-73.43 4.45-73.68 3 73.68 3 73.68m9.09-1.94c.24 0 1.41-74.22 6.91-74.61s4.82 73.23 4.82 73.23m9.62-1.11s.56-71.71 4.31-72.1 5.29 71 5.29 71" fill="none" stroke="#231f20" stroke-miterlimit="10" stroke-width="2.79"/></svg>