<svg data-name="Layer 1" xmlns="http://www.w3.org/2000/svg" viewBox="0 0 145.83 404.14"><ellipse cx="73.11" cy="42.89" rx="27.83" ry="41.5" fill="none" stroke="#231f20" stroke-miterlimit="10" stroke-width="2.79"/><path d="M48.83 22.61s18.87 9.77 46.87-4.06M65.41 82.77v11.29m15.43-11.29l1.78 11.29m-38.04 65.5l-5-62.83 67.66-4.67-2.07 62.76" fill="none" stroke="#231f20" stroke-miterlimit="10" stroke-width="2.79"/><path fill="none" stroke="#231f20" stroke-miterlimit="10" stroke-width="2.79" d="M39.62 96.73L7.69 158.16l64.78 34.93 3.69-12.52-45.72-30.41 11.71-21.31m34.01 51.72l10.28-6.66h10v4.5l12.25.5v13.75l-18.12 5.87-17.37-5.23"/><path fill="none" stroke="#231f20" stroke-miterlimit="10" stroke-width="2.79" d="M104.53 178.69l5.41-22.78-16.81-4.19-5.44 22.19"/><path d="M83.55 175.79c.45-.3 0-23.06 0-23.06h9.34m-9.34 1.43l-8.24 1.58 4.12 22.16m-48.99-27.74l-22.75 8m99.59-66.1l36.82 49.74-35.41 48.69" fill="none" stroke="#231f20" stroke-miterlimit="10" stroke-width="2.79"/><path fill="none" stroke="#231f20" stroke-miterlimit="10" stroke-width="2.79" d="M106.28 122.31l16.91 18.97-16.35 27.67m16.35-27.67l20.91.52m-40.18 52.36l-.64 19.25H48.83l-2.75-34.83"/><path fill="none" stroke="#231f20" stroke-miterlimit="10" stroke-width="2.79" d="M48.83 213.39l13.12 159.34h9.35l5.32-159.34m3.66 0l4.34 159.34h9.66l9-159.34M61.95 372.73l-30.67 17.33 28 11 12.02-28.33m13.32 0l15 29.66 26.66-10-32-19.66M13.94 15.78L1.53 22.64s1.52 9.28 2.46 10.28 16 1.41 16 1.41l4.49 8.13L7.93 51.6m-5.7-35.99c.2 1 16 37.24 16 37.24M7.71 12.2l16.53 41.52m115.4-26.48l-14.08-1.59s-4.14 8.44-3.95 9.8 12.19 10.38 12.19 10.38l-1.05 9.24-18.78-2.13m16.22-32.62c-.43 1-8.51 39.63-8.51 39.63m14.96-39.24l-10.56 43.42"/></svg>