<svg version="1" xmlns="http://www.w3.org/2000/svg" width="504" height="504"><g fill="none" stroke="#000" stroke-width="2" stroke-miterlimit="10"><ellipse cx="197.1" cy="65.9" rx="14" ry="22.3"/><path d="M201.6 87v6.4H193v-6.2m22.4 6.2h-37.5l3.8 74.3h29.4zm-37.5 0L163.6 128l3.2 45.9h5.7l1.8-42 4.8-14"/><path d="M172.4 173.8l4.1 7.2-3.1 1.8-3.3-3.5-.8 15-6.6-6.2 4-14.3m7.6-41.9l-10.7-3.9m51.7-34.6l14.3 34.6-3.2 45.9h-5.8l-1.7-42-4.9-14"/><path d="M220.7 173.8l-4.1 7.2 3.2 1.8 3.2-3.5.9 15 6.5-6.2-4-14.3m-7.5-41.9l10.7-3.9m-18.5 39.7L226.8 281l-18.2 10.6h-26L168 280l13.7-112.3m26.9 123.9l18.2 7.8-11.5 5.7-12.7-13.5m-13 0l-9.8 13.5-11.8-5.8 14.6-7.7"/><ellipse cx="253" cy="359" rx="18.3" ry="27.1"/><path d="M226.9 394.1s24.9-16 49.5 0l7.2 71.2s-42.3 15.8-63.2 0l6.5-71.2z"/><path d="M223.1 467.1l7.3 15.5s16.2 5.1 40.2 0l7.4-15.5m-51.2-71.8l-22.6 67-20.4 4.9s2.1 5.8 2.7 5.2c.6-.6 18.8-1.9 18.8-1.9l6.1 3.2 4-3-3.2-6.7 11.3-33.2m53-35.9l23.2 67.3 20.4 4.9s-2.1 5.8-2.7 5.2-18.8-1.9-18.8-1.9l-6.1 3.2-4-3 3.2-6.7-11.4-32.2"/><ellipse transform="rotate(-79.181 348.828 331.008)" cx="348.8" cy="331" rx="23.8" ry="16"/><path d="M360.7 344.4l3.6 5.9m-12.4 63l-16 5.8-8-4 15.2-56.3 27.2-10.7s14 18.5 23.2 75.8c0 0-24.5 9.7-40.7 5.7l-3.2-52.2m.6 10.4c0 .7-5.3 20.5-12.9 30.8"/><path d="M327.9 415.1l-19.7 6.5v15.2s20 15.8 32.3 16 42.5-3.7 45.8-9.7 5.7-18.7 5.7-18.7m-39.4 3.2s-13.7-5.5-32.4-6.5M467 158.9l-7.6 99.9h7.6l14.3-99.9z"/><path d="M470.3 258.8l-70-1.9 1.2 16.7 68.8-3.3zm-62.1 14.5l4.9 58.8h4.6v-58.5m49.3-3.1v60.7h-7.6l-3.1-60.2m-38.6 27h40m-40 7.3l40.3-1.2"/><ellipse transform="rotate(-88.297 443.91 153.079) scale(1.00004)" cx="443.9" cy="153.1" rx="24.3" ry="16.4"/><path d="M436.4 245.2c-3.5.4-6 .7-6 .7s8.5-22.1 7.2-59.7c0 0 19.1-7.5 20-7.2s6.6 23.3 2.9 63.4c0 0-8.3 1-16.2 1.9"/><path d="M445.3 192.4l-10 60-15.5 1.5s-.4 1.5-.8 3.2m21.5 1.7L453 206"/><path d="M430.4 245.8l-39.9.8-5.7 53.4 12.4 2.7 1.6 13.5h5.5l1.2-42.6m-6.7 42.6c-2.4.4-24.1 9.5-24.1 9.5l15.8 6.4 13.8-15.9"/><path d="M398.3 312l-27 1.8 9.2 9.5m62.7-145.9l.2 6.6m7.1-8.8l1.1 5"/><ellipse transform="rotate(-10.819 153.803 331.09)" cx="153.8" cy="331.1" rx="16" ry="23.8"/><path d="M141.9 344.5l-3.6 5.9m12.3 63l16 5.8 8-4-15.2-56.3-27.2-10.7s-14 18.5-23.2 75.8c0 0 24.5 9.7 40.7 5.7l3.2-52.2m-.5 10.4c0 .7 5.3 20.5 12.9 30.8"/><path d="M174.6 415.2l19.7 6.5v15.2s-20 15.8-32.3 16-42.5-3.7-45.8-9.7-5.7-18.7-5.7-18.7m39.4 3.3s13.7-5.5 32.4-6.5"/><ellipse transform="rotate(-1.7 59.412 146.007) scale(1.00004)" cx="59.4" cy="146" rx="16.4" ry="24.3"/><path d="M52.9 168.1l-1.2 5m8.4-2.8l-.2 6.5m7 61.2c3.5.4 6 .7 6 .7s-8.5-22.1-7.2-59.7c0 0-19.1-7.5-20-7.2s-6.6 23.3-2.9 63.4c0 0 8.3 1 16.2 1.9"/><path d="M58.1 185.2l10 60 15.5 1.5s.4 1.5.8 3.2m-21.6 1.8l-12.4-52.8"/><path d="M72.9 238.7l40 .8 10.3 38.4-15.2 2.2-3.5 29h-5.4l-1.3-42.6m6.7 42.6c2.4.4 24.1 9.5 24.1 9.5l-15.8 6.4L99 309.1"/><path d="M105 304.9l27 1.8-9.1 9.5M36.4 151.8l7.6 99.9h-7.6l-14.3-99.9z"/><path d="M33 251.7l70-1.9-1.2 16.7-68.8-3.3zm62.1 14.5L90.2 325h-4.5v-58.5"/><path d="M36.4 263.3v60.8H44l3-60.2m38.7 27H45.6m40.1 7.3L45.3 297"/></g></svg>