<svg version="1" xmlns="http://www.w3.org/2000/svg" width="288" height="288"><path fill="none" stroke="#000" stroke-width="2" stroke-miterlimit="10" d="M112.6 199.9S131.1 69 86.1 71.2c-45 2.2-25.4 133.1-25.4 133.1l51.9-4.4zm-56.1-63.4l59.7-3.1m0 11.3l-59.7 5m10.9-66s.4 25 .9 52.2m.2 12.1c.5 28.4.9 55.5.9 55.5m9.4-130.6s.7 30.9 1.4 62.5m.2 12.5c.6 28.7 1.2 54.6 1.2 54.6m9.5-131c0 .5.5 31.8 1.1 63.5m.2 12.5c.5 28.5.9 54 .9 54m11.4-120.1v52.7m0 11.7v54.8m68.3-.7S154.5 69 199.5 71.2c45 2.2 25.4 133.1 25.4 133.1l-51.9-4.4zm56.1-63.4l-59.7-3.1m0 11.3l59.7 5m-10.9-66s-.4 25-.9 52.2m-.2 12.1c-.5 28.4-.9 55.5-.9 55.5m-9.4-130.6s-.7 30.9-1.4 62.5m-.2 12.5c-.6 28.7-1.2 54.6-1.2 54.6m-9.5-131c0 .5-.5 31.8-1.1 63.5m-.2 12.5c-.5 28.5-.9 54-.9 54M180.9 81.4v52.8m0 11.6v54.8m-39.5-70.9s.4-12.7 1-27.3m.5-16.3c.5-14.6 1-27.2 1-27.2m5.2 70.8s.8-2.5 2-6.4m2.5-7.9c1.6-5.1 3.5-10.9 5.2-16.4m3.3-10.4c2.2-6.8 3.7-11.7 3.7-11.7m-30.9 52.8s-.9-2.9-2.3-7.3m-2.8-8.6c-1.8-5.8-4-12.5-5.9-18.5m-2.6-8.5c-1.9-5.9-3.2-9.9-3.2-9.9m23.3 80.7s.4 12.7 1 27.3m.5 16.2c.5 14.6 1 27.2 1 27.2m5.2-70.7s.8 2.5 2 6.4m2.5 7.9c1.6 5.1 3.5 10.9 5.2 16.4m3.3 10.3c2.2 6.8 3.7 11.7 3.7 11.7m-30.9-52.7s-.9 2.9-2.3 7.3m-2.8 8.5c-1.8 5.8-4 12.5-5.9 18.5m-2.6 8.5c-1.9 5.9-3.2 9.9-3.2 9.9"/></svg>