<svg version="1" xmlns="http://www.w3.org/2000/svg" width="288" height="288"><g fill="none" stroke="#000" stroke-width="2" stroke-miterlimit="10"><ellipse transform="matrix(.9951 -.09903 .09903 .9951 -4.645 14.218)" cx="140.9" cy="53.9" rx="14" ry="20.7"/><path d="M140.2 74.3l1.4 5.9 7.4-1.3-1-6.4"/><path d="M126.2 83.4s28-6.3 36.8-6.1l2.2 61.1-27.7 3.3-11.3-58.3z"/><path d="M126.2 83.4l-17.5 14.4L99 70.7l-4.3 2.4 8 39.8 26.4-14.6"/><path d="M99.2 71V60.7l-3.8-.6v3.3l-17.7 1.8 3.6 4.4 13.4 3.5m14 24.7l-6 15.1M163 77.3l25.9 7.4-1.9-30.4h5.4l8.6 41-37.5-5.3M187 54.3l-2.8-9.3 4.7-1.5 1.1 2.8 20-.1-6.6 5.7-11 2.4m-3.5 30.4l11.1 9.1m-62.4 47.9s3.7 69.5 10.7 97.5h5l-1.8-98.6 3.6-.2s12.9 79.3 13.7 96.8l5.2-.2s1-75-8.8-98.5m-16.4 100.7L129 250.3l16.5 3.4 8-13.9zm19.5-.9l6 16.5 18.7-6.4-18.5-11z"/></g></svg>