<svg version="1" xmlns="http://www.w3.org/2000/svg" width="288" height="288"><path d="M117.4 89.9L83.2 129s-1.4 12.2-.6 11.4 43.2-47.7 43.2-47.7l-8.4-2.8zm107.5 62.9s2.4 13.4-6.7 19.1c0 0 8.1-.4 9.4-9.3 1.4-8.9-2.7-9.8-2.7-9.8zm-1.9 23.1s-6.5 43.3-6 72.8l1.4 9.5 9.5-3.3-9.5-6.2 2.4-43.2 4.2-19.2 3.8 11 1.8 8.1-1.3 4.9 1.3 3.6s2.4.8 1.9.5c-.5-.3-.3-15.2-1.8-19.4s-3.5-15.2-3.9-15.6-.8-2.9-.8-2.9l-3-.6zm-16.4 72.8c0 .6-9 6.1-9 6.1l4.5 4 5.9-9.5 5.1-37.8 1-7.3h-2.7c.1 0-5.1 30.5-4.8 44.5z" fill="#27AAE1"/><g fill="none" stroke="#000" stroke-width="2" stroke-miterlimit="10"><path d="M105.4 80.3h-5.2c-6.6 0-12-5.4-12-12V52.4c0-6.6 5.4-12 12-12h5.2c6.6 0 12 5.4 12 12v15.9c0 6.6-5.4 12-12 12z"/><path d="M88.2 59.7s5.8 2.7 9.1 1.5c3.3-1.2 6.8-1.7 11.8 0 5 1.7 8.2-1.9 8.2-1.9"/><path d="M126.5 90.5c2.2-.6 4.3-1.3 4.3-1.3-8.2-7.8-5.3-43.8-8.8-51.8-3.5-8-19.1-4.8-19.1-4.8S85.1 29.2 83 40.7c-1.9 10-1.4 36.5-4.2 45.6l6.4 1.8m3-31.5s-6.8 2.6 0 7.9m29.7-7.9s6.8 2.6 0 7.9"/><path d="M98.6 80.7c-.6-.5 0 6.5 0 6.5l10.1.3v-6.8s-7.8 1.9-10.1 0z"/><path d="M84 88.2s27.7-3 42.3 2.7c0 0-9 90.5 11 138.3 0 0-44.7 14.2-70.3-10.8 0 0 15.7-74 15.7-83.3S84 88.2 84 88.2z"/><path d="M113 88.5l-30.4 37.8L82 141l43.8-49zm-29.8 0l-25.1 56 17.2 9.2s7.5-39 7.8-41.9m-12.6 40.1l-3.5 8.4-8 5-3.6-1.4 8.1-16.2"/><path d="M70.6 151.2l2.5 6.1-.8 3.5-1.3.3-2.9-4.4M125.8 92l22.2 55.3-17.2 9.2-5.8-47.1s.6-13.4.8-16.6m10.6 61.6l3.5 8.3 8.1 5.1 3.5-1.5-8.1-16.1"/><path d="M136.3 153.7l-2.5 6.1.8 3.5 1.3.2 2.9-4.4m-49.3 72.5l2.8 12.8H94l2.8-11.8m21.3 1l-2.8 12.8h-1.7l-3.1-13.2m-18.3 11.2L70 247.2l8.7 9 16.5-9zm23.2 2l22.2 2.9-8.7 9-16.5-9zM151.5 32l7.4 224.2 21.3 2.1V32zm.4 12.9h9.6m-9.4 4.5h15.1m-15 4h10.3M153 72.9l6.7-.7m-6.7 5.2h11.9m-11.7 5h8.9m-8.2 20.8h9.6m-9.4 4.5h15.1m-15 4h10.3m-9.5 19.5l6.7-.7m-6.7 5.2h11.9m-11.7 5h8.9m-8.2 29.4h9.6m-9.4 4.5h15.1m-15 4h10.3m-9.5 19.5l6.7-.7m-6.7 5.2h11.9m-11.7 5h8.9m-8.2 24.9h9.6m-9.4 4.5h15.1m-15 4h10.3"/><ellipse transform="rotate(-74.562 220.778 162.37)" cx="220.8" cy="162.4" rx="9.8" ry="6.7"/><path d="M227.6 156.4s-7.5-1.4-9.3-4m9.3 7.5s-8-1.9-11.6-5.8m-1.5 2.6s6.5 5.5 12.5 5.7m-6.7 9.5l-1.1 3.2-2.8-.7.2-3.3"/><path d="M226.7 176.7l-16.6-3.6s-4.2 13.9-2.2 29.8l13.6 2.9 5.2-29.1z"/><path d="M210.1 173.1s-9.5 14.5-10 31.5l1.7.8s2.8-12.2 5.7-16.5"/><path d="M202 205.3l1 4.5-1.1.6v2.8l-3 1.3 1.2-9.9zm4.6-14.9l-3.4-2.5m23.6-11.1c2.5 5.6 6.3 16.4 5.9 28l-1.8.7s-3.3-14.7-5.9-19.2"/><path d="M230.6 205.4l-1.3 4.5 1 .6-.2 2.8 3 1.5-.5-9.9zm-3.6-15.1l3.6-2.3m-9.1 17.8l-3.1 43H216l-1.7-44.5-6.2 44.5-1.6-.5s-4-30.2 3.2-45"/><path d="M218.3 248.7l8.7 4.3-6.8 3.4-4.3-7.7zm-10.2 0l-5.4 7.7-6.9-5.3 10.4-3.1z"/></g></svg>