<svg version="1" xmlns="http://www.w3.org/2000/svg" width="288" height="288"><g fill="none" stroke="#000" stroke-width="2" stroke-miterlimit="10"><ellipse cx="150.3" cy="75.3" rx="13.4" ry="21.4"/><path d="M129.4 122.6V87.9s3.3-2.2 9-3.5"/><path d="M168.7 97.6V155s-26.2 2.4-39.4-1.2c0 0 .1-29.4.1-31.2"/><path d="M163.1 83.8l3.2 1.4c4.4 1.9 7.5 5.7 8.5 10.4 3.1 14.8 5.9 40.1 4.8 60.3l-5.4 1.2s2.2-19.2-5.6-36"/><path d="M174.3 156.9l-2.4 8.2 2.4 2.5v10.9l8.3-5.3-2.9-17.5m-9-29.9c-.1-.3 6.6-5.7 6.6-5.7M117 146.9c2.4-28.7 6.7-46 8.6-52.1 0 0 2-5.8 3.8-6.8"/><path d="M129.4 122.1c-2.4 7.5-6.8 34.8-6.8 34.8l-5.4-1.2c-.2-2.9-.2-5.9-.2-8.8"/><path d="M122.7 156.9l2.4 8.2-2.4 2.5v10.9l-8.3-5.3 2.9-17.5m14.5-1.4l5.1 79.8h6.9l5.2-78.4m1.3 0l9.5 78.4h5.8l3.1-79.2m-31.8 79.2L120 248.2l20.4 3.4 3.4-17.5m16 0l3.9 18.8 18.9-5.4-17-13.4"/></g></svg>