<svg version="1" xmlns="http://www.w3.org/2000/svg" width="288" height="288"><g fill="#27AAE1"><path d="M174.7 55.9s-12 23.4 3.1 41c0 0-12.3-6.6-11.3-22.4s8.2-18.6 8.2-18.6zM155.5 123c.3 0 .5.1.8.1.8-1.8 1.6-3.4 2.7-4.5l-.8-13s-3.5 6.7-6.2 17.4c1.1-.1 2.3-.1 3.5 0z"/><path d="M159 118.6c-.6.2-6.1 4.7-7 4.4 4.7-31.3.3.2 0 0-2.4 16.9-2.8 30.9-2.5 33.7l2.7.6c.1 0 6.7-34 6.8-38.7z"/><path d="M161 122.8l-.1 6.2c1-.7 2-1.1 3.1-1.3l-2-41-3.9 1.6.8 34.1 2.1.4z"/><path d="M165.2 151.4l-1.2-23.7c-.8 0-3.1-6.4-4-6.5-.3-.1-.3 6.9-.5 7.6l-.1.8.2 21.6-.7.1v2.7l2.4.6 5.1 79.8L149 252l17.8 2.2 3.2-19.7 2.1-78.4 19.5-.3-26.4-4.4z"/><path d="M185.4 156.1l7.1 78.4 18 15.1L191 252l-1.6-17.5-9.5-78.4z"/></g><g fill="none" stroke="#000" stroke-width="2" stroke-miterlimit="10"><ellipse cx="179.9" cy="75.7" rx="13.4" ry="21.4"/><path d="M170 55.9s11.6 6 19.1 2.3M168 60.1s13.2 7.7 23.7 2.5m-25.2 1.5s14.4 6.6 26.7 2.7m-28 1.5s17.7 7.1 29.4 1.4M159 123V88.3s3.3-2.2 9-3.5M198.3 98v57.4s-26.2 2.4-39.4-1.2c0 0 .1-29.4.1-31.2"/><path d="M192.7 84.2l3.2 1.4c4.4 1.9 7.5 5.7 8.5 10.4 3.1 14.8 5.9 40.1 4.8 60.3l-5.4 1.2s2.2-19.2-5.6-36"/><path d="M203.9 157.3l-2.4 8.2 2.4 2.5v10.9l8.3-5.3-2.9-17.5m-9-29.9c-.1-.3 6.6-5.7 6.6-5.7m-60.3 26.8c2.4-28.7 6.7-46 8.6-52.1 0 0 2-5.8 3.8-6.8m0 34.1c-2.4 7.5-6.8 34.8-6.8 34.8l-5.4-1.2c-.2-2.9-.2-5.9-.2-8.8"/><path d="M152.3 157.3l2.4 8.2-2.4 2.5v10.9l-8.3-5.3 2.9-17.5m14.5-1.4l5.1 79.8h6.9l5.2-78.4m1.3 0l9.5 78.4h5.8l3.1-79.2m-31.8 79.2l-16.9 14.1L170 252l3.4-17.5m16 0l3.9 18.8 18.9-5.4-17-13.4"/></g><path fill="none" d="M133.3 50.3c19.9 1.3 39.8 4.4 59.1 9.2-26 3.8 1.1 8.7-24.9 12.4-2.2.3-4.9 1.2-5 3.4 28.2-.2 3.4-1.5 31.4 1.7-27.7 11.4-6.8 4.4-35.4 13.5 29.4 1 5.7 1.5 35 3.8-25.7 2.1 1.7 5.4-24.1 7.5-5.5.5-11.8 1.4-14.8 6 22.4 0-8.1-1.2 13.8 3.7-24.2 2.8 4.6 6.6-19.6 9.4-2.9.3-6.2.9-8 3.2 30 .1 6.9-1 36.9-.9-29.6 6.1-6.1 13.3-35.2 21.5 10.5 1 21 1.9 31.6 2.9 5 .5-43.1-.2-38.1.1 11.5.7 23 .5 34.4-.6 10.1 2.3 20.2 4.6 30.4 7-17.6.2-35.2 3.5-51.6 9.9-1.6.6-4.2.6-4.2-1.1-1.5 1.4-.9 4 .7 5.3 1.5 1.3 3.6 1.7 5.6 2 14.1 2.2 28.2 4.4 42.2 6.5-16.2 2.2-32.4 4.5-48.6 7-2.7.4-5.9 1.2-6.9 3.8 26.6 2.6 53.2 5.1 79.8 7.7-23.7 5.1-47.4 10.1-71.1 15.2-1.9.4-3.9.9-5.1 2.4 19.1 1.4 38.2 3.1 57.2 5-7.4 4-15.5 6.2-23.6 8.4-12 3.3-24 6.5-36.1 9.8 24.8.8 49.6 1.5 74.4 2.3-27 2.5-54.4 1.4-80.9 7.2-1.9.4-4 1.1-4.6 2.9 27.9 1.6 55.8 2 83.7 1.3"/></svg>