<svg data-name="Layer 1" xmlns="http://www.w3.org/2000/svg" viewBox="0 0 259.69 441.93"><ellipse cx="64.36" cy="80.69" rx="27.83" ry="41.5" fill="none" stroke="#231f20" stroke-miterlimit="10" stroke-width="2.79"/><path d="M38 67.37s22.86 2.95 26.36-11.39c0 0 3.78 14.2 26.39 11.49m-34.09 53.1v13.06m15.43-13.06l1.78 11.29m33.14 55.52l17.18 24.27 56-36.67-2.66-36.66-50 38.66-31.33-45.13-67.67 2.47s-20.66 31.66-27 77.33c0 0 22.36 10 57.89 12.67l2.2-32-44.75-3m30.62-55.69l19.03 30.27" fill="none" stroke="#231f20" stroke-miterlimit="10" stroke-width="2.79"/><path d="M82.25 132.36l-23 45.73-.43 13.09" fill="none" stroke="#231f20" stroke-miterlimit="10" stroke-width="2.79"/><path d="M54.13 144.18c.73-1 11.09-10.37 11.09-10.37l11.09 10.37" fill="none" stroke="#231f20" stroke-miterlimit="10" stroke-width="2.79"/><path fill="none" stroke="#231f20" stroke-miterlimit="10" stroke-width="2.79" d="M60.94 137.71l1.58 8.11-2.01 8.51m9.21-16.31c-.07.63-1.64 8-1.64 8l3.13 9.13m-7.81-9.13h4.69M29.2 190.2l3.32-23.55"/><path d="M60.99 198.81l7.29.51 5-5.84 12.74.84v5l14.79 2.16-1 15.17H72.26l-5.27-4.5-7.17-.74" fill="none" stroke="#231f20" stroke-miterlimit="10" stroke-width="2.74"/><path d="M65.86 199.61l1.33-23 40.3 2.41-3.27 56.41-39.61-2 1.23-21.25m13.69-35.15v-.07a7.19 7.19 0 0114.36.52M183.52 139l17.75-3.85 1 6-12.35 5 .1 5.38-4.75 5.62" fill="none" stroke="#231f20" stroke-miterlimit="10" stroke-width="2.79"/><path d="M196.73 144.32v13.91a4.69 4.69 0 009.38 0v-36.77h-9.38v14.36m-16.54 25.36s8 1 8.67 1 7.87-2.17 7.87-2.17m-19.21-21.69l7.67-5.95 11.54-1.38m10.29 0l6.17 2.83v19.17l-7.08 3.33M26.19 219.65l-7 88.67 50.34 20.33 37-20-4.94-74m-43.98-9.59l-3.48 97.37" fill="none" stroke="#231f20" stroke-miterlimit="10" stroke-width="2.79"/><path d="M45.67 319.01c3.59 43.71 7.53 91.51 7.53 91.51h9.33l2.81-84.21m8.24.17l2.29 84h9.66l5.3-93.7M53.2 410.52l-30.67 17.34 28 11 12.02-28.34m13.32 0l15 29.67 26.66-10-32-19.67m110.74-289.47l-8.27-9.01 1.81-7.75v-8l6.46 6.25v6.25l4.69-2 .85-5.25-5.11-3.75-4.26-9 1.87-11.75 6.65-9.64-1.4 12.88 6.09 9.01 3.54 7.25-1.13 5.5 6.25-1.75-1.58 6.25 1.58 4.75-8.66 9.76m-23.38-34.27s-3.06-2.16-3.34-3.15-.24-8.76-.24-8.76l6.9-3.44a13 13 0 01-2.1-3.44 29.46 29.46 0 01-.13-4.75l4.9-1.52s-1-8.59-1.6-9.57 1.75-5.3 2.73-6.08 7.71-1.47 7.71-1.47-1.49-5.46-1.22-6.22 1.4-5.06 2.14-5.57 4.18-2.6 4.18-2.6l2.9 2.4 3.25-10.33 5.92-4.5 6.43 3.32m-15.06 40.39s-.41-4.88 0-5.92 5.42-7.28 5.42-7.28l7 1.75-2-5.67 3.5-7 8.34.67-3.37-6.5 3.84-5.84 6.41 2.84-1.5-6.5 1.5-4.25 6-1.25 1.5-8.25 7.75-5.5 9 4.5m-44.72 79.5l-1.58-5.42 2.33-8.16 4.34-1.67 5.5 1-3.34-8.33 1.67-6.34 5.5-5.58h4.67l5.66 2.42v-7.34l1.67-5.83 4.33-1.33 6.34.83m-205.37-8.9l-9.49-18.35m20.35 14.15L48.56.4m22 27.54L78.89.4m2.53 31.74l9.5-18.35" fill="none" stroke="#231f20" stroke-miterlimit="10" stroke-width="2.79"/></svg>