<svg data-name="Layer 1" xmlns="http://www.w3.org/2000/svg" viewBox="0 0 215.33 404.14"><ellipse cx="64.36" cy="42.89" rx="27.83" ry="41.5" fill="none" stroke="#231f20" stroke-miterlimit="10" stroke-width="2.79"/><path d="M38 29.58s22.86 2.95 26.36-11.39c0 0 3.78 14.2 26.39 11.49M56.66 82.77v13.06m15.43-13.06l1.78 11.29m33.14 55.53l17.18 24.27 56-36.67-2.66-36.66-50 38.66L96.2 94.06l-67.67 2.47s-20.66 31.66-27 77.33c0 0 22.36 10 57.89 12.67l2.2-32-44.75-3m30.62-55.7l19.03 30.28" fill="none" stroke="#231f20" stroke-miterlimit="10" stroke-width="2.79"/><path d="M82.25 94.57l-23 45.73-.43 13.09" fill="none" stroke="#231f20" stroke-miterlimit="10" stroke-width="2.79"/><path d="M54.13 106.39c.73-1 11.09-10.37 11.09-10.37l11.09 10.37" fill="none" stroke="#231f20" stroke-miterlimit="10" stroke-width="2.79"/><path fill="none" stroke="#231f20" stroke-miterlimit="10" stroke-width="2.79" d="M60.94 99.91l1.58 8.11-2.01 8.51m9.21-16.3c-.07.63-1.64 8-1.64 8l3.13 9.13m-7.81-9.14h4.69M29.2 152.4l3.32-23.54"/><path d="M60.99 161.02l7.29.51 5-5.84 12.74.84v5l14.79 2.16-1 15.17H72.26l-5.27-4.5-7.17-.74" fill="none" stroke="#231f20" stroke-miterlimit="10" stroke-width="2.74"/><path d="M65.86 161.82l1.33-23 40.3 2.41-3.27 56.41-39.61-2 1.23-21.25m13.69-35.15v-.07a7.19 7.19 0 0114.36.52m89.63-38.48l17.75-3.85 1 6-12.35 5 .1 5.37-4.75 5.63" fill="none" stroke="#231f20" stroke-miterlimit="10" stroke-width="2.79"/><path d="M196.73 106.53v13.91a4.69 4.69 0 009.38 0V83.67h-9.38v14.36m-16.54 25.36s8 1 8.67 1 7.87-2.17 7.87-2.17m-19.21-21.7l7.67-5.95 11.54-1.38m10.29 0l6.17 2.83v19.17l-7.08 3.33M26.19 181.86l-7 88.67 50.34 20.33 37-20-4.94-74m-43.98-9.59l-3.48 97.37" fill="none" stroke="#231f20" stroke-miterlimit="10" stroke-width="2.79"/><path d="M45.67 281.22c3.59 43.71 7.53 91.51 7.53 91.51h9.33l2.81-84.21m8.24.17l2.29 84h9.66l5.3-93.7M53.2 372.73l-30.67 17.33 28 11 12.02-28.33m13.32 0l15 29.66 26.66-10-32-19.66" fill="none" stroke="#231f20" stroke-miterlimit="10" stroke-width="2.79"/><circle cx="198.57" cy="72.05" r="3.67" fill="none" stroke="#231f20" stroke-miterlimit="10" stroke-width="2.79"/><circle cx="208.9" cy="56.76" r="5.04" fill="none" stroke="#231f20" stroke-miterlimit="10" stroke-width="2.79"/><circle cx="196.8" cy="45.12" r="3.91" fill="none" stroke="#231f20" stroke-miterlimit="10" stroke-width="2.79"/></svg>