<svg version="1" xmlns="http://www.w3.org/2000/svg" width="288" height="288"><ellipse transform="rotate(-14.917 161.827 89.93)" fill="none" stroke="#000" stroke-width="2" stroke-miterlimit="10" cx="161.8" cy="89.9" rx="11.6" ry="16.3"/><path fill="none" stroke="#000" stroke-width="2" stroke-miterlimit="10" d="M185.6 101.9l9.9-4s-14.3-10.8-19.2-19.8c-4.8-9.1-13.5-16.7-23.2-12-9.7 4.7-10.5 21.9-5.2 37.6 0 0 3.8 11.2 3 14.7"/><path fill="none" stroke="#000" stroke-width="2" stroke-miterlimit="10" d="M171.1 101.9l2.1 5.1-5.3 2.3-2.7-3.5"/><path fill="none" stroke="#000" stroke-width="2" stroke-miterlimit="10" d="M165.8 107.5l-4.9 5.4h4.9l3.9 6 2-5 7.7 3.5-1.6-6.1 5.8-4.3-5.8-1.9 1.6-3.2-7.5 2.1"/><path fill="none" stroke="#000" stroke-width="2" stroke-miterlimit="10" d="M179.2 102.4l7.6-.5 16.4 15.3H198l1.2 7-6.1-2.4-.5 6.8-8-8.2m-21.4-10l-8.4 6.1"/><path fill="none" stroke="#000" stroke-width="2" stroke-miterlimit="10" d="M199.7 117.2L206 128s-12.5 21.9-15.5 27.1m-4.1-4.2c.7-1.5 8.8-19.4 8.8-19.4l-2.6-4.8m13.5.6l-11 4.6m-17.2 35.2l8.7 2.8 1.8-10.7-5.2-2.4z"/><path fill="none" stroke="#000" stroke-width="2" stroke-miterlimit="10" d="M203.2 132.6l-2 34.8 23.9 4-10.1 5.5 7.2 1.5-7.2 4.2 7.4 2.9-7.4 3.1 7.9 9h-33.5"/><path fill="none" stroke="#000" stroke-width="2" stroke-miterlimit="10" d="M220 178.1l15.3-1.2v3.1l-15.2 5.6"/><path fill="none" stroke="#000" stroke-width="2" stroke-miterlimit="10" d="M234.1 180.4c-.3.1-1.8 18.6-1.8 18.6h8.2l-5.2-19"/><ellipse transform="rotate(-23.263 159.515 130.9)" fill="none" stroke="#000" stroke-width="2" stroke-miterlimit="10" cx="159.5" cy="130.9" rx="10" ry="15.1"/><path fill="none" stroke="#000" stroke-width="2" stroke-miterlimit="10" d="M168.6 142.2l1.2 5.3-6.1 1.7-1-3.5m7.4.6l7.2.4"/><path fill="none" stroke="#000" stroke-width="2" stroke-miterlimit="10" d="M161.5 145.3l-2 3.9h4.8l-.5 6.1 5.3-4.6 5 5.4.9-6.8 1.8-2.7s4.8.7 7.1 1.1c2.3.4 8.8 12.1 8.8 12.1l-4.5.7m-33.1-14l-7.8 3.6 2.4 8.5s5.8 2.9 6 2.9 3.9-2.7 3.9-2.7l-4.5-12.3zm-5.9 2.7s-3.2-13-.6-21.8m4.3 20.1l.3-7.8"/><path fill="none" stroke="#000" stroke-width="2" stroke-miterlimit="10" d="M151.5 159.6s-13.3 18.6-25.7 21.9l8.8 1 .5 3.1 6.4-1.5-.4 5.8 8.2-3.1 2.3 7.4 5.9-3.5s4.2 4.4 5.3 3.5c1.1-.9 18.8-25.9 18.8-25.9m11.2-8.5l7.8 18.8-17 27.2-15.1 4.8-3-2.7 8.2-8.1 7.1.1 8.7-20.9-2.9-9.1m-5.8 30l2.2 5.2m6.3-26.7l11.3.2"/><path fill="none" stroke="#000" stroke-width="2" stroke-miterlimit="10" d="M161.2 193.9l-93.4 30.9 1.3-3.4-4-.8 74.9-35.1m-76.1 29.1c.6-.3 64.1-32.8 64.1-32.8"/><path fill="none" stroke="#000" stroke-width="2" stroke-miterlimit="10" d="M65.1 219.8l-3.5-14.7-9.1-2.6 8.9 23.3 4.8-1-1.1-4.2m-12.6-17.4l-5.9-.7 9.9 22.3H61m121.2-27.2h-21.3l1.8-3.5"/></svg>