<svg version="1" xmlns="http://www.w3.org/2000/svg" width="288" height="288"><g fill="none" stroke="#000" stroke-width="2" stroke-miterlimit="10"><ellipse transform="rotate(-23.263 138.099 128.274)" cx="138.1" cy="128.3" rx="10" ry="15.1"/><path d="M147.2 139.6l1.1 5.3-6.1 1.7-1-3.5m18.1 54.2l2.3 5.2m6.3-26.7l11.2.2m-52.2 3.3l-63.2 32.2 2.4 4.5 80.2-31.2m-83.8 22.1c.5-.3 55.2-31.3 55.2-31.3"/><path d="M135.1 148.1c1-.1 24.2-4.2 24.2-4.2l-13.1 41.2s-30.3-8.4-29.3-9.1c1-.7 13.7-18.8 13.7-18.8l4.5-9.1zm-71.6 63.8l-3.4-13.1-8.1-2.1 8.4 20.7 4.3-1-.7-2.8z"/><path d="M52.1 197.3l-5.2-.5 9.2 19.8 4-.1m95.5-59.8l3.5 2.6 6 8 2.9 9.1-8.7 20.9-7.1-.1-8.2 8.1 3 2.7 15.1-4.8 17-27.2-7.8-18.8-11.7-13.6m-24.5 4.5l-10.8 10.2-3.4 12.5"/></g></svg>