<svg data-name="Layer 1" xmlns="http://www.w3.org/2000/svg" viewBox="0 0 143.04 405.43"><ellipse cx="282.81" cy="131.41" rx="28.67" ry="44.67" transform="rotate(-4.02 -1042.628 3175.605)" fill="none" stroke="#231f20" stroke-miterlimit="10" stroke-width="2.79"/><path d="M49.66 7.86s7.53 1.34 18.88-6m7.05 3.02S59.32 15.8 45.22 14.36m-3.9 6.75s22.26 1.25 39.89-11.56M39.22 27.58s28 2.71 45.9-13.16M61.75 89.56l-.87 8.66m15.69-9.7l2.11 7.61M43.77 170l-10.45-67.17 64.33-9.5 1.62 92.75" fill="none" stroke="#231f20" stroke-miterlimit="10" stroke-width="2.79"/><path fill="none" stroke="#231f20" stroke-miterlimit="10" stroke-width="2.79" d="M44.78 101.13l9.53 13.45-4.36 5.75 23.25 19.73 19.91-23.5-4.8-4.23 9.33-17.63m-39.08 5.14l16.25 34.74"/><path fill="none" stroke="#231f20" stroke-miterlimit="10" stroke-width="2.79" d="M85.12 96.13l-12.81 47.2 3.35 40.66m-11.71-72.62l7.26-13.15 10.55 10.28"/><path fill="none" stroke="#231f20" stroke-miterlimit="10" stroke-width="2.79" d="M67.69 104.79l2.64 5.67-1.92 10.44m7.53-18.07l-.5 6.5 3.47 9.68m-8.58-8.55l5.11-1.13m-41.65-5.74L1.87 165.03l64.78 34.92 3.68-12.51-45.71-30.42 12.96-23.59"/><path fill="none" stroke="#231f20" stroke-miterlimit="10" stroke-width="2.79" d="M70.33 187.44l10.29-6.67h10v4.5l12.25.5v13.75l-18.13 5.88-17.37-5.23m-42.75-43.15l-22.75 8.01m59.88 16.7l-3.19 13.86M97.64 93.33l25.67 48.92 4 70.67-10.86 1.59-10.12-65.93-8.05-18.66"/><path fill="none" stroke="#231f20" stroke-miterlimit="10" stroke-width="2.79" d="M116.45 214.51l-.81 14.24 4.67 1v20.5l11.67-7.33-4.67-30m-20.98-64.34l16.98-6.33m-8.26 63.15l11.74-1.66m-27.27-2.67l.12 6.79-49.69 1.8-3.12-20m52.2 19.49l7.3 165.94h-9.28L76.52 209.15 66.08 375.09H55.4L49.95 210.5"/><path fill="none" stroke="#231f20" stroke-miterlimit="10" stroke-width="2.79" d="M66.56 374.63L50.43 403.2l-29.31-14.5 35.26-13.87m49.69.26l33.85 14.5-24.54 13.98-18.6-28.48"/></svg>