<svg version="1" xmlns="http://www.w3.org/2000/svg" width="1920" height="1080"><path fill="#76FF00" d="M1116.9 484.7c-2.1-9.6-4.7-19.2-7.7-28.6-2.1-6.6-4.7-12.9-9.6-17.9-5.4-5.7-12.5-8.4-19.7-11-20.2-7.3-41.9-14-63.6-11.7-11.2 1.2-21.5 4.2-32.3 7-2 .5-3.9 1-5.9 1.4-.6.1-1.3.2-1.9.4-1.6 0-3.3.1-4.9.1-1.1-.4-4.1-1-4.6-1.1-6.3-1.8-13-3.6-19.7-3.2-8.3.5-15.4 3.3-22.8 6.9-11 5.3-22 10.8-33 16.2-10.2 5-14.6 19.1-10.7 29.6-9.9 9.9-14 25.7-13 39.7 1.7 22.6 10.3 44.6 30.4 56.9 4.3 2.6 8.7 4.6 13.4 6 6 6.1 14.7 8.6 23.9 6.7 8.7-1.8 17.4-3.7 26.1-5.5 4.4-.9 8.1-3.3 11-6.4 1.5 0 3.2.1 3.6.5l-2.7-.3c.9.1 1.8.3 2.8.5 3.4.6 6.7 1.3 10.1 1.8 10.4 1.5 19.3 1.5 29.6-.3 6.7-1.2 13.2-3.3 19.9-4.8 2.6-.6 6.3-1.9 9-1.7-3.2.4-3.8.5-2 .3l2.7-.3c1.8-.2 3.7-.3 5.5-.4 6.4-.3 12.8-.2 19.2.4 1 .1 2 .1 3.1.3.8.2 1.7.4 2.2.5 3.6.7 7.2 1.5 10.7 2.4 13.2 3.5 26-4.4 30.1-17.1 7.2-22.2 5.5-45.3.8-67.3z"/></svg>