<svg version="1" xmlns="http://www.w3.org/2000/svg" width="288" height="288"><path fill="#27AAE1" d="M72.3 218.5H222v-19s-4.4-17.4-4.6-18.2c-.2-.8-5.9-21.3-5.9-21.3l-17.7-17.3-16.3-19.7h-62l-6.8 5.9-12.2 10.6-24.2 45v34z"/><g fill="none" stroke="#000" stroke-width="2" stroke-miterlimit="10"><path d="M260.5 218.5v-34l-7-20v-21l-25-32.5-15-23.5s-21-11.5-22.5-12-28-6-31-5.5-35.5 9.5-38.5 11S90 97.5 90 97.5L84.5 110l-31 20s-12 36-14 38.5-12 21-12 21l4 29"/><path d="M72.3 218.5v-34L83.1 164l13.4-24.5 19-16.5h62l15.5 19s18 16.5 18.5 18 10.5 38 10.5 38v20.5m9.8-7.5l6-4.8m-1.6 4.8l4.3-2.4m-8.7-33.6l3 4.2m-1.6-8.4c1.2 1 5.1 8.5 5.1 8.5m-49.1-83.5s-3.5 1.5-1.2 5.8m12.8 16.9l4.7-4m-4.7 7h5.7m-116.3-1.1s-1.2 1.5-1.2 5.2m4.8-5.8s-1.2 1.5-1.2 5.2m33-31l4-1.1m-2 6.2l4.6.7m-83.6 85.6l5.3-5.4m-4.3 10l4.3-4.6"/></g></svg>