<svg version="1" xmlns="http://www.w3.org/2000/svg" width="288" height="288"><path fill="none" stroke="#FFF" stroke-width="32" stroke-miterlimit="10" d="M145.6 160.2c-1.1-.8-2.9-.1-3.4 1.2s.1 2.8 1.1 3.7c1.6 1.4 4.1 1.5 5.8.3 1.7-1.2 2.5-3.5 2-5.5-1-3.9-5.8-5.2-9.8-5.2-2.2 0-4.5.2-6.5 1.2-4.2 2.1-6.2 7.5-5 12 1.2 4.5 5.3 8 9.8 9.3 6.5 1.8 14-.9 17.8-6.4 3.9-5.5 3.8-13.5-.1-19-2.1-3-5.2-5.2-8.5-6.7-7-3.4-15.4-4.2-22.8-1.5-7.4 2.6-13.5 8.8-15.6 16.3-2.3 8.3.4 17.5 5.8 24.1 5.4 6.7 13.3 11 21.5 13.5s16.9 3.3 25.4 3.9c4.6.3 9.6.5 13.4-2.1 5.2-3.6 6.2-10.8 6.4-17.1.3-8.8.1-17.7-2.2-26.1-2.4-8.4-7.2-16.5-14.6-21.2-6.1-3.9-13.4-5.3-20.5-6.3-8.2-1.2-16.8-1.9-24.8.3-8.5 2.3-15.8 7.6-22.3 13.5-3.6 3.2-7.1 6.7-9.4 11-3.8 7.1-3.9 15.9-1.2 23.5s7.9 13.1 14.1 18.3c3.6 3.1 7.7 6.7 12.1 8.5 3.1 1.3 6.2.9 9.5.5 19.4-2.2 38.2-.8 55.8 4.7 3.5 1.1 5-2.1 8.4-3.5 9.1-3.7 14.1-8 16-17.7 1.9-9.6 3.8-18.4 2.4-28.1-.5-3.3-4.6-4.2-6-7.2-1.7-3.6-5.5-5.7-8.2-8.5-6.8-6.8-11.7-13.2-18.5-20-2.1-2.1-1.5-5.9-4.3-7.1-2.7-1.1-5.7-.7-8.6-.8-7.1-.1-14.1.3-21.2.2-3 0-6-.1-8.9.7-2.1.5-4.1 1-6 1.9-3.5 1.7-7.1 5.4-10.5 7.1-.7.4-2.4 2.7-3.1 3.1-3.8 2.2-6.6 5.4-10.2 8.4-3.9 3.3-9.9 4.4-12.8 7.9-3.5 4.3-.4 1.9-2.6 6.9-.9 2-.9 4-1.2 6-.5 2.8-2.1 5.6-2.7 8.7-.8 4-1.8 8.3-1.6 12.4.2 3.6 1.6 7.2 2 10.4.5 4.2-.7 7.9 1.9 10.8 1.6 1.8 3.8 1.8 6.5 3 1.9.8 6.3.6 8.2 1.3 3.7 1.5 6.8-1 10.8-1 6.3 0 13.1.3 19.8.8 5.1.4 10.3 3 15.2 3.8 1.7.2 3.3 0 4.9.3 1.2.2 1.5-2.1 2.7-1.9 2.2.4 4.3 2.3 6.2 2.7 12.3 2.3 20.5 1.7 33.3-4.2 2.7-1.2 8-3.4 11.4-4.7 2.3-.9 4.3-.9 3.5-2.1-1.8-2.9-.9-.4.7-5.5.9-3 1.2-10.9 1.3-14 .2-4.4 1.5-8 1-11.2-1.9-13-10.4-18-21.6-32-2.4-3-5.6-5.2-8-8.6-1.3-1.8-2.5-2.9-3.8-4.7-1.3-1.8-2.8-4.4-4.7-5.1-4.6-1.7-5.8.1-10.7-.4-7.8-.7-13.4-2-21.2-2.3-6.4-.3-17.4 4.7-22.9 8"/><path fill="none" stroke="#000" stroke-width="2" stroke-miterlimit="10" d="M200.4 126l-21.9-23.8-24.8-2.5h-24.4l-19.1 8.7-15 13.5s-21 14.2-21.5 14.2-5.8 20-5.8 20l-4.5 22.2s4.5 26.8 4.8 28 5.2 8.5 8 9.5 13.4 4.2 17.2 5 31.9-1.2 31.9-1.2l14.9 4.8 23.8 2 18.8-1.8 11.5-1.8 26.5-14.2s1.2-10.2 1.2-10.5 3-13.8 3-13.8l.2-23.2L217 144s-8.5-9.2-8.5-10-8.1-8-8.1-8zm-70.1 41.3l3.3 3.7M80 201.8l5.5 3.7m-7.7 0l5 4m72.7-92.4l5.7 1.9m-5.7 1.2l5.7 3.8m37.8 66.5l-2.8 5.3m9-5.3l-4.8 7.8m-52.9 15.2h5.7m-5.7 4.3l5.7.7m-61-60l1.2-5.3m4.1-1.6c-.5.6-2 8.9-2 8.9m37.8 4.8l3.3 3.7"/></svg>