<svg version="1" xmlns="http://www.w3.org/2000/svg" width="288" height="288"><path fill="#FCFBFA" d="M216.2 144.6l8 16.8-.2 22.9c-3 13.5-3 13.8-3 13.9 0 .4-.7 6-1.1 9.9L194 221.8l-11.3 1.8-18.7 1.8-23.6-2-15-4.8h-.2c-7.8.6-28.6 1.8-31.6 1.2-3.7-.8-14.3-4-17.1-5-2.4-.8-7-7.6-7.4-8.8-.2-.8-2.9-17-4.8-27.7l4.5-22c1.8-6.8 4.8-17.9 5.5-19.5 1.4-.8 5.8-3.6 21.3-14.1l15-13.5 18.8-8.6h24.1l24.4 2.5 21.6 23.5.1.1c3.5 3.1 7.3 6.7 7.8 7.5.3.7 1.5 2.4 8.8 10.4z"/><path d="M74.1 137c.1 0 .2-.1.2-.1-.1 0-.2.1-.2.1zm-4.9 69.1c.3 1.2 5 8 7.4 8.8 2.8 1 13.4 4.2 17.1 5 3 .6 23.8-.7 31.6-1.2h.2l15 4.8 23.6 2 18.7-1.8 11.3-1.8L220 208c.5-3.9 1.1-9.5 1.1-9.9 0-.1 0-.4 3-13.9l.2-22.9-8-16.8c-7.3-7.9-8.4-9.7-8.6-10.3-.5-.8-4.3-4.4-7.8-7.5l-.1-.1-21.8-23.4-24.4-2.5h-24.1l-18.8 8.6-15 13.5c-15.6 10.5-20 13.3-21.3 14.1-.7 1.7-3.8 12.7-5.5 19.5l-4.5 22c1.8 10.7 4.6 26.8 4.8 27.7zm-2.3-50.2c5-19 5.7-20.6 6.5-20.8 1.6-.8 13.3-8.7 21.1-14l15.2-13.6 19.3-8.8h24.7l25.2 2.5 22.1 24.1c7.3 6.5 8.3 7.9 8.4 8.5.5.9 4.6 5.5 8.2 9.5l.2.2 8.3 17.3-.2 23.6c-1.2 5.2-2.9 13.1-3 13.7-.1.9-.7 6.1-1.2 10.5l-.1.5-27.1 14.5-11.7 1.8-18.9 1.8h-.1l-24-2-14.7-4.7c-2.7.2-28.2 2-32 1.2-3.8-.8-14.4-4-17.3-5-3.2-1.2-8.3-8.9-8.6-10.2-.3-1.2-4.4-25.3-4.8-28.1v-.4l4.5-22.1z"/><path d="M129.533 168.027l1.493-1.331 3.328 3.731-1.493 1.331zm-50.15 34.625l1.116-1.659 5.476 3.684-1.116 1.66zm-2.2 3.628l1.25-1.562 4.997 3.999-1.25 1.561zm77.942-88.2l.632-1.897 5.693 1.897-.633 1.897zm-.123 2.924l1.11-1.664 5.741 3.827-1.11 1.665zm40.355 74.353l2.803-5.305 1.768.934-2.802 5.305zm4.187 2.44l4.825-7.834 1.703 1.049-4.825 7.833zM147.5 212.5h5.7v2h-5.7zm-.106 6.247l.244-1.985 5.657.695-.244 1.985zm-56.117-60.464l1.192-5.266 1.95.441-1.192 5.267zM96.7 151c-.2.2-.7.8-2.2 9.4l2 .4c.7-3.7 1.6-7.9 1.9-8.5l-.1.1-1.6-1.4zm35.833 15.027l1.493-1.331 3.328 3.731-1.493 1.331z"/></svg>