<svg version="1" xmlns="http://www.w3.org/2000/svg" width="288" height="288"><path fill="#27AAE1" d="M149.9 158.3l-12 14.8-.2 3.8 7.4-8.2 7.9-9.7z"/><g fill="none" stroke="#000" stroke-miterlimit="10"><path stroke-width="2" d="M259.9 218.4v-34l-7-20v-21l-25-32.5-15-23.5s-21-11.5-22.5-12-28-6-31-5.5-35.5 9.5-38.5 11-31.5 16.5-31.5 16.5l-5.5 12.5-31 20s-12 36-14 38.5-12 21-12 21l4 29"/><path stroke-width="2" d="M71.7 218.4v-34l10.7-20.5 13.4-24.5 19-16.5h62l15.5 19s18 16.5 18.5 18 10.5 38 10.5 38v20.5m9.8-7.5l6-4.8m-1.5 4.8l4.3-2.4m-8.8-33.6l3 4.2m-1.5-8.5c1.2 1 5.1 8.5 5.1 8.5m-49.1-83.5s-3.5 1.5-1.2 5.8m12.7 17l4.8-4m-4.8 7h5.8m-116.3-1.1s-1.2 1.5-1.2 5.2m4.7-5.8s-1.2 1.5-1.2 5.2m33.1-31l4-1.1m-2 6.2l4.6.6M48 185.3l5.2-5.4m-4.2 10l4.2-4.6"/><path d="M145.1 155.4c-2.9 0-5.2-2.3-5.2-5.2v-3.8c0-2.9 2.3-5.2 5.2-5.2 2.9 0 5.2 2.3 5.2 5.2v3.8c-.1 2.8-2.4 5.2-5.2 5.2z"/><path d="M139.9 148.1s2.1 1 3.2.5c1.2-.4 2.4-.6 4.2 0 1.8.6 2.9-.7 2.9-.7m-10.3-1s-2.4.9 0 2.8m10.5-2.7s2.4.9 0 2.8"/><path d="M153.5 159c.8-.2 1.5-.5 1.5-.5-2.9-2.8-1.9-15.6-3.1-18.4s-6.8-1.7-6.8-1.7-6.3-1.2-7.1 2.9c-.7 3.5-.5 13-1.5 16.2l2.3.6"/><path d="M143.6 155.5c-.2-.2 0 2.3 0 2.3l3.6.1v-2.4c-.1 0-2.8.7-3.6 0z"/><path d="M138.4 158.2s9.8-1.1 15 1c0 0-3.2 32.1 3.9 49.1 0 0-15.9 5-25-3.8 0 0 5.6-26.3 5.6-29.6s.5-16.7.5-16.7z"/><path d="M138.1 158.3l-8.9 19.9 6.1 3.3s2.7-13.9 2.8-14.9m-4.5 14.2l-1.2 2.9-2.9 1.8-1.3-.5 2.9-5.7"/><path d="M133.6 180.5l.9 2.2-.3 1.2-.4.1-1-1.5m20.4-23l7.9 19.6-6.1 3.3-2.1-16.7s.2-4.8.3-5.9m3.8 21.8l1.2 3 2.9 1.8 1.2-.5-2.8-5.7"/><path d="M157 181.4l-.9 2.2.3 1.2.4.1 1-1.6m-17.5 25.8l1 4.5h.6l1-4.2m7.6.4l-1 4.5h-.6l-1.1-4.7m-6.5 4l-7.9 1 3.1 3.2 5.9-3.2zm8.2.7l7.9 1-3.1 3.2-5.8-3.2zm-.8-56l-10.8 13.4-.2 5.2 15.5-17.4zm-17.7 7.4s-1.9-.2-4.5-.4m-3.5-.3c-1.9-.2-4-.4-5.8-.5m-1.9-.2c-2-.2-3.4-.3-3.4-.3m20.3-5.4s-3.6-1.4-8-3.1m-6.6-2.6c-4.4-1.7-8.2-3.2-8.2-3.2m23.2 1.9s-4.8-4.6-8.9-8.6m-1.8-1.8c-2.2-2.1-3.8-3.7-3.8-3.7m41.8 28.2s1.9-.2 4.5-.4m3.4-.3c1.9-.2 4-.4 5.8-.5m2-.2c2-.2 3.4-.3 3.4-.3m-20.4-5.4s3.6-1.4 8-3.1m6.7-2.6c4.4-1.7 8.2-3.2 8.2-3.2m-23.3 1.9s4.8-4.6 8.9-8.6m1.9-1.8c2.2-2.1 3.8-3.7 3.8-3.7"/></g></svg>