<svg version="1" xmlns="http://www.w3.org/2000/svg" width="288" height="288"><path fill="#FFF" stroke="#000" stroke-width="2" stroke-miterlimit="10" d="M200.4 126l-21.9-23.8-24.8-2.5h-24.4l-19.1 8.7-15 13.5s-21 14.2-21.5 14.2-5.8 20-5.8 20l-4.5 22.2s4.5 26.8 4.8 28 5.2 8.5 8 9.5 13.4 4.2 17.2 5 31.9-1.2 31.9-1.2l14.9 4.8 23.8 2 18.8-1.8 11.5-1.8 26.5-14.2s1.2-10.2 1.2-10.5 3-13.8 3-13.8l.2-23.2L217 144s-8.5-9.2-8.5-10-8.1-8-8.1-8z"/><path fill="none" stroke="#000" stroke-width="2" stroke-miterlimit="10" d="M130.3 167.3l3.3 3.7M80 201.8l5.5 3.7m-7.7 0l5 4m72.7-92.4l5.7 1.9m-5.7 1.2l5.7 3.8m37.8 66.5l-2.8 5.3m9-5.3l-4.8 7.8m-52.9 15.2h5.7m-5.7 4.3l5.7.7m-61-60l1.2-5.3m4.1-1.6c-.5.6-2 8.9-2 8.9m37.8 4.8l3.3 3.7"/></svg>