<svg version="1" xmlns="http://www.w3.org/2000/svg" width="282.3" height="282.3"><path d="M143 40.5c-8.9 6.9-12.1 20.2-7.2 30.4.8 1.6 1.7 3.1 2.1 4.8s.1 3.7-1.3 4.8c-1.9 1.6-4.7.7-7.2.6-3.8-.1-7.4 2.1-9.8 5s-3.9 6.5-5.2 10c-6.6 17.5-10.8 35.9-12.6 54.5-1.1.6-2.3.9-3.5.9.5-1.2.2-2.6-.8-3.5-.3-.3-.8-.6-1-1-.5-1.1.7-2.1 1.6-2.9 4.2-3.7 4.3-10 4.4-15.5.1-11.7 1.6-23.7 7.2-33.9 3.3-5.9 7.9-11.1 13.4-15 3.3-1.8 7.6-1.6 10.7.5 1.9-3.3-.8-7.1-2.7-10.3-3.2-5.4-4.3-12.2-2.2-18.1 2.1-5.9 7.9-10.6 14.2-10.6m-1.3 136.4c2.3-4 2.7-8.9 3-13.6.2-3.5.4-7 .7-10.5.3-4.9.3-10.6-3-13.7-2.1 9.4-3.5 19-4.1 28.6-.1 1.9-.2 3.7.2 5.6.4 2.2 1.5 4.3 3.1 5.8m-16-42.5c2.5.1 3.4 3.4 3.4 5.9.5 16-.9 31.4-2.6 47.3-.5 5-1.1 10-2.5 14.8-1.3 4.5-3.3 8.8-3.9 13.5-.5 4 .8 8.8-4.2 10.7.8-.3 1-8.3 1.3-9.7.7-4.7 2.8-9.1 3.6-13.7.8-4.4.8-9.1 1.2-13.6.1-1 .2-2.1.6-3.1.4-.9 1-1.7 1.4-2.5.6-1.3.6-2.8.6-4.2 0-6-.6-12-.7-18-.1-7.7 1.2-14.9-.3-22.7-.2-1.1-.5-2.3-.2-3.4.2-1.1 1.1-2.2 2.2-2.3 1.1-.1 2.2 1.3 1.6 2.3" fill="#27AAE1"/><g fill="none" stroke-width="2" stroke-miterlimit="10"><ellipse transform="rotate(-82.478 140.566 58.129)" stroke="#010101" cx="140.6" cy="58.1" rx="17.3" ry="12.4"/><path stroke="#000" d="M152.7 42.9s-13.7 4.2-22.8 4.3m24.8-1.7s-11.5 6-24.8 5.4m26.5-3.7s-12.2 10.2-28.5 7.5"/><path stroke="#010101" d="M134.9 74.4v5l5.8.7 1-4.4m-19.3 61.7h19.7l9.2-54.6c-12.1-3.9-30-3.1-30-3.1l1.1 57.7zm-1.2-57.7s-12.9 12.7-18.1 39m0 0c-.3 3.2-2 16.7-2.1 20.2l4.8 1.1s3.1-12.7 4.7-19.2m0 0c2.5-7.8 6-16 10.7-20.2m-7.2 10.9l-6.5-8.3"/><path stroke="#010101" d="M101 138.9l-4.7 7.1s2.1 6.6 2.4 6.6H110l1.8-8.2-6.1-4.5m44.9-53.3s2.1 25.1 24.3 33.6L173 125s-16.7.1-25.9-19"/><path stroke="#010101" d="M174.7 120.5l4.6-2.9 7.8 2.3-3.1 12-9.7-2.3-1.3-3.9m-50.6 11.7c6.9 45.6-7 92.1-7 92.1l7.9.7c15.5-31.1 18.8-92.9 18.8-92.9"/><path stroke="#010101" d="M142.4 135.6c11.7 35.7 18.6 95.5 18.6 95.5l-7.5.8s-9.7-50-15.3-58m-14.9 56.4l16.6 4.3-9.9 6-16.9-7.2 2.3-3.9m38.1 2.5v6.5l21 3.3 7.2-9.8-20.7-.8"/></g></svg>