<svg version="1" xmlns="http://www.w3.org/2000/svg" width="576" height="576"><ellipse transform="rotate(-5.902 271.43 130.577)" fill="none" stroke="#000" stroke-width="2.785" stroke-miterlimit="10" cx="271.4" cy="130.6" rx="23.8" ry="35.4"/><path fill="none" stroke="#000" stroke-width="2.785" stroke-miterlimit="10" d="M265.7 164.1L267 179m14.8-15.4v13.6m-12 131.8H300l2.2-131.8-60.4 3-36 58.3 31.4 64.7 13.8-4.7-20-57 13.5-23.7-1.3 35.4M231 241.5l-23.7-2.7"/><path fill="none" stroke="#000" stroke-width="2.785" stroke-miterlimit="10" d="M251 298.5l5.5 10.5 13.4-2.4-2.3 6.4-18 9.8s-10.4-7-10.6-7.8-1.8-11.8-1.8-11.8"/><path fill="none" stroke="#000" stroke-width="2.785" stroke-miterlimit="10" d="M235.6 254.9c23.3-3.6 49.1-7.6 49.1-7.6l5.5 56.5s-16 2.2-33.8 4.7m-18.1 2.5c-15.5 2.2-28.5 4-28.5 4L199 260.5c.2 0 6.3-.9 15.1-2.3m88.1-81l26.3 58 11.5 60.3-8.5 1.7-17.7-54.1-12.2-26.1m12.2 26.1l14.7-7.9"/><path fill="none" stroke="#000" stroke-width="2.785" stroke-miterlimit="10" d="M331.5 297.2l-3 17.8s4.8 4 5.2 3 3.4-9 3.4-9l2.8 6.7V331l7.8-3 3.2-15-11-17.5M280 309l53 142-8.7 5.7-81.1-138.4m54.1-9.3s-2.7 9.1-8.5 23.6"/><path fill="none" stroke="#000" stroke-width="2.785" stroke-miterlimit="10" d="M272.8 369.1c-12.6 25.6-30.2 55.9-53.5 83.6l-11.6-1.4s37.6-91.3 38.2-128.6"/><path fill="none" stroke="#000" stroke-width="2.785" stroke-miterlimit="10" d="M207.7 451.3l12 29.7 23.5-11.3-23.9-17m105 4L353 481l21.3-19-41.3-11m-58.2-173.2l-25.2 2.6m16.6-7.7l2.9 11"/></svg>