<svg version="1" xmlns="http://www.w3.org/2000/svg" width="282.3" height="282.3"><ellipse transform="rotate(-82.478 140.6 58.134)" fill="none" stroke="#010101" stroke-width="2" stroke-miterlimit="10" cx="140.6" cy="58.1" rx="17.3" ry="12.4"/><path fill="none" stroke="#010101" stroke-width="2" stroke-miterlimit="10" d="M134.9 74.4v5l5.8.7 1-4.4m-19.3 61.7h19.7l9.2-54.6c-12.1-3.9-30-3.1-30-3.1l1.1 57.7zm-1.2-57.7s-12.9 12.7-18.1 39m0 0c-.3 3.2-2 16.7-2.1 20.2l4.8 1.1s3.1-12.7 4.7-19.2m0 0c2.5-7.8 6-16 10.7-20.2m-7.2 10.9l-6.5-8.3"/><path fill="none" stroke="#010101" stroke-width="2" stroke-miterlimit="10" d="M101 138.9l-4.7 7.1s2.1 6.6 2.4 6.6H110l1.8-8.2-6.1-4.5m44.9-53.3s2.1 25.1 24.3 33.6L173 125s-16.7.1-25.9-19"/><path fill="none" stroke="#010101" stroke-width="2" stroke-miterlimit="10" d="M174.7 120.5l4.6-2.9 7.8 2.3-3.1 12-9.7-2.3-1.3-3.9m-50.6 11.7c6.9 45.6-7 92.1-7 92.1l7.9.7c15.5-31.1 18.8-92.9 18.8-92.9"/><path fill="none" stroke="#010101" stroke-width="2" stroke-miterlimit="10" d="M142.4 135.6c11.7 35.7 18.6 95.5 18.6 95.5l-7.5.8s-9.7-50-15.3-58m-14.9 56.4l16.6 4.3-9.9 6-16.9-7.2 2.3-3.9m38.1 2.5v6.5l21 3.3 7.2-9.8-20.7-.8"/></svg>