<svg id="Layer_1" xmlns="http://www.w3.org/2000/svg" width="297.4" height="297.4"><style>.st1{fill:none;stroke:#010101;stroke-width:2;stroke-miterlimit:10}</style><path d="M103.7 241.2c4.1-2 6.7-6.2 8.3-10.4 1.3-3.3 1.8-7.2 3.6-10.2 1.5-2.4 3.4-4.4 4.8-6.9 7.5-13.5 12.7-28.2 15.5-43.4 1.1-5.8 1.9-11.7 2.2-17.5.2-2.7.7-4-1.7-5.2-1.5-.7-4.6-.2-5.7 1-.4.5-.6 1.1-.7 1.7-2.8 13.2-2.7 27-7.5 39.6-1.9 5-4.5 9.6-6.3 14.7-1.6 4.5-2.5 9.2-4 13.8-2.6 7.6-7.1 14.3-11.5 21 1.3.5 2.3 1.5 3 2.7m42.5-81.8c1.4 4.7 3.2 9.2 4.6 14 1.4 4.6 4.8 11.1 4.8 15.9 1.5 5 3.1 10.1 5 14.9 4 10 10 19.9 9 30.6-3-3.9-4.3-8.9-5.7-13.7-2.5-8.9-5.4-17.6-9-26.1-1.5-3.6-3.7-6.7-4.8-10.4-1.3-4.3-2.4-8.5-4-12.6-.8-2.2-2-4.1-2.3-6.4-.2-1.5 1.7-5.8 1.2-6.7.5 1.1 1 2.1 1.6 3.2m-5.4-90.1c-1.1-6.1 1.1-13.7 5.5-18.1 3.4-3.4 6.8-4.9 11.6-4.8.4 2.7-2.3 4.4-3.7 6.4-1.8 2.5-3.2 5.2-4.2 8-2 5.5-2.5 11.6-1.6 17.4.5 2.9 1.3 5.9.9 8.8-1.5.1-1.7-2.1-1.8-3.6-.5-5.2-5.8-8.9-6.7-14.1zm-6.1 24.5c-6.5 4.4-11.7 11.1-19.2 13.4-1.5-1.1-2.3-3.4-1.1-4.9.4-.5 1-.8 1.6-1.2 6.4-3.6 12.6-7.6 18.6-11.9.9 1.5 1.2 3.4.5 5" id="Layer_2_1_" fill="#27aae1"/><g id="Lines"><ellipse transform="rotate(-76.579 155.238 68.349)" class="st1" cx="155.2" cy="68.3" rx="18.6" ry="12.9"/><path class="st1" d="M148.1 85.2l-1.1 5.6 6.3 1.3 1.4-5.6m-24.2 56.1c1.3-12 5.6-51.8 5.6-51.8s17-.4 24.5 4.7l-11.2 53s-12.3-1.6-17.2-2.3m3.9-55.4l-21.6 16.7 6.5 30.3 5.2-1.2-2.3-26.8m10.9-6.6l-19 11.8"/><path class="st1" d="M121 137.8l-1.4 7.9 5 5.4 9-4.2-7.4-10.3m33.3-35.9l8.3 17.2 17.4-5.3 1.3 4.8-20.6 10.2-9.3-11.3m28.6-3.7v-4l8-5 3.4 4.5s3.3 5.7 3.4 6m0 .1c-1.2.9-7.3 5.9-7.3 5.9l-6.3-2.6m-39.4 31s-4.2 56.8-36.1 86.8l-4.1-2.5s23.8-53.7 23.4-84.1"/><path class="st1" d="M149.4 148.5s19.5 44.2 23.1 85.2l-5.3 1.6s-19.5-63-22.8-69.6m-38.1 67l-6 5.8s11 10 11.5 10 17.8-.6 17.8-.6l-18.7-12.6m56.3.1v7.7s10-1.2 17.5-2l8.5-.5-.7-8.3c-7.8.6-20 1.5-20 1.5"/><path d="M169 51.8s-13.7 4.2-22.8 4.3m24.8-1.7s-11.5 6-24.8 5.4m26.5-3.7s-12.2 10.2-28.5 7.5" stroke="#000" fill="none" stroke-width="2" stroke-miterlimit="10"/></g></svg>