<svg version="1" xmlns="http://www.w3.org/2000/svg" width="288" height="288"><g fill="#27AAE1"><path d="M78.6 55.9S61 97.3 96.3 114.5c0 0-25.1 3.2-29-27.7-3.6-30.1 11.3-30.9 11.3-30.9zm-1.2 80.2s-4.9 19.5 6.6 39.5l6.8.4-9.2-32-4.2-7.9zm53.8 24s-13.9 23.9-46.5 24.6L99 194.9s29.7-13.7 38.7-33.9l-6.5-.9z"/><path d="M102.9 194.1l3.8 15.9 26.3.9-21.8 5.6 2.8 12h-11.1l-2.9-11.3-5.1-24.4 4 2.1zM199 49.7s15 37.1-10.7 58.6c0 0 24.5.5 22.6-37.5 0-.1-2.1-20.2-11.9-21.1zm9.1 101.1c.9-11.6 1.6-20.9 1.6-20.9l1.4-14.3-10-1.3s-1.8 15.6-3.6 38c3.6-.4 7.1-1.2 10.6-1.5zm-11.4 12.7c-1.3 19.6-2.5 42.7-2.3 64.8l9.8-1.4s.4-31.2.4-32.1c0-.4 1.3-16.8 2.6-33-3.4 1.1-6.9 1.5-10.5 1.7z"/><path d="M233.3 153.5c-13.9 8.6-39.1 10.4-58.2 10.4-.7.9-1.3 1.7-2.1 2.5-.3.4-.8.7-1.2.9 48 7.3 63.1-8.4 63.1-8.4l-1.6-5.4zm-68.7 10.1c-9-.3-14.9-.9-14.9-.9l9.7 2.3c2.3.5 4.4.9 6.6 1.3-.8-.8-1.3-1.7-1.4-2.7z"/></g><g fill="none" stroke="#000" stroke-width="2" stroke-miterlimit="10"><ellipse transform="rotate(-16.843 87.495 85.217)" cx="87.5" cy="85.2" rx="19.9" ry="30.6"/><ellipse transform="rotate(-81.86 190.557 78.229)" cx="190.6" cy="78.2" rx="30.2" ry="20.3"/><path d="M78.6 55.9S43.3 56 53 106.7c0 0 4 16.9 0 21.1 0 0 10.5 2.6 20.6 1.1"/><path d="M66.7 73.7s-9 5.8-7.7 19.2 1.5 30.9-.1 36.9m11.5-33.5s-1.7 29-6.1 33.6m15.6-20.2s-.4 13.6-2.4 16.5m106-76.5s10 3.4 20.7 2m-23.9-.9s8.2 8 27.4 5.4M177.6 55s13 10 33.6 5.9M90.2 115l2.5 7m10.6-12.3l1.7 7.6m75.3-10.9v5.7l11 .9.4-5.2"/><path d="M207.9 150.2c1.7-19.2 3.2-34.6 3.2-34.6-22.8-4.2-51.8-4.5-51.8-4.5l-3.9 42.6m-64.6 22.4c-4.7-17.9-10.7-36.8-17.2-47.2-1-1.7 35.6-13.2 42.3-14.6 0 0 5.8 11.9 12.6 28.5"/><path d="M73.6 128.9s-19.4 41.5 25.4 66c0 0 28.6-10.8 38.7-33.9m-11.5-1.6s-19.4 22-50 15m84.1-20.6h-8.8l-1.8 8.9c5.6 1.4 10.9 2.6 15.9 3.5"/><path d="M151.5 153.8l-2.6-1.9.9-11.3-25.4 1.9-2.1 16.4 27.4 3.8"/><path d="M130.2 142.5c.1-.5 0-8 0-8l13.2-8.3 9.7 5.5-8.8 5.1v3.8m8.8 13.2c.7 0 7.4-5.7 7.4-5.7l10.4-.7 5.4 15.7-9.1 6.6-7.8-17.2m-.1-41.3l-41.6 8.4m1.8 2.4l13.5 10.8m14.7 2l9.5-.4"/><path d="M170.8 167.1c46.5 7.1 64.1-8.2 64.1-8.2-5.7-23-23.8-43.2-23.8-43.2m18.3 28.9s-9.6 7.3-56.5 8.9m36.1-17.4l5.5 13.2m-59.1 14.8L154 216l-.9 14.9"/><path d="M153.1 216l51.1 3.3c-.6-9.5.6-30 2.2-50.4m-69.7-5.2c5.2 14.4 9.9 29.8 12.2 43.1l-48.4 12.5s-2.1-11.4-5.5-26.5m5.4 26.5l2.5 9.2m23.3-15.2c.7.4 2.5 17.7 2.5 17.7m0-19l5 18.9m15.1-23.5l4.5 19.6m22.9-9.5l-1.5 12.7m8.1-12.3v11.7m21.5-10.3v7.7"/><path d="M99.4 214.4c-1.7 0-17.2 3.3-30.1 9.5 0 0 91.3 17.6 161.4-2.8 0 0-3.5-5.9-27.3-11.1"/><path d="M77.8 214.3l-23.4 12.1s23.8 14.6 80.4 14.3m78.6-33.9s14 3.3 26.4 10.6c0 0 4.9 8.6-34.9 16.9m-84 2.1s42.8 1.6 70.8-2.1"/></g></svg>