<svg version="1" xmlns="http://www.w3.org/2000/svg" width="288" height="288"><path fill="none" stroke="#000" stroke-miterlimit="10" d="M94.4 160.1h88.3l.8-5.7H94.4zm0-5.7s2.6-1.3 5.6-2.9m4.2-2.1c2.4-1.3 4.4-2.2 4.4-2.2s10.2-.1 22.3-.3m19.8-.4c10.6-.2 19-.3 19-.3s2.5 1.5 5.4 3.2m3.9 2.4c2.5 1.5 4.5 2.6 4.5 2.6m-87.2 5.7l2.3 43.6h2.5l-.8-43.6m8.8 0s.3 4 .6 9.3m.5 7.5c.6 9.5 1.4 20.6 1.4 20.6h2.4l-.9-37.4m69.5 0l-2.3 43.6h-2.5l.8-43.6m-8.8 0s-.3 3.9-.6 9.2m-.3 5.1c-.7 10.6-1.5 23.1-1.5 23.1H165l.9-37.4"/><path fill="none" stroke="#000" stroke-miterlimit="10" d="M130.5 150.1v-4.9l13.4-5.5 6.8 3.5v4l-12 6.9z"/><path fill="none" stroke="#000" stroke-miterlimit="10" d="M130.5 145.2l8.1 3.6 12.1-5.6m-12.1 5.6l.1 5.3m-1.6-8.1l7.3-3.9m-2.8 0l2.1 2"/><ellipse transform="rotate(-76.791 92.544 111.278)" fill="none" stroke="#000" stroke-miterlimit="10" cx="92.5" cy="111.3" rx="10.4" ry="7.1"/><path fill="none" stroke="#000" stroke-miterlimit="10" d="M87.3 119.6l-1.4 4 4.7 1.2.5-3m-.7 27.4c-1.3 7.9-2.5 14.7-2.5 14.7L74 162.8s1.9-28 7.4-40.2l12.9 3.2s-1.5 8.7-3 17.8"/><path fill="none" stroke="#000" stroke-miterlimit="10" d="M89.4 131.6l1.4 11.7s10.9 5.7 12.2 6.1l6.9.5 1.9 2.8h-8.4l-18.2-5.2-1-15.9m-10.1 31.1s1.4 4.4 1.8 5.7m19.4 3.4c.5.1 1 .2 1.6.2m3.6.6c2.4.4 4 .6 4 .6l-1.1 27.1s2.5.1 2.5 0 5.6-30.8 5.6-30.8-5.5-1.3-11.1-2.7m-3.9-.8c-4.7-1.1-8.6-2.1-8.6-2.1m15.5 36.5v3.3l11.5.7.9-2.8-9.9-1.2"/><path fill="none" stroke="#000" stroke-miterlimit="10" d="M72.8 163.9l2.3-49h-7.7l3 56.6 24.7.3v-4.2l-22.4.6zm-1.4 7.9l2.7 32.6h2.3l-.7-32.6m16.2 0v32.6h2.5l.7-32.6m-1.9-39.2l5.9 5.3 11.8 1.8v2.4l-12.2-.7-6.5-2.7"/><ellipse fill="none" stroke="#000" stroke-miterlimit="10" cx="113.5" cy="141" rx="2.5" ry="3.1"/><ellipse transform="rotate(-13.209 186.953 111.293)" fill="none" stroke="#000" stroke-miterlimit="10" cx="186.9" cy="111.3" rx="7.1" ry="10.4"/><path fill="none" stroke="#000" stroke-miterlimit="10" d="M192.1 119.6l1.4 4-4.7 1.2-.5-3m.8 27.4c1.3 7.9 2.5 14.7 2.5 14.7l13.9-1.1s-1.9-28-7.4-40.2l-12.9 3.2s1.5 8.7 3 17.8"/><path fill="none" stroke="#000" stroke-miterlimit="10" d="M190 131.6l-1.4 11.7s-10.9 5.7-12.2 6.1l-6.9.5-1.9 2.8h8.4l18.2-5.2 1-15.9m-11.1 40.2c-.8.1-1.5.2-2.2.4m-3.5.5c-2.1.3-3.5.6-3.5.6l1.1 27.1s-2.5.1-2.5 0-5.6-30.8-5.6-30.8 5-1.2 10.5-2.6m4-.9c4.9-1.2 9.1-2.2 9.1-2.2"/><path fill="none" stroke="#000" stroke-miterlimit="10" d="M176 200.4v3.3l-11.5.7-.9-2.8 9.9-1.2m33.1-36.5l-2.2-49h7.6l-3 56.6-24.7.3v-4.2l22.5.6zm1.4 7.9l-2.6 32.6H203l.8-32.6m-16.3 0v32.6h-2.4l-.8-32.6m2.1-37.9c-1.8 1.3-4.2 3-4.2 3l-11.7 2.8v2.4l12.2-.7s2.7-1.1 4.7-1.9"/><ellipse fill="none" stroke="#000" stroke-miterlimit="10" cx="168" cy="141" rx="2.5" ry="3.1"/><ellipse transform="rotate(-89.896 140.038 109.535)" fill="none" stroke="#000" stroke-miterlimit="10" cx="140" cy="109.5" rx="10.4" ry="7.1"/><path fill="none" stroke="#000" stroke-miterlimit="10" d="M137.9 119.6v2.4h4.8l-.3-2.6"/><path fill="none" stroke="#000" stroke-miterlimit="10" d="M149.9 142.8v-21.1l-18.6.5 1.6 22.1m-1.6-22.1l-7.2 13.7-8.5 3.4m.2 2.8c.3.2 10.6-2.4 10.6-2.4l5.5-8.1m18-9.9l7.7 14.2 8.5 3.4"/><path fill="none" stroke="#000" stroke-miterlimit="10" d="M165.8 142.1c-.3.2-10.6-2.4-10.6-2.4l-5.4-7.9m-16.9 28.3v38.6h3.2l4.5-38.6h2.1l4.3 38.6h3.7l1-38.6m-18.5 38.6l-6.5 5 7.4 1.1 2-6.1m10.9 0l1.9 6.1 7.4-.4-5.6-5.7m-21.8-38.6v4.8h4m7.4-.1h3m8.5 0h3.1v-4.7m-25.3 4.9l-.7 31.6s1.6.3 1.9 0c.3-.3 2-26.2 2-26.2"/><path fill="none" stroke="#000" stroke-miterlimit="10" d="M154.9 164.7l2.5 32h-2.5l-3.3-31.7"/></svg>