<svg version="1" xmlns="http://www.w3.org/2000/svg" width="288" height="288"><path d="M99.1 55.5s-30.8 25.7-6.6 64.2c0 0-21.1-3.1-17.6-37.6.1-.1 7.1-25.7 24.2-26.6zM63.3 139l-27.1 25.7 20.9 38.8-5.5-16.4-8.1-19.8 18-12.2-2 27.6 5.8-2zm44.2 14.6l9.9 4.7-1.6 6.4-9.8-3.9zm16.7 7.2l-2.5 7.1 20.9 1.5-4.2-6.7h-10.1zm74.6-98.4s28.8 20.4 11 55.5c0 0 17.8-8.4 10.7-33.4-7.1-25.1-21.7-22.1-21.7-22.1zm31.5 71.4l4.8 40.2 6.3-8.4zm7.7 51.3c-.5 0 0 8.7 0 8.7l2.9 9.8 8.5-1.4-4.8-10-1.1-13c.2 0-4.4 6-5.5 5.9zm-43.9-34.7l-13.9 16.4 9.8 18.3 4.8-2.4-9.3-17.1 8.9-13.5z" fill="#27AAE1"/><g fill="none" stroke="#000" stroke-width="2" stroke-miterlimit="10"><ellipse transform="rotate(-82.033 97.018 87.625)" cx="97" cy="87.6" rx="32.3" ry="21.7"/><ellipse transform="rotate(-10.142 202.136 90.601)" cx="202.1" cy="90.6" rx="19.2" ry="28.5"/><path d="M87.2 58.9s21.5 2.3 27 1.3M81.8 63s20.6 4.1 35.1 1.4m-37.4 1.9s17.1 6.8 39.2 2.8m78.4-6.5S218.6 54.5 227 73s10.6 28.2 19.1 35.2c0 0-3.2 7.2-21 13.7"/><path d="M211.9 68.3s8.7 2.2 16.7 21.3 12.4 24 12.4 24m-19.3-20.5s5.8 19.6 11 25.5M219 108.1s3.4 7.8 7.4 13.2m-138.8-2.7l-.9 8.6 7.1.9 2.1-8.4m109.2-1.4c1.4 3 3.7 8.1 3.7 8.1l8.7-2.4-2.5-10"/><path d="M105.5 171.8l2-42.1-42.2-5.2s-5 32.9-5.7 58.2"/><path d="M65.3 124.5S33.5 149 26.5 165c0 0 13.8 34 33.7 46.2m1.4-57.6c-1.6.6-18.1 14.3-18.1 14.3m-6.1-18s10.5 31.3 16.3 41.1"/><path d="M122.8 170.5c3.1.1 4.9.6 5.1 1.4.5 2.7-15.8 8.3-36.5 12.5-20.7 4.2-37.9 5.4-38.5 2.7-.5-2.7 15.8-8.3 36.5-12.5 8.1-1.6 15.6-2.8 21.8-3.5m-49.3 43.2c-4-6.6-6.7-15.8-9.1-27.2"/><path d="M61.6 213.9s7.1.3 7.9 0 10-5.6 10-5.6l8.8 10.2-18.9 9.2-7.8-13.8zm19.9-3.3l-6.5 4m8.5-1.2L77 218m8.5-2l-5.2 3.2"/><path d="M127.8 171.9S142 211.2 106 223c-14.1 4.6-24.2 5.3-31.7 2.4m33.2-95.6s4.4 13.3 10.2 18.5m-1.9 16.4c-3.3-1.1-6.6-2.4-9.8-3.9"/><path d="M130.6 146.9l-14.8 1.5-1.7 8.9 15 5.1z"/><path d="M130.3 149.9l12.3 19.6s-8.9-.2-19.8-2.8m-7.4-16.3l6.2.4m-6 1.8l5.2 1m-5.9 1.5l5.5 1.2m-.8-8.2c2.5-11.8 5.3-24.8 5.3-24.8l7.2 1.2s-2.8 11.7-5.5 23m-16.1 32.6c-.3-4-.3-13.2 5-13.2 0 0 .8-3.6 1.9-8.6"/><path d="M123.6 160.1c-1.1 4.6-1.9 7.8-1.9 7.8s1.6 3.6 1.4 7.6m107.2-41.7l11.2 31.8-16.2 21.5-10.5 1.2-11.5 13.2 10.2 8.2 15.5-10.1 1.2-6.1 26.3-27.7c-3.2-12.7-19.7-47.2-19.7-47.2L193 130.8 170.5 167l17.7 20.2"/><path d="M193.6 183.6c.2-.7-8.3-17-8.3-17.5s9.2-14 9.2-14l7.7 33"/><path d="M190.9 198.6c0-.5-6.5-8.8-6.5-8.8l3.2-3.5 8.7-4.3 6.6 4.2-2.7 12.5h-9.3zm2.8 0l-3.7-8.3m5.8 8.3l-.9-9.7m3.4 9.7l.5-9.7"/><path d="M187.2 193.4c-10.2.9-19.8 1.7-19.8 1.7s11.8 13.2 37.5 4.4m7.2-8.1s-4.2.4-10 .8m4.4 11.3l3.3-2.8m0 5.4l2.3-2.6m0 4.6l2.7-2.9m30-27.2s.2 13.2 0 14.1l4.8 10m-4.8-10l-14.9 2.3"/><path d="M200.9 200.7c.8 1.2 1.2 2.7 1.2 4.2 0 4.4-3.6 8-8 8s-8-3.6-8-8c0-.6.1-1.2.2-1.7"/><ellipse cx="185.5" cy="223.8" rx="10.3" ry="8.1"/><ellipse cx="169.8" cy="214.9" rx="5.4" ry="4.3"/><path d="M31.3 202.1h18.6m78.4 0h54m42.3 0h37.2"/></g></svg>