<svg version="1" xmlns="http://www.w3.org/2000/svg" width="288" height="288"><g fill="#FFF"><path d="M37.3 63.8C38 67 39 71.3 39 71.3l7-.3v-8.1h-1c6.7-3.4 10.6-13.5 8.9-24.6C52 25.4 43.3 16 34.6 17.3 25.9 18.6 20.3 30.1 22.3 43c1.6 10.8 7.9 19.2 15 20.8zm72.5-1.5v7.4h7.5l1-6.3c6.3-2.3 11.3-11.1 11.8-21.9.7-12.9-5.2-23.6-13.1-24-7.9-.4-14.8 9.7-15.5 22.5-.5 10 3 18.8 8.3 22.3zm63.5 1.4v8.9l7.7.1 1.5-9.1c5.6-3.2 9.6-12 9.4-22.3-.2-12.9-6.8-23.2-14.7-23-7.9.1-14.1 10.7-13.9 23.6.2 10.1 4.4 18.7 10 21.8zm60.4 1.2l1.4 6.3 7.4-.4-.3-5.9c5.7-2.9 9.4-11.4 8.7-21.3-.8-11.8-7.7-20.9-15.3-20.4-7.6.5-13.1 10.5-12.3 22.3.7 9.2 4.9 16.7 10.4 19.4zM11 116.5l22.5 16-7.6-58.7S6.3 97.3 3.6 111.2l7.4 5.3zm22.2 19.3l-14.1-.9 2.8 9.2 11.8-4.1z"/><path d="M95.9 84.7c.8 15.2 2.1 37.7 2.6 47.8l-1.6 1.8-1-49.6-4.7 9.6c-1.5 9.8-2.7 18.2-2.7 18.2l3.8 27-1.4 12.9 4.3 8.4h3.5v79.4h8l6.1-92.9 12.7 96.8 6.2-1.3-6.2-103.2 3.6-33.6 3.5 9.7 1.3 24.3 6.7 1.8 1.8-27.9-9.8-40.1v.1c-11.2-4.9-37.7-4.5-37.7-4.5s.1 1.8.3 4.9l-1.4 2.3 1.2-7.9s-.5 3.2-1.2 7.9L82.4 95 61.3 69.3s-33.6 4.5-35.4 4.5l9.6 73.4h-.1l6.3 98.4H46l3.1-98.4 9.5 98.4h4.8V145.4l-1.6-58.2 22.1 21.9 12-24.4zm2.6 47.8c.1 2.6.2 4.4.3 5h-.1v8.6l-.2-13.6zm14.9 6.3l5.8.4-5.8-.3v-.1z"/><path d="M134 140.4l-2.5 11.3 5.2 13.2 6.7-5.5-2.7-17.2zm70.4-27.8c-.9-14.8-8.7-32-10.9-36.5v-1c-.2 0-.4-.1-.6-.1v-.1.1c-13.9-2.8-33.1-2.4-33.1-2.4-1.3 2.9-6 13.2-9.9 21.5l-2.6-.5 1.4 3.2c-2.3 5.1-4.1 8.9-4.1 8.9s4.4 4.8 14 6.3c-.5 16.2-1.1 31.1-1.1 31.1l1.7.1c0 1.8 1.4 51 2.8 99.5h5.9l7-98.5-14.2-1 30.5 1s.6-18.3 1.1-34.3l12.1 2.7zm13.1 37.3l.8 13.9 6 9.1h3.6l6.3 68.2h7l.8-91.2 17.8 100.9h5.2c-2-52.7-9.4-106.6-9.4-106.6l-13.6 1.1v-.6l13.6-.5c1-5.3 1.4-11.6 1.5-18.3l.1 1.6 20.5-30.1c-6.6-11.8-25.3-27.7-25.3-27.7l.1 1.4c-.1-.9-.2-1.4-.2-1.4l-27 3.1c6.9 20.4 0 72.6 0 72.6l1.1 11.5-.7-7-2.2-3.2h-.1c-.6-4.3-4.5-37.1 4.9-46.5l-3-26.4s-21.6 26.1-7.2 75.8l-.6.3z"/><path d="M257.2 134.8s7.6 2.9 7.9 2.7c.2-.2 12.6-7.1 12.6-7.1l-6.5-6.9-14 4.3v7zm-72.3 107.9h6.3v-98.5h-14.9zM18.8 259.3l22.3 9.4 6.1-21.4-6.1-.8zm39.1-12.8l3 24.1 17.8-11-14-13.1zm26.1 8.1l16.9 6 6.6-19.5h-8.8zm39.7-9.9l5.5 20.6 18-7.7-14-14.9zm24.4 9.3l15.7 8.7 5.6-18.6-7-.6zm36.8-10.5l15 20.5 13.2-10-20.9-10.5zm29.4 6.5l13.5 8.1L242 242h-7.2c-.4 0-20.5 8-20.5 8zm52.6 1.3l-7.4-.5 9.4 16.8 16.4-6.6z"/></g></svg>