<svg version="1" xmlns="http://www.w3.org/2000/svg" width="288" height="288"><g fill="#27AAE1"><path d="M34.6 17.4s-8 16.6-5.5 27.2S35.5 62.1 41.6 64c6.1 2 0 0 0 0s-16 1.4-19.3-21-4.8-20.9 12.3-25.6"/><path d="M41.6 64l1.2 7.3H39L37.2 64zm-3.5 8.8v67.6l4.7 6.3-7.3.5-9.6-73.4z"/><path d="M27.8 87.5S8.9 105.4 8.2 114.4l6.1 4.4 7.6-10.6-3.3-3.6 5.7-7.5 4.2-3.6-.7-6zm3 49v4.5l4.6-1.3v-3.5zm30.9-53.3l21.5 21.3L97.7 81l-14.5 27.2-21.9-20.7zm-18.9 63.5l-1.1 98.9-6.2-98.4zm11.5-.7l4.3 99.6-9.5-98.4zM40 248.5c-1.1-.8-20.9 14.2-20.9 14.2l22.5 9 7.5-20.9-9.1-2.3zm21.3 0l7 1.6 10.4 12.6-17.4 10.8-2.7-23.4z"/></g><g fill="none" stroke="#000" stroke-width="2" stroke-miterlimit="10"><ellipse transform="rotate(-8.5 38.097 40.698)" cx="38.1" cy="40.7" rx="16" ry="23.6"/><ellipse transform="rotate(-86.992 115.841 40.703) scale(.99998)" cx="115.8" cy="40.7" rx="23.3" ry="14.3"/><ellipse transform="rotate(-1.057 177.594 41.581) scale(.99997)" cx="177.6" cy="41.6" rx="14.3" ry="23.3"/><ellipse transform="matrix(.9976 -.06973 .06973 .9976 -2.533 16.642)" cx="237.1" cy="44.6" rx="13.8" ry="21.4"/><path d="M37.2 63.3c.7 3.3 1.8 8 1.8 8l7-.3v-8.1m63.8-.6v7.4h7.5l1-6.3m55 .2v9l7.7.1 1.5-9.1m51.1 1.3l1.5 6.3 7.4-.4-.3-5.9M25.9 73.8c1.8 0 35.4-4.5 35.4-4.5l2.1 76.1-27.9 1.8-9.6-73.4zm0 0S6.3 97.3 3.6 111.2l29.9 21.3m-22.5-16s9.2-17.1 17.1-23m-8.9 11.1L32 120.5m1.2 15.3l-14.1-.9 2.8 9.2 11.8-4.1"/><path d="M61.3 69.3L82.4 95l13.1-21.2 15.7.9.6 6.8-14.1-.5-13.8 28.1L61.6 87m20.8 8l1.5 14.1"/><path d="M95.2 74.6c-.2-3.3-.3-5.2-.3-5.2s26.5-.4 37.7 4.5l-7.1 65.8-26.7-2-2.9-53m-1-15.9s-.5 3.3-1.2 8.1"/><path d="M91.2 94.3c-1.5 9.8-2.7 18.2-2.7 18.2l3.8 27 4.7-1.6.2-29.7m35.4-34.4l9.8 40.1-1.8 27.9-6.7-1.8-1.3-24.3-3.5-9.8m3.5 9.8l9.6-2.5M92 138.9l-1.1 13.5 4.3 8.4h3.7m35.1-20.4l-2.5 11.3 5.2 13.2 6.7-5.5-2.7-17.2zm25.2-43.7c.4-12.3.7-22.6.6-24.1 0 0 19.8-.4 33.7 2.5 0 0-.3 10.7-.8 23.6m-32.9-26s-5.4 11.7-9.7 21.1m-1.4 3c-2.3 5.1-4.1 8.9-4.1 8.9s12 13.2 40.3 2.6"/><path d="M192.9 74.9s10.4 20.5 11.5 37.7l-42.6-9.4-9.6 1.5-4.9-11.1 14.5 3 35 1.8"/><path d="M192.9 92.5l-6.8-2.2-6.9 7.1m13.1 13.4c-.5 16.9-1.1 33.4-1.1 33.4l-33.7-1.1s.6-15.4 1.1-31.9m66.7-38.4l27-3.1s8 49.2 3.3 74.5l-30.3 1.2s6.9-52.2 0-72.6z"/><path d="M225.3 73.8s-21.7 26.2-7.1 76.1l5.3-2.7s-5.2-36.9 4.8-47m-14.7 7.4l9.7 4.9m29.1-42.8s18.7 15.9 25.3 27.7l-20.5 30.1m-2.3-38.9l17.2 17m-9.1-8.2l-6.4 10.8"/><path d="M217.5 149.9l.8 13.9 6 9.1h3.6l-2.2-23-2.2-3.2zm39.7-15.1s7.6 2.9 7.9 2.7c.2-.2 12.6-7.1 12.6-7.1l-6.5-6.9-14 4.3M35.4 147.2l6.3 98.4H46l3.1-98.4 9.5 98.4h4.8V145.4m35.3-7.9v102.7h8l6.1-93"/><path d="M125.5 139.5l6.2 103.3-6.2 1.3-13.8-105.2m143.9 5.3s7.4 53.9 9.4 106.6h-5.2l-18.6-105.4m-82-2.3s1.4 50.1 2.8 99.6h5.9l7-98.5m16.3 0v98.5h-6.3l-8.6-98.5"/><path d="M225.3 145.4l8.9 95.7h7l.8-91.2M41.1 246.5l-22.3 12.8 22.3 9.4 6.1-21.4zm16.8 0l3 24.1 17.8-11-14-13.1zm40.8-5.4L84 254.6l16.9 6 6.6-19.5zm25 3.6l9.5-2 14 14.9-18 7.7zm38.7-1.2L148.1 254l15.7 8.7 5.6-18.6zm22.5 0h7.3l20.9 10.5-13.2 10zm49.9-1.5c-.4 0-20.5 8-20.5 8l13.5 8.1L242 242h-7.2zm24.7 8.8l7.4.5 18.4 9.7-16.4 6.6zM25.9 22.8s9.2 5.7 18.4-2.6m-15.8-1s6 3.3 11.5-1.3m-16.2 8.6s7.7 6 24.9-1.8"/></g></svg>