<svg version="1" xmlns="http://www.w3.org/2000/svg" width="288" height="288"><path d="M71.6 78.1S55 85.7 55.7 107.2s11.2 34.9 21 35.2c0 .1-31.4-31.1-5.1-64.3zM56 165.9l4.2 1.8-1 14.2-6.2 3.6zm128.8-85s-12.8 15.9-8 40.4 13.9 24.2 13.9 24.2-24.5-1-23.1-35.5c1.2-28.2 17.2-29.1 17.2-29.1zm-22.9 85s-12.8 8.5-14.9 20.2l6.8 2.3s5.2-8.8 7.7-10.5l.4-12zm-63 1s-38.2 36-54.4 41.6c0 0 43.2-34.4 51.4-45.1l2-1.9 1 5.4zm104.3 3.1l14.6-12.7v-3l-3.1-.4-15.3 13.8c1.5.1 2.9 1.1 3.8 2.3zm-15.9 8.6l-22.3 20-.3 4.9 22.9-19.9c-.5-1.6-.6-3.3-.3-5z" fill="#27AAE1"/><g fill="none" stroke="#000" stroke-width="2" stroke-miterlimit="10"><ellipse transform="rotate(-3.633 76.704 110.04) scale(1.00001)" cx="76.7" cy="110" rx="21" ry="32.5"/><ellipse transform="matrix(.998 -.06337 .06337 .998 -6.79 12.18)" cx="188.6" cy="113.1" rx="21" ry="32.5"/><path d="M74.6 77.6s-24.3-4.1-28.8 21.6-2.1 39.1-8.3 44.1c0 0 15.8 7.2 35.2 2.9"/><path d="M58 93.5s-6.2 12.1-7.6 29.1-5.2 23.1-5.2 23.1M58 122.6c-1 8.7-3 18.5-6.7 24.2m11.8-13.3s-.9 11.8-3.9 13.9m117.6-63.5s13.2 1.8 23.3 0m-26.9 2.4s16.8 7.1 30.3 1.4m-33.6 2.9s17.6 8.2 37.4 2.9m-134.6 48l1.3 9.2 9.3-1.4-.2-7.8m101 3.1v8.7h9.9V145"/><path d="M92.2 149.4c-17 .5-41.2 4.1-41.2 4.1s-7.9 12.5-11.3 42m13.3-10c1.5-9.9 3-19.6 3-19.6"/><path d="M33.4 199.2c29.5-15.7 74.1-65.8 74.1-65.8l9.3 8.3s-48.1 53.1-82.1 71.8m69-57.9c1 1.2 7.3 50.7 7.3 50.7"/><path d="M99.2 210.6l2.6-27.9s-2.2-11.9-3.9-21.5m-60.5-17.7c-1.7 2.5-2.7 5.5-2.7 8.7v45.5m54.8-60.9h11.6c1.2 0 2.4.1 3.6.4m9.7 7.4c1.3 2.2 2 4.8 2 7.6v38.6m82.1-37.5c-17.8.1-36.4 2.3-36.4 2.3s-.2 10.9-.5 22.7m.5-22.7s-18.3 11.2-28.6 28.1m20.2 4.7s2.5-5.7 7.9-10.7"/><path d="M142.9 186.1l-14.3-4.2-1 23.1h13.8"/><path d="M163.9 191.8l-20.9-7-1.6 20.2 23.3-1.4zm-.7 2.9l-9.7-1.8m10 4.8l-10-.4m10.5 3.3l-10.3.4"/><path d="M160.1 190.6c1 .3 1.9.8 2.7 1.6.5.4.8 1 1.1 1.5 4-10.4 14.4-17.8 26.7-17.8 11.2 0 21.5 6.9 26.1 16"/><path d="M225.3 189.8c-5.3-13.7-18.8-22.9-34.8-22.9-16 0-29.3 8.7-34.6 22.4m44.4 11.2v-.1c0-5.4-4.4-9.7-9.7-9.7-5.4 0-9.7 4.4-9.7 9.7v.8m6.8-25.5v15.6m6.3-15.6V191"/><path d="M216.6 191.8l20.9-7 1.6 20.2-23.3-1.4zm.4 2.9l9.7-1.8m-10 4.8l10-.4m-10.4 3.3l10.2.4"/><path d="M237.6 186.1l14.3-4.2 1 23.1h-13.8m-19-24.2c-1.2-13.4-2.4-26.5-2.4-26.5-1.2-.2-1.8-.2-3.1-.4m3.8 1.7s18.3 11.2 28.6 28.1m-19.6 4.4s-2.5-5.7-7.9-10.7"/><path d="M225.2 145c1.1 2.1 1.8 4.6 1.8 7.2v10.3m-81.7 6.1v-16.4c0-8.5 6.9-15.4 15.4-15.4h14.6m28.8 0h7.5c1.5 0 3 .2 4.4.6m-31.9 30c16.3-15.1 35.5-32.8 35.5-32.8s6.5 3.7 7.9 7.8c0 0-13.6 12.2-28.2 25.3m-11.9 10.8c-12.5 11.2-23 20.7-23 20.7"/></g></svg>