<svg version="1" xmlns="http://www.w3.org/2000/svg" width="288" height="288"><g fill="#27AAE1"><path d="M95.6 34S77 52.7 88.5 73.5c0 0-12.9-5.2-9.6-19.8C81.4 42 86.5 34.2 95.6 34zM78.3 76.6s-4.6 39.6-9.9 57l15.7 7.6-22.3-3.2L70 84.3l1.2-8.1 7.1.4z"/><path d="M45.8 100.2l24.4-17.3-1.4 8.1-16.2 9.6.4 37.2-2 .3c0-.1-5.3-21.9-5.2-37.9zm53.1-7.9l15.6 18.2 19.6-22.1 16.2-2.4v3.8l-14.8-.1-21 30.3-17.2-21.6zm-27.6 47.1c.7.4 34.3 58.3 45.3 95.7l-2 .3s-24.1-52-37.3-70.7S61.8 138 61.8 138l9.5 1.4z"/><path d="M74 159.2s-6.1 45-28.2 70.9l22.3 14.6-10.1 5.5-21.1-10.9 3.4-8.9s9.3-10.5 11-14.5 10.6-23.8 11.2-32.3 3.3-37 3.3-37l8.2 12.6zm42.5 75.9L144 246l-4.8 9.2-23.4-5-1.3-14.8zM202.6 34s12.7 22.5-5.8 39.9c0 0 13.6-1 14.9-19.9 1.3-19-9.1-20-9.1-20zm-20.4 56.5L164.5 103l-2.5 37v10.4s-3.6 11-2.9 11 8.4-9.9 8-11.2c-.4-1.3-3.6-10.4-3.6-10.4l5-35.9L181 94s-6.3 15-2.8 39.7l8.8 1.5c.1-.1-3.5-38.2-4.8-44.7z"/><path d="M186 135s-10.2 37-17.5 63.5c0 0 8.8 8.6 32.5 10.1 0 0-23.1.4-42-5.8l19.2-69.1 7.8 1.3zm-7.3 72.5l-7.3 32.7 21.1 6.7L183 257s-15.1-9.5-15.9-11c-.8-1.5 7.3-39.2 7.3-39.2l4.3.7zm30.4-.7s10.7 33.1 11.1 33.4 23.8 6.7 23.8 6.7l-6 10.1-23.6-9 .1-7.8-11.9-31.7 6.5-1.7z"/></g><g fill="none" stroke="#000" stroke-width="2" stroke-miterlimit="10"><ellipse transform="rotate(-78.93 92.697 53.861)" cx="92.7" cy="53.9" rx="20.1" ry="13.8"/><ellipse transform="rotate(-82.265 198.342 53.718)" cx="198.3" cy="53.7" rx="20.3" ry="13.7"/><path d="M86 34.8s8 3.3 19.2 2m-24.6 1.7s16.2 4.9 26.4 1.9m.8 3s-16.9 4.1-28-.9m121.3-8.9s17.8 1.9 17.8 20.1 1.8 22.5 3.5 25.7c0 0-5.6 1.6-12.1 1.4"/><path d="M211.7 46.2s2.3 10.5 3.6 17.1 2.9 14.5 3.6 16.8M211 60.7s.7 15.9 3.3 20m-8.7-11s.7 8.6 2.3 10.4M85.2 72l-1 5.4 6.1 1.2 2.4-5m102.9.2v4.4l5.5.6 1.5-6.6"/><path d="M71.3 76.1s19 .2 30 6.7c0 0-12.5 51.2-17.2 58.3L61.8 138l9.5-61.9zm0 0l-31 18.7s1.6 23.4 9.2 42.9H53s-1.3-28.6-.4-37.2m16.5-10l-27.5 16.2M53 137.8l4 6.9-2 1.7h-2l1.3 11.3-7.3-4.5 2.5-15.4z"/><path d="M101.3 82.9l13.2 21.5 18.6-16.6 2.6 1.5-21.2 30-17.2-20.9m35.8-10.6v-4.9l17.2-3.6v10h-14.6m-21.2 15.1v14.9m95.8-38.5c-10.3-3.5-27.6-3.3-27.6-3.3l-23.6 22.6.8 39.2s3.3 1.1 3.8.4c.5-.7 4-35.3 4-35.3l13.7-11.9s-6.3 22.3-3.2 41c0 0 16.3 3.5 23.5 2L213 98.9l-2.7-18.1z"/><path d="M163.8 139.8l3.3 10.3-7.3 11.3-5.2-2.3 5.3-19.7m51.8-36.3s8.7 14.3 20.7 20.9l-1.3 3.8s-12.8-2-23.2-12.3m23.2 12.3l16.3 8.1 3.2-6.8-11.7-7.5s-6.1 1.5-6.4 2.4M61.8 138s48.3 81.8 52.8 97.3l4.2-1.2s-11.7-56.4-34.7-93"/><path d="M65.6 144.7s4.4 48.9-24 85l5.4 1S77 204 79.7 169m98.6-35.4s-15.7 46.3-19.2 69.1c0 0 43.4 16.9 73.3-6.8l-30.7-60.3"/><path d="M174.4 206.8l-5.8 33.4h2.9s17.1-24.7 17.4-31.7m13.7 0l11.8 31.7 5.8-1.8-1.2-34.7M40.4 230.1l-3.5 9.3 20.9 7.3 10.3-6-21.1-9.9zm74.1 5.3l1.4 11.5 21.2 4.5 6.9-8.5-24.4-8.3z"/><path d="M168.5 240.2l-1 3.5 15.7 9.8 9.3-8.6-21.1-4.7m43 0l.6 4.8 23.2 8.5 4.3-10.5-22.3-4.6"/></g></svg>