<svg version="1" xmlns="http://www.w3.org/2000/svg" width="288" height="288"><g fill="#27AAE1"><path d="M137 39.3s-14.8 19 3 39.3c0 0-10-.8-12-9.7-2-8.2-4.9-23.3 9-29.6zM88.1 63.7l11.3 2.5L93.8 97l30.3-3.7 7.3 46.2s13.9 2.5 24.9 1.3v1.5s-20.6 4.6-27.8 1.3l-4-46.1-35.7 4.5 8.6-34.7h-9.2v-3.6z"/><path d="M132.5 144.6v87.5s-1.6.8-1.6 0-2.5-88.5-2.5-88.5l4.1 1zm14.5-.6l9.3 85.7h-2.4l-9.9-85.3zm-13.5 88.5l-17.3 13 12.2 5.7 8.1-17.8zm21.1-1.7l3.4 20.4 16.3-8.5-15-13z"/></g><g fill="none" stroke="#000" stroke-width="2" stroke-miterlimit="10"><ellipse cx="139.9" cy="58.8" rx="14" ry="19.9"/><path d="M130.8 38.9s8.8 5.4 19.5 3.4m-23.5 2s13.7 4.3 25.5.7m-27.2 3.3s14.3 5 28.8-.8m-17.8 31.1v2.9h8.2v-3.7"/><path d="M123.3 84.1s14-5.5 33-1.2v59.4s-17.5 3-27.8 1.3l-5.2-59.5zm0 0l-23.9 7.4 5.7-28.2-17-4.5v8.5h9.2L88.8 102l35.6-4.4M97.3 67.3l7.8-4m-5.7 28.2L88.8 102m67.5-7.2l30.8 4-3.2-32.7h12.7l3-7.3-21.7 2.5-1.3 23.9-20.3-2.2m21.6-21.7l6 4.8m-7.3 19.1L187 97.6"/><path d="M128.4 143.6l2.5 88.5h5.9l4-88m3.5.1l9.6 85.5h7.2l-4.8-87.3m-25.4 89.7l-14.7 9.8 11.3 6.7 9.5-16m17.6-2.9l5.1 18.1 14.6-7.4-13.2-10.7"/></g></svg>