<svg version="1" xmlns="http://www.w3.org/2000/svg" width="792" height="612"><path fill="none" stroke="#FFF" stroke-width="16" stroke-linecap="round" stroke-linejoin="round" stroke-miterlimit="10" d="M294.1 233h189.1c3 0 15 0 7 5.5-1.9 1.3-4.3 1.4-6.6 1.4-59.4 1.1-118.8.8-178.2-1.1-3.5-.1-7.8.1-9.7 3.1 54.7 4.3 109.6 5.8 164.5 4.4 12.4-.3 25.1-.7 36.6 3.6-11.7 5.1-25 3.2-37.7 2.1-21.3-1.9-42.7-1.4-64.1-.9-20 .5-40.1 1-60.1 1.4-14.9.4-29.8.7-44.4 3.6-1.7.3-3.8 1.1-3.9 2.9-.1 1.9 2.2 2.8 4 3.2 13.7 2.5 27.8 1.3 41.7.5 20.5-1.2 41-1.4 61.5-1.5 30.8-.3 61.6-.5 92.4-.8 3.1 0 7.2.7 7.6 3.8-4.2 4.3-10.8 4.8-16.8 4.9-28.1.4-56.1-3.2-84.1-3.8-31.5-.7-63 2.3-94.4 5.3-1.5.1-3.1.4-4.2 1.5-1.5 1.5-.9 4.2.6 5.7s3.6 2.2 5.7 2.7c8.8 2.4 18 4.3 27.1 2.9 6.5-1 12.7-3.8 19.1-5.4 8.4-2.2 17.1-2.4 25.8-2.4 40 .2 80.2 7.1 119.9 2.3 2.2 3 .7 7.5-2.3 9.7-2.9 2.2-6.8 2.7-10.5 3-34.8 2.7-69.7-6.7-104.5-4-13.4 1.1-26.6 3.9-40 4.9-13.9 1-27.9 0-41.8-1 7.2 6.7 17.2 9.7 27 10.4 9.8.8 19.6-.6 29.4-1.5 47.4-4.4 95.6-2.6 143.3-2-24.8 6-50.8 4.5-76.3 5.5-21 .8-41.9 3.4-62.9 5.2-26.2 2.2-52.4 3.3-78.6 4.3 1.6 3.4 6 3.9 9.8 4.1 11.7.4 23.3.7 35 1.1 16.1.5 32.2.9 48.3.1 17-.8 33.9-3 50.9-3.5 30.2-.9 60.2 3.2 90.1 7.3-7.3 3-15.4 3-23.2 2.9-47.3-.3-94.6-.3-141.9-.1-19.3.1-38.5.3-57.8 1.4-4 .2-8.6.8-10.9 4.2 7.8.3 15.5.6 23.3.9 60.7 2.2 121.5 4.5 182.2 2.3 5.2-.2 10.8-.3 14.9 2.9-5.7 4.9-13.5 6.6-21 7.4-29 3.2-58.2-2.9-87.4-5-36.4-2.6-72.8 1.2-109.1 4.9 1.1 2.4 4 3.2 6.6 3.7 19.5 3.6 39.5 3 59.4 3 44.7 0 89.4 3.2 134 6.4"/></svg>