<svg version="1" xmlns="http://www.w3.org/2000/svg" width="288" height="288"><path fill="none" stroke="#000" stroke-width="2" stroke-miterlimit="10" d="M122.2 97.8l5.2 29h14.1l7.3-33.4m-22.1 33.4l-10.3 3.5s-8.5 16-7.7 16.2c.8.2 7.7 4.2 8.2 3.8s11.9-10.8 12.5-10.8c.5 0 40.9 7.7 40.9 7.7l8.7-8.6-37.3-11.8m32.8 15.4l-29.9-8.7"/><ellipse fill="none" stroke="#000" stroke-width="2" stroke-miterlimit="10" cx="140.2" cy="154.8" rx="2.8" ry="3.2"/><ellipse fill="none" stroke="#000" stroke-width="2" stroke-miterlimit="10" cx="127.2" cy="168.5" rx="2.6" ry="3"/><circle fill="none" stroke="#000" stroke-width="2" stroke-miterlimit="10" cx="139.3" cy="165.8" r=".8"/><ellipse fill="none" stroke="#000" stroke-width="2" stroke-miterlimit="10" cx="152" cy="165.3" rx="2.7" ry="3.1"/><ellipse fill="none" stroke="#000" stroke-width="2" stroke-miterlimit="10" cx="144.2" cy="178.4" rx="3" ry="3.8"/><ellipse fill="none" stroke="#000" stroke-width="2" stroke-miterlimit="10" cx="130.4" cy="188" rx="2.5" ry="2.9"/><circle fill="none" stroke="#000" stroke-width="2" stroke-miterlimit="10" cx="158.7" cy="174.8" r=".8"/><circle fill="none" stroke="#000" stroke-width="2" stroke-miterlimit="10" cx="143.7" cy="191.8" r=".8"/></svg>