<svg version="1" xmlns="http://www.w3.org/2000/svg" width="288" height="288"><path fill="none" stroke="#000" stroke-width="2" stroke-miterlimit="10" d="M101.1 96.9l6.7 41.8-8 11.5 18.3 26.7 10.5.8 4.2-6.4.1-32.6 10.8-4-2-9-13.1 6.7-6.9-39.5m67.7 4l-6.8 41.8 8.1 11.5-18.3 26.7-10.5.8-4.2-6.4-.1-32.6-10.8-4 1.9-9 13.2 6.7 6.8-39.5"/><path fill="none" stroke="#000" stroke-width="2" stroke-miterlimit="10" d="M101.5 151.5c-1.7 2-4.5 6.3-5.5 12.3-1.3 8.7 5.7 12.3 6.7 16.3s8.6 14.3 15.1 10.3 12.6-5 14.9-5c2.3 0 9.6-3.3 9.6-3.3l22.6 5s16.9-1.3 19-2.5c2.1-1.2 5.8-4.8 7.4-12.5 1.7-7.7 0-17.3 0-17.3s-.8-1.2-1.8-2.8m-38.3-15.5h-6.6c-1.2 0-2.8-.3-4.4-.6m-17.1 41.4l-11.2-20.7m16.7 21.1l-11-25m13.7 21l-6-21.6m33.9 21.6l5.9-21.6m-3.2 25.6l11-25m-5.5 24.6l11.2-20.7m-71.4 20.9s0 4.7 2.2 7m0-11.2s.5 7.5 5 11.2m31.7-41.2s3.7-.4 6.1 0m1.6 4.8c-.4-.3-7.8-2.3-10.1-1.3m-2.5 23s4.3 3.5 7.2 3.1m-8.9.8c.5 0 4.8 3.2 7.1 3.1m34.5 3.2s3.4-3.2 3.6-6.4m-8.1 7.7s5.1-5.6 4.6-11.3"/></svg>