<svg version="1" xmlns="http://www.w3.org/2000/svg" width="288" height="288"><path d="M155.4 40.6s11.3 20.1-1.1 32.6l5.5 1.8s4.8-9 4.9-18.5c.1-9.5-7.6-15.4-9.3-15.9zm6.2 38.6s13.4 11.3 13.6 31.9L162.6 101l4.2 42.9-11.4 1.3V84h5.3l6 6.3-7-9.6 1.9-1.5zm-1.8 66l6.5 88.5 1.8-.9s3.1-41.7 2.3-56-3-29.7-3-29.7l-.7-3.1-6.9 1.2zm-12.8.4s4.6 67 1.9 88.1l3.5.6 1.1-50.1.9-28.7v-10l-7.4.1zm1.9 88.1l-18.5 12.8L144 250l8.4-15.7zm15.3.3l6.4 14.4 14.5-4.4-18.8-10.3z" fill="#27AAE1"/><g fill="none" stroke="#000" stroke-width="2" stroke-miterlimit="10"><path d="M153.2 78.1c-1.3.4-2.6.6-3.9.5-7.5-.7-12.9-9.9-11.9-20.5.9-10.7 7.8-18.8 15.3-18.2 7.5.7 12.9 9.9 11.9 20.5-.5 5.7-2.7 10.7-5.8 14m-19-31s11.2 3.8 21.8-1.5m-25.5 4.7c1 0 11.9 5.1 26.6-2.4m-27.6 8.2s19.2.5 29.8-5.4"/><path d="M145.5 77.5l.9 6.5 6-1v-4.6"/><path d="M130.4 86.2s15.2-3.7 31.2-2.1c0 0 2.1 45.1 5.2 59.8 0 0-17.2 2.6-26.5 1.3-.1 0-8.2-23.4-9.9-59z"/><path d="M130.4 86.2L117.1 111l20.1 22.4m-15.4-17.2s7.3-10.1 9.6-11.7m-4.2 4.6l7 11.1"/><path d="M136.4 132.5l-10.4 3 7.9 6.9 4.4-5.8m23.3-57.4l4.7-5.6-2.4-2.2-3.3 3.9-11.7-3.9-.8 5.2 11.7 4.1z"/><path d="M163 77.5s15.4 15 18.3 38.7L162.6 101m-2.8-20.3s12.4 11.9 10.1 26.2m-8.3-21.6l5.2 5.1m-26.6 55.1s-.6 57.2 7.9 88.8h4.3l1.9-88.8 9.9 87.4 3.9-.2s6.3-59.4-1.4-88.5m-19.2 90.1c-.4.3-17.9 7.2-17.9 7.2s10.8 7.2 11.6 6.9 11.5-13.5 11.5-13.5l-5.2-.6zm16.7-.3l9.6 14.4 11.3-7.1-16.1-8z"/></g></svg>