<svg version="1" xmlns="http://www.w3.org/2000/svg" width="288" height="288"><g fill="#27AAE1"><path d="M120.1 39.2s-12.8 25 12.5 38c0 0-9.6 3.4-17.5-10.8s2.4-26.3 5-27.2zm1.3 47.3s10.3 32.6 11.9 54.2l14 1.3-17.9 3.8-13.2-54-1.1-5.4h6.3z"/><path d="M118 99.1l-8.2 18.9 10.7 33.9h1.7l-7.1-37.8 5.2-7.3zm17 45.6l3 89h-2.1l-6.4-87.8zm14.1-3s7.6 46.4 10.2 91.1l-2.5 1-10.8-79.4-1.7-11.7 4.8-1zm-11.1 92l-19.9 13.1L135 251l7.2-17.3z"/><path d="M156.9 233.7l8.3 17.3 19.6-9.4-24-9.3z"/></g><g fill="none" stroke="#000" stroke-width="2" stroke-miterlimit="10"><ellipse transform="rotate(-15.442 127.28 57.859)" cx="127.3" cy="57.9" rx="13.8" ry="20.1"/><path d="M111.6 45.8s15.3-2.9 19-8.1m-20 11.4s16.7-2.8 24.5-10.1m1 2.7s-13.3 11.2-25.5 11.7m17.6 24l2.4 6.5 5.5-1.5-.3-6.7"/><path d="M115.1 87.2l34-7.4s8.7 28.4 4.5 60.9l-24.2 5.2-14.3-58.7zm0 0l-11.5 31.7 15.5 33 2.3-1-6.4-36.5m4.6-8.9l-11.8 22.7m14.4 23.7l5 7.7-3.6 9.3-6.5-1.7 2-8.6.2-5.4z"/><path d="M149.1 79.8s19.5 29.7 20.5 64.4l-3.5 1.7s-5.7-24.9-11.7-33.7"/><path d="M165.6 145.7l-2 9.2 2.2 1.2v5.8l6.2 2.7-2.4-20.4zm-9.4-30.5l7-5.1m-33.7 35.8l6.4 87.8h5l3.4-91 12.6 91 3.2-1.1s8.2-61.8-6.5-91.9"/><path d="M135.9 233.7l-17.8 8.7 13.9 7.1 8.9-15.8zm21 0l10.9 15.8 14.2-10.9-21.2-6.3z"/></g></svg>