<svg version="1" xmlns="http://www.w3.org/2000/svg" width="288" height="288"><g fill="#27AAE1"><path d="M150.3 44.2s9.2 26-7.5 37.4c0 0 10-.1 12.3-6.9 2.3-6.8 3.2-15.5 3.2-15.5s.4-10.8-8-15zM148.6 87s.6 11.6 2 24.4c1.5-.8 3-1.6 4.6-2.1.8-.2 1.5 0 2 .4-.4-3.9-.9-7.3-1-7.6-.3-.5-1.1-15.1-1.1-15.1h-6.5z"/><path d="M158.1 119c5.9-3.1 10-6.5 10-6.5L155.8 93l.4 9.2 6.3 9.2-4.8 2.6c0-.2 0-.5-.1-.7l-.1.1c-1.7 1.6-4 3.2-6.3 4 0 .3.1.5.1.8l-7.9 5.8c2.8-.3 5.7-1.1 8.3-2 1.1 7.8 2.4 15 4 19l-13.3 6.8 23.6-3s-7.8-20.9-8-25.2c.2-.3.2-.4.1-.6zm-8.9 28.7l11.2 2.7s1.2 67.9 4.8 78.3l1-82.9-17 1.9z"/><path d="M149.2 147.7s-11.5 37.1-1.7 83.4c0 0-16-44.9-5-83.4h6.7zm-2.5 83.3l-13.2 5.7 4.8 2.6 11.5-4.1zm18.5-2.4c-.2.7 1.7 15.3 1.7 15.3l11.8-3.1-12.4-12.2h-1.1z"/></g><g fill="none" stroke="#000" stroke-width="2" stroke-miterlimit="10"><ellipse transform="rotate(-85 144.552 62.238)" cx="144.6" cy="62.2" rx="19.4" ry="13.7"/><path d="M134.3 45.4s10.3 3.8 19.9-1.5m-23.3 4.7c.9 0 10.8 5.1 24.3-2.4M130 54.4s17.6.5 27.2-5.4M139 80.4l.9 5.8 6.1-.2v-4.6m-20.9 28c-.7-6.1-1.2-12.9-1.2-20.2 0 0 15.2-3.7 31.2-2.1 0 0 .2 9.7 1.5 21.4"/><path d="M124 91.4s-9.3 11.4-12.2 30.8c0 0 16.8 14.2 45.4-8.5l1.2-5.7s-22.6 11.3-38.6 7.8"/><path d="M155.1 87s10 10.2 17.8 26.7c0 0-6.1 12.4-32.2 9.9m-7.3-11.5l-19.4-5.7 4.1 8.1 12.3 1.9zm-21.6 10.1l9.5-7.2m12.1-2.9l7.3 2.4"/><path d="M155.8 99.9l6 11.5 11.2 2.3m-15.8 0l4.6-2.3m-3 11.9c1.6 8.6 4 16.7 7.3 21.4 0 0-23.3 5.2-31.5 1.9 0 0-3.5-7-6.5-19.7"/><path d="M166.1 144.7l-.4 83.4-2.8.5s-9.4-24.7-14.4-81.2"/><path d="M135.1 147.7s-12.7 37.1 10 81.5l2.5 2.9s-8.4-55.4 1-84.7m-2.5 83.6l-16.3 3.8 8.5 4.5 10.9-5zm16.9-2.4l2.8-.5 10.1 10.2-13 5.6z"/></g></svg>