<svg version="1" xmlns="http://www.w3.org/2000/svg" width="288" height="288"><path fill="none" stroke="#000" stroke-width="2" stroke-miterlimit="10" d="M151.8 34.2s-14.3-2.5-22.3-2.7c-8-.2-17.5-1.5-21.8 1.3-4.4 2.8-23.2 10.5-25.1 11s-12.1 4.9-12.1 4.9L49.4 59.2 39.2 73.5s-9.5 8.1-9.5 18.6v21.1c0 9.8-1.8 54.1 27.5 61.8s46 26.6 70.8 25.2 52.4-4.4 52.4-4.4 10.2 3.6 23.3-2.9c13.1-6.5 24.8-6.9 29.9-15.1s5.1-13.6 10.9-21.8 8.7-7.5 11.7-15.5c2.9-8 0-27.7 0-27.7s-2.9-36.7-17.5-46.4c-14.6-9.7-17.5-14.1-22.6-18.4s-14.6-6.3-21.8-7.5c-7.3-1.2-18.9 7.9-24.8 3.4s-17.7-9.7-17.7-9.7zM194 202.3l-6.8 3.5.5 6 4.4 5.5h6.5s5.3-5 4.8-5.8-2.2-3.3-2.5-3.9c-.3-.6 0-3.9 0-3.9l-6.9-1.4zm-9.6 19.2l-5.8 1.9v7.2s2.3 4.8 3.4 4.8 5.6-1.8 5.6-1.8l4.5-3.8s-1.2-3.2-1.2-3.8-6.5-4.5-6.5-4.5zm-11.1 15.1l-8.3 1.7v4.5l2.4 4h3.6l6.3-2.7zM155 246.8h-3.2l-1.6 5s2.8 5.1 3.3 4.9c.5-.2 3.9-1.9 3.9-1.9l2.4-3.1V249l-1-2.2H155z"/></svg>