<svg version="1" xmlns="http://www.w3.org/2000/svg" width="288" height="288"><path fill="#FFF" d="M174.5 117.9s-11.2-1.3-19.2-.5c-8 .7-13.9-1.4-16.5-1.8s-14.4-3.6-21.6 6.3-9.7 6.9-12.8 8.5c-3 1.5-8.9 4.5-9.3 14.8s3.5 15.6 7.1 17.9 9.4 9.2 24.5 4 13.1-4.2 20-3.4c6.9.9 22.9 6.2 31.8 4 8.9-2.2 9.9-6.2 11.9-11.9s5-12.6 2.7-17.4c-2.2-4.8-5.9-18-18.6-20.5z"/><path d="M174.5 117.9s-11.2-1.3-19.2-.5c-8 .7-13.9-1.4-16.5-1.8s-14.4-3.6-21.6 6.3-9.7 6.9-12.8 8.5c-3 1.5-8.9 4.5-9.3 14.8s3.5 15.6 7.1 17.9 9.4 9.2 24.5 4 13.1-4.2 20-3.4c6.9.9 22.9 6.2 31.8 4 8.9-2.2 9.9-6.2 11.9-11.9s5-12.6 2.7-17.4c-2.2-4.8-5.9-18-18.6-20.5zm-65.9 34.4s0 4.7 2.2 7m0-11.2s.5 7.5 5 11.2m48.2-2.5s9.5-3 11.3-8.7m-5.7 10.4s6-1 8.2-4.8m-51.2-20.2s1.7-3.3 3.3-5.2m4.9 1.3c-.5.2-6.2 5.3-6.5 7.8m12.8 13.2s4.3 3.5 7.2 3.1m-8.8.8c.5 0 4.8 3.2 7.1 3.1" fill="none" stroke="#000" stroke-width="2" stroke-miterlimit="10"/></svg>