<svg version="1" xmlns="http://www.w3.org/2000/svg" width="288" height="288"><path fill="#FFF" d="M171.2 107.5s-7.4-.3-11.7-.6c-4.3-.2-9.5-1.5-13.8-1.9s-15.3 2.9-17.3 3-12.4 1.5-15.9 4c-3.6 2.6-10.6 5-13.3 5.4-2.7.4-6.6 5-8.2 8.3-1.5 3.3-9.8 8.2-9.8 8.2s-5.7 5.6-3.9 15.7c1.9 10.1 4 16.4 8.6 19.2 4.6 2.9 18.4 13.2 28.1 11.9s20-2.8 25.7-3.7c5.7-.8 19.8 3.4 25 3.8 5.2.4 16.7 6.2 31.2-3.2s16.7-11.5 14.3-18.8-4.3-4.3-4-12 5.1-15-5.2-19.6c-10.3-4.5-13.8-2.3-16-7-2.2-4.5-.2-10-13.8-12.7z"/><path d="M171.2 107.5s-7.4-.3-11.7-.6c-4.3-.2-9.5-1.5-13.8-1.9s-15.3 2.9-17.3 3-12.4 1.5-15.9 4c-3.6 2.6-10.6 5-13.3 5.4-2.7.4-6.6 5-8.2 8.3-1.5 3.3-9.8 8.2-9.8 8.2s-5.7 5.6-3.9 15.7c1.9 10.1 4 16.4 8.6 19.2 4.6 2.9 18.4 13.2 28.1 11.9s20-2.8 25.7-3.7c5.7-.8 19.8 3.4 25 3.8 5.2.4 16.7 6.2 31.2-3.2s16.7-11.5 14.3-18.8-4.3-4.3-4-12 5.1-15-5.2-19.6c-10.3-4.5-13.8-2.3-16-7-2.2-4.5-.2-10-13.8-12.7zM87 154.2s2.4 9 12.8 13.7M92 152.5s3.1 5.3 7.9 8.5m77.3 10.1s13.6-4 15.6-14.2m-11.5 17s9.3-2.1 13.8-9.9m-84.9-41.1s-4.5 2.4-8 8.9m11.8-6.9s-5.9 3.3-7 8.3m19 17.7s-.6 3.3 8.2 6m-8.2-10s5.3 5.3 9.1 5.7m33.8-22.2s4.7 3 4.7 8.8m0-11.9s4.8 4.4 5 9.9" fill="none" stroke="#000" stroke-width="2" stroke-miterlimit="10"/></svg>