<svg version="1" xmlns="http://www.w3.org/2000/svg" width="288" height="288"><path fill="#FFF" d="M156.5 100s-9.8-1.7-15.3-1.9-12-1-15 .9-15.9 7.2-17.2 7.6c-1.3.4-8.3 3.4-8.3 3.4l-14.5 7.2-7 9.9s-6.5 5.6-6.5 12.8v14.5c0 6.7-1.2 37.2 18.9 42.4s31.6 18.3 48.6 17.3 36-3 36-3 7 2.5 16-2 17-4.7 20.5-10.3 3.5-9.3 7.5-15c4-5.6 6-5.1 8-10.6s0-19 0-19-2-25.2-12-31.9c-10-6.7-12-9.7-15.5-12.7s-10-4.3-15-5.2c-5-.8-13 5.4-17 2.3-4.1-3.2-12.2-6.7-12.2-6.7z"/><path d="M156.5 100s-9.8-1.7-15.3-1.9-12-1-15 .9-15.9 7.2-17.2 7.6c-1.3.4-8.3 3.4-8.3 3.4l-14.5 7.2-7 9.9s-6.5 5.6-6.5 12.8v14.5c0 6.7-1.2 37.2 18.9 42.4s31.6 18.3 48.6 17.3 36-3 36-3 7 2.5 16-2 17-4.7 20.5-10.3 3.5-9.3 7.5-15c4-5.6 6-5.1 8-10.6s0-19 0-19-2-25.2-12-31.9c-10-6.7-12-9.7-15.5-12.7s-10-4.3-15-5.2c-5-.8-13 5.4-17 2.3-4.1-3.2-12.2-6.7-12.2-6.7zm-69.4 75.5s2.2 8.2 10 13m-7.7-15.4s5 10.4 10.2 12.2m5.8-64.2s-7.2 6.1-9.5 13.2m3.7-13.2s-4 1.1-6.2 6.6m30.2 34.2s4.2 7.7 9 9.5m-11-4.8s2.8 6.1 6.5 7.1m33.7 20.2s10.9 3.8 17.6-3.7m-17 9.2s10.3 4 17-3.1m29.7-50.3s1.2 9.2-3.5 14.1m7-17.1s2.4 15.2-5.2 21.2m-32.5-39.8s5 .3 6 3.3m-7-6.6s7.2-3 11.2 3.3m-8.3 25.4s-1.4 6.2-7.1 7.7m10.3-4.7s-2 6.7-7.2 7.6" fill="none" stroke="#000" stroke-width="2" stroke-miterlimit="10"/></svg>