<svg version="1" xmlns="http://www.w3.org/2000/svg" width="288" height="288"><path d="M214.4 86s-26.1-3-44.7-1.2c-18.6 1.6-32.4-3.3-38.4-4.2-6.1-.9-33.6-8.4-50.3 14.7s-22.6 16.1-29.8 19.8c-7 3.5-20.7 10.5-21.7 34.5s8.2 36.3 16.5 41.7 21.9 21.4 57.1 9.3c35.2-12.1 30.5-9.8 46.6-7.9 16.1 2.1 53.4 14.4 74.1 9.3 20.7-5.1 23.1-14.4 27.7-27.7 4.7-13.3 11.6-29.4 6.3-40.5-5.2-11.2-13.8-42-43.4-47.8zM60.9 166.1s0 11 5.1 16.3m0-26s1.2 17.5 11.6 26.1m112.3-5.9s22.1-7 26.3-20.3M203 180.6s14-2.3 19.1-11.2m-119.3-47.1s4-7.7 7.7-12.1m11.4 3c-1.2.5-14.4 12.3-15.1 18.2m29.8 30.8s10 8.2 16.8 7.2m-20.6 1.9c1.2 0 11.2 7.5 16.5 7.2" fill="none" stroke="#000" stroke-width=".75" stroke-miterlimit="10"/></svg>