<svg version="1" xmlns="http://www.w3.org/2000/svg" width="288" height="288"><path fill="none" stroke="#000" stroke-width="2" stroke-miterlimit="10" d="M24.8 104.5l38.9-2.5-4.4 10.7H38.5l6.7 19.2s-5.9 10.4-5.9 9.6-14.5-37-14.5-37zM69 102L21.5 206l63.7-3.8L67 155.5l-11 14 14.8 21.7s-34 3-33.2 2.5 45.5-91.6 45.5-91.6L69 102zm23.8 1.6c0 1.4 0 82.6 1.4 83.7 1.4 1.1 8 14.3 9.3 14.3s20.6 1.1 21.1 0 12.1-14.3 12.1-14.3l2.2-85.3s-11.2-3.6-11-1.1c.3 2.5-1.1 85.1-1.1 85.1s-20.6 1-20.6 0c0-3.3-.8-81.5-.8-81.5l-12.6-.9zm34 82.3v12.9m-20.5-12.9c-.8 1.4-6.1 11.1-6.1 11.1m59 3.5l4.4-98.5h-14s-.5 100 0 100.1l9.6-1.6zm4.4-88.6s17.3 60.6 17.3 59.5 17.8-71.4 17.8-71.4 15.4 1.7 15.4 2-28.8 86.7-28.8 86.7h-7.1l-16.4-44.3"/><path fill="none" stroke="#000" stroke-width="2" stroke-miterlimit="10" d="M205.2 129l-1.3 71.2 11.6 1.9-1.4-100.1m8.8 0l4.1 100.1 43.1-1.9v-14.3l-35.7 6.4-1.4-34.7 25.5.3s1.6-14 0-13.6-25.5 2.9-25.5 2.9l-1.6-35.4 32.1-.8 1.6-12.9-42.2 3.9zm-104-19.5l8.2 1.1-9.3 16.4s-12.6-.2-11.5-1.3c1.1-1.1 12.6-16.2 12.6-16.2z"/></svg>