<svg version="1" xmlns="http://www.w3.org/2000/svg" width="288" height="288"><path d="M38.6 136.5s-12.2-30.2-11.7-30.2 33.3-2.7 33.4-2c.1.7-4 9-4 9l-19.2.2 6.5 15.5-5 7.5zm27.9-32.3h13.8s-44.7 86-43.7 86.3 30.8-2.8 30.8-2.8l-9-19.2 8.8-13.8 17.5 46.4-66.6 1.6 48.4-98.5zm26.6 2.8c0 .5 2.5 87 2.5 87l4.6 6.6h21.1s2.6-3.3 2.9-3.6c.3-.4-.7-12-.7-12l-20.6.1-.7-80.8-9.1 2.7zm37.3-7.4l-2.1 90.9 5.8-4.3 2.2-85.2zm-9.9-17.4c-.7.8-13.9 17.4-13.9 17.4l9.2 1.4 10-17-5.3-1.8zm33.3 18.8l-2.7 100.1 7.3-2.6 3.2-46.6 14.2 35.8h6.2l28.1-84.4-10.4-2.3-21.3 79.3-18-56.7V113s1.3-12 .7-12h-7.3zm57 4.3c-.6 0-9.3 24.8-9.3 24.8l-.8 70.9 14.3 4-4.2-99.7zm50.3-2.9l-36.2 1.8s1.8 98.3 2.7 98.4c.8.2 39.8 0 39.8 0l1.3-15-36.2 6.6s-.2-35 .3-35.3c.5-.3 19.3-.5 19.3-.5l.8-11.3-22.3 2.9-1.2-38.9 28-1.1 2.5-.1 1.2-7.5z" fill="#27AAE1"/><g fill="none" stroke="#000" stroke-width="2" stroke-miterlimit="10"><path d="M24.8 104.5l38.9-2.5-4.4 10.7H38.5l6.7 19.2s-5.9 10.4-5.9 9.6-14.5-37-14.5-37zM69 102L21.5 206l63.7-3.8L67 155.5l-11 14 14.8 21.7s-34 3-33.2 2.5c.8-.5 45.5-91.6 45.5-91.6H69zm23.8 1.6c0 1.4 0 82.6 1.4 83.7 1.4 1.1 8 14.3 9.3 14.3s20.6 1.1 21.1 0 12.1-14.3 12.1-14.3l2.2-85.3s-11.2-3.6-11-1.1c.3 2.5-1.1 85.1-1.1 85.1s-20.6 1-20.6 0c0-3.3-.8-81.5-.8-81.5l-12.6-.9zm34 82.3v12.9m-20.5-12.9c-.8 1.4-6.1 11.1-6.1 11.1m59 3.5l4.4-98.5h-14s-.5 100 0 100.1l9.6-1.6zm4.4-88.6s17.3 60.6 17.3 59.5 17.8-71.4 17.8-71.4 15.4 1.7 15.4 2c0 .3-28.8 86.7-28.8 86.7h-7.1l-16.4-44.3"/><path d="M205.2 129l-1.3 71.2 11.6 1.9-1.4-100.1m8.8 0l4.1 100.1 43.1-1.9v-14.3l-35.7 6.4-1.4-34.7 25.5.3s1.6-14 0-13.6c-1.6.4-25.5 2.9-25.5 2.9l-1.6-35.4 32.1-.8 1.6-12.9-42.2 3.9zm-104-19.5l8.2 1.1-9.3 16.4s-12.6-.2-11.5-1.3c1.1-1.1 12.6-16.2 12.6-16.2z"/></g><path fill="none" d="M57.3 80.9c34.1-1.4 68-3.2 101.7-5.2-34.9 4-70 8-105 12 41-2.6 82-5.2 122.7-7.7-54.5 4.9-109 9.9-163.3 14.8 68.6-3.3 137.1-6.7 205.7-10-38.1 2.8-76.1 5.7-114.2 8.5-31.5 2.4-63.2 4.7-93.7 8 93.7-4.3 187.9-7.4 282.4-9.1-81.3 7.6-165 12.8-249.6 15.2 50.5-2.4 101.1-4.7 151.6-7-71.3 5.4-142.7 10.7-214 16.1 91.6-3 183.5-6 275.1-9-96.5 6.3-193 12.9-289 19.6 122.3-4.5 245.2-7.3 368.4-8.4-115.5 7.9-231.5 15.6-349.6 17.3 99.9-5.2 217.4-7 318.5-9.9-12.7.4-41.6-.5-53.7.9-89.8 10.2-183.3 17.3-278 21.3 131.8-5.2 263.8-10.4 395.6-15.7-89.4 4.9-228.7 20.6-319.3 22.8 71.9-4.2 197.4-13.1 269.3-17.3-82 7.2-193 11.2-277.9 13.7 78.1-1.9 182.1-4.7 260.4-5.5-81.1 2.1-161.7 6-241 11.6 53.7-.9 107.4-1.9 161.1-2.8-42.2 1.3-84.2 3.4-125.6 6.1-26 1.7-52.3 3.7-76.3 7.4 88.8-.2 177.8-.4 266.6-.7-77.3 2.4-154.6 4.8-232.1 7.2 64.2-1.4 128.2-2.7 192.6-3.2 22-.2 44.4-.2 65.6 1.7-65.4 5.4-218 9.9-285.2 11.8 30.1.2 145.3-2 174.8-.1-3.8 1.7-11.1 2.1-17.6 2.4-37.9 1.9-75.7 3.7-113.6 5.6 44-.7 88.2-1 132.4-.6-51.7 3.5-104.2 5.9-156.8 7.3-25.2.7-51.1 1.1-73.9 4.6 37.1-.8 158.9-2.6 196-1.3-36.5 3.4-158.7 6.9-196.6 8.4 128-1.1 255.9-1.7 383.9-1.7-103.5 0-206.9.1-310.4.1 33.1 1.2 65.4 4.4 94.5 9.3-35.1 2.3-71.3 3.2-107.2 2.7 20.2-.3 40.4-.1 60.4.7"/></svg>