<svg version="1" xmlns="http://www.w3.org/2000/svg" width="432" height="432"><path fill="#FFF" stroke="#000" stroke-width="4" stroke-miterlimit="10" d="M190.7 118.7L178 117l-10 .8-5.3 3.2-7.3 3.3-6.7 1.3s-6-1-11.7 2.3l-5.7 3.3L120 139l-3.7 5.3s-2.3 3.1-2.3 6.2-1.3 7.8-1.3 7.8l-2 6.3-2 5.3-2.7 11.3s1-7 0 2.7-3 13.7-2 17 2.3 7.7 2.7 10c.3 2.3 1 5.7 1.7 8s1.3 3.8 2.3 8.8 6 13.2 6 13.2l6 4 7.3 1.4 7.7 2.9s6.4 5.7 9.5 6.7 7.8 4 11.5 4 1.7 2 11.7 0 9.3-1.7 12.3-3.3c3-1.7 3.3-2.7 8-2.7h9.7s6 1.3 14.7 1.7c8.7.3 6.3 1.7 12.3.3 6-1.3 10-2 10-2s10-3 17.7-5.3 14.5-2.2 14.5-2.2 22.2 1.6 24.5 1.6 13-1.6 13-1.6l5.7-3.8s7.3-2.7 8.3-7 3-12.7 3-12.7l3.6-8.3s1.6-14.3 0-15.7-1.3-2.6-2.6-7.3c-1.3-4.7-1 1-2-8.4-1-9.3-1-15.7-1-15.7l-3-12-5-8.7c-2.3-4-1.7-4.7-4.7-8.3-3-3.7-1.1-3.5-4.1-6.4-2.9-2.9-11.3-6.2-11.3-6.2l-9-3.1-4.3-2.2-15.3-3.7-9.7-3.5h-29l-8.7 1.3-11.7 3.5-6.7.7-8.9-.2zm8.1 148.3h-5.5l-3.5 3.2-2.2 5.2s-1 2.8 0 4.2-1.8-.2 1 1.5 4.4 2.2 4.4 2.2h5.8s3-.2 4.5-1.8 2-2 3-3.2 4 0 2.8-3.2 0-3-1.8-4.8-1-3.2-3.2-3.5-5.3.2-5.3.2zM175 288.2h-6.7l-5 4.2s.5 1.2 0 3.2-1 3.2 0 5 3.2 3.5 3.2 3.5h7.2l8-1.2s-.2-1 0-3.2-.5-3.8 0-5.5.1-5 .1-5l-2.8-1h-4zm-35.8 13.6h-5.8l-2 4.5-1.5 4.2s-2 3.8 0 6l2 2.2 7.2 1h5s4.5-5.2 4.5-6v-3c0-2 1-5.5 0-6.5s-1.5-2.2-3-2.5-6.4.1-6.4.1z"/></svg>