<svg version="1" xmlns="http://www.w3.org/2000/svg" width="720" height="432"><ellipse fill="none" stroke="#000" stroke-width="2" stroke-miterlimit="10" cx="212.1" cy="132.7" rx="11.2" ry="17.3"/><path fill="none" stroke="#000" stroke-width="2" stroke-miterlimit="10" d="M209 149.3l-.5 8h8.9l-1-8.6m-23.5 25.7c.7-10.4 1.1-17.1 1.1-17.1h33.8s.5 8.9 1.1 22.1m.9 18c2.1 40.7 5 97.6 5 97.6s-22.7 6.9-49.7 0c0 0 4-60.7 6.6-101.5"/><path fill="none" stroke="#000" stroke-width="2" stroke-miterlimit="10" d="M194 157.3l-11.8 31.1s20.8 13.4 41 13.9l4.2-22.5-35.3 4.1"/><path fill="none" stroke="#000" stroke-width="2" stroke-miterlimit="10" d="M203.1 182.6c-.4-.9-3.4-6.7-3.4-6.7l-9-2.1-1.5 5.9 6.2 3.8m32.1-3.7l4.2-2.3 3.1 4.3h-7.7"/><path fill="none" stroke="#000" stroke-width="2" stroke-miterlimit="10" d="M227.8 157.3l17.1 32-21.1 10.4m-.6-42.4s-10.2 14.4-19.8 25.6m25.1-11.6s-2.8 3.8-7.1 9.1m-16.1 18.7c-5.6 5.8-11.1 10.6-14.8 11.9m10.9 86.6l1 10.7h3.5l.9-10.5m7.6-.2l1.3 10.7h3.5l1-11.2m-17.8 11.2l-18 6.7 12.3 5.3 9.2-12m9.8 0l9.4 12 11.8-4.4-17.7-7.6"/><ellipse fill="none" stroke="#000" stroke-width="2" stroke-miterlimit="10" cx="283.6" cy="130.4" rx="11.2" ry="17.3"/><path fill="none" stroke="#000" stroke-width="2" stroke-miterlimit="10" d="M296.3 155H267s-6.7 119.3-8.9 137.4c0 0 33.5 8.2 51.2-1.7l-13-135.7zm-9.6-7.9l.6 7.9h-8.9l.9-8.6m-7.8 8.6l28.9 43m-34.2-30.6l36 49.8"/><path fill="none" stroke="#000" stroke-width="2" stroke-miterlimit="10" d="M266.9 155l-22.1 54.8 18.5 7.4"/><path fill="none" stroke="#000" stroke-width="2" stroke-miterlimit="10" d="M258.8 215.4l2 8.8-2.8 1.1-2.1-3.5-2.6 13.1-6-8.5 4.5-13.8m39.5 82.7l-1 10.8h-3.5l-.9-10.5m-7.5-.3l-1.4 10.8h-3.5l-1-11.3m17.8 11.3l18 6.7-12.3 5.3-9.2-12m-9.8 0l-9.3 12-11.8-4.5 17.6-7.5M296.3 155l24.9 54.8-18.5 7.4"/><path fill="none" stroke="#000" stroke-width="2" stroke-miterlimit="10" d="M307.2 215.4l-1.9 8.8 2.7 1.1 2.1-3.5 2.6 13.1 6-8.5-4.5-13.8"/><ellipse fill="none" stroke="#000" stroke-width="2" stroke-miterlimit="10" cx="363.8" cy="130.4" rx="11.2" ry="17.3"/><path fill="none" stroke="#000" stroke-width="2" stroke-miterlimit="10" d="M376.4 155h-29.3s-6.7 119.3-8.9 137.4c0 0 33.5 8.2 51.2-1.7l-13-135.7zm-9.5-7.9l.5 7.9h-8.9l1-8.6m-7.9 8.6l28.9 43m-34.1-30.6l35.9 49.8"/><path fill="none" stroke="#000" stroke-width="2" stroke-miterlimit="10" d="M371.5 295.3l-1 10.8H367l-.9-10.5m-7.6-.3l-1.4 10.8h-3.5l-1-11.3m17.9 11.3l18 6.7-12.4 5.3-9.1-12m-9.9 0l-9.3 12-11.8-4.5 17.6-7.5M347.1 155l-23.2 22.4 4.8 38 15.2-5.9-5.9-28.3 8.1-9.9m-3.6 39l1.2 2.3"/><path fill="none" stroke="#000" stroke-width="2" stroke-miterlimit="10" d="M333.8 213.4l-1.2 6 3.4 5 7.3-3.1m33.2-66.3l23.2 22.4-4.9 38s-8.7-3.3-13.1-5.1"/><path fill="none" stroke="#000" stroke-width="2" stroke-miterlimit="10" d="M381.1 202.9c1.8-8.4 4.5-21.8 4.5-21.8l-7.7-10.2m11.9 42.5l1.2 6-3.4 5-4.8-2.1"/><ellipse fill="none" stroke="#000" stroke-width="2" stroke-miterlimit="10" cx="143.6" cy="130.4" rx="11.2" ry="17.3"/><path fill="none" stroke="#000" stroke-width="2" stroke-miterlimit="10" d="M156.2 155h-29.3s-6.7 119.3-8.9 137.4c0 0 33.5 8.2 51.3-1.7L156.2 155zm-9.5-7.9l.5 7.9h-8.9l1-8.6m-7.9 8.6l28.9 43m-34.1-30.6l35.9 49.8"/><path fill="none" stroke="#000" stroke-width="2" stroke-miterlimit="10" d="M151.3 295.3l-1 10.8h-3.5l-.9-10.5m-7.6-.3l-1.4 10.8h-3.5l-1-11.3m17.9 11.3l18 6.7-12.4 5.3-9.1-12m-9.9 0l-9.3 12-11.8-4.5 17.6-7.5M156.3 155l23.2 22.4-4.9 38s-8.7-3.3-13.1-5.1"/><path fill="none" stroke="#000" stroke-width="2" stroke-miterlimit="10" d="M160.9 202.9c1.8-8.4 4.5-21.8 4.5-21.8l-7.7-10.2m11.9 42.5l1.2 6-3.4 5-4.8-2.1M126.9 155l-17.7 17.2-23.1-7.9v21.8l26.8 6.2 13-20.1"/><path fill="none" stroke="#000" stroke-width="2" stroke-miterlimit="10" d="M86.1 164.3l-.9-9.2H66.5s1.3 4.4 1.7 4.3 6.1.5 6.1.5L75 170l11.2 1"/><ellipse transform="rotate(-13.699 431.729 137.18)" fill="none" stroke="#000" stroke-width="2" stroke-miterlimit="10" cx="431.7" cy="137.2" rx="11.2" ry="17.3"/><path fill="none" stroke="#000" stroke-width="2" stroke-miterlimit="10" d="M441.7 148.6l.6 8.7h-12.4m24.6 17.1c-.7-10.4-1.1-17.1-1.1-17.1h-33.8s-.5 8.9-1.1 22.1m-.9 18c-2.1 40.7-5 97.6-5 97.6s22.7 6.9 49.8 0c0 0-4-60.7-6.6-101.5"/><path fill="none" stroke="#000" stroke-width="2" stroke-miterlimit="10" d="M453.4 157.3l11.8 31.1s-20.8 13.4-41 13.9l-4.2-22.5 35.3 4.1"/><path fill="none" stroke="#000" stroke-width="2" stroke-miterlimit="10" d="M444.3 182.6c.4-.9 3.4-6.7 3.4-6.7l9-2.1 1.5 5.9-6.2 3.8m-32.1-3.7l-4.2-2.3-3.1 4.3h7.7"/><path fill="none" stroke="#000" stroke-width="2" stroke-miterlimit="10" d="M419.6 157.3l-17.1 32 21.1 10.4m.6-42.4s10.2 14.4 19.8 25.6m-25.1-11.6s2.8 3.8 7.1 9.1m16.1 18.7c5.6 5.8 11.1 10.6 14.8 11.9M446 297.6l-1 10.7h-3.5l-.9-10.5m-7.6-.2l-1.3 10.7h-3.5l-1.1-11.2m17.9 11.2l18 6.7-12.3 5.3-9.2-12m-9.8 0l-9.4 12-11.8-4.4 17.7-7.6m1.7-154.5v3.5"/><ellipse fill="none" stroke="#000" stroke-width="2" stroke-miterlimit="10" cx="501.2" cy="130.4" rx="11.2" ry="17.3"/><path fill="none" stroke="#000" stroke-width="2" stroke-miterlimit="10" d="M513.9 155h-29.3s-6.7 119.3-8.9 137.4c0 0 33.5 8.2 51.2-1.7l-13-135.7zm-9.5-7.9l.5 7.9H496l1-8.6m-7.9 8.6l28.9 43m-34.2-30.6l36 49.8"/><path fill="none" stroke="#000" stroke-width="2" stroke-miterlimit="10" d="M484.5 155l-22.1 54.8 18.5 7.4"/><path fill="none" stroke="#000" stroke-width="2" stroke-miterlimit="10" d="M476.4 215.4l2 8.8-2.8 1.1-2.1-3.5-2.6 13.1-6-8.5 4.5-13.8m39.5 82.7l-1 10.8h-3.5l-.9-10.5m-7.5-.3l-1.4 10.8h-3.5l-1-11.3m17.8 11.3l18 6.7-12.3 5.3-9.2-12m-9.8 0l-9.3 12-11.8-4.5 17.6-7.5M513.9 155l24.9 54.8-18.5 7.4m4.5-1.8l-1.9 8.8 2.7 1.1 2.2-3.5 2.5 13.1 6-8.5-4.5-13.8"/><ellipse fill="none" stroke="#000" stroke-width="2" stroke-miterlimit="10" cx="576.7" cy="130.4" rx="11.2" ry="17.3"/><path fill="none" stroke="#000" stroke-width="2" stroke-miterlimit="10" d="M564 155h29.3s6.7 119.2 8.9 137.4c0 0-33.5 8.2-51.3-1.7L564 155zm9.6-7.9l-.6 7.9h8.9l-.9-8.6m7.8 8.6l-28.9 43m34.2-30.6l-36 49.8"/><path fill="none" stroke="#000" stroke-width="2" stroke-miterlimit="10" d="M569 295.3l1 10.8h3.5l.9-10.5m7.5-.3l1.4 10.8h3.5l1-11.3M570 306.1l-18 6.7 12.3 5.3 9.2-12m9.8 0l9.3 12 11.8-4.5-17.6-7.5M563.9 155l-23.2 22.4 4.9 38s8.7-3.3 13.1-5.1"/><path fill="none" stroke="#000" stroke-width="2" stroke-miterlimit="10" d="M559.4 202.9c-1.8-8.4-4.5-21.8-4.5-21.8l7.7-10.2m-11.9 42.5l-1.2 6 3.3 5 4.8-2.1m35.8-67.3l17.6 17.2 23.1-7.9v21.8l-26.8 6.2-12.9-20.1"/><path fill="none" stroke="#000" stroke-width="2" stroke-miterlimit="10" d="M634.1 164.3l.9-9.2h18.8s-1.3 4.4-1.7 4.3-6.1.5-6.1.5l-.8 10.2-11.2 1"/></svg>