<svg version="1" xmlns="http://www.w3.org/2000/svg" width="432" height="432"><path fill="none" stroke="#000" stroke-width="2" stroke-miterlimit="10" d="M26.4 276.1v-61h11.3v6.3h5.7v-6.3h11.3v6.3h5.7v-6.3h11.3v6.3h5.7v-6.3h11.3v6.3h5.7v-6.3h11.3v6.3h4.7v-6.3h11.3v40h10.4v-6.3h11.3v6.3h7.7v-6.3h11.3v6.3h7.7v-6.3h11.3v6.3h7.7v-6.3h11.3v6.3h6.7v-6.3h11.3v6.3h9.7v-9.5l3.8-.2v-27h12.7v27h5.3v-30.3h8.8V172h5.3v-14.2h8.2v14.3h5.2v43h9.5v30.3h8.5v10h7.8V245h11.5v10.8h9.2v-11.5h11v11.2h11.2v-23.3h-2.6v-4.3h3.1c1.5-4.7 5.9-8.2 11.1-8.2 5.2 0 9.6 3.4 11.1 8.2h3.1v4.3h-2.6v10.5h15.3l20.8 33.4"/></svg>