<svg version="1" xmlns="http://www.w3.org/2000/svg" width="432" height="432"><path fill="none" stroke="#000" stroke-miterlimit="10" d="M142.8 157.1s-4.3-2.7-4.3 0-1.3 3.7 0 4.7 5.3 3.7 5.7 4.7c.3 1-2 3.7-1.7 5.3.3 1.7 5.7 2.3 5.7 2.3h11c4.7 0 12.3 1 14.7 0 2.3-1 6-2.3 7-1.7 1 .7 2.7-.1 3.7 2.1s2.7 3.6 4 5.2c1.3 1.7 1 2.3 3 2.7 2 .3 5 0 5 0s1.3-2 2.7-3c1.3-1 1.3-3.7 5-3.7s6.3 1 6.3 1l7.7 1.3 4.7 2.7s0-1.4 1.7 1.8l1.7 3.2s2.3-3.7 6.7 0c4.3 3.7 5.7 5 5.7 5v2s2.7.3 0 6-3 9.7-3 9.7-.3 1.3-1 4.7-2 3.3-.7 7.7c1.3 4.3 1.7 7 1.7 7s1 2.7 2.7 6.7 2.7 3.3 3.3 7c.7 3.7 1 1.7 2 6.7s2 9.3 4.7 11.3.7 2.3 4.7 3.3 5.7 2.3 5.7 2.3h4.3s2.7 2 2.7 3.7v6.3l2 7.3s-1 2 2 2.3 5.7.3 8 0 6-3.7 7-4.7 3.3-1 3.7-4.7c.3-3.7.3-8 1.3-10s2.7-2 2.7-5.7v-7c0-6.3-.3-3.7 0-9s1.7-1 0-8.3-1.7-6.3-3-9.3-2.7-5.6-2.7-5.6-1.7-1-3.7-6 .3-2-2-5 .3 1.3-2.3-3c-2.7-4.3.3-.3-2.7-4.3s-3-2.3-3.3-6-.7.3-.3-3.7c.3-4 0 .7.3-4s1-1.7.3-4.7l-.7-3-1.7-.7s-1.7 0-3.7-3.7l-2-3.7-3.3-2.3s-2.3-.7-4.3-5.3c-2-4.7-1.3-2.7-2-4.7s-.7.3-1.3-4.5l-.7-4.8-6.3-2.3h-4.3c-2.3 0-4.3-.7-5.3 0s.7-2-1 .7-1 .3-1.7 2.7-1 3.7-1 3.7l-4.3-1.3-5-3.7s-8.1 1-8.7 1.3-4.6 1-4.6 1-6.3 1.7-9.3 2-7.3 0-8.3 0-3.3.3-4.7-1.3c-1.3-1.7-2.7-6.4-4-5.5s-7-.1-7-.1l-5.7 3.7-3.3 1.7-10 1.7-8.7 2.3-7.5-.5z"/></svg>