<svg version="1" xmlns="http://www.w3.org/2000/svg" width="432" height="432"><g fill="#27AAE1"><path d="M204.7 111.9s-11.1 22.3 7.1 42.3c0 0-13.4-1-15.2-17.8-2-16.7 4.2-23.9 8.1-24.5zm-5.6 48.6l5.3 65.6s18.3 3.3 22.7 3.2c0 0-15.9 2.8-28-.3l-6.3-68.5h6.3z"/><path d="M203 229.3v100.8l-18 14.8 15.7 6.9 7.1-21.7 8.4-98.7zm21.5 1.1l11.3 98.7 19.9 15.3-16.2 7.4-10.7-22.7-11-98.4zm-30.8-59.9c-1.2.7-12.7 23.7-12.7 23.7l6.3 31.8-1.4-32.1 8.7-13.9-.9-9.5z"/></g><g fill="none" stroke="#000" stroke-width="2" stroke-miterlimit="10"><ellipse transform="rotate(-9.543 210.103 132.727)" cx="210.1" cy="132.7" rx="14" ry="21.7"/><path d="M197.8 115.1s10.4 1.5 18.2-4.3m-20.8 7.9s15 2.7 23.5-6m-24.5 9.8s17.7 3.2 27.5-5.5M208 152.9v5.2m9.1-5.3l1 4.6m9.7-1.7l-35 4.7 6.3 68.5s17.2 3.8 33.4 0l-4.7-73.2zm-35 4.8L173.7 193l8.6 36v7l5.7 7.3 4.8-2.5-4-8.5 4 .2v-4.2l-4.8-2.6-2.7-30.7 9.3-14.9"/><path d="M200.7 229.3v100.8h7.1l8.5-99.4m1.7 0l13.3 98.4h8.2l-7-100.1m-31.8 101.1l-16.5 12.7 14.8 6 8.8-18.7m23.5-1l10.7 19.7 15.6-5-18.1-14.7M173.7 193l11.6 2m41.7-38.8l7.4-21.9-.8-27.6-4.4-4.3-3-4.6 3.5-4.3 2.4 2.7.3-11.1 6-2.8 5.3 3.7.5 12.8-2.8 7.7 4 29.7-16.4 39.2"/></g></svg>