<svg version="1" xmlns="http://www.w3.org/2000/svg" width="1369" height="1124.5"><path fill="none" stroke="#34ABDF" stroke-width="3" stroke-miterlimit="10" d="M753.5 524.6c1.1 5.8 1.8 12.6-2.3 16.9-1.4 1.5-3.3 2.4-5.1 3.3-6.4 3.2-13 6.5-20.2 6.6-4.6.1-10.3-.6-12.8 3.3-.8 1.2-1 2.7-1.4 4.2-2.9 11.2-30.9 49.2-44.2 43.5-15.8-6.8-15.4-26.2-32.4-24.9-17 1.3-11.2 34-44.6 26.5"/><path fill="#27AAE1" d="M738.3 547.7H861L800.6 425z"/><path fill="none" stroke="#34ABDF" stroke-width="3" stroke-miterlimit="10" d="M830 643.7c-19.4 1.8-39.4-8.5-49.4-25.3-1-1.6-1.9-3.3-3.4-4.4-1.7-1.2-3.9-1.5-6-1.7-8.5-.9-17.3-1.8-25.4.9-5.1 1.7-9.6 4.7-14.9 5.9-23.9 5.4-45-46.5-64.1-36.2-15.1 8.2-11.9 27.5-28.9 27.8-17 .3-15.3-32.7-47.9-22.2"/><path fill="#27AAE1" d="M793 676.1h104.3l-51.4-104.3z"/></svg>