<svg version="1" xmlns="http://www.w3.org/2000/svg" width="833" height="850"><path fill="none" stroke="#000" stroke-width="4" stroke-miterlimit="10" d="M450.9 36.2l-48.3-21.7h-39.7l-34.5 21.7h-14.9s-28.6-15.2-36-11.1-50.9 12.6-55.7 11.1c-4.8-1.5-24.9 12.6-24.9 12.6L169.8 65l-50.5 8.1S97 91.8 87 101.9s-18.6 26.8-22.3 33.8c-3.7 6.6-10 69.2-10 69.2s-24.9 23.7-27.1 38.9C25 259 19.4 313 19.4 313s.4 35.4 0 57.1c-.3 18.4-.2 36.9-.1 55.3.1 14.7-3.6 37.1 3.1 50 4.1 7.8 6.4 8.9 8 17.9 1.8 9.8 3.9 19.4 7.7 28.7.8 2.1 1.8 4.2 3.2 6 1.4 1.7 3.2 3 5 4.3 10.5 7.4 19.9 12.4 26 23.5 6.7 12.1 11.6 25.6 17.3 38.2l26 30.3 33.8 30.3 31.9 16.7h43.4s70.6 40.4 75.4 40.4 11.1 15.2 38.2 15.2h151.2c-1.9 0-3.7-.1-5.4-.7 9.4-4.2 22.1-4.4 32.3-5.7 26.3-3.3 44.2-25.8 68.8-36.6 8-3.5 16.4-6.5 23.2-12 13-10.4 19-28.4 33.7-36.2 9.7-5.1 21.2-4.6 32.1-5.4 25.3-1.9 69-13.7 76.3-41.4 3.7-14.3 5.8-36.2 15-47.9 10.6-13.4 25.9-23.4 36.4-37.8 3.8-5.3 7.5-10.9 9.3-17.2 1.5-5.1 1.7-10.5 1.8-15.8.8-22.5 1.6-45.3-3-67.3-3.5-16.5-9.9-32.4-12.1-49.1-2.4-18.3-2.4-34.3-9.1-51.6-5.1-13.2-5-28.5-8.4-42.9-7.4-31.8-11.1-40.4-11.1-40.4l-7.4-18.7-21.2-41.9c-8.4-19-16.2-33.8-28.5-51-3-4.2-6.2-8.5-10.9-10.7-3.9-1.8-8.3-1.9-12.3-3.2-11.4-3.7-17.2-16.1-26-24.2-5.6-5.1-12.4-8.5-19.2-11.9-16.4-8.1-34.4-20.8-51.9-25.4-10.4-2.7-22.8-2-33.6-3 0 0-22.3 3.5-30.8 3.5S494.1 41 486.7 41s-35.8-4.8-35.8-4.8z"/><path fill="none" stroke="#000" stroke-width="3" stroke-miterlimit="10" d="M366.3 736.7H362s-4 2.3-4.3 3.3-1.7 3.1-2 4.9c-.3 1.8-1.7 4.4 0 5.1s4.9 2 4.9 2h2.7s3.3 1.3 5.3 0 4.3-1.3 4.3-2.7v-2.7l1.3-5.7v-4.3h-7.9v.1zm11 27.3h-3.8l-4.3 4.2-1.3 3.3s-.8 2.3 0 3.8 1.5 2.5 3.3 2.8 1.5-.5 3.2 0 4.7.1 4.7.1l4-1.2 2.5-3.5v-7l-1.3-2.5-2.2-.7-4.8.7zm10.2 23.8s-6.2-.7-6.3 0c-.2.7-2 4.7-2 4.7l-1.7 6.2s-.3 1.3.8 2c1.2.7 1 .5 2.5 1.2s7.7 1.3 8.2 1c.6-.3 1.9-1 3.2-2.3s3.3 0 3.3-3.7v-6l-1.8-3.3-6.2.2z"/></svg>