<svg version="1" xmlns="http://www.w3.org/2000/svg" width="432" height="432"><path fill="none" stroke="#000" stroke-width="2" stroke-miterlimit="10" d="M268.5 147.3s1.8 1.8 0 3-3.8 2.8-4.5 3.5-4.5 3.5-4.5 4.8.8 2.2 0 5.2 0 5 0 5-.9 4.2-.3 5c.6.8 1.6 2.8 3.1 3.5s5.2 1.5 5.2 1.5l-1.2-5.5s-.5-2.5-.2-3.8.2-3.2.2-3.2-1-2 1-3.2 5.8-2.2 5.8-2.2 2.5-3.2 2.5-.8.8 2.5 0 4 .9 2.5.3 3.5c-.6 1 1.2 1.8 1.2 1.8s2.5.8 4-1 1.8-1.8 2.2-3.2 1.5-4.2 1.8-5 2.5-4.8 2.5-4.8 2-2 5.5-2 4.5.5 7.8 0 4-.2 5.5-1.2 2.2-1.8 3.8-2 2-1 3.8-1.2 3.8-1.2 6.5-1.5 3.2 1 3.8 1.8 1.8.5 0 2.8-5 4.8-5 4.8-1.2 2-.5 4.2.8 2.2.8 2.2l-3 5.8-4.8 4.5s-3.5 5-3 8.5.5 7 .5 7-.2 2-.5 5.8 1 4.8-1 8.5-5 6.8-5 6.8l-3.5 6.5s-4.5 5.8-5.8 8.2-.1 1.2-1.3 4.5c-1.2 3.2-1.4 4.2-1.9 6.8s-.5 2.5-.5 2.5-1.1 5 2.4 7.8c3.6 2.8 4.8 4.2 4.8 4.2s3 1.2 3 3-.5-3.2 0 1.8 2 8.7 2 8.7-2.8-.5-5 0-3.2 0-3.2 0 .1-3.5-1.6-4.8c-1.7-1.2-.9-.8-3.4-2s-1 .8-2.5-1.2.5.5-1.5-2-1.8-2.2-3.8-4.2.5.8-2-2-1.8-3.2-5.8-3.5-6.2-.2-6.2-.2-1-.8-3.2 0-4.5 2.5-4.5 2.5l-2.2 5s-1.5 3-4.8 4.7c-3.2 1.8-7.8 3.2-7.8 3.2s-1 .2-5.5.5-5.5 1.2-8.2 1.5-2.8-.8-4.8 1.5-4 1.8-5.8 5.2-4.2 6.8-4.2 6.8v4.8s-2 6.2-3.2 7.8-3 2.8-3 2.8.8.2-2.2 0-1.8 2.5-3-.2-.8-1.8-1.8-4-.5-1.2-1.2-4.8-1.8-3.8-2-5.2 0-4.5 0-4.5l-.1-1.8s-1.9-3-2.6-3.5-1-1.8-3.2-1.8-3.8.2-4.8.5-1 .2-1 .2-3.2-4.8-3.8-5.8-1-1.5-1.5-3 0-2.2-1.2-3.2-5.5-1.8-5.5-1.8l-4.2-.8h-9.3l-4.8-1.5s-1.2-1.2-4.5-1.2-5-.2-7 0-1.5.5-4 .5-4.8-.2-4.8-.2l-3-2s-5.8-4.5-8-8-3-2.5-4-5.5-2.5-5.2-2.5-5.2-1.2-1.2-2.5-4-2-2.1-2.8-4.2-2.8-3.8-2.8-3.8-2.8-1.8-2.5-3.8 1.2-1.2 1.8-2.8 1.5-3.2 1.5-3.2l.8-4-1-4.2s-.5-1-1.2-2.8-1.8-3.5-1.8-3.5-1.5-3.8-1.2-5.5 3.2-4.5 4-6.5 0 .2 1-3.2 1.5-5 1.5-5 1-1.2 1.5-5 .8-2.5.8-5 .8-3.8.8-3.8l1.5-4s-.2-2 .2-4.8-.2-1.2.5-2.8 4 0 4 0l4-.7s1-1.6 1.8-2.1 3.5-1.8 3.5-1.8l5.5 1.2h5.2l12.2.8 6.5-.2 9.2.5 5.8 2s3.2 1 9 2.5 8.5 1.8 8.5 1.8l7.5.2s10.2 1.2 15.8 1.2 5.2.8 8.2 0 4.5-1 6.5-1.5 5.2-2 7.8-2h4.8c1.8 0 5.5 1 5.5 1s-.2 1-.5 2 1 1.5 1 1.5l6-2.5 2.8-.2s.2 1 2.8.2 5.2-2.5 5.2-2.5z"/></svg>