<svg id="Layer_1" xmlns="http://www.w3.org/2000/svg" viewBox="0 0 1353 626"><style>.st0{fill:#27aae1}.st2{fill:none;stroke:#000;stroke-width:1.9999;stroke-miterlimit:9.9995}.st3{stroke-width:2;fill:none;stroke-miterlimit:10}.st10,.st3{stroke:#000}.st10,.st11,.st7{fill:none}.st7{stroke:#000;stroke-miterlimit:10.0001}.st7,.st8{stroke-width:2}.st8,.st9{fill:none;stroke:#000}.st8{stroke-miterlimit:9.9998}.st9{stroke-width:1.9999;stroke-miterlimit:9.9997}.st10{stroke-width:2.0001;stroke-miterlimit:10.0003}.st11{stroke:#27aae1;stroke-width:25;stroke-miterlimit:10;stroke-opacity:0}</style><g id="Layer_5"><path class="st0" d="M587.25 18.79s-24.84 28.03-5 61.34c0 0-18.04-3.05-15.82-31.64 2.23-28.32 20.82-29.7 20.82-29.7zm-21.79 71.74l-1.67 98.81 41.91 25.4s-33.03 79.66-31.64 79.79c1.39.14 31.5 7.08 31.5 7.08l-.97 5.83-37.47-10.82 30.25-80.07-58.15-30.25 1.8-9.44 16.65-86.46 7.79.13z"/><path class="st0" d="M574.48 136.6l4.3-1.8s23.04 19.15 24.84 19.71c1.8.56 57.17 7.49 57.17 7.49l1.39 3.89H637.2s-8.74-1.39-10.13-1.67c-1.39-.28-29.56-4.86-29.56-4.86l-23.03-22.76z"/></g><path d="M567.69 22.81c7.91.28 15.96.69 23.87.97-6.8 3.61-13.88 6.52-21.37 8.6 7.63.56 15.26 1.11 22.9 1.67-12.63 3.19-25.26 6.52-37.88 9.71 9.02 1.39 18.04 2.08 27.06 1.94-5.83 3.47-12.07 6.52-18.32 9.02 6.94.42 13.88.83 20.82 1.25-9.58 8.19-25.4 3.19-35.94 9.99 13.32 2.22 26.92 3.33 40.38 3.19-9.58 4.02-19.71 6.52-29.97 7.22 7.35-1.11 14.99-.56 22.06 1.67-16.65 5.97-33.03 12.63-48.85 20.26 23.17.69 46.21 1.39 69.39 2.22-15.68 6.11-32.61 8.05-49.4 9.85 28.86 3.89 57.87 5.83 87.01 5.83-37.47 6.8-75.08 13.6-112.54 20.4 36.91.42 73.97.97 110.88 1.39-36.77 2.36-73.83 4.72-109.63 14.02 10.55 3.33 21.93 3.47 33.03 3.33 35.94-.14 71.75-1.67 107.55-4.58-53.57 7.35-107.27 14.57-160.84 21.93 49.54-1.8 99.08-3.47 148.49-5.27-48.57 15.54-101.03 11.1-151.26 19.98 48.15 1.8 96.31 1.11 144.32-2.08-35.11 4.72-70.22 10.41-105.05 17.21 30.81-.83 61.75-1.67 92.14 3.47-16.93 2.22-33.86 4.44-50.65 6.66-14.29 1.94-28.59 3.75-42.33 8.19 22.62 1.11 45.24 1.8 67.72 2.08-13.32 5.27-27.89 7.08-41.77 10.55-13.88 3.47-28.17 9.16-37.05 20.4 27.34 2.5 55.09.69 81.88-5.55-19.01 3.89-37.75 9.16-55.93 15.82-2.78.97-5.97 2.36-6.94 5.13 14.15.42 28.31.69 42.6 1.11-14.29 3.89-28.73 7.77-43.02 11.66-6.94 1.8-14.02 3.75-20.12 7.63.42 3.19 4.58 4.02 7.91 4.02a628.45 628.45 0 0055.93-2.91c-10.69-.42-21.65 1.67-31.36 6.38 18.73-.42 37.33-.83 56.06-1.25-21.09.28-42.6.69-62.45 7.49 11.52 2.91 23.59 3.47 35.39 1.67 5.13-.83 10.41-2.08 14.85-4.86 4.44-2.78 7.91-7.49 8.19-12.77" id="Layer_6" fill="none" stroke="#27aae1" stroke-width="34" stroke-miterlimit="10" stroke-opacity="0"/><g id="Layer_1_1_"><ellipse transform="rotate(-84.07 585.46 49.513)" class="st2" cx="585.43" cy="49.51" rx="30.81" ry="19.01"/><path class="st3" d="M576.01 20.31s13.04 3.89 22.34 1.53m-24.42.69s17.49 6.11 26.92 3.05m-29.42.98c.14.28 17.9 7.35 32.06 2.78m-28.03 47.87l-2.64 13.32h14.43V79.57"/><path class="st3" d="M589.06 150.2c-1.94 19.57-3.61 36.22-3.61 36.22s-27.06 6.52-46.21 0l18.6-95.89h37.05s-1.94 20.4-4.16 42.33"/><path class="st3" d="M578.09 117.87l24.43 29.14 37.47 10.96 19.7 2.36 3.75 5.55h-26.23l-39.69-6.52-24.7-24.42m29.7 12.07l-5 12.35"/><path class="st3" d="M641.51 158.53l4.17-4.02h2.35v4.44m-108.79 27.47l58.28 30.39-26.78 73.55 5.55 2.08 41.91-83.81-34.42-21.79"/><path class="st3" d="M570.74 290.36l-1.94 5.83 35.66 11.38 1.94-11.93-30.11-3.2m-7.49-90.61l-29.56-3.33-2.5-103.25-10.55 1.94s3.47 116.15 4.72 116.57c1.11.42 56.34-2.36 56.34-2.36"/><path class="st3" d="M530.91 213.76l5.83 87.98h7.91l1.94-87.98m42.6-1.25v27.06m0 26.92v27.34m5.28.7c.56-8.74 1.8-27.06 2.91-44.27m70.22-108.38c14.29-1.25 30.11-1.94 46.77-1.94 10.41 0 20.54.28 30.11.83m54.68 6.38c2.22.42 4.3.97 6.38 1.39m15.82 5.27c6.38 2.91 9.99 6.11 9.99 9.44 0 12.91-52.32 23.31-116.85 23.31s-116.85-10.41-116.85-23.31c0-1.25.56-2.64 1.67-3.89"/><path class="st3" d="M704.1 186.42l5 80.21s-14.99 8.19-13.6 8.19h41.22l-16.79-8.19 4.44-80.07m-129.9-91.59c0 .28 27.75 46.91 27.75 46.91l22.48-.97 3.33-5.27 8.33 6.38-2.64 5.13-4.3-3.19"/><path class="st3" d="M592.25 117.87s24.15 33.17 25.95 33.72c1.8.56 26.64-3.05 26.64-3.05s4.3 1.53 6.8 2.5m0-12.77v-7.36h16.1v23.04h-16.1v-8.46m0-13.88s10.82 5.27 16.1 0"/><ellipse transform="rotate(-5.93 827.625 49.475)" class="st2" cx="827.58" cy="49.47" rx="19.01" ry="30.81"/><path class="st3" d="M837.6 77.21l2.77 13.32h-14.43V79.57m-1.8 70.63c.14 1.8.28 3.47.56 5.13"/><path class="st3" d="M826.08 170.46c.97 9.58 1.53 15.96 1.53 15.96s27.06 6.52 46.21 0l-18.6-95.89h-37.05s1.94 20.4 4.16 42.33"/><path class="st3" d="M834.96 117.87l-24.42 29.14-37.33 10.96-19.71 2.36-3.88 5.55h26.22l39.69-6.52 24.84-24.42m-29.83 12.07l4.99 12.35"/><path class="st3" d="M771.68 158.53l-4.3-4.02h-2.36v4.44m108.8 27.47l-58.29 30.39 26.79 73.55-5.56 2.08-41.77-83.81 34.28-21.79"/><path class="st3" d="M842.32 290.36l2.08 5.83-35.81 11.38-1.94-11.93 30.11-3.2m7.64-90.61l29.56-3.33 2.5-103.25L887 97.19s-3.47 116.15-4.72 116.57c-1.25.42-56.34-2.36-56.34-2.36"/><path class="st3" d="M882.28 213.76l-5.97 87.98h-7.77l-2.08-87.98m-42.6-1.25v27.06m0 26.92v27.34m-5.14.7c-.56-8.74-1.8-27.06-2.91-44.27m2.91-155.29c0 .28-27.75 46.91-27.75 46.91l-22.48-.97-3.47-5.27-8.33 6.38 2.64 5.13 4.3-3.19"/><path class="st3" d="M820.94 117.87s-24.15 33.17-25.95 33.72c-1.8.56-26.64-3.05-26.64-3.05s-4.3 1.53-6.8 2.5m-.14-12.77v-7.36h-15.96v23.04h15.96v-8.46m0-13.88s-10.82 5.27-16.1 0m-58.97 36.63v-11.1l30.11-12.63 15.54 8.05v9.02l-27.2 15.55z"/><path class="st3" d="M686.34 157.14l18.31 8.05 27.34-12.63m-27.34 12.63l.14 11.94"/><path d="M701.05 158.95l16.65-8.89m-6.25 0l4.58 4.45" fill="none" stroke="#000" stroke-miterlimit="10"/></g><path d="M794.86 122.17h-61.34v19.71l-14.85 38.44 7.22 2.36 10.68-5.97 1.8 32.89-22.06 10.68 13.18 75.63-8.46 2.64 9.71 4.58 7.63.14-1.8-59.26 7.36 2.36 54.95-1.39-2.5-79.1zm-170 0h61.34l-.14 19.71 14.99 38.44-7.36 2.36-10.69-5.97-1.8 32.89 22.2 10.68-13.18 75.63 8.47 2.64-9.86 4.58-7.63.14 1.8-59.26-7.35 2.36-54.95-1.39 2.49-79.1z" id="Layer_3" fill="#fff"/><g id="Layer_2_1_"><ellipse class="st3" cx="654.97" cy="87.06" rx="19.01" ry="27.34"/><path class="st3" d="M648.03 112.6l-.97 9.57h12.35v-7.63"/><path class="st3" d="M686.34 122.17s-60.5-.42-61.34 0l-4.02 109.91h59.26l6.1-109.91zm-65.51 124.2l4.58 83.13h7.36v-83.13"/><path class="st3" d="M663.72 246.37l5.27 83.13 9.3-2.36v-80.77l19.29-9.02-.7-10.96-16.79 5.69-1.8 14.29h-57.46v-14.29"/><path class="st3" d="M681.34 209.6l22.2 10.69-14.43 82.85s-7.35 1.67-7.63.28c-.69-2.36 2.5-59.53 2.5-59.53m-36.92 2.48l-1.11 57.04s7.77 1.39 7.35 0c-.56-1.39 5.97-57.04 5.97-57.04"/><path class="st3" d="M689.11 303.13l9.71-4.58-8.74-1.8m-37.47 7.07l12.49-7.07-10.68-2.5m30.94-154.59l15.82 40.66-7.21 2.36-10.69-5.97"/><ellipse class="st3" cx="764.88" cy="87.06" rx="19.01" ry="27.34"/><path class="st3" d="M771.68 112.6l1.11 9.57H760.3v-7.63"/><path class="st3" d="M733.52 122.17s60.5-.42 61.34 0l4.02 109.91h-59.26l-6.1-109.91zm65.36 124.2l-4.44 83.13h-7.49v-83.13"/><path class="st3" d="M756 246.37l-5.27 83.13-9.3-2.36v-80.77l-19.29-9.02.69-10.96 16.79 5.69 1.81 14.29h57.45v-14.29"/><path class="st3" d="M738.37 209.6l-22.2 10.69 14.43 82.85s7.35 1.67 7.63.28c.69-2.36-2.5-59.53-2.5-59.53m37.06 2.48l1.11 57.04s-7.77 1.39-7.35 0c.56-1.39-5.97-57.04-5.97-57.04"/><path class="st3" d="M730.74 303.13l-9.71-4.58 8.6-1.8m37.61 7.07l-12.49-7.07 10.55-2.5m-28.73-117.54l-10.68 5.97-7.22-2.36 15.82-40.66"/></g><g id="Layer_4"><path class="st3" d="M665.8 65.41c1.53-10.69 7.91-18.6 15.26-18.46 8.33.28 14.71 10.69 14.29 23.17S688 92.75 679.67 92.47c-1.8 0-3.47-.56-5-1.53"/><path class="st3" d="M683.28 92.89l-.83 7.22-10.41-.97 1.94-8.6c0-.01 6.11 3.32 9.3 2.35zm-.83 7.22l13.04 1.52 4.72 38.3m108.24-88.95c-2.5-2.64-5.55-4.02-8.88-4.02-8.33.28-14.71 10.69-14.29 23.17s7.49 22.62 15.82 22.48c8.05-.28 14.15-9.99 14.29-21.93"/><path class="st3" d="M797.63 92.89l.83 7.22 10.41-.97-1.94-8.6c0-.01-6.25 3.32-9.3 2.35zm17.9 5.97l-31.36 2.78s-1.25 10.13-2.5 20.12"/></g><path d="M67.59 374.94h1226.1" stroke="#000" fill="none" stroke-width="8" stroke-miterlimit="10"/><ellipse transform="rotate(-8.5 644.085 461.787)" class="st7" cx="644.05" cy="461.84" rx="10.12" ry="14.93"/><ellipse transform="rotate(-86.991 693.255 461.855)" class="st8" cx="693.24" cy="461.85" rx="14.74" ry="9.05"/><ellipse transform="rotate(-1.06 733.666 463.252)" class="st9" cx="732.31" cy="462.41" rx="9.05" ry="14.74"/><ellipse transform="rotate(-3.997 770.285 464.49)" class="st10" cx="769.96" cy="464.31" rx="8.73" ry="13.54"/><path class="st3" d="M643.48 476.14c.44 2.09 1.14 5.06 1.14 5.06l4.43-.19v-5.12m40.37-.38v4.68h4.74l.63-3.99m34.8.13v5.7l4.87.06.95-5.76m32.33.82l.95 3.99 4.68-.25-.19-3.74m-136.84 5.63c1.14 0 22.4-2.85 22.4-2.85l1.33 48.15-17.65 1.14-6.08-46.44zm0 0s-12.4 14.87-14.11 23.66l18.92 13.48m-14.24-10.12s5.82-10.82 10.82-14.55m-5.63 7.02l8.09 10.06m.76 9.68l-8.92-.57 1.77 5.82 7.47-2.59"/><path class="st3" d="M658.73 479.94l13.35 16.26 8.29-13.42 9.93.57.38 4.31-8.92-.32-8.73 17.78-14.11-13.98m13.16 5.06l.95 8.92"/><path class="st3" d="M680.18 483.29c-.13-2.09-.19-3.29-.19-3.29s16.77-.25 23.85 2.85l-4.49 41.63-16.89-1.27s-1.14-20.81-1.83-33.53m-.64-10.06s-.32 2.09-.76 5.12"/><path class="st3" d="M677.65 495.75c-.95 6.2-1.71 11.51-1.71 11.51l2.4 17.08 2.97-1.01.13-18.79m22.4-21.76l6.2 25.37-1.14 17.66-4.24-1.14-.82-15.38-2.21-6.2m2.21 6.2l6.08-1.58m-31.76 16.26l-.7 8.54 2.72 5.32h2.34m22.21-12.91l-1.58 7.15 3.29 8.35 4.23-3.48-1.7-10.88zm15.94-27.65c.25-7.78.44-14.3.38-15.25 0 0 12.53-.25 21.32 1.58 0 0-.19 6.77-.51 14.93m-20.81-16.44s-3.42 7.4-6.14 13.35m-.88 1.9c-1.46 3.23-2.59 5.63-2.59 5.63s7.59 8.35 25.5 1.64"/><path class="st3" d="M741.99 483.48s6.58 12.97 7.28 23.85l-26.95-5.95-6.07.95-3.1-7.02 9.17 1.9 22.14 1.14"/><path class="st3" d="M741.99 494.62l-4.3-1.4-4.37 4.5m8.29 8.47c-.32 10.69-.7 21.13-.7 21.13l-21.32-.7s.38-9.74.7-20.18m42.2-24.29l17.08-1.96s5.06 31.13 2.09 47.13l-19.17.76s4.37-33.02 0-45.93z"/><path class="st3" d="M762.49 482.78s-13.73 16.58-4.49 48.15l3.35-1.71s-3.29-23.35 3.04-29.74m-9.3 4.69l6.14 3.1m18.41-27.08s11.83 10.06 16.01 17.53l-12.97 19.04m-1.46-24.61l10.88 10.75m-5.76-5.18l-4.05 6.83"/><path class="st3" d="M757.56 530.93l.5 8.8 3.8 5.75h2.28l-1.4-14.55-1.39-2.02zm25.11-9.55s4.81 1.83 5 1.71c.13-.13 7.97-4.49 7.97-4.49l-4.11-4.37-8.86 2.72m-140.32 12.27l3.98 62.26h2.72l1.96-62.26 6.01 62.26h3.04v-63.4m22.33-4.99v64.97h5.07l3.85-58.84"/><path class="st3" d="M699.35 524.35l3.92 65.36-3.92.82-8.73-66.56m91.04 3.35s4.68 34.1 5.95 67.44h-3.29l-11.77-66.68m-51.88-1.45l1.77 63.01h3.73l4.43-62.32m10.32 0v62.32h-3.99l-5.44-62.32"/><path class="st3" d="M762.49 528.08l5.63 60.55h4.43l.51-57.7m-127.11 61.12l-14.11 8.1 14.11 5.94 3.86-13.54zm10.63 0l1.9 15.24 11.26-6.95-8.86-8.29zm25.81-3.42l-9.3 8.54 10.7 3.8 4.17-12.34zm15.82 2.28l6.01-1.27 8.86 9.43-11.39 4.87zm24.49-.76l-9.05 6.64 9.93 5.51 3.54-11.77zm14.23 0h4.62l13.22 6.64-8.35 6.33zm31.57-.95c-.25 0-12.97 5.06-12.97 5.06l8.54 5.12 8.98-10.19h-4.55zm15.63 5.57l4.68.31 11.64 6.14-10.37 4.18z"/><ellipse transform="rotate(-81.32 1311.039 459.881)" class="st7" cx="1311.01" cy="459.84" rx="14.93" ry="10.2"/><ellipse transform="rotate(-3.032 1262.77 459.714)" class="st8" cx="1261.46" cy="459.85" rx="9.11" ry="14.74"/><ellipse transform="rotate(-88.923 1222.073 460.448)" class="st9" cx="1222.1" cy="460.41" rx="14.74" ry="9.11"/><ellipse transform="rotate(-85.929 1184.163 462.289)" class="st10" cx="1184.17" cy="462.31" rx="13.54" ry="8.8"/><path class="st3" d="M1311.58 474.14c-.45 2.09-1.15 5.06-1.15 5.06l-4.46-.19v-5.12m-40.66-.38v4.68h-4.78l-.64-3.99m-35.05.13v5.7l-4.91.06-.96-5.76m-32.57.82l-.95 3.99-4.72-.25.19-3.74m137.87 5.63c-1.15 0-22.56-2.85-22.56-2.85l-1.34 48.15 17.78 1.14 6.12-46.44zm0 0s12.49 14.87 14.21 23.66l-19.06 13.48m14.34-10.12s-5.86-10.82-10.9-14.55m5.68 7.02l-8.16 10.06m-.77 9.68l8.99-.57-1.78 5.82-7.53-2.59"/><path class="st3" d="M1296.22 477.94l-13.45 16.26-8.34-13.42-10.01.57-.38 4.31 8.98-.32 8.8 17.78 14.21-13.98m-13.26 5.06l-.95 8.92"/><path class="st3" d="M1274.62 481.29c.13-2.09.19-3.29.19-3.29s-16.89-.25-24.03 2.85l4.53 41.63 17.02-1.27s1.15-20.81 1.85-33.53m.63-10.06s.32 2.09.76 5.12"/><path class="st3" d="M1277.17 493.75c.96 6.2 1.72 11.51 1.72 11.51l-2.42 17.08-3-1.01-.13-18.79m-22.56-21.76l-6.25 25.37 1.15 17.66 4.27-1.14.83-15.38 2.23-6.2m-2.23 6.2l-6.12-1.58m32 16.26l.7 8.54-2.74 5.32h-2.36m-22.37-12.91l1.59 7.15-3.31 8.35-4.28-3.48 1.73-10.88zm-16.07-27.65c-.25-7.78-.45-14.3-.38-15.25 0 0-12.62-.25-21.48 1.58 0 0 .19 6.77.51 14.93m20.97-16.44s3.44 7.4 6.18 13.35m.9 1.9c1.47 3.23 2.61 5.63 2.61 5.63s-7.65 8.35-25.69 1.64"/><path class="st3" d="M1212.34 481.48s-6.63 12.97-7.33 23.85l27.15-5.95 6.12.95 3.12-7.02-9.24 1.9-22.31 1.14"/><path class="st3" d="M1212.34 492.62l4.34-1.4 4.4 4.5m-8.35 8.47c.32 10.69.7 21.13.7 21.13l21.48-.7s-.38-9.74-.7-20.18m-42.52-24.29l-17.21-1.96s-5.1 31.13-2.1 47.13l19.31.76s-4.39-33.02 0-45.93z"/><path class="st3" d="M1191.69 480.78s13.83 16.58 4.53 48.15l-3.38-1.71s3.31-23.35-3.06-29.74m9.37 4.69l-6.18 3.1m-18.55-27.08s-11.92 10.06-16.13 17.53l13.07 19.04m1.47-24.61l-10.97 10.75m5.8-5.18l4.08 6.83"/><path class="st3" d="M1196.67 528.93l-.51 8.8-3.83 5.75h-2.29l1.4-14.55 1.4-2.02zm-25.31-9.55s-4.84 1.83-5.04 1.71c-.13-.13-8.03-4.49-8.03-4.49l4.14-4.37 8.92 2.72m141.38 12.27l-4.01 62.26h-2.74l-1.98-62.26-6.06 62.26h-3.06v-63.4m-22.49-4.99v64.97h-5.1l-3.89-58.84"/><path class="st3" d="M1255.3 522.35l-3.95 65.36 3.95.82 8.8-66.56m-91.72 3.35s-4.72 34.1-5.99 67.44h3.31l11.86-66.68m52.26-1.45s-.89 31.7-1.78 63.01h-3.76l-4.46-62.32m-10.39 0v62.32h4.01l5.48-62.32"/><path class="st3" d="M1191.69 526.08l-5.67 60.55h-4.46l-.51-57.7m128.05 61.12l14.21 8.1-14.21 5.94-3.89-13.54zm-10.71 0l-1.91 15.24-11.35-6.95 8.93-8.29zm-26-3.42l9.36 8.54-10.77 3.8-4.2-12.34zm-15.94 2.28l-6.05-1.27-8.93 9.43 11.48 4.87zm-24.67-.76l9.12 6.64-10.01 5.51-3.57-11.77zm-14.34 0h-4.65l-13.32 6.64 8.41 6.33zm-31.8-.95c.25 0 13.07 5.06 13.07 5.06l-8.6 5.12-9.05-10.19h4.58zm-15.74 5.57l-4.72.31-11.73 6.14 10.45 4.18z"/><ellipse transform="rotate(-5.253 1041.592 466.56)" class="st10" cx="1041.75" cy="466.31" rx="9.64" ry="13.55"/><path class="st3" d="M1039.3 479.15l1.05 3.99 5.17-.25-.21-3.74m-11.81 5l18.88-1.96s5.59 31.13 2.31 47.13l-21.19.76s4.82-33.02 0-45.93z"/><path class="st3" d="M1033.5 484.78s-15.17 16.58-4.96 48.15l3.71-1.71s-3.64-23.35 3.36-29.74m-10.3 4.69l6.79 3.1m20.35-27.08s13.08 10.06 17.69 17.53l-14.33 19.04m-1.62-24.61l12.03 10.75m-6.36-5.18l-4.48 6.83"/><path class="st3" d="M1028.04 532.93l.56 8.8 4.2 5.75h2.51l-1.53-14.55-1.54-2.02zm27.76-9.55s5.31 1.83 5.52 1.71c.14-.13 8.81-4.49 8.81-4.49l-4.55-4.37-9.79 2.72m-1.11 10.37s5.17 34.1 6.57 67.44h-3.64l-13.01-66.68"/><path class="st3" d="M1033.5 530.08l6.22 60.55h4.89l.56-57.7m-5.03 58.27c-.28 0-14.33 5.06-14.33 5.06l9.44 5.12 9.93-10.19h-5.04zm17.27 5.57l5.17.31 12.87 6.14-11.47 4.18z"/><ellipse transform="rotate(-86.003 480.81 461.678)" class="st10" cx="480.84" cy="461.69" rx="13.69" ry="8.83"/><ellipse transform="rotate(-86.991 518.717 461.667)" class="st8" cx="518.71" cy="461.66" rx="14.91" ry="9.15"/><ellipse transform="rotate(-1.06 559.316 463.045)" class="st9" cx="558.25" cy="462.18" rx="9.15" ry="14.91"/><ellipse transform="rotate(-3.997 596.54 464.253)" class="st10" cx="596.33" cy="464.1" rx="8.83" ry="13.69"/><path class="st3" d="M477.58 474.72l-.2 3.78 4.74.25.96-4.03m5.31 51.51l-19.39-.77c-3.01-16.19 2.11-47.67 2.11-47.67l17.27 1.98c-4.41 13.06.01 46.46.01 46.46z"/><path class="st3" d="M486.47 497.31c6.4 6.46 3.07 30.07 3.07 30.07l3.39 1.73c9.34-31.93-4.54-48.69-4.54-48.69m1.28 24.76l6.2-3.14m-27.89 12.73l-13.12-19.26c4.22-7.55 16.19-17.72 16.19-17.72m-12.6 22.97l11-10.88m-1.09 12.54l-4.09-6.91"/><path class="st3" d="M489.54 527.06l-1.41 2.04-1.41 14.72h2.31l3.84-5.82.51-8.9zm-21.56-12.1l-8.96-2.75-4.16 4.41s7.93 4.41 8.06 4.54c.19.13 5.05-1.73 5.05-1.73m10.25 6.8l-11.9 67.44h-3.33c1.28-33.72 6.01-68.2 6.01-68.2"/><path class="st3" d="M477.7 529.1l.52 58.35h4.47l5.7-61.22m-10.69 61.8l9.09 10.3 8.64-5.18s-12.86-5.12-13.12-5.12h-4.61zm-17.21 16.38L450 600.19l11.77-6.21 4.74-.32zm54.39-128.99v4.74h4.79l.64-4.03m35.19.13v5.75l4.93.07.96-5.82m32.69.83l.96 4.03 4.74-.26-.19-3.77"/><path class="st3" d="M505.54 483.29c-.13-2.11-.19-3.33-.19-3.33s16.95-.26 24.12 2.88l-4.54 42.1-17.08-1.28c-.01.01-1.61-27.51-2.31-40.37m-.2-3.71s-.32 2.11-.77 5.18"/><path class="st3" d="M504.58 484.77c-.96 6.27-3.33 22.78-3.33 22.78l2.43 17.27 3.01-1.02.13-19m22.64-22.02l6.27 25.66-1.15 17.85-4.28-1.15-.84-15.55-2.24-6.27m2.24 6.27l6.15-1.6m-32.12 16.44l-.71 8.64 2.76 5.38h2.36m22.46-13.06l-1.6 7.23 3.33 8.45 4.28-3.52-1.72-11zm16.12-27.96c.26-7.87.45-14.46.38-15.42 0 0 12.67-.26 21.56 1.6 0 0-.19 6.85-.51 15.1m-21.04-16.63s-3.45 7.49-6.21 13.5m-.9 1.92c-1.47 3.26-2.62 5.69-2.62 5.69s7.68 8.45 25.78 1.66"/><path class="st3" d="M568.04 483.49s6.65 13.12 7.36 24.12l-27.26-6.01-6.14.96-3.14-7.1 9.28 1.92 22.39 1.15"/><path class="st3" d="M568.04 494.75l-4.35-1.41-4.41 4.54m8.38 8.58c-.32 10.81-.7 21.37-.7 21.37l-21.56-.7s.38-9.85.7-20.41m42.67-24.58l17.27-1.98s5.12 31.48 2.11 47.67l-19.39.77c.01-.01 4.43-33.41.01-46.46z"/><path class="st3" d="M588.77 482.78s-13.88 16.76-4.54 48.69l3.39-1.73s-3.33-23.61 3.07-30.07m-9.4 4.74l6.2 3.13m18.62-27.38s11.96 10.17 16.19 17.72l-13.12 19.26m-1.47-24.89l11.01 10.88m-5.83-5.25l-4.09 6.91"/><path class="st3" d="M583.78 531.47l.52 8.9 3.83 5.82h2.31l-1.41-14.72-1.41-2.05zm25.4-9.66s4.86 1.86 5.05 1.73c.13-.13 8.06-4.54 8.06-4.54l-4.16-4.41-8.96 2.75m-101.4 6.2v65.71h5.12l3.91-59.51"/><path class="st3" d="M524.92 524.82l3.97 66.09-3.97.83-8.83-67.31m92.07 3.4s4.73 34.49 6.01 68.2h-3.33l-11.9-67.44m-52.46-1.47l1.79 63.72h3.77l4.48-63.02m10.44.01v63.02h-4.03l-5.51-63.02"/><path class="st3" d="M588.77 528.59l5.7 61.23h4.48l.51-58.35m-91.69 58.35l-9.4 8.64 10.81 3.84 4.22-12.48zm16 2.31l6.08-1.28 8.96 9.53-11.52 4.93zm24.76-.77l-9.15 6.72 10.05 5.56 3.58-11.9zm14.4 0h4.67l13.37 6.72-8.45 6.39zm31.92-.96c-.26 0-13.12 5.12-13.12 5.12l8.64 5.18 9.09-10.3h-4.61zm15.81 5.63l4.73.32 11.77 6.2-10.49 4.23z"/><ellipse transform="rotate(-86.003 835.009 464.065)" class="st10" cx="835.05" cy="464.08" rx="13.75" ry="8.87"/><ellipse transform="rotate(-86.991 873.1 464.05)" class="st8" cx="873.08" cy="464.04" rx="14.97" ry="9.19"/><ellipse transform="rotate(-1.06 914.538 465.428)" class="st9" cx="912.8" cy="464.56" rx="9.19" ry="14.97"/><ellipse transform="rotate(-3.997 951.37 466.644)" class="st10" cx="951.04" cy="466.49" rx="8.87" ry="13.75"/><path class="st3" d="M831.78 477.16l-.2 3.79 4.76.26.96-4.05m5.34 51.72l-19.47-.77c-3.02-16.26 2.12-47.87 2.12-47.87l17.35 1.99c-4.44 13.11 0 46.65 0 46.65z"/><path class="st3" d="M840.71 499.84c6.43 6.49 3.08 30.2 3.08 30.2l3.41 1.73c9.38-32.06-4.56-48.9-4.56-48.9m1.28 24.87l6.23-3.14m-28.01 12.78l-13.17-19.34c4.24-7.58 16.26-17.8 16.26-17.8m-12.66 23.07l11.05-10.92m-1.1 12.59l-4.11-6.94"/><path class="st3" d="M843.79 529.72l-1.41 2.05-1.41 14.78h2.31l3.85-5.84.52-8.94zm-21.65-12.15l-9-2.76-4.18 4.43s7.97 4.43 8.1 4.56c.19.13 5.08-1.73 5.08-1.73m10.28 6.81l-11.95 67.72h-3.34c1.29-33.86 6.04-68.49 6.04-68.49"/><path class="st3" d="M831.91 531.77l.51 58.6h4.5l5.72-61.49m-10.73 62.07l9.12 10.34 8.67-5.2s-12.91-5.14-13.17-5.14h-4.62zm-17.29 16.45l-10.54-4.24 11.83-6.23 4.75-.32zm54.62-129.53v4.75h4.82l.64-4.05m35.34.13v5.78l4.94.07.97-5.85m32.83.84l.97 4.04 4.75-.25-.19-3.79"/><path class="st3" d="M859.86 485.77c-.13-2.12-.19-3.34-.19-3.34s17.03-.26 24.22 2.89l-4.56 42.28-17.16-1.29s-1.61-27.63-2.31-40.54m-.2-3.73s-.32 2.12-.77 5.2"/><path class="st3" d="M858.89 487.25c-.96 6.3-3.34 22.87-3.34 22.87l2.44 17.35 3.02-1.03.13-19.08m22.75-22.1l6.29 25.76-1.15 17.93-4.31-1.16-.83-15.61-2.25-6.3m2.25 6.3l6.16-1.61m-32.25 16.51l-.71 8.68 2.77 5.4h2.37m22.56-13.11l-1.61 7.26 3.34 8.48 4.31-3.53-1.74-11.06zm16.19-28.08c.26-7.9.45-14.52.39-15.48 0 0 12.72-.26 21.65 1.61 0 0-.19 6.88-.51 15.16m-21.15-16.71s-3.47 7.52-6.23 13.56m-.9 1.92c-1.48 3.28-2.63 5.72-2.63 5.72s7.71 8.48 25.89 1.67"/><path class="st3" d="M922.63 485.96s6.68 13.17 7.39 24.22l-27.37-6.04-6.17.96-3.15-7.13 9.32 1.93 22.49 1.16"/><path class="st3" d="M922.63 497.27l-4.37-1.41-4.43 4.56m8.41 8.61c-.32 10.86-.71 21.46-.71 21.46l-21.65-.71s.39-9.89.71-20.5m42.86-24.67l17.35-1.99s5.14 31.61 2.12 47.87l-19.47.77s4.43-33.54 0-46.65z"/><path class="st3" d="M943.45 485.26s-13.94 16.83-4.56 48.9l3.41-1.73s-3.34-23.71 3.08-30.2m-9.45 4.74l6.23 3.15m18.7-27.5s12.02 10.22 16.26 17.8l-13.17 19.34m-1.48-25l11.05 10.93m-5.85-5.27l-4.11 6.94"/><path class="st3" d="M938.44 534.15l.51 8.93 3.86 5.85h2.31l-1.41-14.78-1.42-2.05zm25.5-9.7s4.88 1.86 5.08 1.73c.13-.13 8.1-4.56 8.1-4.56l-4.18-4.43-9 2.76m-101.84 6.23v65.99h5.14l3.92-59.75"/><path class="st3" d="M879.32 527.47l3.99 66.37-3.99.84-8.86-67.6m92.46 3.41s4.75 34.63 6.04 68.49h-3.34l-11.95-67.72m-52.69-1.48s.9 32.19 1.8 64h3.79l4.5-63.29m10.47 0v63.29h-4.05l-5.53-63.29"/><path class="st3" d="M943.45 531.26l5.72 61.49h4.49l.52-58.6m-92.08 58.6l-9.44 8.67 10.86 3.86 4.24-12.53zm16.07 2.31l6.1-1.28 9 9.57-11.57 4.95zm24.86-.77l-9.18 6.75 10.08 5.59 3.6-11.95zm14.46 0h4.69l13.43 6.75-8.48 6.42zm32.06-.96c-.26 0-13.17 5.14-13.17 5.14l8.67 5.2 9.12-10.34h-4.62zm15.87 5.65l4.76.32 11.82 6.24-10.54 4.24z"/><ellipse transform="rotate(-86.003 85.914 460.622)" class="st10" cx="85.92" cy="460.64" rx="13.74" ry="8.86"/><ellipse transform="rotate(-86.991 123.961 460.611)" class="st8" cx="123.96" cy="460.6" rx="14.96" ry="9.18"/><ellipse transform="rotate(-1.06 163.953 462.02)" class="st9" cx="163.63" cy="461.13" rx="9.18" ry="14.96"/><ellipse transform="rotate(-3.997 201.91 463.203)" class="st10" cx="201.84" cy="463.06" rx="8.86" ry="13.74"/><path class="st3" d="M82.67 473.72l-.19 3.79 4.75.25.96-4.04m5.33 51.68l-19.45-.77c-3.02-16.24 2.12-47.83 2.12-47.83l17.34 1.99c-4.44 13.1-.01 46.61-.01 46.61z"/><path class="st3" d="M91.6 496.38c6.42 6.48 3.08 30.18 3.08 30.18l3.4 1.73c9.37-32.04-4.56-48.86-4.56-48.86m1.29 24.85l6.23-3.15m-28 12.78l-13.16-19.33c4.24-7.58 16.24-17.78 16.24-17.78m-12.64 23.05l11.04-10.92m-1.09 12.59l-4.11-6.94"/><path class="st3" d="M94.68 526.24l-1.41 2.05-1.42 14.77h2.32l3.85-5.84.51-8.93zM73.04 514.1l-8.99-2.76-4.17 4.43s7.96 4.43 8.09 4.56c.19.13 5.07-1.73 5.07-1.73m10.27 6.8l-11.94 67.67h-3.34c1.28-33.84 6.04-68.44 6.04-68.44"/><path class="st3" d="M82.8 528.29l.51 58.56h4.5l5.71-61.45M82.8 587.43l9.12 10.34 8.67-5.2s-12.91-5.14-13.16-5.14H82.8zm-17.27 16.43L55 599.62l11.81-6.22 4.75-.32zm54.57-129.44v4.76h4.82l.64-4.05m35.31.13v5.78l4.95.06.96-5.84m32.81.83l.96 4.05 4.75-.26-.19-3.79"/><path class="st3" d="M110.73 482.32c-.13-2.12-.19-3.34-.19-3.34s17.01-.26 24.21 2.89l-4.56 42.25-17.14-1.28c-.01 0-1.61-27.61-2.32-40.52m-.19-3.72s-.32 2.12-.77 5.2"/><path class="st3" d="M109.77 483.8c-.96 6.29-3.34 22.86-3.34 22.86l2.44 17.34 3.02-1.03.13-19.07m22.72-22.09l6.29 25.74-1.15 17.92-4.3-1.16-.84-15.6-2.24-6.29m2.24 6.29l6.17-1.61m-32.23 16.51l-.71 8.66 2.76 5.4h2.38m22.53-13.1l-1.6 7.25 3.34 8.48 4.3-3.53-1.74-11.05zm16.18-28.06c.26-7.9.45-14.51.39-15.47 0 0 12.71-.26 21.64 1.61 0 0-.19 6.87-.51 15.15m-21.13-16.7s-3.47 7.51-6.23 13.55m-.9 1.93c-1.48 3.27-2.63 5.71-2.63 5.71s7.7 8.48 25.87 1.67"/><path class="st3" d="M173.46 482.51s6.68 13.16 7.38 24.21l-27.35-6.04-6.16.96-3.15-7.13 9.31 1.93 22.47 1.16"/><path class="st3" d="M173.46 493.81l-4.37-1.41-4.43 4.56m8.41 8.6c-.32 10.85-.71 21.44-.71 21.44l-21.64-.71s.39-9.89.71-20.48m42.83-24.64l17.34-1.99s5.14 31.59 2.12 47.83l-19.45.77c-.01 0 4.42-33.52-.01-46.61z"/><path class="st3" d="M194.26 481.81s-13.93 16.82-4.56 48.86l3.4-1.73s-3.34-23.69 3.08-30.18m-9.43 4.75l6.23 3.15m18.68-27.48s12.01 10.21 16.24 17.78l-13.16 19.33m-1.47-24.98l11.04 10.92m-5.84-5.27l-4.11 6.93"/><path class="st3" d="M189.25 530.67l.52 8.92 3.85 5.85h2.31l-1.41-14.77-1.41-2.06zm25.49-9.7s4.88 1.86 5.07 1.73c.13-.13 8.09-4.56 8.09-4.56l-4.17-4.43-8.99 2.76m-101.76 6.24v65.94h5.13l3.92-59.72"/><path class="st3" d="M130.18 523.99l3.98 66.32-3.98.84-8.86-67.54m92.4 3.4s4.75 34.61 6.04 68.44h-3.34l-11.94-67.67m-52.66-1.48s.9 32.17 1.8 63.95h3.79l4.49-63.24m10.47 0v63.24h-4.05l-5.52-63.24m31.46.77l5.72 61.44h4.49l.51-58.55m-92 58.55l-9.44 8.67 10.85 3.85 4.24-12.52zm16.05 2.31l6.1-1.28 8.99 9.57-11.56 4.94z"/><ellipse transform="rotate(-86.991 1098.981 465.612)" class="st8" cx="1098.96" cy="465.6" rx="14.96" ry="9.18"/><path class="st3" d="M1095.1 479.42v4.76h4.82l.64-4.05"/><path class="st3" d="M1085.73 487.32c-.13-2.12-.19-3.34-.19-3.34s17.01-.26 24.21 2.89l-4.56 42.25-17.14-1.28c-.01 0-1.61-27.61-2.32-40.52m-.19-3.72s-.32 2.12-.77 5.2"/><path class="st3" d="M1084.77 488.8c-.96 6.29-3.34 22.86-3.34 22.86l2.44 17.34 3.02-1.03.13-19.07m22.72-22.09l6.29 25.74-1.15 17.92-4.3-1.16-.84-15.6-2.24-6.29m2.24 6.29l6.17-1.61m-32.23 16.51l-.71 8.66 2.76 5.4h2.38m22.53-13.1l-1.6 7.25 3.34 8.48 4.3-3.53-1.74-11.05z"/><path class="st3" d="M1087.98 527.71v65.94h5.13l3.92-59.72"/><path class="st3" d="M1105.18 528.99l3.98 66.32-3.98.84-8.86-67.54m-8.34 65.61l-9.44 8.67 10.85 3.85 4.24-12.52zm16.05 2.31l6.1-1.28 8.99 9.57-11.56 4.94z"/><ellipse transform="rotate(-3.061 1139.592 463.287)" class="st8" cx="1140.43" cy="463.6" rx="9.25" ry="14.96"/><path class="st3" d="M1144.31 477.42v4.76h-4.85l-.65-4.05"/><path class="st3" d="M1153.75 485.32c.13-2.12.19-3.34.19-3.34s-17.14-.26-24.39 2.89l4.59 42.25 17.27-1.28c.02 0 1.63-27.61 2.34-40.52m.2-3.72s.32 2.12.78 5.2"/><path class="st3" d="M1154.73 486.8c.97 6.29 3.36 22.86 3.36 22.86l-2.46 17.34-3.04-1.03-.13-19.07m-22.9-22.09l-6.34 25.74 1.17 17.92 4.33-1.16.84-15.6 2.27-6.29m-2.27 6.29l-6.21-1.61m32.47 16.51l.72 8.66-2.79 5.4h-2.39m-22.7-13.1l1.61 7.25-3.36 8.48-4.34-3.53 1.75-11.05z"/><path class="st3" d="M1151.49 525.71v65.94h-5.17l-3.95-59.72"/><path class="st3" d="M1134.15 526.99l-4.01 66.32 4.01.84 8.93-67.54m8.41 65.61l9.51 8.67-10.93 3.85-4.27-12.52zm-16.17 2.31l-6.15-1.28-9.05 9.57 11.64 4.94zm-981.44-3.77l-9.19 6.75 10.08 5.58 3.6-11.94zm14.44 0h4.69l13.42 6.75-8.48 6.42zm32.04-.96c-.26 0-13.16 5.14-13.16 5.14l8.67 5.2 9.12-10.34h-4.63zm15.86 5.65l4.75.32 11.81 6.23-10.53 4.24z"/><ellipse transform="rotate(-8.5 249.262 460.665)" class="st7" cx="249.23" cy="460.69" rx="10.27" ry="15.15"/><ellipse transform="rotate(-86.991 299.183 460.685)" class="st8" cx="299.18" cy="460.67" rx="14.96" ry="9.18"/><ellipse transform="rotate(-1.06 339.422 462.118)" class="st9" cx="338.78" cy="461.26" rx="9.18" ry="14.96"/><ellipse transform="rotate(-3.997 377.214 463.358)" class="st10" cx="377.07" cy="463.19" rx="8.86" ry="13.74"/><path class="st3" d="M248.71 475.19c.45 2.12 1.16 5.14 1.16 5.14l4.49-.19v-5.2m40.96-.39v4.75h4.82l.64-4.04m35.31.13v5.78l4.94.06.97-5.84m32.81.83l.96 4.05 4.75-.26-.26-3.79m-138.81 5.72c1.16 0 22.73-2.89 22.73-2.89l1.35 48.86-17.91 1.16-6.17-47.13zm0 0s-12.58 15.09-14.32 24.01l19.2 13.68m-14.44-10.28s5.91-10.98 10.98-14.77m-5.72 7.13l8.22 10.21m.77 9.82l-9.05-.57 1.79 5.9 7.58-2.63"/><path class="st3" d="M264.18 479.05l13.48 16.5 8.48-13.61 10.08.57.38 4.37-9.05-.32-8.86 18.04-14.32-14.19m13.29 5.14l1.03 9.05"/><path class="st3" d="M285.95 482.45c-.13-2.12-.19-3.34-.19-3.34s17.01-.26 24.21 2.89l-4.56 42.25-17.14-1.28s-1.16-21.12-1.86-34.03m-.66-10.21s-.32 2.12-.77 5.2"/><path class="st3" d="M283.38 495.1c-.96 6.29-1.73 11.69-1.73 11.69l2.44 17.34 3.02-1.03.13-19.07m22.72-22.09l6.23 25.74-1.09 17.92-4.31-1.16-.83-15.6-2.25-6.29m2.25 6.29l6.16-1.61m-32.23 16.5l-.7 8.67 2.76 5.39h2.37m22.54-13.09l-1.61 7.25 3.34 8.48 4.24-3.53-1.67-11.05zm16.18-28.06c.26-7.9.45-14.51.39-15.47 0 0 12.71-.26 21.64 1.61 0 0-.19 6.87-.51 15.15m-21.14-16.7s-3.47 7.51-6.23 13.55m-.89 1.92c-1.48 3.27-2.63 5.71-2.63 5.71s7.7 8.48 25.87 1.67"/><path class="st3" d="M348.67 482.64s6.68 13.16 7.38 24.21l-27.35-6.04-6.16.96-3.15-7.13 9.31 1.93 22.47 1.16"/><path class="st3" d="M348.67 493.94l-4.36-1.41-4.43 4.56m8.41 8.6c-.32 10.85-.71 21.44-.71 21.44l-21.64-.71s.39-9.89.71-20.48m42.83-24.65l17.34-1.99s5.14 31.59 2.12 47.83l-19.45.77c-.01.01 4.42-33.51-.01-46.61z"/><path class="st3" d="M369.48 481.94s-13.93 16.82-4.56 48.86l3.4-1.73s-3.34-23.69 3.08-30.18m-9.44 4.75l6.23 3.14m18.62-27.48s12.01 10.21 16.24 17.78l-13.16 19.33m-1.41-24.97l11.04 10.91m-5.84-5.26l-4.11 6.93"/><path class="st3" d="M364.47 530.8l.51 8.92 3.85 5.84h2.32l-1.42-14.76-1.41-2.06zm25.49-9.7s4.88 1.86 5.07 1.73c.13-.13 8.09-4.56 8.09-4.56l-4.17-4.43-8.99 2.76m-142.47 12.46l4.11 63.18h2.76l1.99-63.18 6.1 63.18h3.01v-64.33m22.73-5.07v65.93h5.14l3.92-59.71"/><path class="st3" d="M305.4 524.12l3.98 66.32-3.98.84-8.86-67.55m92.39 3.41s4.75 34.61 6.04 68.44h-3.34l-12.01-67.67m-52.58-1.48s.9 32.17 1.8 63.95h3.79l4.49-63.24m10.46 0v63.24h-4.04l-5.52-63.24"/><path class="st3" d="M369.48 527.91l5.71 61.44h4.43l.58-58.55m-128.99 62.02l-14.32 8.22 14.32 6.03 3.92-13.74zm10.79 0l1.92 15.47 11.43-7.06-8.99-8.41zm26.19-3.47l-9.43 8.67 10.85 3.85 4.23-12.52zm16.05 2.31l6.1-1.28 8.99 9.57-11.55 4.94zm24.79-.77l-9.12 6.74 10.08 5.59 3.53-11.94zm14.51 0h4.68l13.42 6.74-8.47 6.42zm32.04-.96c-.26 0-13.16 5.14-13.16 5.14l8.67 5.2 9.12-10.34h-4.63zm15.86 5.65l4.75.32 11.81 6.23-10.53 4.24z"/><g id="Layer_2_2_"><path class="st0" d="M999.1 454.71s5.41 19.87-10.06 27.33c0 0 11.41 1.2 13.86-11.22 2.45-12.42-3.89-16.96-3.89-16.96m1.19 30.92l1.69 41.63s-14.87 6-14.2 6c.68-.09 11.83-1.28 15.55-2.4 0 0-1.18 55.6 1.86 65.88.34 1.03 5.58 12.76 5.58 12.76l7.01-4.28-10.73-8.48s2.28-39.06 2.28-44.12c0-4.97-1.18-23.39-1.18-23.39l-2.96-44.37-4.9.77z"/><path class="st0" d="M990.99 532.32l-.68 63.56-9.29 10.54s9.13 5.31 9.29 4.97c.17-.26 2.2-15.68 2.2-15.68l2.79-63.48h-4.31v.09zm14.7-43.26l10.06 9.43-8.45 18.84-.09-6.25 4.9-13.11-6.16-4.02z"/></g><g id="Layer_1_2_"><ellipse transform="rotate(-74.342 993.098 467.892)" class="st10" cx="993.14" cy="467.89" rx="14.72" ry="10.24"/><path class="st3" d="M990.14 453s5.24 4.2 13.18 4.97m-15.63-3.09s7.52 5.65 16.22 6.08m-18.33-3.51s11.83 7.02 18.34 6.17m-14.87 18.33l1.77 3.94 4.65-.68v-4.63m-15.04 7.28l24.67-3.85 2.96 44.29s-15.38 6.68-25.18 2.74l-2.45-43.18zm0 0s-7.69 10.11-11.75 15.85l13.1 19.87-5.15 3.94 1.77 1.63 4.14-.86m-1.52-29.8l-9.13 10.02m5.16-5.65c-.25.26 4.9 11.99 4.9 11.99"/><path class="st3" d="M1005.1 484.01s11.32 7.71 15.63 14.39l-12.76 22.02 6.42 3.34-1.94 2.57-4.65-.86m-2.11-32.21c0 .09 8.62 5.4 12 10.37m-5.32-5.14c0 .69-5.41 13.53-5.41 13.53m-21.55 19.79s.84 50.54 3.46 63.9h3.63l2.79-63.48m1.95-.68l6.42 64.16h3.55s3.97-51.4.76-67.42m-15.88 67.6l-2.62 12.85-8.79-4.72 9.21-8.13m16.98-.09l8.88 6.25-7.61 4.8-4.48-11.05"/></g><path class="st11" d="M985.41 455.14c7.69-.17 15.46.26 23.15 1.28-7.52 1.54-14.87 3.68-22.05 6.25 7.27.51 14.53 1.11 21.88 1.63-8.11 2.74-16.22 5.4-24.34 8.14 7.69-.09 15.46.17 23.15.77-7.6 2.48-15.21 4.97-22.81 7.45-1.44.43-3.21 1.63-2.7 3.08.42 1.03 1.69 1.2 2.79 1.2 7.69.26 15.38.43 23.07.69-4.39 1.54-8.7 3.17-13.1 4.71-2.2.77-4.56 1.63-6.17 3.34 10.39 0 20.87.43 31.26 1.28-10.39 1.03-20.62 3.68-30.33 7.62 8.96 1.46 18.08 1.8 27.12 1.11l-29.91 6.42c9.29.94 18.59 1.97 27.88 2.91a177.788 177.788 0 00-31.77 14.56c9.29-1.11 18.76-1.46 28.14-1.03-10.73 2.31-21.72 4.8-31.26 10.37 11.07-.26 22.14-1.2 33.12-3-9.89 3.34-19.77 7.02-29.41 11.05 9.8-.51 19.52-1.03 29.32-1.54a127.74 127.74 0 00-24.84 11.22c7.94.34 15.89.69 23.74-.26-8.53 3-16.73 6.6-24.67 10.88 8.79-.34 17.58-.6 26.36-.94-9.72 3-19.18 6.42-28.56 10.28 8.53-.26 17.07-.6 25.6-.86-9.46 1.8-18.76 5.05-27.29 9.59 9.13.43 18.34.77 27.46 1.2-5.58 1.88-11.15 3.77-16.82 5.65-3.04 1.03-6.17 2.06-8.37 4.37 12.34.09 24.67.09 36.93.17-12.76 3.51-25.94 5.14-39.04 6.77 10.82 1.71 21.8 2.31 32.7 1.63-7.69 2.23-15.63 3.51-23.66 3.94-5.15.26-10.73.26-14.79 3.51 14.36.86 28.9-.6 42.84-4.45" id="Layer_3_1_"/><g id="Layer_2_3_"><path class="st0" d="M425.45 451.71s-5.07 19.87 9.42 27.33c0 0-10.69 1.2-12.98-11.22-2.3-12.42 3.64-16.96 3.64-16.96m-1.11 30.92l-1.58 41.63s13.93 6 13.3 6c-.63-.09-11.08-1.28-14.56-2.4 0 0 1.11 55.6-1.74 65.88-.32 1.03-5.22 12.76-5.22 12.76l-6.57-4.28 10.05-8.48s-2.14-39.06-2.14-44.12c0-4.97 1.11-23.39 1.11-23.39l2.77-44.37 4.58.77z"/><path class="st0" d="M433.05 529.32l.63 63.56 8.71 10.54s-8.55 5.31-8.71 4.97c-.16-.26-2.06-15.68-2.06-15.68l-2.61-63.48h4.04v.09zm-13.77-43.26l-9.42 9.43 7.91 18.84.08-6.25-4.59-13.11 5.78-4.02z"/></g><g id="Layer_1_3_"><ellipse transform="rotate(-13.239 430.986 464.853)" class="st10" cx="431.04" cy="464.89" rx="9.63" ry="14.66"/><path class="st3" d="M433.84 450s-4.91 4.2-12.35 4.97m14.65-3.09s-7.04 5.65-15.2 6.08m17.18-3.51s-11.08 7.02-17.18 6.17m13.93 18.33l-1.66 3.94-4.36-.68v-4.63m14.09 7.28l-23.11-3.85-2.77 44.29s14.41 6.68 23.59 2.74l2.29-43.18zm0 0s7.2 10.11 11 15.85l-12.27 19.87 4.83 3.94-1.66 1.63-3.88-.86m1.43-29.8l8.55 10.02m-4.83-5.65c.24.26-4.59 11.99-4.59 11.99"/><path class="st3" d="M419.83 481.01s-10.61 7.71-14.64 14.39l11.95 22.02-6.02 3.34 1.82 2.57 4.35-.86m1.99-32.21c0 .09-8.07 5.4-11.24 10.37m4.98-5.14c0 .69 5.07 13.53 5.07 13.53m20.18 19.79s-.79 50.54-3.25 63.9h-3.4l-2.61-63.48m-1.82-.68l-6.02 64.16h-3.32s-3.72-51.4-.71-67.42m14.88 67.6l2.45 12.85 8.24-4.72-8.63-8.13m-15.91-.09l-8.31 6.25 7.12 4.8 4.2-11.05"/></g><path class="st11" d="M438.27 452.14c-7.2-.17-14.49.26-21.69 1.28 7.04 1.54 13.93 3.68 20.66 6.25-6.81.51-13.61 1.11-20.5 1.63 7.6 2.74 15.2 5.4 22.8 8.14-7.2-.09-14.49.17-21.69.77 7.12 2.48 14.25 4.97 21.37 7.45 1.35.43 3.01 1.63 2.53 3.08-.4 1.03-1.58 1.2-2.61 1.2-7.2.26-14.41.43-21.61.69 4.12 1.54 8.15 3.17 12.27 4.71 2.06.77 4.27 1.63 5.78 3.34-9.74 0-19.55.43-29.29 1.28 9.74 1.03 19.31 3.68 28.42 7.62-8.39 1.46-16.94 1.8-25.41 1.11l28.02 6.42c-8.71.94-17.41 1.97-26.12 2.91 10.29 3.77 20.26 8.65 29.76 14.56-8.71-1.11-17.57-1.46-26.36-1.03 10.05 2.31 20.34 4.8 29.29 10.37-10.37-.26-20.74-1.2-31.03-3 9.26 3.34 18.52 7.02 27.55 11.05-9.18-.51-18.28-1.03-27.47-1.54 8.07 2.83 15.91 6.6 23.27 11.22-7.44.34-14.88.69-22.24-.26 7.99 3 15.67 6.6 23.11 10.88-8.23-.34-16.46-.6-24.7-.94 9.1 3 17.97 6.42 26.75 10.28-7.99-.26-15.99-.6-23.98-.86 8.87 1.8 17.57 5.05 25.57 9.59-8.55.43-17.18.77-25.73 1.2 5.22 1.88 10.45 3.77 15.75 5.65 2.85 1.03 5.78 2.06 7.84 4.37-11.56.09-23.11.09-34.59.17 11.95 3.51 24.3 5.14 36.57 6.77-10.13 1.71-20.42 2.31-30.63 1.63 7.2 2.23 14.64 3.51 22.16 3.94 4.83.26 10.05.26 13.85 3.51-13.46.86-27.07-.6-40.13-4.45" id="Layer_3_2_"/><g id="Layer_2_4_"><path class="st0" d="M34.45 451.71s-5.07 19.87 9.42 27.33c0 0-10.69 1.2-12.98-11.22-2.3-12.42 3.64-16.96 3.64-16.96m-1.11 30.92l-1.58 41.63s13.93 6 13.3 6c-.63-.09-11.08-1.28-14.56-2.4 0 0 1.11 55.6-1.74 65.88-.32 1.03-5.22 12.76-5.22 12.76l-6.57-4.28 10.05-8.48s-2.14-39.06-2.14-44.12c0-4.97 1.11-23.39 1.11-23.39l2.77-44.37 4.58.77z"/><path class="st0" d="M42.05 529.32l.63 63.56 8.71 10.54s-8.55 5.31-8.71 4.97c-.16-.26-2.06-15.68-2.06-15.68l-2.61-63.48h4.04v.09zm-13.77-43.26l-9.42 9.43 7.91 18.84.08-6.25-4.59-13.11 5.78-4.02z"/></g><g id="Layer_1_4_"><ellipse transform="rotate(-13.239 40.026 464.847)" class="st10" cx="40.04" cy="464.89" rx="9.63" ry="14.66"/><path class="st3" d="M42.84 450s-4.91 4.2-12.35 4.97m14.65-3.09s-7.04 5.65-15.2 6.08m17.18-3.51s-11.08 7.02-17.18 6.17m13.93 18.33l-1.66 3.94-4.36-.68v-4.63m14.09 7.28l-23.11-3.85-2.77 44.29s14.41 6.68 23.59 2.74l2.29-43.18zm0 0s7.2 10.11 11 15.85l-12.27 19.87 4.83 3.94-1.66 1.63-3.88-.86m1.43-29.8l8.55 10.02m-4.83-5.65c.24.26-4.59 11.99-4.59 11.99"/><path class="st3" d="M28.83 481.01s-10.61 7.71-14.64 14.39l11.95 22.02-6.02 3.34 1.82 2.57 4.35-.86m1.99-32.21c0 .09-8.07 5.4-11.24 10.37m4.98-5.14c0 .69 5.07 13.53 5.07 13.53m20.18 19.79s-.79 50.54-3.25 63.9h-3.4l-2.61-63.48m-1.82-.68l-6.02 64.16h-3.32s-3.72-51.4-.71-67.42m14.88 67.6l2.45 12.85 8.24-4.72-8.63-8.13m-15.91-.09l-8.31 6.25 7.12 4.8 4.2-11.05"/></g><path class="st11" d="M47.27 452.14c-7.2-.17-14.49.26-21.69 1.28 7.04 1.54 13.93 3.68 20.66 6.25-6.81.51-13.61 1.11-20.5 1.63 7.6 2.74 15.2 5.4 22.8 8.14-7.2-.09-14.49.17-21.69.77 7.12 2.48 14.25 4.97 21.37 7.45 1.35.43 3.01 1.63 2.53 3.08-.4 1.03-1.58 1.2-2.61 1.2-7.2.26-14.41.43-21.61.69 4.12 1.54 8.15 3.17 12.27 4.71 2.06.77 4.27 1.63 5.78 3.34-9.74 0-19.55.43-29.29 1.28 9.74 1.03 19.31 3.68 28.42 7.62-8.39 1.46-16.94 1.8-25.41 1.11l28.02 6.42c-8.71.94-17.41 1.97-26.12 2.91 10.29 3.77 20.26 8.65 29.76 14.56-8.71-1.11-17.57-1.46-26.36-1.03 10.05 2.31 20.34 4.8 29.29 10.37-10.37-.26-20.74-1.2-31.03-3 9.26 3.34 18.52 7.02 27.55 11.05-9.18-.51-18.28-1.03-27.47-1.54 8.07 2.83 15.91 6.6 23.27 11.22-7.44.34-14.88.69-22.24-.26 7.99 3 15.67 6.6 23.11 10.88-8.23-.34-16.46-.6-24.7-.94 9.1 3 17.97 6.42 26.75 10.28-7.99-.26-15.99-.6-23.98-.86 8.87 1.8 17.57 5.05 25.57 9.59-8.55.43-17.18.77-25.73 1.2 5.22 1.88 10.45 3.77 15.75 5.65 2.85 1.03 5.78 2.06 7.84 4.37-11.56.09-23.11.09-34.59.17 11.95 3.51 24.3 5.14 36.57 6.77-10.13 1.71-20.42 2.31-30.63 1.63 7.2 2.23 14.64 3.51 22.16 3.94 4.83.26 10.05.26 13.85 3.51-13.46.86-27.07-.6-40.13-4.45" id="Layer_3_3_"/></svg>