<svg id="Layer_1" xmlns="http://www.w3.org/2000/svg" viewBox="0 0 1437 698"><style>.st1{fill:none;stroke:#000;stroke-miterlimit:10.0001}.st1,.st2{stroke-width:2}.st2,.st3,.st4,.st5{fill:none;stroke:#000}.st2{stroke-miterlimit:9.9998}.st3{stroke-width:1.9999;stroke-miterlimit:9.9997}.st4{stroke-width:2.0001;stroke-miterlimit:10.0003}.st5{stroke-width:2;stroke-miterlimit:10}.st6{fill:#27aae1}.st7{fill:none;stroke:#27aae1;stroke-width:25;stroke-miterlimit:10;stroke-opacity:0}.st8,.st9{fill:none;stroke:#000;stroke-width:2.0001;stroke-miterlimit:10.0004}.st9{stroke-miterlimit:10;stroke-opacity:0;stroke:#70bf44;stroke-width:15}</style><path d="M76.95 435.62h1226.1" stroke-width="8" stroke-miterlimit="10" fill="none" stroke="#000"/><ellipse transform="rotate(-8.5 653.457 522.472)" class="st1" cx="653.42" cy="522.53" rx="10.12" ry="14.93"/><ellipse transform="rotate(-86.991 702.622 522.543)" class="st2" cx="702.61" cy="522.53" rx="14.74" ry="9.05"/><ellipse transform="rotate(-1.06 743.05 524.047)" class="st3" cx="741.68" cy="523.1" rx="9.05" ry="14.74"/><ellipse transform="rotate(-3.997 779.656 525.202)" class="st4" cx="779.33" cy="525" rx="8.73" ry="13.54"/><path class="st5" d="M652.85 536.83c.44 2.09 1.14 5.06 1.14 5.06l4.43-.19v-5.12m40.36-.38v4.68h4.75l.63-3.99m34.8.13v5.69l4.87.06.95-5.75m32.33.82l.95 3.99 4.68-.26-.19-3.73m-136.85 5.63c1.14 0 22.4-2.85 22.4-2.85l1.33 48.15-17.65 1.14-6.08-46.44zm0 0s-12.4 14.87-14.11 23.66l18.92 13.48m-14.24-10.12s5.82-10.82 10.82-14.55m-5.63 7.02l8.1 10.06m.76 9.68l-8.92-.57 1.77 5.82 7.47-2.6"/><path class="st5" d="M668.1 540.62l13.35 16.26 8.29-13.41 9.93.57.38 4.3-8.92-.31-8.73 17.77-14.11-13.98m13.16 5.06l.95 8.92"/><path class="st5" d="M689.55 543.98c-.13-2.09-.19-3.29-.19-3.29s16.77-.25 23.85 2.85l-4.49 41.63-16.89-1.27s-1.14-20.82-1.83-33.53m-.64-10.06s-.32 2.09-.76 5.12"/><path class="st5" d="M687.02 556.44c-.95 6.2-1.71 11.51-1.71 11.51l2.4 17.08 2.97-1.01.13-18.79m22.4-21.76l6.2 25.37-1.14 17.65-4.24-1.14-.82-15.37-2.22-6.2m2.22 6.2l6.07-1.58m-31.76 16.26l-.69 8.54 2.72 5.31h2.34m22.2-12.9l-1.58 7.15 3.29 8.35 4.24-3.48-1.71-10.88zm15.95-27.65c.25-7.78.44-14.3.38-15.25 0 0 12.53-.25 21.32 1.58 0 0-.19 6.77-.51 14.93m-20.81-16.45s-3.42 7.4-6.14 13.35m-.89 1.9c-1.46 3.23-2.59 5.63-2.59 5.63s7.59 8.35 25.5 1.64"/><path class="st5" d="M751.36 544.17s6.58 12.97 7.28 23.85l-26.95-5.95-6.07.95-3.1-7.02 9.17 1.9 22.14 1.14"/><path class="st5" d="M751.36 555.3l-4.3-1.39-4.37 4.49m8.29 8.48c-.32 10.69-.7 21.13-.7 21.13l-21.32-.7s.38-9.74.7-20.18m42.2-24.29l17.08-1.96s5.06 31.13 2.09 47.13l-19.17.76s4.36-33.03 0-45.93z"/><path class="st5" d="M771.86 543.47s-13.73 16.58-4.49 48.15l3.35-1.71s-3.29-23.35 3.04-29.74m-9.31 4.69l6.14 3.1M789 540.88s11.83 10.06 16.01 17.53l-12.97 19.04m-1.46-24.62l10.89 10.76m-5.76-5.19l-4.05 6.83"/><path class="st5" d="M766.92 591.62l.51 8.79 3.79 5.76h2.28l-1.39-14.55-1.39-2.03zm25.12-9.56s4.81 1.83 5 1.71c.13-.13 7.97-4.49 7.97-4.49l-4.11-4.37-8.86 2.72m-140.33 12.28l3.99 62.25h2.72l1.96-62.25 6.01 62.25h3.04v-63.39m22.33-5v64.98h5.06l3.86-58.84"/><path class="st5" d="M708.72 585.04l3.92 65.35-3.92.83-8.73-66.56m91.04 3.35s4.68 34.1 5.95 67.44h-3.29l-11.77-66.68m-51.88-1.45l1.77 63.01h3.73l4.43-62.32m10.31 0v62.32h-3.98l-5.44-62.32m31 .76l5.63 60.55h4.43l.5-57.7m-127.1 61.11l-14.11 8.1 14.11 5.95 3.86-13.54zm10.63 0l1.9 15.25 11.26-6.96-8.86-8.29zm25.81-3.41l-9.3 8.54 10.69 3.79 4.18-12.33zm15.82 2.27l6.01-1.26 8.86 9.43-11.39 4.87zm24.48-.75l-9.05 6.64 9.94 5.5 3.54-11.76zm14.24 0h4.62l13.22 6.64-8.35 6.33zm31.57-.95c-.25 0-12.97 5.06-12.97 5.06l8.54 5.12 8.98-10.19h-4.55zm15.62 5.56l4.69.32 11.64 6.14-10.38 4.17z"/><ellipse transform="rotate(-81.32 1320.404 520.57)" class="st1" cx="1320.38" cy="520.53" rx="14.93" ry="10.2"/><ellipse transform="rotate(-3.032 1272.17 520.45)" class="st2" cx="1270.83" cy="520.53" rx="9.11" ry="14.74"/><ellipse transform="rotate(-88.923 1231.437 521.134)" class="st3" cx="1231.47" cy="521.1" rx="14.74" ry="9.11"/><ellipse transform="rotate(-85.929 1193.53 522.974)" class="st4" cx="1193.53" cy="523" rx="13.54" ry="8.8"/><path class="st5" d="M1320.95 534.83c-.45 2.09-1.15 5.06-1.15 5.06l-4.46-.19v-5.12m-40.66-.38v4.68h-4.78l-.64-3.99m-35.06.13v5.69l-4.9.06-.96-5.75m-32.57.82l-.96 3.99-4.71-.26.19-3.73m137.86 5.63c-1.15 0-22.56-2.85-22.56-2.85l-1.34 48.15 17.78 1.14 6.12-46.44zm0 0s12.49 14.87 14.21 23.66l-19.06 13.48m14.35-10.12s-5.86-10.82-10.9-14.55m5.67 7.02l-8.15 10.06m-.77 9.68l8.99-.57-1.79 5.82-7.52-2.6"/><path class="st5" d="M1305.59 538.62l-13.45 16.26-8.35-13.41-10.01.57-.38 4.3 8.99-.31 8.8 17.77 14.21-13.98m-13.26 5.06l-.95 8.92"/><path class="st5" d="M1283.98 541.98c.13-2.09.19-3.29.19-3.29s-16.89-.25-24.03 2.85l4.53 41.63 17.02-1.27s1.15-20.82 1.85-33.53m.63-10.06s.32 2.09.76 5.12"/><path class="st5" d="M1286.53 554.44c.96 6.2 1.72 11.51 1.72 11.51l-2.42 17.08-3-1.01-.13-18.79m-22.56-21.76l-6.24 25.37 1.15 17.65 4.27-1.14.82-15.37 2.24-6.2m-2.24 6.2l-6.11-1.58m31.99 16.26l.7 8.54-2.74 5.31h-2.36m-22.37-12.9l1.6 7.15-3.32 8.35-4.27-3.48 1.72-10.88zm-16.06-27.65c-.25-7.78-.45-14.3-.38-15.25 0 0-12.62-.25-21.48 1.58 0 0 .19 6.77.51 14.93m20.97-16.45s3.44 7.4 6.18 13.35m.89 1.9c1.47 3.23 2.61 5.63 2.61 5.63s-7.65 8.35-25.69 1.64"/><path class="st5" d="M1221.71 542.17s-6.63 12.97-7.33 23.85l27.15-5.95 6.12.95 3.12-7.02-9.24 1.9-22.31 1.14"/><path class="st5" d="M1221.71 553.3l4.34-1.39 4.39 4.49m-8.35 8.48c.32 10.69.7 21.13.7 21.13l21.48-.7s-.38-9.74-.7-20.18m-42.51-24.29l-17.21-1.96s-5.1 31.13-2.1 47.13l19.31.76s-4.4-33.03 0-45.93z"/><path class="st5" d="M1201.06 541.47s13.83 16.58 4.53 48.15l-3.38-1.71s3.31-23.35-3.06-29.74m9.37 4.69l-6.19 3.1m-18.54-27.08s-11.92 10.06-16.13 17.53l13.07 19.04m1.46-24.62l-10.96 10.76m5.8-5.19l4.08 6.83"/><path class="st5" d="M1206.03 589.62l-.51 8.79-3.82 5.76h-2.3l1.41-14.55 1.4-2.03zm-25.3-9.56s-4.84 1.83-5.04 1.71c-.13-.13-8.03-4.49-8.03-4.49l4.14-4.37 8.92 2.72m141.38 12.28l-4.02 62.25h-2.74l-1.97-62.25-6.06 62.25h-3.06v-63.39m-22.5-5v64.98h-5.1l-3.89-58.84"/><path class="st5" d="M1264.67 583.04l-3.95 65.35 3.95.83 8.8-66.56m-91.72 3.35s-4.72 34.1-5.99 67.44h3.31l11.86-66.68m52.26-1.45s-.89 31.7-1.78 63.01h-3.76l-4.46-62.32m-10.4 0v62.32h4.02l5.48-62.32"/><path class="st5" d="M1201.06 586.77l-5.67 60.55h-4.46l-.51-57.7m128.04 61.11l14.22 8.1-14.22 5.95-3.88-13.54zm-10.7 0l-1.92 15.25-11.34-6.96 8.92-8.29zm-26.01-3.41l9.37 8.54-10.77 3.79-4.21-12.33zm-15.93 2.27l-6.06-1.26-8.92 9.43 11.47 4.87zm-24.67-.75l9.12 6.64-10.01 5.5-3.57-11.76zm-14.34 0h-4.65l-13.32 6.64 8.41 6.33zm-31.81-.95c.25 0 13.07 5.06 13.07 5.06l-8.6 5.12-9.05-10.19h4.58zm-15.74 5.56l-4.71.32-11.73 6.14 10.45 4.17z"/><ellipse transform="rotate(-5.253 1050.943 527.247)" class="st4" cx="1051.12" cy="527" rx="9.64" ry="13.55"/><path class="st5" d="M1048.67 539.84l1.05 3.99 5.17-.26-.21-3.73m-11.82 5l18.88-1.96s5.59 31.13 2.31 47.13l-21.19.76s4.83-33.03 0-45.93z"/><path class="st5" d="M1042.86 545.47s-15.17 16.58-4.96 48.15l3.71-1.71s-3.64-23.35 3.36-29.74m-10.29 4.69l6.78 3.1m20.35-27.08s13.08 10.06 17.69 17.53l-14.33 19.04m-1.61-24.62l12.03 10.76m-6.37-5.19l-4.47 6.83"/><path class="st5" d="M1037.41 593.62l.56 8.79 4.19 5.76h2.52l-1.54-14.55-1.54-2.03zm27.76-9.56s5.31 1.83 5.52 1.71c.14-.13 8.81-4.49 8.81-4.49l-4.55-4.37-9.79 2.72m-1.11 10.38s5.17 34.1 6.57 67.44h-3.64l-13.01-66.68"/><path class="st5" d="M1042.86 590.77l6.23 60.55h4.89l.56-57.7m-5.03 58.27c-.28 0-14.33 5.06-14.33 5.06l9.44 5.12 9.93-10.19h-5.04zm17.27 5.56l5.17.32 12.87 6.14-11.47 4.17z"/><ellipse transform="rotate(-86.003 490.175 522.362)" class="st4" cx="490.2" cy="522.38" rx="13.69" ry="8.83"/><ellipse transform="rotate(-86.991 528.084 522.355)" class="st2" cx="528.07" cy="522.34" rx="14.91" ry="9.15"/><ellipse transform="rotate(-1.06 568.705 523.85)" class="st3" cx="567.62" cy="522.87" rx="9.15" ry="14.91"/><ellipse transform="rotate(-3.997 605.912 524.96)" class="st4" cx="605.7" cy="524.79" rx="8.83" ry="13.69"/><path class="st5" d="M486.94 535.41l-.19 3.77 4.73.26.96-4.03m5.31 51.5l-19.39-.77c-3.01-16.19 2.11-47.67 2.11-47.67l17.27 1.98c-4.4 13.06.01 46.46.01 46.46z"/><path class="st5" d="M495.84 557.99c6.4 6.46 3.07 30.07 3.07 30.07l3.39 1.73c9.34-31.93-4.54-48.69-4.54-48.69m1.27 24.76l6.21-3.13m-27.89 12.73l-13.12-19.26c4.22-7.55 16.19-17.72 16.19-17.72m-12.61 22.97l11.01-10.88m-1.09 12.54l-4.1-6.91"/><path class="st5" d="M498.91 587.74l-1.41 2.05-1.41 14.72h2.3l3.84-5.83.52-8.89zm-21.56-12.09l-8.96-2.75-4.16 4.41s7.93 4.41 8.06 4.54c.19.13 5.05-1.73 5.05-1.73m10.24 6.79l-11.9 67.44h-3.33c1.28-33.72 6.01-68.2 6.01-68.2"/><path class="st5" d="M487.07 589.79l.51 58.35h4.48l5.69-61.23m-10.68 61.81l9.09 10.3 8.64-5.18s-12.86-5.12-13.12-5.12h-4.61zm-17.21 16.38l-10.49-4.23 11.77-6.2 4.73-.32zm54.38-128.99v4.74h4.8l.64-4.03m35.19.12v5.76l4.93.07.96-5.83m32.69.83l.96 4.04 4.74-.26-.2-3.78"/><path class="st5" d="M514.9 543.98c-.13-2.11-.19-3.33-.19-3.33s16.95-.26 24.12 2.88l-4.54 42.1-17.08-1.28c-.01 0-1.6-27.51-2.31-40.37m-.19-3.71s-.32 2.11-.77 5.18"/><path class="st5" d="M513.94 545.45c-.96 6.27-3.33 22.78-3.33 22.78l2.43 17.27 3.01-1.02.13-19m22.65-22.01l6.27 25.66-1.15 17.85-4.29-1.16-.83-15.54-2.24-6.27m2.24 6.27l6.14-1.6m-32.12 16.44l-.7 8.64 2.75 5.37h2.37m22.46-13.05l-1.6 7.23 3.32 8.45 4.29-3.52-1.73-11.01zm16.12-27.96c.26-7.87.45-14.46.38-15.42 0 0 12.67-.26 21.56 1.6 0 0-.19 6.85-.51 15.1m-21.05-16.63s-3.45 7.49-6.21 13.5m-.89 1.91c-1.47 3.26-2.62 5.69-2.62 5.69s7.68 8.45 25.78 1.66"/><path class="st5" d="M577.41 544.17s6.65 13.12 7.36 24.12l-27.26-6.01-6.14.96-3.14-7.1 9.28 1.92 22.39 1.15"/><path class="st5" d="M577.41 555.43l-4.35-1.4-4.41 4.54m8.38 8.57c-.32 10.81-.7 21.37-.7 21.37l-21.56-.7s.38-9.85.7-20.41m42.67-24.57l17.27-1.98s5.12 31.48 2.11 47.67l-19.39.77c.01-.01 4.43-33.41.01-46.46z"/><path class="st5" d="M598.14 543.47s-13.88 16.76-4.54 48.69l3.39-1.73s-3.33-23.61 3.07-30.07m-9.41 4.73l6.21 3.14m18.62-27.38s11.96 10.17 16.19 17.72l-13.12 19.26m-1.47-24.89l11 10.87m-5.82-5.24l-4.09 6.91"/><path class="st5" d="M593.15 592.16l.51 8.89 3.84 5.82h2.3l-1.4-14.71-1.41-2.05zm25.4-9.66s4.86 1.86 5.05 1.73c.13-.13 8.06-4.54 8.06-4.54l-4.16-4.41-8.96 2.75m-101.4 6.19v65.71h5.12l3.9-59.5"/><path class="st5" d="M534.29 585.5l3.96 66.1-3.96.83-8.83-67.31m92.07 3.39s4.73 34.49 6.01 68.2h-3.33l-11.9-67.44m-52.46-1.46l1.79 63.72h3.77l4.48-63.02m10.43 0v63.02h-4.03l-5.5-63.02"/><path class="st5" d="M598.14 589.28l5.69 61.23h4.48l.52-58.35m-91.69 58.35l-9.4 8.64 10.81 3.83 4.22-12.47zm16 2.3l6.07-1.28 8.96 9.54-11.51 4.92zm24.76-.77l-9.15 6.72 10.04 5.57 3.59-11.9zm14.39 0h4.67l13.37 6.72-8.44 6.4zm31.93-.96c-.26 0-13.12 5.12-13.12 5.12l8.64 5.18 9.09-10.3h-4.61zm15.8 5.63l4.74.32 11.77 6.21-10.49 4.22z"/><ellipse transform="rotate(-86.003 844.374 524.75)" class="st4" cx="844.42" cy="524.76" rx="13.75" ry="8.87"/><ellipse transform="rotate(-86.991 882.467 524.738)" class="st2" cx="882.45" cy="524.73" rx="14.97" ry="9.19"/><ellipse transform="rotate(-1.06 923.921 526.234)" class="st3" cx="922.16" cy="525.25" rx="9.19" ry="14.97"/><ellipse transform="rotate(-3.997 960.74 527.35)" class="st4" cx="960.4" cy="527.18" rx="8.87" ry="13.75"/><path class="st5" d="M841.14 537.85l-.19 3.79 4.76.25.96-4.04m5.33 51.72l-19.47-.77c-3.02-16.26 2.12-47.87 2.12-47.87l17.35 1.99c-4.43 13.11 0 46.65 0 46.65z"/><path class="st5" d="M850.07 560.53c6.43 6.49 3.08 30.2 3.08 30.2l3.41 1.73c9.38-32.06-4.56-48.9-4.56-48.9m1.29 24.87l6.23-3.15m-28.01 12.79l-13.17-19.34c4.24-7.58 16.26-17.8 16.26-17.8M821.93 564l11.05-10.93m-1.09 12.6l-4.11-6.94"/><path class="st5" d="M853.16 590.4l-1.41 2.06-1.42 14.78h2.31l3.86-5.85.51-8.93zm-21.65-12.14l-9-2.76-4.18 4.43s7.97 4.43 8.1 4.56c.19.13 5.08-1.73 5.08-1.73m10.28 6.81l-11.95 67.72h-3.34c1.29-33.86 6.04-68.49 6.04-68.49"/><path class="st5" d="M841.27 592.46l.52 58.6h4.49l5.72-61.49m-10.73 62.07l9.12 10.34 8.67-5.2s-12.91-5.14-13.17-5.14h-4.62zm-17.28 16.45l-10.54-4.24 11.82-6.24 4.76-.32zm54.61-129.54v4.76h4.82l.64-4.05m35.34.13v5.78l4.95.06.96-5.84m32.84.83l.96 4.05 4.76-.26-.2-3.79"/><path class="st5" d="M869.22 546.46c-.13-2.12-.19-3.34-.19-3.34s17.03-.26 24.22 2.89l-4.56 42.28-17.16-1.29s-1.6-27.63-2.31-40.54m-.19-3.73s-.32 2.12-.77 5.2"/><path class="st5" d="M868.26 547.93c-.96 6.3-3.34 22.87-3.34 22.87l2.44 17.35 3.02-1.03.13-19.08m22.74-22.1l6.3 25.77-1.16 17.92-4.3-1.15-.84-15.62-2.25-6.29m2.25 6.29l6.17-1.6m-32.25 16.51l-.71 8.67 2.76 5.4h2.38m22.55-13.11l-1.6 7.26 3.34 8.49 4.3-3.54-1.73-11.05zm16.19-28.07c.26-7.9.45-14.52.39-15.48 0 0 12.72-.26 21.65 1.61 0 0-.19 6.88-.51 15.16m-21.14-16.72s-3.47 7.52-6.23 13.56m-.9 1.93c-1.48 3.28-2.63 5.72-2.63 5.72s7.71 8.48 25.89 1.67"/><path class="st5" d="M932 546.65s6.68 13.17 7.39 24.22l-27.37-6.04-6.17.96-3.15-7.13 9.32 1.93 22.49 1.16"/><path class="st5" d="M932 557.96l-4.37-1.42-4.44 4.57m8.42 8.6c-.32 10.86-.71 21.46-.71 21.46l-21.65-.71s.39-9.89.71-20.5m42.85-24.66l17.35-1.99s5.14 31.61 2.12 47.87l-19.47.77s4.44-33.54 0-46.65z"/><path class="st5" d="M952.81 545.94s-13.94 16.83-4.56 48.9l3.41-1.73s-3.34-23.71 3.08-30.2m-9.44 4.75l6.23 3.15m18.7-27.5s12.02 10.22 16.26 17.8l-13.17 19.34m-1.49-25l11.06 10.92m-5.85-5.26l-4.11 6.93"/><path class="st5" d="M947.8 594.84l.52 8.93 3.85 5.85h2.32l-1.42-14.78-1.41-2.06zm25.51-9.7s4.88 1.86 5.08 1.73c.13-.13 8.1-4.56 8.1-4.56l-4.18-4.43-9 2.76m-101.84 6.23v65.99h5.14l3.92-59.76"/><path class="st5" d="M888.69 588.16l3.98 66.37-3.98.83-8.87-67.59m92.46 3.41s4.75 34.63 6.04 68.49h-3.34l-11.95-67.72m-52.69-1.48s.9 32.19 1.8 64h3.79l4.5-63.29m10.47 0v63.28h-4.04l-5.53-63.28"/><path class="st5" d="M952.81 591.95l5.72 61.49h4.5l.51-58.6m-92.07 58.6l-9.44 8.67 10.85 3.86 4.24-12.53zm16.06 2.31l6.11-1.29 8.99 9.58-11.56 4.95zm24.87-.77l-9.19 6.75 10.09 5.59 3.6-11.96zm14.46 0h4.69l13.43 6.75-8.49 6.42zm32.06-.97c-.26 0-13.17 5.14-13.17 5.14l8.67 5.2 9.12-10.34h-4.62zm15.87 5.66l4.75.32 11.83 6.23-10.54 4.24z"/><ellipse transform="rotate(-86.003 95.28 521.305)" class="st4" cx="95.29" cy="521.33" rx="13.74" ry="8.86"/><ellipse transform="rotate(-86.991 133.328 521.299)" class="st2" cx="133.33" cy="521.29" rx="14.96" ry="9.18"/><ellipse transform="rotate(-1.06 173.342 522.82)" class="st3" cx="173" cy="521.82" rx="9.18" ry="14.96"/><ellipse transform="rotate(-3.997 211.281 523.908)" class="st4" cx="211.21" cy="523.75" rx="8.86" ry="13.74"/><path class="st5" d="M92.04 534.4l-.19 3.79 4.75.26.96-4.05m5.33 51.69l-19.45-.77c-3.02-16.24 2.12-47.83 2.12-47.83l17.34 1.99c-4.44 13.09-.01 46.61-.01 46.61z"/><path class="st5" d="M100.96 557.07c6.42 6.48 3.08 30.18 3.08 30.18l3.4 1.73c9.37-32.04-4.56-48.86-4.56-48.86m1.29 24.85l6.23-3.15M82.41 574.6l-13.16-19.33c4.24-7.58 16.24-17.78 16.24-17.78m-12.65 23.05l11.04-10.92m-1.09 12.59l-4.11-6.94"/><path class="st5" d="M104.05 586.92l-1.42 2.06-1.41 14.77h2.31l3.85-5.85.52-8.92zm-21.64-12.13l-8.99-2.76-4.17 4.43s7.96 4.43 8.09 4.56c.19.13 5.07-1.73 5.07-1.73m10.27 6.8l-11.94 67.67H77.4c1.28-33.84 6.04-68.44 6.04-68.44"/><path class="st5" d="M92.17 588.98l.51 58.55h4.5l5.71-61.44m-10.72 62.02l9.12 10.34 8.67-5.2s-12.91-5.14-13.16-5.14h-4.63zM74.9 664.55l-10.53-4.24 11.81-6.23 4.75-.32zm54.57-129.44v4.75h4.82l.64-4.04m35.31.13v5.77l4.94.07.97-5.84m32.81.83l.96 4.04 4.75-.25-.19-3.79"/><path class="st5" d="M120.1 543.01c-.13-2.12-.19-3.34-.19-3.34s17.01-.26 24.21 2.89l-4.56 42.25-17.14-1.28c-.01-.01-1.62-27.62-2.32-40.52m-.2-3.73s-.32 2.12-.77 5.2"/><path class="st5" d="M119.13 544.48c-.96 6.29-3.34 22.86-3.34 22.86l2.44 17.34 3.02-1.03.13-19.07m22.73-22.09l6.29 25.75-1.15 17.91-4.31-1.15-.83-15.6-2.25-6.3m2.25 6.3l6.16-1.61m-32.23 16.5l-.7 8.67 2.76 5.39h2.37m22.54-13.1l-1.61 7.26 3.34 8.48 4.3-3.54-1.73-11.04zm16.18-28.05c.26-7.9.45-14.51.39-15.47 0 0 12.71-.26 21.64 1.61 0 0-.19 6.87-.51 15.15m-21.14-16.7s-3.47 7.51-6.23 13.55m-.89 1.92c-1.48 3.27-2.63 5.71-2.63 5.71s7.7 8.48 25.87 1.67"/><path class="st5" d="M182.82 543.2s6.68 13.16 7.38 24.21l-27.35-6.04-6.16.96-3.15-7.13 9.31 1.93 22.47 1.16"/><path class="st5" d="M182.82 554.5l-4.36-1.41-4.43 4.56m8.41 8.6c-.32 10.85-.71 21.44-.71 21.44l-21.64-.71s.39-9.89.71-20.48m42.83-24.65l17.34-1.99s5.14 31.59 2.12 47.83l-19.45.77c-.01.01 4.42-33.51-.01-46.61z"/><path class="st5" d="M203.63 542.49s-13.93 16.82-4.56 48.86l3.4-1.73s-3.34-23.69 3.08-30.18m-9.43 4.76l6.22 3.14m18.69-27.48s12.01 10.21 16.24 17.78l-13.16 19.33M222.63 552l11.05 10.91m-5.85-5.26l-4.11 6.93"/><path class="st5" d="M198.62 591.35l.51 8.93 3.86 5.84h2.31l-1.42-14.77-1.41-2.05zm25.49-9.69s4.88 1.86 5.07 1.73c.13-.13 8.09-4.56 8.09-4.56l-4.17-4.43-8.99 2.76m-101.77 6.23v65.94h5.14l3.92-59.71"/><path class="st5" d="M139.55 584.68l3.98 66.32-3.98.84-8.86-67.55m92.39 3.4s4.75 34.61 6.04 68.44h-3.34l-11.94-67.67m-52.65-1.47s.9 32.17 1.8 63.95h3.79l4.49-63.24m10.46-.01v63.25h-4.04l-5.52-63.25"/><path class="st5" d="M203.63 588.47l5.71 61.44h4.5l.51-58.56m-92.01 58.56l-9.43 8.67 10.85 3.85 4.23-12.52zm16.06 2.31l6.09-1.28 8.99 9.56-11.55 4.95z"/><ellipse transform="rotate(-86.991 1108.348 526.3)" class="st2" cx="1108.33" cy="526.29" rx="14.96" ry="9.18"/><path class="st5" d="M1104.47 540.11v4.75h4.82l.64-4.04"/><path class="st5" d="M1095.1 548.01c-.13-2.12-.19-3.34-.19-3.34s17.01-.26 24.21 2.89l-4.56 42.25-17.14-1.28c-.01-.01-1.62-27.62-2.32-40.52m-.2-3.73s-.32 2.12-.77 5.2"/><path class="st5" d="M1094.13 549.48c-.96 6.29-3.34 22.86-3.34 22.86l2.44 17.34 3.02-1.03.13-19.07m22.73-22.09l6.29 25.75-1.15 17.91-4.31-1.15-.83-15.6-2.25-6.3m2.25 6.3l6.16-1.61m-32.23 16.5l-.7 8.67 2.76 5.39h2.37m22.54-13.1l-1.61 7.26 3.34 8.48 4.3-3.54-1.73-11.04z"/><path class="st5" d="M1097.34 588.39v65.94h5.14l3.92-59.71"/><path class="st5" d="M1114.55 589.68l3.98 66.32-3.98.84-8.86-67.55m-8.35 65.62l-9.43 8.67 10.85 3.85 4.23-12.52zm16.06 2.31l6.09-1.28 8.99 9.56-11.55 4.95z"/><ellipse transform="rotate(-3.061 1148.95 523.928)" class="st2" cx="1149.79" cy="524.29" rx="9.25" ry="14.96"/><path class="st5" d="M1153.68 538.11v4.75h-4.85l-.65-4.04"/><path class="st5" d="M1163.12 546.01c.13-2.12.19-3.34.19-3.34s-17.14-.26-24.39 2.89l4.59 42.25 17.27-1.28c.01-.01 1.63-27.62 2.34-40.52m.2-3.73s.32 2.12.78 5.2"/><path class="st5" d="M1164.09 547.48c.97 6.29 3.36 22.86 3.36 22.86l-2.46 17.34-3.04-1.03-.13-19.07m-22.89-22.09l-6.34 25.75 1.16 17.91 4.34-1.15.84-15.6 2.26-6.3m-2.26 6.3l-6.21-1.61m32.47 16.5l.71 8.67-2.78 5.39h-2.39m-22.71-13.1l1.62 7.26-3.36 8.48-4.34-3.54 1.75-11.04z"/><path class="st5" d="M1160.86 586.39v65.94h-5.18l-3.94-59.71"/><path class="st5" d="M1143.52 587.68l-4.01 66.32 4.01.84 8.93-67.55m8.41 65.62l9.51 8.67-10.94 3.85-4.27-12.52zm-16.17 2.31l-6.15-1.28-9.06 9.56 11.65 4.95zm-981.45-3.77l-9.18 6.74 10.08 5.59 3.6-11.94zm14.45 0h4.69l13.41 6.74-8.47 6.42zm32.04-.96c-.26 0-13.16 5.14-13.16 5.14l8.67 5.2 9.12-10.34h-4.63zm15.86 5.65l4.75.32 11.81 6.23-10.53 4.23z"/><ellipse transform="rotate(-8.5 258.634 521.35)" class="st1" cx="258.59" cy="521.37" rx="10.27" ry="15.15"/><ellipse transform="rotate(-86.991 308.55 521.372)" class="st2" cx="308.54" cy="521.36" rx="14.96" ry="9.18"/><ellipse transform="rotate(-1.06 348.806 522.919)" class="st3" cx="348.15" cy="521.95" rx="9.18" ry="14.96"/><ellipse transform="rotate(-3.997 386.586 524.067)" class="st4" cx="386.43" cy="523.87" rx="8.86" ry="13.74"/><path class="st5" d="M258.07 535.88c.45 2.12 1.16 5.14 1.16 5.14l4.49-.19v-5.2m40.97-.39v4.75h4.81l.64-4.04m35.32.12v5.78l4.94.07.96-5.85m32.81.84l.97 4.04 4.75-.25-.26-3.79m-138.81 5.71c1.16 0 22.73-2.89 22.73-2.89l1.35 48.86-17.91 1.16-6.17-47.13zm0 0s-12.58 15.09-14.32 24.01l19.2 13.68m-14.45-10.27s5.91-10.98 10.98-14.77m-5.71 7.13l8.21 10.21m.78 9.82l-9.06-.58 1.8 5.91 7.58-2.63"/><path class="st5" d="M273.55 539.73l13.48 16.5 8.48-13.61 10.08.58.38 4.37-9.05-.32-8.86 18.04-14.32-14.19m13.29 5.13l1.03 9.06"/><path class="st5" d="M295.31 543.14c-.13-2.12-.19-3.34-.19-3.34s17.01-.26 24.21 2.89l-4.56 42.25-17.14-1.28s-1.16-21.12-1.86-34.03m-.65-10.22s-.32 2.12-.77 5.2"/><path class="st5" d="M292.74 555.78c-.96 6.29-1.73 11.69-1.73 11.69l2.44 17.34 3.02-1.03.13-19.07m22.73-22.09l6.22 25.75-1.09 17.91-4.3-1.15-.83-15.61-2.25-6.29m2.25 6.29l6.16-1.6m-32.23 16.5l-.71 8.67 2.76 5.39h2.38m22.53-13.1l-1.6 7.26 3.34 8.47 4.24-3.53-1.67-11.04zm16.18-28.05c.26-7.9.45-14.51.39-15.47 0 0 12.71-.26 21.64 1.61 0 0-.19 6.87-.51 15.15m-21.13-16.7s-3.47 7.51-6.23 13.55m-.9 1.92c-1.48 3.27-2.63 5.71-2.63 5.71s7.7 8.48 25.87 1.67"/><path class="st5" d="M358.04 543.33s6.68 13.16 7.38 24.21l-27.35-6.04-6.16.96-3.15-7.13 9.31 1.93 22.47 1.16"/><path class="st5" d="M358.04 554.63l-4.37-1.41-4.43 4.56m8.42 8.6c-.32 10.85-.71 21.44-.71 21.44l-21.64-.71s.39-9.89.71-20.48m42.82-24.65l17.34-1.99s5.14 31.59 2.12 47.83l-19.45.77c-.01 0 4.42-33.51-.01-46.61z"/><path class="st5" d="M378.84 542.62s-13.93 16.82-4.56 48.86l3.4-1.73s-3.34-23.69 3.08-30.18m-9.43 4.75l6.23 3.15m18.62-27.48s12.01 10.21 16.24 17.78l-13.16 19.33m-1.41-24.98l11.04 10.92m-5.84-5.26l-4.11 6.93"/><path class="st5" d="M373.84 591.48l.51 8.93 3.85 5.84h2.31l-1.41-14.77-1.41-2.05zm25.48-9.69s4.88 1.86 5.07 1.73c.13-.13 8.09-4.56 8.09-4.56l-4.17-4.43-8.99 2.76m-142.47 12.46l4.11 63.18h2.76l1.99-63.18 6.1 63.18h3.02v-64.34m22.73-5.07v65.94h5.14l3.91-59.71"/><path class="st5" d="M314.77 584.81l3.98 66.32-3.98.83-8.86-67.54m92.39 3.4s4.75 34.61 6.04 68.44H401l-12.01-67.67m-52.59-1.47s.9 32.17 1.8 63.95h3.79l4.49-63.24m10.47-.01v63.25h-4.05l-5.52-63.25"/><path class="st5" d="M378.84 588.59l5.72 61.45h4.43l.58-58.56M260.58 653.5l-14.32 8.22 14.32 6.04 3.91-13.74zm10.78 0l1.93 15.48 11.43-7.06-8.99-8.42zm26.2-3.46l-9.44 8.67 10.85 3.85 4.24-12.52zm16.05 2.31l6.1-1.28 8.99 9.56-11.56 4.95zm24.78-.77l-9.11 6.74 10.08 5.59 3.53-11.95zm14.51 0h4.69l13.42 6.74-8.47 6.42zm32.04-.96c-.26 0-13.16 5.14-13.16 5.14l8.67 5.2 9.12-10.34h-4.63zm15.86 5.65l4.75.32 11.82 6.22-10.53 4.24z"/><g id="Layer_2_2_"><path class="st6" d="M1008.47 515.4s5.41 19.87-10.06 27.33c0 0 11.41 1.2 13.86-11.22s-3.89-16.96-3.89-16.96m1.19 30.92l1.69 41.63s-14.87 6-14.2 6c.68-.09 11.83-1.28 15.55-2.4 0 0-1.18 55.6 1.86 65.88.34 1.03 5.58 12.76 5.58 12.76l7.01-4.28-10.73-8.48s2.28-39.06 2.28-44.12c0-4.97-1.18-23.39-1.18-23.39l-2.96-44.37-4.9.77z"/><path class="st6" d="M1000.36 593.01l-.68 63.56-9.29 10.54s9.13 5.31 9.29 4.97c.17-.26 2.2-15.68 2.2-15.68l2.79-63.48h-4.31v.09zm14.7-43.26l10.05 9.42-8.45 18.85-.08-6.25 4.9-13.11-6.17-4.03z"/></g><g id="Layer_1_2_"><ellipse transform="rotate(-74.342 1002.463 528.576)" class="st4" cx="1002.5" cy="528.58" rx="14.72" ry="10.24"/><path class="st5" d="M999.51 513.69s5.24 4.2 13.18 4.97m-15.63-3.09s7.52 5.65 16.22 6.08m-18.33-3.51s11.83 7.02 18.34 6.17m-14.88 18.33l1.78 3.94 4.64-.68v-4.63m-15.04 7.28l24.67-3.85 2.96 44.29s-15.38 6.68-25.18 2.74l-2.45-43.18zm0 0s-7.69 10.11-11.75 15.85l13.1 19.87-5.15 3.94 1.77 1.63 4.14-.86m-1.51-29.81l-9.13 10.03m5.15-5.66c-.25.26 4.9 11.99 4.9 11.99"/><path class="st5" d="M1014.47 544.7s11.32 7.71 15.63 14.39l-12.76 22.02 6.42 3.34-1.94 2.57-4.65-.86m-2.11-32.21c0 .09 8.62 5.4 12 10.37m-5.33-5.15c0 .69-5.41 13.53-5.41 13.53m-21.54 19.8s.84 50.54 3.46 63.9h3.63l2.79-63.48m1.95-.68l6.42 64.16h3.55s3.97-51.4.76-67.42m-15.89 67.59l-2.62 12.85-8.78-4.71 9.21-8.14m16.98-.08l8.87 6.25-7.6 4.8-4.48-11.05"/></g><path class="st7" d="M994.78 515.83c7.69-.17 15.46.26 23.15 1.28-7.52 1.54-14.87 3.68-22.05 6.25 7.27.51 14.53 1.11 21.88 1.63-8.11 2.74-16.22 5.4-24.34 8.14 7.69-.09 15.46.17 23.15.77-7.6 2.48-15.21 4.97-22.81 7.45-1.44.43-3.21 1.63-2.7 3.08.42 1.03 1.69 1.2 2.79 1.2 7.69.26 15.38.43 23.07.69-4.39 1.54-8.7 3.17-13.1 4.71-2.2.77-4.56 1.63-6.17 3.34 10.39 0 20.87.43 31.26 1.28-10.39 1.03-20.62 3.68-30.33 7.62 8.96 1.46 18.08 1.8 27.12 1.11l-29.91 6.42c9.29.94 18.59 1.97 27.88 2.91a177.788 177.788 0 00-31.77 14.56c9.29-1.11 18.76-1.46 28.14-1.03-10.73 2.31-21.72 4.8-31.26 10.37 11.07-.26 22.14-1.2 33.12-3-9.89 3.34-19.77 7.02-29.41 11.05 9.8-.51 19.52-1.03 29.32-1.54a127.74 127.74 0 00-24.84 11.22c7.94.34 15.89.69 23.74-.26-8.53 3-16.73 6.6-24.67 10.88 8.79-.34 17.58-.6 26.36-.94-9.72 3-19.18 6.42-28.56 10.28 8.53-.26 17.07-.6 25.6-.86-9.46 1.8-18.76 5.05-27.29 9.59 9.13.43 18.34.77 27.46 1.2-5.58 1.88-11.15 3.77-16.82 5.65-3.04 1.03-6.17 2.06-8.37 4.37 12.34.09 24.67.09 36.93.17-12.76 3.51-25.94 5.14-39.04 6.77 10.82 1.71 21.8 2.31 32.7 1.63-7.69 2.23-15.63 3.51-23.66 3.94-5.15.26-10.73.26-14.79 3.51 14.36.86 28.9-.6 42.84-4.45" id="Layer_3_1_"/><g id="Layer_2_3_"><path class="st6" d="M434.82 512.4s-5.07 19.87 9.42 27.33c0 0-10.69 1.2-12.98-11.22s3.64-16.96 3.64-16.96m-1.11 30.92l-1.58 41.63s13.93 6 13.3 6c-.63-.09-11.08-1.28-14.56-2.4 0 0 1.11 55.6-1.74 65.88-.32 1.03-5.22 12.76-5.22 12.76l-6.57-4.28 10.05-8.48s-2.14-39.06-2.14-44.12c0-4.97 1.11-23.39 1.11-23.39l2.77-44.37 4.58.77z"/><path class="st6" d="M442.42 590.01l.63 63.56 8.71 10.54s-8.55 5.31-8.71 4.97c-.16-.26-2.06-15.68-2.06-15.68l-2.61-63.48h4.04v.09zm-13.78-43.26l-9.42 9.42 7.92 18.85.08-6.25-4.59-13.11 5.78-4.03z"/></g><g id="Layer_1_3_"><ellipse transform="rotate(-13.239 440.35 525.533)" class="st4" cx="440.4" cy="525.58" rx="9.63" ry="14.66"/><path class="st5" d="M443.21 510.69s-4.91 4.2-12.35 4.97m14.64-3.09s-7.04 5.65-15.2 6.08m17.18-3.51s-11.08 7.02-17.18 6.17m13.94 18.33l-1.67 3.94-4.35-.68v-4.63m14.09 7.28l-23.11-3.85-2.77 44.29s14.41 6.68 23.59 2.74l2.29-43.18zm0 0s7.2 10.11 11 15.85l-12.27 19.87 4.83 3.94-1.66 1.63-3.88-.86m1.43-29.81l8.55 10.03m-4.83-5.66c.24.26-4.59 11.99-4.59 11.99"/><path class="st5" d="M429.2 541.7s-10.61 7.71-14.64 14.39l11.95 22.02-6.02 3.34 1.82 2.57 4.35-.86m1.98-32.21c0 .09-8.07 5.4-11.24 10.37m4.99-5.15c0 .69 5.07 13.53 5.07 13.53m20.18 19.8s-.79 50.54-3.25 63.9h-3.4l-2.61-63.48m-1.82-.68l-6.02 64.16h-3.32s-3.72-51.4-.71-67.42m14.88 67.59l2.45 12.85 8.23-4.71-8.62-8.14m-15.91-.08l-8.32 6.25 7.13 4.8 4.19-11.05"/></g><path class="st7" d="M447.64 512.83c-7.2-.17-14.49.26-21.69 1.28 7.04 1.54 13.93 3.68 20.66 6.25-6.81.51-13.61 1.11-20.5 1.63 7.6 2.74 15.2 5.4 22.8 8.14-7.2-.09-14.49.17-21.69.77 7.12 2.48 14.25 4.97 21.37 7.45 1.35.43 3.01 1.63 2.53 3.08-.4 1.03-1.58 1.2-2.61 1.2-7.2.26-14.41.43-21.61.69 4.12 1.54 8.15 3.17 12.27 4.71 2.06.77 4.27 1.63 5.78 3.34-9.74 0-19.55.43-29.29 1.28 9.74 1.03 19.31 3.68 28.42 7.62-8.39 1.46-16.94 1.8-25.41 1.11l28.02 6.42c-8.71.94-17.41 1.97-26.12 2.91 10.29 3.77 20.26 8.65 29.76 14.56-8.71-1.11-17.57-1.46-26.36-1.03 10.05 2.31 20.34 4.8 29.29 10.37-10.37-.26-20.74-1.2-31.03-3 9.26 3.34 18.52 7.02 27.55 11.05-9.18-.51-18.28-1.03-27.47-1.54 8.07 2.83 15.91 6.6 23.27 11.22-7.44.34-14.88.69-22.24-.26 7.99 3 15.67 6.6 23.11 10.88-8.23-.34-16.46-.6-24.7-.94 9.1 3 17.97 6.42 26.75 10.28-7.99-.26-15.99-.6-23.98-.86 8.87 1.8 17.57 5.05 25.57 9.59-8.55.43-17.18.77-25.73 1.2 5.22 1.88 10.45 3.77 15.75 5.65 2.85 1.03 5.78 2.06 7.84 4.37-11.56.09-23.11.09-34.59.17 11.95 3.51 24.3 5.14 36.57 6.77-10.13 1.71-20.42 2.31-30.63 1.63 7.2 2.23 14.64 3.51 22.16 3.94 4.83.26 10.05.26 13.85 3.51-13.46.86-27.07-.6-40.13-4.45" id="Layer_3_2_"/><g id="Layer_2_4_"><path class="st6" d="M43.82 512.4s-5.07 19.87 9.42 27.33c0 0-10.69 1.2-12.98-11.22s3.64-16.96 3.64-16.96m-1.11 30.92l-1.58 41.63s13.93 6 13.3 6c-.63-.09-11.08-1.28-14.56-2.4 0 0 1.11 55.6-1.74 65.88-.32 1.03-5.22 12.76-5.22 12.76l-6.57-4.28 10.05-8.48s-2.14-39.06-2.14-44.12c0-4.97 1.11-23.39 1.11-23.39l2.77-44.37 4.58.77z"/><path class="st6" d="M51.42 590.01l.63 63.56 8.71 10.54s-8.55 5.31-8.71 4.97c-.16-.26-2.06-15.68-2.06-15.68l-2.61-63.48h4.04v.09zm-13.78-43.26l-9.42 9.42 7.92 18.85.08-6.25-4.59-13.11 5.78-4.03z"/></g><g id="Layer_1_4_"><ellipse transform="rotate(-13.239 49.39 525.527)" class="st4" cx="49.4" cy="525.58" rx="9.63" ry="14.66"/><path class="st5" d="M52.21 510.69s-4.91 4.2-12.35 4.97m14.64-3.09s-7.04 5.65-15.2 6.08m17.18-3.51s-11.08 7.02-17.18 6.17m13.94 18.33l-1.67 3.94-4.35-.68v-4.63m14.09 7.28L38.2 541.7l-2.77 44.29s14.41 6.68 23.59 2.74l2.29-43.18zm0 0s7.2 10.11 11 15.85l-12.27 19.87 4.83 3.94-1.66 1.63-3.88-.86m1.43-29.81l8.55 10.03m-4.83-5.66c.24.26-4.59 11.99-4.59 11.99"/><path class="st5" d="M38.2 541.7s-10.61 7.71-14.64 14.39l11.95 22.02-6.02 3.34 1.82 2.57 4.35-.86m1.98-32.21c0 .09-8.07 5.4-11.24 10.37m4.99-5.15c0 .69 5.07 13.53 5.07 13.53m20.18 19.8s-.79 50.54-3.25 63.9h-3.4l-2.61-63.48m-1.82-.68l-6.02 64.16h-3.32s-3.72-51.4-.71-67.42m14.88 67.59l2.45 12.85 8.23-4.71-8.62-8.14m-15.91-.08l-8.32 6.25 7.13 4.8 4.19-11.05"/></g><path class="st7" d="M56.64 512.83c-7.2-.17-14.49.26-21.69 1.28 7.04 1.54 13.93 3.68 20.66 6.25-6.81.51-13.61 1.11-20.5 1.63 7.6 2.74 15.2 5.4 22.8 8.14-7.2-.09-14.49.17-21.69.77 7.12 2.48 14.25 4.97 21.37 7.45 1.35.43 3.01 1.63 2.53 3.08-.4 1.03-1.58 1.2-2.61 1.2-7.2.26-14.41.43-21.61.69 4.12 1.54 8.15 3.17 12.27 4.71 2.06.77 4.27 1.63 5.78 3.34-9.74 0-19.55.43-29.29 1.28 9.74 1.03 19.31 3.68 28.42 7.62-8.39 1.46-16.94 1.8-25.41 1.11l28.02 6.42c-8.71.94-17.41 1.97-26.12 2.91 10.29 3.77 20.26 8.65 29.76 14.56-8.71-1.11-17.57-1.46-26.36-1.03 10.05 2.31 20.34 4.8 29.29 10.37-10.37-.26-20.74-1.2-31.03-3 9.26 3.34 18.52 7.02 27.55 11.05-9.18-.51-18.28-1.03-27.47-1.54 8.07 2.83 15.91 6.6 23.27 11.22-7.44.34-14.88.69-22.24-.26 7.99 3 15.67 6.6 23.11 10.88-8.23-.34-16.46-.6-24.7-.94 9.1 3 17.97 6.42 26.75 10.28-7.99-.26-15.99-.6-23.98-.86 8.87 1.8 17.57 5.05 25.57 9.59-8.55.43-17.18.77-25.73 1.2 5.22 1.88 10.45 3.77 15.75 5.65 2.85 1.03 5.78 2.06 7.84 4.37-11.56.09-23.11.09-34.59.17 11.95 3.51 24.3 5.14 36.57 6.77-10.13 1.71-20.42 2.31-30.63 1.63 7.2 2.23 14.64 3.51 22.16 3.94 4.83.26 10.05.26 13.85 3.51-13.46.86-27.07-.6-40.13-4.45" id="Layer_3_3_"/><path class="st6" d="M1109.49 106.7c-2.37 1.91-30.9 35.65-30.9 35.65s-1.15 12.32 0 11.4 38.48-45.28 38.48-45.28l-7.58-1.77z" id="Layer_2_1_"/><g id="Layer_1_1_"><ellipse class="st5" cx="1016.48" cy="76.64" rx="10.71" ry="17.06"/><path class="st5" d="M1019.92 92.78v4.89h-6.57v-4.74m17.13 4.74h-28.69l2.91 56.84h22.49zm-28.69 0l-10.93 26.47 2.44 35.11h4.36l1.38-32.13 3.67-10.7"/><path class="st5" d="M997.59 159.17l3.13 5.51-2.37 1.38-2.52-2.68-.61 11.47-5.05-4.74 3.06-10.94m5.81-32.05l-8.18-2.98m39.54-26.47l10.94 26.47-2.45 35.11h-4.43l-1.3-32.13-3.75-10.7"/><path class="st5" d="M1034.53 159.17l-3.13 5.51 2.44 1.38 2.45-2.68.69 11.47 4.97-4.74-3.06-10.94m-5.73-32.05l8.18-2.98m-14.15 30.37l12.01 86.66-13.92 8.11h-19.89l-11.17-8.87 10.48-85.9m20.58 94.77l13.92 5.97-8.8 4.36-9.71-10.33m-9.95 0l-7.49 10.33-9.03-4.44 11.17-5.89m95.84-151.22h-9.48c-4.51 0-8.26-3.75-8.26-8.26V70.75c0-4.51 3.75-8.26 8.26-8.26h9.48c4.51 0 8.26 3.75 8.26 8.26V89.8c0 4.59-3.74 8.26-8.26 8.26z"/><path class="st5" d="M1083.41 79.7s5.2 2.37 8.18 1.38c2.98-1.07 6.12-1.45 10.56 0s7.34-1.68 7.34-1.68"/><path class="st5" d="M1075.07 103.49c2.45-8.03 2.07-31.74 3.75-40.69 1.91-10.25 17.75-7.27 17.75-7.27s13.92-2.83 17.06 4.28c3.14 7.11.61 39.24 7.88 46.28 0 0-2.52.76-4.44 1.3m-33.66-30.44s-6.04 2.37 0 7.11m26.54-7.11s6.04 2.37 0 7.11"/><path class="st5" d="M1092.67 98.44c-.54-.46-.08 5.81-.08 5.81l9.03.23v-6.12c.07.08-6.81 1.76-8.95.08z"/><path class="st5" d="M1079.66 105.17s24.71-2.68 37.79 2.37c0 0-8.03 80.78 9.79 123.46 0 0-39.85 12.62-62.8-9.64 0 0 14-66.01 14-74.35s1.22-41.84 1.22-41.84z"/><path class="st5" d="M1105.52 105.4l-27.08 33.73-.54 13.16 38.71-43.91zm-53.32-29.83l-10.4 9.94 21.34 34.42 15.3-3.74 1.22-11.02-9.94-3.67-2.22-25.93-7.27-2.68"/><path class="st5" d="M1054.27 66.47l-4.13-6.65 4.9-19.81h1.76v11.32s3.44 3.75 3.9 3.44 2.52-1.45 2.52-1.45l1.3 3.29-5.97 9.94 3.14 11.78-4.36 5.74-5.58-2.91 2.52-14.69z"/><path class="st5" d="M1051.67 53.23l6.58 2.99.84 3.9m-8.34-3.14l4.21 2.22.76 3.29m83.45 89.8l-17.74 11.01-5.13-39.39 1.61-14.61zm-11.01 7.57l4.36 7.5 7.8 3.36 2.91-1.76-9.33-13.15"/><path class="st5" d="M1128.16 159.86l-1.45 5.74 1.22 2.98h1.22l1.92-4.2m-46.51 68.68l2.52 11.48h1.53l2.53-10.56m19.04.92l-2.52 11.4h-1.53l-2.83-11.71m-16.29 9.95l-19.81 2.52 7.72 8.03 14.76-8.03zm20.73 1.76l19.81 2.52-7.73 8.03-14.76-8.03z"/><ellipse class="st5" cx="1059.24" cy="300.84" rx="14" ry="20.73"/><path class="st5" d="M1039.28 327.68s19.05-12.24 37.86 0l5.51 54.46s-32.36 12.09-48.34 0l4.97-54.46z"/><path class="st5" d="M1036.37 383.52l5.58 11.86s12.39 3.9 30.75 0l5.66-11.86m-39.16-54.92l-17.29 51.25-15.6 3.75s1.61 4.44 2.07 3.98c.46-.46 14.38-1.45 14.38-1.45l4.67 2.45 3.06-2.29-2.45-5.12 8.64-25.4m40.54-27.47l17.75 51.48 15.6 3.75s-1.61 4.44-2.07 3.98c-.46-.46-14.38-1.45-14.38-1.45l-4.67 2.45-3.06-2.29 2.45-5.12-8.72-24.63"/><ellipse transform="rotate(-79.181 1132.553 279.445)" class="st3" cx="1132.52" cy="279.44" rx="18.2" ry="12.24"/><path class="st5" d="M1141.62 289.67l2.76 4.51m-9.49 48.19l-12.24 4.44-6.12-3.06 11.63-43.06 20.81-8.18s10.71 14.15 17.75 57.98c0 0-18.74 7.42-31.13 4.36l-2.45-39.93m.45 7.95c0 .54-4.05 15.68-9.87 23.56"/><path class="st5" d="M1116.53 343.75l-15.07 4.97v11.63s15.3 12.09 24.71 12.24c9.41.15 32.51-2.83 35.03-7.42 2.52-4.59 4.36-14.3 4.36-14.3m-30.13 2.44s-10.48-4.21-24.78-4.97m112.28-200.56l-5.81 76.41h5.81l10.94-76.41z"/><path class="st5" d="M1225.46 224.19l-53.55-1.45.92 12.77 52.63-2.52zm-47.5 11.09l3.74 44.98h3.52v-44.75m37.71-2.37v46.43h-5.81l-2.37-46.05m-29.53 20.66h30.6m-30.6 5.58l30.83-.92"/><ellipse transform="rotate(-88.298 1205.225 143.325)" class="st8" cx="1205.29" cy="143.32" rx="18.59" ry="12.55"/><path class="st5" d="M1199.53 213.79c-2.68.31-4.59.54-4.59.54s6.5-16.9 5.51-45.67c0 0 14.61-5.74 15.3-5.51.69.23 5.05 17.82 2.22 48.5 0 0-6.35.76-12.39 1.45"/><path class="st5" d="M1206.33 173.4l-7.65 45.89-11.86 1.15s-.31 1.15-.61 2.45m16.45 1.3l9.56-40.39"/><path class="st5" d="M1194.94 214.25l-30.52.61-4.36 40.85 9.48 2.06 1.22 10.33h4.21l.92-32.59m-5.13 32.59c-1.84.31-18.43 7.27-18.43 7.27l12.09 4.9 10.56-12.16"/><path class="st5" d="M1170.38 264.89l-20.65 1.37 7.04 7.27m47.96-111.6l.15 5.05m5.43-6.74l.84 3.83"/><ellipse transform="rotate(-10.819 983.384 279.496)" class="st3" cx="983.36" cy="279.49" rx="12.24" ry="18.2"/><path class="st5" d="M974.26 289.75l-2.76 4.51m9.41 48.19l12.24 4.44 6.12-3.06-11.63-43.06-20.81-8.18s-10.71 14.15-17.75 57.98c0 0 18.74 7.42 31.13 4.36l2.45-39.93m-.37 7.94c0 .54 4.05 15.68 9.87 23.56"/><path class="st5" d="M999.27 343.82l15.07 4.97v11.63s-15.3 12.09-24.71 12.24c-9.41.15-32.51-2.83-35.03-7.42-2.52-4.59-4.36-14.3-4.36-14.3m30.14 2.52s10.48-4.21 24.78-4.97"/><ellipse transform="rotate(-1.702 911.832 138.004)" class="st8" cx="911.15" cy="137.91" rx="12.55" ry="18.59"/><path class="st5" d="M906.18 154.81l-.92 3.83m6.43-2.14l-.16 4.97m5.36 46.81c2.68.31 4.59.54 4.59.54s-6.5-16.9-5.51-45.67c0 0-14.61-5.74-15.3-5.51s-5.05 17.82-2.22 48.5c0 0 6.35.76 12.39 1.45"/><path class="st5" d="M910.16 167.89l7.65 45.89 11.86 1.15s.31 1.15.61 2.45m-16.53 1.38l-9.48-40.39"/><path class="st5" d="M921.48 208.82l30.6.61 7.87 29.37-11.62 1.68-2.68 22.19h-4.13l-.99-32.59m5.12 32.59c1.84.31 18.43 7.27 18.43 7.27l-12.09 4.9-10.56-12.16"/><path class="st5" d="M946.03 259.45l20.66 1.38-6.97 7.27m-66.16-125.75l5.81 76.41h-5.81l-10.94-76.41z"/><path class="st5" d="M890.96 218.76l53.54-1.45-.92 12.77-52.62-2.52zm47.5 11.09l-3.75 44.98h-3.44v-44.75"/><path class="st5" d="M893.56 227.63v46.51h5.81l2.3-46.05m29.6 20.66H900.6m30.67 5.58l-30.9-.92"/></g><path class="st9" d="M1101.85 105.78l26.08.69c-11.17 1.07-22.41.99-33.66.92 8.64 1.91 17.52 2.75 26.39 2.45-8.34.61-16.6 1.84-24.78 3.67 8.03.46 16.06.92 24.09 1.45-10.02-.08-20.04.31-30.06 1.22.38 1.38 2.14 1.68 3.6 1.68 5.43.15 10.86.23 16.29.38-7.65 0-15.3.46-22.87 1.45 7.19 3.06 15.45.92 23.18 1.99-10.79.23-21.57 1.45-32.13 3.75 9.41 1.15 18.89 1.76 28.38 1.99-9.33 1.53-19.2-.46-28.3 2.29 8.34 1.38 16.83 1.76 25.24 1.3-9.18.46-18.36.99-27.46 1.45 7.19.46 14.3.92 21.49 1.3-8.34 1.61-16.68 3.21-25.01 4.82 7.57.69 15.15 1.3 22.72 1.99-5.58.92-11.17 1.91-16.75 2.83 4.82-.76 9.79-1.07 14.69-.84-6.73 1.53-13.62 2.68-20.5 3.37 4.9-.31 9.87-.38 14.76-.31-5.2.38-10.4 1.38-15.37 3.06 7.73 1.84 15.83 2.22 23.71.99" id="Layer_4"/><path class="st6" d="M447.5 102.7c-2.37 1.91-30.9 35.65-30.9 35.65s-1.15 12.32 0 11.4 38.48-45.28 38.48-45.28l-7.58-1.77z" id="Layer_2_5_"/><g id="Layer_1_5_"><ellipse class="st5" cx="354.48" cy="72.64" rx="10.71" ry="17.06"/><path class="st5" d="M357.92 88.78v4.89h-6.57v-4.74m17.13 4.74h-28.69l2.91 56.84h22.49zm-28.69 0l-10.93 26.47 2.44 35.11h4.36l1.38-32.13 3.67-10.7"/><path class="st5" d="M335.59 155.17l3.13 5.51-2.37 1.38-2.52-2.68-.61 11.47-5.05-4.74 3.06-10.94m5.81-32.05l-8.18-2.98m39.54-26.47l10.94 26.47-2.45 35.11h-4.43l-1.3-32.13-3.75-10.7"/><path class="st5" d="M372.53 155.17l-3.13 5.51 2.44 1.38 2.45-2.68.69 11.47 4.97-4.74-3.06-10.94m-5.73-32.05l8.18-2.98m-14.15 30.37l12.01 86.66-13.92 8.11h-19.89l-11.17-8.87 10.48-85.9m20.58 94.77l13.92 5.97-8.8 4.36-9.71-10.33m-9.95 0l-7.49 10.33-9.03-4.44 11.17-5.89m95.84-151.22h-9.48c-4.51 0-8.26-3.75-8.26-8.26V66.75c0-4.51 3.75-8.26 8.26-8.26h9.48c4.51 0 8.26 3.75 8.26 8.26V85.8c.01 4.59-3.74 8.26-8.26 8.26z"/><path class="st5" d="M421.41 75.7s5.2 2.37 8.18 1.38c2.98-1.07 6.12-1.45 10.56 0s7.34-1.68 7.34-1.68"/><path class="st5" d="M413.07 99.49c2.45-8.03 2.07-31.74 3.75-40.69 1.91-10.25 17.75-7.27 17.75-7.27s13.92-2.83 17.06 4.28c3.14 7.11.61 39.24 7.88 46.28 0 0-2.52.76-4.44 1.3m-33.66-30.44s-6.04 2.37 0 7.11m26.54-7.11s6.04 2.37 0 7.11"/><path class="st5" d="M430.67 94.44c-.54-.46-.08 5.81-.08 5.81l9.03.23v-6.12c.07.08-6.81 1.76-8.95.08z"/><path class="st5" d="M417.66 101.17s24.71-2.68 37.79 2.37c0 0-8.03 80.78 9.79 123.46 0 0-39.85 12.62-62.8-9.64 0 0 14-66.01 14-74.35s1.22-41.84 1.22-41.84z"/><path class="st5" d="M443.52 101.4l-27.08 33.73-.54 13.16 38.71-43.91zM390.2 71.57l-10.4 9.94 21.34 34.42 15.3-3.74 1.22-11.02-9.94-3.67-2.22-25.93-7.27-2.68"/><path class="st5" d="M392.27 62.47l-4.13-6.65 4.9-19.81h1.76v11.32s3.44 3.75 3.9 3.44 2.52-1.45 2.52-1.45l1.3 3.29-5.97 9.94 3.14 11.78-4.36 5.74-5.58-2.91 2.52-14.69z"/><path class="st5" d="M389.67 49.23l6.58 2.99.84 3.9m-8.34-3.14l4.21 2.22.76 3.29m83.45 89.8l-17.74 11.01-5.13-39.39 1.61-14.61zm-11.01 7.57l4.36 7.5 7.8 3.36 2.91-1.76-9.33-13.15"/><path class="st5" d="M466.16 155.86l-1.45 5.74 1.22 2.98h1.22l1.92-4.2m-46.51 68.68l2.52 11.48h1.53l2.53-10.56m19.04.92l-2.52 11.4h-1.53l-2.83-11.71m-16.29 9.95l-19.81 2.52 7.72 8.03 14.76-8.03zm20.73 1.76l19.81 2.52-7.73 8.03-14.76-8.03z"/><ellipse class="st5" cx="397.24" cy="296.84" rx="14" ry="20.73"/><path class="st5" d="M377.28 323.68s19.05-12.24 37.86 0l5.51 54.46s-32.36 12.09-48.34 0l4.97-54.46z"/><path class="st5" d="M374.37 379.52l5.58 11.86s12.39 3.9 30.75 0l5.66-11.86M377.2 324.6l-17.29 51.25-15.6 3.75s1.61 4.44 2.07 3.98c.46-.46 14.38-1.45 14.38-1.45l4.67 2.45 3.06-2.29-2.45-5.12 8.64-25.4m40.54-27.47l17.75 51.48 15.6 3.75s-1.61 4.44-2.07 3.98c-.46-.46-14.38-1.45-14.38-1.45l-4.67 2.45-3.06-2.29 2.45-5.12-8.72-24.63"/><ellipse transform="rotate(-79.181 470.536 275.445)" class="st3" cx="470.52" cy="275.44" rx="18.2" ry="12.24"/><path class="st5" d="M479.62 285.67l2.76 4.51m-9.49 48.19l-12.24 4.44-6.12-3.06 11.63-43.06 20.81-8.18s10.71 14.15 17.75 57.98c0 0-18.74 7.42-31.13 4.36l-2.45-39.93m.45 7.95c0 .54-4.05 15.68-9.87 23.56"/><path class="st5" d="M454.53 339.75l-15.07 4.97v11.63s15.3 12.09 24.71 12.24c9.41.15 32.51-2.83 35.03-7.42 2.52-4.59 4.36-14.3 4.36-14.3m-30.13 2.44s-10.48-4.21-24.78-4.97m112.28-200.56l-5.81 76.41h5.81l10.94-76.41z"/><path class="st5" d="M563.46 220.19l-53.55-1.45.92 12.77 52.63-2.52zm-47.5 11.09l3.74 44.98h3.52v-44.75m37.71-2.37v46.43h-5.81l-2.37-46.05m-29.53 20.66h30.6m-30.6 5.58l30.83-.92"/><ellipse transform="rotate(-88.298 543.26 139.318)" class="st8" cx="543.29" cy="139.32" rx="18.59" ry="12.55"/><path class="st5" d="M537.53 209.79c-2.68.31-4.59.54-4.59.54s6.5-16.9 5.51-45.67c0 0 14.61-5.74 15.3-5.51s5.05 17.82 2.22 48.5c0 0-6.35.76-12.39 1.45"/><path class="st5" d="M544.33 169.4l-7.65 45.89-11.86 1.15s-.31 1.15-.61 2.45m16.45 1.3l9.56-40.39"/><path class="st5" d="M532.94 210.25l-30.52.61-4.36 40.85 9.48 2.06 1.22 10.33h4.21l.92-32.59m-5.13 32.59c-1.84.31-18.43 7.27-18.43 7.27l12.09 4.9 10.56-12.16"/><path class="st5" d="M508.38 260.89l-20.65 1.37 7.04 7.27m47.96-111.6l.15 5.05m5.43-6.74l.84 3.83"/><ellipse transform="rotate(-10.819 321.367 275.496)" class="st3" cx="321.36" cy="275.49" rx="12.24" ry="18.2"/><path class="st5" d="M312.26 285.75l-2.76 4.51m9.41 48.19l12.24 4.44 6.12-3.06-11.63-43.06-20.81-8.18s-10.71 14.15-17.75 57.98c0 0 18.74 7.42 31.13 4.36l2.45-39.93m-.37 7.94c0 .54 4.05 15.68 9.87 23.56"/><path class="st5" d="M337.27 339.82l15.07 4.97v11.63s-15.3 12.09-24.71 12.24-32.51-2.83-35.03-7.42c-2.52-4.59-4.36-14.3-4.36-14.3m30.14 2.52s10.48-4.21 24.78-4.97"/><ellipse transform="rotate(-1.702 249.34 134.01)" class="st8" cx="249.15" cy="133.91" rx="12.55" ry="18.59"/><path class="st5" d="M244.18 150.81l-.92 3.83m6.43-2.14l-.16 4.97m5.36 46.81c2.68.31 4.59.54 4.59.54s-6.5-16.9-5.51-45.67c0 0-14.61-5.74-15.3-5.51-.69.23-5.05 17.82-2.22 48.5 0 0 6.35.76 12.39 1.45"/><path class="st5" d="M248.16 163.89l7.65 45.89 11.86 1.15s.31 1.15.61 2.45m-16.53 1.38l-9.48-40.39"/><path class="st5" d="M259.48 204.82l30.6.61 7.87 29.37-11.62 1.68-2.68 22.19h-4.13l-.99-32.59m5.12 32.59c1.84.31 18.43 7.27 18.43 7.27l-12.09 4.9-10.56-12.16"/><path class="st5" d="M284.03 255.45l20.66 1.38-6.97 7.27m-66.16-125.75l5.81 76.41h-5.81l-10.94-76.41z"/><path class="st5" d="M228.96 214.76l53.54-1.45-.92 12.77-52.62-2.52zm47.5 11.09l-3.75 44.98h-3.44v-44.75"/><path class="st5" d="M231.56 223.63v46.51h5.81l2.3-46.05m29.6 20.66H238.6m30.67 5.58l-30.9-.92"/></g><path class="st9" d="M439.85 101.78l26.08.69c-11.17 1.07-22.41.99-33.66.92 8.64 1.91 17.52 2.75 26.39 2.45-8.34.61-16.6 1.84-24.78 3.67 8.03.46 16.06.92 24.09 1.45-10.02-.08-20.04.31-30.06 1.22.38 1.38 2.14 1.68 3.6 1.68 5.43.15 10.86.23 16.29.38-7.65 0-15.3.46-22.87 1.45 7.19 3.06 15.45.92 23.18 1.99-10.79.23-21.57 1.45-32.13 3.75 9.41 1.15 18.89 1.76 28.38 1.99-9.33 1.53-19.2-.46-28.3 2.29 8.34 1.38 16.83 1.76 25.24 1.3-9.18.46-18.36.99-27.46 1.45 7.19.46 14.3.92 21.49 1.3-8.34 1.61-16.68 3.21-25.01 4.82 7.57.69 15.15 1.3 22.72 1.99-5.58.92-11.17 1.91-16.75 2.83 4.82-.76 9.79-1.07 14.69-.84-6.73 1.53-13.62 2.68-20.5 3.37 4.9-.31 9.87-.38 14.76-.31-5.2.38-10.4 1.38-15.37 3.06 7.73 1.84 15.83 2.22 23.71.99" id="Layer_4_1_"/><path d="M726.65 146.59v118.25m-61.13-61.15h116.52" stroke="#000" stroke-width="6" fill="none" stroke-miterlimit="10"/></svg>