<svg id="Layer_1" xmlns="http://www.w3.org/2000/svg" viewBox="0 0 541 119"><style>.st0{stroke:#fff;stroke-width:2;stroke-miterlimit:10}.st0,.st1{fill:none}.st2{fill:#fff}.st3{font-family:&apos;MyriadPro-Regular&apos;}.st4{font-size:60px}</style><path class="st0" d="M428.73 14.72l6.7 41.8-8 11.5 18.3 26.7 10.5.8 4.2-6.4.1-32.6 10.8-4-2-9-13.1 6.7-6.9-39.5m67.7 4l-6.8 41.8 8.1 11.5-18.3 26.7-10.5.8-4.2-6.4-.1-32.6-10.8-4 1.9-9 13.2 6.7 6.8-39.5"/><path class="st0" d="M429.13 69.32c-1.7 2-4.5 6.3-5.5 12.3-1.3 8.7 5.7 12.3 6.7 16.3s8.6 14.3 15.1 10.3 12.6-5 14.9-5c2.3 0 9.6-3.3 9.6-3.3l22.6 5s16.9-1.3 19-2.5 5.8-4.8 7.4-12.5c1.7-7.7 0-17.3 0-17.3s-.8-1.2-1.8-2.8m-38.3-15.5h-6.6c-1.2 0-2.8-.3-4.4-.6m-17.1 41.4l-11.2-20.7m16.7 21.1l-11-25m13.7 21l-6-21.6m33.9 21.6l5.9-21.6m-3.2 25.6l11-25m-5.5 24.6l11.2-20.7m-71.4 20.9s0 4.7 2.2 7m0-11.2s.5 7.5 5 11.2m31.7-41.2s3.7-.4 6.1 0m1.6 4.8c-.4-.3-7.8-2.3-10.1-1.3m-2.5 23s4.3 3.5 7.2 3.1m-8.9.8c.5 0 4.8 3.2 7.1 3.1m34.5 3.2s3.4-3.2 3.6-6.4m-8.1 7.7s5.1-5.6 4.6-11.3M64 34.66s-6.43-1.12-10.04-1.25-7.88-.66-9.85.59c-1.97 1.25-10.44 4.73-11.29 4.99-.85.26-5.45 2.23-5.45 2.23l-9.52 4.73-4.59 6.5s-4.27 3.68-4.27 8.4v9.52c0 4.4-.79 24.42 12.4 27.83s20.74 12.01 31.9 11.35c11.16-.66 23.63-1.97 23.63-1.97s4.59 1.64 10.5-1.31 11.16-3.08 13.46-6.76c2.3-3.68 2.3-6.1 4.92-9.85 2.63-3.68 3.94-3.35 5.25-6.96s0-12.47 0-12.47-1.31-16.54-7.88-20.94-7.88-6.37-10.17-8.34c-2.3-1.97-6.56-2.82-9.85-3.41-3.28-.53-8.53 3.54-11.16 1.51-2.67-2.09-7.99-4.39-7.99-4.39zM18.45 84.21s1.44 5.38 6.56 8.53m-5.05-10.1s3.28 6.83 6.69 8.01m3.81-42.14s-4.73 4-6.24 8.66m2.44-8.66s-2.63.72-4.07 4.33m19.82 22.45s2.76 5.05 5.91 6.24m-7.22-3.16s1.84 4 4.27 4.66m22.11 13.26s7.15 2.49 11.55-2.43M67.87 99.9s6.76 2.63 11.16-2.03m19.5-33.02s.79 6.04-2.3 9.25m4.59-11.22s1.58 9.98-3.41 13.91M76.08 50.67s3.28.2 3.94 2.17m-4.6-4.33s4.73-1.97 7.35 2.17m-5.44 16.67s-.92 4.07-4.66 5.05m6.76-3.09s-1.31 4.4-4.73 4.99M239.45 7l5.2 29h14.1l7.3-33.4M243.95 36l-10.3 3.5s-8.5 16-7.7 16.2 7.7 4.2 8.2 3.8 11.9-10.8 12.5-10.8c.5 0 40.9 7.7 40.9 7.7l8.7-8.6-37.3-11.8m32.8 15.4l-29.9-8.7"/><ellipse class="st0" cx="257.45" cy="64" rx="2.8" ry="3.2"/><ellipse class="st0" cx="244.45" cy="77.7" rx="2.6" ry="3"/><circle class="st0" cx="256.55" cy="75" r=".8"/><ellipse class="st0" cx="269.25" cy="74.5" rx="2.7" ry="3.1"/><ellipse class="st0" cx="261.45" cy="87.6" rx="3" ry="3.8"/><ellipse class="st0" cx="247.65" cy="97.2" rx="2.5" ry="2.9"/><circle class="st0" cx="275.95" cy="84" r=".8"/><circle class="st0" cx="260.95" cy="101" r=".8"/><path class="st1" d="M154.73 44.39h56.57v51h-56.57z"/><text transform="translate(154.725 86.99)" class="st2 st3 st4">+</text><path class="st1" d="M342.73 44.39h56.57v51h-56.57z"/><text transform="translate(342.725 86.99)" class="st2 st3 st4">+</text></svg>