<svg version="1" xmlns="http://www.w3.org/2000/svg" width="432" height="432"><path fill="none" stroke="#000" stroke-width="2" stroke-miterlimit="10" d="M159.2 241.5l11.2-10.5 8.2 2.2 5-5.8H195l12.8 3s9.2-5.2 9.8-6 8.2 0 8.2 0l9 8.3 11.8-2.8h9.8l7 6.5 10.5 5"/><path fill="none" stroke="#000" stroke-width="2" stroke-miterlimit="10" d="M189.5 227.5l-6.3-31.2 14.7 31.9 1.3.3 10-38.7.5 39.6m22.3.9l-10.2-28.8 14.7 22 12.4-31.6-3.9 33.9 25.2-14.7L254 230m-69.8 11.5h-4.6l-.7 5.1h8.3zm16.2 2.6l5.5-2.6m-5.5 6.6c.6 0 8-4.1 8-4.1m18.6-5.6l5.5 4.4m18.9 0l-5.4-1.3-1.9 4.6 4.4 2z"/></svg>