<svg version="1" xmlns="http://www.w3.org/2000/svg" width="432" height="432"><path fill="none" stroke="#000" stroke-width="2" stroke-miterlimit="10" d="M104.5 257.5s109 36 224.7 0v-49c-115.8 36-224.7 0-224.7 0v49zm2.7-43.3L92 194.8m15.2 59.2L92 266.5m231.9-52.2l15.3-19.5M323.9 254l15.3 12.5M112.5 131.8s71.7 69.6 208.3 66.4m0-66.4s-71.7 69.6-208.3 66.4"/><path fill="none" stroke="#000" stroke-width="2" stroke-miterlimit="10" d="M207.2 203.5l-5.2 7 6.2 1.5zm-68.8-28.3l5.7-3.7 2.1 11.7zM83 233l5.5 2.1s-6.2 8.6-6.2 7.9.7-10 .7-10zm55.4 43l-7.2 11h7.2zm30.8 11h8l-2.2 9.5zm51 1.8l-1.4 10.2 10-2.5zm32.8-84.3h8.5l-4.3 9.8zm-41.5-43.7l-4.7 9.2h8.4zm70 16.6l-3 8.6 14.5-2.8zm14.7 104.1l5.3 3.5-7.5 6.8zm44.8-36.7l7-11.8 1.3 13.8zm-175.7-40.3l-1.6 7.5 9.5-1.7z"/></svg>