<svg version="1" xmlns="http://www.w3.org/2000/svg" width="288" height="288"><circle transform="rotate(-73.016 143.78 144.358)" fill="none" stroke="#000" stroke-width="4" stroke-miterlimit="10" cx="143.8" cy="144.4" r="16.5"/><path fill="none" stroke="#000" stroke-width="4" stroke-miterlimit="10" d="M182.6 163.1l4.1-13.4-10-3.1c.3-3.9-.2-7.8-1.2-11.4l9.4-5-6.6-12.4-9.5 5c-2.5-2.9-5.4-5.3-8.8-7.2l3.1-10.3-13.4-4.1-3.2 10.4c-3.9-.3-7.7.1-11.3 1.1l-5-9.5-12.4 6.6 5 9.4c-2.9 2.4-5.4 5.4-7.4 8.8l-10-3.1-4.1 13.4 9.9 3c-.4 4 0 7.9 1 11.7l-9 4.8 6.6 12.4 8.9-4.8c2.5 3 5.6 5.6 9.1 7.6l-2.9 9.6 13.4 4.1 2.9-9.6c4 .3 8-.1 11.8-1.2l4.8 8.9 12.4-6.6-4.8-9c2.9-2.5 5.5-5.6 7.4-9.1l9.8 3z"/></svg>