<svg version="1" xmlns="http://www.w3.org/2000/svg" width="432" height="432"><path d="M169.8 77.1s-14.8 32.2 5.5 44.2c0 0-15.1 6.3-19.2-17.7-3.6-21.1 13.7-26.5 13.7-26.5zM154.2 128l-2 83.6 3.7 1.5h7.7l-5.1-4.9 2-80.2zm7.8 85.1v122.7l27.8 10.5-12 8.8-18.8-18.7-3.1-123.3z" fill="#27AAE1"/><g fill="none" stroke="#000" stroke-width="2" stroke-miterlimit="10"><ellipse cx="170.8" cy="99.7" rx="14.9" ry="22.7"/><path d="M161.4 79.1c.5 0 9.8 2 18.4-.8m-21.3 4.1s14.1 2.2 23.6-.6m-26.2 3.4c2.1.8 19.5 3.9 27.9-1.1m-17.6 37.2v6.7h7.6v-6.1m-10.2 91.2c-4.4.2-8.9 0-11.3-1.5l2-83.6h30.4l-8.7 83.6s-1.7.3-4.2.7"/><path d="M163 137l-4 42.3 5.8 45.7 7.2 14 9.2-5.8-7.4-9.2 5.3.6.5-4.1-7.4-2.4-2.8-39 5-38.9"/><path d="M155.9 213.1l3.1 122.6h6.8s4.5-61.5 7.1-97.8m1.4-19.7c.3-4.1.5-6.5.5-6.5"/><path d="M171.9 251v81h-6.6m.5 3.8l25 8.2-12.6 7.8-19.2-16m12.9-3.8l17.9 1.1-9 7.6"/><ellipse cx="261.2" cy="99.7" rx="14.9" ry="22.7"/><path d="M265.8 121.3v6.7h-7.6v-6.1m10.2 91.2c4.4.2 8.9 0 11.3-1.5l-2-83.6h-30.4l-1 83.8s11.3.1 13.8.5"/><path d="M269 137l4 42.3-5.8 45.7-7.2 14-9.2-5.8 7.4-9.2-5.3.6-.5-4.1 7.4-2.4 2.8-39-5-38.9"/><path d="M275.1 213.1L272 335.8h-6.8s-4.1-56.5-7.1-97.4m-1.3-19.6c-.2-2.2-.3-4.3-.4-6.2"/><path d="M249.6 212.6l9.5 119.4h6.6m-.5 3.8l-25 8.2 12.6 7.8 19.2-16m-12.9-3.8l-17.9 1.1 9 7.6"/></g></svg>