<svg version="1" xmlns="http://www.w3.org/2000/svg" width="432" height="432"><path fill="none" stroke="#000" stroke-width="2" stroke-miterlimit="10" d="M155.5 247.5l12.2 1.8s7.2-.8 8.2-.9 7.5-.4 10 0 12.5-.4 13.5-.9 8.2 1 8.9.9 8.1-3.9 10.6-3 9 2.1 12 1.9c3-.2 16.5.2 17.1 0 .6-.2 5.4-1.2 7.2-1s12.9 1 12.9 1h9.5M191 198v50.5m-.6-50.3s-11.6-9.6-11.3-13.2 9.1 1.2 11.3 13.2zm12-13.2c-.3-3.6-9 1.2-11.3 13.2m0 0s11.6-9.6 11.3-13.2M189 226s-11.8-15.8-14-11.1 14 11.1 14 11.1zm4.8 0s11.8-15.8 14-11.1-14 11.1-14 11.1zm45.2-28v49.2m-.6-49s-11.6-9.6-11.3-13.2 9.1 1.2 11.3 13.2zm12-13.2c-.3-3.6-9 1.2-11.3 13.2m0 0s11.6-9.6 11.3-13.2M237 226s-11.8-15.8-14-11.1 14 11.1 14 11.1zm4.8 0s11.8-15.8 14-11.1-14 11.1-14 11.1z"/></svg>