<svg version="1" xmlns="http://www.w3.org/2000/svg" width="432" height="432"><g fill="#27AAE1"><path d="M168.6 78s-20.3 25.6 2.3 45.3c0 0-13.5-2.5-14.7-18.7-1.2-16.4 7.3-25.4 12.4-26.6zm-10 52s.1 76.8 1.1 77.8 18.5 5.8 18.5 5.8-7.3 1.4-14.8.8l-13.7 108.9 19.7 9.7-10.2 12.1-13.8-21.9 6.9-113.3 1.9-81c.2.1 6.3 1.6 4.4 1.1z"/><path d="M172.8 215.1l5.4 108.1 24.3 7.1-10 9.7-17.7-16.8-7.9-91.4 1.7-16.7z"/></g><g fill="none" stroke="#000" stroke-width="2" stroke-miterlimit="10"><ellipse cx="170.9" cy="100.6" rx="14.9" ry="22.7"/><path d="M161.5 80.1c.5 0 9.8 2 18.4-.8m-21.3 4s14.1 2.2 23.6-.6M156 86.2c2.1.8 19.5 3.9 27.9-1.1m-17.5 37.1v6.8h7.5v-6.2m8.6 41c1.2-18.2 2.3-34.8 2.3-34.8h-30.4s-1.6 67-1.9 81c0 0 12.1 8.4 26.7 3.6l2.5-37.1"/><ellipse transform="rotate(-9.355 265.297 101.218)" cx="265.3" cy="101.2" rx="14.9" ry="22.7"/><path d="M272.9 122.2v6.8h-7.5v-6.2"/><path d="M275.5 214c4.4.2 8.9 0 11.3-1.5l-2-83.6h-30.4l-1 83.8s11.3.1 13.8.5"/><path d="M276.1 138l4 42.3-5.7 45.7-7.3 14-9.2-5.8 7.5-9.2-5.4.6-.5-4.1 7.4-2.4 2.9-39-5-38.9"/><path d="M282.3 214.1l-3.1 122.6h-6.8s-4.1-56.5-7.1-97.4m-1.4-19.5c-.2-2.2-.3-4.3-.4-6.2"/><path d="M256.8 213.6l9.4 119.4h6.6m-.4 3.7l-25 8.3 12.5 7.7 19.2-16m-12.9-3.7l-17.8 1.1 8.9 7.6M152.4 210l-6.9 113.3h6.9s16.3-95.4 16.2-108.2"/><path d="M167.6 226.3l7.2 96.9h8l-3.6-109.6M164.7 141l21.1 27H213l5-6 1.7 1.3-1.4 4.7H231l-5 5.7-44.4 3.4-20.1-22.4"/><path d="M183.5 147.8l10.8 11.7 24.4-3 1.5-4.6h3.4v4.2l9.9.6-1.4 5.2s-5.6.8-12.8 1.9m-3.3.6c-11.5 1.7-25 3.6-25 3.6l-8.2-9.5m-37.3 164.7l15.5 19.5 9.8-11.4-18.4-8.1m22.4 0l16.6 14.1s11.7-9.8 11.2-9.8-19.8-4.2-19.8-4.2"/></g><path fill="none" d="M154.7 80.8c6.1.1 12.3.1 18.4.2-8.6 2.9-17.2 5.9-25.8 8.8 6.6 0 13.1.3 19.7 1-9 3.4-18.1 6.8-27.1 10.2 8.6 0 17.3 0 25.9.1-7.7 4.1-15.9 7.1-24.4 9 10.3-.3 20.6 0 30.9.7-10.1 4-20.4 7.3-31 9.7 6.2-.2 12.4-.3 18.7-.5-7.8 6-16.4 11-25.4 15 10.2.1 20.4.3 30.7.4-8.4 2.9-16.9 5.5-25.5 7.8 9.2.1 18.4.2 27.6.2-9.5 2.8-19 5.6-28.5 8.3 11.5-.7 23 0 34.3 1.9-11.4 3.2-22.8 6.4-34.2 9.5 7.4-.1 14.8-.2 22.2-.4l-17.4 8.7c10.5.5 21.1.7 31.6.7-12.6 3.7-25.3 7-38.1 9.8 9 .3 18 .5 27 .8-6.6 2-13.1 4.6-19.3 7.7 10.5-.3 21.1 0 31.6.8-14.5 4-29.1 8-43.6 12 18-.7 36-1.3 53.9-2-15.5 4.3-31.1 8.6-46.6 12.9 10.5-.3 20.9 0 31.3.7-13.7 4.8-27.5 9.3-41.5 13.3 16.6-.9 33.2-1.3 49.8-1.2-12.9 2.9-25.6 7-37.8 12 13.9-1 27.8-1.3 41.6-1-18.2 5.9-36.8 10.7-55.6 14.4 17.5.8 35 .8 52.5.2-14.3 4.1-28.9 7.6-43.5 10.5 16.2-.6 32.4-1.1 48.6-1.7-16.3 5-32.6 9.9-48.8 14.9 17.5-.3 35.1-.5 52.6-.8-13.4 3.4-26.7 6.7-40.1 10.1h50.3c-18.2 2.8-36.5 5.6-54.7 8.4 17.1-.5 34.2-1 51.2-1.5-17.4 6.9-38.4 5.2-53.3 16.5 12.9-.3 25.8-.5 38.7-.8-18.3 3.2-36.5 7-54.6 11.6 4.6 2 9.9 1.5 15 .9 17.9-2.1 35.7-4.2 53.6-6.2-15.6 4.4-31.2 8.7-46.7 13.1 18.7-2.7 37.6-5.4 56.5-4-17.2 4.3-34.5 8.3-51.9 11.8 15-.3 30-.7 44.9-1-10.5.8-21.1 1.7-31.6 2.5-7.5.6-15 1.2-22.2 3.6 15.1 1 30.3.8 45.4-.8 3.8-.4 8.6-2.1 8.4-5.8"/><path fill="#FFF" stroke="#000" stroke-width="2" stroke-miterlimit="10" d="M223.6 151.9l5.6-9.1 4.3-1.8 4.3 2.2v23.6l-6.8 15-8.5 3.2-6.5-5 2.3-12z"/><path fill="none" stroke="#000" stroke-width="2" stroke-miterlimit="10" d="M226.9 147.8l6.6 1.7m-10.4 6.6l6.6.4m-10 6.8l7.2.5m-8.6 4.9l6.2 2m-7.7 5.4h7.6"/></svg>