<svg version="1" xmlns="http://www.w3.org/2000/svg" width="432" height="432"><path d="M188.2 85.7s-21.3 26.9.7 47c0 0-13.7-2-15.3-19.6-1.6-17.8 9.9-26.1 14.6-27.4zm-28.1 12.2L148.9 124l18.2 20.6.3 78.7s3.8 70.5 8.5 99.2l-15.7 13.1 12.5 4.5 8.7-17 7-83.7 1.1-13.3.4-4.6-11.3-6 1-76-6.1-.6-19-16 7.6-23.3-2-1.7zM198 300l2.4 23s11.1 18.3 11.5 18.3c.5 0 11.5-6.2 11.5-6.2l-8.4-7.5-11-5-.5-13.1-5.5-9.5z" fill="#27AAE1"/><g fill="none" stroke="#000" stroke-width="2" stroke-miterlimit="10"><ellipse cx="189.8" cy="109.1" rx="16.5" ry="23.5"/><path d="M176.5 89.3s16.8 2 23.3-1.8m-25 5.3s18.2 3.2 28-1.5m-29.5 4.5s21.3 4.4 30.8-2m-19.3 38v6.7h10v-7m-4.8 90h-22.8V140l39.1-1.5s.2 4.7.6 11.8"/><path d="M167.1 91.7c2 1.3 3.5 2.4 3.5 2.4l4.7 1.7-1.8-5-13.2-9.9-1.6 5.1s2.1 1.5 4.6 3.1m-1.1-.8l2.3-4.3"/><path d="M160.5 90.9l5.4-3 2.3 1.7-3.7 5.3m7-5.7l-1.2-7.6-7.6 1.1"/><path d="M160 86.8l-2.2 9.1 4.2 3.8 7.6-5.6m-8.2 5.5l-7 23.4 20 16.7"/><path d="M158.1 96.2L138 126.1l29.5 26M138.6 126l15.3-3.1m13.3 98.6S172.3 311 176 323h5.3s7.6-96.5 8-101.2m8 72c1.6 15.6 3 29.2 3 29.2h6l.3-8.1M176 323l-17.5 9.7s14.5 4.7 15 4.7 7.8-14.3 7.8-14.3m19-.1s10.5 17 11 17l12.1-4.8m-17.1-196.7l8.7 12m14.3 27.8H215l-1 8.5s13.8 4.2 13.7 3.5c-.2-.6 1.6-12 1.6-12z"/><path d="M225.2 190c-4.3 36.4-9.2 137.4 67.8 137.4 0 0-33 24.7-34 24.7s-57.8-7.4-66-79.8 0-122.8 0-122.8h1.8c2.4 0 41.2 2.6 41.2 2.6s-7.9 23.1-8.9 26M206.3 323l9.4 4.6"/></g></svg>