<svg version="1" xmlns="http://www.w3.org/2000/svg" width="432" height="432"><g fill="#27AAE1"><path d="M168.6 78s-20.3 25.6 2.3 45.3c0 0-13.5-2.5-14.7-18.7-1.2-16.4 7.3-25.4 12.4-26.6zm-10 52s.1 76.8 1.1 77.8 18.5 5.8 18.5 5.8-7.3 1.4-14.8.8l-13.7 108.9 19.7 9.7-10.2 12.1-13.8-21.9 6.9-113.3 1.9-81c.2.1 6.3 1.6 4.4 1.1z"/><path d="M172.8 215.1l5.4 108.1 24.3 7.1-10 9.7-17.7-16.8-7.9-91.4 1.7-16.7z"/></g><g fill="none" stroke="#000" stroke-width="2" stroke-miterlimit="10"><ellipse cx="170.9" cy="100.6" rx="14.9" ry="22.7"/><path d="M161.5 80.1c.5 0 9.8 2 18.4-.8m-21.3 4s14.1 2.2 23.6-.6M156 86.2c2.1.8 19.5 3.9 27.9-1.1m-17.5 37.1v6.8h7.5v-6.2m8.6 41c1.2-18.2 2.3-34.8 2.3-34.8h-30.4s-1.6 67-1.9 81c0 0 12.1 8.4 26.7 3.6l2.5-37.1"/><ellipse transform="rotate(-9.355 265.32 101.194)" cx="265.3" cy="101.2" rx="14.9" ry="22.7"/><path d="M272.9 122.2v6.8h-7.5v-6.2"/><path d="M275.5 214c4.4.2 8.9 0 11.3-1.5l-2-83.6h-30.4l-1 83.8s11.3.1 13.8.5"/><path d="M276.1 138l4 42.3-5.7 45.7-7.3 14-9.2-5.8 7.5-9.2-5.4.6-.5-4.1 7.4-2.4 2.9-39-5-38.9"/><path d="M282.3 214.1l-3.1 122.6h-6.8s-4.1-56.5-7.1-97.4m-1.4-19.5c-.2-2.2-.3-4.3-.4-6.2"/><path d="M256.8 213.6l9.4 119.4h6.6m-.4 3.7l-25 8.3 12.5 7.7 19.2-16m-12.9-3.7l-17.8 1.1 8.9 7.6M152.4 210l-6.9 113.3h6.9s16.3-95.4 16.2-108.2"/><path d="M167.6 226.3l7.2 96.9h8l-3.6-109.6M164.7 141l21.1 27H213l5-6 1.7 1.3-1.4 4.7H231l-5 5.7-44.4 3.4-20.1-22.4"/><path d="M183.5 147.8l10.8 11.7 24.4-3 1.5-4.6h3.4v4.2l9.9.6-1.4 5.2s-5.6.8-12.8 1.9m-3.3.6c-11.5 1.7-25 3.6-25 3.6l-8.2-9.5m-37.3 164.7l15.5 19.5 9.8-11.4-18.4-8.1m22.4 0l16.6 14.1s11.7-9.8 11.2-9.8-19.8-4.2-19.8-4.2"/></g></svg>