<svg version="1" xmlns="http://www.w3.org/2000/svg" width="288" height="288"><path d="M155.1 72.7s-21.9 13.9-9.3 36.5c0 0-14-3.9-7.7-21.6 6.1-17.8 17-14.9 17-14.9zM127.7 104s-22.2 24.7-25.2 48.6c0 0 14.8 22 45.7 45.1l-44.2 4.7s-23.4 1.8-26.9 0c-3.4-1.8-4.8-2.2-4.8-2.2s-3.8 10.6-4.7 11.7-11.8.7-10.1 0 14-20.5 13.2-19.9-7 8.6-7 8.6l-6.3-3.8 14.9-12.5h4.8v1.1l29.4 2.7 13-2.4s-13-10.7-14.9-13.2-9-14-9-14l-2.3-3.1 8.4-22.6 12.4-20.9 10.1-10.7 3.5 2.8z" fill="#27AAE1"/><g fill="none" stroke="#000" stroke-width="2" stroke-miterlimit="10"><ellipse transform="rotate(-66.229 150.642 90.867)" cx="150.6" cy="90.9" rx="19.2" ry="13"/><path d="M147.2 72.7s9.7 5.5 17.7 5m-20.6-2.6s10.8 8.4 21.6 6.8m-24.2-4.3s16.5 11.1 25.5 8.8m-29.7 16l-5.7 4.4 8.2 7.6 4.3-5.5m-7.9 43.7c-3.5 9.2-6.4 16.9-6.4 16.9s-18.5 1-36.8-14c0 0 9.2-35.9 31-54.5l23.9 20.5s-3.1 8.2-6.5 17.3"/><path d="M119.5 123.7s7.9 23.9 17 28.9c1.2.7 29.2 6.7 29.2 6.7l5.8-5.2 2 6.5 4-2.3-2.2-10h-8.8l-2.4 4.3-21.6-11.6s-7-14.8-8.5-22"/><path d="M165.8 159.2l3.3 2.6 1.8-1.8-1.6-4m-32.9-3.4c.1.1 6.4-11.4 6.4-11.4M130 169.5s16.5 20.3 18.2 28.2c0 0-58.2 9.3-75.8 2.5l2.2-5.8s40.7-6.8 45.2-8.9m-24.9-28.7s11.1 24.7 29.3 30.5m-68 23.6l11.4 1 7-19-4.2-1.7zm53.3-22.9l-32.4-1.9"/><path d="M74.6 192.9l2.9-8.8H72l-15.8 12 8.1 3.6m81.4-7.8h22.6l2.6-2.8h3.6s2.3 2.2 3 2.1 6.7-2.1 6.7-2.1 4.8-.3 5.7 0c.8.3 6.3-.1 6.3-.1l5.8-1 2 1.2 2.7 2.8h26.5m-74 6v4.7l4.3 3.2s3.2-.8 4 0 1.8 2.2 3.4 2.8c1.6.7 4.3 1 5.6 1s6.3.5 7.2 0c.8-.5 6.3-2.5 7.3-2.5s4.7-.3 6.5-.3 3.3.2 3.8-.5.2-3.2 1.7-3.7 1.8-.9 4-1.1 4-1.8 4-1.8m-71.4 8.9l3.2-1.5m-1.6 6.1l3.1-3.4m18 2s-3.5-1.7-4.2.8 2.1 4 2.1 4m38.5-5.4l4 3.7m0-5.1h3.6m13-11.9l5.5 2.5m-5.5 1.1l2.8 3.7"/><path d="M168.3 192.7s-.5 6.3 0 6.6 3.9 2.3 3.9 2.3l7.3 3.1s5.5-5.8 6.5-5.4 5.5.6 6 1.2 7.3-1.8 7.3-1.8l5.2-1.7 1.8-4.3m-33.9-26s-1.6 1.4-1.6 3.1c0 1.7 2.4 3 2.4 3s4.1-3.4-.8-6.1z"/></g><path fill="none" d="M133.6 71.4h33.6c-15.2 2-30.2 5-45 8.8 15.3.9 30.6 1.5 45.9 1.8-14.6 4.8-30.2 5.6-45.6 6.4 13.4 1.1 26.7 2.1 40.1 3.2-20.1.8-40 3.1-59.7 6.9 18 5.4 36.7 8.3 55.4 8.7-19.6.8-39.2 3.8-57.8 10.1 13.9 1.9 27.9 2.7 41.8 3.4-16.1.2-32.1 2.8-47.5 7.6 3.5 1.5 7.5 1.7 11.3 1.9 12.8.7 25.6 1.4 38.5 2.1-18.3 4.2-36.5 8.4-54.8 12.5 10.8 2.1 21.5 4.1 32.3 6.2 3.7.7 7.5 1.4 11.2 1.3-12.7 1.9-25.3 3.7-38 5.6-9 1.3-18 2.6-26.7 5.3 21.6 2.1 43.3 4.2 64.9 6.4-23.5.2-46.9 2.4-70 6.5-5.1.9-10.3 2-14.6 4.7 32.2.2 64.4-.1 96.5-.9-32.9 4.9-66 9.7-99.3 9.7-1.6 0-3.9.8-3.3 2.3.2.4.5.7.9 1 4 3 8.7 5 13.5 6.4 10.4 2.9 21.5 2.8 32.2 1.5 9-1.1 18-3 27-3.9 14-1.5 28-.7 42 .1-25.9 4.7-52 8.4-78.1 11.1-6.8.7-13.5 1.3-20.3 1"/></svg>