<svg version="1" xmlns="http://www.w3.org/2000/svg" width="960" height="523"><path fill="#FFF" stroke="#000" stroke-width="8" stroke-miterlimit="10" d="M378.5 39l-50.8-4.9-40 2.3-21.2 9.2-29.2 9.5-26.8 3.7s-24-2.9-46.8 6.6-22.7 9.5-22.7 9.5L95.8 97.3 81 112.5s-9.2 8.9-9.2 17.8-5.2 22.4-5.2 22.4l-8 18.1-8 15.2-10.8 32.5s4-20.1 0 7.8-12 39.4-8 48.8 9.2 22.1 10.8 28.7c1.2 6.6 4 16.4 6.8 23s5.2 10.9 9.2 25.3 24 37.9 24 37.9l24 11.5 29.2 4 30.8 8.3s25.6 16.4 38 19.2c12.4 2.9 31.2 11.5 46 11.5s6.8 5.7 46.8 0 37.2-4.9 49.2-9.5c12-4.9 13.2-7.8 32-7.8h38.8s24 3.7 58.8 4.9c34.8.9 25.2 4.9 49.2.9 24-3.7 40-5.7 40-5.7s40-8.6 70.8-15.2 58-6.3 58-6.3 88.8 4.6 98 4.6 52-4.6 52-4.6l22.8-10.9s29.2-7.8 33.2-20.1 12-36.5 12-36.5l14.4-23.8s6.4-41.1 0-45.1-5.2-7.5-10.4-21-4 2.9-8-24.1c-4-26.7-4-45.1-4-45.1l-12-34.5-20-25c-9.2-11.5-6.8-13.5-18.8-23.8-12-10.6-4.4-10.1-16.4-18.4-11.6-8.3-45.2-17.8-45.2-17.8l-36-8.9-17.2-6.3-61.2-10.6-38.8-10.1h-116l-34.8 3.7L441 37.6l-26.8 2-35.7-.6z"/></svg>