<svg version="1" xmlns="http://www.w3.org/2000/svg" width="432" height="432"><path d="M117.4 128.2c.3-.1.5-.2.8-.3l-.3-.3c-26.2-21.6-5-51.3-5-51.3s-14.5 5-14.2 27.4c.3 22.5 18 23.9 18 23.9s.2.2.7.6zm-8.1 9.1l9.6 79.3 18.7 2.5-17.2 1.6-4.8 114.1-6.3 18.3-14.4-2.3 18.3-16.2-.7-13.6-2.2-101.9-8.4-58.9-23.5 22.7L47.6 155l3.1-1.5 27.7 21.1 22-26.1-1.1-9.2z" fill="#27AAE1"/><g fill="none" stroke="#000" stroke-width="2" stroke-miterlimit="10"><ellipse transform="rotate(-3.107 116.483 101.76) scale(.99997)" cx="116.5" cy="101.8" rx="18" ry="25.9"/><path d="M102.4 79.1s12.4 3 23.7-1.7m-25.9 6s15.8 3.6 30.1-1.5m-32.4 6.2s23.9 3.8 34.4-1.9m-19.5 41.7v8.5l11.8-1.3-2.1-8.7m-23.3 12.1l42.1-5.1 3.6 85.7-34.6 2.2z"/><path d="M140.5 134.1l26.6 29.5 21.1-22.3-3.1-7.5 4.5-10.4 17.5 11.3-6 7.4-5.8 1.3-26.5 32-26.5-19.1m24.8 7.3l1.7 11.8"/><path d="M187.3 128.7c.7.2 9.6 5.7 9.6 5.7l-1.3 4.2-3.5-1.4v3.4m-92.9-2.1l-20.8 32.4-24.1-19 2.1-7.8-6-9.7-15.8 13.7 7.1 6.5 5.9.4 30.8 27.9 23.5-22.7m-23.5 10.7v12"/><path d="M53.4 139.3c-.6.3-8.7 7-8.7 7l1.9 3.9 3.3-1.9.5 3.3m59.9 69.7l2.5 113.5h5.9l8.9-114.4"/><path d="M127.6 220.4l14.3 114.4h5.8l-2.8-115.7m-32.1 115.7l-17.9 12.5 17.9 2.5 5.9-15m23.2 0l8.4 20.3 16.4-5.3-19-15"/><ellipse transform="rotate(-86.891 315.696 101.768) scale(.99997)" cx="315.7" cy="101.8" rx="25.9" ry="18"/><path d="M319.3 127.9v8.5l-11.7-1.3 2.1-8.7m23.3 12.1l-42.1-5.1-3.6 85.7 34.6 2.2z"/><path d="M291.7 134.1l-26.6 29.5-21.2-22.3 3.2-7.5-4.5-10.4-17.6 11.3 6.1 7.4 5.8 1.3 26.5 32 26.5-19.1m-24.8 7.3l-1.7 11.8"/><path d="M244.9 128.7c-.7.2-9.6 5.7-9.6 5.7l1.3 4.2 3.5-1.4v3.4m92.9-2.1l20.7 32.4 24.2-19-2.1-7.8 6-9.7 15.7 13.7-7 6.5-6 .4-30.7 27.9-23.5-22.7m23.4 10.7l.1 12"/><path d="M378.7 139.3c.6.3 8.7 7 8.7 7l-1.9 3.9-3.3-1.9-.5 3.3m-59.8 69.7l-2.6 113.5h-5.8l-8.9-114.4"/><path d="M304.6 220.4l-14.3 114.4h-5.8l2.8-115.7m32 115.7l18 12.5-18 2.5-5.8-15m-23.2 0l-8.4 20.3-16.4-5.3 19-15"/></g></svg>