<svg version="1" xmlns="http://www.w3.org/2000/svg" width="288" height="288"><g fill="#FFF"><ellipse cx="104.7" cy="84" rx="13.7" ry="19.7"/><path d="M99.7 102.4l-.7 6.9h8.9v-5.5"/><path d="M127.3 109.3s-43.6-.3-44.2 0l-2.9 79.2h42.7l4.4-79.2zm-47.2 89.5l3.3 59.9h5.3v-59.9m10.3 0l-.8 41.1s5.6 1 5.3 0c-.4-1 4.3-41.1 4.3-41.1m21.5 40.9l7-3.3-6.3-1.3"/><path d="M103 240.2l9-5.1-7.7-1.8m22.3-111.4l11.4 29.3-5.2 1.7-7.7-4.3"/><ellipse cx="183.9" cy="84" rx="13.7" ry="19.7"/><path d="M188.8 102.4l.8 6.9h-9v-5.5"/><path d="M161.3 109.3s43.6-.3 44.2 0l2.9 79.2h-42.7l-4.4-79.2zm47.1 89.5l-3.2 59.9h-5.4v-59.9"/><path d="M177.5 198.8l-3.8 59.9-6.7-1.7v-58.2l-13.9-6.5.5-7.9 12.1 4.1h42.7v10.3z"/><path d="M164.8 172.3l-16 7.7 10.4 59.7s5.3 1.2 5.5.2c.5-1.7-1.8-42.9-1.8-42.9l4.4-6-2.5-18.7zm24.8 26.5l.8 41.1s-5.6 1-5.3 0c.4-1-4.3-41.1-4.3-41.1"/><path d="M159.3 239.7l-7-3.3 6.2-1.3m27.1 5.1l-9-5.1 7.6-1.8m-20.7-84.7l-7.7 4.3-5.2-1.7 11.4-29.3M121.7 191l4.4 6s-2.3 41.2-1.8 42.9c.2 1 5.5-.2 5.5-.2l10.4-59.7-16-7.7-2.5 18.7z"/><path d="M79.9 198.8v-10.3h42.7l12-4.1.5 7.9-13.9 6.5V257l-6.6 1.7-3.8-59.9z"/></g></svg>