<svg version="1" xmlns="http://www.w3.org/2000/svg" width="288" height="288"><ellipse fill="none" stroke="#000" stroke-width="2" stroke-miterlimit="10" cx="104.7" cy="84" rx="13.7" ry="19.7"/><path fill="none" stroke="#000" stroke-width="2" stroke-miterlimit="10" d="M99.7 102.4l-.7 6.9h8.9v-5.5"/><path fill="none" stroke="#000" stroke-width="2" stroke-miterlimit="10" d="M127.3 109.3s-43.6-.3-44.2 0l-2.9 79.2h42.7l4.4-79.2zm-47.2 89.5l3.3 59.9h5.3v-59.9"/><path fill="none" stroke="#000" stroke-width="2" stroke-miterlimit="10" d="M111 198.8l3.8 59.9 6.7-1.7v-58.2l13.9-6.5-.5-7.9-12.1 4.1-1.3 10.3H80.1v-10.3"/><path fill="none" stroke="#000" stroke-width="2" stroke-miterlimit="10" d="M123.7 172.3l16 7.7-10.4 59.7s-5.3 1.2-5.5.2c-.5-1.7 1.8-42.9 1.8-42.9M99 198.8l-.8 41.1s5.6 1 5.3 0c-.4-1 4.3-41.1 4.3-41.1"/><path fill="none" stroke="#000" stroke-width="2" stroke-miterlimit="10" d="M129.3 239.7l7-3.3-6.3-1.3m-27 5.1l9-5.1-7.7-1.8m22.3-111.4l11.4 29.3-5.2 1.7-7.7-4.3"/><ellipse fill="none" stroke="#000" stroke-width="2" stroke-miterlimit="10" cx="183.9" cy="84" rx="13.7" ry="19.7"/><path fill="none" stroke="#000" stroke-width="2" stroke-miterlimit="10" d="M188.8 102.4l.8 6.9h-9v-5.5"/><path fill="none" stroke="#000" stroke-width="2" stroke-miterlimit="10" d="M161.3 109.3s43.6-.3 44.2 0l2.9 79.2h-42.7l-4.4-79.2zm47.1 89.5l-3.2 59.9h-5.4v-59.9"/><path fill="none" stroke="#000" stroke-width="2" stroke-miterlimit="10" d="M177.5 198.8l-3.8 59.9-6.7-1.7v-58.2l-13.9-6.5.5-7.9 12.1 4.1 1.3 10.3h41.4v-10.3"/><path fill="none" stroke="#000" stroke-width="2" stroke-miterlimit="10" d="M164.8 172.3l-16 7.7 10.4 59.7s5.3 1.2 5.5.2c.5-1.7-1.8-42.9-1.8-42.9m26.7 1.8l.8 41.1s-5.6 1-5.3 0c.4-1-4.3-41.1-4.3-41.1"/><path fill="none" stroke="#000" stroke-width="2" stroke-miterlimit="10" d="M159.3 239.7l-7-3.3 6.2-1.3m27.1 5.1l-9-5.1 7.6-1.8m-20.7-84.7l-7.7 4.3-5.2-1.7 11.4-29.3m-49.5-53.5c1.1-7.7 5.7-13.4 11-13.3 6 .2 10.6 7.7 10.3 16.7s-5.3 16.3-11.3 16.1c-1.3 0-2.5-.4-3.6-1.1"/><path fill="none" stroke="#000" stroke-width="2" stroke-miterlimit="10" d="M125.1 88.2l-.6 5.2-7.5-.7 1.4-6.2s4.4 2.4 6.7 1.7zm-.6 5.2l9.4 1.1 3.4 27.6m78-64.1c-1.8-1.9-4-2.9-6.4-2.9-6 .2-10.6 7.7-10.3 16.7S204 88.1 210 88c5.8-.2 10.2-7.2 10.3-15.8"/><path fill="none" stroke="#000" stroke-width="2" stroke-miterlimit="10" d="M207.5 88.2l.6 5.2 7.5-.7-1.4-6.2s-4.5 2.4-6.7 1.7zm12.9 4.3l-22.6 2s-.9 7.3-1.8 14.5"/></svg>