<svg xmlns="http://www.w3.org/2000/svg" viewBox="0 0 288 288"><style>.st0{fill:#27aae1}.st2{stroke-width:2;fill:none;stroke:#000;stroke-miterlimit:10}</style><g id="Layer_5"><path class="st0" d="M55.9 34.8S38 55 52.3 79c0 0-13-2.2-11.4-22.8 1.6-20.4 15-21.4 15-21.4zM40.2 86.5L39 157.7 69.2 176s-23.8 57.4-22.8 57.5 22.7 5.1 22.7 5.1l-.7 4.2-27-7.8 21.8-57.7-41.9-21.8 1.3-6.8 12-62.3 5.6.1z"/><path class="st0" d="M46.7 119.7l3.1-1.3s16.6 13.8 17.9 14.2c1.3.4 41.2 5.4 41.2 5.4l1 2.8h-18s-6.3-1-7.3-1.2c-1-.2-21.3-3.5-21.3-3.5l-16.6-16.4z"/></g><g id="Layer_1"><ellipse transform="rotate(-84.07 54.62 56.927)" class="st2" cx="54.6" cy="56.9" rx="22.2" ry="13.7"/><path class="st2" d="M47.8 35.9s9.4 2.8 16.1 1.1m-17.6.5s12.6 4.4 19.4 2.2m-21.2.7c.1.2 12.9 5.3 23.1 2M47.4 76.9l-1.9 9.6h10.4v-7.9m1.3 50.9c-1.4 14.1-2.6 26.1-2.6 26.1s-19.5 4.7-33.3 0l13.4-69.1h26.7s-1.4 14.7-3 30.5"/><path class="st2" d="M49.3 106.2l17.6 21 27 7.9 14.2 1.7 2.7 4H91.9l-28.6-4.7-17.8-17.6m21.4 8.7l-3.6 8.9"/><path class="st2" d="M95 135.5l3-2.9h1.7v3.2m-78.4 19.8l42 21.9-19.3 53 4 1.5 30.2-60.4-24.8-15.7"/><path class="st2" d="M44 230.5l-1.4 4.2 25.7 8.2 1.4-8.6L48 232m-5.4-65.3l-21.3-2.4-1.8-74.4-7.6 1.4s2.5 83.7 3.4 84c.8.3 40.6-1.7 40.6-1.7"/><path class="st2" d="M15.3 175.3l4.2 63.4h5.7l1.4-63.4m30.7-.9v19.5m0 19.4V233m3.8.5c.4-6.3 1.3-19.5 2.1-31.9m50.6-78.1c10.3-.9 21.7-1.4 33.7-1.4 7.5 0 14.8.2 21.7.6m39.4 4.6c1.6.3 3.1.7 4.6 1m11.4 3.8c4.6 2.1 7.2 4.4 7.2 6.8 0 9.3-37.7 16.8-84.2 16.8s-84.2-7.5-84.2-16.8c0-.9.4-1.9 1.2-2.8"/><path class="st2" d="M140.1 155.6l3.6 57.8s-10.8 5.9-9.8 5.9h29.7l-12.1-5.9 3.2-57.7m-93.6-66c0 .2 20 33.8 20 33.8l16.2-.7 2.4-3.8 6 4.6-1.9 3.7-3.1-2.3"/><path class="st2" d="M59.5 106.2s17.4 23.9 18.7 24.3 19.2-2.2 19.2-2.2 3.1 1.1 4.9 1.8"/><path class="st2" d="M102.3 120.9v-5.3h11.6v16.6h-11.6v-6.1m0-10s7.8 3.8 11.6 0"/><ellipse transform="rotate(-5.93 229.243 56.945)" class="st2" cx="229.1" cy="56.9" rx="13.7" ry="22.2"/><path class="st2" d="M236.3 76.9l2 9.6h-10.4v-7.9m-1.3 50.9c.1 1.3.2 2.5.4 3.7"/><path class="st2" d="M228 144.1c.7 6.9 1.1 11.5 1.1 11.5s19.5 4.7 33.3 0L249 86.5h-26.7s1.4 14.7 3 30.5"/><path class="st2" d="M234.4 106.2l-17.6 21-26.9 7.9-14.2 1.7-2.8 4h18.9l28.6-4.7 17.9-17.6m-21.5 8.7l3.6 8.9"/><path class="st2" d="M188.8 135.5l-3.1-2.9H184v3.2m78.4 19.8l-42 21.9 19.3 53-4 1.5-30.1-60.4 24.7-15.7"/><path class="st2" d="M239.7 230.5l1.5 4.2-25.8 8.2-1.4-8.6 21.7-2.3m5.5-65.3l21.3-2.4 1.8-74.4 7.6 1.4s-2.5 83.7-3.4 84-40.6-1.7-40.6-1.7m40.6 1.7l-4.3 63.4h-5.6l-1.5-63.4m-30.7-.9v19.5m0 19.4V233m-3.7.5c-.4-6.3-1.3-19.5-2.1-31.9m2.1-111.9c0 .2-20 33.8-20 33.8l-16.2-.7-2.5-3.8-6 4.6 1.9 3.7 3.1-2.3"/><path class="st2" d="M224.3 106.2s-17.4 23.9-18.7 24.3-19.2-2.2-19.2-2.2-3.1 1.1-4.9 1.8m-.1-9.2v-5.3h-11.5v16.6h11.5v-6.1m0-10s-7.8 3.8-11.6 0m-42.5 26.4v-8l21.7-9.1 11.2 5.8v6.5l-19.6 11.2z"/><path class="st2" d="M127.3 134.5l13.2 5.8 19.7-9.1m-19.7 9.1l.1 8.6"/><path d="M137.9 135.8l12-6.4m-4.5 0l3.3 3.2" fill="none" stroke="#000" stroke-miterlimit="10"/></g><path d="M205.5 109.3h-44.2v14.2l-10.7 27.7 5.2 1.7 7.7-4.3 1.3 23.7-15.9 7.7 9.5 54.5-6.1 1.9 7 3.3 5.5.1-1.3-42.7 5.3 1.7 39.6-1-1.8-57zm-122.5 0h44.2l-.1 14.2 10.8 27.7-5.3 1.7-7.7-4.3-1.3 23.7 16 7.7-9.5 54.5 6.1 1.9-7.1 3.3-5.5.1 1.3-42.7-5.3 1.7-39.6-1 1.8-57z" id="Layer_3" fill="#fff"/><g id="Layer_2"><ellipse class="st2" cx="104.7" cy="84" rx="13.7" ry="19.7"/><path class="st2" d="M99.7 102.4l-.7 6.9h8.9v-5.5"/><path class="st2" d="M127.3 109.3s-43.6-.3-44.2 0l-2.9 79.2h42.7l4.4-79.2zm-47.2 89.5l3.3 59.9h5.3v-59.9"/><path class="st2" d="M111 198.8l3.8 59.9 6.7-1.7v-58.2l13.9-6.5-.5-7.9-12.1 4.1-1.3 10.3H80.1v-10.3"/><path class="st2" d="M123.7 172.3l16 7.7-10.4 59.7s-5.3 1.2-5.5.2c-.5-1.7 1.8-42.9 1.8-42.9M99 198.8l-.8 41.1s5.6 1 5.3 0c-.4-1 4.3-41.1 4.3-41.1"/><path class="st2" d="M129.3 239.7l7-3.3-6.3-1.3m-27 5.1l9-5.1-7.7-1.8m22.3-111.4l11.4 29.3-5.2 1.7-7.7-4.3"/><ellipse class="st2" cx="183.9" cy="84" rx="13.7" ry="19.7"/><path class="st2" d="M188.8 102.4l.8 6.9h-9v-5.5"/><path class="st2" d="M161.3 109.3s43.6-.3 44.2 0l2.9 79.2h-42.7l-4.4-79.2zm47.1 89.5l-3.2 59.9h-5.4v-59.9"/><path class="st2" d="M177.5 198.8l-3.8 59.9-6.7-1.7v-58.2l-13.9-6.5.5-7.9 12.1 4.1 1.3 10.3h41.4v-10.3"/><path class="st2" d="M164.8 172.3l-16 7.7 10.4 59.7s5.3 1.2 5.5.2c.5-1.7-1.8-42.9-1.8-42.9m26.7 1.8l.8 41.1s-5.6 1-5.3 0c.4-1-4.3-41.1-4.3-41.1"/><path class="st2" d="M159.3 239.7l-7-3.3 6.2-1.3m27.1 5.1l-9-5.1 7.6-1.8m-20.7-84.7l-7.7 4.3-5.2-1.7 11.4-29.3"/></g><g id="Layer_4"><path class="st2" d="M112.5 68.4c1.1-7.7 5.7-13.4 11-13.3 6 .2 10.6 7.7 10.3 16.7s-5.3 16.3-11.3 16.1c-1.3 0-2.5-.4-3.6-1.1"/><path class="st2" d="M125.1 88.2l-.6 5.2-7.5-.7 1.4-6.2s4.4 2.4 6.7 1.7zm-.6 5.2l9.4 1.1 3.4 27.6m78-64.1c-1.8-1.9-4-2.9-6.4-2.9-6 .2-10.6 7.7-10.3 16.7S204 88.1 210 88c5.8-.2 10.2-7.2 10.3-15.8"/><path class="st2" d="M207.5 88.2l.6 5.2 7.5-.7-1.4-6.2s-4.5 2.4-6.7 1.7zm12.9 4.3l-22.6 2s-.9 7.3-1.8 14.5"/></g></svg>