<svg version="1" xmlns="http://www.w3.org/2000/svg" width="432" height="432"><path d="M115.7 93.1s-25.1 28.5-5.4 52.1c0 0-17.2-3.8-12.9-30.7 3.7-23.5 18.3-21.4 18.3-21.4zm-19 60.9l-4.2 83.9 38.3 20.8-28.6 68.6 28.3 3.1-1.7 10-31.4-10.9 24.5-69-48.1-25L89.5 154z" fill="#27AAE1"/><g fill="none" stroke="#000" stroke-width="2" stroke-miterlimit="10"><ellipse transform="rotate(-84.07 113.01 119.147)" cx="113" cy="119.1" rx="26.2" ry="16.2"/><path d="M105 94.4s11.1 3.2 19 1.2m-20.8.7s14.9 5.2 22.9 2.6m-25 .7c.1.3 15.2 6.3 27.2 2.4m-23.8 40.7l-2.3 11.3h12.3v-9.3m1.5 60c-1.6 16.6-3 30.8-3 30.8s-23 5.5-39.3 0L89.5 154H121s-1.7 17.3-3.5 36"/><path d="M106.8 177.2l20.7 24.8 31.7 9.2 16.8 2 3.2 4.8H157l-33.8-5.5-21-20.7m25.3 10.2l-4.3 10.5"/><path d="M160.6 211.8l3.6-3.4h2v3.7m-92.4 23.4l49.4 25.7-22.7 62.6 4.7 1.7 35.6-71.3-29.2-18.4"/><path d="M100.5 323.8l-1.7 4.9 30.4 9.6 1.6-10.1-25.6-2.7m-6.4-77l-25.1-2.9-2-87.6-9 1.7s3 98.7 4 99c1 .3 47.8-2 47.8-2"/><path d="M66.7 258.7l5 74.6h6.6l1.7-74.6m36.2-1.1v23m0 22.9v23.2m4.4.6c.5-7.4 1.5-22.9 2.5-37.6m61.2-92.2c11.8-1 24.7-1.5 38.2-1.5 8.9 0 17.5.2 25.7.7m45.7 5.3c1.8.4 3.5.7 5.1 1.1m14.5 4.7c5.3 2.4 8.3 5.1 8.3 7.9 0 10.9-44.4 19.8-99.2 19.8s-99.2-8.8-99.2-19.8c0-1.1.4-2.1 1.3-3.2"/><path d="M213.7 235.4l4.3 68.1s-12.8 7-11.5 7h35l-14.2-7 3.8-68m-110.5-77.7c0 .2 23.6 39.9 23.6 39.9l19.1-.9 2.8-4.5 7.1 5.4-2.2 4.3-3.6-2.7"/><path d="M118.7 177.2s20.5 28.2 22 28.6c1.5.4 22.6-2.6 22.6-2.6s3.6 1.4 5.7 2.1m.2-10.7v-6.4h13.7v19.7h-13.7v-7.2m0-11.8s9.1 4.5 13.6 0"/><ellipse transform="rotate(-5.93 318.85 119.19)" cx="318.7" cy="119.1" rx="16.2" ry="26.2"/><path d="M327.2 142.7l2.3 11.3h-12.3v-9.3m-1.7 60.7c.1 1.3.2 2.5.4 3.8"/><path d="M317.4 222.1c.8 7.7 1.3 13.4 1.3 13.4s23 5.5 39.3 0L342.2 154h-31.5s1.7 17.3 3.5 36"/><path d="M325 177.2L304.2 202l-31.7 9.2-16.8 2-3.2 4.8h22.2l33.8-5.5 21-20.7M304.2 202l4.3 10.5"/><path d="M271.1 211.8l-3.6-3.4h-2v3.7m92.5 23.4l-49.5 25.7 22.7 62.6-4.7 1.7-35.5-71.3 29.1-18.4"/><path d="M331.2 323.8l1.7 4.9-30.4 9.6-1.6-10.1 25.6-2.7m6.4-77l25.1-2.9 2-87.6 9 1.7s-3 98.7-4 99c-1 .3-47.8-2-47.8-2"/><path d="M365 258.7l-5 74.6h-6.6l-1.7-74.6m-36.2-1.1v23m0 22.9v23.2m-4.4.6c-.5-7.4-1.5-22.9-2.5-37.6m2.5-131.9c0 .2-23.6 39.9-23.6 39.9l-19.1-.9-2.8-4.5-7.1 5.4 2.2 4.4 3.6-2.7"/><path d="M313 177.2s-20.5 28.2-22 28.6c-1.5.4-22.6-2.6-22.6-2.6s-3.6 1.4-5.7 2.1m-.2-10.7v-6.4h-13.7v19.7h13.7v-7.2m0-11.8s-9.1 4.5-13.6 0"/></g></svg>