<svg version="1" xmlns="http://www.w3.org/2000/svg" width="432" height="432"><g fill="#27AAE1"><path d="M213.7 143.1s-20.1 45.3 5.5 59.4c0 0-19.2 2.2-22.7-25.4-3.3-25.6 17.2-34 17.2-34zm-25.2 128.2c-.5.5-1.1.9-1.7 1.1v15.4l16.1-1.2-2.4-32.6c-2.9 6.3-7.1 12.3-12 17.3zm3.7-39c2.3-4 3.5-11.4 3.5-15.8 0-1.7.7-3 1.8-3.8l-1.1-14.5h-9.6v40c2.2-2.7 3.6-2.8 5.4-5.9z"/><path d="M205.5 240.2s-5.7-1-5.8 0-19.3 27.4-39.4 28.4l-1.4 20.1s19.9-6.7 28.2-16.1c8.3-9.4 12.6-15.8 12.6-15.8l5.8-16.6z"/></g><g fill="none" stroke="#000" stroke-width="2" stroke-miterlimit="10"><ellipse transform="rotate(-3.448 217.393 172.625) scale(1.00001)" cx="217.4" cy="172.6" rx="20.6" ry="29.9"/><path d="M203 146.5s18.9 1.2 25.1-1.2m-28.3 4.7c1 .2 21 4 32.5-1.2m-33.8 5s23.5 6.6 35.2-2.2M250.8 283l-4.3-90s-6.6.7-14.4 1.5m-26 2.7c-10.6 1.1-19.1 2-19.1 2-.2.7-.2 20-.1 40.3m.1 33.1v13.9"/><path d="M186.9 200.8c-26.9 20.2-27.9 87-27.9 87 39-9 46.5-47.5 46.5-47.5l13.5-5s4.8-11 4.8-12-1.5-4.8-1.5-4.8 2.5-2.8 3.2-2.3-3.8-6.5-3.8-6.5l-5.8 1.5-5.8-5-4.5-2.8s-3.8 2.2-4.5 2.8l-4.4 5.8-4.5 20.7s-17.1 21.2-30.5 29.3m25.2-32s-5.1 13.3-6.5 16.1"/><path d="M199.3 214.3l9 4.2 2.5-2.9-4.3-8.8m16.1 19.8l-8.9-3.3m7 7.9l-8.8-2.4m10.3-10.3l-7-1.2m31.3-24.3l21.7 55.8 6.5 33.7M249.2 249c0 .7 4 7.8 4 7.8l5.7 26.3m9.3-34.3l-15 8"/></g></svg>