<svg version="1" xmlns="http://www.w3.org/2000/svg" width="432" height="432"><g fill="#27AAE1"><path d="M172.5 169s-16.4 33.4-32.8 44.8l-2.5 21.9s43.1-30.6 40.7-51.6c-.2-1.4-.9-14.6-.9-14.6l-4.8-1.6m131.3-46.5s-13.6 20-4.6 36.3c0 0-12.7-7.3-8.9-20.3 3.9-13.1 11.5-16.1 13.5-16zm-17.8 40.9l-2.8 56 42.3 80h-3S296 250 288.8 241.2l-.9-1.4-1 7.5s-5.4 21.2-14.8 30.1-16.4 18.3-16.4 18.3l16 10.8-12.2 3.4-15-11.6s13.6-14.3 16.8-21.8c3.2-7.5 10.2-27.2 11.4-34.5s2.9-21.9 2.9-21.9l-2-3.1 4.4-40.4-13.6 3.8-5.9 23.7h-2l4.8-28.7 16.7-10.9 7.7-2.2z"/><path d="M322.3 298.3l-.8 4.7 19.6 6.9 8.4-8.4z"/></g><g fill="none" stroke="#000" stroke-width="2" stroke-miterlimit="10"><ellipse transform="rotate(-79.618 302.275 139.618)" cx="302.3" cy="139.6" rx="18.4" ry="12.4"/><path d="M292.3 124.1s13.8 1.9 21 0m-22.9 3.2s14 2.8 24.8 0m-26.2 3.6s16.2 3.7 26.6 0m-21.7 23.9l-1.6 7.3 7.5 1.4 1.4-6.2"/><path d="M308.9 166.6s-17.8-8.3-29.5-2.6l-5.7 52.9 19.4 2.6 15.8-52.9z"/><path d="M279.4 164.1l-21.9 8.8-3.2 31.3h4.3l5.9-23.7m-8 2.1l21.6-5.9"/><path d="M258.6 204.2l2.7 4.8v5.4h-3.2l-1.6-2.7-1.5 12.1-4.8-6.2 4.1-13.8m53.8-34.3s4.9 27 28.4 27.7v5.3s-19.7 2-32.9-16.5m32.9 11.2l7.5-2.5 11.3 6.1-5.7 3-5.1-1.2 1.4 2.5-3.9.7-5.5-3.3M273.7 217s39.2 61 48.6 81.2h6.4s-21.6-57-35.6-78.6"/><path d="M275.4 219.7s-.7 45.9-25.2 73l4.1 3s31.9-24.5 33.7-56m34.3 58.6l25.7 1.2-10.9 8.3-15.6-4.8z"/><path d="M250.2 292.7l-5.7 5.6s8.9 10.6 9.4 10.6 16.5-3.7 16.5-3.7l-16-9.6M29 292.7h110.6m10 0h19.8m11.7 0h69.5m7.8 0h61m7.7 0h71.8M7.4 323.2h416.9M163.9 161l-4 .2c-6.6.3-12.2-4.9-12.5-11.5l-.7-15.8c-.3-6.6 4.9-12.2 11.5-12.5l4-.2c6.6-.3 12.2 4.9 12.5 11.5l.7 15.8c.3 6.6-4.9 12.2-11.5 12.5z"/><path d="M147.2 143.9s6.4 1 10.3-.6c3.9-1.6 9.5-1.4 10.3 0 .8 1.5 7.4 1.2 7.4 1.2m-28.3-6s-4.3-.1-4.3 3.8c0 3.8 4.1 5.4 4.1 5.4"/><path d="M166.3 167.9c6.3-.8 12.6-2.7 18.5-6.3 0 0-5.8-12.1-5.8-24.3s-2.5-26.8-18-25.4c0 0-24.7-3.4-28.2 30.7 0 0-2.2 19.5-3.3 20.8 0 0 7.6 4.1 17.4 5.6"/><path d="M154.8 160.3v7.6h11.5v-7.3"/><path d="M143.7 169.5s22.5-4.1 33.3 0c0 0 5 87.5 8.8 112.8 0 0-29.4 11-53.2 0l11.1-112.8z"/><path d="M143.7 169.8l-12.6 4.7-25.2 36.3s12.7 13.3 22.2 14.3l9.5-34.3s1.8-1 4.1-2.3"/><path d="M111.7 216.8c-.3.9-5.8 12.5-5.8 12.5l2.9 11.2 8.2-11.9 1.7 4.9 4-2.3-1.7-8.4m88-17.2c5.3.8 14.9 2.2 14.9 2.2l-2.3 4.4-8.2.9 5.6 3.8-2.9 3.3-8.2-4.3"/><path d="M177.6 179.5c7.1 7.1 21 20 30.9 22.3l-.6 28.3s-17.4-7.9-28.6-25m-9.8-36.4s-13.8 25-30 41.9m38.4-26.5c.1.8-19.3 36-40.9 49.7m5 52.4c-1.7 4.6-5.8 15.8-5.8 15.8h4.8s8.2-7.5 13.2-15.1m11 .3l11.7 15.8h5.6l-4-18.7m-42 18.7c2.2 0 23.3 3.9 23.3 3.9l-11.7 6.6-11.6-10.5zm39.7 0h23.7l-6.5 6.9-17.2-3.9z"/></g></svg>