<svg version="1" xmlns="http://www.w3.org/2000/svg" width="678.1" height="1854.2"><path fill="none" stroke="#27AAE1" stroke-width="4" stroke-miterlimit="10" d="M572 828.7L480.5 793"/><ellipse transform="rotate(-7.52 431.297 654.626)" fill="none" stroke="#010101" stroke-width="3" stroke-miterlimit="10" cx="431.3" cy="654.6" rx="16.5" ry="23"/><path fill="none" stroke="#010101" stroke-width="3" stroke-miterlimit="10" d="M429.7 678.1l1.3 5.8 7.8-1v-6.7m17.9 6.9s-23.9-1-40 4.2l12.3 72.8h26.3l1.4-77zm24.4 52.2c-7-34.9-24.1-51.9-24.1-51.9m14.3 54.8c2.1 8.6 6.3 25.6 6.3 25.6l6.3-1.5c-.1-4.7-2.5-22.7-2.8-27M457 711c6.3 5.7 11 16.7 14.3 27m4-23.3l-8.7 11"/><path fill="none" stroke="#010101" stroke-width="3" stroke-miterlimit="10" d="M478 763.4l-8.2 6 2.3 11h15c.4 0 3.2-8.8 3.2-8.8l-6.3-9.5m-61.4-43.8c-12.2 25.5-34.5 25.3-34.5 25.3l-2.5-6.3c29.5-11.3 32.3-44.8 32.3-44.8m-29.8 52.1l-1.7 5.2-13 3-4.1-16 10.4-3 6 3.9m43.4 22.2s4.4 82.2 25 123.7l10.5-1s-18.5-61.7-9.3-122.5"/><path fill="none" stroke="#010101" stroke-width="3" stroke-miterlimit="10" d="M434.4 808.8c-7.3 10.6-20.3 77.2-20.3 77.2l-10-1s9.2-79.8 24.8-127.2m35.7 125l3.2 5.2-22.5 9.5-13.1-8 22-5.7M404 885l-27.6 1.2 9.7 12.9 27.9-4.3v-8.6"/><path fill="none" stroke="#27AAE1" stroke-width="4" stroke-miterlimit="10" d="M572 1031.4l-91.5 33.1"/><ellipse transform="rotate(-13.419 421.22 961.654)" fill="none" stroke="#010101" stroke-width="3" stroke-miterlimit="10" cx="421.2" cy="961.7" rx="17.1" ry="24.8"/><path fill="none" stroke="#010101" stroke-width="3" stroke-miterlimit="10" d="M421.8 985.9l1.8 7.5 8.5-1.7-1.5-7.5m21.4 81.4c-6.7.8-23 3-23 3L414 998c10-6.8 32.6-6.3 32.6-6.3s5.8 52.9 7.5 68.9"/><path fill="none" stroke="#010101" stroke-width="3" stroke-miterlimit="10" d="M462.9 1017l-3.1 35.6 6.9 1.7 8.7-40.5-28.8-22.1m27 32.1l-25.3-15.6"/><path fill="none" stroke="#010101" stroke-width="3" stroke-miterlimit="10" d="M459.8 1052.6l-9.9 13.7 12 5.7 6.7-7.2-1.9-10.5m-47.4-28.6l-12.3 15-27.5-13.7 1.7-6.3 23.3 7 11-22.8m-54 17.8c.2-.3 4.5-8 4.5-8l4.5-6 10.7 6.7v5.3m-1.7 6.4l-8.3 3.5s-8-6.6-9.7-7.8m93.1 46c-.5 40.5 31.1 111.9 31.1 111.9l-5.5 3.3c-42.4-39.9-48.1-115.5-48.1-115.5"/><path fill="none" stroke="#010101" stroke-width="3" stroke-miterlimit="10" d="M435.5 1091.4c-4.3 8.8-30.3 92.7-30.3 92.7l-7-2.2c4.8-54.6 30.8-113.4 30.8-113.4m51.3 115.4l-25 16.8s23 .8 23.6.8 15.3-13.3 15.3-13.3l-8-7.7m-88.1 1.6s-16.3-1.2-26.6-2l-1 11 11.3.7c10 1 23.3 2.7 23.3 2.7v-10.3"/><path fill="none" stroke="#27AAE1" stroke-width="4" stroke-miterlimit="10" d="M402 670l-86.5-155"/><ellipse transform="rotate(-7.52 261.662 356.967)" fill="none" stroke="#010101" stroke-width="3" stroke-miterlimit="10" cx="261.7" cy="357" rx="16.5" ry="23"/><path fill="none" stroke="#010101" stroke-width="3" stroke-miterlimit="10" d="M260 380.5l1.4 5.8 7.8-1v-6.6m17.9 6.9s-23.9-1-40 4.2l12.3 72.8h26.3l1.4-77zm24.3 52.1c-7-34.9-24.1-51.9-24.1-51.9m14.4 54.9c2.1 8.6 6.3 25.6 6.3 25.6l6.3-1.5c-.1-4.7-2.5-22.7-2.8-27m-24.2-24.4c6.3 5.7 11 16.7 14.3 27m4-23.3l-8.6 11"/><path fill="none" stroke="#010101" stroke-width="3" stroke-miterlimit="10" d="M308.3 465.9l-8.2 6 2.3 11h15c.4 0 3.2-8.8 3.2-8.8l-6.3-9.5m-61.4-43.8c-12.2 25.5-34.5 25.3-34.5 25.3l-2.5-6.3c29.5-11.3 32.3-44.8 32.3-44.8"/><path fill="none" stroke="#010101" stroke-width="3" stroke-miterlimit="10" d="M218.4 447.1l-1.7 5.2-13 3-4.1-16 10.5-3 6 3.8m43.4 22.3s4.4 82.2 25 123.7l10.5-1s-18.5-61.7-9.3-122.5"/><path fill="none" stroke="#010101" stroke-width="3" stroke-miterlimit="10" d="M264.7 511.2c-7.3 10.6-20.3 77.2-20.3 77.2l-10-1s9.2-79.8 24.8-127.2M295 585.3l3.1 5.1-22.4 9.5-13.2-8 22-5.6"/><path fill="none" stroke="#010101" stroke-width="3" stroke-miterlimit="10" d="M234.4 587.4l-27.7 1.2 9.7 13 28-4.3v-8.7"/><path fill="none" stroke="#27AAE1" stroke-width="4" stroke-miterlimit="10" d="M391 810.9c-5-.9-80 30.1-80 30.1"/><ellipse transform="rotate(-13.419 241.937 664.184)" fill="none" stroke="#010101" stroke-width="3" stroke-miterlimit="10" cx="241.9" cy="664.2" rx="17.1" ry="24.8"/><path fill="none" stroke="#010101" stroke-width="3" stroke-miterlimit="10" d="M242.5 688.3l1.9 7.5 8.4-1.6-1.5-7.5m21.4 81.4c-6.7.8-23 3-23 3l-15-70.6c10-6.8 32.6-6.3 32.6-6.3s5.8 52.9 7.5 68.9m8.8-43.6l-3.1 35.6 7 1.7 8.6-40.5-28.8-22.1m27 32.1L269 710.6"/><path fill="none" stroke="#010101" stroke-width="3" stroke-miterlimit="10" d="M280.5 755.1l-9.8 13.6 11.9 5.7 6.7-7.2-1.8-10.4M240 728.1l-12.3 15-27.5-13.7 1.7-6.3 23.3 7 11-22.8m-54 17.8c.2-.3 4.5-8 4.5-8l4.5-6 10.7 6.7v5.3m-1.6 6.5l-8.3 3.5s-8-6.6-9.7-7.8m93 45.9c-.5 40.5 31.1 111.9 31.1 111.9l-5.5 3.3c-42.4-39.9-48.1-115.5-48.1-115.5"/><path fill="none" stroke="#010101" stroke-width="3" stroke-miterlimit="10" d="M256.2 793.8c-4.3 8.8-30.3 92.7-30.3 92.7l-7-2.2c4.8-54.6 30.8-113.4 30.8-113.4m51.4 115.4l-25 16.8s22.9.8 23.6.8c.6 0 15.3-13.3 15.3-13.3l-8-7.7m-88.1 1.6s-16.3-1.2-26.6-2l-1 11 11.3.7c10 1 23.3 2.7 23.3 2.7v-10.3"/><path fill="none" stroke="#27AAE1" stroke-width="4" stroke-miterlimit="10" d="M384.7 1118.8l-78.4-36.8"/><ellipse transform="rotate(-7.52 246.191 952.068)" fill="none" stroke="#010101" stroke-width="3" stroke-miterlimit="10" cx="246.2" cy="952.1" rx="16.5" ry="23"/><path fill="none" stroke="#010101" stroke-width="3" stroke-miterlimit="10" d="M244.5 975.6l1.4 5.8 7.8-1v-6.6m17.9 6.9s-23.9-1-40 4.2l12.3 72.8h26.3l1.4-77zm24.3 52.1c-7-34.9-24.1-51.9-24.1-51.9m14.4 54.9c2.1 8.6 6.3 25.6 6.3 25.6l6.3-1.5c-.1-4.7-2.5-22.7-2.8-27m-24.2-24.4c6.3 5.7 11 16.7 14.3 27m4-23.3l-8.6 11"/><path fill="none" stroke="#010101" stroke-width="3" stroke-miterlimit="10" d="M292.8 1061l-8.2 6 2.3 11h15c.4 0 3.2-8.8 3.2-8.8l-6.3-9.5m-61.4-43.8c-12.2 25.5-34.5 25.3-34.5 25.3l-2.5-6.3c29.5-11.3 32.3-44.8 32.3-44.8"/><path fill="none" stroke="#010101" stroke-width="3" stroke-miterlimit="10" d="M202.9 1042.2l-1.7 5.2-13 3-4.1-16 10.5-3 6 3.8m43.4 22.3s4.4 82.2 25 123.7l10.5-1s-18.5-61.7-9.3-122.5"/><path fill="none" stroke="#010101" stroke-width="3" stroke-miterlimit="10" d="M249.2 1106.4c-7.3 10.6-20.3 77.2-20.3 77.2l-10-1s9.2-79.8 24.8-127.2m35.8 125l3.1 5.1-22.4 9.5-13.2-8 22-5.6"/><path fill="none" stroke="#010101" stroke-width="3" stroke-miterlimit="10" d="M218.9 1182.5l-27.7 1.2 9.7 13 28-4.3v-8.7"/><path fill="none" stroke="#27AAE1" stroke-width="4" stroke-miterlimit="10" d="M365 1201.5l-68.4 93.6"/><ellipse transform="rotate(-13.419 238.962 1259.285)" fill="none" stroke="#010101" stroke-width="3" stroke-miterlimit="10" cx="238.9" cy="1259.3" rx="17.1" ry="24.8"/><path fill="none" stroke="#010101" stroke-width="3" stroke-miterlimit="10" d="M239.5 1283.4l1.9 7.5 8.4-1.6-1.5-7.5m21.4 81.4c-6.7.8-23 3-23 3l-15-70.6c10-6.8 32.6-6.3 32.6-6.3s5.8 52.9 7.5 68.9m8.8-43.6l-3.1 35.6 7 1.7 8.6-40.5-28.8-22.1m27 32.1l-25.3-15.7"/><path fill="none" stroke="#010101" stroke-width="3" stroke-miterlimit="10" d="M277.5 1350.2l-9.8 13.6 11.9 5.7 6.7-7.2-1.8-10.4m-47.5-28.7l-12.3 15-27.5-13.6 1.7-6.4 23.3 7 11-22.8m-54 17.8c.2-.3 4.5-8 4.5-8l4.5-6 10.7 6.7v5.3m-1.6 6.5l-8.3 3.5s-8-6.6-9.7-7.8m93 45.9c-.5 40.5 31.1 111.9 31.1 111.9l-5.5 3.3c-42.4-39.9-48.1-115.5-48.1-115.5"/><path fill="none" stroke="#010101" stroke-width="3" stroke-miterlimit="10" d="M253.2 1388.9c-4.3 8.8-30.3 92.7-30.3 92.7l-7-2.2c4.8-54.6 30.8-113.4 30.8-113.4m51.4 115.5l-25 16.8s22.9.8 23.6.8c.6 0 15.3-13.3 15.3-13.3l-8-7.7m-88.1 1.5s-16.3-1.2-26.6-2l-1 11 11.3.7c10 1 23.3 2.7 23.3 2.7v-10.3"/><path fill="none" stroke="#27AAE1" stroke-width="4" stroke-miterlimit="10" d="M225.2 369l-91-145"/><ellipse transform="rotate(-7.52 87.876 52.928)" fill="none" stroke="#010101" stroke-width="3" stroke-miterlimit="10" cx="87.9" cy="52.9" rx="16.5" ry="23"/><path fill="none" stroke="#010101" stroke-width="3" stroke-miterlimit="10" d="M86.4 76.5l1.3 5.8 7.8-1v-6.7m17.9 6.9s-23.9-1-40 4.2l12.3 72.8H112l1.4-77zm24.4 52.2c-7-34.9-24.1-51.9-24.1-51.9m14.3 54.8c2.1 8.6 6.3 25.6 6.3 25.6l6.3-1.5c-.1-4.7-2.5-22.7-2.8-27m-24.1-24.3c6.3 5.7 11 16.7 14.3 27m4-23.3l-8.7 11"/><path fill="none" stroke="#010101" stroke-width="3" stroke-miterlimit="10" d="M134.6 161.8l-8.2 6 2.3 11h15c.4 0 3.2-8.8 3.2-8.8l-6.3-9.5m-61.4-43.8C67 142.2 44.7 142 44.7 142l-2.5-6.3c29.5-11.3 32.3-44.8 32.3-44.8"/><path fill="none" stroke="#010101" stroke-width="3" stroke-miterlimit="10" d="M44.7 143.1l-1.6 5.1-13 3-4.2-16 10.5-3 6 3.9m43.4 22.2s4.4 82.2 25 123.7l10.5-1s-18.5-61.7-9.3-122.5"/><path fill="none" stroke="#010101" stroke-width="3" stroke-miterlimit="10" d="M91 207.2c-7.3 10.6-20.3 77.2-20.3 77.2l-10-1s9.2-79.8 24.8-127.2m35.8 125l3.2 5.2-22.5 9.5-13.2-8 22-5.7m-50.1 1.2l-27.6 1.2 9.6 12.9 28-4.3v-8.6"/><path fill="none" stroke="#27AAE1" stroke-width="4" stroke-miterlimit="10" d="M214.2 508l-71 33"/><ellipse transform="rotate(-13.419 79.332 360.118)" fill="none" stroke="#010101" stroke-width="3" stroke-miterlimit="10" cx="79.3" cy="360.1" rx="17.1" ry="24.8"/><path fill="none" stroke="#010101" stroke-width="3" stroke-miterlimit="10" d="M79.9 384.3l1.8 7.5 8.5-1.7-1.5-7.5m21.4 81.4c-6.7.8-23 3-23 3l-15-70.6c10-6.8 32.6-6.3 32.6-6.3s5.8 52.9 7.5 68.9m8.8-43.6l-3.2 35.6 7 1.7 8.7-40.4-28.8-22.2m26.9 32.1l-25.3-15.6"/><path fill="none" stroke="#010101" stroke-width="3" stroke-miterlimit="10" d="M117.8 451l-9.8 13.7 12 5.7 6.6-7.2-1.8-10.5m-47.4-28.6l-12.4 15-27.4-13.7 1.6-6.3 23.3 7 11-22.8m-54 17.8c.2-.3 4.5-8 4.5-8l4.5-6 10.7 6.7v5.3m-1.6 6.4l-8.3 3.5s-8-6.6-9.7-7.8m93.1 46c-.5 40.5 31.1 111.9 31.1 111.9l-5.5 3.3c-42.4-39.9-48.1-115.5-48.1-115.5"/><path fill="none" stroke="#010101" stroke-width="3" stroke-miterlimit="10" d="M93.5 489.8c-4.3 8.8-30.3 92.7-30.3 92.7l-7-2.2C61 525.7 87 466.9 87 466.9m51.4 115.4l-25 16.8s23 .8 23.6.8c.6 0 15.3-13.3 15.3-13.3l-8-7.7m-88.1 1.6s-16.3-1.2-26.6-2l-1 11 11.3.7c10 1 23.3 2.7 23.3 2.7v-10.3"/><path fill="none" stroke="#27AAE1" stroke-width="4" stroke-miterlimit="10" d="M210.8 793h-76.6"/><ellipse transform="rotate(-7.52 86.405 648.028)" fill="none" stroke="#010101" stroke-width="3" stroke-miterlimit="10" cx="86.4" cy="648" rx="16.5" ry="23"/><path fill="none" stroke="#010101" stroke-width="3" stroke-miterlimit="10" d="M84.9 671.6l1.3 5.8 7.8-1v-6.7m17.9 6.9s-23.9-1-40 4.2l12.3 72.8h26.3l1.4-77zm24.4 52.2c-7-34.9-24.1-51.9-24.1-51.9m14.3 54.8c2.1 8.6 6.3 25.6 6.3 25.6l6.3-1.5c-.1-4.7-2.5-22.7-2.8-27m-24.1-24.3c6.3 5.7 11 16.7 14.3 27m4-23.3l-8.7 11"/><path fill="none" stroke="#010101" stroke-width="3" stroke-miterlimit="10" d="M133.1 756.9l-8.2 6 2.3 11h15c.4 0 3.2-8.8 3.2-8.8l-6.3-9.5m-61.4-43.8c-12.2 25.5-34.5 25.3-34.5 25.3l-2.5-6.3C70.2 719.5 73 686 73 686"/><path fill="none" stroke="#010101" stroke-width="3" stroke-miterlimit="10" d="M43.2 738.2l-1.6 5.1-13 3-4.2-16 10.5-3 6 3.9m43.4 22.2s4.4 82.2 25 123.7l10.5-1s-18.5-61.7-9.3-122.5"/><path fill="none" stroke="#010101" stroke-width="3" stroke-miterlimit="10" d="M89.5 802.3c-7.3 10.6-20.3 77.2-20.3 77.2l-10-1s9.2-79.8 24.8-127.2m35.8 125l3.2 5.2-22.5 9.5-13.2-8 22-5.7m-50.1 1.2l-27.6 1.2 9.6 13 28-4.4v-8.6"/><path fill="none" stroke="#27AAE1" stroke-width="4" stroke-miterlimit="10" d="M215.6 1100.4h-79.1"/><ellipse transform="rotate(-13.419 80.357 954.22)" fill="none" stroke="#010101" stroke-width="3" stroke-miterlimit="10" cx="80.3" cy="954.2" rx="17.1" ry="24.8"/><path fill="none" stroke="#010101" stroke-width="3" stroke-miterlimit="10" d="M80.9 978.4l1.8 7.5 8.5-1.7-1.5-7.5m21.4 81.4c-6.7.8-23 3-23 3l-15-70.6c10-6.8 32.6-6.3 32.6-6.3s5.8 52.9 7.5 68.9m8.8-43.6l-3.2 35.7 7 1.6 8.7-40.4-28.8-22.2m26.9 32.2l-25.3-15.7"/><path fill="none" stroke="#010101" stroke-width="3" stroke-miterlimit="10" d="M118.8 1045.2l-9.8 13.6 12 5.7 6.6-7.2-1.8-10.5m-47.4-28.6l-12.4 15-27.4-13.7 1.6-6.3 23.3 7 11-22.8m-54 17.8c.2-.3 4.5-8 4.5-8l4.5-6 10.7 6.7v5.3m-1.6 6.5l-8.3 3.5s-8-6.6-9.7-7.8m93.1 45.9c-.5 40.5 31.1 111.9 31.1 111.9l-5.5 3.3C96.9 1136.6 91.2 1061 91.2 1061"/><path fill="none" stroke="#010101" stroke-width="3" stroke-miterlimit="10" d="M94.5 1083.9c-4.3 8.8-30.3 92.7-30.3 92.7l-7-2.2C62 1119.8 88 1061 88 1061m51.4 115.4l-25 16.8s23 .8 23.6.8c.6 0 15.3-13.3 15.3-13.3l-8-7.7m-88.1 1.6s-16.3-1.2-26.6-2l-1 11 11.3.7c10 1 23.3 2.7 23.3 2.7v-10.3"/><path fill="none" stroke="#27AAE1" stroke-width="4" stroke-miterlimit="10" d="M201.6 1406c-2.6-2-79.6-28-79.6-28"/><ellipse transform="rotate(-7.52 74.297 1244.172)" fill="none" stroke="#010101" stroke-width="3" stroke-miterlimit="10" cx="74.3" cy="1244.2" rx="16.5" ry="23"/><path fill="none" stroke="#010101" stroke-width="3" stroke-miterlimit="10" d="M72.7 1267.6l1.4 5.9 7.8-1v-6.7m17.9 6.9s-23.9-1-40 4.2l12.3 72.8h26.3l1.4-77zm24.3 52.2c-7-34.9-24.1-51.9-24.1-51.9m14.4 54.8c2.1 8.6 6.3 25.6 6.3 25.6l6.3-1.5c-.1-4.7-2.5-22.7-2.8-27m-24.2-24.3c6.3 5.7 11 16.7 14.3 27m4-23.3l-8.6 11"/><path fill="none" stroke="#010101" stroke-width="3" stroke-miterlimit="10" d="M121 1353l-8.2 6 2.3 11h15c.4 0 3.2-8.8 3.2-8.8l-6.3-9.5m-61.4-43.8c-12.2 25.5-34.5 25.3-34.5 25.3l-2.5-6.3c29.5-11.3 32.3-44.8 32.3-44.8"/><path fill="none" stroke="#010101" stroke-width="3" stroke-miterlimit="10" d="M31.1 1334.2l-1.7 5.2-12.9 3-4.2-16 10.5-3 6 3.8m43.4 22.3s4.4 82.2 25 123.7l10.5-1s-18.5-61.7-9.3-122.5"/><path fill="none" stroke="#010101" stroke-width="3" stroke-miterlimit="10" d="M77.4 1398.4c-7.3 10.6-20.3 77.2-20.3 77.2l-10-1s9.2-79.8 24.8-127.2m35.8 125l3.2 5.2-22.5 9.5-13.2-8 22-5.7"/><path fill="none" stroke="#010101" stroke-width="3" stroke-miterlimit="10" d="M47.1 1474.6l-27.6 1.2 9.6 12.9 28-4.3v-8.6"/><path fill="none" stroke="#27AAE1" stroke-width="4" stroke-miterlimit="10" d="M196.2 1508l-74.2 83.4"/><ellipse transform="rotate(-13.419 74.253 1564.363)" fill="none" stroke="#010101" stroke-width="3" stroke-miterlimit="10" cx="74.2" cy="1564.4" rx="17.1" ry="24.8"/><path fill="none" stroke="#010101" stroke-width="3" stroke-miterlimit="10" d="M74.7 1588.5l1.9 7.5 8.5-1.7-1.5-7.5m21.3 81.4c-6.7.8-23 3-23 3l-15-70.6c10-6.8 32.6-6.3 32.6-6.3s5.8 52.9 7.5 68.9m8.9-43.6l-3.2 35.6 7 1.7 8.6-40.5-28.8-22.1m27 32.1l-25.3-15.6"/><path fill="none" stroke="#010101" stroke-width="3" stroke-miterlimit="10" d="M112.7 1655.2l-9.8 13.7 12 5.6 6.6-7.1-1.8-10.5m-47.5-28.6l-12.3 14.9-27.5-13.6 1.7-6.3 23.3 7 11-22.8m-54 17.8c.2-.3 4.5-8 4.5-8l4.5-6 10.7 6.7v5.3m-1.6 6.4l-8.3 3.5s-8-6.6-9.7-7.8m93.1 46c-.5 40.5 31.1 111.9 31.1 111.9l-5.5 3.3c-42.4-39.9-48.1-115.5-48.1-115.5"/><path fill="none" stroke="#010101" stroke-width="3" stroke-miterlimit="10" d="M88.4 1694c-4.3 8.8-30.3 92.7-30.3 92.7l-7-2.2c4.8-54.6 30.8-113.4 30.8-113.4m51.4 115.4l-25 16.8s22.9.8 23.6.8c.6 0 15.3-13.3 15.3-13.3l-8-7.7m-88.1 1.6s-16.3-1.2-26.6-2l-1 11 11.3.7c10 1 23.3 2.7 23.3 2.7v-10.3"/></svg>