<svg version="1" xmlns="http://www.w3.org/2000/svg" width="432" height="432"><g fill="#27AAE1"><path d="M280.7 171.2s-16.4 33.4-32.8 44.8l-2.5 21.9s43.1-30.6 40.7-51.6c-.2-1.4-.9-14.6-.9-14.6l-4.8-1.6m-121.9-46.5s-13.6 20-4.6 36.3c0 0-12.7-7.3-8.9-20.3 3.9-13.1 11.5-16.1 13.5-16zm-17.8 40.9l-2.8 56 42.3 80h-3s-26.2-48.3-33.4-57.1l-.9-1.4-1 7.5s-5.4 21.2-14.8 30.1-16.4 18.3-16.4 18.3l16 10.8-12.2 3.4-15-11.6s13.6-14.3 16.8-21.8c3.2-7.5 10.2-27.2 11.4-34.5 1.2-7.3 2.9-21.9 2.9-21.9l-2-3.1 4.4-40.4-13.6 3.8-5.9 23.7h-2l4.8-28.7 16.7-10.9 7.7-2.2z"/><path d="M177.2 300.5l-.7 4.7 19.6 6.9 8.4-8.4z"/></g><g fill="none" stroke="#000" stroke-width="2" stroke-miterlimit="10"><ellipse transform="rotate(-79.618 157.207 141.79)" cx="157.2" cy="141.8" rx="18.4" ry="12.4"/><path d="M147.2 126.3s13.8 1.9 21 0m-22.8 3.2s14 2.8 24.8 0m-26.2 3.6s16.2 3.7 26.6 0M148.9 157l-1.7 7.3 7.6 1.4 1.4-6.2"/><path d="M163.9 168.8s-17.8-8.3-29.5-2.6l-5.7 52.9 19.4 2.6 15.8-52.9z"/><path d="M134.4 166.3l-21.9 8.8-3.2 31.3h4.3l5.9-23.7m-8 2.1l21.6-5.9"/><path d="M113.6 206.4l2.6 4.8v5.4h-3.1l-1.6-2.7L110 226l-4.8-6.2 4.1-13.8m53.8-34.3s4.9 27 28.4 27.7v5.3s-19.7 2-32.9-16.5m32.9 11.2l7.5-2.5 11.2 6.1-5.6 3-5.1-1.2 1.4 2.5-3.9.7-5.5-3.3m-62.8 14.5s39.2 61 48.6 81.2h6.4s-21.6-57-35.6-78.6"/><path d="M130.4 221.9s-.7 45.9-25.2 73l4.1 3s31.9-24.5 33.7-56m34.2 58.6l25.8 1.2-10.9 8.3-15.6-4.8z"/><path d="M105.2 294.9l-5.7 5.6s8.9 10.6 9.4 10.6 16.5-3.7 16.5-3.7l-16-9.6m163.1-133.5l-4 .2c-6.6.3-12.2-4.9-12.5-11.5l-.7-15.8c-.3-6.6 4.9-12.2 11.5-12.5l4-.2c6.6-.3 12.2 4.9 12.5 11.5l.7 15.8c.4 6.6-4.9 12.2-11.5 12.5z"/><path d="M255.9 147.2s6.4 1 10.3-.6 9.5-1.4 10.3 0c.8 1.5 7.4 1.2 7.4 1.2m-28.4-6s-4.3-.1-4.3 3.8c0 3.8 4.1 5.4 4.1 5.4"/><path d="M275 171.2c6.3-.8 12.6-2.7 18.5-6.3 0 0-5.8-12.1-5.8-24.3s-2.5-26.8-18-25.4c0 0-24.7-3.4-28.2 30.7 0 0-2.2 19.5-3.3 20.8 0 0 7.6 4.1 17.4 5.6"/><path d="M263.5 163.6v7.6H275v-7.3"/><path d="M252.4 172.8s22.5-4.1 33.3 0c0 0 5 87.5 8.8 112.8 0 0-29.4 11-53.2 0l11.1-112.8z"/><path d="M252.4 173.1l-12.6 4.7-25.2 36.3s12.7 13.3 22.2 14.3l9.5-34.3s1.8-1 4.1-2.3"/><path d="M220.4 220.1c-.3.9-5.8 12.5-5.8 12.5l2.9 11.2 8.2-11.9 1.7 4.9 4-2.3-1.7-8.4m87.9-17.2c5.3.8 14.9 2.2 14.9 2.2l-2.3 4.4-8.2.9 5.6 3.8-2.9 3.3-8.2-4.3"/><path d="M286.2 182.8c7.1 7.1 21 20 30.9 22.3l-.6 28.3s-17.4-7.9-28.6-25m-9.8-36.4s-13.8 25-30 41.9m38.4-26.5c.1.8-19.3 36-40.9 49.7m5 52.4c-1.7 4.6-5.8 15.8-5.8 15.8h4.8s8.2-7.5 13.2-15.1m11.1.3l11.6 15.8h5.6l-4-18.7m-42 18.7c2.2 0 23.3 3.9 23.3 3.9l-11.7 6.6-11.6-10.5zm39.8 0h23.6l-6.5 6.9-17.1-3.9z"/></g><path fill="none" d="M78.4 298.3c-1.9 2-.8 5.6 1.5 7.1s5.2 1.6 8 1.6c11.3.1 22.5.1 33.8.2-20.3.4-40.5.2-60.8-.6-6.4-.3-13.1-.7-18.5-4 45.4-6.2 91.4 2.8 137.2 4.3-38.1-1.4-76.1-4.6-113.9-9.3 44.3-.3 88.7-.5 133-.8-43.2-.9-86.6-1.8-129.1-9.3 42-4.5 84.3-4.3 126.6-4.1L57.6 269.6c48.4 1.9 96.7 3.8 145.1 5.7-30.7-9.3-62.3-14.9-93.9-20.5 41 0 82.1.5 123.1 1.7-44.2-5.3-88.3-10.5-132.5-15.7 48 1 96 1.9 144 2.8-58.8-3.1-117.8-6.3-175.6-17.6 69.9-.3 139.4 11.7 209.3 10.4-46.9-7.1-95.6-2.9-141.2-16.3 55.7.4 111.5.7 167.3 1.1-62.9-12.6-128.1-5.7-191.7-14.2 56 1.5 111.9 5.2 167.6 11.1-43.2.2-86.3-2.6-129.1-8.4-11.6-1.6-23.5-3.5-33.6-9.5 54-.6 108-.6 162 .1-9.2-4.1-19.4-5.1-29.4-5.9-43.9-3.6-87.9-4.5-131.9-3.9-12.8.2-25.8.5-38.4-2.1 9.2-1.9 18.7-1.8 28.1-1.7 61.7.8 123.4 3 185 6.6-60.1-15.9-125.3-1.1-184.8-18.8 9.8-4.6 21.1-4.7 31.9-4.5 59.2 1.3 118.2 9.4 176.6 19.5-8.7-7.1-20.4-9-31.5-10.6-49.4-6.9-99.3-10.2-149.1-10.6-18.5-.1-37.3.1-55.2-4.6 61.5-1.3 123-1.9 184.5-1.9-55.3-3.4-110.5-7.6-165.6-12.5 46.2 2.4 92.5 2.9 138.7 1.6-50.2-4.1-100.4-8.1-150.6-12.2l175.6 3.3c-57.1-6.2-114.3-12.4-171.8-13 36.1-.3 72.2-.5 108.3-.8-33.7-2.9-67.3-7.5-100.6-13.8 52.4 2.4 104.8 3.2 157.3 2.6"/></svg>