<svg xmlns="http://www.w3.org/2000/svg" viewBox="-6045 -2980 32 31"><defs><style>.cls-1{fill:#fff}</style></defs><g id="b-meeting" transform="translate(-6045 -2980)"><g id="Group_39" data-name="Group 39"><path id="Path_63" data-name="Path 63" class="cls-1" d="M31 0H14a1 1 0 00-1 1v16.081L19 12h12a1 1 0 001-1V1a1 1 0 00-1-1z"/><circle id="Ellipse_99" data-name="Ellipse 99" class="cls-1" cx="4" cy="4" r="4" transform="translate(21 14)"/><circle id="Ellipse_100" data-name="Ellipse 100" class="cls-1" cx="4" cy="4" r="4" transform="translate(3 14)"/><path id="Path_64" data-name="Path 64" class="cls-1" d="M12.525 25.433A10.766 10.766 0 007 24a10.694 10.694 0 00-5.538 1.429A3.018 3.018 0 000 28.007V31h14v-2.982a3.012 3.012 0 00-1.475-2.585z"/><path id="Path_65" data-name="Path 65" class="cls-1" d="M30.525 25.433A10.766 10.766 0 0025 24a10.694 10.694 0 00-5.538 1.429A3.018 3.018 0 0018 28.007V31h14v-2.982a3.012 3.012 0 00-1.475-2.585z"/></g></g></svg>