<svg xmlns="http://www.w3.org/2000/svg" width="64" height="64"><g class="nc-icon-wrapper" fill="#fff"><path d="M32 2c-8.271 0-15 6.729-15 15v4c0 8.271 6.729 15 15 15s15-6.729 15-15v-4c0-8.271-6.729-15-15-15z"/><path data-color="color-2" d="M51 38c-6.627 0-12 5.373-12 12s5.373 12 12 12 12-5.373 12-12-5.373-12-12-12zm5 13h-4v4a1 1 0 01-2 0v-4h-4a1 1 0 010-2h4v-4a1 1 0 012 0v4h4a1 1 0 010 2z"/><path d="M37 50c0-2.977.936-5.731 2.52-8H20C9.523 42 1 50.523 1 61a1 1 0 001 1h41.816C39.738 59.553 37 55.102 37 50z"/></g></svg>