<svg xmlns="http://www.w3.org/2000/svg" viewBox="-6044 -2841 32 29.871"><defs><style>.cls-1{fill:#fff}</style></defs><g id="plant-ground" transform="translate(-6044 -2842.129)"><g id="Group_41" data-name="Group 41"><path id="Path_68" data-name="Path 68" class="cls-1" d="M31 29h-9.1a5.009 5.009 0 0 0-4.9-4v-4a6 6 0 0 0 6-6v-4h-1a5.992 5.992 0 0 0-5 2.686V2.129a1 1 0 0 0-2 0v7.557A5.992 5.992 0 0 0 10 7H9v4a6 6 0 0 0 6 6v8.424a4.961 4.961 0 0 0-2.1 1.717A2.941 2.941 0 0 0 12 27a3.006 3.006 0 0 0-2.829 2H1a1 1 0 0 0 0 2h30a1 1 0 0 0 0-2z"/></g></g></svg>