<svg xmlns="http://www.w3.org/2000/svg" viewBox="-6044 -3052 30.713 31.872"><defs><style>.cls-1{fill:#fff}</style></defs><g id="action-74" transform="translate(-6044.287 -3052.128)"><g id="Group_38" data-name="Group 38"><path id="Path_61" data-name="Path 61" class="cls-1" d="M1.871 10.107a1.036 1.036 0 0 0 .146-.011l27.065-3.989a1.006 1.006 0 0 0 .66-.4.993.993 0 0 0 .182-.748L29.3.974A.993.993 0 0 0 28.166.14L1.143 4.062A1 1 0 0 0 .3 5.193L.881 9.25a1 1 0 0 0 .99.857z"/><path id="Path_62" data-name="Path 62" class="cls-1" d="M30 12H2a1 1 0 0 0-1 1v18a1 1 0 0 0 1 1h28a1 1 0 0 0 1-1V13a1 1 0 0 0-1-1zM13 27V17l9 5z"/></g></g></svg>