<svg xmlns="http://www.w3.org/2000/svg" viewBox="-6044 -2910 32 29"><defs><style>.cls-1{fill:#fff}</style></defs><g id="user-run" transform="translate(-6044 -2912)"><g id="Group_40" data-name="Group 40"><circle id="Ellipse_101" data-name="Ellipse 101" class="cls-1" cx="4" cy="4" r="4" transform="translate(22 2)"/><path id="Path_66" data-name="Path 66" class="cls-1" d="M31.414 13.586a2 2 0 00-2.828 0L27 15.172 16.414 4.586a2 2 0 00-2.828 0l-4 4a2 2 0 002.828 2.828L15 8.828l2.672 2.672-3.308 3.308a4 4 0 00.708 6.221l4.121 2.571-2.857 4.286a2 2 0 103.328 2.219l4-6a2 2 0 00-.6-2.806l-5.868-3.667 3.304-3.304 5.086 5.086a2 2 0 002.828 0l3-3a2 2 0 000-2.828z"/><path id="Path_67" data-name="Path 67" class="cls-1" d="M9.169 20l-2 2H2a2 2 0 000 4h6a2 2 0 001.414-.586L12 22.831A2 2 0 109.169 20z"/></g></g></svg>