<svg version="1" xmlns="http://www.w3.org/2000/svg" width="288" height="288"><ellipse transform="matrix(.9998 -.02069 .02069 .9998 -2.086 3.036)" fill="none" stroke="#000" stroke-width="2" stroke-miterlimit="10" cx="145.7" cy="102.3" rx="12.2" ry="18.7"/><path fill="none" stroke="#000" stroke-width="2" stroke-miterlimit="10" d="M141.4 119.7l-.4 8.2-12.3.3s-13.2 18.4-14.6 23.4c0 0 4.9 26.7 9.1 35.3l3.4-.6-3.5-32.1 6.7-9.6 1.7 42.3-1.7 15.2"/><path fill="none" stroke="#000" stroke-width="2" stroke-miterlimit="10" d="M126.5 186.3l3.7 5.7-3 2-1.9-.9.3 11.2s-6.8-2.6-6.4-3c.3-.4 3.2-14.5 3.2-14.5l4.1-.5zm23.1-66.2l.7 6.8 9.3 1.2 13.7 18.1-1.9 35.7-3.5.5-2.3-30.2-6-8.1 1.3 42.2 2.5 15.2"/><path fill="none" stroke="#000" stroke-width="2" stroke-miterlimit="10" d="M167.9 182.4l-2 5.7 3.3 1.7 1.2-.7 1.4 9.8 5.5-5.3-5.9-11.7"/></svg>