<svg version="1" xmlns="http://www.w3.org/2000/svg" width="288" height="288"><path d="M131.5 146.6l-14.6-19.4-8.3-1.1-.6-4c5.1-3.3 8.3-10.8 8.1-19.2-.2-11.5-6.5-20.4-14.4-20.4h-.2c-8 .2-14 9.4-13.8 21 .2 7.3 2.8 13.8 7 17.5-.4 1.7-.2 3.7-.1 5.7v.2l-10.8.3-.6.8c-1.4 1.9-13.4 18.8-14.9 24l-.1.4.1.5c.2 1 4.4 23.8 8.4 33.9l-.1.6c-1.2 5.8-2.6 12.2-3 13.9l-.4.5.2 1.1c.2 1 .3 1.6 7.7 4.4l2.8 1.1-.3-11 3.9-2.6c0 .2-.1.5-.1.7-.1.3-.1.6-.2 1-.4 2-.4 3.9-.5 5.8 0 .3 0 .6.1.8l-1.5 2.3 4.4-.7c11.1-1.7 19.9-1.8 26.9-.1l1.9.4.5-1.9c0-.1 0-.2.1-.3.1-.1.1-.3.2-.5l.3-.1-2.6-18.1c0-1 .1-1.9.2-2.7l.1-.5c.2-1.8.4-3.7-.2-5.6l.7-24.4 2.2 3 2.2 29.2-2.4 6.9 5.3 2.7 1.6 11.2 9.4-9-6.3-12.5 1.7-35.8zm-46.7 40.2l-3.4-31.1 3.2-4.5 2.4 24v.4c0 .3-.1.6-.1.9-.1 1.6-.2 3.5 0 5.4.1.9.3 1.8.4 2.6l.3 4.9c0 .7.1 1.3.1 2l-2.9-4.6zm127.4-19.6c-.2-2.1-.3-4.2-.4-6.3v-.3l-5.1-12.4 6.3-3.8-1.8-1.8c-.1-.1-6.8-7.1-10-31.1-1.5-10.5-4.9-17.8-10.2-21.6-4.5-3.2-8.8-2.8-9.6-2.7-1.9.1-17.9 2.1-19.4 26.7-1.4 23.1-9 30.5-9 30.5l-2.3 2.1 7.7 3.4-3.6 11.7-1.4 32.6-3.3 15.5 14.1 5.5-1.4-9.5.6.4 4.3-6.4-5.1-4.5 4.5-28.5 1.9-6.2 1.2 9.8c-4.9 13.3-4.9 13.7-4.9 14.1 0 .2.2 3.2.3 5.7l.1 2.2 37.3-5.8c1.2 5.3 1.9 5.4 3.1 5.5.8.1 1.7-.2 2.3-.8.9 1.1 2.2 1.5 3.4 1.1l1.4-.5v-1.4c.1-7.8-.4-15.6-1-23.2zm-12.7 5.8c0-1-.2-4.7-.4-9l.3.7c.1.7.4 2.2.7 4.1.7 4.4 1.3 7.9 1.7 10.7-1-2.7-2.1-5.8-2.3-6.5z" fill="#FFF"/></svg>