<svg version="1" xmlns="http://www.w3.org/2000/svg" width="288" height="288"><ellipse transform="matrix(.9998 -.02069 .02069 .9998 -2.115 2.13)" fill="none" stroke="#000" stroke-width="2" stroke-miterlimit="10" cx="101.9" cy="103.3" rx="12.2" ry="18.7"/><path fill="none" stroke="#000" stroke-width="2" stroke-miterlimit="10" d="M97.6 120.7l-.4 8.2-12.3.3s-13.2 18.4-14.6 23.4c0 0 4.9 26.7 9.1 35.3l3.4-.6-3.5-32.1 6.7-9.6 4.2 42.3-1.2 15.2"/><path fill="none" stroke="#000" stroke-width="2" stroke-miterlimit="10" d="M82.7 187.3l3.7 5.7-3 2-1.9-.9.3 11.2s-6.8-2.6-6.4-3c.3-.4 3.2-14.5 3.2-14.5l4.1-.5zm23.1-66.2l.7 6.8 9.3 1.2 13.7 18.1-1.9 35.7-3.5.5-2.3-30.2-6-8.1-1.2 42.2 3 15.2"/><path fill="none" stroke="#000" stroke-width="2" stroke-miterlimit="10" d="M124.1 183.4l-2 5.7 3.3 1.7 1.2-.7 1.4 9.8 5.5-5.3-5.9-11.7"/><ellipse transform="rotate(-1.281 181.992 110.969) scale(.99995)" fill="none" stroke="#000" stroke-width="2" stroke-miterlimit="10" cx="182" cy="111" rx="10.4" ry="15.9"/><path fill="none" stroke="#000" stroke-width="2" stroke-miterlimit="10" d="M160.9 148.9l-6.6-2.9s8.2-7.4 9.7-31.9 17.6-24.8 17.6-24.8 14.1-2.6 17.6 22.6c3.4 25.2 10.6 32.2 10.6 32.2l-5.4 3.2"/><path fill="none" stroke="#000" stroke-width="2" stroke-miterlimit="10" d="M179.7 126.5l-.3 6.9h6.8l-1.2-7"/><path fill="none" stroke="#000" stroke-width="2" stroke-miterlimit="10" d="M167.6 190c-.2-3.5-.3-5.5-.3-5.6 0-.5 4.9-13.9 4.9-13.9l-2.5-19.7-4.6 15.4-4.7 29.7 4.6 4.1-2.2 3.3-2.7-1.8 1.6 10.6-9.3-3.6 3-14 1.4-32.5 7.4-24.3s17.9-6.8 34.7-3.1l10.9 26.5c.6 9.7 1.6 19.4 1.5 29.2-.9.3-1.6-.7-2-1.6-.3-.9-.8-1.9-1.8-1.9.2.6.3 1.3.1 2-.2.6-.7 1.2-1.4 1.2-1.3-.1-4.5-22.9-5-25.7l-4.8-13.4s1 21.9 1 22.4c0 .4 2.9 8.6 4 11.5"/></svg>