<svg version="1" xmlns="http://www.w3.org/2000/svg" width="1818.1" height="829.9"><path d="M85 745.9s339-20 393-8c0 0 3-41 0-44s-8-26-4-44 26-115 26-124-6-166-11-178-27-58-24-68-232-69-287-12-141 162-143 192-10 237-5 249 55 37 55 37zm1204 70c8 4 43 12 67 6s87-2 129-6 146 0 178 0 55-41 55-41-10-60 18-107 58-51 48-112 29-222 21-233-14-72-25-88-213-216-213-216-47-15-118 0-179 86-189 104-51 104-50 109-18 68-16 71 109 32 109 32-24 17-25 31-17 61-17 61 2 103 2 106 16 76 16 79 8 97 8 97l2 107z" fill="#27AAE1"/></svg>