<svg version="1" xmlns="http://www.w3.org/2000/svg" width="117.3" height="163.7"><ellipse transform="rotate(-1.281 59.93 48.373) scale(.99995)" fill="none" stroke="#010101" stroke-width="2" stroke-miterlimit="10" cx="59.9" cy="48.4" rx="10.4" ry="15.9"/><path fill="none" stroke="#010101" stroke-width="2" stroke-miterlimit="10" d="M38.8 86.3l-6.6-2.9s8.2-7.4 9.7-31.9 17.6-24.8 17.6-24.8 14.1-2.6 17.6 22.6c3.4 25.2 10.6 32.2 10.6 32.2l-5.4 3.2"/><path fill="none" stroke="#010101" stroke-width="2" stroke-miterlimit="10" d="M57.6 63.9l-.3 6.9h6.8l-1.2-7"/><path fill="none" stroke="#010101" stroke-width="2" stroke-miterlimit="10" d="M45.5 127.4c-.2-3.5-.3-5.5-.3-5.6 0-.5 4.9-13.9 4.9-13.9l-2.5-19.7-4.6 15.4-4.7 29.7 4.6 4.1-2.2 3.3-2.7-1.8 1.6 10.6-9.3-3.6 3-14 1.4-32.5 7.4-24.3S60 68.3 76.8 72l10.9 26.5 2.2 33.1 5.7 12.9-7.2 4.3-.6-7.5-2 3.1-3.3-1.5 2.8-9.6-6.1-31.7-4.8-13.4s1 21.9 1 22.4c0 .4 2.9 8.6 4 11.5"/></svg>