<svg version="1" xmlns="http://www.w3.org/2000/svg" width="288" height="288"><path fill="none" stroke="#000" stroke-width="2" stroke-miterlimit="10" d="M156.3 176c0-4.1.1-7.1.1-7.1l-18.5 19.4-5.1-28.6c-3.5 11.9-7.9 18.5-7.9 18.5-7.2-14.2-23.7-62.5-23.7-62.5-2.6 20 3.5 59.3 3.5 59.3l-10.2-13.3-1.2 12.2M36 143s-7.7-19-8.7-35c0 0 12.5 16.7 16.8 21.5 0 0-2.8-29.2 3.7-41.8 0 0 6.5 38.7 9.2 45.7 0 0 7.5-13.3 15.2-18 0 0-4.7 22.1-4.5 34.8 0 .8.1 1.6.1 2.4M175.9 163s.2-9.7-5.7-20c0 0 8.5 2.5 11.7 8.8 0 0 7.1-17.9 4.5-29.2 0 0 6 11.4 9.2 28.5 0 0 4-11.3 3.7-18.1 0 0 6.6 10.7 8.5 17.9m15.5-13.9s7.3-11.2 8.2-21c0 0 4 12.3 3.5 21 0 0 13.2-25.3 13.3-33.7 0 0 2.8 28.5-1.2 37.3 0 0 10.7-18.8 12.3-23.2 0 0 2.3 16.7-5.8 28.3"/><path fill="none" stroke="#000" stroke-width="2" stroke-miterlimit="10" d="M37 155.8l8.8-2c1.1-.3 2.2.6 2.2 1.8v6.1c0 1.2 1.2 2.1 2.4 1.8l2.3-.7c1.2-.4 2.4.5 2.4 1.8v5.6c0 1.5 1.6 2.3 2.8 1.5l7.8-5c1.2-.8 2.7 0 2.8 1.4l1 14.1c.1 1.4 1.6 2.2 2.8 1.4l7.3-4.6c.9-.5 2-.3 2.6.6l5.4 9c.6 1 2 1.2 2.8.4l4.6-4.2c.9-.8 2.2-.6 2.8.4l5.5 9.4c.6 1.1 2.1 1.2 2.9.3l7-7.6c.8-.9 2.3-.7 2.9.3l6 10.2c.7 1.2 2.5 1.2 3.2 0l.4-.7c.6-1.1 2.1-1.2 2.9-.3l5.2 5.6c.8.8 2.1.8 2.8-.1l5.5-7.2c.6-.7 1.6-.9 2.4-.5l6.6 3.7c1 .6 2.3.1 2.7-1.1l2.7-9c.4-1.3 2.1-1.8 3.1-.8l2 2c1 1.1 2.9.5 3.1-1l2.5-13.9c.2-1.2 1.5-1.9 2.6-1.3 5.1 2.4 17.4 8.2 17.9 7.4.5-.7 5.2-6.8 8.1-10.5.9-1.2 2.8-.8 3.2.6l.9 3c.4 1.4 2.2 1.7 3.1.6l3.1-3.6c.9-1 2.6-.8 3.1.5l1 2.5c.5 1.4 2.4 1.6 3.2.4l1.9-2.7c.6-.9 2-1 2.8-.3l3.1 3c.9.9 2.5.6 3-.6l1.2-2.8c.5-1.1 1.8-1.5 2.8-.8l3.7 2.8c1.2.9 2.9 0 2.9-1.5v-11.8c0-1.2 1.1-2 2.2-1.8l5.4 1.1"/><path fill="none" stroke="#000" stroke-width="2" stroke-miterlimit="10" d="M156.3 176c0-4.1.1-7.1.1-7.1l-18.5 19.4-5.1-28.6c-3.5 11.9-7.9 18.5-7.9 18.5-7.2-14.2-23.7-62.5-23.7-62.5-2.6 20 3.5 59.3 3.5 59.3l-10.2-13.3-1.2 12.2"/></svg>