<svg version="1" xmlns="http://www.w3.org/2000/svg" width="288" height="288"><path fill="#FFF" d="M259.4 117.4c-1.3 3.7-9 17.3-11.5 21.8h-.3c3.2-10.1.7-35.9.7-35.9-.1 8.4-13.3 33.7-13.3 33.7.5-8.7-3.5-21-3.5-21-.8 8.7-6.7 18.6-8 20.6-1.3.5-2.6 1.2-3.9 1.8-1.5.7-2.9 1.5-4.4 2.2-2.8 1.4-5.6 3-7.3 5.7-.5.8-.8 1.4-1.1 1.8-2.5-6.9-7.6-15.1-7.6-15.1.3 6.8-3.7 18.1-3.7 18.1-3.2-17.1-9.2-28.5-9.2-28.5 2.6 11.3-4.5 29.2-4.5 29.2-3.2-6.3-11.7-8.8-11.7-8.8 4 7 5.2 13.7 5.5 17.3-.3.6-.6 1.3-1 1.8-2.6 3.7-8.5 3.2-11.7 6.4-2.2 2.2-3.6 6.3-6.6 6.2-.3-1.8-.7-5 0-5.7 0 0-.3.3-.7.8 0-.4-.1-.8-.1-1.2-5.3 6.7-11.3 12.8-17.8 18.2l-.6-2.7-4.3-24.3c-.4 1.3-.7 2.4-1.1 3.6-.2-.2-.4-.3-.7-.3-1.1 5.1-3.4 10-6.6 14.2-7.4-15.4-23.2-61.4-23.2-61.4-2.3 17.6 2.2 50.1 3.3 57.7-.1.3-.1.6-.2 1h-.1c-2.1-2.7-9.7-12.6-9.7-12.6 0 .5-.1 1-.1 1.5-6.3-7.2-17.6-7.1-26.6-11 0-.6-.1-1.3-.1-1.9-.2-12.7 4.5-34.8 4.5-34.8-7.7 4.7-15.2 18-15.2 18-2.7-7-9.2-45.7-9.2-45.7-6.5 12.6-3.7 41.8-3.7 41.8-4.3-4.8-16.8-21.5-16.8-21.5.8 13.3 6.3 28.6 8.1 33.4-.1.1-.3.2-.4.3-.2 2.5 1.1 5.1 3.2 6.5l-3.3 1.2c-4 8.4 7.3 5.2 10.9 4.4 1.1-.3 2.2.6 2.2 1.8v6.1c0 1.2 1.2 2.1 2.4 1.8l2.3-.7c1.2-.4 2.4.5 2.4 1.8v5.6c0 1.5 1.6 2.3 2.8 1.5l7.8-5c1.2-.8 2.7 0 2.8 1.4l1 14.1c.1 1.4 1.6 2.2 2.8 1.4l7.3-4.6c.9-.5 2-.3 2.6.6l5.4 9c.6 1 2 1.2 2.8.4l4.6-4.2c.9-.8 2.2-.6 2.8.4l5.5 9.4c.6 1.1 2.1 1.2 2.9.3l7-7.6c.8-.9 2.3-.7 2.9.3l6 10.2c.7 1.2 2.5 1.2 3.2 0l.4-.7c.6-1.1 2.1-1.2 2.9-.3l5.2 5.6c.8.8 2.1.8 2.8-.1l5.5-7.2c.6-.7 1.6-.9 2.4-.5l6.6 3.7c1 .6 2.3.1 2.7-1.1l2.7-9c.4-1.3 2.1-1.8 3.1-.8l2 2c1 1.1 2.9.5 3.1-1l2.5-13.9c.2-1.2 1.5-1.9 2.6-1.3 5.1 2.4 17.4 8.2 17.9 7.4.5-.7 5.2-6.8 8.1-10.5.9-1.2 2.8-.8 3.2.6l.9 3c.4 1.4 2.2 1.7 3.1.6l3.1-3.6c.9-1 2.6-.8 3.1.5l1 2.5c.5 1.4 2.4 1.6 3.2.4l1.9-2.7c.6-.9 2-1 2.8-.3l3.1 3c.9.9 2.5.6 3-.6l1.2-2.8c.5-1.1 1.8-1.5 2.8-.8l3.7 2.8c1.2.9 2.9 0 2.9-1.5v-11.8c0-1.7 1-1.9 2.2-1.7 1.2.2 2.7.9 3.4.9 2.9 0 3.5-1.5 4.5-4.2 1.2-3.2 3.7-5.9 6.8-7.3.9-.4 1.9-1 2.1-1.8 7.8-12 5.6-28.3 5.6-28.3z"/></svg>