<svg version="1" xmlns="http://www.w3.org/2000/svg" width="288" height="288"><g fill="#27AAE1"><path d="M107.7 37.3s-12.5 23.2 2.5 38.3c0 0-12.3-2.5-12.5-19.2-.2-16.6 10-19.1 10-19.1zm-19.6 68.9c-1-.4-1.7-1.3-1.4-2.4.3-.9 1.4-1.7 2.4-1.4.4.2.8.3 1.2.5l3.2-5.2-1.3-6.7-10.7 16.8 3.7 3.5 3.1-5c-.1 0-.1 0-.2-.1z"/><path d="M99.6 103.9h.8l-1.6-22.3-6.6.9 1.6 21.6c1.9-.1 3.9-.2 5.8-.2zm3.4 36.4l-.5-7c-1.1.3-2.4.4-3.6.5-1.1 0-2.1-.1-2.9-.3l6.3 97.2L83 245.5l12.9 4.2 8.9-19.4V145l16.6-.4-18.4-4.3z"/><path d="M119.7 145.1l5.3 83.7 20 13.9s-13.3 7.7-13.6 7.1-8.7-20.5-8.7-20.5l-8.1-84.2h5.1z"/></g><g fill="none" stroke="#000" stroke-width="2" stroke-miterlimit="10"><ellipse cx="110.2" cy="56.5" rx="12.5" ry="19.2"/><path d="M101.3 39.8s7.5 1.8 16-.7m-18.1 4.1s8.2 2.5 21-.8m-22.5 4.4s17.8 2.3 24.2-2m-15.7 29.9v6.5l8.8-.3-.8-6.2"/><path d="M126.8 101.1V81.6c-12.8-2.2-34.7.8-34.7.8s.8 9.4 1.9 20.7"/><path d="M92.2 82.5s-14 18.8-18.3 32.1c0 0 7.7 8.4 15.9 12.8m3.6-31.1s-1.9 2.7-3.9 6.1m-1.9 3.6c-.9 1.8-1.8 3.7-2.3 5.3m4 5.4L79 103.1"/><path d="M88.2 116.5l1.8 12.7 11.3-2.2-.5-8zm38.2-34.9s17.3 13.1 22.4 24.1l-3 15.8"/><path d="M146.4 123.8l-3.2-12.4-11.1 3.4 1.5 7.9zm2.4-18.1l-8.6.5m-47.1 22.9c.5 2.3.9 3.7.9 3.7l20.5.3m-5.4-24.3l1.5-3.4-23.6-3s1.6 6.9 3.2 14.1m19.1-7.3l10.9-1.7 2.5 25.3-7.7 1.2z"/><path d="M120.4 107.2l-3.1-2.7 21.5-8.2s.7 8.2 1.4 16.3m.9 10.5c.3 3.6.5 6.1.5 6.1l-19 2.9m8.8-12.4l-1.8-13.1m-2.8 3.4l6.6-1.3"/><path d="M96.7 133.2c.6 6.1.9 10.3.9 10.3s17.7 3.5 29.2 0v-12.4"/><path d="M97.7 143.5l5.1 86.7h3.4l5.6-85.2m2.7.1l8.2 84.1 4.1-.4v-85.3m-23 86.7l-19.7 12.9 15.8 5.8 7.7-18z"/><path d="M122.7 229.2l8.7 20.6 17.6-9.3-22.2-11.7z"/><ellipse cx="206.6" cy="59.2" rx="12.2" ry="18.7"/><path d="M202.3 76.7l-.8 6.3m8.3-5.7v5.9m-20.2 15.2c.6-8.2 1-14.4 1-14.4s19-3 28.2 1.2c0 0-.2 7.3-.6 16.7"/><path d="M188 104.8c3.8 1.4 14.7 4.7 23.7.3l6.3 4.3c-18.2 15.6-42.6-1.1-42.6-1.1 1.3-11.2 15.1-23.2 15.1-23.2"/><path d="M199.2 101.5l-4.8-3.7-7.7 1.1.6 5.6 9.5 2.5zm10.6 4.7l-10.3-3.9-2.7 5.2m22.1-22.3s11.8 17.7 12.3 27.4c0 0-9.1 7.7-22.3 2.1"/><path d="M211.8 105.1l2.8-4.6 4.3 1 1.2 6-2 1.9m2-1.9l10.7 4.7m-43.5-7.7l-11.1 3m41.6 9.3c-.4 12.9-.8 24.8-.8 24.8s-20 1.8-30.3-2.2c0 0 .9-11.9 1.8-24.7"/><path d="M186.7 139.5l5.1 90.7h4l5.7-88.1m1.8-.1l8.5 88.2h4.1l1.1-88.5m-25.2 88.5L173 244l15.2 4.2 7.6-18m16 0l4.6 19.6L233 244l-17.1-13.8"/></g></svg>