<svg version="1" xmlns="http://www.w3.org/2000/svg" width="288" height="288"><g fill="#FFF"><path d="M110.8 224l6.4 11.2 11.1-5.6-13.8-5.6z"/><path d="M153.8 108.7c.1-.4.2-.8.2-1.3.2-5.3-.7-15-9.4-8.6 0 0-5.8-2-7-1-4.2 3.5 1.3 12.2-6.2 13.9-1.5.3-3.5-.2-5-.5-2.4-.5-6-1.2-8-2.8-.5-.4-1-.9-1.5-1.4-1.2-1.1-2.5-1.7-3.4-1.9 0-.2.1-.4.1-.6l-.2-20.2c5-1.4 9.6-7.4 11.2-15.2 2-9.8-1.3-18.8-7.5-20.1-6.2-1.3-12.9 5.6-15 15.4-.8 4-.8 7.8 0 11 0 0-20.5 7-20.8 21.1-.3 14.1-1 93.7 8 127.4l4.2 17.2 13-6.9L93.3 224l5.7-75.7 2.2-.2 9.6 75.8h3.8l-.9-108.8h.1c2.4.8 5.9 1.1 8.5 1.1 4.3-.1 8.6-.8 13-.5 5.6.4 11.3 1 17 1.4l4.8-7.3-3.3-1.1z"/><path d="M148.7 91.3c-2-1.3-3.7 6.2-3.7 6.2s8-3.2 3.7-6.2zM167.5 224l6.7 15.1 9.4-5.1-12.9-10z"/><path d="M193.5 224s-2.7-84.6-6.2-93.5c0 0 2.7-24.9 2.8-40.1l6.1.7c0-1.7.9-5.5.9-5.5 7.5-18.7 6.1-35.7-1.9-38.1-8-2.4-12-2.6-20 12.1S157 80.8 157 80.8l5.9 4.8c-1.5 1.5-2.5 3.1-2.4 4.5.5 6.3 1.7 38.2 1.7 38.2s-6.5 14.4-5.2 23.7 10.5 71.9 10.5 71.9h3.2l5.2-76 2.3-.2L189 224l5.1 11.8 10.9-5-11.5-6.8z"/></g></svg>