<svg version="1" xmlns="http://www.w3.org/2000/svg" width="288" height="288"><ellipse transform="rotate(-78.176 113.337 66.788)" fill="none" stroke="#000" stroke-width="2" stroke-miterlimit="10" cx="113.3" cy="66.8" rx="18.1" ry="11.5"/><path fill="none" stroke="#000" stroke-width="2" stroke-miterlimit="10" d="M102.1 75.5s-20.5 7-20.8 21.1c-.3 14.1-1 93.7 8 127.4h4l5.7-75.7 2.2-.2 9.6 75.8h3.8l-1.2-140.6"/><path fill="none" stroke="#000" stroke-width="2" stroke-miterlimit="10" d="M94 88.5s-8.3 17-6.7 54l4.3.9s3.5-37 9.6-46.8m-12.9 15.9l6.9 5m-7.9 25l-2.5 7.3 3.5 11.8 5.9-2.6-1.8-9.2h2.8l1-3.2-4.6-3.2M89.3 224l4.2 17.2 13-6.9L93.3 224m17.5 0l6.4 11.2 11.1-5.6-13.8-5.6m-1-118.5s12.5 6.7 20.5 6.4v-2.7l2.1-1.8"/><path fill="none" stroke="#000" stroke-width="2" stroke-miterlimit="10" d="M113.3 115l21.3.9 17.6 1.2 4.8-7.3-3.2-1.1m-19.8 3.2v4"/><path fill="none" stroke="#000" stroke-width="2" stroke-miterlimit="10" d="M144.6 98.8s-5.8-2-7-1-3.1 11 0 12.6 9 1.5 9 1.5 7.2.8 7.4-4.5-.7-15-9.4-8.6zm0 0l-1.9-6.1"/><path fill="none" stroke="#000" stroke-width="2" stroke-miterlimit="10" d="M145 97.5s1.7-7.5 3.7-6.2c4.3 3-3.7 6.2-3.7 6.2z"/><ellipse transform="rotate(-77.285 188.477 67.453)" fill="none" stroke="#000" stroke-width="2" stroke-miterlimit="10" cx="188.5" cy="67.5" rx="14.2" ry="8.7"/><path fill="none" stroke="#000" stroke-width="2" stroke-miterlimit="10" d="M162.9 85.6l-5.9-4.8s10.2-6.5 18.2-21.2 12-14.5 20-12.1 9.4 19.4 1.9 38.1c0 0-.9 3.8-.9 5.5l-6.1-.7"/><path fill="none" stroke="#000" stroke-width="2" stroke-miterlimit="10" d="M180 75.5s-20 8.3-19.5 14.6c.5 6.3 1.7 38.2 1.7 38.2s-6.5 14.4-5.2 23.7 10.5 71.9 10.5 71.9h3.2l5.2-76 2.3-.2L189 224h4.5s-2.7-84.6-6.2-93.5c0 0 4.5-41.7 2.2-50.1"/><path fill="none" stroke="#000" stroke-width="2" stroke-miterlimit="10" d="M175.2 93.1l-4 21-.2 25.8-3.6.9-3.2-22.8 4.1-26.9m-.9 49.7l-1.9 7.2 2.7 9.6 4.7-2-.8-9.5 3.3-.6 1.2-2.1-5.5-3.5m-3.6 84.1l6.7 15.1 9.4-5.1-12.9-10m18.3 0l5.1 11.8 10.9-5-11.5-6.8"/></svg>