<svg version="1" xmlns="http://www.w3.org/2000/svg" width="288" height="288"><ellipse transform="matrix(.9998 -.02069 .02069 .9998 -.998 2.05)" fill="none" stroke="#000" stroke-width="2" stroke-miterlimit="10" cx="98.6" cy="49.3" rx="12.2" ry="18.7"/><path fill="none" stroke="#000" stroke-width="2" stroke-miterlimit="10" d="M94.3 66.7l-.4 8.2-12.3.3S68.4 93.6 67 98.6c0 0 .9 26.7 5.1 35.3l3.4-.6.5-32.1 6.7-9.6v34.1l-1.2 15.2"/><path fill="none" stroke="#000" stroke-width="2" stroke-miterlimit="10" d="M75.4 133.3l2.7 5.7-2 2-1.9-.9.3 11.2s-6.8-2.6-6.4-3c.3-.4 3.2-14.5 3.2-14.5l4.1-.5zm27.1-66.2l.7 6.8 9.3 1.2 13.7 18.1-1.9 35.7-3.5.5-2.3-30.2-6-8.1-1.7 32.5 3 12.7"/><path fill="none" stroke="#000" stroke-width="2" stroke-miterlimit="10" d="M120.8 129.4l-2 5.7 3.3 1.7 1.2-.7 1.4 9.8 5.5-5.3-5.9-11.7"/><ellipse transform="rotate(-1.281 171.189 63.445) scale(.99995)" fill="none" stroke="#000" stroke-width="2" stroke-miterlimit="10" cx="171.2" cy="63.5" rx="10.4" ry="15.9"/><path fill="none" stroke="#000" stroke-width="2" stroke-miterlimit="10" d="M150.1 101.4l-6.6-2.9s8.2-7.4 9.7-31.9 17.6-24.8 17.6-24.8 14.1-2.6 17.6 22.6c3.4 25.2 10.6 32.2 10.6 32.2l-5.4 3.2"/><path fill="none" stroke="#000" stroke-width="2" stroke-miterlimit="10" d="M168.9 79l-.3 6.9h6.8l-1.2-7"/><path fill="none" stroke="#000" stroke-width="2" stroke-miterlimit="10" d="M157.8 142c1.2-5.6 2-7.5 2-7.6 0-.5 1.6-11.4 1.6-11.4l-2.5-19.7-4.6 15.4-4.7 29.7 4.6 4.1-2.2 3.3-2.7-1.8 1.6 10.6-9.3-3.6 3-14 1.4-32.5 7.4-24.3s17.9-6.8 34.7-3.1l10.9 26.5 2.2 33.1 5.7 12.9-7.2 4.3-.6-7.5-2 3.1-3.3-1.5 2.8-9.6-6.1-31.7-4.8-13.4s1 21.9 1 22.4c0 .4 1.2 12.2 2.3 15.1"/></svg>