<svg version="1" xmlns="http://www.w3.org/2000/svg" width="288" height="288"><path fill="#FFF" d="M113.7 139c.5-.1 2.1-.4 3.1-1.9.6-1 .6-2 .6-2.4 0-2.2 0-4.3.1-6.6 0-3.3.1-6.6 0-10h1.5v-.3c7 .6 14.1 1 21 1.4 4 .2 8 .5 12.1.8l1.7.1 4.1-6.2c.1 8.4-.3 16.1-3.1 23.1-.4 1-1 2.5-.6 4.2l.6 2.5 2.5-.1c1.3-.1 4.9-.6 5.6.9.2.4.2.8.2 1.1v9c0 1.7 0 3.5.7 5.1.7 1.6 2.2 2.9 3.9 2.8 1.1-.1 2.1-.8 3-1.4.6-.4 1.2-.9 1.6-1.5.4-.6.4-1.3.6-2 .2-.7.9-.8 1.2-1.3 0-.1.1-.2.1-.2 0-.3 0-.7-.1-1-.2-1.4-.1-2.7.2-4.1.1-.6.3-1.2.4-1.8.1-.5 0-1.1 0-1.7v-.3c0-.1.1-.1.2-.2.5-.4 1-.3 1.5-.3.1 0 .2 0 .3-.1l.3-.3c.4-.6.4-1.4.8-1.9.5-.6 1.4-.9 2-1.3.7-.4 1.5-.7 2.3-.8 2.1-.3 4.7.2 6.9.3l5.1.4-2.1-4.6c-1.3-2.7-2.2-5-2-7.1.1-.6.2-1.2.4-1.8.1-.4.2-.8.3-1.3.5-2.1.6-4.3.6-6.4v-1.5c0-6.8 0-13.8 1.1-20.3l.3-1.5c.1-.7.1-1.5.1-2.9v-2.1c.3.1.8.1 1.3.2.7.1 1.3.3 2 .3l3 .2.2-3c.1-1.6.4-3.2.8-4.7 5.5-13.8 6.6-27.8 2.8-35.7-1.5-3.2-3.9-5.3-6.7-6.2-10.2-3.1-15.3-1.5-23.5 13.5-7.4 13.7-17.1 20-17.2 20.1l-3.5 2.2 6.9 5.6c-.3.7-.5 1.5-.7 2.3v.2c-.7 6-.6 12.2-.4 18.2l-.6-.2c.1-6.1-1.3-10.2-4.1-12-.1-2.6-2.9-7-3.7-7.5-3.3-2.3-7.7-2.2-10.8.1-2.6 2-2.9 4.2-3.2 6.3-.1.6-.2 1.2-.3 1.9-.2.8-.4 1.6-.7 2.4-.4 1.4-.9 2.8-1.1 4.5 0 .4-.1.8-.1 1.1-.2 1-.1 1.6-.1 2.1 0 0 0 .1-.1.1-.1.2-.5.7-.8 1.1-.4.5-.8 1-1.1 1.6-3.9-.6-7.6-1.5-11.3-2.9l-.7-.2c-.7-.3-1.5-.6-2.3-.8 0-.1-.1-.2-.1-.3v-.1c-.1-.2-.1-.4-.1-.6v-.2c0-.1 0-.1.1-.2l.3-.7v-.8c-.1-5.6-.3-10.6-.5-15.4 5.2-2.7 9.4-9 11-16.5 2.4-11.6-1.9-22-9.9-23.6-8-1.7-16.1 6.1-18.5 17.7-.4 1.9-.4 3.7-.3 5.4.1 3.1 0 4.4-1.4 5.5-1.2 1.1-2.9 1.8-4.6 2.6-1.8.8-3.6 1.6-5.3 2.9-5.8 4.3-9 9.6-9.5 15.5-1.1 15.9-1 31.2.4 44.3l.3 1.4 1 .7c.9.7 3 .2 3.6.7 1.2 1.3 0 4.7-.2 6.4-.1 1.8.1 3.7.3 5.5.2 1.9.5 3.8.7 5.7.2 1.5.4 3 1.1 4.3.7 1.3 1.9 2.4 3.4 2.5 1.6.1 2.9-.9 4.2-1.9 0-.7.8-.9 1.4-1.3 1.4-.8 1.7-2.6 1.9-4.2.3-2.5.6-4.9 1-7.4l.3-2.7c.4-2.8-1-8.3 2.4-9.7 1.7-.7 5.3.1 7.3-.2 2.2.1 4.4-.2 6.6-.6z"/></svg>