<svg version="1" xmlns="http://www.w3.org/2000/svg" width="182.7" height="163.9"><text transform="translate(50.112 94.335)" font-family="'SkippySharp'" font-size="44.994">Gospel</text><text transform="translate(73.406 73.18)" font-family="'SkippySharp'" font-size="28.846">the</text><path fill="none" stroke="#000" stroke-width="3" stroke-linecap="round" stroke-miterlimit="10" d="M38.7 38.4c3.9 4.7 18 20.8 18 23.9m81.4 17.8c6.1-.2 27.5-1.3 30 .6m-52.3 48.7c-1.8-4.8-8.4-21.3-7.6-23.9m6.9-52.9c2.7-1.1 10.7-12 21-10.1M14.7 85.1c4.2-.3 26.2-.7 29.9-2.7m78.5 22.3c10.6 12.5 15.3 13.7 19.6 23.5m-56.2-24.9s2.1 37.7-.1 46.3m.9-132.8s.9 25.7-1.5 31.1m-64.2 8.5s22.7 12 26.2 16.8m17.7 62s2.7-25.5 5.9-30.5m-13.8-2.2c-2.6 1.2-9.9 12.7-20.4 11.3m33.4-60.5c0-4.2-2.3-8.1-4.3-11.8s-3.7-8-2.6-12.1M102 48.7c3.1-7.2 10.1-12.2 13.4-19.3m18 35.2c3.4-1.1 7.1-1.6 10.7-1.6 3.5.1 7.5.6 10.2-1.7m-21.5 32.9c5 1.5 9.9 3.5 14.5 5.9 1.5.8 2.9 1.6 3.9 2.9.9 1.2 1.6 2.9 3.1 3.2M46.1 92.8c-4.2 3.2-9.2 5.6-14.4 6.8-4.4 1-9.3 1.3-13 4"/></svg>