<svg version="1" xmlns="http://www.w3.org/2000/svg" width="288" height="288"><ellipse fill="none" stroke="#000" stroke-width="2" stroke-miterlimit="10" cx="142.6" cy="58.7" rx="11.2" ry="17.3"/><path fill="none" stroke="#000" stroke-width="2" stroke-miterlimit="10" d="M139.5 75.3l-.5 7.9h8.8l-.9-8.5m-23.5 25.7c.7-10.4 1.1-17.1 1.1-17.1h33.8s.5 8.9 1.1 22.1m-5.7-22.2s-10.2 14.4-19.8 25.6M159 97.3s-2.8 3.8-7.1 9.1"/><path fill="none" stroke="#000" stroke-width="2" stroke-miterlimit="10" d="M124.5 83.2l-11.8 31.1s20.8 13.4 41 13.9l4.2-22.5-35.3 4.1m35.4-4l4.2-2.3 3 4.3h-7.6"/><path fill="none" stroke="#000" stroke-width="2" stroke-miterlimit="10" d="M158.2 83.2l17.1 32.1-21 10.4m-20.7-17.1c-.4-.9-3.4-6.7-3.4-6.7l-9-2.1-1.5 5.9 6.2 3.8"/><path fill="none" stroke="#000" stroke-width="2" stroke-miterlimit="10" d="M160.3 123.4c2.1 40.7 5 97.6 5 97.6s-22.7 6.9-49.8 0c0 0 4-60.7 6.6-101.5m13.7 5.6c-5.6 5.8-11.1 10.6-14.8 11.9"/><path fill="none" stroke="#000" stroke-width="2" stroke-miterlimit="10" d="M131.9 223.6l1 10.7h3.5l.9-10.5m7.5-.2l1.4 10.7h3.5l1-11.2m-17.8 11.2l-18 6.7 12.3 5.3 9.2-12m9.8 0l9.3 12 11.8-4.4-17.6-7.6"/></svg>