<svg version="1" xmlns="http://www.w3.org/2000/svg" width="288" height="288"><ellipse fill="none" stroke="#000" stroke-width="2" stroke-miterlimit="10" cx="149.5" cy="59" rx="11.2" ry="17.3"/><path fill="none" stroke="#000" stroke-width="2" stroke-miterlimit="10" d="M144.9 78.2c.2-1.7.4-3.2.4-3.2m7.4.6s.1.8.1 1.9m-33.3 1.8l-23.7-1.9v17.3l25.6-2.8m-25.6-8.4L86 80.8v7.9l9.8-.9m23.7-9.5h15l-2.4 15.4h-10.3z"/><path fill="none" stroke="#000" stroke-width="2" stroke-miterlimit="10" d="M134.1 79.3l23.8-1.9v17.3l-25.7-2.8m25.7-8.4l9.7-2.7v7.9l-9.7-.9m-34 5.9V86m2.9 7.7l.2-7.7m2.8 7.7V86m-28.6 8.1v70.5m52-70.5l1.4 70m-33.2 14.6l-25.6 2.7v-17.3l23.7 1.9 6.7.8 7.9-.8 23.8-1.9v17.3l-25.7-2.7-5-.7zm-25.6-8.4l-9.8-2.8v7.9l9.8-.8"/><path fill="none" stroke="#000" stroke-width="2" stroke-miterlimit="10" d="M157.9 170.3l9.7-2.8v7.9l-9.7-.8m24.1-26.3l18.8-36s-20-17.1-32.9-25.4"/><path fill="none" stroke="#000" stroke-width="2" stroke-miterlimit="10" d="M188.5 111.8l-27.7 1.7v4h6.8s1.8 7.9 2.4 7.7 11.5-2.4 11.5-2.4"/><path fill="none" stroke="#000" stroke-width="2" stroke-miterlimit="10" d="M172.5 124.7c0 1.3 9.5 24.7 9.5 23.7s-1.7-36-1.7-36m-15.3.8c-1-10.8-1.9-19.7-2.4-24.8m-35.4 89.9c-1.3 19.9-2.5 36.6-3.2 42.6 0 0 33.5 8.2 51.2-1.7 0 0-5.9-61.2-9.7-101.4m-12.2-10.6c6.7 10 13 19.3 13 19.3m-12.7-.8c7.7 10.6 14.5 20 14.5 20"/><path fill="none" stroke="#000" stroke-width="2" stroke-miterlimit="10" d="M144.3 223.9l-1.4 10.7h-3.5l-1-11.2m18.9.5l-1 10.7h-3.5l-.9-10.5m-9 10.5l-9.3 12-11.8-4.4 17.6-7.6m16.9 0l18 6.7-12.4 5.3-9.1-12"/></svg>