<svg version="1" xmlns="http://www.w3.org/2000/svg" width="288" height="288"><ellipse transform="rotate(-47.802 152.34 100.467)" fill="none" stroke="#000" stroke-width="2" stroke-miterlimit="10" cx="152.4" cy="100.5" rx="17.3" ry="11.2"/><path fill="none" stroke="#000" stroke-width="2" stroke-miterlimit="10" d="M138.7 102.4l-20.2 4.1s-23.2 27-22.5 68.8c0 0 27.2 14.4 46 4.8"/><path fill="none" stroke="#000" stroke-width="2" stroke-miterlimit="10" d="M124.5 110.7l-3.8 38.3s12.5 14 37.8 13.5v-19.6l-22.4-3.9-1.8-23.2m24.2 27.1l5-2.1 5.7 2.1v7.6h-10.7m10.7 0l5.3 20.3-11.8 12.1"/><path fill="none" stroke="#000" stroke-width="2" stroke-miterlimit="10" d="M99.6 177s10.1 26 11.1 26.4 61.8-7.8 61.8-7.8-23.5-30-30.8-35m-44.2 23.3l4.5-1m-4.5 5l7.7 3.1m-11-9.3c-.5 1.8-6.2 18.1-6.2 18.1h9.8v-16.1l-3.6-2z"/><path fill="none" stroke="#000" stroke-width="2" stroke-miterlimit="10" d="M170.9 174.5l1.6 15.5-3.9 1.3m3.9-1.3l17.5 3.4-8.8 6.1-10.6-3.1M143.8 115l-4.2 24.6m2.4-25.4c-.2.3-2.8 3.6-7 8.1M122.1 134c-6.5 5.1-14.3 9.8-22.8 12.4m41.1-11.4s-1 1.3-3 3.3m-15.5 12.2c-6.9 4.2-15.4 7.8-25.1 8.9"/></svg>