<svg version="1" xmlns="http://www.w3.org/2000/svg" width="288" height="288"><ellipse fill="none" stroke="#000" stroke-width="2" stroke-miterlimit="10" cx="163.4" cy="58.7" rx="11.2" ry="17.3"/><path fill="none" stroke="#000" stroke-width="2" stroke-miterlimit="10" d="M160.3 75.3l-.5 7.9h8.8l-.9-8.5m-16.9 8.5h29.3s6.7 119.2 8.9 137.4c0 0-33.5 8.2-51.2-1.7l13-135.7zm0 0h-46v26.7L150 91.3m-45.2-8.1l-5.2-4.8H85.1v3.4l6 1.4.7 8.2 13-1.3m70.7-6.9l-28.9 43m34.2-30.5l-36 49.7"/><path fill="none" stroke="#000" stroke-width="2" stroke-miterlimit="10" d="M180.1 83.2l22.1 54.8-18.5 7.4"/><path fill="none" stroke="#000" stroke-width="2" stroke-miterlimit="10" d="M188.2 143.6l-2 8.8 2.8 1.1 2.1-3.5 2.6 13.2 6-8.5-4.5-13.9m-39.5 82.8l1 10.7h3.5l.9-10.5m7.5-.2l1.4 10.7h3.5l1-11.2m-17.8 11.2l-18 6.7 12.3 5.3 9.2-12m9.8 0l9.3 12 11.8-4.4-17.6-7.6"/></svg>