<svg version="1" xmlns="http://www.w3.org/2000/svg" width="288" height="288"><ellipse fill="none" stroke="#000" stroke-width="2" stroke-miterlimit="10" cx="152.9" cy="64.7" rx="11.2" ry="17.3"/><path fill="none" stroke="#000" stroke-width="2" stroke-miterlimit="10" d="M149.8 81.3l-.5 7.9h8.9l-1-8.5m-22.7 8.5h36.8l10.2 137.9s-37.5 6.3-52.5.9l5.5-138.8zm30.5 0s-22 31.3-32 37.3m39.2-24.8s-28.5 37.6-39.8 41.3"/><path fill="none" stroke="#000" stroke-width="2" stroke-miterlimit="10" d="M105.3 66.7L93.6 77.8l22.9 29.6 17.2-4.2 1.4-12.4-11.2-4.1-1.5-20-7.6-2.9"/><path fill="none" stroke="#000" stroke-width="2" stroke-miterlimit="10" d="M114.2 60.3c.8 3.1 1.7 12.3 1.7 12.3L111 79l-6.3-3.3s.8-10.9 1.4-14.2l.4-3.1c-1-.9-4.1-4-4.1-4l2.3-15.7 2.9-3 4.9 1.6 2 11.7 3.4-3.4 1.4 4.4-3.1 5.1s-1.5.9-2.5 1.4l.5 3.8zm57 28.9l23.1 54.8-18.5 7.4m6.5-2.1l-1.9 8.8 2.7 1.1 2.2-3.5 2.5 13.1 6-8.5-4.5-13.8m-43.4 83.1l1 10.7h3.5l.9-10.5m7.5-.2l1.4 10.7h3.5l1-11.2m-17.8 11.2l-18 6.7 12.3 5.3 9.2-12m9.8 0l9.3 12 11.8-4.4-17.6-7.6"/></svg>