<svg version="1" xmlns="http://www.w3.org/2000/svg" width="288" height="288"><path fill="none" stroke="#000" stroke-width="2" stroke-miterlimit="10" d="M198.6 122.2s14.4-3.9 14.2 8.9-21.5 25-21.5 25-36.2 11.7-31.2 23.5 19.5 14.2 20.2 14 38.2-3.5 40.3 3.2c2.2 6.7 9 21.7-6 26.3-15 4.7-23 5-23.5 5s-38.8-3.2-40.7 5c-1.8 8.2 2.5 12.7 2.5 12.7"/><path fill="none" stroke="#000" stroke-width="2" stroke-miterlimit="10" d="M164.3 228l1.9 6.3 3.1-6.6m8.9-.1l3.3-9.4 2.3 9.6m-31.4 3l-9-3.1 6.7 7.5m49.7-8.2l7 8.2v-9.8m17.3-14.9l-11.8-2.2 9.5 8.9m-3.4-22.4l10.8-5.8-6.6 13.5m-30.9-9.6l2.3 9.6 4.2-9.6m-33.9-7l-5.8 9.8 11.5-5.5m-5.7-20.5l-11.9-6.7 7.6 12.3m23.8-16.4l5.9 8.3 1.7-11m18.8-16.9l-9.5-6.1 4.7 12.1m6.4-19.4l10.9 1.4-10 5.2"/></svg>