<svg version="1" xmlns="http://www.w3.org/2000/svg" width="288" height="288"><ellipse transform="rotate(-83.108 117.04 66.664)" fill="none" stroke="#000" stroke-width="2" stroke-miterlimit="10" cx="117" cy="66.7" rx="17.6" ry="11.4"/><path fill="none" stroke="#000" stroke-width="2" stroke-miterlimit="10" d="M107.3 77.4L97.6 81l8.2 7-4.3 7.5h7.1l6.9 7.3-.4-5.6h5.5l-1.8-5.4 7.2-1.7-7.9-6.2M97.6 81l-9.4 6.6-1.4 10.5"/><path fill="none" stroke="#000" stroke-width="2" stroke-miterlimit="10" d="M91.5 93.8l-12.7 11.1 7 1.2.3 6.5 5.4-2.7 3.4 6.1 5-7"/><path fill="none" stroke="#000" stroke-width="2" stroke-miterlimit="10" d="M82.7 106.3l-7.5 11.2v25.7l-2.7 6.1 4 7.4 6.2-1-1-6.4 2.3.2 1.3-3.2-4.6-3.1 3-22.3 9.1-8.7m-17.6 5.3l8.5 3.4m-7.9 22.3h4.9"/><path fill="none" stroke="#000" stroke-width="2" stroke-miterlimit="10" d="M114.7 101.9s-.7 32.9 2.9 44.9l-4.6-2.2-2.5 3.1-7.6-4.6-6.2 9.7-2.8-8-7.1 5.6.5-33"/><path fill="none" stroke="#000" stroke-width="2" stroke-miterlimit="10" d="M114.8 118.4l2.8 9.8 9.1 16.1-.7 6.9 3.5 2.8 10.3-6.8-2.6-6.1-6.5-2.9-7.7-15.5-4-25.5m3.9 24.6l-5.3 6.4m13.1 10l-4 6.1m-21 .6l25.1 88.8h-3.5l-2.1 3-37.6-86.8m28.1-3.1s-1.3 6.6-4.4 16.9m-8.2 23c-5.7 14.1-13.6 30.1-24.4 45.3l-1.8-3.7-5.3 1s24.1-49.1 24.5-59.6"/><path fill="none" stroke="#000" stroke-width="2" stroke-miterlimit="10" d="M73.5 229.3l-1.8 5.4 15.9 11.1 8.7-7.1-17.3-8.5m46.9 5.4l1.4 3.9 16.8 3.4 4.1-8.7-19-.5"/><ellipse transform="rotate(-83.108 195.113 71.734)" fill="none" stroke="#000" stroke-width="2" stroke-miterlimit="10" cx="195.1" cy="71.7" rx="17.6" ry="11.4"/><path fill="none" stroke="#000" stroke-width="2" stroke-miterlimit="10" d="M200.5 92.4c.3.2 9.1-1.7 9.1-1.7s-.6-14 .9-22.8 2-26.5-12.5-25.1-27.4 9.5-36.2 38.2l3.5 4.1"/><path fill="none" stroke="#000" stroke-width="2" stroke-miterlimit="10" d="M180.1 81l-4.4 5.1 8.1 7-4.2 7.5h7.1l6.9 7.2-.4-5.6h5.5l-1.9-5.4 7.3-1.6-8-6.2"/><path fill="none" stroke="#000" stroke-width="2" stroke-miterlimit="10" d="M173.4 102.8l-4.6 2.1-1.2-4.5-4.4 2.4-2.3-7.3-7.1.9L166.6 84l14.9-3 2.3-4.2"/><path fill="none" stroke="#000" stroke-width="2" stroke-miterlimit="10" d="M158.1 95.8l-9.2 16.7-.9 27-3.6 3 1.5 9.4 9.9-1.7 1.1-6.1-4.7-3.6 7.2-25.6 8.2-12.1m-18.7 9.7l10.5 2.4M148 139.5c.8.4 4.2 1 4.2 1m3.4 2.2l7.6-33.4"/><path fill="none" stroke="#000" stroke-width="2" stroke-miterlimit="10" d="M191.4 105.5l-2.9 29 7.3 78.7-10.8-4.9-5.3 6.7-6.9-6.2-7.6 7.7-5-9.3-10.1 4.8 4.7-60.8"/><path fill="none" stroke="#000" stroke-width="2" stroke-miterlimit="10" d="M190.3 124l2.9 9.8 9 16.1-.6 6.9 3.5 2.8 10.3-6.8-2.7-6.1-6.5-2.9-7.6-15.5-4-25.5m3.8 24.6l-5.2 6.4m13 10l-4 6.1m-43 57.7l-6 24.4h3.8l7.7-16.4m16.5-2.5l8.1 18.9 3.9-.7-3.4-20.8M153.2 232l12.5 10.9 7.3-8.2-16.7-2.7"/><path fill="none" stroke="#000" stroke-width="2" stroke-miterlimit="10" d="M189.3 232l16 8.9 7.2-8.9-19.9-.7"/></svg>