<svg version="1" xmlns="http://www.w3.org/2000/svg" width="576" height="576"><ellipse fill="#FFF" cx="289" cy="143.3" rx="28.7" ry="44.7"/><path fill="#FFF" d="M256.2 196.7h64.3l-10.7 101.6h-48.3zm0 0l-53.7 37.7 14 68.7-10.7 25.7 23.5 12-9.8-18 12-6.7s-1 13 .7 12.7 12-13 12-13l-14.8-17.3-3.5-57 31.7-17.7m62.9-27.1l26 59 12.3 50 14.7 8.3s-3.3 29.7-3.3 28.7-7.3-21-7.3-21l-9.7 1.3 6.3 8-16 1.7L347 308l-14.8-46.7-15.5-28.1m-55.2 65.1l-16 152.4h12.1l27.6-152.4m24.6 0l29.8 152.4h-11.1l-40.2-152.4"/><path fill="#FFF" d="M245.5 450.7L214.2 465l33.6 12.3 9.8-26.6m82 0l29.9 13.6-31.3 11.4-9.7-25m-49.7-250.3l1.8-22.8 14.8 4.3 4.7 26.3-14.9-3.5z"/><path d="M288 189.5c-16.7 0-30.2-20.7-30.2-46.2 0-25.5 13.5-46.2 30.2-46.2s30.2 20.7 30.2 46.2c0 25.5-13.5 46.2-30.2 46.2zm0-89.4c-15 0-27.2 19.4-27.2 43.2 0 23.8 12.2 43.2 27.2 43.2s27.2-19.4 27.2-43.2c0-23.8-12.2-43.2-27.2-43.2z"/><path d="M278.312 196.445l1.808-10.242 2.954.522-1.807 10.241zm16.678-9.635l2.938-.605 2.096 10.187-2.938.604z"/><path d="M312.2 299.8h-51.1l-5.5-104.6h67.5l-10.9 104.6zm-48.3-3h45.5l10.4-98.6h-61.1l5.2 98.6z"/><path d="M233.9 344.3l-29.1-14.8 11.1-26.6-14.1-69.2 54.5-38.3 1.7 2.5-52.9 37.1 13.9 68.2-10.3 24.8 17.9 9.2-8.2-15 15.7-8.8-.2 2.8c-.3 3.7-.4 8.1-.2 10.3 2-1.9 5.9-6.4 9.4-10.7l-14.3-16.7-3.6-58.4 32.5-18.2 1.5 2.6-30.9 17.2 3.4 55.6 15.3 17.9-.8 1c-10.7 13.1-12.3 13.4-12.9 13.5-.6.1-1.1-.1-1.6-.5-.4-.4-1.6-1.5-1.1-11.1l-8.3 4.6 11.6 21z"/><path d="M203.011 235.77l.864-2.873 23.272 6.992-.863 2.873zM371.3 344.2h-.1l-1.4-.1v-1.3c-.3-1.4-4.2-12.2-6.8-19.5l-5.9.8 6.4 8.1-20.6 2.2 3.7-26.3-14.7-46.2-15.4-28 2.6-1.4 15.6 28.4 14.9 47-3.3 23.1 11.4-1.2-6.2-7.9 13.5-1.8.4 1.1c2.5 6.8 4.1 11.4 5.2 14.6.7-5.8 1.6-14.3 2.4-21l-14.4-8.1-12.4-50.5-25.9-58.9 2.7-1.2 26.1 59.1 12.2 49.5 15 8.5-.1 1-1.6 14.4-1.1 9.9c-.2 1.4-.3 2.5-.4 3.3-.4 1.3-.6 2.4-1.8 2.4zm-1.6-1.5z"/><path d="M332.739 259.814l14.69-3.899.77 2.9-14.69 3.899zM259.9 452.2h-15.1L261 298.1l3 .4-15.8 150.7h9.1L284.7 298l3 .6zm82.5 0h-14.1l-40.5-153.5 3-.8 39.9 151.3h8.1l-29.5-150.6 3-.6z"/><path d="M249.7 479.2l-38.4-14 34.6-15.9 1.2 2.8-28 12.7 28.8 10.6 9.3-25.2 2.8 1zm88.6-1.6l-10.2-26.4 2.8-1 9.2 23.6 26.4-9.7-26.5-12 1.2-2.8 33.3 15.2zm-59.989-280.975l1.809-10.242.984.174-1.808 10.241zm16.658-10.017l.98-.202 2.096 10.187-.98.202z"/><path fill="none" d="M202.5 234.3l23.3 7m106.4 20l14.7-3.9M241.3 99.9c31.1-5.7 63.9-1 92.2 13.1-27.5 14.8-61.5 7.9-91.8 15.5 28.7 7.7 58.3 12.2 88 13.4 6.2.3 13.4 1 16.5 6.3-23.6 11.8-50.6 16.7-76.9 13.9-9.3-1-20.2-2.4-26.6 4.3 31.3 1.9 62.5 3.8 93.8 5.8 2.6.2 5.5.4 7.4 2.3-47.6 24.4-108.8-1.1-157.6 20.9 67.1 1.7 134.6 3.5 200.6 15.8-22.2 9.3-47 9.7-71.1 9.9-36.3.4-72.5.7-108.8 1.1-7.7.1-18.1 14.2-23.9 30.1 53.7.2 108.8-25 162.5-24.8 14.2.1 29.5.4 41 8.7-68.1 16.8-138.6 40.3-208.7 42.4 28.1 2.1 54.1-3 82.3-3.2 40.2-.2 83.1-5.7 120.9 8.1-63.7 10-128 14.9-192.3 19.8 42.6 12.9 93.1-2.1 139.6-2 22.8 0 45.9.3 68 6.1-79.1 8.7-157.2 26.3-236.6 30.4l154.9-.9c20.8-.1 41.8-.2 62.1 4.4-18 7.6-38.2 7-57.8 6.8-27.1-.2-54.2.7-81.1 2.8-4.1.3-8.8 1.1-10.7 4.7 13.4 3.3 27.2 4.4 40.9 5.5 35.6 2.8 71.3 5.7 106.9 8.5-5.9 6.5-15.7 7.2-24.5 7.5-47 1.9-93.9 7.1-140.1 15.8 58.3-2.2 117.7-4.2 173.9 11.3-68 20-143.4.9-210.6 23.5 74.5-11.7 150.4-14.6 225.6-8.5 2.7.2 5.6.5 7.7 2.2-63.2 18.2-129.2 26.4-194.8 24.5 57.1-6.8 114.8 2.1 171.6 11.1.7 2.4-2.6 3.8-5 4-52 5.9-104.5 7.6-156.7 4.9-10.3-.5-21-1.1-30.3 3.3 22.1 3 44.1 6 66.2 9"/></svg>