<svg version="1" xmlns="http://www.w3.org/2000/svg" width="576" height="576"><ellipse cx="289" cy="143.3" rx="28.7" ry="44.7"/><path fill="none" stroke="#000" stroke-width="5" stroke-miterlimit="10" d="M281.6 186.5l-1.8 10.2m16.6-10.2l2.1 10.2"/><ellipse fill="none" stroke="#000" stroke-width="5" stroke-miterlimit="10" cx="288" cy="143.3" rx="28.7" ry="44.7"/><path fill="none" stroke="#000" stroke-width="5" stroke-miterlimit="10" d="M257.2 196.7h64.3l-10.7 101.6h-48.3zm0 0l-53.7 37.7 14 68.7-10.7 25.7 23.5 12-9.8-18 12-6.7s-1 13 .7 12.7 12-13 12-13l-14.8-17.3-3.5-57 31.7-17.7m-55.1 10.5l23.3 7m94.7-44.6l26 59 12.3 50 14.7 8.3s-3.3 29.7-3.3 28.7-7.3-21-7.3-21l-9.7 1.3 6.3 8-16 1.7L348 308l-14.8-46.7-15.5-28.1m15.5 28.1l14.7-3.9m-85.4 40.9l-16 152.4h12.1l27.6-152.4m24.6 0l29.8 152.4h-11.1l-40.2-152.4"/><path fill="none" stroke="#000" stroke-width="5" stroke-miterlimit="10" d="M246.5 450.7L215.2 465l33.6 12.3 9.8-26.6m82 0l29.9 13.6-31.3 11.4-9.7-25m-48.9-264.2l-1.8 10.2m16.6-10.2l2.1 10.2"/><path d="M256.2 196.7h64.3l-10.7 101.6h-48.3zm0 0l-53.7 37.7 14 68.7-10.7 25.7 23.5 12-9.8-18 12-6.7s-1 13 .7 12.7 12-13 12-13l-14.8-17.3-3.5-57 31.7-17.7m-55.1 10.5l23.3 7m94.7-44.6l26 59 12.3 50 14.7 8.3s-3.3 29.7-3.3 28.7-7.3-21-7.3-21l-9.7 1.3 6.3 8-16 1.7L347 308l-14.8-46.7-15.5-28.1m15.5 28.1l14.7-3.9m-85.4 40.9l-16 152.4h12.1l27.6-152.4m24.6 0l29.8 152.4h-11.1l-40.2-152.4"/><path d="M245.5 450.7L214.2 465l33.6 12.3 9.8-26.6m82 0l29.9 13.6-31.3 11.4-9.7-25m-49.7-250.3l1.8-22.8 14.8 4.3 4.7 26.3-14.9-3.5z"/></svg>