<svg version="1" xmlns="http://www.w3.org/2000/svg" width="576" height="576"><ellipse fill="none" stroke="#000" stroke-width="3" stroke-miterlimit="10" cx="255.7" cy="143.3" rx="28.7" ry="44.7"/><path fill="none" stroke="#000" stroke-width="3" stroke-miterlimit="10" d="M248.2 186.5l-1.7 10.2m16.6-10.2l2.1 10.2m-41.4 0h64.4l-10.7 101.6h-48.3zm0 0l-53.7 37.7 14 68.7-10.7 25.7 23.5 12-9.8-18 12-6.7s-1 13 .7 12.7 12-13 12-13L197 298.3l-3.5-57 31.7-17.7m-55 10.7l23.3 7"/><path fill="none" stroke="#000" stroke-width="3" stroke-miterlimit="10" d="M288.2 196.7l35 40.8 39.9-11.2c0-1.2 5.3-13.5 5.3-13.5l14.7-12 1.8 6.4 21.4-6.2v3.3l-12 6.7.6 15.3-15.3 7.3h-11.7l-46.1 25.8-36.8-33m38.3 10.8l-1.7 22.3m41.4-33.1l5.3 8.3m-139.1 63.6l-16 152.4h12l27.6-152.4m24.7 0l29.7 152.4h-11L256 298.3"/><path fill="none" stroke="#000" stroke-width="3" stroke-miterlimit="10" d="M213.2 450.7L181.8 465l33.7 12.3 9.7-26.6m82 0l30 13.6-31.4 11.4-9.6-25"/></svg>