<svg version="1" xmlns="http://www.w3.org/2000/svg" width="576" height="576"><ellipse transform="matrix(.9975 -.07006 .07006 .9975 -8.482 19.762)" fill="none" stroke="#000" stroke-width="3" stroke-miterlimit="10" cx="277.5" cy="130.8" rx="28.7" ry="44.7"/><path fill="none" stroke="#000" stroke-width="3" stroke-miterlimit="10" d="M273.1 174.4l-1 10.3m15.9-11.4l2.1 7.6m-45.4 6.7l64.3-9.5 2 114.6-49.7 1.8z"/><path fill="none" stroke="#000" stroke-width="3" stroke-miterlimit="10" d="M244.7 187.6L214 230.7l39 54.8 6.4-3.3"/><path fill="none" stroke="#000" stroke-width="3" stroke-miterlimit="10" d="M248.9 214.5l-12.2 20 21.8 41.7m-21.8-41.7l-22.7-3.8m39 54.8h-21l4.7 14.7 24.6-8.7M309 178.1l33-6.4-6-43.7-9.5-6.9-2.5-28.4h5.8l2.5 13.3h13l2.7 15.1-11 1.9-3-10.3"/><path fill="none" stroke="#000" stroke-width="3" stroke-miterlimit="10" d="M344.1 122.6l17.9 61.6-53 15.8m31.6-28l21.4 12.2M310.4 294l7.3 165.9h-9.3L287.9 294l-10.4 165.9h-10.7l-5.5-164.6"/><path fill="none" stroke="#000" stroke-width="3" stroke-miterlimit="10" d="M278 459.5L261.8 488l-29.3-14.5 35.3-13.8m49.7.2l33.8 14.5-24.5 14-18.6-28.5"/></svg>