<svg version="1" xmlns="http://www.w3.org/2000/svg" width="576" height="576"><ellipse cx="289" cy="143.3" rx="28.7" ry="44.7"/><ellipse fill="none" stroke="#000" stroke-width="3" stroke-miterlimit="10" cx="288" cy="143.3" rx="28.7" ry="44.7"/><path fill="none" stroke="#000" stroke-width="3" stroke-miterlimit="10" d="M281.6 186.5l-1.8 10.2m16.6-10.2l2.1 10.2m-41.3 0h64.3l-10.7 101.6h-48.3zm0 0l-53.7 37.7 14 68.7-10.7 25.7 23.5 12-9.8-18 12-6.7s-1 13 .7 12.7 12-13 12-13l-14.8-17.3-3.5-57 31.7-17.7m-55.1 10.5l23.3 7m94.7-44.6l26 59 12.3 50 14.7 8.3s-3.3 29.7-3.3 28.7-7.3-21-7.3-21l-9.7 1.3 6.3 8-16 1.7L348 308l-14.8-46.7-15.5-28.1m15.5 28.1l14.7-3.9m-85.4 40.9l-16 152.4h12.1l27.6-152.4m24.6 0l29.8 152.4h-11.1l-40.2-152.4"/><path fill="none" stroke="#000" stroke-width="3" stroke-miterlimit="10" d="M246.5 450.7L215.2 465l33.6 12.3 9.8-26.6m82 0l29.9 13.6-31.3 11.4-9.7-25"/><path fill="none" stroke="#000" stroke-miterlimit="10" d="M280.6 186.5l-1.8 10.2m16.6-10.2l2.1 10.2"/><path d="M256.2 196.7h64.3l-10.7 101.6h-48.3zm0 0l-53.7 37.7 14 68.7-10.7 25.7 23.5 12-9.8-18 12-6.7s-1 13 .7 12.7 12-13 12-13l-14.8-17.3-3.5-57 31.7-17.7"/><path fill="none" d="M202.5 234.3l23.3 7"/><path d="M320.5 196.7l26 59 12.3 50 14.7 8.3s-3.3 29.7-3.3 28.7-7.3-21-7.3-21l-9.7 1.3 6.3 8-16 1.7L347 308l-14.8-46.7-15.5-28.1"/><path fill="none" d="M332.2 261.3l14.7-3.9"/><path d="M261.5 298.3l-16 152.4h12.1l27.6-152.4m24.6 0l29.8 152.4h-11.1l-40.2-152.4"/><path d="M245.5 450.7L214.2 465l33.6 12.3 9.8-26.6m82 0l29.9 13.6-31.3 11.4-9.7-25m-49.7-250.3l1.8-22.8 14.8 4.3 4.7 26.3-14.9-3.5z"/><path fill="none" d="M241.3 99.9c31.1-5.7 63.9-1 92.2 13.1-27.5 14.8-61.5 7.9-91.8 15.5 28.7 7.7 58.3 12.2 88 13.4 6.2.3 13.4 1 16.5 6.3-23.6 11.8-50.6 16.7-76.9 13.9-9.3-1-20.2-2.4-26.6 4.3 31.3 1.9 62.5 3.8 93.8 5.8 2.6.2 5.5.4 7.4 2.3-47.6 24.4-108.8-1.1-157.6 20.9 67.1 1.7 134.6 3.5 200.6 15.8-22.2 9.3-47 9.7-71.1 9.9-36.3.4-72.5.7-108.8 1.1-7.7.1-18.1 14.2-23.9 30.1 53.7.2 108.8-25 162.5-24.8 14.2.1 29.5.4 41 8.7-68.1 16.8-138.6 40.3-208.7 42.4 28.1 2.1 54.1-3 82.3-3.2 40.2-.2 83.1-5.7 120.9 8.1-63.7 10-128 14.9-192.3 19.8 42.6 12.9 93.1-2.1 139.6-2 22.8 0 45.9.3 68 6.1-79.1 8.7-157.2 26.3-236.6 30.4l154.9-.9c20.8-.1 41.8-.2 62.1 4.4-18 7.6-38.2 7-57.8 6.8-27.1-.2-54.2.7-81.1 2.8-4.1.3-8.8 1.1-10.7 4.7 13.4 3.3 27.2 4.4 40.9 5.5 35.6 2.8 71.3 5.7 106.9 8.5-5.9 6.5-15.7 7.2-24.5 7.5-47 1.9-93.9 7.1-140.1 15.8 58.3-2.2 117.7-4.2 173.9 11.3-68 20-143.4.9-210.6 23.5 74.5-11.7 150.4-14.6 225.6-8.5 2.7.2 5.6.5 7.7 2.2-63.2 18.2-129.2 26.4-194.8 24.5 57.1-6.8 114.8 2.1 171.6 11.1.7 2.4-2.6 3.8-5 4-52 5.9-104.5 7.6-156.7 4.9-10.3-.5-21-1.1-30.3 3.3 22.1 3 44.1 6 66.2 9"/></svg>