<svg version="1" xmlns="http://www.w3.org/2000/svg" width="288" height="288"><path fill="#FFF" d="M140.1 54.9c-11.8-3.6-23.8-2.4-35.5 3.9-1 .5-1.9 1.1-2.8 1.8-2.6 1.3-5.1 3-7.3 5.1-7.1 6.9-10.8 16.1-10.8 25.7-1.6 3.4-2.5 7.1-2.7 11.2-.4 12.2 6.1 21.6 13.8 30.4 7.7 8.9 23.2 9.3 32.3 2.2h.4c8.5-.4 16.3-3.8 22.7-9 2.5-1.8 4.8-3.8 6.8-6.1 9.1-1.8 16-8.4 18.9-17.3 7.5-22.7-13.6-46.4-35.8-47.9z"/><ellipse fill="#FFF" cx="143.9" cy="144.1" rx="52.8" ry="54.2"/><path d="M143.9 199.3c-29.7 0-53.8-24.8-53.8-55.2 0-30.4 24.1-55.2 53.8-55.2s53.8 24.8 53.8 55.2c0 30.4-24.1 55.2-53.8 55.2zm0-108.4c-28.6 0-51.8 23.9-51.8 53.2s23.2 53.2 51.8 53.2c28.6 0 51.8-23.9 51.8-53.2s-23.2-53.2-51.8-53.2z"/><path d="M152.9 193.2l-3.1-.7-2.7-2.8c-.2-.2-2.4-2.5-2.2-4.8.1-1.3.3-1.8.4-2.3.1-.2.1-.4.1-.7.1-.8.2-1.9.1-3.8-.1-2-.4-3.4-.4-3.5l-.4-1.3-3.4-1.7-3.4-2.4-.1-2.3-.5-1.8-.8-1.8-3.1-2.3-3.7-1.5-4.3-.4-5.2-1.2c-.1.1-.2.1-.2.2-.9.5-1.7-.4-2.7-1.7-1.9-2.5-2.6-3.6-2.6-3.7l-.1-.2v-.2c-.2-1.1-.9-4.7-.9-5.4 0-.3-.2-1.1-.5-2H112c-2.6-.2-3-.7-3.1-1.2-.1-.2-.5-1.2-.9-2.1l-2.2-4.6v-1.3h-.8c.3.7.5 1.5.2 2.3-.2.3-.5.8-1.3 1-.5.1-1 .4-1.4.7-.6.4-1.8 1.2-2.8 0-.6-.8-2.8-3.9-2.8-3.9-2-3.3-2-4-2-4.2 0-.4.3-2.7.6-4.4.7-4.3.9-4.6 1.6-4.7.3-.1 2-.9 3.6-1.7.3-.4.7-.9.8-1.2-.6-.6-1.6-1.8-2.8-3.6l1.6-1.2c1 1.4 2.3 3.2 2.7 3.4.3.1.5.4.6.8.1.3.2 1.1-1.5 3.2l-.1.2-.2.1c-1.8.9-3 1.5-3.7 1.8-.4 1.4-1.1 6.5-1.1 7.4.1.4.9 2 1.7 3.1 0 0 1.7 2.4 2.5 3.5.1-.1.2-.1.3-.2.5-.3 1.1-.8 2-1 0-.3-.3-.8-.4-1.1-.2-.4-.3-.7-.3-1 0-1.1.9-1.4 4.2-1.4h1v2.9l2 4.2c.2.4.6 1.3.8 1.9.3.1.9.2 1.5.2h2.5l.2.7c.2.6.9 2.5.9 3.3 0 .4.4 2.7.8 4.8.3.4 1 1.5 2.5 3.4.2.2.3.4.5.6l.5.1 6 1.4 4.5.5 4.2 1.7 3.6 2.7 1 2.5.6 2.2.1 1.4 2.5 1.8 4 2 .6 2.2c0 .1.3 1.7.4 3.8.1 2.1 0 3.3-.1 4.2 0 .3-.1.6-.2.9-.1.4-.2 1-.3 2.1-.1 1.2 1.2 2.7 1.6 3.2l2.3 2.4 2.1.5 3.7-.7 2.2-1c.8-1.1 2.1-2.8 2.4-3.2.4-.7 1.4-1.9 3.2-3.8l.5-.5c.3-.3.5-.5.6-.7-.2-.3-.4-.7-.3-1.3.1-.8.1-2.7.1-3.4v-.2l1.6-3.6 1.4-3.5.8-1.8V164l-.9-1.5-3.2-.9c-1.5-.5-3.2-1-3.6-1.1-1.2 0-3.8-2.9-3.9-2.9-.3-.5-1.7-3.2-1.7-4.6 0-.5-.1-1-.2-1.3 0-.1-.1-.2-.1-.3-.3-.1-.9-.2-1.7-.2-1 0-2.3.1-2.6.2-.4.1-2.1.6-3.7 1.1-.7.2-.9.3-1 .3-.1.2-.3.4-.6.6-.3.3-.7 1.3-.9 2.2-.1.4-.2.8-.3 1.1-.3.8-.1 1.4 0 1.9.1.3.1.6.1.9 0 1.8-3.8 2.1-3.8 2.1-1 0-4.8-3.5-5.6-4.9-.2 0-.5.1-.7.2-.7.2-1.6.4-2.5.2-2.3-.4-5.2-5.3-5.2-5.4-.4-.7-1.7-3.6-1.8-3.9l-.1-.2-.8-3.7c0-.2 0-1.8 1.3-2.8.8-.7 1.2-.7 2.2-.7h1.3c2.4-.1 4.2 1.1 4.2 1.2 0 0 2.5 1.5 4.1 2.9.9.8 1.9.9 2.9 1 .4 0 .8.1 1.2.2.4.1.9-.2 1.5-.8.1-.1.2-.2.4-.3-.1-.3-.5-1-.7-1.3-.2-.4-.4-.8-.6-1.1-.1-.3-.3-.5-.4-.8-.4-.8-.7-1.4-.7-2.1 0-.6.6-1.6 1.6-2.9l.2-.2 3.7-1h.2c.7.1 2 .1 2.6 0 .2-.1.7-.8 1-1.4 0-1.9.1-3.1.3-3.6.1-.3.5-1.7.8-3l.2-.8h9.4v-.6l-1.5-2.5-.8-1.8-2.9-2.9-.8-2.7 2.3-3v-1.3l-.3-.3-3.7.3-2.9 1.8-4.1 2.3-4.5 1.6-2.1-1.4.1-4.9c.1-.4.7-2.4 1-3.2-.1-.5-.9-1.6-1.2-1.9-.5-.3-2.8-1.5-3.5-1.8h-1.7c-.7.3-2.9 1.4-3.7 1.9-1.5.9-6.1.3-6.6.2-.4-.1-1 0-1.6.1-.8.1-1.5.2-2 0-.4-.1-1.3 0-1.8 0h-.8c-.2 0-.9.6-1.5 1.1-.9.9-4.4.9-5.1.7-.5-.2-1.5-.5-2-.7l-2.5.7-.5-1.9 3.1-.9.3.1c.4.2 1.6.6 2.1.8.5.1 2.7 0 3.2-.2.4-.4 1.8-1.6 2.9-1.6h.6c.8-.1 1.7-.1 2.4.1.2.1.9 0 1.3-.1.8-.1 1.6-.2 2.2 0 1.3.3 4.6.4 5.2 0 1-.6 4-2 4.1-2l.2-.1h2.7l.2.1c.1.1 3.1 1.6 3.8 2 .8.5 2.7 3 2 4.3-.2.3-.6 1.7-.9 2.9l-.1 3.4.3.2 3.4-1.2 3.8-2.2 3.3-2 5.1-.5 1.5 1.5v2.9l-2.1 2.8.4 1.3 2.9 2.9.9 2.1 1.7 2.8v3.2h-9.8c-.2.9-.5 2.1-.7 2.5-.1.3-.1 1.8-.1 3v.2l-.1.2c-.2.6-1.1 2.5-2.5 2.8-1 .2-2.5.1-3 0l-2.7.8c-.4.5-.9 1.1-1 1.4 0 .2.3.8.5 1.2.1.3.3.5.4.8.1.3.3.6.5.9.7 1.2 1.6 2.8.4 3.7-.1.1-.3.2-.4.4-.7.6-1.8 1.6-3.3 1.3-.3-.1-.7-.1-1-.2-1.2-.1-2.7-.3-4-1.5-1.4-1.2-3.8-2.7-3.9-2.7-.1-.1-1.3-.9-3-.9h-1.4c-.5 0-.5 0-.9.3s-.5.9-.5 1.1l.7 3.3c.4.9 1.4 3.1 1.7 3.6.9 1.6 3 4.3 3.8 4.4.5.1 1.1-.1 1.7-.2.9-.2 2.4-.6 3 .9.3.7 3.1 3.2 4 3.8.4-.1 1.1-.2 1.5-.4-.2-.6-.4-1.7 0-3 .1-.3.2-.7.3-1.1.4-1.3.8-2.6 1.6-3.2.2-.1.2-.2.2-.2.4-.5.7-.7 2-1 1.8-.5 3.8-1.1 3.8-1.1h.2c.1 0 1.7-.2 2.9-.2 2.4 0 3.6.5 3.6 1.6 0 .1 0 .2.1.3.1.4.3 1.1.3 1.9 0 .8 1 3 1.3 3.4.3.3 1.9 1.8 2.5 2.1.6.1 1.9.5 3.9 1.1l3.9 1.1 1.5 2.7v4.4l-1 2.2-1.4 3.5-1.4 3.2c0 .7.1 2.4-.1 3.5 1 1.1 0 2.3-.8 3.1l-.5.5c-1.5 1.7-2.6 2.9-2.9 3.4-.4.7-2.5 3.3-2.7 3.6l-.2-.3-2.9 1.4-4.2.8zm8.6-34.7zm-.2 0zm0 0zm-18.5-19.2zm-45.4-14.8c0 .1 0 .1 0 0 0 .1 0 .1 0 0zm4.4-4.4zm88.4 49.4c-3.1-2.9-3.2-3.3-3.3-3.6-.1-.4-.1-1.4 0-3.1-.1-.8-.3-2.2-.5-2.7-.2-.4-1.1-1.2-1.6-1.6l-.2-.1-1.8-3.8v-9c0-1 1.3-2.5 2.3-3.6l3.3-4.5c.8-1.5 1.8-3.4 2.2-3.8.2-.2.6-.6 5.6-2.1l.6 1.9c-1.9.6-4.3 1.3-4.8 1.6-.3.4-1.2 2-1.9 3.3l-.1.1-3.5 4.7c-.9.9-1.7 1.9-1.8 2.3v8.5l1.4 3c.5.4 1.6 1.3 2 2.2.5 1 .7 3.2.7 3.4v.2c0 .9-.1 2.1 0 2.5.4.4 1.6 1.7 2.7 2.7l-1.3 1.5zm-1.4-4.2zm3.2-30.1zM180.1 113c-.3 0-.6 0-.8-.1-.3 0-.6-.1-1-.1-.8.1-1.4 0-1.8 0h-.4c-.7 0-3.1-.8-4.3-2.1-1-1.1-1.1-3.5-1.1-5.5v-.2c0-.4-.5-3.8-1-6.8l2-.3c.3 2 1 6.6 1 7.2v.3c-.1 3 .4 3.9.5 4.1.8.9 2.5 1.4 2.9 1.5h2c.6-.1 1.1 0 1.5.1.3 0 .5.1.6 0 2-.3 3.1-.4 3.5-.4h2.2v2h-2.2c-.2 0-.9.1-3.3.4 0-.1-.2-.1-.3-.1z"/></svg>