<svg version="1" xmlns="http://www.w3.org/2000/svg" width="576" height="576"><ellipse fill="none" stroke="#000" stroke-width="2.785" stroke-miterlimit="10" cx="285.3" cy="129" rx="27.8" ry="41.5"/><path fill="none" stroke="#000" stroke-width="2.785" stroke-miterlimit="10" d="M277.6 168.9v11.3m15.4-11.3l1.8 11.3M261 108.7s18.8 9.8 46.8-4.1m-50.3 150.7c-2.6-33-5.7-72.4-5.7-72.4l67.7-4.7s-1.4 42.4-2.5 77.1"/><path fill="none" stroke="#000" stroke-width="2.785" stroke-miterlimit="10" d="M251.8 182.8l-33.7 78.7 70.7 10.7-1.7-47-5.3 2.3-8 31s-33.3-6.7-33.3-8.7 14.1-32.4 14.1-32.4m-14.1 32.4l-22.4 11.7m101.4-83.3l38.4 83.3-66.9 10.7-1.5-46.1 4.7 1.4 8 31s33.3-6.7 33.3-8.7-17.3-34.1-17.3-34.1m17.3 34.1l22.4 11.7"/><path fill="none" stroke="#000" stroke-width="2.785" stroke-miterlimit="10" d="M316.5 268.1c-.6 17-1 31.4-1 31.4H261s-1-13.1-2.4-30.6m2.4 30.6l19.1 159.3h9.4l-.7-159.3m3.7 0l4.3 159.3h9.7l9-159.3m-35.4 159.3l-30.6 17.4 28 11 12-28.4m7.3 0l15 29.7 26.7-10-32-19.7"/></svg>