<svg version="1" xmlns="http://www.w3.org/2000/svg" width="576" height="576"><path d="M295.9 168.5l-1.4-2.4c1.9-1.1 3.8-2.6 5.6-4.4l2 2c-2 2-4.1 3.6-6.2 4.8zm-34.3-15c-2.1-4.3-3.6-9-4.5-14l2.7-.5c.9 4.8 2.3 9.2 4.3 13.3l-2.5 1.2zm48.5-2.4l-2.6-1.1c1.8-4.2 3-8.7 3.6-13.5l2.8.4c-.7 5.1-2 9.9-3.8 14.2zm-51.1-26l-2.8-.2c.3-5 1.1-9.9 2.6-14.4l2.7.8c-1.4 4.4-2.2 9-2.5 13.8zm52.4-2.5c-.5-4.8-1.5-9.4-3.1-13.6l2.6-1c1.7 4.5 2.7 9.3 3.2 14.3l-2.7.3zm-43.9-23.7l-2.3-1.6c3.2-4.4 7.1-7.8 11.3-9.7l1.2 2.5c-3.8 1.7-7.3 4.8-10.2 8.8zm34.1-1.9c-3.2-3.8-7-6.5-10.9-7.7l.8-2.7c4.4 1.4 8.7 4.4 12.2 8.6l-2.1 1.8zm-24.5 72.7c-2.2-.9-4.4-2.3-6.7-4.2l1.8-2.1c2.1 1.7 4 3 5.9 3.8l-1 2.5zm-6.9 12.8l-.2-2.8 6.2-.4v-6.9h2.8v9.5zm-20.1 7.3l-2.6-1.2 3.4-7.6 8.3-.6.2 2.8-6.7.4zm-22.2 51.9l-2.6-1.1 5.6-13 2.6 1.1-5.6 13zm11.1-26l-2.6-1.1 5.6-13 2.6 1.1-5.6 13zm-13.7 47.8l-9.2-1.4 3.7-8.6 2.6 1.2-2.3 5.2 5.6.8zm8.476 1.221l.41-2.77 8.508 1.263-.411 2.77zM257.7 274.7l-.5-6.4-6.3-.9.4-2.8 8.5 1.3.7 8.6zM276 435.1l-1.9-16 2.8-.3 1.9 16-2.8.3zm-3.9-32.1l-1.9-16 2.8-.3 1.9 16-2.8.3zm-3.8-32l-1.9-16 2.8-.3 1.9 16-2.8.3zm-3.9-32l-1.9-16 2.8-.3 1.9 16-2.8.3zm-3.9-32.1l-.9-7.8-.7-8.3 2.8-.2.7 8.3.9 7.7-2.8.3zm13.8 156.3l-1.4-2.4 5.7-3.3-.8-6.4 2.8-.4 1 8.4zm-18.4 16.5l-9.6-3.8 9-5.1 1.4 2.4-4 2.3 4.2 1.6zm22.4 8.8l-8.3-3.3 1-2.6 5.7 2.3 2.4-5.6 2.6 1zm9.6-22.9l-2.6-1.1 2.8-6.5v-8.2h2.8v8.8l-3 7zm.1-31.7l-.1-15.9h2.8l.1 15.9H288zm-.1-31.9l-.1-15.9h2.8l.1 15.9h-2.8zm-.2-31.8l-.1-15.9h2.8l.1 15.9h-2.8zm-.1-31.9l-.1-15.9h2.8l.1 15.9h-2.8zm3.7-31.8l-.2-6.1h-.9v6.1h-2.8v-8.9h6.5l.2 8.9zm8.6 161l-4.5-8.8-.2-6.9 2.8-.1.2 6.2 4.2 8.3-2.5 1.3zm-5.1-31.9l-.4-16.1 2.8-.1.4 16.1-2.8.1zm-.9-32.2l-.4-16.1 2.8-.1.4 16.1-2.8.1zm-.9-32.3l-.4-16.1 2.8-.1.4 16.1-2.8.1zm-.9-32.3l-.4-16.1 2.8-.1.4 16.1-2.8.1zm19 150.9l-3.9-7.8 2.4-1.2 2.9 5.6 5.8-2.2 1 2.6zm20.8-7.8l-1-2.6 4.4-1.6-3.9-2.4 1.4-2.4 8.9 5.4zm-13.339-14.515l1.455-2.392 6.408 3.897-1.455 2.392zM312.1 463.5l-7-4.5.4-8.3 2.8.2-.4 6.7 5.6 3.5zm-2.9-28.5l-2.8-.2.9-16 2.8.2-.9 16zm1.8-32l-2.8-.2.9-16 2.8.2-.9 16zm1.8-31.9l-2.8-.2.9-16 2.8.2-.9 16zm1.8-32l-2.8-.2.9-16 2.8.2-.9 16zm1.8-31.9l-2.8-.2.5-8.1.2-7.8 2.8.1-.2 7.9-.5 8.1zm1.2-32l-2.8-.2.4-8.6 8.5-1.4.4 2.8-6.3 1zm14.837-11.583l8.89-1.4.436 2.765-8.89 1.401zm18.163-.017l-.4-2.8 5.6-.9-2.4-5.1 2.6-1.2 3.8 8.5zm-3.6-22.8l-6.4-13.9 2.5-1.2 6.4 13.9-2.5 1.2zm-12.8-27.9l-6.4-13.9 2.5-1.2 6.4 13.9-2.5 1.2zm-12.9-27.8l-2.7-5.9-6.5.4-.2-2.8 8.5-.6 3.5 7.7zm-27.8-4.2l-.2-1.2s-.8-4.9-1.3-8.2l2.8-.4c.3 2.3.8 5.3 1.1 6.9l6.2-.4.2 2.8-8.8.5zm22 75.6l.2-9.3 2.8.1-.2 5.7c1.9-.4 3.8-.9 5.5-1.3l.7 2.7c-2.2.6-4.8 1.2-7.4 1.7l-1.6.4zm.508-17.324l.264-8.196 2.799.09-.265 8.197zM319.4 222.7l-2.8-.1.3-12.6 2.5 4.5s1.5 2.8 3.5 6.6l-2.5 1.3c-.4-.7-.7-1.3-1-1.9v2.2zm14.1 25.1c-1.1-2.6-3.5-7.5-6.3-12.7l2.5-1.3c2.8 5.3 5.2 10.2 6.4 12.9l-2.6 1.1zm-79.8-23.2l-.2-2.2c-.3.6-.6 1.2-.9 1.9l-2.5-1.1c1.8-4 3.1-6.8 3.1-6.8l2.2-4.8 1 12.8-2.7.2zm.594 7.512l2.791-.222.595 7.476-2.79.222zM259 256.3l-1.9-.4c-2.5-.6-5-1.2-7.3-1.7l.6-2.7c1.7.4 3.6.8 5.5 1.3l-.4-5.6 2.8-.2.7 9.3zm-16.6-8.7l-2.6-1c.9-2.2 2.4-5.8 5.1-11.8l2.5 1.1c-1.6 3.7-3.9 8.9-5 11.7z"/></svg>