<svg version="1" xmlns="http://www.w3.org/2000/svg" width="576" height="576"><g fill="#27AAE1"><path d="M347.6 77.6s25.2 42.7 3.7 67.5c0 0 16.6-10.8 16.3-28-.3-17.2-8.9-32.2-8.9-32.2s-7.8-7-11.1-7.3zm24.5 71.5l2 106.3-36.6 8.8 37.6-1.3 13.8 190.8 13.9 20.8 17.8-8.7-27.7-11.9-7.3-190.1.6-1.3-1.2-71.8 11.4 27 1.6 69.7h4.3l2.9-72-12.3-37.3-11.3-7.7 2.9-8.9.5-12.8z"/><path d="M353.1 263.7l-5.1 190-22.2 14.8 12.4 6.1 14.5-20.9 7.3-133.3 2.6-46.7 1.1-10.3z"/></g><g fill="none" stroke="#000" stroke-width="2.785" stroke-miterlimit="10"><ellipse cx="256.4" cy="112.9" rx="27.8" ry="41.5"/><path d="M232.1 92.6s18.8 9.8 46.8-4.1m-30.2 64.3v11.3m15.4-11.3l1.8 11.3m-43 2.6l67.7-4.6-4 121.3h-54.5z"/><path d="M222.9 166.7L203 222.4l12 66.7h9.7l-4.3-66.4 5.4-20m-1.1 86.4l4.4 10.3-4.4 4.5-4.3-4.3v22.8l-11-11.3 5.6-22m-12-66.7l17.4.3m11.7 60.7l13.2 159.3h9.3l5.3-159.3m3.7 0l4.3 159.3h9.7l9-159.3m-41.3 159.3l-30.7 17.4 28 11 12-28.4m13.3 0l15 29.7 26.7-10-32-19.7m13.3-261.4c8.6-1.8 17.2-3.5 25.8-5.3m-26.1-13.9l99.8-14.2 9.5 16.2-5.8 14.8-12.7-8.3 6.7-19.2"/><ellipse transform="matrix(.9982 -.05925 .05925 .9982 -6 20.714)" cx="346.3" cy="111.5" rx="21.4" ry="34.2"/><path d="M358.6 79.6s-16.8 4.2-26.1 1.5m28.9 2.8c-1.5 1-17.6 5.8-32.1 2.6m34.2 2.4s-17.1 8.5-35.4 3.1m14.1 52.3l1 9.7m12.6-11.1v8.5m28.8 21c.6 33.6 1.6 90.1 1.6 90.1l-49.7 1.8-16.6-106.8 64.3-9.5s.1 5.3.2 13.5"/><path d="M319.9 157.4l-9.5 67.7 11.3 62.3 10.8-1.3-5.8-60.4 1.4-15.9m-17.7 15.3l16.3.6"/><path d="M321.7 287.4l-1.8 15.3 8.2 20.7 8.4-3.7-5.8-20.3 5.8 2.3 1-4.6-5-11m51.7-138.2s1 2.5 2.7 6.5m8.7 20.6c7.3 17.3 16.1 38.1 16.1 38.1l-5.3 74.3H398l-1.6-69.7-11.4-27m11.4 27c2 .4 15.3-4.6 15.3-4.6M398 287.4l-5.1 12.7 5.1 3 3.7-4v17l10 4.3-5.3-33"/><path d="M385.6 263.8l7.3 189.9h-9.3l-20.5-189.9-10.4 189.9H342l-5.5-188.6m56.1 188.7l28 12-17.8 8.7-19.4-20.7"/><path d="M352.7 453.7l-14.5 20.9-18.1-8.9 22.4-11.8"/></g></svg>