<svg version="1" xmlns="http://www.w3.org/2000/svg" width="576" height="576"><ellipse fill="none" stroke="#000" stroke-width="2.785" stroke-miterlimit="10" cx="143.6" cy="130.5" rx="27.8" ry="41.5"/><path fill="none" stroke="#000" stroke-width="2.785" stroke-miterlimit="10" d="M119.3 110.2s18.8 9.8 46.8-4.1m-30.2 64.3v11.3m15.4-11.3l1.8 11.3m-43 2.6l67.7-4.6-4 121.3h-54.5zm-.4-.3l-19.9 55.7 12 66.6h9.7l-4.4-66.3 5.4-20m-22.7 19.7l17.3.3m4.4 66.3l4.4 10.4-4.4 4.5-4.4-4.3v22.8l-11-11.3 5.7-22.1"/><path fill="none" stroke="#000" stroke-width="2.454" stroke-miterlimit="10" d="M177.8 179.7l34.2 40.8 39.9-11.2c0-1.2 5.3-13.5 5.3-13.5l14.7-7.9 1.8 2.3 16.7-7.9 1.2 6.2-8.5 5.6.6 15.3-15.3 7.3h-11.7l-46.1 25.8-33.6-38.8"/><path fill="none" stroke="#000" stroke-width="2.785" stroke-miterlimit="10" d="M212.1 220.2l-1.6 22.3m41.3-33.1l5.3 8.3M119.3 301l13.1 159.3h9.4l5.3-159.3m3.7 0l4.3 159.3h9.7l9-159.3m-41.4 159.3l-30.6 17.4 28 11 12-28.4m13.3 0l15 29.7 26.7-10-32-19.7"/><ellipse transform="rotate(-4.211 338.45 149.11)" fill="none" stroke="#000" stroke-width="2.454" stroke-miterlimit="10" cx="338.4" cy="149.1" rx="21.1" ry="32"/><path fill="none" stroke="#000" stroke-width="2.454" stroke-miterlimit="10" d="M333.9 186.6l-25.1-1.1s-13.2-72.6 26.8-74.8c40-2.1 40.1 71.8 40.1 71.8l-27.5 4.3m-.6-8l.9 12m-13.2-10.4l-1 11.5m35 70.2c-4.2-13.4-10.9-30.4-10.9-30.4l4.8-41.9L320 193l8.5 41.8-8.4 47.8s27.4 6.9 49.9-3.5"/><path fill="none" stroke="#000" stroke-width="2.454" stroke-miterlimit="10" d="M319.9 192.9l-18.1 34.3 19.3 49"/><path fill="none" stroke="#000" stroke-width="2.454" stroke-miterlimit="10" d="M323.3 209.6l-8.9 19 9.7 30.7m-3.6 20.5l-12.8 4.5-6.2-10 17.7-3.1m44-81.5l16.8 47.5.2 64 2.5 11.2-2.8 14.1-7.3-1.5-1.6-21.1-2.6-63.5-8.4-22.7"/><path fill="none" stroke="#000" stroke-width="2.454" stroke-miterlimit="10" d="M380.6 322.5c7.2 42.1 17 98.5 17 98.5s-32.2 21.5-92.8 6.8L320 282.5"/><path fill="none" stroke="#000" stroke-width="2.454" stroke-miterlimit="10" d="M363.6 432l-1.8 19.3-7 .5-1.4-19.1m-18.8-.2l5 20.4 7.1-.5-1.4-19.1"/><path fill="none" stroke="#000" stroke-width="2.454" stroke-miterlimit="10" d="M339.6 452.9l-21.3 13.2 17.3 5.8 11.1-19.5m15.1-1.1l23 9.9-16.2 8.2-13.8-17.6"/><ellipse transform="rotate(-85.452 436.843 122.603)" fill="none" stroke="#000" stroke-width="2.454" stroke-miterlimit="10" cx="436.9" cy="122.6" rx="37.9" ry="23.8"/><path fill="none" stroke="#000" stroke-width="2.454" stroke-miterlimit="10" d="M428.9 160.4l-.9 11.2m15.3-13.4l.9 12.2m18.9 44.9c-.3-22.5.1-43.3.1-43.3l-54.2-2.3s.3 13.3.8 30.7"/><path fill="none" stroke="#000" stroke-width="2.454" stroke-miterlimit="10" d="M463.2 172l18.3 57.3s-35.2 12.1-79.2-1.5m6.7-58s-5.1 13.7-10.1 27.5"/><path fill="none" stroke="#000" stroke-width="2.454" stroke-miterlimit="10" d="M395.4 206.5c-3.8 10.2-6.8 18.6-6.8 18.6s20.1 11 73.9-10.3l-8-9.2s-29.1 3.2-51.1 7"/><path fill="none" stroke="#000" stroke-width="2.454" stroke-miterlimit="10" d="M419.3 210.1l-6.1-8.9-18.1-5.4-1.5 8.9 13.1 7.3m3.7 15.3c.7 27 1.3 53.4 1.3 53.4s33.6 10.3 52.9-.6c0 0-.3-22.8-.6-47.4"/><path fill="none" stroke="#000" stroke-width="2.454" stroke-miterlimit="10" d="M464.6 280s-1.3 140.6-5.9 175.7l-6.1.5L438.1 285m-4.4.8s-18.1 119.1-17.9 171.3l-8.5.6s-12.8-119.8 4.5-177m46.9 175.1l26.3 15.4-23 8.6-9.4-23.6"/><path fill="none" stroke="#000" stroke-width="2.454" stroke-miterlimit="10" d="M415.7 457.1l-15.2 23.7-18.6-8.2 25.3-14.9"/></svg>