<svg version="1" xmlns="http://www.w3.org/2000/svg" width="576" height="576"><ellipse fill="none" stroke="#000" stroke-width="2.785" stroke-miterlimit="10" cx="249.4" cy="128.8" rx="27.8" ry="41.5"/><path fill="none" stroke="#000" stroke-width="2.785" stroke-miterlimit="10" d="M225.1 108.5s18.8 9.8 46.8-4.1m-30.2 64.3V180m15.4-11.3l1.8 11.3m-43 2.7l67.7-4.7-4 121.3h-54.5zm-.4-.4L195.6 238l12 66.7h9.6l-4.3-66.4 5.4-20M195.6 238l17.3.3m4.3 66.4l4.5 10.3-4.5 4.5-4.3-4.3V338l-11-11.2 5.7-22.1"/><path fill="none" stroke="#000" stroke-width="2.785" stroke-miterlimit="10" d="M283.6 178l34.4 37.3 28.7-41-4.4-9 8.7-18.8 7 1.5 7-15.5 14 3.5-11.7 41-8 1-37.6 65.5-39-39.8m35.3 11.6l3.7 28.2m-96.6 55.8l13.1 159.4h9.4l5.3-159.4m3.7 0l4.3 159.4h9.7l9-159.4m-41.4 159.4L207.6 476l28 11 12-28.3m13.3 0l15 29.6 26.7-10-32-19.6"/></svg>