<svg version="1" xmlns="http://www.w3.org/2000/svg" width="576" height="576"><path fill="none" stroke="#000" stroke-width="2.785" stroke-miterlimit="10" d="M474.5 379l5.5-146s-4.5-16.5-18-19-62.5-13-64.5-13-52.5-4-58.5-4-83.5 6-85.5 6.5-64 19-66.5 23-4 12.5-3.5 18-.1 132-.1 132"/><path fill="none" stroke="#000" stroke-width="2.785" stroke-miterlimit="10" d="M291 218c-2 0-36.5 3.5-40.5 5s-34 8.4-35.5 10-5.5 5.5-5.5 7.5 11.5 11.5 33 13.5 34.5 4 48.5 4 43.5-.5 48 0 68 0 68 0 43.5-8.5 49-14 15.5-5.1 6.5-11-24.5-12.5-58.5-15-40.5 2-48 0-40-1.1-42-.8-23 .8-23 .8zm-91.5 40.2s14 3.3 17.5 3.3 16 .5 16 2.5v11.5s-34.5-.5-33.5-2 0-15.3 0-15.3zm5.2 35.8c.8-.5 5-2.2 9.5-2.2s20.5-.8 24.2 0c3.8.8 22.2-.2 23.2 2.2s3.2 35 3.2 35h-22.5c-3.3 0-20.5.8-23 0s-13.5-4.2-13.5-4.2l-1.1-30.8zm73.8 56s-1.8 9.5 0 11 0 20.8 0 20.8h58.2s.9-7 1.1-9.8 0-12.2 0-12.2 1.1-13.5 0-13.5-59.3 3.7-59.3 3.7zm-58.3-.5l22.3-1.2h13.2v18.2h-15l-19.5-2.5zm72.5-56.7l2 12.5h32.8l2.5-15zm60.8 5.1s-.5 7 0 7.8 0 10 0 10 30.8-1 32-1.6 12.5 0 12.5 0l-4-17.9s-5.8-.7-8-1.1c-2.2-.4-10.8-.3-12.8 0s-19.7 2.8-19.7 2.8zm109.2-26.1c-1 0-19.2 2.2-21.2 2.2H431l-17.5 3.5s.8 7 1 7.5-1.2 14.2-1 15 1 5.1 1 5.1 18.5-.6 20 0 30.5-2.9 30.5-2.9-1-11 0-12.2-2.3-18.2-2.3-18.2zm-98.7 60s18.2-3.1 19.5-2.4c1.2.7 26.5-2.1 26.5-2.1s11.8-1.5 11.8 0 1 30.1 1 30.1-5 3.4-6.2 3.4h-11.2s-39.8 2.5-39.8 1.8 0-3.2-.2-6.5-1.8-11.2-1.2-12.8-.2-11.5-.2-11.5zm75.3 22.2s10.4-1.2 12.7-1.2 8.8.6 8.8.6l1.2 13.1-11.3 1.2h-10.2l-1.2-13.7z"/></svg>