<svg version="1" xmlns="http://www.w3.org/2000/svg" width="576" height="576"><path fill="none" stroke="#000" stroke-width="2.785" stroke-miterlimit="10" d="M364.7 150.6c-4.1 3.8-9.1 6-14.4 6-14.5 0-26.2-16.4-26.2-36.7 0-12.1 4.2-22.8 10.6-29.5"/><path fill="none" stroke="#000" stroke-width="2.785" stroke-miterlimit="10" d="M334.2 88.6c1.2 1.3 8.4 4 16.2 11s10.8 28.7 10.8 30c0 1.3 9.3 60.3 9.3 60.3l25 35.8 6.6 75.5 42.7-39.7s-6.3-35.1-7.3-35.9c-1-.8-26.1-27.8-26.1-27.8s-3.9-24.3-3.6-27.7 3.2-28.3 3.6-36-12.3-50.3-30.9-54c-18.7-3.7-40.3 0-40.3 0s-11.4 4.7-7.4 12.5"/><path fill="none" stroke="#000" stroke-width="2.785" stroke-miterlimit="10" d="M344.5 79.6s15.7 5.8 17.7 9.3 12.5 37 12.5 37l-7.4 43.9m21.1-26.6s3.1 33 4.3 34.8c1.2 1.8 19.7 20.9 19.7 20.9m-64.2-42.3l1.8 10.9m-10.4-14.2c-2.1.9-7.7 19-7.7 19"/><path fill="none" stroke="#000" stroke-width="2.785" stroke-miterlimit="10" d="M366.3 163.2l-39.1 10.4 15.7 77.9"/><path fill="none" stroke="#000" stroke-width="2.785" stroke-miterlimit="10" d="M378.1 200.8L365 243.7l-43.1 15v9.6l59.9-13.3 10.9-33.3m-26.4 21.9l16.8 11.3m-118.7-58.4h-19.2l-21.5 8.5 11 20.7-11 8.6 5 61.3s16 8.7 20.2 9.7 14.5 1.2 15.5 1.2 19.7-6 19.7-6l13.4-62-12.3-11.8 14.4-18.5-21.6-11.7h-13.6zm156.4 211.2s3.3-88.8 4.8-128.3M223.7 240l-19.8-3.8 1.5 36 20.6-9.3"/><path fill="none" stroke="#000" stroke-width="2.785" stroke-miterlimit="10" d="M224.8 247.8l-12.4-1.3 1 14.1 12.1-3.9m70.8-10.6l20.1-.9s-.9 4.8-2 10.9"/><path fill="none" stroke="#000" stroke-width="2.785" stroke-miterlimit="10" d="M321.9 258.7l-6.4-6-1.1 3h-12.9l-2.7 15.6 18.3 4.4 4.8-7.4"/><path fill="none" stroke="#000" stroke-width="2.785" stroke-miterlimit="10" d="M310.9 274.8c-.7 3.5-1.1 5.9-1.1 5.9l-19.1-12.1m3.4-14.8s11.3.4 12.3.4m-6.4 12.1c-3.4-1.6-7.9-3.8-7.9-3.8m38.4-72.6l-42.7 39.4m48-12.4l-38.3 24.7m40.7-12.3c-4.6-.3-11.6-.9-19-1.4m-27.6-1.9c-2.4-.1-4.3-.2-5.5-.3m-56.4 3.8c-16.3 1.3-29.1 2.4-29.9 2.6-2 .5-64 19-66.5 23s-4 12.5-3.5 18-.1 132-.1 132m212.4-158.9c-12-.6-19.8-.2-25.4.3"/><path fill="none" stroke="#000" stroke-width="2.785" stroke-miterlimit="10" d="M204.6 250.2c-3.9.5-6.8 1.1-7.8 1.4-4 1.5-34 8.4-35.5 10-1.5 1.5-5.5 5.5-5.5 7.5s11.5 11.5 33 13.5c16.5 1.5 28.1 3.1 38.9 3.7m59.4.5c5 .2 18.1.2 32 .1m-173.3 0s14 3.3 17.5 3.3 16 .5 16 2.5v11.5s-34.5-.5-33.5-2 0-15.3 0-15.3zm5.2 35.8c.8-.5 5-2.2 9.5-2.2s20.5-.8 24.2 0 22.2-.2 23.2 2.2 3.2 35 3.2 35h-22.5c-3.3 0-20.5.8-23 0s-13.5-4.2-13.5-4.2l-1.1-30.8zm73.8 56s-1.8 9.5 0 11 0 20.8 0 20.8H283s.9-7 1.1-9.8 0-12.2 0-12.2 1.1-13.5 0-13.5-59.3 3.7-59.3 3.7zm-58.3-.5l22.3-1.3H202v18.3h-15l-19.5-2.5zm72.5-56.8l2 12.5h32.8l2.5-15zm165.6 14.3c4.1-.5 7.1-.8 7.1-.8s-1-11 0-12.2-2.2-18.2-2.2-18.2c-.3 0-2 .2-4.3.5m-1 76.8c1.6.1 2.8.3 2.8.3l1.2 13.1s-2.5.3-5.1.6"/><path fill="none" stroke="#000" stroke-width="2.785" stroke-miterlimit="10" d="M346 262.9l-55.5 50.7 4.7 133.3 107.6 6.7 1.6-154.5"/><path fill="none" stroke="#000" stroke-width="2.785" stroke-miterlimit="10" d="M327.8 448.9l-39.3 15.7 33.4 18.3 29-32.6m15.3 1l-17.4 44.9 43 2-4.6-46.9"/><ellipse fill="none" stroke="#000" stroke-width="2.785" stroke-miterlimit="10" cx="260" cy="207.3" rx="24.1" ry="6.3"/></svg>